<svg width="66" height="44" viewBox="0 0 66 44" fill="none" xmlns="http://www.w3.org/2000/svg">
<g clip-path="url(#clip0_1069_6831)">
<path d="M28.2823 21.6139H28.2285V21.6021H28.2823C28.2823 21.6065 28.2823 21.6102 28.2823 21.6139Z" fill="#35EDDF"/>
<path d="M39.0512 24.5169C38.1448 27.4555 34.9582 29.3919 31.9418 28.8347C28.9078 28.1473 27.568 26.5442 26.9902 24.5073H28.6948C30.2048 27.8399 35.5205 28.3513 37.2545 24.5169H39.0512Z" fill="#35EDDF"/>
<path d="M39.3685 20.3884H37.6897V17.3508C37.7295 14.8113 35.5216 12.5918 32.9894 12.6369C28.3208 12.8742 28.1786 16.7913 28.253 20.3884H26.5713C26.5735 19.3885 26.6096 18.3641 26.6111 17.3508C26.5219 13.594 30.1396 10.4226 33.8362 11.0102C35.3499 11.209 36.7641 11.9688 37.773 13.1195C39.6146 14.9473 39.4002 18.0078 39.3677 20.3892L39.3685 20.3884Z" fill="#35EDDF"/>
<path d="M48.4594 11.7263C48.3364 14.4373 49.0903 18.9354 46.9288 21.0573C44.715 23.6138 42.3317 23.2723 39.3257 23.262C39.2977 23.5111 39.2534 23.7587 39.196 24.0026H37.456C37.5341 23.7638 37.5938 23.5162 37.6329 23.262H35.974V21.6131H37.6896V20.9021H39.3684V21.6131C39.9646 21.5584 42.3111 21.6922 42.8564 21.5495C45.0857 21.1911 46.7888 19.2303 46.7807 16.9C46.732 13.2407 47.7122 7.78554 42.7061 7.05385C39.8828 6.63257 37.2497 9.02869 37.3808 11.8904C36.8937 11.4906 36.3476 11.1558 35.7559 10.9001C36.9917 3.04061 48.2457 3.77231 48.4594 11.7263Z" fill="#1B56BF"/>
<path d="M44.319 2.21279C44.2689 5.16322 39.8929 5.16248 39.8428 2.21279C39.8929 -0.737641 44.2689 -0.736902 44.319 2.21279Z" fill="#1B56BF"/>
<path d="M17.5413 11.7263C17.6644 14.4373 16.9105 18.9354 19.0719 21.0573C21.2858 23.6138 23.6691 23.2723 26.6751 23.262C26.7031 23.5111 26.7473 23.7587 26.8048 24.0026H28.5447C28.4666 23.7638 28.4069 23.5162 28.3679 23.262H30.0267V21.6131H28.3111V20.9021H26.6323V21.6131C26.0362 21.5584 23.6897 21.6922 23.1443 21.5495C20.9151 21.1911 19.212 19.2303 19.2201 16.9C19.2687 13.2407 18.2886 7.78554 23.2947 7.05385C26.118 6.63257 28.7511 9.02869 28.6199 11.8904C29.107 11.4906 29.6531 11.1558 30.2449 10.9001C29.009 3.04061 17.755 3.77231 17.5413 11.7263Z" fill="#1B56BF"/>
<path d="M21.6816 2.21279C21.7318 5.16322 26.1078 5.16248 26.1579 2.21279C26.1078 -0.737641 21.7318 -0.736902 21.6816 2.21279Z" fill="#1B56BF"/>
<path d="M35.2282 7.85866C35.1781 10.8091 30.8021 10.8084 30.752 7.85866C30.8021 4.90823 35.1781 4.90897 35.2282 7.85866Z" fill="#35EDDF"/>
<path d="M4.63322 33.8929C7.36953 33.8929 9.27013 35.921 9.27013 38.9468C9.27013 41.9726 7.36953 44.0007 4.63322 44.0007C1.89692 44.0007 0 41.9719 0 38.9461C0 35.9203 1.89397 33.8922 4.63322 33.8922V33.8929ZM4.63322 42.4198C6.42549 42.4198 7.48449 41.1478 7.48449 38.9468C7.48449 36.7458 6.42623 35.4739 4.63322 35.4739C2.84022 35.4739 1.78564 36.7458 1.78564 38.9468C1.78564 41.1478 2.83727 42.4198 4.63322 42.4198Z" fill="#35EDDF"/>
<path d="M10.7832 35.9062H12.2372V40.5026C12.2372 41.9438 12.9417 42.7088 14.1938 42.7088C15.4459 42.7088 16.1504 41.9438 16.1504 40.5026V35.9062H17.6044V40.5632C17.6044 42.6918 16.2418 44.0007 14.1938 44.0007C12.1458 44.0007 10.7832 42.6925 10.7832 40.5632V35.9062Z" fill="#1B56BF"/>
<path d="M25.5471 37.3585H22.9766V43.9999H21.5226V37.3585H18.9521V36.0725H25.5471V37.3585Z" fill="#1B56BF"/>
<path d="M26.8943 44V36.0718H30.7611C32.4362 36.0718 33.5276 37.02 33.5276 38.4361C33.5276 39.6866 32.6624 40.5122 31.333 40.5514C31.938 40.5957 32.4111 41.0251 32.7567 41.796L33.7406 44H32.1348L31.145 41.8019C30.8687 41.1892 30.5533 41.0007 29.7714 41.0007H28.3476V44H26.8936H26.8943ZM30.5842 39.7532C31.5187 39.7532 32.0714 39.2957 32.0714 38.5196C32.0714 37.7436 31.5378 37.3334 30.5813 37.3334H28.3483V39.7532H30.5842Z" fill="#1B56BF"/>
<path d="M40.655 36.0725V37.3585H36.7079V39.4206H40.3286V40.6682H36.7079V42.7139H40.7597V44H35.2539V36.0718H40.655V36.0725Z" fill="#1B56BF"/>
<path d="M41.8535 44L44.6893 36.0718H46.7845L49.5819 44H48.0365L47.4116 42.1345H44.001L43.368 44H41.8535ZM46.9974 40.8928L45.7174 37.0622L44.4211 40.8928H46.9974Z" fill="#1B56BF"/>
<path d="M54.0633 42.7088C55.2439 42.7088 55.9786 42.0244 56.2189 40.7022H57.667C57.3516 42.7561 55.9978 44.0007 54.0596 44.0007C51.8267 44.0007 50.2783 42.343 50.2783 39.8707C50.2783 37.3985 51.8259 35.7407 54.0596 35.7407C55.9971 35.7407 57.3516 36.9853 57.667 39.0393H56.2189C55.9786 37.717 55.2432 37.0326 54.0633 37.0326C52.5982 37.0326 51.739 38.0718 51.739 39.8715C51.739 41.6711 52.5982 42.7103 54.0633 42.7103V42.7088Z" fill="#1B56BF"/>
<path d="M65.9999 44H64.5459V40.6903H60.7646V44H59.3105V36.0718H60.7646V39.3984H64.5459V36.0718H65.9999V44Z" fill="#1B56BF"/>
</g>
<defs>
<clipPath id="clip0_1069_6831">
<rect width="66" height="44" fill="white"/>
</clipPath>
</defs>
</svg>
