<svg width="29" height="21" viewBox="0 0 29 21" fill="none" xmlns="http://www.w3.org/2000/svg">
<path d="M21.8962 11.6762L21.8958 11.6756C21.849 11.5934 21.8012 11.5125 21.7524 11.4327C22.2932 10.9945 23.06 10.6828 24.1785 10.6828C25.9642 10.6828 26.884 11.4781 27.4011 12.3875C27.9505 13.3537 28.0662 14.5016 28.0662 15.1207C28.0662 15.4687 27.888 15.7306 27.4953 15.9447C27.1031 16.1586 26.5757 16.2682 26.107 16.2792H26.0296H23.2456C23.1187 14.6988 22.6799 13.0535 21.8962 11.6762ZM6.92038 11.6756L6.92 11.6762C6.13631 13.0535 5.69749 14.6988 5.57065 16.2792H2.78661H2.70918C2.24053 16.2682 1.71313 16.1586 1.32087 15.9447C0.928199 15.7306 0.75 15.4687 0.75 15.1207C0.75 14.5016 0.865685 13.3537 1.41511 12.3875C1.93224 11.4781 2.85199 10.6828 4.63767 10.6828C5.75622 10.6828 6.52303 10.9945 7.06386 11.4327C7.01506 11.5125 6.96723 11.5934 6.92038 11.6756ZM20.3951 17.2441C20.3951 17.9103 20.0317 18.3881 19.3886 18.7386C18.7241 19.1007 17.844 19.2671 17.0968 19.2671H17.0863H17.0758H17.0653H17.0548H17.0443H17.0338H17.0233H17.0128H17.0023H16.9918H16.9813H16.9708H16.9603H16.9498H16.9393H16.9288H16.9183H16.9078H16.8973H16.8868H16.8763H16.8658H16.8553H16.8448H16.8343H16.8238H16.8133H16.8028H16.7923H16.7818H16.7713H16.7608H16.7503H16.7398H16.7293H16.7188H16.7083H16.6978H16.6873H16.6768H16.6663H16.6558H16.6453H16.6348H16.6243H16.6138H16.6033H16.5928H16.5823H16.5718H16.5613H16.5508H16.5403H16.5298H16.5193H16.5088H16.4983H16.4878H16.4773H16.4668H16.4563H16.4458H16.4353H16.4248H16.4143H16.4038H16.3933H16.3828H16.3723H16.3618H16.3513H16.3408H16.3303H16.3198H16.3093H16.2988H16.2883H16.2778H16.2673H16.2568H16.2463H16.2358H16.2253H16.2148H16.2043H16.1938H16.1833H16.1728H16.1623H16.1518H16.1413H16.1308H16.1203H16.1098H16.0993H16.0888H16.0783H16.0678H16.0573H16.0468H16.0363H16.0258H16.0153H16.0048H15.9943H15.9838H15.9733H15.9628H15.9523H15.9418H15.9313H15.9208H15.9103H15.8998H15.8893H15.8788H15.8683H15.8578H15.8473H15.8368H15.8263H15.8158H15.8053H15.7948H15.7843H15.7738H15.7633H15.7528H15.7423H15.7318H15.7213H15.7108H15.7003H15.6898H15.6793H15.6688H15.6583H15.6477H15.6372H15.6267H15.6162H15.6057H15.5952H15.5847H15.5742H15.5637H15.5532H15.5427H15.5322H15.5217H15.5112H15.5007H15.4902H15.4797H15.4692H15.4587H15.4482H15.4377H15.4272H15.4167H15.4062H15.3957H15.3852H15.3747H15.3642H15.3537H15.3432H15.3327H15.3222H15.3117H15.3012H15.2907H15.2802H15.2697H15.2592H15.2487H15.2382H15.2277H15.2172H15.2067H15.1962H15.1857H15.1752H15.1647H15.1542H15.1437H15.1332H15.1227H15.1122H15.1017H15.0912H15.0807H15.0702H15.0597H15.0492H15.0387H15.0282H15.0177H15.0072H14.9967H14.9862H14.9757H14.9652H14.9547H14.9442H14.9337H14.9231H14.9126H14.9021H14.8916H14.8811H14.8706H14.8601H14.8496H14.8391H14.8286H14.8181H14.8076H14.7971H14.7866H14.7761H14.7656H14.7551H14.7446H14.7341H14.7236H14.7131H14.7026H14.6921H14.6816H14.6711H14.6606H14.6501H14.6396H14.6291H14.6186H14.6081H14.5976H14.5871H14.5766H14.5661H14.5556H14.5451H14.5346H14.5241H14.5136H14.5031H14.4926H14.4821H14.4716H14.4611H14.4506H14.4401H14.4296H14.4191H14.4086H14.3981H14.3876H14.3771H14.3666H14.3561H14.3456H14.3351H14.3245H14.314H14.3035H14.293H14.2825H14.272H14.2615H14.251H14.2405H14.23H14.2195H14.209H14.1985H14.188H14.1775H14.167H14.1565H14.146H14.1355H14.125H14.1145H14.104H14.0935H14.083H14.0725H14.062H14.0515H14.041H14.0305H14.02H14.0095H13.999H13.9885H13.978H13.9675H13.957H13.9465H13.936H13.9255H13.915H13.9045H13.894H13.8835H13.873H13.8625H13.852H13.8415H13.831H13.8205H13.81H13.7995H13.789H13.7785H13.768H13.7575H13.747H13.7365H13.726H13.7155H13.7049H13.6944H13.6839H13.6734H13.6629H13.6524H13.6419H13.6314H13.6209H13.6104H13.5999H13.5894H13.5789H13.5684H13.5579H13.5474H13.5369H13.5264H13.5159H13.5054H13.4949H13.4844H13.4739H13.4634H13.4529H13.4424H13.4319H13.4214H13.4109H13.4004H13.3899H13.3794H13.3689H13.3584H13.3479H13.3374H13.3269H13.3164H13.3059H13.2954H13.2849H13.2744H13.2639H13.2534H13.2429H13.2324H13.2219H13.2114H13.2009H13.1904H13.1799H13.1694H13.1589H13.1484H13.1379H13.1274H13.1169H13.1064H13.0959H13.0854H13.0749H13.0644H13.0539H13.0434H13.0329H13.0224H13.0119H13.0014H12.9909H12.9804H12.9699H12.9594H12.9489H12.9384H12.9279H12.9174H12.9068H12.8963H12.8858H12.8753H12.8648H12.8543H12.8438H12.8333H12.8228H12.8123H12.8018H12.7913H12.7808H12.7703H12.7598H12.7493H12.7388H12.7283H12.7178H12.7073H12.6968H12.6863H12.6758H12.6653H12.6548H12.6443H12.6338H12.6233H12.6128H12.6023H12.5918H12.5813H12.5708H12.5603H12.5498H12.5393H12.5288H12.5183H12.5078H12.4973H12.4868H12.4763H12.4658H12.4553H12.4448H12.4343H12.4238H12.4133H12.4028H12.3923H12.3818H12.3713H12.3608H12.3503H12.3398H12.3293H12.3188H12.3083H12.2978H12.2873H12.2768H12.2663H12.2558H12.2453H12.2348H12.2243H12.2138H12.2033H12.1928H12.1823H12.1718H12.1613H12.1508H12.1403H12.1298H12.1193H12.1088H12.0983H12.0878H12.0773H12.0668H12.0563H12.0458H12.0353H12.0248H12.0143H12.0038H11.9933H11.9828H11.9723H11.9618H11.9513H11.9408H11.9303H11.9198H11.9093H11.8988H11.8883H11.8778H11.8673H11.8568H11.8463H11.8358H11.8253H11.8148H11.8043H11.7938H11.7833H11.7728H11.7623H11.7518H11.7413H11.7308H11.7203C10.9726 19.2671 10.0926 19.1007 9.42826 18.7386C8.7853 18.3882 8.42206 17.9104 8.42206 17.2441C8.42206 16.3172 8.59309 14.5823 9.43252 13.1063C10.2397 11.687 11.6841 10.4587 14.4086 10.4587C17.133 10.4587 18.5775 11.687 19.3846 13.1063C20.224 14.5823 20.3951 16.3172 20.3951 17.2441ZM2.45622 6.08496C2.45622 4.88025 3.43236 3.90351 4.63767 3.90351C5.84237 3.90351 6.81912 4.87964 6.81912 6.08496C6.81912 7.28951 5.84222 8.26641 4.63767 8.26641C3.43312 8.26641 2.45622 7.28951 2.45622 6.08496ZM24.1785 3.90351C25.3839 3.90351 26.36 4.88025 26.36 6.08496C26.36 7.28951 25.3831 8.26641 24.1785 8.26641C22.974 8.26641 21.9971 7.28951 21.9971 6.08496C21.9971 4.87964 22.9738 3.90351 24.1785 3.90351ZM14.4077 0.76709C16.3455 0.76709 17.9164 2.33793 17.9164 4.2758C17.9164 6.21286 16.3454 7.78451 14.4077 7.78451C12.4698 7.78451 10.8989 6.21367 10.8989 4.2758C10.8989 2.33793 12.4698 0.76709 14.4077 0.76709Z" stroke="#292D32" stroke-width="1.5"/>
</svg>
