<svg width="60" height="60" viewBox="0 0 60 60" fill="none" xmlns="http://www.w3.org/2000/svg">
<g clip-path="url(#clip0_3002_2355)">
<path d="M25.7159 29.6498H25.6621V29.6379H25.7159C25.7159 29.6424 25.7159 29.6461 25.7159 29.6498Z" fill="#35EDDF"/>
<path d="M35.5011 32.2879C34.6771 34.9594 31.7802 36.7197 29.0381 36.2131C26.2798 35.5883 25.0619 34.1309 24.5366 32.2792H26.0862C27.459 35.3088 32.2914 35.7737 33.8678 32.2879H35.5011Z" fill="#35EDDF"/>
<path d="M35.7891 28.5347H34.2629V25.7732C34.2991 23.4646 32.2919 21.4469 29.9899 21.4879C25.7458 21.7035 25.6164 25.2646 25.6841 28.5347H24.1553C24.1573 27.6256 24.1901 26.6944 24.1915 25.7732C24.1104 22.358 27.3992 19.4749 30.7597 20.009C32.1358 20.1898 33.4214 20.8805 34.3386 21.9266C36.0128 23.5882 35.8179 26.3705 35.7884 28.5354L35.7891 28.5347Z" fill="#35EDDF"/>
<path d="M44.0536 20.6601C43.9417 23.1246 44.6271 27.2138 42.6621 29.1428C40.6496 31.4669 38.4829 31.1565 35.7502 31.1471C35.7247 31.3735 35.6845 31.5986 35.6322 31.8203H34.0505C34.1215 31.6033 34.1758 31.3782 34.2113 31.1471H32.7032V29.6481H34.2629V29.0017H35.789V29.6481C36.331 29.5983 38.4642 29.7199 38.9599 29.5903C40.9865 29.2644 42.5348 27.4819 42.5274 25.3634C42.4832 22.0368 43.3743 17.0776 38.8232 16.4124C36.2566 16.0294 33.8629 18.2077 33.9821 20.8093C33.5393 20.4458 33.0429 20.1414 32.5049 19.9089C33.6284 12.764 43.8593 13.4292 44.0536 20.6601Z" fill="#1B56BF"/>
<path d="M40.2895 12.0114C40.244 14.6936 36.2658 14.6929 36.2202 12.0114C36.2658 9.3292 40.244 9.32987 40.2895 12.0114Z" fill="#1B56BF"/>
<path d="M15.9461 20.6601C16.058 23.1246 15.3727 27.2138 17.3376 29.1428C19.3502 31.4669 21.5168 31.1565 24.2496 31.1471C24.2751 31.3735 24.3153 31.5986 24.3675 31.8203H25.9493C25.8783 31.6033 25.824 31.3782 25.7885 31.1471H27.2966V29.6481H25.7369V29.0017H24.2107V29.6481C23.6687 29.5983 21.5356 29.7199 21.0398 29.5903C19.0132 29.2644 17.4649 27.4819 17.4723 25.3634C17.5165 22.0368 16.6255 17.0776 21.1765 16.4124C23.7431 16.0294 26.1369 18.2077 26.0176 20.8093C26.4605 20.4458 26.9569 20.1414 27.4949 19.9089C26.3713 12.764 16.1404 13.4292 15.9461 20.6601Z" fill="#1B56BF"/>
<path d="M19.71 12.0114C19.7555 14.6936 23.7337 14.6929 23.7793 12.0114C23.7337 9.3292 19.7555 9.32987 19.71 12.0114Z" fill="#1B56BF"/>
<path d="M32.0249 17.1441C31.9793 19.8263 28.0011 19.8256 27.9556 17.1441C28.0011 14.4619 31.9793 14.4626 32.0249 17.1441Z" fill="#35EDDF"/>
<path d="M4.21202 40.8116C6.69957 40.8116 8.42739 42.6553 8.42739 45.406C8.42739 48.1568 6.69957 50.0004 4.21202 50.0004C1.72447 50.0004 0 48.1561 0 45.4053C0 42.6546 1.72179 40.8109 4.21202 40.8109V40.8116ZM4.21202 48.5632C5.84136 48.5632 6.80408 47.4069 6.80408 45.406C6.80408 43.4051 5.84203 42.2488 4.21202 42.2488C2.58201 42.2488 1.62331 43.4051 1.62331 45.406C1.62331 47.4069 2.57933 48.5632 4.21202 48.5632Z" fill="#35EDDF"/>
<path d="M9.80273 42.6418H11.1246V46.8204C11.1246 48.1306 11.765 48.826 12.9033 48.826C14.0416 48.826 14.682 48.1306 14.682 46.8204V42.6418H16.0039V46.8755C16.0039 48.8105 14.7651 50.0005 12.9033 50.0005C11.0415 50.0005 9.80273 48.8112 9.80273 46.8755V42.6418Z" fill="#1B56BF"/>
<path d="M23.2249 43.9621H20.8881V49.9997H19.5663V43.9621H17.2295V42.793H23.2249V43.9621Z" fill="#1B56BF"/>
<path d="M24.4494 49.9998V42.7924H27.9647C29.4875 42.7924 30.4797 43.6544 30.4797 44.9418C30.4797 46.0786 29.6932 46.8291 28.4846 46.8647C29.0346 46.905 29.4647 47.2954 29.7789 47.9962L30.6733 49.9998H29.2135L28.3137 48.0016C28.0625 47.4446 27.7757 47.2732 27.0649 47.2732H25.7706V49.9998H24.4487H24.4494ZM27.8039 46.1391C28.6534 46.1391 29.1558 45.7232 29.1558 45.0177C29.1558 44.3122 28.6708 43.9393 27.8012 43.9393H25.7712V46.1391H27.8039Z" fill="#1B56BF"/>
<path d="M36.9594 42.793V43.9621H33.3711V45.8367H36.6626V46.9709H33.3711V48.8307H37.0546V49.9998H32.0493V42.7924H36.9594V42.793Z" fill="#1B56BF"/>
<path d="M38.0488 49.9998L40.6268 42.7924H42.5315L45.0747 49.9998H43.6698L43.1016 48.3039H40.0011L39.4256 49.9998H38.0488ZM42.7251 47.1751L41.5614 43.6927L40.383 47.1751H42.7251Z" fill="#1B56BF"/>
<path d="M49.1489 48.826C50.2222 48.826 50.8901 48.2038 51.1085 47.0018H52.425C52.1383 48.869 50.9075 50.0004 49.1456 50.0004C47.1156 50.0004 45.708 48.4934 45.708 46.2459C45.708 43.9984 47.1149 42.4913 49.1456 42.4913C50.9069 42.4913 52.1383 43.6228 52.425 45.49H51.1085C50.8901 44.288 50.2215 43.6658 49.1489 43.6658C47.817 43.6658 47.0359 44.6105 47.0359 46.2466C47.0359 47.8826 47.817 48.8273 49.1489 48.8273V48.826Z" fill="#1B56BF"/>
<path d="M60.0001 49.9998H58.6783V46.991H55.2408V49.9998H53.9189V42.7924H55.2408V45.8166H58.6783V42.7924H60.0001V49.9998Z" fill="#1B56BF"/>
</g>
<defs>
<clipPath id="clip0_3002_2355">
<rect width="60" height="40.0004" fill="white" transform="translate(0 10)"/>
</clipPath>
</defs>
</svg>
