<svg width="24" height="24" viewBox="0 0 24 24" fill="none" xmlns="http://www.w3.org/2000/svg">
<path d="M19.9423 12.5739V10.6121H18.4038V12.8879C18.4039 13.0891 18.485 13.282 18.6292 13.4243L20.7115 15.4779V16.681H3.78846V15.4779L5.87077 13.4243C6.01504 13.282 6.09611 13.0891 6.09615 12.8879V9.85345C6.09401 8.78743 6.37715 7.73973 6.91699 6.81617C7.45682 5.89261 8.23423 5.1259 9.17069 4.59348C10.1071 4.06106 11.1695 3.78178 12.2504 3.78386C13.3313 3.78594 14.3926 4.06929 15.3269 4.60531V2.90979C14.5947 2.59005 13.8159 2.38626 13.0192 2.30593V0.75H11.4808V2.30517C9.58429 2.49554 7.82674 3.37264 6.54798 4.76688C5.26921 6.16113 4.56008 7.97346 4.55769 9.85345V12.5739L2.47538 14.6275C2.33112 14.7697 2.25004 14.9626 2.25 15.1638V17.4397C2.25 17.6409 2.33104 17.8338 2.4753 17.9761C2.61956 18.1184 2.81522 18.1983 3.01923 18.1983H8.40384V18.9569C8.40384 19.9629 8.80906 20.9277 9.53036 21.639C10.2516 22.3504 11.2299 22.75 12.25 22.75C13.2701 22.75 14.2483 22.3504 14.9696 21.639C15.6909 20.9277 16.0961 19.9629 16.0961 18.9569V18.1983H21.4808C21.6848 18.1983 21.8804 18.1184 22.0247 17.9761C22.169 17.8338 22.25 17.6409 22.25 17.4397V15.1638C22.25 14.9626 22.1689 14.7697 22.0246 14.6275L19.9423 12.5739ZM14.5577 18.9569C14.5577 19.5605 14.3146 20.1394 13.8818 20.5662C13.449 20.993 12.862 21.2328 12.25 21.2328C11.638 21.2328 11.051 20.993 10.6182 20.5662C10.1854 20.1394 9.94231 19.5605 9.94231 18.9569V18.1983H14.5577V18.9569Z" fill="#363534"/>
<path d="M19.5 9C21.1569 9 22.5 7.65685 22.5 6C22.5 4.34315 21.1569 3 19.5 3C17.8431 3 16.5 4.34315 16.5 6C16.5 7.65685 17.8431 9 19.5 9Z" fill="#1B56BE"/>
</svg>
