<svg width="20" height="21" viewBox="0 0 20 21" fill="none" xmlns="http://www.w3.org/2000/svg">
<path d="M18.3334 3.90883V13.9672C18.3334 14.7672 17.6834 15.5172 16.8834 15.6172L16.6084 15.6505C14.7917 15.8922 11.9917 16.8172 10.3917 17.7005C10.1751 17.8255 9.81676 17.8255 9.59176 17.7005L9.55839 17.6839C7.95839 16.8089 5.16677 15.8922 3.35844 15.6505L3.11674 15.6172C2.31674 15.5172 1.66675 14.7672 1.66675 13.9672V3.90049C1.66675 2.90882 2.47506 2.15883 3.46673 2.24217C5.21673 2.38383 7.86672 3.26719 9.35006 4.19219L9.55839 4.31716C9.80006 4.46716 10.2001 4.46716 10.4418 4.31716L10.5834 4.2255C11.1084 3.9005 11.7751 3.5755 12.5001 3.28383V6.68385L14.1667 5.5755L15.8334 6.68385V2.33387C16.0584 2.2922 16.2751 2.26717 16.4751 2.25051H16.5251C17.5168 2.16717 18.3334 2.90883 18.3334 3.90883Z" stroke="#292D32" stroke-width="1.5" stroke-linecap="round" stroke-linejoin="round"/>
<path d="M10 4.59229V17.0923" stroke="#292D32" stroke-width="1.5" stroke-linecap="round" stroke-linejoin="round"/>
<path d="M15.8333 2.33398V6.68396L14.1667 5.57561L12.5 6.68396V3.28395C13.5917 2.85061 14.8083 2.50065 15.8333 2.33398Z" stroke="#292D32" stroke-width="1.5" stroke-linecap="round" stroke-linejoin="round"/>
</svg>
