<svg width="26" height="15" viewBox="0 0 26 15" fill="none" xmlns="http://www.w3.org/2000/svg">
<path d="M19.2963 14.2772C22.6844 14.2772 25.431 11.1311 25.431 7.25018C25.431 3.36926 22.6844 0.223145 19.2963 0.223145C15.9082 0.223145 13.1616 3.36926 13.1616 7.25018C13.1616 11.1311 15.9082 14.2772 19.2963 14.2772Z" fill="#4EA65D"/>
<path d="M19.2961 14.5C15.7905 14.5 12.9385 11.2477 12.9385 7.25C12.9385 3.25228 15.7905 0 19.2961 0C22.8018 0 25.6538 3.25228 25.6538 7.25C25.6538 11.2472 22.8018 14.5 19.2961 14.5ZM19.2961 0.445936C16.0367 0.445936 13.3844 3.49807 13.3844 7.25C13.3844 11.0019 16.0367 14.0541 19.2961 14.0541C22.5555 14.0541 25.2079 11.0019 25.2079 7.25C25.2079 3.49807 22.5555 0.445936 19.2961 0.445936Z" fill="white"/>
<path d="M17.288 14.2772C20.6761 14.2772 23.4227 11.1311 23.4227 7.25018C23.4227 3.36926 20.6761 0.223145 17.288 0.223145C13.8999 0.223145 11.1533 3.36926 11.1533 7.25018C11.1533 11.1311 13.8999 14.2772 17.288 14.2772Z" fill="#4EA65D"/>
<path d="M17.2883 14.5C13.7826 14.5 10.9307 11.2477 10.9307 7.25C10.9307 3.25228 13.7826 0 17.2883 0C20.794 0 23.646 3.25228 23.646 7.25C23.646 11.2472 20.794 14.5 17.2883 14.5ZM17.2883 0.445936C14.0289 0.445936 11.3766 3.49807 11.3766 7.25C11.3766 11.0019 14.0289 14.0541 17.2883 14.0541C20.5477 14.0541 23.2 11.0019 23.2 7.25C23.2 3.49807 20.5477 0.445936 17.2883 0.445936Z" fill="white"/>
<path d="M17.9576 8.0306H5.354V6.02295H17.9576C18.5119 6.02295 18.9617 6.47221 18.9617 7.02654C18.9617 7.58134 18.5119 8.0306 17.9576 8.0306Z" fill="#4EA65D"/>
<path d="M17.9574 8.25338H5.13037V5.79932H17.9574C18.6339 5.79932 19.1844 6.34984 19.1844 7.02635C19.1844 7.70333 18.6339 8.25338 17.9574 8.25338ZM5.57678 7.80745H17.9574C18.3881 7.80745 18.738 7.45707 18.738 7.02682C18.738 6.59658 18.3876 6.2462 17.9574 6.2462H5.57678V7.80745Z" fill="white"/>
<path d="M8.36516 14.2772C11.7533 14.2772 14.4998 11.1311 14.4998 7.25018C14.4998 3.36926 11.7533 0.223145 8.36516 0.223145C4.97706 0.223145 2.23047 3.36926 2.23047 7.25018C2.23047 11.1311 4.97706 14.2772 8.36516 14.2772Z" fill="#4EA65D"/>
<path d="M8.36547 14.5C4.8598 14.5 2.00781 11.2477 2.00781 7.25C2.00781 3.25228 4.8598 0 8.36547 0C11.8711 0 14.7231 3.25228 14.7231 7.25C14.7231 11.2472 11.8711 14.5 8.36547 14.5ZM8.36547 0.445936C5.10606 0.445936 2.45374 3.49807 2.45374 7.25C2.45374 11.0019 5.10606 14.0541 8.36547 14.0541C11.6249 14.0541 14.2772 11.0019 14.2772 7.25C14.2772 3.49807 11.6249 0.445936 8.36547 0.445936Z" fill="white"/>
<path d="M6.35784 14.2772C9.74593 14.2772 12.4925 11.1311 12.4925 7.25018C12.4925 3.36926 9.74593 0.223145 6.35784 0.223145C2.96974 0.223145 0.223145 3.36926 0.223145 7.25018C0.223145 11.1311 2.96974 14.2772 6.35784 14.2772Z" fill="#4EA65D"/>
<path d="M6.35766 14.5C2.85198 14.5 0 11.2477 0 7.25C0 3.25228 2.85198 0 6.35766 0C9.86333 0 12.7153 3.25228 12.7153 7.25C12.7153 11.2472 9.86333 14.5 6.35766 14.5ZM6.35766 0.445936C3.09825 0.445936 0.445932 3.49807 0.445932 7.25C0.445932 11.0019 3.09825 14.0541 6.35766 14.0541C9.61707 14.0541 12.2694 11.0019 12.2694 7.25C12.2694 3.49807 9.61707 0.445936 6.35766 0.445936Z" fill="white"/>
<path d="M8.59748 7.25037C8.59748 8.66709 7.59484 9.81568 6.35782 9.81568C5.12081 9.81568 4.11816 8.66709 4.11816 7.25037C4.11816 5.83365 5.12081 4.68506 6.35782 4.68506C7.59484 4.68458 8.59748 5.83317 8.59748 7.25037Z" fill="#4EA65D"/>
<path d="M6.35764 10.0385C4.9994 10.0385 3.89502 8.78767 3.89502 7.2502C3.89502 5.71272 4.9994 4.46191 6.35764 4.46191C7.71589 4.46191 8.82026 5.71272 8.82026 7.2502C8.82026 8.78767 7.71589 10.0385 6.35764 10.0385ZM6.35764 4.90785C5.24566 4.90785 4.34143 5.95851 4.34143 7.2502C4.34143 8.54141 5.24613 9.59254 6.35764 9.59254C7.46963 9.59254 8.37385 8.54141 8.37385 7.2502C8.37385 5.95851 7.46963 4.90785 6.35764 4.90785Z" fill="white"/>
<path d="M7.7049 7.25037C7.7049 8.66709 6.70226 9.81568 5.46524 9.81568C4.22822 9.81568 3.22559 8.66709 3.22559 7.25037C3.22559 5.83365 4.22822 4.68506 5.46524 4.68506C6.70226 4.68506 7.7049 5.83317 7.7049 7.25037Z" fill="#4EA65D"/>
<path d="M5.46555 10.0385C4.10731 10.0385 3.00293 8.78767 3.00293 7.2502C3.00293 5.71272 4.10731 4.46191 5.46555 4.46191C6.8238 4.46191 7.92818 5.71272 7.92818 7.2502C7.92818 8.78767 6.8238 10.0385 5.46555 10.0385ZM5.46555 4.90785C4.35357 4.90785 3.44934 5.95851 3.44934 7.2502C3.44934 8.54141 4.35404 9.59254 5.46555 9.59254C6.57706 9.59254 7.48177 8.54141 7.48177 7.2502C7.48177 5.95851 6.57754 4.90785 5.46555 4.90785Z" fill="white"/>
</svg>
