<svg width="32" height="32" viewBox="0 0 32 32" fill="none" xmlns="http://www.w3.org/2000/svg">
<path d="M28.8398 20.4701H28.8898L29.6998 13.7101H29.6398L28.8398 20.4701ZM28.9498 21.2001L25.2898 26.2801L24.9998 26.0001V20.8401H24.8998V25.8401L18.1798 18.9001L18.0798 19.0101L24.8998 26.1001V27.2401H25.0498V26.6901L25.2298 26.4301L25.3298 26.3301L25.2798 26.2701L28.9998 21.2401L28.9498 21.2001ZM24.9998 26.6301V26.2401L25.1598 26.4101L24.9998 26.6301ZM23.8598 11.1101V11.1701L29.9998 13.6501V13.6001L23.8598 11.1101ZM18.6098 24.5001V24.4401H18.4798L16.6698 17.7001V17.5901V17.6401H16.7298V17.5701H16.8698V17.4201H16.8198L17.5598 16.6601L17.7298 16.5201L23.9198 10.1301L23.8298 10.0001L17.4998 16.5601L17.0098 16.9401L19.1298 11.3301H19.0798L16.9198 17.0001L16.6698 17.2001V7.3501H16.5198V17.1501L16.0598 15.4201H15.9298L16.4298 17.3501L16.3698 17.4001H16.2298L13.7698 11.6101H13.7098L16.1598 17.3801H16.0898L10.7398 15.2201L9.66982 10.9301L15.5498 8.2701L9.65982 10.8701L9.40982 9.8701H9.34982L9.59982 10.8701H9.48982V10.9301H9.59982L10.6498 15.2201L10.3698 15.1101V15.1701L10.6898 15.3001L10.9998 16.4901H11.0598L10.7898 15.3701L15.9598 17.4601H6.95982L6.99982 17.1901H6.93982L6.83982 17.4601L2.92982 13.4601L2.81982 13.5601L6.72982 17.5601V17.6201H6.78982L4.85982 22.8701L4.53982 23.0001L4.81982 22.9301L4.59982 23.5301H4.65982L4.88982 22.8901L10.1998 21.6201L10.3698 22.0201L9.50982 22.6901L9.59982 22.8101L10.4298 22.1601L12.5098 27.0601H12.5598L12.4498 26.7901L18.3198 24.6101L18.5898 25.6101H18.7298L18.4598 24.6101L18.6098 24.5001ZM16.6698 17.3901L16.7898 17.2901L16.6698 17.4201V17.3901ZM4.92982 22.8501L6.82982 17.6401L9.91982 20.8201L10.2298 21.5701L4.92982 22.8501ZM10.4398 22.0001L10.2798 21.6201L10.9798 21.4501V21.4001L10.2598 21.5701L9.94982 20.8501L10.0398 20.9301L10.1398 20.8201L6.99982 17.5901H16.1898L10.4398 22.0001ZM12.4398 26.7201L10.4998 22.1401L16.2798 17.6901L16.3698 17.9001H16.4298L16.3298 17.6701H16.3898L16.5198 17.7201V17.8701L14.1498 24.1401H14.2098L16.5698 17.9101L18.3198 24.5801L12.4398 26.7201ZM21.6298 18.5701L27.7698 21.0501V20.9901L21.6298 18.5101V18.5701ZM29.2698 13.9201L25.5198 19.5201L29.2998 14.0001L29.2698 13.9201ZM17.9998 17.6501V17.7101L23.9998 14.9801V14.9201L17.9998 17.6501Z" fill="black"/>
<path d="M10.6702 16.5698C11.355 16.5698 11.9102 15.9967 11.9102 15.2898C11.9102 14.5828 11.355 14.0098 10.6702 14.0098C9.98534 14.0098 9.43018 14.5828 9.43018 15.2898C9.43018 15.9967 9.98534 16.5698 10.6702 16.5698Z" fill="#930A73"/>
<path d="M10.7402 16.57C11.0288 16.5589 11.303 16.4413 11.5102 16.24V16.07C11.5157 15.9354 11.4688 15.8038 11.3793 15.7031C11.2897 15.6023 11.1645 15.5403 11.0302 15.53C11.0802 15.53 11.1402 15.39 11.2002 15.38C11.2602 15.37 11.3402 15.38 11.3602 15.38C11.3702 15.2937 11.3702 15.2064 11.3602 15.12C11.359 14.9951 11.3422 14.8708 11.3102 14.75C11.2924 14.6719 11.2595 14.598 11.2132 14.5326C11.167 14.4672 11.1082 14.4115 11.0404 14.3688C10.9727 14.3261 10.8971 14.2972 10.8181 14.2836C10.7392 14.2701 10.6583 14.2723 10.5802 14.29C10.4707 14.311 10.3694 14.3625 10.288 14.4386C10.2066 14.5147 10.1484 14.6122 10.1202 14.72C10.0575 14.9375 10.0338 15.1643 10.0502 15.39C10.0502 15.39 10.1702 15.39 10.1802 15.39C10.1902 15.39 10.3102 15.48 10.3902 15.53C10.2781 15.5307 10.1693 15.5683 10.0808 15.637C9.9922 15.7057 9.92872 15.8017 9.90015 15.91C9.8855 16.0229 9.8855 16.1372 9.90015 16.25C10.1083 16.4485 10.3827 16.5625 10.6702 16.57H10.7402Z" fill="url(#paint0_linear_131_6850)"/>
<path d="M22.52 18.5C22.5102 18.2567 22.4289 18.0217 22.2864 17.8243C22.1439 17.6268 21.9464 17.4757 21.7186 17.3898C21.4907 17.3039 21.2426 17.287 21.0052 17.3411C20.7678 17.3953 20.5516 17.5181 20.3836 17.6944C20.2155 17.8706 20.1031 18.0924 20.0603 18.3321C20.0175 18.5718 20.0462 18.8188 20.1429 19.0423C20.2396 19.2658 20.3999 19.4559 20.6039 19.5889C20.8079 19.7218 21.0465 19.7918 21.29 19.79C21.4563 19.7888 21.6206 19.7542 21.7733 19.6882C21.9259 19.6221 22.0637 19.5261 22.1785 19.4058C22.2932 19.2854 22.3826 19.1432 22.4413 18.9876C22.4999 18.832 22.5267 18.6662 22.52 18.5Z" fill="#00A14B"/>
<path d="M21.3499 19.7902C21.6359 19.7721 21.9058 19.6514 22.1099 19.4502V19.2802C22.1157 19.1471 22.0701 19.0169 21.9826 18.9165C21.8952 18.816 21.7725 18.7529 21.6399 18.7402C21.6399 18.7402 21.7599 18.6002 21.8099 18.6002C21.8599 18.6002 21.9499 18.6002 21.9699 18.6002C21.9799 18.5105 21.9799 18.4199 21.9699 18.3302C21.9597 18.2088 21.9396 18.0884 21.9099 17.9702C21.8757 17.8398 21.7992 17.7245 21.6925 17.6421C21.5857 17.5598 21.4547 17.5151 21.3199 17.5151C21.1851 17.5151 21.0541 17.5598 20.9474 17.6421C20.8406 17.7245 20.7642 17.8398 20.7299 17.9702C20.6677 18.1912 20.6441 18.4212 20.6599 18.6502C20.6599 18.6502 20.7799 18.6502 20.7999 18.6502C20.8199 18.6502 20.9299 18.7402 20.9999 18.7902C20.8887 18.7896 20.7805 18.827 20.6933 18.896C20.606 18.9651 20.5449 19.0618 20.5199 19.1702C20.5005 19.2827 20.5005 19.3977 20.5199 19.5102C20.7306 19.7047 21.0035 19.8182 21.2899 19.8302L21.3499 19.7902Z" fill="url(#paint1_linear_131_6850)"/>
<path d="M14.3001 24.7499C14.9849 24.7499 15.5401 24.1769 15.5401 23.4699C15.5401 22.763 14.9849 22.1899 14.3001 22.1899C13.6152 22.1899 13.0601 22.763 13.0601 23.4699C13.0601 24.1769 13.6152 24.7499 14.3001 24.7499Z" fill="#8BC53F"/>
<path d="M14.3698 24.7601C14.6527 24.7374 14.92 24.6214 15.1298 24.4301V24.2601C15.138 24.1264 15.0934 23.9949 15.0054 23.8938C14.9175 23.7928 14.7933 23.7304 14.6598 23.7201C14.7198 23.7201 14.7798 23.5801 14.8398 23.5801C14.893 23.5852 14.9465 23.5852 14.9998 23.5801C15.0098 23.4904 15.0098 23.3999 14.9998 23.3101C14.9903 23.1853 14.9703 23.0615 14.9398 22.9401C14.9061 22.7826 14.8115 22.6448 14.6767 22.5567C14.5418 22.4687 14.3775 22.4375 14.2198 22.4701C14.1121 22.4952 14.0129 22.5481 13.9322 22.6236C13.8514 22.699 13.792 22.7944 13.7598 22.9001C13.6917 23.12 13.6679 23.3511 13.6898 23.5801C13.6898 23.5801 13.7998 23.5801 13.8198 23.5801C13.8398 23.5801 13.9498 23.6701 14.0198 23.7201C13.9077 23.7208 13.799 23.7584 13.7104 23.8271C13.6218 23.8958 13.5583 23.9918 13.5298 24.1001C13.5148 24.2096 13.5148 24.3207 13.5298 24.4301C13.7394 24.6276 14.0122 24.7445 14.2998 24.7601H14.3698Z" fill="url(#paint2_linear_131_6850)"/>
<path d="M13.8801 13.35C14.565 13.35 15.1201 12.777 15.1201 12.07C15.1201 11.3631 14.565 10.79 13.8801 10.79C13.1953 10.79 12.6401 11.3631 12.6401 12.07C12.6401 12.777 13.1953 13.35 13.8801 13.35Z" fill="#00A14B"/>
<path d="M14.2001 12.3202C14.3221 12.2498 14.4174 12.1411 14.4714 12.0109C14.5253 11.8807 14.5347 11.7364 14.4983 11.6003C14.4618 11.4642 14.3814 11.344 14.2697 11.2582C14.1579 11.1725 14.021 11.126 13.8801 11.126C13.7392 11.126 13.6022 11.1725 13.4905 11.2582C13.3787 11.344 13.2983 11.4642 13.2619 11.6003C13.2254 11.7364 13.2349 11.8807 13.2888 12.0109C13.3427 12.1411 13.4381 12.2498 13.5601 12.3202C13.4823 12.3194 13.4055 12.3372 13.3359 12.3719C13.2664 12.4067 13.2061 12.4575 13.1601 12.5202C13.0686 12.6698 13.0331 12.847 13.0601 13.0202C13.2846 13.2319 13.5815 13.3498 13.8901 13.3498C14.1986 13.3498 14.4955 13.2319 14.7201 13.0202C14.7311 12.8766 14.707 12.7325 14.6501 12.6002C14.6088 12.5161 14.5448 12.4452 14.4652 12.3957C14.3857 12.3462 14.2938 12.32 14.2001 12.3202Z" fill="url(#paint3_linear_131_6850)"/>
<path d="M6.05991 22.71C6.05203 22.4642 5.97183 22.2262 5.82934 22.0257C5.68685 21.8253 5.4884 21.6713 5.25884 21.5832C5.02928 21.495 4.7788 21.4764 4.53876 21.5299C4.29873 21.5834 4.07979 21.7065 3.90937 21.8838C3.73895 22.061 3.62461 22.2847 3.58067 22.5266C3.53672 22.7686 3.56513 23.0181 3.66232 23.244C3.75952 23.4699 3.92119 23.6621 4.12709 23.7966C4.333 23.9311 4.57399 24.0018 4.81991 24C4.98538 23.9974 5.14872 23.9622 5.30059 23.8964C5.45246 23.8307 5.5899 23.7357 5.70505 23.6168C5.8202 23.498 5.9108 23.3576 5.97169 23.2037C6.03258 23.0498 6.06255 22.8854 6.05991 22.72V22.71Z" fill="#25A9E0"/>
<path d="M5.13005 22.9998C5.23947 22.9231 5.32258 22.8145 5.36805 22.6888C5.41353 22.5631 5.41916 22.4265 5.38418 22.2975C5.3492 22.1685 5.27531 22.0535 5.17257 21.968C5.06983 21.8825 4.94325 21.8308 4.81005 21.8198C4.67765 21.8325 4.55233 21.8855 4.45102 21.9717C4.3497 22.0579 4.27725 22.1731 4.24346 22.3017C4.20966 22.4303 4.21614 22.5662 4.26203 22.6911C4.30791 22.8159 4.39099 22.9237 4.50005 22.9998C4.41866 22.9987 4.33833 23.0183 4.26661 23.0568C4.19488 23.0953 4.13413 23.1514 4.09005 23.2198C3.99506 23.3681 3.95606 23.5454 3.98005 23.7198C4.20457 23.9315 4.50148 24.0494 4.81005 24.0494C5.11861 24.0494 5.41552 23.9315 5.64005 23.7198C5.65032 23.5771 5.62986 23.4339 5.58005 23.2998C5.53888 23.214 5.47537 23.1409 5.39619 23.0881C5.31701 23.0353 5.22508 23.0048 5.13005 22.9998Z" fill="url(#paint4_linear_131_6850)"/>
<path d="M31.0599 13.71C31.052 13.4642 30.9718 13.2262 30.8293 13.0257C30.6868 12.8253 30.4884 12.6713 30.2588 12.5832C30.0293 12.495 29.7788 12.4764 29.5388 12.5299C29.2987 12.5834 29.0798 12.7065 28.9094 12.8838C28.7389 13.061 28.6246 13.2847 28.5807 13.5266C28.5367 13.7686 28.5651 14.0181 28.6623 14.244C28.7595 14.4699 28.9212 14.6621 29.1271 14.7966C29.333 14.9311 29.574 15.0018 29.8199 15C29.9854 14.9974 30.1487 14.9622 30.3006 14.8964C30.4525 14.8307 30.5899 14.7357 30.705 14.6168C30.8202 14.498 30.9108 14.3576 30.9717 14.2037C31.0326 14.0498 31.0626 13.8854 31.0599 13.72V13.71Z" fill="#25A9E0"/>
<path d="M30.13 13.9998C30.2501 13.9305 30.344 13.8234 30.3971 13.6953C30.4502 13.5672 30.4595 13.4251 30.4236 13.2912C30.3877 13.1572 30.3086 13.0388 30.1986 12.9544C30.0885 12.87 29.9537 12.8242 29.815 12.8242C29.6764 12.8242 29.5416 12.87 29.4315 12.9544C29.3215 13.0388 29.2424 13.1572 29.2065 13.2912C29.1706 13.4251 29.1799 13.5672 29.233 13.6953C29.2861 13.8234 29.3799 13.9305 29.5 13.9998C29.4187 13.9987 29.3383 14.0183 29.2666 14.0568C29.1949 14.0953 29.1341 14.1514 29.09 14.2198C28.9951 14.3681 28.9561 14.5454 28.98 14.7198C29.2046 14.9315 29.5015 15.0494 29.81 15.0494C30.1186 15.0494 30.4155 14.9315 30.64 14.7198C30.6503 14.5771 30.6299 14.4339 30.58 14.2998C30.5389 14.214 30.4754 14.1409 30.3962 14.0881C30.317 14.0353 30.2251 14.0048 30.13 13.9998Z" fill="url(#paint5_linear_131_6850)"/>
<path d="M9.61988 12.2602C10.3047 12.2602 10.8599 11.6871 10.8599 10.9802C10.8599 10.2733 10.3047 9.7002 9.61988 9.7002C8.93505 9.7002 8.37988 10.2733 8.37988 10.9802C8.37988 11.6871 8.93505 12.2602 9.61988 12.2602Z" fill="#1B75BB"/>
<path d="M9.94013 11.2198C10.0681 11.1497 10.1689 11.0387 10.2261 10.9044C10.2833 10.7702 10.2937 10.6206 10.2556 10.4798C10.2175 10.3389 10.1331 10.215 10.0161 10.1279C9.89897 10.0409 9.75599 9.99571 9.61013 9.99976C9.47773 10.0125 9.35242 10.0655 9.2511 10.1516C9.14978 10.2378 9.07734 10.353 9.04354 10.4816C9.00975 10.6103 9.01623 10.7462 9.06211 10.871C9.10799 10.9959 9.19107 11.1036 9.30013 11.1798C9.2221 11.1831 9.14578 11.2037 9.07663 11.24C9.00748 11.2763 8.94721 11.3274 8.90013 11.3898C8.80708 11.5424 8.77162 11.7233 8.80013 11.8998C9.02577 12.1092 9.32226 12.2256 9.63013 12.2256C9.938 12.2256 10.2345 12.1092 10.4601 11.8998C10.4719 11.7561 10.4479 11.6118 10.3901 11.4798C10.3453 11.4001 10.2799 11.3339 10.2007 11.2881C10.1216 11.2424 10.0316 11.2188 9.94013 11.2198Z" fill="url(#paint6_linear_131_6850)"/>
<path d="M18.9002 13.33C19.585 13.33 20.1402 12.7569 20.1402 12.05C20.1402 11.3431 19.585 10.77 18.9002 10.77C18.2153 10.77 17.6602 11.3431 17.6602 12.05C17.6602 12.7569 18.2153 13.33 18.9002 13.33Z" fill="#F05A28"/>
<path d="M18.9998 13.3402C19.2862 13.3196 19.5574 13.2034 19.7698 13.0102V12.8402C19.7781 12.7065 19.7334 12.5749 19.6455 12.4738C19.5576 12.3728 19.4334 12.3104 19.2998 12.3002C19.3498 12.3002 19.4198 12.1602 19.4698 12.1602H19.6298C19.6398 12.0704 19.6398 11.9799 19.6298 11.8902C19.6204 11.7653 19.6003 11.6416 19.5698 11.5202C19.5325 11.3939 19.4554 11.2832 19.35 11.2044C19.2445 11.1256 19.1165 11.083 18.9848 11.083C18.8532 11.083 18.7251 11.1256 18.6197 11.2044C18.5142 11.2832 18.4371 11.3939 18.3998 11.5202C18.3284 11.7393 18.3012 11.9704 18.3198 12.2002H18.4498C18.5398 12.2002 18.5898 12.2902 18.6598 12.3402C18.5473 12.3391 18.4377 12.3761 18.3488 12.445C18.2599 12.514 18.1968 12.6109 18.1698 12.7202C18.1504 12.8327 18.1504 12.9477 18.1698 13.0602C18.3805 13.2547 18.6534 13.3681 18.9398 13.3802L18.9998 13.3402Z" fill="url(#paint7_linear_131_6850)"/>
<path d="M13.6 26.6799C13.5843 26.4378 13.498 26.2057 13.3517 26.0122C13.2054 25.8187 13.0055 25.6723 12.7769 25.5913C12.5483 25.5102 12.3009 25.498 12.0654 25.5562C11.8299 25.6143 11.6166 25.7402 11.4519 25.9184C11.2873 26.0965 11.1785 26.319 11.1391 26.5584C11.0996 26.7977 11.1312 27.0434 11.23 27.265C11.3288 27.4865 11.4904 27.6742 11.6948 27.8049C11.8992 27.9355 12.1374 28.0033 12.38 27.9999C12.5455 27.9947 12.7083 27.957 12.8592 27.8888C13.0101 27.8207 13.1461 27.7235 13.2594 27.6027C13.3727 27.482 13.4611 27.3401 13.5195 27.1852C13.578 27.0303 13.6053 26.8654 13.6 26.6999V26.6799Z" fill="#D91C5C"/>
<path d="M12.6798 26.9398C12.7903 26.8558 12.8704 26.7382 12.9081 26.6046C12.9459 26.4711 12.9392 26.3289 12.8891 26.1995C12.839 26.0701 12.7483 25.9605 12.6305 25.8872C12.5127 25.8139 12.3742 25.7808 12.236 25.793C12.0978 25.8052 11.9673 25.862 11.8641 25.9548C11.761 26.0476 11.6908 26.1714 11.6642 26.3076C11.6375 26.4438 11.6558 26.5849 11.7164 26.7098C11.7769 26.8346 11.8764 26.9364 11.9998 26.9998C11.9212 27.0002 11.8438 27.0194 11.7742 27.056C11.7046 27.0925 11.6448 27.1453 11.5998 27.2098C11.5068 27.3625 11.4713 27.5433 11.4998 27.7198C11.7244 27.9315 12.0213 28.0494 12.3298 28.0494C12.6384 28.0494 12.9353 27.9315 13.1598 27.7198C13.1717 27.5762 13.1476 27.4319 13.0898 27.2998C13.0637 27.2065 13.0111 27.1229 12.9383 27.059C12.8655 26.9951 12.7757 26.9537 12.6798 26.9398Z" fill="url(#paint8_linear_131_6850)"/>
<path d="M25.1102 14.9998C25.1024 14.7568 25.0233 14.5215 24.8828 14.3231C24.7423 14.1247 24.5466 13.972 24.32 13.884C24.0934 13.796 23.8459 13.7764 23.6083 13.8279C23.3708 13.8794 23.1536 13.9995 22.9837 14.1735C22.8139 14.3474 22.6989 14.5674 22.6531 14.8061C22.6073 15.0448 22.6326 15.2918 22.726 15.5162C22.8194 15.7406 22.9767 15.9327 23.1784 16.0684C23.38 16.2042 23.6171 16.2777 23.8602 16.2798C24.0265 16.2785 24.1909 16.2442 24.344 16.1791C24.497 16.1139 24.6356 16.0191 24.7518 15.9001C24.868 15.7811 24.9595 15.6403 25.021 15.4858C25.0826 15.3312 25.1129 15.1661 25.1102 14.9998Z" fill="#F6921E"/>
<path d="M24.1799 15.2298C24.3 15.1605 24.3939 15.0534 24.447 14.9253C24.5 14.7972 24.5093 14.6551 24.4734 14.5211C24.4376 14.3872 24.3585 14.2688 24.2484 14.1844C24.1384 14.1 24.0036 14.0542 23.8649 14.0542C23.7262 14.0542 23.5914 14.1 23.4814 14.1844C23.3714 14.2688 23.2923 14.3872 23.2564 14.5211C23.2205 14.6551 23.2298 14.7972 23.2829 14.9253C23.3359 15.0534 23.4298 15.1605 23.5499 15.2298C23.4711 15.2312 23.3936 15.2498 23.3228 15.2844C23.2519 15.3189 23.1895 15.3686 23.1399 15.4298C23.0477 15.5828 23.0123 15.7633 23.0399 15.9398C23.2644 16.1515 23.5613 16.2693 23.8699 16.2693C24.1785 16.2693 24.4754 16.1515 24.6999 15.9398C24.7102 15.7971 24.6897 15.6539 24.6399 15.5198C24.5957 15.4351 24.5299 15.3636 24.4491 15.3127C24.3683 15.2617 24.2754 15.2331 24.1799 15.2298Z" fill="url(#paint9_linear_131_6850)"/>
<path d="M22.3498 10.0898C22.5398 10.0898 22.5998 9.83984 22.3498 9.83984C22.0998 9.83984 22.1298 10.0898 22.3498 10.0898Z" fill="#A1B7DE"/>
<path d="M3.22982 15.7798C4.28469 15.7798 5.13982 14.8978 5.13982 13.8098C5.13982 12.7218 4.28469 11.8398 3.22982 11.8398C2.17496 11.8398 1.31982 12.7218 1.31982 13.8098C1.31982 14.8978 2.17496 15.7798 3.22982 15.7798Z" fill="#8BC53F"/>
<path d="M3.32976 15.7899C3.77001 15.7605 4.18671 15.5804 4.50976 15.2799V14.9999C4.52107 14.7941 4.45251 14.5918 4.31837 14.4353C4.18424 14.2788 3.99487 14.1802 3.78976 14.1599H3.72976C3.80976 14.1599 3.90976 13.9399 3.99976 13.9399C4.08976 13.9399 4.21976 13.9399 4.24976 13.9399C4.26487 13.8036 4.26487 13.6661 4.24976 13.5299C4.23801 13.3506 4.20786 13.173 4.15976 12.9999C4.11245 12.7999 4.00094 12.621 3.84231 12.4905C3.68367 12.36 3.48664 12.285 3.28136 12.2771C3.07608 12.2691 2.87385 12.3287 2.70561 12.4466C2.53737 12.5644 2.41238 12.7342 2.34976 12.9299C2.24648 13.2526 2.20244 13.5914 2.21976 13.9299C2.21976 13.9299 2.39976 13.9299 2.42976 13.9299C2.45976 13.9299 2.62976 14.0699 2.73976 14.1399C2.5684 14.1407 2.40209 14.198 2.26652 14.3028C2.13096 14.4077 2.0337 14.5542 1.98976 14.7199C1.965 14.889 1.965 15.0608 1.98976 15.2299C2.30744 15.5385 2.72728 15.72 3.16976 15.7399L3.32976 15.7899Z" fill="url(#paint10_linear_131_6850)"/>
<path d="M10.3099 23.8702C11.3648 23.8702 12.2199 22.9882 12.2199 21.9002C12.2199 20.8122 11.3648 19.9302 10.3099 19.9302C9.25504 19.9302 8.3999 20.8122 8.3999 21.9002C8.3999 22.9882 9.25504 23.8702 10.3099 23.8702Z" fill="#F05A28"/>
<path d="M10.4098 23.8698C10.8523 23.8499 11.2722 23.6685 11.5898 23.3598V23.1098C11.5983 22.9041 11.5272 22.7031 11.3912 22.5485C11.2553 22.3939 11.0649 22.2977 10.8598 22.2798H10.7998C10.8798 22.2298 10.9798 22.0598 11.0698 22.0598C11.1598 22.0598 11.2898 22.0598 11.3098 22.0598C11.3249 21.9236 11.3249 21.7861 11.3098 21.6498C11.2986 21.4613 11.2719 21.274 11.2298 21.0898C11.16 20.855 11.0063 20.6539 10.798 20.5249C10.5897 20.3959 10.3412 20.3478 10.0998 20.3898C9.9413 20.4262 9.79507 20.5035 9.67575 20.6141C9.55643 20.7246 9.46819 20.8645 9.41984 21.0198C9.31842 21.3428 9.28105 21.6825 9.30984 22.0198C9.30984 22.0198 9.47984 22.0198 9.50984 22.0198C9.53984 22.0198 9.70984 22.1598 9.81984 22.2398C9.64848 22.2407 9.48216 22.298 9.3466 22.4028C9.21104 22.5076 9.11378 22.6542 9.06984 22.8198C9.04508 22.9889 9.04508 23.1607 9.06984 23.3298C9.39289 23.6304 9.80959 23.8105 10.2498 23.8398L10.4098 23.8698Z" fill="url(#paint11_linear_131_6850)"/>
<path d="M16.5599 10.0298C17.6148 10.0298 18.4699 9.14785 18.4699 8.05984C18.4699 6.97184 17.6148 6.08984 16.5599 6.08984C15.505 6.08984 14.6499 6.97184 14.6499 8.05984C14.6499 9.14785 15.505 10.0298 16.5599 10.0298Z" fill="#D91C5C"/>
<path d="M17 8.45012C17.174 8.33414 17.3073 8.16654 17.3811 7.97088C17.4549 7.77523 17.4655 7.56137 17.4114 7.35938C17.3573 7.15739 17.2412 6.97744 17.0796 6.84483C16.9179 6.71222 16.7187 6.63363 16.51 6.62012C16.3022 6.63548 16.1043 6.7154 15.9441 6.84872C15.7839 6.98203 15.6693 7.16208 15.6165 7.36369C15.5636 7.56529 15.575 7.77838 15.6492 7.97317C15.7233 8.16796 15.8565 8.33471 16.03 8.45012C15.9097 8.44973 15.7909 8.47757 15.6832 8.5314C15.5755 8.58524 15.482 8.66358 15.41 8.76012C15.2696 8.99455 15.2099 9.26852 15.24 9.54012C15.5839 9.86722 16.0404 10.0496 16.515 10.0496C16.9897 10.0496 17.4461 9.86722 17.79 9.54012C17.8107 9.32268 17.7799 9.10342 17.7 8.90012C17.6377 8.76668 17.5389 8.6536 17.4151 8.57397C17.2912 8.49433 17.1473 8.45139 17 8.45012Z" fill="url(#paint12_linear_131_6850)"/>
<path d="M6.93002 19.5801C7.98488 19.5801 8.84002 18.6981 8.84002 17.6101C8.84002 16.5221 7.98488 15.6401 6.93002 15.6401C5.87516 15.6401 5.02002 16.5221 5.02002 17.6101C5.02002 18.6981 5.87516 19.5801 6.93002 19.5801Z" fill="#00A14B"/>
<path d="M7.40994 17.9999C7.58393 17.8839 7.71719 17.7163 7.79098 17.5207C7.86476 17.325 7.87536 17.1112 7.82127 16.9092C7.76719 16.7072 7.65114 16.5272 7.48947 16.3946C7.32779 16.262 7.12861 16.1834 6.91994 16.1699C6.71127 16.1834 6.51209 16.262 6.35041 16.3946C6.18873 16.5272 6.07269 16.7072 6.01861 16.9092C5.96452 17.1112 5.97512 17.325 6.0489 17.5207C6.12268 17.7163 6.25594 17.8839 6.42994 17.9999C6.30996 18.0018 6.19194 18.0306 6.08462 18.0843C5.9773 18.1379 5.88342 18.2151 5.80994 18.3099C5.66954 18.5444 5.60983 18.8183 5.63994 19.0899C5.98776 19.4132 6.44505 19.593 6.91994 19.593C7.39483 19.593 7.85212 19.4132 8.19994 19.0899C8.21747 18.8717 8.18321 18.6524 8.09994 18.4499C8.03935 18.3173 7.94233 18.2046 7.82018 18.1249C7.69802 18.0452 7.55576 18.0019 7.40994 17.9999Z" fill="url(#paint13_linear_131_6850)"/>
<path d="M24.9701 28.1002C26.0249 28.1002 26.8801 27.2182 26.8801 26.1302C26.8801 25.0422 26.0249 24.1602 24.9701 24.1602C23.9152 24.1602 23.0601 25.0422 23.0601 26.1302C23.0601 27.2182 23.9152 28.1002 24.9701 28.1002Z" fill="#930A73"/>
<path d="M25.07 28.0999C25.5123 28.0665 25.9309 27.8871 26.26 27.5899V27.3399C26.2687 27.1331 26.1979 26.9309 26.0621 26.7747C25.9264 26.6185 25.736 26.5201 25.53 26.4999H25.47C25.55 26.4499 25.66 26.2899 25.75 26.2899C25.8297 26.2995 25.9103 26.2995 25.99 26.2899C26.0048 26.1503 26.0048 26.0095 25.99 25.8699C25.983 25.6809 25.9562 25.4932 25.91 25.3099C25.8515 25.1086 25.7312 24.9308 25.5661 24.8016C25.401 24.6724 25.1995 24.5983 24.99 24.5899C24.7901 24.5882 24.5951 24.6518 24.4345 24.7709C24.2739 24.8899 24.1565 25.0581 24.1 25.2499C23.9976 25.5727 23.9602 25.9125 23.99 26.2499C23.99 26.2499 24.15 26.2499 24.19 26.2499C24.23 26.2499 24.39 26.3899 24.5 26.4599C24.3287 26.4607 24.1623 26.518 24.0268 26.6228C23.8912 26.7277 23.794 26.8742 23.75 27.0399C23.7253 27.209 23.7253 27.3808 23.75 27.5499C24.0677 27.8585 24.4875 28.04 24.93 28.0599L25.07 28.0999Z" fill="url(#paint14_linear_131_6850)"/>
<path d="M23.5301 12.4102C24.585 12.4102 25.4401 11.5282 25.4401 10.4402C25.4401 9.35221 24.585 8.47021 23.5301 8.47021C22.4753 8.47021 21.6201 9.35221 21.6201 10.4402C21.6201 11.5282 22.4753 12.4102 23.5301 12.4102Z" fill="#8BC53F"/>
<path d="M23.63 12.4102C24.0704 12.3895 24.4888 12.2122 24.81 11.9102V11.6502C24.8185 11.4445 24.7474 11.2435 24.6114 11.0889C24.4755 10.9343 24.2851 10.8381 24.08 10.8202H24C24.08 10.7702 24.19 10.6002 24.28 10.6002C24.37 10.6002 24.49 10.6002 24.52 10.6002C24.5351 10.464 24.5351 10.3265 24.52 10.1902C24.5104 10.0009 24.4802 9.81309 24.43 9.63023C24.3827 9.43032 24.2712 9.25141 24.1126 9.12088C23.9539 8.99035 23.7569 8.91538 23.5516 8.90744C23.3463 8.8995 23.1441 8.95903 22.9759 9.07692C22.8076 9.19481 22.6826 9.36457 22.62 9.56023C22.5231 9.88415 22.4858 10.223 22.51 10.5602C22.51 10.5602 22.69 10.5602 22.71 10.5602C22.73 10.5602 22.91 10.7002 23.03 10.7802C22.8587 10.7811 22.6924 10.8384 22.5568 10.9432C22.4212 11.048 22.324 11.1946 22.28 11.3602C22.2387 11.5269 22.2219 11.6987 22.23 11.8702C22.5592 12.1675 22.9778 12.3469 23.42 12.3802L23.63 12.4102Z" fill="url(#paint15_linear_131_6850)"/>
<path d="M16.5201 20.2802C18.0057 20.2802 19.2101 19.0356 19.2101 17.5002C19.2101 15.9649 18.0057 14.7202 16.5201 14.7202C15.0344 14.7202 13.8301 15.9649 13.8301 17.5002C13.8301 19.0356 15.0344 20.2802 16.5201 20.2802Z" fill="#F6921E"/>
<path d="M17.1998 18.0002C17.4352 17.8328 17.614 17.5975 17.7122 17.3258C17.8104 17.0542 17.8235 16.759 17.7496 16.4797C17.6757 16.2005 17.5184 15.9504 17.2986 15.7628C17.0789 15.5753 16.8072 15.4593 16.5198 15.4302C16.2324 15.4593 15.9607 15.5753 15.7409 15.7628C15.5212 15.9504 15.3639 16.2005 15.29 16.4797C15.2161 16.759 15.2291 17.0542 15.3274 17.3258C15.4256 17.5975 15.6044 17.8328 15.8398 18.0002C15.6689 17.9994 15.5002 18.0388 15.3473 18.1152C15.1944 18.1917 15.0617 18.303 14.9598 18.4402C14.7598 18.7662 14.6786 19.1512 14.7298 19.5302C15.2174 19.9879 15.861 20.2427 16.5298 20.2427C17.1985 20.2427 17.8422 19.9879 18.3298 19.5302C18.3593 19.2232 18.3111 18.9137 18.1898 18.6302C18.102 18.4417 17.9622 18.2822 17.7868 18.1706C17.6114 18.059 17.4077 17.9998 17.1998 18.0002Z" fill="url(#paint16_linear_131_6850)"/>
<path d="M18.2899 26.46C19.3447 26.46 20.1999 25.578 20.1999 24.49C20.1999 23.402 19.3447 22.52 18.2899 22.52C17.235 22.52 16.3799 23.402 16.3799 24.49C16.3799 25.578 17.235 26.46 18.2899 26.46Z" fill="#1B75BB"/>
<path d="M18.77 24.87C18.9612 24.7617 19.1114 24.5934 19.1974 24.3912C19.2833 24.189 19.3003 23.9641 19.2457 23.7513C19.1911 23.5385 19.0679 23.3496 18.8951 23.2138C18.7224 23.078 18.5097 23.0028 18.29 23C18.0805 23.0116 17.88 23.0889 17.7168 23.2208C17.5537 23.3526 17.4361 23.5325 17.3808 23.7349C17.3255 23.9373 17.3353 24.1519 17.4087 24.3485C17.4822 24.545 17.6155 24.7135 17.79 24.83C17.6696 24.8296 17.5508 24.8574 17.4432 24.9113C17.3355 24.9651 17.2419 25.0435 17.17 25.14C17.0087 25.3957 16.9482 25.7022 17 26C17.3456 26.3278 17.8037 26.5105 18.28 26.5105C18.7563 26.5105 19.2144 26.3278 19.56 26C19.5761 25.7818 19.5419 25.5629 19.46 25.36C19.4054 25.2199 19.311 25.0988 19.1884 25.0117C19.0657 24.9246 18.9203 24.8754 18.77 24.87Z" fill="url(#paint17_linear_131_6850)"/>
<path d="M24.93 21.5801C25.9849 21.5801 26.84 20.6981 26.84 19.6101C26.84 18.5221 25.9849 17.6401 24.93 17.6401C23.8752 17.6401 23.02 18.5221 23.02 19.6101C23.02 20.6981 23.8752 21.5801 24.93 21.5801Z" fill="#25A9E0"/>
<path d="M25.4102 19.9998C25.6008 19.8897 25.7498 19.7199 25.834 19.5165C25.9183 19.3131 25.9331 19.0876 25.8761 18.875C25.8191 18.6623 25.6936 18.4744 25.5189 18.3404C25.3443 18.2064 25.1303 18.1338 24.9102 18.1338C24.69 18.1338 24.476 18.2064 24.3014 18.3404C24.1267 18.4744 24.0012 18.6623 23.9442 18.875C23.8873 19.0876 23.902 19.3131 23.9863 19.5165C24.0705 19.7199 24.2195 19.8897 24.4102 19.9998C24.2886 20.0009 24.1689 20.0293 24.0598 20.083C23.9508 20.1367 23.8552 20.2142 23.7802 20.3098C23.6398 20.5442 23.58 20.8182 23.6102 21.0898C23.9557 21.4176 24.4139 21.6003 24.8902 21.6003C25.3664 21.6003 25.8246 21.4176 26.1702 21.0898C26.1927 20.8714 26.1582 20.6509 26.0702 20.4498C26.0118 20.3216 25.9194 20.2119 25.8031 20.1325C25.6867 20.0532 25.5508 20.0073 25.4102 19.9998Z" fill="url(#paint18_linear_131_6850)"/>
<path d="M28.7 22.8002C29.3848 22.8002 29.94 22.2272 29.94 21.5202C29.94 20.8133 29.3848 20.2402 28.7 20.2402C28.0151 20.2402 27.46 20.8133 27.46 21.5202C27.46 22.2272 28.0151 22.8002 28.7 22.8002Z" fill="#F05A28"/>
<path d="M28.7598 22.7998C29.0463 22.7877 29.3192 22.6743 29.5298 22.4798V22.3098C29.5334 22.1762 29.4873 22.046 29.4005 21.9444C29.3137 21.8429 29.1923 21.7771 29.0598 21.7598C29.1098 21.7598 29.1798 21.6198 29.2398 21.6198C29.2998 21.6198 29.3798 21.6198 29.3998 21.6198C29.4048 21.5299 29.4048 21.4397 29.3998 21.3498C29.376 21.2306 29.3425 21.1136 29.2998 20.9998C29.2664 20.8658 29.1892 20.7468 29.0806 20.6617C28.9719 20.5766 28.8379 20.5301 28.6998 20.5298C28.57 20.5304 28.4437 20.5724 28.3394 20.6498C28.235 20.7271 28.1581 20.8357 28.1198 20.9598C28.0523 21.1763 28.0285 21.404 28.0498 21.6298C28.0498 21.6298 28.1698 21.6298 28.1798 21.6298C28.1898 21.6298 28.3098 21.7298 28.3898 21.7798C28.2786 21.7782 28.1701 21.8137 28.0813 21.8807C27.9926 21.9477 27.9287 22.0424 27.8998 22.1498C27.8804 22.2623 27.8804 22.3773 27.8998 22.4898C28.1069 22.6836 28.3764 22.7971 28.6598 22.8098L28.7598 22.7998Z" fill="url(#paint19_linear_131_6850)"/>
<defs>
<linearGradient id="paint0_linear_131_6850" x1="10.6692" y1="17.8255" x2="10.6822" y2="15.544" gradientUnits="userSpaceOnUse">
<stop stop-color="#B5B7B9"/>
<stop offset="0.04" stop-color="#C0C2C4"/>
<stop offset="0.14" stop-color="#D7D8D9"/>
<stop offset="0.25" stop-color="#E9EAEA"/>
<stop offset="0.39" stop-color="#F6F6F6"/>
<stop offset="0.58" stop-color="#FDFDFD"/>
<stop offset="1" stop-color="white"/>
</linearGradient>
<linearGradient id="paint1_linear_131_6850" x1="3411.26" y1="-3544.24" x2="3411.33" y2="-3536.11" gradientUnits="userSpaceOnUse">
<stop stop-color="#B5B7B9"/>
<stop offset="0.04" stop-color="#C0C2C4"/>
<stop offset="0.14" stop-color="#D7D8D9"/>
<stop offset="0.25" stop-color="#E9EAEA"/>
<stop offset="0.39" stop-color="#F6F6F6"/>
<stop offset="0.58" stop-color="#FDFDFD"/>
<stop offset="1" stop-color="white"/>
</linearGradient>
<linearGradient id="paint2_linear_131_6850" x1="603.633" y1="-1275.18" x2="603.654" y2="-1280.43" gradientUnits="userSpaceOnUse">
<stop stop-color="#B5B7B9"/>
<stop offset="0.04" stop-color="#C0C2C4"/>
<stop offset="0.14" stop-color="#D7D8D9"/>
<stop offset="0.25" stop-color="#E9EAEA"/>
<stop offset="0.39" stop-color="#F6F6F6"/>
<stop offset="0.58" stop-color="#FDFDFD"/>
<stop offset="1" stop-color="white"/>
</linearGradient>
<linearGradient id="paint3_linear_131_6850" x1="307.862" y1="1866.39" x2="307.862" y2="1861.44" gradientUnits="userSpaceOnUse">
<stop stop-color="#B5B7B9"/>
<stop offset="0.04" stop-color="#C0C2C4"/>
<stop offset="0.14" stop-color="#D7D8D9"/>
<stop offset="0.25" stop-color="#E9EAEA"/>
<stop offset="0.39" stop-color="#F6F6F6"/>
<stop offset="0.58" stop-color="#FDFDFD"/>
<stop offset="1" stop-color="white"/>
</linearGradient>
<linearGradient id="paint4_linear_131_6850" x1="285.974" y1="1891.88" x2="285.993" y2="1886.92" gradientUnits="userSpaceOnUse">
<stop stop-color="#B5B7B9"/>
<stop offset="0.04" stop-color="#C0C2C4"/>
<stop offset="0.14" stop-color="#D7D8D9"/>
<stop offset="0.25" stop-color="#E9EAEA"/>
<stop offset="0.39" stop-color="#F6F6F6"/>
<stop offset="0.58" stop-color="#FDFDFD"/>
<stop offset="1" stop-color="white"/>
</linearGradient>
<linearGradient id="paint5_linear_131_6850" x1="343.981" y1="1871.01" x2="343.981" y2="1866.06" gradientUnits="userSpaceOnUse">
<stop stop-color="#B5B7B9"/>
<stop offset="0.04" stop-color="#C0C2C4"/>
<stop offset="0.14" stop-color="#D7D8D9"/>
<stop offset="0.25" stop-color="#E9EAEA"/>
<stop offset="0.39" stop-color="#F6F6F6"/>
<stop offset="0.58" stop-color="#FDFDFD"/>
<stop offset="1" stop-color="white"/>
</linearGradient>
<linearGradient id="paint6_linear_131_6850" x1="1044.7" y1="-105.086" x2="1044.72" y2="-110.034" gradientUnits="userSpaceOnUse">
<stop stop-color="#B5B7B9"/>
<stop offset="0.04" stop-color="#C0C2C4"/>
<stop offset="0.14" stop-color="#D7D8D9"/>
<stop offset="0.25" stop-color="#E9EAEA"/>
<stop offset="0.39" stop-color="#F6F6F6"/>
<stop offset="0.58" stop-color="#FDFDFD"/>
<stop offset="1" stop-color="white"/>
</linearGradient>
<linearGradient id="paint7_linear_131_6850" x1="181.384" y1="256.393" x2="181.384" y2="251.152" gradientUnits="userSpaceOnUse">
<stop stop-color="#B5B7B9"/>
<stop offset="0.04" stop-color="#C0C2C4"/>
<stop offset="0.14" stop-color="#D7D8D9"/>
<stop offset="0.25" stop-color="#E9EAEA"/>
<stop offset="0.39" stop-color="#F6F6F6"/>
<stop offset="0.58" stop-color="#FDFDFD"/>
<stop offset="1" stop-color="white"/>
</linearGradient>
<linearGradient id="paint8_linear_131_6850" x1="-168.665" y1="133.344" x2="-168.643" y2="128.322" gradientUnits="userSpaceOnUse">
<stop stop-color="#B5B7B9"/>
<stop offset="0.04" stop-color="#C0C2C4"/>
<stop offset="0.14" stop-color="#D7D8D9"/>
<stop offset="0.25" stop-color="#E9EAEA"/>
<stop offset="0.39" stop-color="#F6F6F6"/>
<stop offset="0.58" stop-color="#FDFDFD"/>
<stop offset="1" stop-color="white"/>
</linearGradient>
<linearGradient id="paint9_linear_131_6850" x1="80.0827" y1="398.16" x2="80.0445" y2="393.235" gradientUnits="userSpaceOnUse">
<stop stop-color="#B5B7B9"/>
<stop offset="0.04" stop-color="#C0C2C4"/>
<stop offset="0.14" stop-color="#D7D8D9"/>
<stop offset="0.25" stop-color="#E9EAEA"/>
<stop offset="0.39" stop-color="#F6F6F6"/>
<stop offset="0.58" stop-color="#FDFDFD"/>
<stop offset="1" stop-color="white"/>
</linearGradient>
<linearGradient id="paint10_linear_131_6850" x1="2867.2" y1="4685.3" x2="2867.2" y2="4672.97" gradientUnits="userSpaceOnUse">
<stop stop-color="#B5B7B9"/>
<stop offset="0.04" stop-color="#C0C2C4"/>
<stop offset="0.14" stop-color="#D7D8D9"/>
<stop offset="0.25" stop-color="#E9EAEA"/>
<stop offset="0.39" stop-color="#F6F6F6"/>
<stop offset="0.58" stop-color="#FDFDFD"/>
<stop offset="1" stop-color="white"/>
</linearGradient>
<linearGradient id="paint11_linear_131_6850" x1="2891.28" y1="-3321.28" x2="2891.28" y2="-3333.55" gradientUnits="userSpaceOnUse">
<stop stop-color="#B5B7B9"/>
<stop offset="0.04" stop-color="#C0C2C4"/>
<stop offset="0.14" stop-color="#D7D8D9"/>
<stop offset="0.25" stop-color="#E9EAEA"/>
<stop offset="0.39" stop-color="#F6F6F6"/>
<stop offset="0.58" stop-color="#FDFDFD"/>
<stop offset="1" stop-color="white"/>
</linearGradient>
<linearGradient id="paint12_linear_131_6850" x1="447.126" y1="5739.36" x2="447.126" y2="5727.63" gradientUnits="userSpaceOnUse">
<stop stop-color="#B5B7B9"/>
<stop offset="0.04" stop-color="#C0C2C4"/>
<stop offset="0.14" stop-color="#D7D8D9"/>
<stop offset="0.25" stop-color="#E9EAEA"/>
<stop offset="0.39" stop-color="#F6F6F6"/>
<stop offset="0.58" stop-color="#FDFDFD"/>
<stop offset="1" stop-color="white"/>
</linearGradient>
<linearGradient id="paint13_linear_131_6850" x1="3908.62" y1="580.371" x2="3908.62" y2="568.63" gradientUnits="userSpaceOnUse">
<stop stop-color="#B5B7B9"/>
<stop offset="0.04" stop-color="#C0C2C4"/>
<stop offset="0.14" stop-color="#D7D8D9"/>
<stop offset="0.25" stop-color="#E9EAEA"/>
<stop offset="0.39" stop-color="#F6F6F6"/>
<stop offset="0.58" stop-color="#FDFDFD"/>
<stop offset="1" stop-color="white"/>
</linearGradient>
<linearGradient id="paint14_linear_131_6850" x1="86.9129" y1="-11.2993" x2="86.9129" y2="-23.6195" gradientUnits="userSpaceOnUse">
<stop stop-color="#B5B7B9"/>
<stop offset="0.04" stop-color="#C0C2C4"/>
<stop offset="0.14" stop-color="#D7D8D9"/>
<stop offset="0.25" stop-color="#E9EAEA"/>
<stop offset="0.39" stop-color="#F6F6F6"/>
<stop offset="0.58" stop-color="#FDFDFD"/>
<stop offset="1" stop-color="white"/>
</linearGradient>
<linearGradient id="paint15_linear_131_6850" x1="82.9985" y1="-50.5467" x2="82.9985" y2="-62.844" gradientUnits="userSpaceOnUse">
<stop stop-color="#B5B7B9"/>
<stop offset="0.04" stop-color="#C0C2C4"/>
<stop offset="0.14" stop-color="#D7D8D9"/>
<stop offset="0.25" stop-color="#E9EAEA"/>
<stop offset="0.39" stop-color="#F6F6F6"/>
<stop offset="0.58" stop-color="#FDFDFD"/>
<stop offset="1" stop-color="white"/>
</linearGradient>
<linearGradient id="paint16_linear_131_6850" x1="134.636" y1="-365.275" x2="134.636" y2="-388.482" gradientUnits="userSpaceOnUse">
<stop stop-color="#B5B7B9"/>
<stop offset="0.04" stop-color="#C0C2C4"/>
<stop offset="0.14" stop-color="#D7D8D9"/>
<stop offset="0.25" stop-color="#E9EAEA"/>
<stop offset="0.39" stop-color="#F6F6F6"/>
<stop offset="0.58" stop-color="#FDFDFD"/>
<stop offset="1" stop-color="white"/>
</linearGradient>
<linearGradient id="paint17_linear_131_6850" x1="64.1797" y1="-15.469" x2="64.1797" y2="-27.4749" gradientUnits="userSpaceOnUse">
<stop stop-color="#B5B7B9"/>
<stop offset="0.04" stop-color="#C0C2C4"/>
<stop offset="0.14" stop-color="#D7D8D9"/>
<stop offset="0.25" stop-color="#E9EAEA"/>
<stop offset="0.39" stop-color="#F6F6F6"/>
<stop offset="0.58" stop-color="#FDFDFD"/>
<stop offset="1" stop-color="white"/>
</linearGradient>
<linearGradient id="paint18_linear_131_6850" x1="87.7806" y1="-27.1535" x2="87.7806" y2="-39.009" gradientUnits="userSpaceOnUse">
<stop stop-color="#B5B7B9"/>
<stop offset="0.04" stop-color="#C0C2C4"/>
<stop offset="0.14" stop-color="#D7D8D9"/>
<stop offset="0.25" stop-color="#E9EAEA"/>
<stop offset="0.39" stop-color="#F6F6F6"/>
<stop offset="0.58" stop-color="#FDFDFD"/>
<stop offset="1" stop-color="white"/>
</linearGradient>
<linearGradient id="paint19_linear_131_6850" x1="210.993" y1="268.504" x2="210.972" y2="263.302" gradientUnits="userSpaceOnUse">
<stop stop-color="#B5B7B9"/>
<stop offset="0.04" stop-color="#C0C2C4"/>
<stop offset="0.14" stop-color="#D7D8D9"/>
<stop offset="0.25" stop-color="#E9EAEA"/>
<stop offset="0.39" stop-color="#F6F6F6"/>
<stop offset="0.58" stop-color="#FDFDFD"/>
<stop offset="1" stop-color="white"/>
</linearGradient>
</defs>
</svg>
