<svg width="15" height="21" viewBox="0 0 15 21" fill="none" xmlns="http://www.w3.org/2000/svg">
<path d="M14.5174 10.8541C14.5174 6.94622 11.4288 3.76087 7.56 3.60313V3.52792H11.3278C11.0419 1.53401 9.33169 0 7.2587 0C5.18571 0 3.47548 1.53401 3.18965 3.52792H6.9574V3.60313C3.08821 3.7613 0 6.94622 0 10.8541C0 13.4188 1.33156 15.6714 3.33965 16.9626L2.38289 19.8037C2.29564 20.0637 2.43533 20.3461 2.6958 20.4338C2.74823 20.4514 2.80196 20.4596 2.85439 20.4596C3.06199 20.4596 3.25584 20.3289 3.3259 20.1209L4.2255 17.4487C5.14874 17.8742 6.17557 18.1132 7.2587 18.1132C8.29584 18.1132 9.28097 17.8944 10.1733 17.5025L11.0548 20.1213C11.1249 20.3289 11.3183 20.46 11.5263 20.46C11.5788 20.46 11.6321 20.4514 11.6849 20.4342C11.9454 20.3465 12.0851 20.0646 11.9978 19.8041L11.066 17.0352C13.1364 15.7561 14.5174 13.4665 14.5174 10.8541ZM7.26257 16.6317C4.07679 16.6317 1.48501 14.0399 1.48501 10.8541C1.48501 7.66831 4.07679 5.07653 7.26257 5.07653C10.4484 5.07653 13.0401 7.66831 13.0401 10.8541C13.0401 14.0394 10.4484 16.6317 7.26257 16.6317Z" fill="#FFCF40"/>
<path d="M7.26257 16.6317C4.07679 16.6317 1.48501 14.0399 1.48501 10.8541C1.48501 7.66831 4.07679 5.07653 7.26257 5.07653C10.4484 5.07653 13.0401 7.66831 13.0401 10.8541C13.0401 14.0394 10.4484 16.6317 7.26257 16.6317Z" fill="#FCEBB8"/>
<path d="M7.26247 10.1828C7.25258 10.1828 7.24313 10.1854 7.23324 10.1858L5.31111 7.13884C5.21312 6.9841 5.00895 6.93811 4.85422 7.03525C4.69906 7.13282 4.65307 7.33741 4.75064 7.49257L6.67276 10.54C6.62248 10.6341 6.59153 10.7394 6.59153 10.8537C6.59153 11.103 6.72907 11.3179 6.93108 11.4335V13.9746C6.93108 14.1577 7.07937 14.306 7.26247 14.306C7.44557 14.306 7.59385 14.1577 7.59385 13.9746V11.4335C7.79544 11.3179 7.93298 11.103 7.93298 10.8537C7.93341 10.4832 7.63297 10.1828 7.26247 10.1828Z" fill="#35EDDF"/>
</svg>
