<svg width="32" height="32" viewBox="0 0 32 32" fill="none" xmlns="http://www.w3.org/2000/svg">
<path d="M20.3702 27.4401C21.8417 27.4401 23.2801 27.0037 24.5036 26.1862C25.7271 25.3687 26.6807 24.2067 27.2438 22.8472C27.807 21.4877 27.9543 19.9918 27.6672 18.5486C27.3801 17.1054 26.6716 15.7797 25.6311 14.7392C24.5905 13.6987 23.2649 12.9901 21.8216 12.703C20.3784 12.4159 18.8825 12.5633 17.523 13.1264C16.1635 13.6895 15.0016 14.6431 14.184 15.8666C13.3665 17.0901 12.9302 18.5286 12.9302 20.0001C12.9302 21.9733 13.714 23.8657 15.1093 25.2609C16.5046 26.6562 18.397 27.4401 20.3702 27.4401Z" fill="#7C7C7C"/>
<path d="M7.62012 4C7.62012 4 8.27012 7.61 13.2301 10C18.1901 12.39 18.6101 15.37 18.6101 15.37L15.9201 17.2C14.6347 17.3143 13.3478 16.9981 12.2617 16.3012C11.1755 15.6043 10.3519 14.5661 9.92012 13.35C10.9075 13.6953 11.9828 13.6953 12.9701 13.35C11.6701 13.2 9.07012 13.83 8.77012 9.93C9.86012 10.77 10.6101 11.34 11.9801 11.25C9.63012 10.22 7.27012 8.64 7.62012 4Z" fill="#7C7C7C"/>
<path d="M2.18018 6.68994C2.18018 6.68994 3.76018 10.4199 9.68018 11.7799C15.6002 13.1399 16.7702 16.2499 16.7702 16.2499L14.3302 18.8799C12.973 19.3151 11.5097 19.287 10.1703 18.8001C8.83083 18.3132 7.6911 17.395 6.93018 16.1899C8.0787 16.3122 9.23414 16.0331 10.2002 15.3999C8.78018 15.5599 6.13018 16.8699 4.86018 12.7399C6.23018 13.3899 7.18018 13.8099 8.64018 13.3799C5.86018 12.9099 2.93018 11.7899 2.18018 6.68994Z" fill="#7C7C7C"/>
<path d="M7.62012 3.6001C7.62012 3.6001 8.27012 7.2101 13.2301 9.6001C18.1901 11.9901 18.6101 15.0001 18.6101 15.0001L15.9201 16.8301C14.6347 16.9444 13.3478 16.6282 12.2617 15.9313C11.1755 15.2343 10.3519 14.1962 9.92012 12.9801C10.9075 13.3254 11.9828 13.3254 12.9701 12.9801C11.6701 12.8301 9.07012 13.4601 8.77012 9.5601C9.86012 10.4101 10.6101 10.9701 11.9801 10.8801C9.63012 9.8301 7.27012 8.2501 7.62012 3.6001Z" fill="url(#paint0_linear_131_6831)"/>
<path d="M2.18018 6.31006C2.18018 6.31006 3.76018 10.0001 9.68018 11.3901C15.6002 12.7801 16.7702 15.8701 16.7702 15.8701L14.3302 18.4901C12.974 18.9244 11.5121 18.8969 10.1731 18.412C8.83421 17.9271 7.69376 17.0121 6.93018 15.8101C8.08028 15.9159 9.23243 15.6305 10.2002 15.0001C8.78018 15.1601 6.13018 16.4601 4.86018 12.3401C6.23018 12.9801 7.18018 13.4101 8.64018 12.9801C5.86018 12.5301 2.93018 11.4001 2.18018 6.31006Z" fill="url(#paint1_linear_131_6831)"/>
<path d="M28.0001 19.7098V19.9998C27.93 21.8983 27.1265 23.6957 25.7586 25.014C24.3907 26.3323 22.5649 27.0689 20.6651 27.0689C18.7653 27.0689 16.9395 26.3323 15.5716 25.014C14.2037 23.6957 13.4002 21.8983 13.3301 19.9998V19.5198C13.4002 17.6213 14.2037 15.8239 15.5716 14.5056C16.9395 13.1873 18.7653 12.4507 20.6651 12.4507C22.5649 12.4507 24.3907 13.1873 25.7586 14.5056C27.1265 15.8239 27.93 17.6213 28.0001 19.5198V19.7098Z" fill="#FFF235"/>
<path d="M27.8999 19.8101V20.0501C27.8025 21.9018 26.9983 23.6456 25.6531 24.9219C24.3079 26.1982 22.5243 26.9097 20.6699 26.9097C18.8156 26.9097 17.032 26.1982 15.6868 24.9219C14.3416 23.6456 13.5374 21.9018 13.4399 20.0501V19.5801C13.4399 17.6626 14.2017 15.8236 15.5576 14.4677C16.9134 13.1118 18.7524 12.3501 20.6699 12.3501C22.5875 12.3501 24.4264 13.1118 25.7823 14.4677C27.1382 15.8236 27.8999 17.6626 27.8999 19.5801C27.8949 19.6567 27.8949 19.7335 27.8999 19.8101Z" fill="#E7AD27"/>
<path d="M27.9998 19.71V20H13.3198V19.52H27.9998V19.71Z" fill="#F6CA14"/>
<path d="M13.4298 19.8102V19.4702H13.3198V20.0002H13.4198L13.4298 19.8102Z" fill="#FDDD3A"/>
<path d="M20.6599 12.3701H20.8999V27.0501H20.4199V12.3701H20.6599Z" fill="#F6CA14"/>
<path d="M20.6599 12.5801H20.8999V12.3701H20.4199V12.5801H20.6599Z" fill="#FDDD3A"/>
<path d="M25.8498 24.9001L25.6798 25.0701L15.2998 14.6901L15.4698 14.5101L15.6398 14.3501L25.9998 24.7401L25.8498 24.9001Z" fill="#F6CA14"/>
<path d="M25.6602 25.05L25.8302 24.88L26.0002 24.71L25.6602 25.05Z" fill="#FDDD3A"/>
<path d="M15.7698 14.4801L15.6398 14.3501L15.4698 14.5201L15.2998 14.6901L15.4298 14.8201C15.5398 14.7001 15.6598 14.5901 15.7698 14.4801Z" fill="#FDDD3A"/>
<path d="M25.8498 14.5201L26.0198 14.6901L15.6398 25.0601L15.4698 24.9001L15.2998 24.7201L25.6798 14.3501L25.8498 14.5201Z" fill="#F6CA14"/>
<path d="M25.8898 14.8201L26.0198 14.6901L25.8498 14.5201L25.6798 14.3501L25.5498 14.4801C25.6698 14.5901 25.7798 14.7001 25.8898 14.8201Z" fill="#FDDD3A"/>
<path d="M15.3301 24.7002L15.5001 24.8702L15.6701 25.0402L15.3301 24.7002Z" fill="#FDDD3A"/>
<path d="M23.0403 22.7197C22.5102 22.8123 22.1968 23.1793 21.8398 23.5485C21.7588 23.6322 21.4438 24.0022 21.2543 24.0996C21.0773 23.5905 20.9766 23.0891 20.9247 22.6083C21.12 22.6279 21.7558 22.6887 22.1942 22.6978C22.7475 22.7093 23.7278 22.4412 23.6952 21.7384C23.6711 21.2192 23.156 21.125 22.7365 21.1984C22.2064 21.291 21.8931 21.6581 21.536 22.0272C21.451 22.1151 21.1072 22.5195 20.9227 22.5909C20.8744 22.1346 20.869 21.697 20.8831 21.2901C20.8891 21.2956 20.8955 21.3009 20.8994 21.3068C20.8994 21.3068 20.8938 21.2985 20.8855 21.2862C20.9076 21.2826 21.6911 21.1533 22.192 21.0272C22.7289 20.8919 23.605 20.3743 23.3905 19.7046C23.232 19.2099 22.7105 19.2552 22.3249 19.4367C21.8375 19.6663 21.6306 20.1034 21.3822 20.5538C21.3163 20.6735 21.0425 21.258 20.8854 21.2859C20.8846 21.2848 20.884 21.2839 20.8833 21.2829C20.8964 20.9104 20.9253 20.5634 20.9513 20.251C20.9772 19.9405 20.9999 19.6651 21.0028 19.4279C21.2446 19.3864 21.8025 19.2867 22.1906 19.1889C22.7275 19.0536 23.6037 18.536 23.3892 17.8663C23.2307 17.3716 22.7091 17.417 22.3235 17.5985C21.8362 17.8281 21.6292 18.2652 21.3809 18.7156C21.3295 18.8086 21.153 19.1813 21.0031 19.3565C21.0029 19.3278 21.0026 19.2993 21.0017 19.2717C20.9855 18.7703 20.9216 18.2784 20.8494 17.8625C21.0729 17.7626 21.5898 17.5275 21.9429 17.336C22.4302 17.0718 23.1529 16.3526 22.7814 15.7568C22.5069 15.3165 22.0124 15.49 21.6832 15.7616C21.2669 16.1051 21.1732 16.58 21.0425 17.0782C21.0159 17.1799 20.9371 17.5779 20.8362 17.7867C20.7546 17.3335 20.6655 16.9808 20.623 16.8223C20.6887 16.5739 20.8258 16.0401 20.8974 15.6542C20.9993 15.1062 20.8974 14.0879 20.204 14.0051C19.6916 13.944 19.5151 14.4407 19.5183 14.8694C19.5222 15.4114 19.8303 15.7832 20.1331 16.1984C20.193 16.2806 20.4371 16.5754 20.5414 16.785C20.5509 16.819 20.5667 16.8774 20.5866 16.9556C20.5863 16.9568 20.5866 16.9585 20.5863 16.9596C20.5863 16.9596 20.5866 16.9587 20.5871 16.957C20.6278 17.118 20.6861 17.3642 20.7434 17.664C20.623 17.4079 20.4231 16.9923 20.2565 16.6943C19.9848 16.2086 19.2571 15.4946 18.6731 15.8805C18.2417 16.1656 18.4234 16.6603 18.6995 16.9867C19.0484 17.3994 19.5214 17.4846 20.0184 17.6064C20.1283 17.6334 20.5843 17.715 20.7734 17.8254C20.7763 17.8416 20.7791 17.8581 20.782 17.8747C20.768 17.8913 20.7537 17.9047 20.7391 17.9112C20.7391 17.9112 20.7565 17.9036 20.7847 17.891C20.8551 18.3004 20.917 18.7825 20.9331 19.2737C20.9343 19.3106 20.9346 19.3489 20.9346 19.3882C20.808 19.2271 20.4152 18.7321 20.1202 18.4118C19.7437 18.0031 18.871 17.4794 18.3923 17.9916C18.0386 18.3701 18.3295 18.8086 18.6733 19.0612C19.108 19.3808 19.5876 19.3527 20.0991 19.3547C20.2227 19.3551 20.762 19.3222 20.9343 19.4105C20.9343 19.4144 20.9341 19.4185 20.9341 19.4225C20.9162 19.4354 20.8991 19.4449 20.8833 19.4475C20.8833 19.4475 20.9018 19.4445 20.934 19.439C20.9305 19.6709 20.9083 19.9407 20.883 20.2445C20.859 20.5315 20.8328 20.8477 20.8184 21.1858C20.6736 20.9727 20.3631 20.5221 20.1203 20.2169C19.7744 19.7816 18.9419 19.1953 18.4275 19.671C18.0473 20.0226 18.3059 20.4812 18.6305 20.7586C19.041 21.1091 19.5214 21.1163 20.0314 21.1558C20.145 21.1646 20.614 21.1711 20.816 21.251C20.8002 21.6682 20.8041 22.1179 20.8532 22.588C20.7002 22.4543 20.2222 22.0396 19.8729 21.7791C19.4279 21.4474 18.4744 21.095 18.0977 21.6875C17.8194 22.1252 18.1856 22.502 18.5699 22.6866C19.0556 22.9197 19.5219 22.8029 20.0249 22.7098C20.1462 22.6874 20.6692 22.555 20.8554 22.6091C20.9075 23.0962 21.0092 23.6047 21.1888 24.1214C21.182 24.1222 21.175 24.1237 21.1689 24.1231C21.1689 24.1231 21.1765 24.1238 21.1902 24.1252C21.1942 24.1367 21.1981 24.1481 21.2022 24.1596C21.0642 24.0797 20.4736 23.7402 20.0578 23.5419C19.5575 23.3034 18.5544 23.144 18.2988 23.7988C18.11 24.2826 18.5419 24.5808 18.9543 24.6866C19.4757 24.8206 19.9106 24.6148 20.3861 24.4252C20.5056 24.3776 21.0311 24.1269 21.2049 24.1672C21.4215 24.7751 21.7468 25.3932 22.2295 26L22.2832 25.9566C21.8032 25.3533 21.4807 24.7381 21.2665 24.1328C21.4963 24.1554 22.0848 24.2098 22.4983 24.2185C23.0516 24.23 24.0319 23.9619 23.9992 23.2591C23.9747 22.7403 23.4596 22.6463 23.0403 22.7197Z" fill="white"/>
<defs>
<linearGradient id="paint0_linear_131_6831" x1="6.95012" y1="9.7201" x2="19.0401" y2="11.0501" gradientUnits="userSpaceOnUse">
<stop stop-color="#00DDD9"/>
<stop offset="1" stop-color="#009CDF"/>
</linearGradient>
<linearGradient id="paint1_linear_131_6831" x1="12243.8" y1="1453.53" x2="26881.8" y2="3395.92" gradientUnits="userSpaceOnUse">
<stop stop-color="#00DDD9"/>
<stop offset="1" stop-color="#009CDF"/>
</linearGradient>
</defs>
</svg>
