<svg width="21" height="25" viewBox="0 0 21 25" fill="none" xmlns="http://www.w3.org/2000/svg">
<path d="M18.7827 23.9178C18.7827 24.132 14.578 24.3058 9.39133 24.3058C4.20464 24.3058 0 24.1322 0 23.9178C0 23.7036 4.20464 23.5298 9.39133 23.5298C14.578 23.5298 18.7827 23.7036 18.7827 23.9178Z" fill="#DADADA"/>
<path d="M18.1785 4.64417C18.1895 4.7463 18.198 4.84463 18.1626 4.94258C18.1188 5.06367 18.0537 5.18184 17.9859 5.29382C17.9193 5.40403 17.8482 5.51956 17.8038 5.64342C17.755 5.77967 17.7706 5.92034 17.7335 6.0576C17.729 6.07428 17.6718 6.24062 17.6818 6.24769L18.4874 6.81342C18.7774 6.67274 19.0932 6.35778 19.3114 6.01084C19.4191 5.83958 19.671 5.62231 19.7828 5.35639C19.8789 5.12812 20.0975 4.88571 20.0067 4.81834C19.947 4.7741 19.8279 4.9077 19.7507 5.00818C19.8501 4.86346 20.0075 4.60562 19.9268 4.52878C19.8637 4.46862 19.7936 4.54091 19.733 4.62989C19.8202 4.48277 19.9178 4.2942 19.882 4.23871C19.821 4.14379 19.6746 4.16528 19.4275 4.62281C19.1806 5.08035 19.0935 5.13786 19.0935 5.13786C19.0935 5.13786 19.7886 4.14455 19.6205 4.07352C19.4128 3.98555 19.3355 4.29129 19.1515 4.55393C19.0313 4.72557 18.9007 4.88533 18.8568 4.95219C18.659 5.25313 18.4395 5.29458 18.4409 4.91832C18.4409 4.91832 18.5026 4.74781 18.4278 4.56316C18.311 4.2741 18.1487 4.36637 18.1785 4.64417ZM19.6145 4.81809C19.6145 4.81809 19.6309 4.79382 19.6558 4.75515C19.6398 4.78194 19.6257 4.80431 19.6145 4.81809Z" fill="#F6BB8F"/>
<path d="M17.7938 6.13689C17.7939 6.1374 17.754 6.101 17.7281 6.07471C17.7131 6.12122 17.6734 6.24142 17.6818 6.24736L18.4874 6.81308C18.5242 6.79526 18.5614 6.77453 18.5988 6.75128L17.7938 6.13689Z" fill="#D09067"/>
<path d="M9.19224 11.8462L8.54701 12.0263C8.23053 12.6646 7.96524 13.6155 8.07393 14.3097L8.22169 15.2538L8.03665 16.9164C8.02173 17.0508 7.97232 17.1792 7.8932 17.2892L5.40039 20.7514L6.58139 21.6674L9.52123 17.831C9.57318 17.7632 9.61426 17.6877 9.64282 17.6072L11.3387 12.8355L9.19224 11.8462Z" fill="#F6BB8F"/>
<path d="M9.59134 17.3322C9.68916 17.3408 9.88912 17.3534 9.98707 17.3603L11.3387 12.8352L9.30203 11.3227L8.9604 11.2275C8.64392 11.8658 7.83274 12.4447 8.07377 14.3096L8.22152 15.2537L7.93701 16.8091C8.40681 16.9802 9.12268 17.2911 9.59134 17.3322Z" fill="#7AC371"/>
<path d="M10.389 12.1298C9.74049 11.9893 9.0073 11.8303 8.63255 11.749C8.28725 12.2643 7.89683 12.94 8.07391 14.3094L8.09742 14.4593C8.09881 14.4609 8.09982 14.4625 8.10121 14.464C8.44347 14.8604 8.90176 14.9989 9.38988 15.1229C9.73278 15.21 10.0854 15.253 10.4394 15.2533L10.6145 15.2605L11.339 12.8352L10.389 12.1298Z" fill="#65AA5A"/>
<path d="M5.82177 20.166L5.40063 20.751L6.58163 21.6669L7.04928 21.031C6.59212 20.8066 6.1701 20.5185 5.82177 20.166Z" fill="#E0DFDE"/>
<path d="M5.58571 20.4864C5.58571 20.4864 5.7054 21.0967 6.20287 21.2862C6.70035 21.4757 6.79502 21.5505 6.65005 21.8657C6.50495 22.181 6.30601 22.8339 6.67532 23.2885C7.04464 23.7432 6.95553 23.8674 6.84064 24.03C6.72575 24.1927 5.66786 23.4926 5.30348 22.7568C4.93909 22.0209 4.22461 21.1668 4.22461 21.1668C4.22461 21.1668 4.39119 20.9273 4.63032 20.8537C4.63032 20.8537 5.08027 20.3586 5.58571 20.4864Z" fill="#65AA5A"/>
<path d="M5.53414 22.4856C5.20944 21.8299 4.60719 21.0808 4.47979 20.9253C4.32433 21.0243 4.22461 21.167 4.22461 21.167C4.22461 21.167 4.93909 22.0211 5.30348 22.7569C5.66786 23.4928 6.72575 24.1929 6.84064 24.0302C6.89777 23.9494 6.94833 23.878 6.93961 23.7709C6.61807 23.6833 5.83685 23.0971 5.53414 22.4856Z" fill="#E0700A"/>
<path d="M12.0683 12.1088L14.6787 13.1425C15.2295 13.3859 15.4423 14.057 15.1326 14.5735L11.8325 18.8643L10.7168 18.4332L12.4599 15.1365C12.5113 15.0326 12.4499 14.9083 12.3362 14.8859L10.8991 14.8032C10.5557 14.8026 10.32 14.4998 9.9872 14.4147C9.63242 14.3241 9.5715 14.2944 9.32908 14.1214C9.31101 14.1085 8.94991 14.0955 8.93259 14.0817C8.44574 13.695 8.7085 13.0292 9.02776 12.4957L8.89228 11.9565L12.0683 12.1088Z" fill="#F6BB8F"/>
<path d="M12.0642 14.8852L12.3362 14.8857C12.4499 14.9081 12.5113 15.0324 12.4599 15.1363L11.7905 16.4022L12.9259 14.8492C12.9675 14.7922 12.9174 14.7138 12.8482 14.7277L12.0642 14.8852Z" fill="#D09067"/>
<path d="M9.7647 14.7783C10.1076 14.8654 10.4602 14.9083 10.8143 14.9087L12.0841 14.961C12.4123 14.4861 12.79 13.9997 13.1436 13.5388C13.3667 13.2481 13.5304 12.9762 13.6373 12.6976L12.0047 12.0542C12.0047 12.0542 8.75952 11.3507 8.75749 11.3502C8.71705 11.3415 8.37402 11.9674 8.33522 12.0364C7.9539 12.7148 7.94948 13.5098 8.4759 14.1194C8.81829 14.5158 9.27658 14.6543 9.7647 14.7783Z" fill="#7AC371"/>
<path d="M12.8872 13.8727C12.9295 13.8177 12.9709 13.7637 13.0127 13.7092C12.4629 13.5633 11.1247 13.2048 10.2142 12.9355C9.91921 12.8483 9.7367 12.7056 9.67161 12.5113C9.54257 12.1259 9.8957 11.6424 9.89924 11.6376L9.8229 11.5809C9.78878 11.5735 9.75528 11.5663 9.72204 11.5591C9.63445 11.6889 9.35184 12.1541 9.491 12.5711C9.57682 12.828 9.80192 13.0121 10.1602 13.118C11.0331 13.3759 12.2969 13.7156 12.8872 13.8727Z" fill="white"/>
<path d="M10.932 14.7605C10.5641 14.7582 10.1976 14.7112 9.84077 14.6178C9.33293 14.4849 8.85593 14.3369 8.49824 13.9187C8.23295 13.6087 8.09683 13.254 8.06965 12.8901C8.03742 13.323 8.16116 13.7543 8.47613 14.119C8.81839 14.5154 9.27668 14.6539 9.7648 14.7779C10.1077 14.865 10.4603 14.908 10.8144 14.9083L12.0842 14.9607C12.1167 14.9137 12.1516 14.8661 12.1849 14.8189L10.932 14.7605Z" fill="#65AA5A"/>
<path d="M11.1355 17.6411L10.7168 18.4331L11.8325 18.8642L12.1785 18.4142C11.8063 18.2 11.4358 17.9519 11.1355 17.6411Z" fill="#E0DFDE"/>
<path d="M10.7133 18.2485C10.7133 18.2485 11.1024 18.7337 11.631 18.6708C12.1596 18.6079 12.2783 18.6302 12.296 18.9768C12.3138 19.3234 12.4403 19.9941 12.9783 20.2255C13.5165 20.4571 13.4952 20.6084 13.4687 20.8058C13.4424 21.0031 12.1804 20.8737 11.5163 20.3909C10.8521 19.9079 9.823 19.4827 9.823 19.4827C9.823 19.4827 9.85952 19.1933 10.0372 19.0172C10.0372 19.0172 10.2062 18.3697 10.7133 18.2485Z" fill="#65AA5A"/>
<path d="M11.5946 20.0436C11.0029 19.6132 10.1218 19.229 9.93676 19.1504C9.84487 19.3101 9.82275 19.4828 9.82275 19.4828C9.82275 19.4828 10.852 19.908 11.516 20.3909C12.1802 20.8739 13.4421 21.0033 13.4685 20.8059C13.4816 20.7078 13.4933 20.6211 13.4359 20.5302C13.1104 20.6019 12.1466 20.4449 11.5946 20.0436Z" fill="#E0700A"/>
<path d="M17.7223 6.20024C17.7226 6.20112 17.6351 6.11252 17.6351 6.11252C17.6351 6.11252 15.9076 7.30856 15.0466 7.84155C14.9176 7.92143 14.7496 7.89375 14.6542 7.7757C14.3928 7.45226 13.2099 6.48841 12.4095 5.39551L11.4822 7.05944C11.4822 7.05944 11.7509 7.63919 12.4599 8.28619C13.0664 8.83953 13.9776 9.33131 14.4984 9.58928C14.7413 9.7096 15.0307 9.68066 15.2452 9.51496C16.1537 8.81311 18.4567 6.99827 18.5933 6.86493L17.7223 6.20024Z" fill="#FF860D"/>
<path d="M13.4415 6.58315C13.1663 6.30358 13.1534 6.23583 12.8921 5.90974C12.8203 5.82026 12.8524 5.44981 12.567 5.27539L11.4822 7.05977C11.4822 7.05977 11.7509 7.63953 12.4599 8.28652C12.652 8.46182 12.8749 8.63081 13.106 8.78829C13.3133 8.12638 13.4938 7.3051 13.4415 6.58315Z" fill="#E0700A"/>
<path d="M8.52889 12.5386C8.44029 12.4836 8.35612 12.429 8.29975 12.3395C8.2301 12.2288 8.17613 12.1028 8.12861 11.9787C8.08185 11.8565 8.03382 11.7273 7.96228 11.6146C7.88354 11.4903 7.76119 11.4151 7.67424 11.2997C7.66375 11.2857 7.56618 11.136 7.5543 11.1397L6.59802 11.4319C6.52977 11.752 6.58475 12.2018 6.72656 12.5932C6.79658 12.7865 6.81327 13.1238 6.95647 13.3795C7.07944 13.5989 7.13695 13.9255 7.2478 13.8948C7.32047 13.8746 7.28786 13.6958 7.25551 13.5711C7.30948 13.7411 7.41779 14.0281 7.52965 14.0116C7.61724 13.9985 7.60321 13.8972 7.56959 13.7932C7.63304 13.9549 7.72315 14.1508 7.78989 14.1568C7.90402 14.1672 7.97821 14.0365 7.766 13.5529C7.55366 13.0693 7.56188 12.9637 7.56188 12.9637C7.56188 12.9637 7.92361 14.1407 8.08551 14.0505C8.28571 13.9389 8.08905 13.6862 7.9935 13.3748C7.93106 13.1713 7.88455 12.9669 7.85852 12.89C7.74085 12.5437 7.84474 12.3419 8.1453 12.578C8.1453 12.578 8.24337 12.7339 8.43802 12.7892C8.74274 12.8758 8.77017 12.6883 8.52889 12.5386ZM7.49299 13.5804C7.49299 13.5804 7.50222 13.6088 7.51764 13.6529C7.50627 13.6233 7.49704 13.5981 7.49299 13.5804Z" fill="#F6BB8F"/>
<path d="M12.9321 4.69302L12.3159 5.99801L11.3264 5.24649L11.867 4.04932L12.9321 4.69302Z" fill="#D09067"/>
<path d="M14.2205 3.84029C14.0005 3.7067 14.1287 3.47616 14.2629 3.45303C14.3221 3.44279 14.3661 3.39097 14.3653 3.33094C14.3643 3.23918 14.3462 3.16132 14.3449 3.15576C14.3134 3.07727 14.2757 2.99853 14.2312 2.91979C14.0665 2.62871 13.8821 2.1871 14.013 1.84774C14.1372 1.52621 13.7489 0.777215 13.7489 0.777215C13.7489 0.777215 13.1252 0.129084 11.8841 0.654995C11.081 0.995365 10.7831 1.7594 10.728 2.39565L10.9322 3.0683C11.0224 3.16499 11.1124 3.2613 11.1886 3.36279C11.3643 3.59674 11.5218 3.84257 11.6375 4.11039C11.7484 4.19128 11.8655 4.26888 11.951 4.37455C12.0001 4.43547 11.9912 4.50814 11.956 4.55983C12.0646 4.62859 12.403 4.52824 12.5209 4.57993C12.9874 4.7843 13.6925 5.11658 13.966 4.96631C14.1715 4.85344 14.1367 4.44014 14.2165 4.23299C14.2411 4.16954 14.2759 4.10963 14.3061 4.04871C14.3145 4.03177 14.3232 4.01471 14.3316 3.99752C14.3692 3.92004 14.2943 3.88516 14.2205 3.84029Z" fill="#F6BB8F"/>
<path d="M12.0289 2.08838C12.0289 2.08838 11.6541 2.14399 11.6841 2.40259C11.7139 2.66118 11.8845 2.89336 11.9704 2.87188C12.0562 2.85039 12.0365 2.72096 12.1583 2.79907C12.1583 2.79907 12.1366 2.68709 12.0293 2.6742C11.9218 2.66131 11.8376 2.29477 12.0289 2.08838Z" fill="#D09067"/>
<path d="M11.4541 3.75499C11.4541 3.75499 11.9161 2.82754 12.1453 3.98704C12.2343 4.43699 13.1246 4.96556 13.8568 4.99981C13.8568 4.99981 12.7611 5.05568 12.6882 5.21025L11.6145 4.60926L11.4541 3.75499Z" fill="#D09067"/>
<path d="M13.5076 0.886429C13.5076 0.886429 12.309 0.988047 12.4505 1.43408C12.5919 1.88011 12.4636 1.93358 12.4505 2.12986C12.4373 2.32614 12.5503 2.76624 12.5206 2.79594C12.4909 2.82564 12.2887 2.92726 12.0389 1.99639C12.0389 1.99639 11.4423 1.95645 11.6068 2.58436C11.7714 3.21227 12.2829 2.95064 12.2829 2.95064L11.9653 3.30757C11.909 3.37076 11.8671 3.44546 11.8422 3.52635L11.5484 4.4849C11.5278 4.52585 11.468 4.52117 11.454 4.47769L11.3879 3.96177C11.3754 3.92322 11.3252 3.91374 11.2996 3.94521L11.1526 4.12532C11.1241 4.16007 11.0679 4.14402 11.0622 4.09953L10.9717 3.39945C10.9663 3.35762 10.9153 3.33992 10.8851 3.3695L10.8372 3.41652C10.8055 3.44761 10.7518 3.42625 10.7503 3.38176L10.7757 2.85673C10.7776 2.81856 10.7357 2.79417 10.7034 2.81452L10.5818 2.89111C10.5818 2.89111 10.6901 2.56742 10.6809 2.18977C10.6717 1.81211 11.3609 1.16765 11.4381 1.14035C11.5154 1.11305 12.6691 0.794922 12.6691 0.794922L13.5076 0.886429Z" fill="#68280C"/>
<path d="M9.77917 11.5716C9.21167 11.4486 8.75844 11.3503 8.75768 11.3502C8.73505 11.3453 8.61751 11.5393 8.51172 11.7232C8.59514 11.7474 8.70624 11.7736 8.7846 11.8023C8.88698 11.8398 8.98847 11.8798 9.09312 11.9101C9.22924 11.9495 9.3665 11.982 9.50452 12.0108C9.56822 11.8019 9.67414 11.6303 9.72204 11.5594C9.74087 11.5634 9.76008 11.5676 9.77917 11.5716Z" fill="#65AA5A"/>
<path d="M9.82305 11.5811L9.89939 11.6377C9.89725 11.6406 9.76656 11.8203 9.69287 12.0471C10.1373 12.1266 10.5882 12.1649 11.0378 12.202C11.2778 12.2219 12.1164 12.353 12.366 12.1965L12.0049 12.0541C12.0049 12.0541 10.7698 11.7862 9.82305 11.5811Z" fill="#65AA5A"/>
<path d="M10.0761 11.6359C10.1381 11.6493 10.2008 11.663 10.2638 11.6766C10.2141 11.8144 10.1825 11.9732 10.2141 12.1223C10.488 12.155 10.7631 12.1793 11.0378 12.2019C11.2778 12.2217 12.1164 12.3529 12.366 12.1963L12.0049 12.054C12.0049 12.054 10.7698 11.7863 9.82305 11.5811L9.89939 11.6377C9.89725 11.6406 9.76656 11.8203 9.69287 12.0471C9.80081 12.0664 9.90913 12.0831 10.0176 12.0981C9.99785 11.9377 10.0282 11.7768 10.0761 11.6359Z" fill="#65AA5A"/>
<path d="M9.82291 11.5808C9.80812 11.5776 9.79371 11.5744 9.77905 11.5713C9.79346 11.5743 9.80825 11.5775 9.82291 11.5808Z" fill="white"/>
<path d="M9.8229 11.5809C9.80836 11.5778 9.79358 11.5746 9.77904 11.5715C9.75996 11.5673 9.74075 11.5631 9.72191 11.5591C9.67401 11.6301 9.5681 11.8018 9.50439 12.0105C9.56696 12.0236 9.62977 12.0357 9.69272 12.047C9.7664 11.8202 9.89709 11.6406 9.89924 11.6376L9.8229 11.5809Z" fill="#E0DFDE"/>
<path d="M12.6053 9.32536C12.9878 8.30564 13.4909 6.46387 12.7663 5.48738C12.7621 5.48169 12.7539 5.48687 12.7505 5.49307C12.7348 5.52125 12.7791 5.78604 12.5465 5.70755C12.243 5.60505 12.1193 5.56321 11.9633 5.04236C11.9393 4.96223 11.8733 4.90206 11.7913 4.88551L11.7899 4.88525C10.7277 4.25899 9.82202 6.06284 9.56785 6.61466C8.90897 8.04515 8.73721 9.25521 8.50439 11.488C8.54016 11.5246 8.75844 11.5649 8.8871 11.6119C8.98948 11.6494 9.09097 11.6894 9.19562 11.7197C9.83011 11.9035 10.4868 11.9577 11.1401 12.0117C11.3802 12.0315 11.9876 12.1191 12.2275 12.1317C12.3382 11.8154 12.074 11.4951 12.0283 11.191C11.9255 10.5075 12.3783 9.93052 12.6053 9.32536Z" fill="#FF860D"/>
<path d="M11.5474 7.4557C11.6744 7.26105 11.8058 7.05971 11.9174 6.8561C12.2899 6.17624 11.9562 5.28835 11.9418 5.25094C11.9292 5.21846 11.8929 5.20215 11.8602 5.21466C11.8276 5.22718 11.8114 5.2637 11.8239 5.29631C11.8272 5.30491 12.1514 6.16639 11.8066 6.79531C11.6973 6.99475 11.5672 7.19407 11.4415 7.38669C11.1774 7.79139 10.9287 8.17536 10.908 8.506C10.8814 8.52231 10.8611 8.5486 10.8535 8.58133C10.8384 8.64604 10.8788 8.71076 10.9435 8.72567C11.0082 8.74071 11.0729 8.70039 11.0878 8.63568C11.0997 8.58462 11.0763 8.53457 11.0345 8.50802C11.0552 8.2124 11.2938 7.84422 11.5474 7.4557Z" fill="#E0700A"/>
<path d="M12.9175 5.95361C12.8826 5.98079 12.8477 5.98496 12.8034 5.99823C12.8476 6.30119 12.8711 6.87348 12.5888 7.28501C12.46 7.47245 12.3107 7.65774 12.1664 7.83683C11.8632 8.2131 11.5773 8.57015 11.5236 8.89713C11.4955 8.91065 11.4726 8.93479 11.4617 8.96651C11.4404 9.02946 11.474 9.09771 11.537 9.11919C11.5999 9.14055 11.6683 9.10693 11.6896 9.04412C11.7066 8.99445 11.6882 8.94237 11.6493 8.91166C11.6995 8.6197 11.9738 8.27718 12.2648 7.91608C12.4108 7.73509 12.5616 7.5479 12.693 7.35642C13.0166 6.88499 12.969 6.26327 12.9175 5.95361Z" fill="#E0700A"/>
<path d="M10.2243 6.50937C10.3751 6.13209 10.7619 5.23876 11.2937 4.75684C10.4545 4.80537 9.78132 6.15118 9.56785 6.61465C8.90897 8.04514 8.73721 9.25521 8.50439 11.488C8.54016 11.5245 8.75844 11.5649 8.8871 11.6119C8.98948 11.6494 9.09097 11.6894 9.19562 11.7197C9.22343 11.7278 9.25149 11.7342 9.27929 11.7418C9.44727 9.39082 9.60475 8.05892 10.2243 6.50937Z" fill="#E0700A"/>
<path d="M12.3658 9.34152C12.0521 9.90674 11.5195 10.4108 11.5205 11.102C11.521 11.4093 11.7349 11.7647 11.5793 12.0612C11.8233 12.0913 12.0877 12.124 12.2275 12.1315C12.3383 11.8151 12.0741 11.4948 12.0283 11.1907C11.9256 10.5072 12.3782 9.93025 12.6053 9.32509C12.7509 8.93707 12.9155 8.4281 13.0238 7.89258C12.8337 8.44149 12.5792 8.95717 12.3658 9.34152Z" fill="#E0700A"/>
<path d="M14.3857 2.73805C14.2748 2.71151 14.0279 2.19331 13.947 1.99121L13.7983 2.05213C13.8684 2.29935 14.1153 3.0812 14.2521 3.13922C14.6544 3.30972 14.9107 2.86381 14.3857 2.73805Z" fill="#EB6E25"/>
<path d="M13.6655 2.34804C13.664 2.50678 13.5669 2.63444 13.4488 2.6333C13.3306 2.63216 13.2361 2.50261 13.2376 2.34387C13.2391 2.18512 13.3362 2.05746 13.4543 2.0586C13.5725 2.05974 13.6672 2.18929 13.6655 2.34804Z" fill="#D09067"/>
<path d="M13.6663 2.28065C13.6647 2.4394 13.5677 2.56705 13.4495 2.56592C13.3313 2.56478 13.2368 2.43523 13.2383 2.27648C13.2398 2.11774 13.3369 1.99008 13.4551 1.99122C13.5731 1.99248 13.6678 2.12203 13.6663 2.28065Z" fill="#583412"/>
<path d="M13.5939 2.16532C13.5934 2.21272 13.5546 2.25089 13.5072 2.25038C13.4598 2.24988 13.4217 2.21107 13.4221 2.16368C13.4226 2.11628 13.4614 2.07824 13.5088 2.07862C13.5563 2.07912 13.5944 2.11792 13.5939 2.16532Z" fill="white"/>
<path d="M13.2302 4.95545C13.2233 4.95469 13.215 4.95431 13.2034 4.95482C13.2123 4.95507 13.2213 4.9552 13.2302 4.95545Z" fill="#D09067"/>
<path d="M7.55438 11.1392L6.59811 11.4314C6.58901 11.4743 6.58244 11.5198 6.57764 11.5668C6.81955 11.4936 7.40461 11.3436 7.65588 11.2722C7.62415 11.2255 7.56361 11.1364 7.55438 11.1392Z" fill="#D09067"/>
<path d="M11.6143 5.24435C11.5359 5.04959 11.3553 4.91498 11.1468 4.89097C10.7513 4.84559 10.0095 4.8801 9.03365 5.46326C8.93835 5.52027 6.5861 6.71617 6.11289 7.05364C5.89222 7.21099 5.78112 7.47995 5.82599 7.74727C5.96868 8.59725 6.2547 10.5617 6.45731 11.4878C6.57144 11.4377 7.49144 11.2057 7.70617 11.1393C7.67496 10.4744 7.4405 9.08183 7.39513 8.36191C7.38552 8.21049 7.48929 8.07538 7.6383 8.04694C7.96148 7.98539 9.16068 7.40867 9.1608 7.40892C9.46376 7.21933 10.0396 6.98867 10.4692 6.83233C11.214 6.56097 11.953 6.08586 11.6143 5.24435Z" fill="#FF860D"/>
<path d="M9.78796 5.76234C9.76761 5.77347 9.61721 5.84602 9.44317 5.92981C8.72299 6.27688 7.22438 6.99908 6.84369 7.25413C6.57385 7.43487 6.43229 7.74908 6.474 8.0739C6.50547 8.31784 6.54503 8.65302 6.58952 9.02916C6.67888 9.78523 6.78555 10.6868 6.8854 11.3625C6.97476 11.3383 7.06942 11.3129 7.16295 11.288C7.06525 10.6211 6.96073 9.73809 6.87301 8.9958C6.8284 8.61852 6.78871 8.28219 6.75724 8.03763C6.72943 7.82087 6.82334 7.61157 7.00269 7.49137C7.36657 7.24756 8.90866 6.50438 9.56716 6.18714C9.80528 6.07238 9.90285 6.02524 9.92687 6.01184C10.6965 5.58236 11.3028 5.49983 11.6879 5.51007C11.6754 5.42577 11.6517 5.33754 11.6143 5.24465C11.6113 5.23706 11.607 5.23011 11.6037 5.22266C11.1523 5.2248 10.5388 5.34336 9.78796 5.76234Z" fill="#7AC371"/>
<path d="M10.8799 1.72206L11.0294 0.736338C11.0294 0.736338 12.208 0.0253906 12.2721 0.0253906C12.3363 0.0253906 13.6198 0.398748 13.6653 0.449052C13.7108 0.499355 14.3652 1.03652 14.3652 1.03652L12.1582 1.16291L10.8799 1.72206Z" fill="#68280C"/>
<path d="M12.5995 0.188908C12.5995 0.188908 10.8093 0.568206 11.9291 3.84324C11.9553 3.91983 11.9694 4.00098 11.9689 4.08187L11.9632 5.04218L10.8984 4.87585C10.8984 4.87585 8.13877 2.21053 9.68428 1.07276C10.6649 0.350814 12.058 -0.117084 12.6224 0.0256109C13.081 0.141511 12.5995 0.188908 12.5995 0.188908Z" fill="#FF860D"/>
<path d="M9.59357 1.14893C8.25838 2.32449 10.8986 4.87593 10.8986 4.87593L11.1997 4.92295C11.0606 4.76572 9.1416 2.56223 9.59357 1.14893Z" fill="#E0700A"/>
<path d="M11.9651 7.32483C12.0448 7.10643 12.1274 6.8807 12.1902 6.65711C12.3995 5.91077 11.874 5.12121 11.8513 5.08784C11.8318 5.05903 11.7927 5.05132 11.7636 5.07091C11.7347 5.0905 11.7271 5.12968 11.7467 5.15862C11.7519 5.16633 12.2622 5.93226 12.0685 6.62286C12.0071 6.84177 11.9254 7.06535 11.8464 7.28135C11.6806 7.73522 11.525 8.16546 11.5796 8.49218C11.5574 8.51404 11.5435 8.54425 11.5435 8.57787C11.5435 8.64435 11.5973 8.69819 11.6638 8.69819C11.7303 8.69819 11.7841 8.64435 11.7841 8.57787C11.7841 8.52542 11.7501 8.48194 11.7032 8.46551C11.6567 8.17304 11.8058 7.7605 11.9651 7.32483Z" fill="#7AC371"/>
<path d="M12.8803 5.85645C12.8525 5.8907 12.8176 5.91926 12.7774 5.94226C12.889 6.2274 13.043 6.76305 12.8609 7.22778C12.7778 7.43949 12.6742 7.65372 12.574 7.86075C12.3635 8.29579 12.1657 8.7082 12.1872 9.03884C12.1629 9.0583 12.1461 9.08699 12.1427 9.12048C12.136 9.18659 12.1843 9.24561 12.2504 9.25218C12.3165 9.25888 12.3755 9.2106 12.3821 9.1445C12.3874 9.0923 12.3578 9.04566 12.3128 9.02455C12.2958 8.7288 12.4855 8.3332 12.6876 7.91573C12.7888 7.70643 12.8935 7.49004 12.9783 7.27379C13.1872 6.74131 13.0004 6.14639 12.8803 5.85645Z" fill="#7AC371"/>
<path d="M13.5595 1.90408C13.2237 1.90408 12.8749 1.50405 12.8571 1.48332C12.8343 1.45691 12.8373 1.41697 12.8638 1.39422C12.8901 1.37147 12.93 1.37437 12.9529 1.40092C12.9575 1.40635 13.4204 1.9377 13.7107 1.72903C13.7391 1.7088 13.7786 1.71512 13.7989 1.74343C13.8193 1.77175 13.8128 1.81131 13.7845 1.83165C13.713 1.88297 13.6366 1.90408 13.5595 1.90408Z" fill="#68280C"/>
</svg>
