<svg width="22" height="24" viewBox="0 0 22 24" fill="none" xmlns="http://www.w3.org/2000/svg">
<mask id="mask0_131_8779" style="mask-type:luminance" maskUnits="userSpaceOnUse" x="0" y="2" width="22" height="22">
<path d="M10.5182 23.59C16.3272 23.59 21.0363 18.8809 21.0363 13.0719C21.0363 7.26285 16.3272 2.55371 10.5182 2.55371C4.70914 2.55371 0 7.26285 0 13.0719C0 18.8809 4.70914 23.59 10.5182 23.59Z" fill="white"/>
</mask>
<g mask="url(#mask0_131_8779)">
<path d="M17.3794 12.2322L17.3229 12.2016C17.2844 12.1813 13.4914 10.1497 12.5906 9.9691C11.8405 9.81909 10.1187 9.85452 9.29131 9.87223C9.10511 9.876 8.96 9.87902 8.87594 9.87902C8.3049 9.87902 7.82921 9.99436 7.77041 10.1466C7.74478 10.213 7.80773 10.3653 8.05989 10.5948C8.81224 11.2789 10.2751 11.3856 10.9777 11.4369C11.2491 11.4568 11.3833 11.4678 11.4643 11.4945C11.7764 11.5982 12.3663 12.2597 12.4813 12.3912L12.7123 12.6551L2.94951 13.6585C2.70112 13.6841 2.52132 13.8993 2.54017 14.1485C2.55864 14.3863 2.75841 14.5703 2.99625 14.5703C2.99889 14.5703 3.00077 14.5703 3.00303 14.5703L10.3558 14.4591L2.08861 16.3083C1.9842 16.3316 1.89675 16.3946 1.84134 16.4862C1.78594 16.5778 1.77162 16.6848 1.79951 16.7881C1.84851 16.9683 2.02227 17.0855 2.20546 17.0723L8.39083 16.5495L8.45717 16.9042L2.92802 18.5205C2.70451 18.586 2.57371 18.8141 2.63025 19.0399C2.68491 19.2585 2.90088 19.3979 3.12289 19.3606L8.46847 18.4274L8.56196 18.7764L5.34903 19.952C5.26045 19.9844 5.24085 20.0602 5.2367 20.0911C5.23256 20.1224 5.23105 20.2004 5.30757 20.2551C5.34338 20.2807 5.38295 20.292 5.42404 20.2871C6.3166 20.194 10.8058 19.7206 11.5548 19.554C12.3738 19.3719 16.6388 17.6121 16.6821 17.5943L16.7473 17.5804L25.322 17.3938L23.3677 11.0871C23.3609 11.0893 23.3556 11.0935 23.3488 11.095L17.3794 12.2322Z" fill="#D66E00"/>
<path d="M4.09546 17.8018L5.89152 17.2768C5.93223 17.2169 5.96879 17.1626 6.00008 17.1162L4.36949 17.2542L4.09546 17.8018Z" fill="#D66E00"/>
<path d="M6.0653 17.1106L6.02271 17.2384L6.62052 17.0635L6.0653 17.1106Z" fill="#D66E00"/>
<path d="M3.55458 14.9257C3.40984 15.1432 3.29374 15.3174 3.21986 15.4278C3.15767 15.5209 3.10113 15.6204 3.04761 15.7226L6.83271 14.876L3.55458 14.9257Z" fill="#D66E00"/>
<path d="M5.00126 15.9904L4.5595 16.8739L8.39134 16.5501L8.45768 16.9048L5.88364 17.6571L5.45131 18.9545L7.40945 18.6126C7.96165 18.0559 8.47125 17.4905 8.47125 17.4905C8.47125 17.4905 8.01253 18.0646 7.75433 18.5527L8.46975 18.4279L8.56322 18.777L7.59942 19.1294C7.60658 19.1475 7.61374 19.1652 7.62731 19.1784C7.9085 19.4596 8.3774 19.7412 8.65859 19.4596C8.93978 19.1784 11.1904 16.2715 11.6589 15.9904C12.1278 15.7092 13.628 14.8652 14.9408 13.7401C15.2556 13.4706 15.911 12.7786 16.7233 11.8856C15.6099 11.3025 13.2726 10.1065 12.5903 9.97008C11.8402 9.82006 10.1184 9.85549 9.29106 9.87321C9.10486 9.87698 8.95975 9.87999 8.87569 9.87999C8.30465 9.87999 7.82897 9.99533 7.77017 10.1476C7.74454 10.214 7.80748 10.3662 8.05964 10.5958C8.81199 11.2799 10.2748 11.3866 10.9774 11.4378C11.2488 11.4578 11.383 11.4687 11.4641 11.4955C11.7762 11.5992 12.366 12.2607 12.481 12.3922L12.7121 12.6561L4.50522 13.4996C4.24966 13.883 4.0073 14.2463 3.79886 14.5595L10.3559 14.4604L2.85918 16.137C2.7314 16.4596 2.64056 16.7819 2.57837 17.0416L4.10756 16.9123C4.55535 16.4363 5.00126 15.9904 5.00126 15.9904Z" fill="#D66E00"/>
<path d="M3.21956 17.9596C3.28025 17.8382 3.48907 17.5887 3.74274 17.3071L2.49888 17.4123C2.4789 17.519 2.46948 17.5845 2.46948 17.5845C2.46948 17.5845 3.03185 18.3346 3.21956 17.9596Z" fill="#D66E00"/>
<path d="M4.90782 10.2707C5.56405 10.083 6.78304 10.083 6.78304 10.083C6.78304 10.083 5.73857 11.6499 4.7661 13.1082L11.9665 12.3679C11.717 12.109 11.4581 11.8753 11.3499 11.8398C11.3062 11.8255 11.1177 11.8119 10.9511 11.7999C10.1509 11.7411 8.66051 11.6321 7.8162 10.8643C7.68578 10.746 7.28925 10.3856 7.43211 10.017C7.59984 9.58241 8.40873 9.51758 8.87574 9.51758C8.95866 9.51758 9.10077 9.51494 9.28358 9.5108C10.1241 9.49346 11.8716 9.45689 12.6616 9.61445C13.4143 9.76522 15.8881 11.037 16.9752 11.608C19.5635 8.74563 23.4734 4.17614 23.4734 4.17614L17.1911 1.83203C16.9099 1.83203 14.0031 7.5519 14.0031 7.5519C14.0031 7.5519 8.93982 6.80182 8.28321 6.89567C7.62698 6.98953 4.72011 8.58355 4.06388 8.86474C3.40765 9.14593 2.65719 9.42749 3.03261 9.80254C3.40728 10.1768 4.25122 10.458 4.90782 10.2707Z" fill="#D66E00"/>
<path d="M6.27803 19.6123L6.01758 19.7077C6.08052 19.7016 6.14799 19.6832 6.22036 19.647C6.23732 19.6383 6.25881 19.6236 6.27803 19.6123Z" fill="#D66E00"/>
<path d="M6.52792 19.1348L5.44727 19.3232C5.47629 19.3741 5.51474 19.4318 5.56185 19.4879L6.52792 19.1348Z" fill="#D66E00"/>
<path d="M5.56949 17.749L3.87444 18.2447L3.78247 18.4286C3.78247 18.4286 3.83977 18.919 3.98865 19.2104L4.59927 19.1037C4.87782 18.743 5.25739 18.2025 5.56949 17.749Z" fill="#D66E00"/>
</g>
<path d="M7.44229 6.81214C7.44229 6.81214 6.1076 3.96521 5.11289 4.94258C4.059 5.978 7.44229 6.81214 7.44229 6.81214Z" fill="#D66E00"/>
<path d="M11.5312 6.81214C11.5312 6.81214 12.866 3.96521 13.8607 4.94258C14.9146 5.978 11.5312 6.81214 11.5312 6.81214Z" fill="#D66E00"/>
<path d="M8.09391 6.60565C7.99364 6.60565 7.9126 6.52461 7.9126 6.42435V0.181303C7.9126 0.0810404 7.99364 0 8.09391 0C8.19417 0 8.2752 0.0810404 8.2752 0.181303V6.42435C8.2752 6.52461 8.19417 6.60565 8.09391 6.60565Z" fill="#D66E00"/>
<path d="M9.41813 8.87571C9.31786 8.87571 9.23682 8.79468 9.23682 8.69441V7.37027C9.23682 7.27001 9.31786 7.18896 9.41813 7.18896C9.51839 7.18896 9.59942 7.27001 9.59942 7.37027V8.69441C9.59942 8.79468 9.51839 8.87571 9.41813 8.87571Z" fill="white"/>
<path d="M9.41813 7.55183C9.31786 7.55183 9.23682 7.47079 9.23682 7.37053V3.96499C9.23682 3.86473 9.31786 3.78369 9.41813 3.78369C9.51839 3.78369 9.59942 3.86473 9.59942 3.96499V7.37053C9.59942 7.47042 9.51839 7.55183 9.41813 7.55183Z" fill="#D66E00"/>
<path d="M11.0268 8.30851C10.9265 8.30851 10.8455 8.22747 10.8455 8.12721V2.54605C10.8455 2.44578 10.9265 2.36475 11.0268 2.36475C11.127 2.36475 11.2081 2.44578 11.2081 2.54605V8.12683C11.2081 8.22709 11.127 8.30851 11.0268 8.30851Z" fill="#D66E00"/>
<path d="M11.0268 2.15989C10.9265 2.15989 10.8455 2.07885 10.8455 1.97859V0.560209C10.8455 0.459947 10.9265 0.378906 11.0268 0.378906C11.127 0.378906 11.2081 0.459947 11.2081 0.560209V1.97859C11.2081 2.07847 11.127 2.15989 11.0268 2.15989Z" fill="#D66E00"/>
<path d="M6.39161 10.965C6.39161 10.965 5.35092 10.3973 4.02677 10.8704C2.70262 11.3434 3.2699 12.2891 4.12138 12.0999C4.97285 11.9111 6.39161 10.965 6.39161 10.965Z" fill="#D66E00"/>
<path d="M6.86441 13.0378C6.76415 13.0378 6.68311 12.9568 6.68311 12.8565V11.154C6.68311 11.0537 6.76415 10.9727 6.86441 10.9727C6.96467 10.9727 7.04571 11.0537 7.04571 11.154V12.8565C7.04571 12.9568 6.96467 13.0378 6.86441 13.0378Z" fill="white"/>
</svg>
