<svg width="25" height="20" viewBox="0 0 25 20" fill="none" xmlns="http://www.w3.org/2000/svg">
<path d="M5.49717 8.72875C4.07026 7.77748 2.94486 6.40964 2.28567 4.82653C2.25868 4.76172 2.36306 4.73103 2.38969 4.79505C3.03718 6.35003 4.1482 7.69927 5.54965 8.63357C5.60743 8.67211 5.55559 8.76771 5.49717 8.72875Z" fill="#1F3F5C"/>
<path d="M2.61148 5.40407C2.61148 5.40407 -0.00159201 5.95223 7.27819e-07 5.75825C0.00157305 5.56426 0.603303 5.42389 0.603303 5.42389C0.603303 5.42389 0.0918692 5.24949 0.199808 5.11086C0.307747 4.97223 0.854466 5.15543 0.854466 5.15543C0.854466 5.15543 0.500836 4.88389 0.616432 4.80691C0.732049 4.72991 2.61148 5.40407 2.61148 5.40407Z" fill="#E99892"/>
<path d="M2.60938 5.40372C2.60938 5.40372 4.23573 3.69989 4.13155 3.5105C4.06957 3.3978 3.59273 3.76278 3.59273 3.76278C3.59273 3.76278 3.77824 3.32407 3.65042 3.29956C3.52259 3.27504 3.26759 3.87185 3.26759 3.87185C3.26759 3.87185 3.35515 3.53319 3.23232 3.51952C2.99931 3.49361 2.60938 5.40372 2.60938 5.40372Z" fill="#E99892"/>
<path d="M3.02382 6.16365C2.43398 5.80263 1.65631 5.77096 1.03906 6.08283C1.44689 6.25588 1.83084 6.38859 2.2699 6.44781C2.41162 6.46692 2.5568 6.47979 2.69672 6.45036C2.83666 6.42094 2.95372 6.28831 3.02382 6.16365Z" fill="#F8AE6E"/>
<path d="M3.21094 6.43436C3.21128 6.10599 3.31741 5.77856 3.50976 5.51243C3.70211 5.2463 3.97972 5.0428 4.29141 4.93945C4.23207 5.58374 3.8121 6.19513 3.21094 6.43436Z" fill="#F8AE6E"/>
<path d="M2.57128 5.32432C2.57128 5.32432 0.172859 4.10957 0.379855 3.89839C0.586829 3.6872 1.176 4.08896 1.176 4.08896C1.176 4.08896 0.80285 3.50055 1.01411 3.36488C1.22536 3.22921 1.647 3.8814 1.647 3.8814C1.647 3.8814 1.39078 3.25392 1.61335 3.19548C1.83593 3.13701 2.06389 3.61621 2.06389 3.61621C2.06389 3.61621 2.00135 3.16172 2.29131 3.16407C2.58127 3.16642 2.77503 4.66544 2.6177 5.33547" fill="#E99892"/>
<path d="M0.127914 6.23614C-0.052719 6.98416 0.356126 8.12213 1.22883 9.10675C2.1015 10.0914 3.18214 10.6339 3.94645 10.5444C4.12708 9.79637 3.71822 8.65839 2.84554 7.67379C1.97286 6.68917 0.892226 6.14662 0.127914 6.23614Z" fill="#1F3F5C"/>
<path d="M2.82087 7.99931C2.82264 7.96977 2.80012 7.94436 2.77057 7.94259C2.74103 7.94081 2.71562 7.96331 2.71385 7.99286L2.65277 9.00635L2.26265 8.56621L2.32722 7.49489C2.329 7.46532 2.30647 7.43991 2.27695 7.43814C2.2474 7.43636 2.222 7.45886 2.2202 7.48843L2.16208 8.45273L1.77196 8.01261L1.82604 7.11532C1.82781 7.08578 1.80529 7.06037 1.77574 7.05857C1.74619 7.0568 1.72079 7.07932 1.719 7.10887L1.67138 7.89914L1.28126 7.45899L1.32665 6.7055C1.32845 6.67595 1.30592 6.65055 1.27636 6.64875C1.24681 6.64697 1.22141 6.6695 1.21963 6.69905L1.18069 7.34553L0.79057 6.90539L0.80952 6.5908C0.811317 6.56123 0.788794 6.53583 0.759246 6.53407C0.729699 6.5323 0.704297 6.5548 0.70252 6.58435L0.690003 6.79191L0.459382 6.53172C0.439738 6.50957 0.405862 6.50753 0.383707 6.52715C0.361551 6.54679 0.359509 6.58067 0.379153 6.60283L0.897774 7.18798L0.345889 7.15471C0.316342 7.15293 0.290939 7.17546 0.289163 7.20501C0.287366 7.23457 0.309889 7.25997 0.339457 7.26175L0.998362 7.30145L1.38848 7.7416L0.549025 7.69102C0.519478 7.68924 0.494075 7.71174 0.492299 7.74131C0.490502 7.77086 0.513025 7.79626 0.542593 7.79804L1.48905 7.85507L1.87917 8.29522L0.858098 8.23369C0.828551 8.23191 0.803149 8.25444 0.801352 8.28399C0.799575 8.31353 0.822098 8.33894 0.851646 8.34073L1.97974 8.40871L2.36986 8.84886L1.24285 8.78094C1.2133 8.77917 1.1879 8.80167 1.1861 8.83124C1.18432 8.86078 1.20683 8.88618 1.2364 8.88798L2.47042 8.96233L2.86054 9.40248L1.83947 9.34095C1.80992 9.33918 1.78452 9.36168 1.78275 9.39125C1.78097 9.42079 1.80349 9.4462 1.83304 9.44799L2.96113 9.51597L3.35125 9.95612L2.79938 9.92286C2.76984 9.92108 2.74442 9.9436 2.74264 9.97315C2.74084 10.0027 2.76336 10.0281 2.79293 10.0299L3.45184 10.0696L4.53939 11.2966C4.55902 11.3188 4.59291 11.3208 4.61507 11.3012C4.63723 11.2815 4.63927 11.2477 4.61962 11.2255L3.63165 10.1108L3.68001 9.30814C3.6818 9.27859 3.65928 9.25319 3.62973 9.25139C3.60019 9.24961 3.57476 9.27214 3.57299 9.30169L3.53107 9.99735L3.24407 9.67355L3.31 8.5795C3.31178 8.54995 3.28928 8.52455 3.25971 8.52277C3.23016 8.52102 3.20476 8.54352 3.20296 8.57307L3.14348 9.56008L2.75336 9.11993L2.82087 7.99931Z" fill="#E99892"/>
<path d="M10.8672 6.68571C10.8781 6.62862 10.89 6.57183 10.9028 6.51535C10.9071 6.49655 10.9115 6.47778 10.916 6.45899C11.3224 4.75145 12.5458 3.31804 12.8422 3.26263C12.8527 3.26069 12.862 3.26048 12.8701 3.26197C12.8779 3.26344 12.8852 3.26532 12.8922 3.26742C13.0449 3.31349 12.9978 3.50356 12.9589 3.60776C13.2947 2.86883 14.2176 2.17572 14.461 2.21515C14.6829 2.25119 14.3668 2.59872 14.2907 2.67878C14.2868 2.68283 14.2836 2.68611 14.2811 2.68873C14.2843 2.68544 14.2875 2.68221 14.2909 2.67897C14.7806 2.19292 15.7807 1.86587 16.3862 1.70331C16.4531 1.68536 16.5129 1.70909 16.5511 1.75191C16.5614 1.7633 16.57 1.77611 16.5769 1.78983L16.5768 1.78991C16.6033 1.84288 16.6021 1.90978 16.5573 1.96552C16.393 2.16978 16.1203 2.44018 15.8644 2.88894C15.3682 3.75866 14.9903 4.0212 14.9903 4.0212C16.3099 3.80959 14.3038 4.99737 14.0815 5.1273C14.0686 5.13481 14.0618 5.13877 14.0618 5.13877C14.0692 5.14139 14.0763 5.14402 14.0831 5.1468C14.7423 5.40923 13.1095 6.31236 13.1095 6.31236C12.7712 7.29602 10.8672 6.68571 10.8672 6.68571Z" fill="#1F3F5C"/>
<path d="M10.7734 6.74393C10.7777 6.72512 10.7821 6.70634 10.7866 6.68757C10.9146 6.62766 11.2051 6.4829 11.5953 6.23629C11.7272 6.1529 11.8782 6.05276 12.0439 5.93547C12.0403 5.93208 12.0377 5.92742 12.037 5.92207C12.0365 5.91919 11.9967 5.62411 12.0613 5.17769C12.0983 4.92259 12.175 4.58378 12.3323 4.20598C12.427 3.97866 12.5508 3.73716 12.7128 3.4912C12.7234 3.48924 12.7327 3.48904 12.7407 3.49053C12.7485 3.492 12.7559 3.49388 12.7628 3.49598C12.7623 3.49852 12.7612 3.50094 12.7597 3.50319C12.3271 4.15501 12.1659 4.7761 12.1069 5.18241C12.0482 5.58599 12.076 5.86312 12.0813 5.90888C12.3709 5.70209 12.7035 5.44354 13.0578 5.12924C13.0703 5.08476 13.1416 4.83883 13.2962 4.46768C13.4642 4.06422 13.7305 3.51293 14.1264 2.9112C14.1332 2.90068 14.1474 2.89779 14.158 2.90469C14.1592 2.9055 14.1603 2.90636 14.1613 2.90734C14.1613 2.90746 14.1614 2.90751 14.1615 2.90755C14.169 2.91512 14.1706 2.92715 14.1644 2.93636C13.4993 3.94744 13.2019 4.81489 13.1226 5.07137C13.2902 4.92061 13.4622 4.75748 13.6366 4.58164C15.1007 3.10458 16.3041 2.07999 16.4217 1.98047C16.432 1.99186 16.4407 2.00467 16.4475 2.01841L16.4475 2.01849C16.3108 2.13433 15.1179 3.15219 13.669 4.61384C13.474 4.81054 13.2818 4.99126 13.0956 5.15676C13.0941 5.15862 13.0923 5.16015 13.0902 5.16146C12.8341 5.38873 12.5893 5.58703 12.3635 5.7579C12.5792 5.73285 13.2052 5.63973 13.9238 5.34614C13.9345 5.34179 13.9465 5.34611 13.9521 5.35585C13.9526 5.35667 13.9531 5.35767 13.9535 5.35861C13.9558 5.36423 13.9557 5.37023 13.9537 5.37536C13.9515 5.38116 13.9471 5.38593 13.941 5.38845C13.0888 5.7366 12.3648 5.80503 12.2927 5.81111C12.0372 6.00151 11.8083 6.1557 11.6185 6.27564C11.5184 6.33894 11.4247 6.39559 11.3387 6.44582C11.4904 6.4818 11.9835 6.57022 12.9165 6.48811C12.929 6.48701 12.9401 6.49628 12.9412 6.50888C12.9423 6.52142 12.933 6.53248 12.9205 6.53361C11.8427 6.62852 11.3572 6.50091 11.2822 6.47841C11.0298 6.62313 10.8502 6.70899 10.7734 6.74393Z" fill="white"/>
<path d="M12.778 0L12.7772 0.000102199L12.7755 0.000306596L12.7735 0.000550875C12.7615 0.00198026 12.7282 0.00622737 12.6765 0.0156613C12.4168 0.0623409 11.694 0.233459 10.9063 0.779504C10.88 0.797719 10.8535 0.816505 10.827 0.835617C10.219 1.2746 9.58085 1.93967 9.09294 2.94481C9.07522 2.98132 9.05768 3.01825 9.04036 3.05576C8.69004 3.81257 8.42442 4.75513 8.31544 5.92875C8.31436 5.93896 8.31348 5.9493 8.3125 5.95965C8.3125 5.95965 8.33282 5.96447 8.37008 5.97123C8.73523 6.03802 10.7274 6.296 11.1719 4.08309C11.1812 4.03703 11.1904 3.99168 11.1997 3.94677C11.205 3.9207 11.2104 3.89476 11.2157 3.86916C11.6911 1.59307 12.1702 0.751712 12.7778 0.000285408C12.7779 0.000203729 12.778 0 12.778 0Z" fill="#F8AE6E"/>
<path d="M12.7781 0L12.7773 0.000102199L12.7756 0.000306596L12.7736 0.000550875L12.6766 0.0156613C12.5453 0.139568 12.226 0.454645 11.8567 0.918011C11.5894 1.2532 11.2622 1.70971 10.9596 2.25728C10.9568 2.26032 10.9549 2.26398 10.9536 2.26798C10.8507 2.45492 10.7506 2.65222 10.6569 2.85897C10.6501 2.49736 10.6544 1.43914 10.9044 0.791225C10.906 0.787406 10.9065 0.783404 10.9063 0.779524L10.827 0.835637C10.7665 1.00896 10.7216 1.20675 10.6884 1.41027C10.5726 2.12178 10.5996 2.90539 10.6026 2.98131C10.5348 3.1377 10.4707 3.29902 10.4119 3.46503C10.0899 4.37418 9.64773 4.95232 9.27966 5.30597C9.25016 5.24451 9.18745 5.09183 9.13674 4.82098C9.07369 4.48355 9.01706 3.8888 9.10607 2.97181C9.10707 2.96066 9.10174 2.95047 9.09296 2.94486L9.04038 3.0558C8.96267 3.93289 9.0189 4.50695 9.08134 4.83752C9.13797 5.13778 9.20844 5.2944 9.23582 5.34749C9.18197 5.39747 9.12998 5.44254 9.08036 5.48307C8.69335 5.79981 8.37629 5.90968 8.31544 5.92882C8.31436 5.93903 8.31348 5.94936 8.3125 5.95971C8.3125 5.95971 8.33282 5.96453 8.37008 5.97129C8.48156 5.93184 8.76762 5.81261 9.11385 5.53004C9.16952 5.48464 9.22822 5.43335 9.28905 5.37632C9.29089 5.37499 9.29244 5.37348 9.29387 5.37185C9.4926 5.18464 9.71397 4.93282 9.92768 4.59975C10.0203 4.57588 10.7413 4.38067 11.1997 3.94683C11.205 3.92076 11.2104 3.89482 11.2157 3.86922C11.2065 3.86713 11.1965 3.86971 11.1893 3.87694C10.7967 4.26775 10.1781 4.46911 9.97299 4.52773C10.1501 4.24037 10.3204 3.89581 10.4661 3.48427C10.6177 3.05621 10.8043 2.65867 11.0017 2.3C11.0636 2.28011 11.3543 2.18461 11.6589 2.05535C11.6735 2.04912 11.6804 2.03226 11.6741 2.01759C11.6679 2.00293 11.651 1.99611 11.6363 2.00236C11.392 2.10611 11.1566 2.18788 11.0429 2.2258C11.3341 1.70854 11.645 1.27587 11.9007 0.954992C12.373 0.362492 12.762 0.0143756 12.7778 0.000367665C12.7779 0.000204307 12.7781 0 12.7781 0Z" fill="#1F3F5C"/>
<path opacity="0.5" d="M13.1809 20.0088C19.7054 20.0088 24.9946 19.5255 24.9946 18.9292C24.9946 18.333 19.7054 17.8496 13.1809 17.8496C6.65636 17.8496 1.36719 18.333 1.36719 18.9292C1.36719 19.5255 6.65636 20.0088 13.1809 20.0088Z" fill="#F7DAD7"/>
<path d="M4.38591 3.28243C4.15468 4.88801 4.434 6.25681 5.00978 6.33974C5.58556 6.42266 6.23978 5.1883 6.471 3.58272C6.70223 1.97713 6.42293 0.608336 5.84713 0.525431C5.27136 0.442486 4.61715 1.67684 4.38591 3.28243Z" fill="black"/>
<path d="M2.39062 8.56422L5.91883 8.55664V12.3266H3.10285L2.39062 8.56422Z" fill="#1F3F5C"/>
<path d="M4.65233 18.3322H5.33584C5.35526 18.3322 5.37098 18.3164 5.37098 18.297V16.6895H4.61719V18.297C4.61719 18.3164 4.63293 18.3322 4.65233 18.3322Z" fill="black"/>
<path d="M3.68189 16.3379L22.8359 16.3379V11.3359L3.68189 11.3359V16.3379Z" fill="#1F3F5C"/>
<path d="M6.39188 6.45508H11.3818H16.2511H20.1943C20.73 6.45508 21.1643 6.88937 21.1643 7.42508V13.4556C21.1643 13.9913 20.73 14.4256 20.1943 14.4256H16.2511H11.3818H6.39188C5.85616 14.4256 5.42188 13.9913 5.42188 13.4556V7.42508C5.42188 6.88937 5.85614 6.45508 6.39188 6.45508Z" fill="#285C77"/>
<path d="M3.74655 17.222H5.57992L3.84949 9.69189C3.67563 8.91255 2.90289 8.42167 2.12353 8.59555C1.34417 8.7694 0.853316 9.54215 1.02719 10.3215L2.3615 16.3028C2.50064 16.9264 2.94994 17.2638 3.74655 17.222Z" fill="#285C77"/>
<path d="M11.3755 15.2441H16.2449H21.8315V17.2243H16.2449H11.3755H4.74219V15.2441H11.3755Z" fill="#285C77"/>
<path d="M5.14437 17.2227H5.61719V14.2804H5.14437V17.2227Z" fill="#1F3F5C"/>
<path d="M11.4693 12.125H16.3386H21.0332C21.5259 12.125 21.9252 12.447 21.9252 12.8441V13.9267C21.9252 14.3239 21.5259 14.6458 21.0332 14.6458H16.3386H11.4693H5.72793C5.23531 14.6458 4.83594 14.3239 4.83594 13.9267V12.8441C4.83594 12.447 5.23531 12.125 5.72793 12.125H11.4693Z" fill="#2D647C"/>
<path d="M16.2555 9.15234L17.2428 10.1394C17.5513 10.4478 18.0177 10.5647 18.4202 10.3965C18.4497 10.3842 18.4795 10.3703 18.5096 10.3548C19.0248 10.0881 19.7024 9.67058 19.9142 9.94516C19.9831 10.0345 19.9665 10.1629 19.8939 10.2492C19.6882 10.4934 19.0788 11.1591 17.7577 12.2068C17.7577 12.2068 17.3963 12.5096 16.9727 11.9471C16.5491 11.3847 14.9453 9.88868 14.9453 9.88868L16.2555 9.15234Z" fill="white"/>
<mask id="mask0_1661_6155" style="mask-type:luminance" maskUnits="userSpaceOnUse" x="14" y="9" width="6" height="4">
<path d="M16.2555 9.15234L17.2428 10.1394C17.5513 10.4478 18.0177 10.5647 18.4202 10.3965C18.4497 10.3842 18.4795 10.3703 18.5096 10.3548C19.0248 10.0881 19.7024 9.67058 19.9142 9.94516C19.9831 10.0345 19.9665 10.1629 19.8939 10.2492C19.6882 10.4934 19.0788 11.1591 17.7577 12.2068C17.7577 12.2068 17.3963 12.5096 16.9727 11.9471C16.5491 11.3847 14.9453 9.88868 14.9453 9.88868L16.2555 9.15234Z" fill="white"/>
</mask>
<g mask="url(#mask0_1661_6155)">
<path d="M19.38 10.3455C19.5958 10.5778 19.9589 10.5912 20.1912 10.3754C20.4235 10.1597 20.4368 9.79649 20.2211 9.56422C20.0054 9.33195 19.6422 9.31855 19.4099 9.53431C19.1777 9.75006 19.1642 10.1132 19.38 10.3455Z" fill="#BFD0E0"/>
</g>
<mask id="mask1_1661_6155" style="mask-type:luminance" maskUnits="userSpaceOnUse" x="14" y="9" width="6" height="4">
<path d="M16.2555 9.15234L17.2428 10.1394C17.5513 10.4478 18.0177 10.5647 18.4202 10.3965C18.4497 10.3842 18.4795 10.3703 18.5096 10.3548C19.0248 10.0881 19.7024 9.67058 19.9142 9.94516C19.9831 10.0345 19.9665 10.1629 19.8939 10.2492C19.6882 10.4934 19.0788 11.1591 17.7577 12.2068C17.7577 12.2068 17.3963 12.5096 16.9727 11.9471C16.5491 11.3847 14.9453 9.88868 14.9453 9.88868L16.2555 9.15234Z" fill="white"/>
</mask>
<g mask="url(#mask1_1661_6155)">
<path d="M17.005 12.4685C17.2207 12.7008 17.5839 12.7142 17.8162 12.4985C18.0485 12.2827 18.0619 11.9195 17.8461 11.6873C17.6304 11.455 17.2672 11.4416 17.0349 11.6574C16.8026 11.8731 16.7893 12.2363 17.005 12.4685Z" fill="#BFD0E0"/>
</g>
<path d="M7.33594 9.01748L9.36632 7.88511L12.8927 6.90781C12.8927 6.90781 13.8057 6.52155 14.8942 7.53987L17.1879 9.68745L15.3212 11.1974L13.3605 9.58211L11.9419 10.3897L7.33594 9.01748Z" fill="#F8AE6E"/>
<path d="M13.3907 9.6188L13.8967 9.18909L13.8342 9.11523L13.3281 9.54495L13.3907 9.6188Z" fill="black"/>
<path d="M13.7479 15.6103L13.7408 16.9811C13.7795 17.4289 13.9512 17.8613 14.316 18.1005C14.3428 18.118 14.371 18.1349 14.4007 18.1511C14.9101 18.4284 15.6357 18.7559 15.5269 19.0852C15.4915 19.1923 15.3757 19.2505 15.2636 19.2386C14.9461 19.205 14.0533 19.0732 12.4454 18.5658C12.4454 18.5658 11.9921 18.436 12.2207 17.77C12.4493 17.1041 12.404 14.9375 12.404 14.9375L13.7479 15.6103Z" fill="white"/>
<mask id="mask2_1661_6155" style="mask-type:luminance" maskUnits="userSpaceOnUse" x="12" y="14" width="4" height="6">
<path d="M13.7479 15.6123L13.7408 16.983C13.7795 17.4308 13.9512 17.8632 14.316 18.1024C14.3428 18.1199 14.371 18.1368 14.4007 18.153C14.9101 18.4304 15.6357 18.7578 15.5269 19.0871C15.4915 19.1942 15.3757 19.2524 15.2636 19.2406C14.9461 19.207 14.0533 19.0752 12.4454 18.5677C12.4454 18.5677 11.9921 18.4379 12.2207 17.772C12.4493 17.1061 12.404 14.9395 12.404 14.9395L13.7479 15.6123Z" fill="white"/>
</mask>
<g mask="url(#mask2_1661_6155)">
<path d="M14.8977 18.8684C14.8262 19.1772 15.0186 19.4856 15.3274 19.5571C15.6362 19.6287 15.9446 19.4363 16.0161 19.1275C16.0876 18.8186 15.8953 18.5103 15.5865 18.4388C15.2776 18.3672 14.9693 18.5596 14.8977 18.8684Z" fill="#BFD0E0"/>
</g>
<mask id="mask3_1661_6155" style="mask-type:luminance" maskUnits="userSpaceOnUse" x="12" y="14" width="4" height="6">
<path d="M13.7479 15.6123L13.7408 16.983C13.7795 17.4308 13.9512 17.8632 14.316 18.1024C14.3428 18.1199 14.371 18.1368 14.4007 18.153C14.9101 18.4304 15.6357 18.7578 15.5269 19.0871C15.4915 19.1942 15.3757 19.2524 15.2636 19.2406C14.9461 19.207 14.0533 19.0752 12.4454 18.5677C12.4454 18.5677 11.9921 18.4379 12.2207 17.772C12.4493 17.1061 12.404 14.9395 12.404 14.9395L13.7479 15.6123Z" fill="white"/>
</mask>
<g mask="url(#mask3_1661_6155)">
<path d="M11.8118 18.0911C11.7403 18.3999 11.9326 18.7083 12.2415 18.7798C12.5503 18.8513 12.8586 18.659 12.9302 18.3501C13.0017 18.0413 12.8093 17.7329 12.5005 17.6614C12.1917 17.5899 11.8834 17.7823 11.8118 18.0911Z" fill="#BFD0E0"/>
</g>
<path d="M5.85494 9.46753C5.85494 9.46753 5.14321 11.5355 7.29603 12.4566C7.54098 12.5614 7.80534 12.6154 8.07161 12.6247L11.8545 12.7582V16.4274H14.5045L14.6501 12.4378C14.6501 12.4378 14.9995 10.4285 13.2814 10.1373L7.32323 9.01758L5.85494 9.46753Z" fill="#F8AE6E"/>
<path d="M8.47982 9.15513L8.46094 9.25L12.5751 10.0688L12.594 9.97394L8.47982 9.15513Z" fill="black"/>
<path d="M12.8475 12.7109H11.8594V12.8077H12.8475V12.7109Z" fill="black"/>
<path d="M9.1466 8.3126L8.62545 5.11915L8.58594 4.40891C8.58594 4.40891 9.51085 4.26932 10.1432 7.91123" fill="#FEF7F2"/>
<path d="M7.73335 4.28887C7.73335 4.28887 8.61751 4.24353 8.85246 4.61328C9.08743 4.98304 9.35319 7.88344 9.35319 7.88344L5.52573 10.0181C5.52573 10.0181 4.02582 5.82017 4.6398 5.03799C5.14247 4.39762 5.85455 4.37263 5.85455 4.37263L7.73335 4.28887Z" fill="#FEF7F2"/>
<path d="M9.10386 5.40179L9.00781 5.41406L9.2815 7.55665L9.37754 7.54438L9.10386 5.40179Z" fill="#E99892"/>
<path d="M11.9844 6.90339C11.6611 7.15164 11.1978 7.09083 10.9496 6.76761C10.7014 6.44434 10.7621 5.98104 11.0854 5.73279C11.4087 5.48455 11.872 5.54536 12.1202 5.8686C12.3685 6.19185 12.3077 6.65515 11.9844 6.90339Z" fill="#E9A791"/>
<path d="M11.6154 5.58506C11.6154 5.58506 11.4982 5.26966 11.1739 5.48125C10.8496 5.69286 10.5477 6.14548 10.9526 6.76802L11.6154 5.58506Z" fill="#E9A791"/>
<path d="M10.8263 5.79297L7.25144 7.366C6.74584 7.57335 6.53101 8.17279 6.78981 8.65406C7.02966 9.10013 7.58473 9.26878 8.03221 9.03152L11.4704 7.20183L10.8263 5.79297Z" fill="#FEF7F2"/>
<path d="M6.44263 5.24611L8.4066 7.30426C8.83235 7.80881 8.73285 8.57006 8.19168 8.94819C7.70757 9.28647 7.04413 9.19172 6.67407 8.73146L4.73621 6.65179C4.33915 6.15795 4.43759 5.43209 4.95184 5.06186C5.42058 4.72441 6.07011 4.80468 6.44263 5.24611Z" fill="#FEF7F2"/>
<path d="M8.11828 7.03603L9.78392 6.3031L9.74498 6.2146L8.14068 6.92041L6.47564 5.21289L6.40625 5.28038L8.11828 7.03603Z" fill="#E99892"/>
<path d="M7.16674 9.13283L7.17877 9.0368C7.02444 9.01744 6.78928 8.78678 6.71177 8.69959L5.03173 6.89648L4.96094 6.96254L6.64014 8.76469C6.65171 8.7777 6.94502 9.10498 7.16674 9.13283Z" fill="#E99892"/>
<path d="M8.10782 6.93362L7.66406 7.12891L7.703 7.21739L8.14676 7.0221L8.10782 6.93362Z" fill="#E99892"/>
<path d="M7.9283 0.407582C7.9283 0.407582 5.87865 -0.147672 5.29901 0.880055C4.87847 1.62572 5.37532 2.97592 6.33575 3.35636C7.25063 3.71877 6.991 0.737811 6.991 0.737811L7.9283 0.407582Z" fill="black"/>
<path d="M7.72817 2.26126C7.70744 2.5074 7.89013 2.72375 8.13627 2.74447C8.38241 2.76522 8.59876 2.5825 8.61949 2.33638C8.64023 2.09024 8.4575 1.8739 8.21138 1.85317C7.96526 1.8324 7.74891 2.01514 7.72817 2.26126Z" fill="#FBB8A1"/>
<path d="M7.52942 3.51143L7.45335 4.48316C7.42736 4.82446 7.20313 4.99088 6.86741 4.9626C6.58084 4.93846 6.32408 4.76785 6.3125 4.48049L6.50577 2.95703L7.52942 3.51143Z" fill="#FBB8A1"/>
<path d="M6.29182 4.28748C6.29182 4.28748 5.95633 4.35054 5.85938 4.37547C5.85938 4.37547 6.15863 5.10587 7.13077 5.03613C8.23287 4.95709 7.7382 4.29171 7.7382 4.29171L7.16275 4.19141L6.29182 4.28748Z" fill="#FBB8A1"/>
<path d="M7.47328 4.21276L6.35156 3.19141L7.53652 3.41133L7.47328 4.21276Z" fill="black"/>
<path d="M7.23028 3.66404C7.80487 3.67415 8.286 3.22857 8.31004 2.75959L8.36004 1.65278C8.39016 1.06499 7.94861 0.559279 7.36211 0.509843C6.76171 0.459263 6.12876 0.896082 6.07818 1.49648L6.04765 2.38709C6.02402 3.07595 6.54348 3.60617 7.23028 3.66404Z" fill="#FBB8A1"/>
<path d="M6.77347 1.49729L6.2916 2.25568L5.53125 1.3418L6.77347 1.49729Z" fill="black"/>
<path d="M5.51723 2.24956C5.4965 2.4957 5.67922 2.71204 5.92534 2.73277C6.17148 2.75352 6.3878 2.5708 6.40855 2.32466C6.42928 2.07852 6.24658 1.86217 6.00044 1.84145C5.75432 1.82072 5.53797 2.00344 5.51723 2.24956Z" fill="#FBB8A1"/>
<path d="M6.1023 2.4692C6.12035 2.4692 6.13569 2.45539 6.13722 2.4371C6.13781 2.43048 6.14984 2.27321 6.0518 2.17481C5.99516 2.11781 5.91483 2.09339 5.81358 2.10095C5.79423 2.10248 5.77983 2.11935 5.78136 2.13858C5.78289 2.15794 5.80082 2.17327 5.819 2.1708C5.89982 2.16443 5.96034 2.18236 6.00187 2.22389C6.07704 2.29906 6.06748 2.43003 6.06736 2.43132C6.06583 2.45055 6.08023 2.46742 6.09946 2.46908C6.10042 2.46908 6.10136 2.4692 6.1023 2.4692Z" fill="black"/>
<path d="M7.92441 0.40625C7.92441 0.40625 8.75723 0.56293 8.54914 1.6762L8.0894 1.60248L8.03111 1.12809L7.85135 1.61326L6.08921 1.58751L5.85156 0.749914L6.64605 0.486214L7.92441 0.40625Z" fill="black"/>
<path d="M6.77344 2.69645C6.77344 2.80063 6.85789 2.88509 6.96208 2.88509C7.06626 2.88509 7.15071 2.80063 7.15071 2.69645C7.15071 2.59227 7.06626 2.50781 6.96208 2.50781C6.85789 2.50781 6.77344 2.59227 6.77344 2.69645Z" fill="#E99892"/>
<g opacity="0.65">
<path d="M8.26451 2.76698C8.30438 2.67072 8.25867 2.56037 8.16242 2.5205C8.06616 2.48063 7.95581 2.52634 7.91594 2.62259C7.87607 2.71885 7.92178 2.8292 8.01803 2.86907C8.11429 2.90894 8.22464 2.86323 8.26451 2.76698Z" fill="#E99892"/>
</g>
<path d="M7.53635 2.45312C7.52183 2.47983 7.52106 2.50765 7.52236 2.53407C7.52322 2.56063 7.52827 2.5863 7.52822 2.61089C7.52951 2.63547 7.52598 2.65877 7.51215 2.68048C7.49827 2.70229 7.47183 2.72244 7.4375 2.74313C7.4869 2.73739 7.5348 2.72042 7.56433 2.69467C7.5951 2.66908 7.60321 2.63823 7.60292 2.61032C7.59945 2.55332 7.56778 2.50477 7.53635 2.45312Z" fill="#CB767E"/>
<path d="M7.31918 1.98795C7.27293 1.913 7.18347 1.87521 7.09728 1.87127C7.01102 1.86847 6.91887 1.89945 6.86719 1.97083C6.95287 1.96205 7.02168 1.95636 7.09393 1.95964C7.16623 1.96162 7.23452 1.97255 7.31918 1.98795Z" fill="black"/>
<path d="M7.82812 2.02676C7.91356 2.01659 7.9824 2.00987 8.05468 2.0123C8.12701 2.01345 8.19533 2.02335 8.28032 2.03736C8.23311 1.96293 8.14302 1.92638 8.05677 1.92387C7.97047 1.92256 7.87887 1.95478 7.82812 2.02676Z" fill="black"/>
<path d="M7.91518 2.96642C7.77341 2.98343 7.64805 2.99368 7.51888 2.99078C7.38964 2.98915 7.26539 2.97473 7.125 2.95312C7.2194 3.02668 7.36985 3.06251 7.51596 3.06545C7.66212 3.06725 7.81505 3.03654 7.91518 2.96642Z" fill="#CB767E"/>
<path d="M7.86719 2.39192C7.86719 2.45629 7.9319 2.34931 8.01172 2.34931C8.09154 2.34931 8.15625 2.45627 8.15625 2.39192C8.15625 2.32758 8.09154 2.27539 8.01172 2.27539C7.9319 2.27539 7.86719 2.32758 7.86719 2.39192Z" fill="black"/>
<path d="M6.92188 2.39192C6.92188 2.45629 6.98658 2.34931 7.06641 2.34931C7.14623 2.34931 7.21094 2.45627 7.21094 2.39192C7.21094 2.32758 7.14623 2.27539 7.06641 2.27539C6.98661 2.27539 6.92188 2.32758 6.92188 2.39192Z" fill="black"/>
</svg>
