<svg width="22" height="24" viewBox="0 0 22 24" fill="none" xmlns="http://www.w3.org/2000/svg">
<mask id="mask0_1661_3608" style="mask-type:luminance" maskUnits="userSpaceOnUse" x="0" y="2" width="22" height="22">
<path d="M10.5182 23.589C16.3272 23.589 21.0363 18.8799 21.0363 13.0709C21.0363 7.26187 16.3272 2.55273 10.5182 2.55273C4.70914 2.55273 0 7.26187 0 13.0709C0 18.8799 4.70914 23.589 10.5182 23.589Z" fill="white"/>
</mask>
<g mask="url(#mask0_1661_3608)">
<path d="M17.3828 12.2322L17.3263 12.2016C17.2879 12.1813 13.4948 10.1497 12.594 9.9691C11.8439 9.81909 10.1221 9.85452 9.29473 9.87223C9.10853 9.876 8.96341 9.87902 8.87936 9.87902C8.30832 9.87902 7.83263 9.99436 7.77383 10.1466C7.7482 10.213 7.81114 10.3653 8.06331 10.5948C8.81566 11.2789 10.2785 11.3856 10.9811 11.4369C11.2525 11.4568 11.3867 11.4678 11.4677 11.4945C11.7798 11.5982 12.3697 12.2597 12.4847 12.3912L12.7157 12.6551L2.95293 13.6585C2.70453 13.6841 2.52474 13.8993 2.54359 14.1485C2.56206 14.3863 2.76182 14.5703 2.99967 14.5703C3.0023 14.5703 3.00419 14.5703 3.00645 14.5703L10.3592 14.4591L2.09203 16.3083C1.98762 16.3316 1.90017 16.3946 1.84476 16.4862C1.78935 16.5778 1.77503 16.6848 1.80293 16.7881C1.85193 16.9683 2.02569 17.0855 2.20888 17.0723L8.39425 16.5495L8.46059 16.9042L2.93144 18.5205C2.70792 18.586 2.57713 18.8141 2.63367 19.0399C2.68833 19.2585 2.9043 19.3979 3.12631 19.3606L8.47189 18.4274L8.56538 18.7764L5.35245 19.952C5.26387 19.9844 5.24427 20.0602 5.24012 20.0911C5.23598 20.1224 5.23447 20.2004 5.31099 20.2551C5.34679 20.2807 5.38637 20.292 5.42746 20.2871C6.32002 20.194 10.8092 19.7206 11.5582 19.554C12.3772 19.3719 16.6422 17.6121 16.6855 17.5943L16.7507 17.5804L25.3254 17.3938L23.3711 11.0871C23.3643 11.0893 23.359 11.0935 23.3522 11.095L17.3828 12.2322Z" fill="#D66E00"/>
<path d="M4.10156 17.8028L5.89762 17.2778C5.93833 17.2178 5.97489 17.1635 6.00618 17.1172L4.37559 17.2551L4.10156 17.8028Z" fill="#D66E00"/>
<path d="M6.07385 17.1096L6.03125 17.2374L6.62906 17.0625L6.07385 17.1096Z" fill="#D66E00"/>
<path d="M3.56166 14.9248C3.41692 15.1422 3.30082 15.3164 3.22694 15.4268C3.16475 15.5199 3.10821 15.6194 3.05469 15.7216L6.83979 14.875L3.56166 14.9248Z" fill="#D66E00"/>
<path d="M5.00882 15.9894L4.56707 16.8729L8.39891 16.5491L8.46525 16.9038L5.89121 17.6562L5.45888 18.9535L7.41702 18.6117C7.96921 18.0549 8.47882 17.4896 8.47882 17.4896C8.47882 17.4896 8.0201 18.0636 7.7619 18.5517L8.47731 18.427L8.57079 18.776L7.60699 19.1284C7.61415 19.1465 7.62131 19.1642 7.63488 19.1774C7.91607 19.4586 8.38497 19.7402 8.66616 19.4586C8.94734 19.1774 11.198 16.2706 11.6665 15.9894C12.1354 15.7082 13.6356 14.8643 14.9484 13.7391C15.2631 13.4696 15.9186 12.7776 16.7309 11.8846C15.6174 11.3015 13.2801 10.1055 12.5979 9.9691C11.8478 9.81909 10.126 9.85452 9.29863 9.87223C9.11243 9.876 8.96732 9.87902 8.88326 9.87902C8.31222 9.87902 7.83654 9.99436 7.77774 10.1466C7.7521 10.213 7.81505 10.3653 8.06721 10.5948C8.81956 11.2789 10.2824 11.3856 10.985 11.4369C11.2564 11.4568 11.3906 11.4678 11.4716 11.4945C11.7837 11.5982 12.3736 12.2597 12.4886 12.3912L12.7196 12.6551L4.51279 13.4987C4.25723 13.882 4.01487 14.2453 3.80642 14.5586L10.3635 14.4594L2.86675 16.136C2.73897 16.4587 2.64813 16.7809 2.58594 17.0406L4.11513 16.9113C4.56292 16.4353 5.00882 15.9894 5.00882 15.9894Z" fill="#D66E00"/>
<path d="M3.22664 17.9611C3.28733 17.8397 3.49615 17.5902 3.74982 17.3086L2.50596 17.4138C2.48598 17.5204 2.47656 17.586 2.47656 17.586C2.47656 17.586 3.03893 18.3361 3.22664 17.9611Z" fill="#D66E00"/>
<path d="M4.91319 10.2707C5.56942 10.083 6.78841 10.083 6.78841 10.083C6.78841 10.083 5.74394 11.6499 4.77147 13.1082L11.9719 12.3679C11.7224 12.109 11.4634 11.8753 11.3553 11.8398C11.3115 11.8255 11.1231 11.8119 10.9565 11.7999C10.1563 11.7411 8.66588 11.6321 7.82157 10.8643C7.69115 10.746 7.29462 10.3856 7.43748 10.017C7.60521 9.58241 8.4141 9.51758 8.88111 9.51758C8.96403 9.51758 9.10614 9.51494 9.28895 9.5108C10.1295 9.49346 11.8769 9.45689 12.667 9.61445C13.4197 9.76522 15.8935 11.037 16.9805 11.608C19.5689 8.74563 23.4788 4.17614 23.4788 4.17614L17.1965 1.83203C16.9153 1.83203 14.0085 7.5519 14.0085 7.5519C14.0085 7.5519 8.94519 6.80182 8.28858 6.89567C7.63235 6.98953 4.72548 8.58355 4.06925 8.86474C3.41302 9.14593 2.66256 9.42749 3.03798 9.80254C3.41265 10.1768 4.25659 10.458 4.91319 10.2707Z" fill="#D66E00"/>
<path d="M6.28389 19.6133L6.02344 19.7086C6.08638 19.7026 6.15385 19.6841 6.22622 19.648C6.24318 19.6393 6.26467 19.6246 6.28389 19.6133Z" fill="#D66E00"/>
<path d="M6.53378 19.1348L5.45312 19.3232C5.48215 19.3741 5.5206 19.4318 5.56771 19.4879L6.53378 19.1348Z" fill="#D66E00"/>
<path d="M5.57608 17.748L3.88103 18.2437L3.78906 18.4276C3.78906 18.4276 3.84636 18.918 3.99525 19.2094L4.60587 19.1027C4.88442 18.742 5.26398 18.2015 5.57608 17.748Z" fill="#D66E00"/>
</g>
<path d="M7.43912 6.81214C7.43912 6.81214 6.10442 3.96521 5.10971 4.94258C4.05583 5.978 7.43912 6.81214 7.43912 6.81214Z" fill="#D66E00"/>
<path d="M11.5312 6.81214C11.5312 6.81214 12.866 3.96521 13.8607 4.94258C14.9146 5.978 11.5312 6.81214 11.5312 6.81214Z" fill="#D66E00"/>
<path d="M8.09537 6.60565C7.99511 6.60565 7.91406 6.52461 7.91406 6.42435V0.181303C7.91406 0.0810404 7.99511 0 8.09537 0C8.19563 0 8.27667 0.0810404 8.27667 0.181303V6.42435C8.27667 6.52461 8.19563 6.60565 8.09537 6.60565Z" fill="#D66E00"/>
<path d="M9.41568 8.8762C9.31542 8.8762 9.23438 8.79516 9.23438 8.6949V7.37076C9.23438 7.27049 9.31542 7.18945 9.41568 7.18945C9.51595 7.18945 9.59698 7.27049 9.59698 7.37076V8.6949C9.59698 8.79516 9.51595 8.8762 9.41568 8.8762Z" fill="white"/>
<path d="M9.41568 7.55134C9.31542 7.55134 9.23438 7.47031 9.23438 7.37004V3.9645C9.23438 3.86424 9.31542 3.7832 9.41568 3.7832C9.51595 3.7832 9.59698 3.86424 9.59698 3.9645V7.37004C9.59698 7.46993 9.51595 7.55134 9.41568 7.55134Z" fill="#D66E00"/>
<path d="M11.025 8.30705C10.9248 8.30705 10.8438 8.22601 10.8438 8.12574V2.54458C10.8438 2.44432 10.9248 2.36328 11.025 2.36328C11.1253 2.36328 11.2063 2.44432 11.2063 2.54458V8.12537C11.2063 8.22563 11.1253 8.30705 11.025 8.30705Z" fill="#D66E00"/>
<path d="M11.025 2.15989C10.9248 2.15989 10.8438 2.07885 10.8438 1.97859V0.560209C10.8438 0.459947 10.9248 0.378906 11.025 0.378906C11.1253 0.378906 11.2063 0.459947 11.2063 0.560209V1.97859C11.2063 2.07847 11.1253 2.15989 11.025 2.15989Z" fill="#D66E00"/>
<path d="M6.39381 10.9645C6.39381 10.9645 5.35311 10.3968 4.02897 10.8699C2.70482 11.3429 3.27209 12.2886 4.12357 12.0994C4.97505 11.9106 6.39381 10.9645 6.39381 10.9645Z" fill="#D66E00"/>
<path d="M6.86099 13.0378C6.76073 13.0378 6.67969 12.9568 6.67969 12.8565V11.154C6.67969 11.0537 6.76073 10.9727 6.86099 10.9727C6.96125 10.9727 7.04229 11.0537 7.04229 11.154V12.8565C7.04229 12.9568 6.96125 13.0378 6.86099 13.0378Z" fill="white"/>
</svg>
