<svg width="25" height="25" viewBox="0 0 25 25" fill="none" xmlns="http://www.w3.org/2000/svg">
<g clip-path="url(#clip0_1661_3900)">
<path d="M25 0H0V25H25V0Z" fill="white"/>
<path fill-rule="evenodd" clip-rule="evenodd" d="M4.03196 20.1822C-0.346489 18.4204 0.961111 12.9765 4.54466 10.871C6.17466 9.91325 8.01201 9.30935 8.13166 6.8295C8.34886 2.32185 13.1535 2.28495 16.2087 4.6371C18.7526 6.59555 18.1268 8.9959 20.0716 10.5638C22.2371 12.3095 25.9351 15.9646 22.0095 19.7273L13.8699 20.9848L4.03196 20.1822Z" fill="#F2DAD8"/>
<mask id="mask0_1661_3900" style="mask-type:luminance" maskUnits="userSpaceOnUse" x="1" y="3" width="23" height="18">
<path d="M4.03196 20.1822C-0.346489 18.4204 0.961111 12.9765 4.54466 10.871C6.17466 9.91325 8.01201 9.30935 8.13166 6.8295C8.34886 2.32185 13.1535 2.28495 16.2087 4.6371C18.7526 6.59555 18.1268 8.9959 20.0716 10.5638C22.2371 12.3095 25.9351 15.9646 22.0095 19.7273L13.8699 20.9848L4.03196 20.1822Z" fill="white"/>
</mask>
<g mask="url(#mask0_1661_3900)">
<path fill-rule="evenodd" clip-rule="evenodd" d="M22.6921 21.8975H22.6743V21.6187H21.6651H21.6649H21.6646H20.6554V21.8975H20.6377V21.6187H19.6285H19.6282H19.628H18.6188V21.8975H18.6009V21.6187H17.5917H17.5915H17.5913H16.5821V21.8975H16.5643V21.6187H15.5551H15.5549H15.5546H14.5455V21.8975H14.5278V21.6187H13.5186H13.5183H13.5181H12.5089V21.8975H12.4911V21.6187H11.4819H11.4817H11.4815H10.4723V21.8975H10.4545V21.6187H9.44534H9.44514H9.44494H8.43574V21.8975H8.41794V21.6187H7.40879H7.40854H7.40834H6.39919V21.8975H6.38134V21.6187H5.37219H5.37194H5.37174H4.36244V21.8975H4.34464V21.6187H3.33544H3.33524H3.33499H2.32584V21.8975H2.30804V21.6187H1.29884H1.29864H1.29844H0.691945V21.6038H1.28974V21.1149H0.691895V21.1H1.29839H1.29884H2.30804V20.6111H1.29884H1.29864H1.29844H0.691945V20.5962H1.28974V20.1072H0.691895V20.0924H1.29839H1.29884H2.30804V19.6034H1.29884H1.29864H1.29844H0.691945V19.5885H1.28974V19.0995H0.691895V19.0847H1.29839H1.29884H2.30804V18.5957H1.29884H1.29864H1.29844H0.691945V18.5809H1.28974V18.0919H0.691895V18.077H1.29839H1.29884H2.30804V17.588H1.29884H1.29864H1.29844H0.691945V17.5732H1.28974V17.0843H0.691895V17.0694H1.29839H1.29884H2.30804V16.5805H1.29884H1.29864H1.29844H0.691945V16.5655H1.28974V16.0766H0.691895V16.0617H1.29839H1.29884H2.30804V15.5727H1.29884H1.29864H1.29844H0.691945V15.5579H1.28974V15.0689H0.691895V15.054H1.29839H1.29884H2.30804V14.5651H1.29884H1.29864H1.29844H0.691945V14.5502H1.28974V14.0612H0.691895V14.0464H1.29839H1.29884H2.30804V13.5574H1.29884H1.29864H1.29844H0.691945V13.5426H1.28974V13.0536H0.691895V13.0387H1.29839H1.29884H2.30804V12.5497H1.29884H1.29864H1.29844H0.691945V12.5349H1.28974V12.0459H0.691895V12.031H1.29839H1.29884H2.30804V11.5421H1.29884H1.29864H1.29844H0.691945V11.5272H1.28974V11.0383H0.691895V11.0234H1.29839H1.29884H2.30804V10.5344H1.29884H1.29864H1.29844H0.691945V10.5196H1.28974V10.0306H0.691895V10.0158H1.29839H1.29884H2.30804V9.52685H1.29884H1.29864H1.29844H0.691945V9.51195H1.28974V9.023H0.691895V9.00815H1.29839H1.29884H2.30804V8.5192H1.29884H1.29864H1.29844H0.691945V8.5043H1.28974V8.01535H0.691895V8.0005H1.29839H1.29884H2.30804V7.51155H1.29884H1.29864H1.29844H0.691945V7.49665H1.28974V7.0077H0.691895V6.9928H1.29839H1.29884H2.30804V6.50385H1.29884H1.29864H1.29844H0.691945V6.489H1.28974V6.00005H0.691895V5.98515H1.29839H1.29884H2.30804V5.4962H1.29884H1.29864H1.29844H0.691945V5.48135H1.28974V4.9924H0.691895V4.9775H1.29839H1.29884H2.30804V4.48855H1.29884H1.29864H1.29844H0.691945V4.47365H1.28974V3.9847H0.691895V3.9695H1.29839H1.29884H2.30804V3.48055H1.29884H1.29864H1.29844H0.691945V3.46565H1.28974V2.9767H0.691895V2.9618H1.29839H1.29884H2.30804V2.4729H1.29884H1.29864H1.29844H0.691945V2.458H1.28974V2.1792H1.30754V2.458H2.31674H2.31719H3.32634V2.1792H3.34419V2.458H4.35339H4.35384H5.36299V2.1792H5.38084V2.458H6.39004H6.39049H7.39969V2.1792H7.41749V2.458H8.42669H8.42714H9.43629V2.1792H9.45409V2.458H10.4633H10.4637H11.4729V2.1792H11.4907V2.458H12.4999H12.5003H13.5095V2.1792H13.5273V2.458H14.5365H14.537H15.5462V2.1792H15.5639V2.458H16.5732H16.5736H17.5828V2.1792H17.6007V2.458H18.6098H18.6103H19.6195V2.1792H19.6372V2.458H20.6465H20.6469H21.6561V2.1792H21.6738V2.458H22.6831H22.6835H23.6927V2.1792H23.7106V2.458H24.3083V2.4729H23.7019H23.7016H23.7014H22.6922V2.9618H23.7014H23.7019H24.3083V2.9767H23.7106V3.46565H24.3083V3.48055H23.7019H23.7016H23.7014H22.6922V3.9695H23.7014H23.7019H24.3083V3.98435H23.7106V4.4733H24.3083V4.4882H23.7019H23.7016H23.7014H22.6922V4.97715H23.7014H23.7019H24.3083V4.99205H23.7106V5.481H24.3083V5.49585H23.7019H23.7016H23.7014H22.6922V5.9848H23.7014H23.7019H24.3083V5.9997H23.7106V6.48865H24.3083V6.5035H23.7019H23.7016H23.7014H22.6922V6.99245H23.7014H23.7019H24.3083V7.00735H23.7106V7.4963H24.3083V7.5112H23.7019H23.7016H23.7014H22.6922V8.00015H23.7014H23.7019H24.3083V8.015H23.7106V8.50395H24.3083V8.51885H23.7019H23.7016H23.7014H22.6922V9.0078H23.7014H23.7019H24.3083V9.02265H23.7106V9.5116H24.3083V9.5265H23.7019H23.7016H23.7014H22.6922V10.0154H23.7014H23.7019H24.3083V10.0303H23.7106V10.5192H24.3083V10.5341H23.7019H23.7016H23.7014H22.6922V11.023H23.7014H23.7019H24.3083V11.0379H23.7106V11.5269H24.3083V11.5417H23.7019H23.7016H23.7014H22.6922V12.0307H23.7014H23.7019H24.3083V12.0456H23.7106V12.5345H24.3083V12.5494H23.7019H23.7016H23.7014H22.6922V13.0384H23.7014H23.7019H24.3083V13.0532H23.7106V13.5422H24.3083V13.5571H23.7019H23.7016H23.7014H22.6922V14.046H23.7014H23.7019H24.3083V14.0609H23.7106V14.5498H24.3083V14.5647H23.7019H23.7016H23.7014H22.6922V15.0537H23.7014H23.7019H24.3083V15.0686H23.7106V15.5576H24.3083V15.5724H23.7019H23.7016H23.7014H22.6922V16.0613H23.7014H23.7019H24.3083V16.0762H23.7106V16.5652H24.3083V16.5801H23.7019H23.7016H23.7014H22.6922V17.069H23.7014H23.7019H24.3083V17.0839H23.7106V17.5728H24.3083V17.5877H23.7019H23.7016H23.7014H22.6922V18.0766H23.7014H23.7019H24.3083V18.0915H23.7106V18.5805H24.3083V18.5954H23.7019H23.7016H23.7014H22.6922V19.0844H23.7014H23.7019H24.3083V19.0992H23.7106V19.5882H24.3083V19.603H23.7019H23.7016H23.7014H22.6922V20.092H23.7014H23.7019H24.3083V20.1069H23.7106V20.5958H24.3083V20.6107H23.7019H23.7016H23.7014H22.6922V21.1H23.7014H23.7019H24.3083V21.1149H23.7106V21.6038H24.3083V21.6187H23.7019H23.7016H23.7014H22.6922V21.8975H22.6921ZM23.6926 21.1149H22.6834H22.6832H22.683H21.6737V21.6038H22.683H22.6834H23.6926V21.1149ZM21.6559 21.1149H20.6467H20.6465H20.6463H19.6371V21.6038H20.6463H20.6467H21.6559V21.1149ZM19.6193 21.1149H18.6101H18.6099H18.6096H17.6005V21.6038H18.6096H18.6101H19.6193V21.1149ZM17.5827 21.1149H16.5735H16.5733H16.5731H15.5638V21.6038H16.5731H16.5735H17.5827L17.5827 21.1149ZM15.5461 21.1149H14.5369H14.5367H14.5364H13.5272V21.6038H14.5364H14.5369H15.5461V21.1149ZM13.5095 21.1149H12.5003H12.5H12.4998H11.4906V21.6038H12.4998H12.5002H13.5094V21.1149H13.5095ZM11.4728 21.1149H10.4637H10.4635H10.4632H9.45404V21.6038H10.4632H10.4637H11.4728V21.1149ZM9.43619 21.1149H8.42704H8.42679H8.42659H7.41739V21.6038H8.42659H8.42704H9.43619V21.1149ZM7.39959 21.1149H6.39039H6.39019H6.39H5.38079V21.6038H6.39H6.39044H7.39964V21.1149H7.39959ZM5.36295 21.1149H4.35379H4.35354H4.35334H3.34414V21.6038H4.35334H4.35379H5.36295V21.1149ZM3.32634 21.1149H2.31719H2.31694H2.31674H1.30749V21.6038H2.31669H2.31714H3.32629L3.32634 21.1149ZM22.6743 20.611H21.6651H21.6649H21.6646H20.6554V21.1H21.6646H21.6651H22.6743V20.611ZM20.6377 20.611H19.6285H19.6282H19.628H18.6188V21.1H19.628H19.6285H20.6377V20.611ZM18.601 20.611H17.5918H17.5916H17.5914H16.5822V21.1H17.5914H17.5918H18.601V20.611ZM16.5643 20.611H15.5552H15.5549H15.5547H14.5455V21.1H15.5547H15.5552H16.5644L16.5643 20.611ZM14.5278 20.611H13.5186H13.5183H13.5181H12.5089V21.1H13.5181H13.5186H14.5278V20.611ZM12.4911 20.611H11.482H11.4817H11.4815H10.4724V21.1H11.4815H11.482H12.4912L12.4911 20.611ZM10.4545 20.611H9.44534H9.44514H9.44494H8.43574V21.1H9.44494H9.44539H10.4546V20.611H10.4545ZM8.41789 20.611H7.40874H7.40849H7.40829H6.39914V21.1H7.40829H7.40874H8.41789V20.611ZM6.38129 20.611H5.37214H5.37189H5.37169H4.36244V21.1H5.37164H5.37209H6.38124L6.38129 20.611ZM4.34464 20.611H3.33544H3.33524H3.33499H2.32584V21.1H3.33499H3.33544H4.34464V20.611ZM23.6926 20.1072H22.6834H22.6832H22.683H21.6737V20.5961H22.683H22.6834H23.6926V20.1072ZM21.6559 20.1072H20.6467H20.6465H20.6463H19.6371V20.5961H20.6463H20.6467H21.6559V20.1072ZM19.6193 20.1072H18.6101H18.6099H18.6096H17.6005V20.5961H18.6096H18.6101H19.6193V20.1072ZM17.5827 20.1072H16.5735H16.5733H16.5731H15.5638V20.5961H16.5731H16.5735H17.5827L17.5827 20.1072ZM15.5461 20.1072H14.5369H14.5367H14.5364H13.5272V20.5961H14.5364H14.5369H15.5461V20.1072ZM13.5095 20.1072H12.5003H12.5H12.4998H11.4906V20.5961H12.4998H12.5002H13.5094V20.1072H13.5095ZM11.4728 20.1072H10.4637H10.4635H10.4632H9.45404V20.5961H10.4632H10.4637H11.4728V20.1072ZM9.43619 20.1072H8.42704H8.42679H8.42659H7.41739V20.5961H8.42659H8.42704H9.43619V20.1072ZM7.39959 20.1072H6.39039H6.39019H6.39H5.38079V20.5961H6.39H6.39044H7.39964V20.1072H7.39959ZM5.36295 20.1072H4.35379H4.35354H4.35334H3.34414V20.5961H4.35334H4.35379H5.36295V20.1072ZM3.32634 20.1072H2.31719H2.31694H2.31674H1.30749V20.5961H2.31669H2.31714H3.32629L3.32634 20.1072ZM22.6743 19.6033H21.6651H21.6649H21.6646H20.6554V20.0923H21.6646H21.6651H22.6743V19.6033ZM20.6377 19.6033H19.6285H19.6282H19.628H18.6188V20.0923H19.628H19.6285H20.6377V19.6033ZM18.601 19.6033H17.5918H17.5916H17.5914H16.5822V20.0923H17.5914H17.5918H18.601V19.6033ZM16.5643 19.6033H15.5552H15.5549H15.5547H14.5455V20.0923H15.5547H15.5552H16.5644L16.5643 19.6033ZM14.5278 19.6033H13.5186H13.5183H13.5181H12.5089V20.0923H13.5181H13.5186H14.5278V19.6033ZM12.4911 19.6033H11.482H11.4817H11.4815H10.4724V20.0923H11.4815H11.482H12.4912L12.4911 19.6033ZM10.4545 19.6033H9.44534H9.44514H9.44494H8.43574V20.0923H9.44494H9.44539H10.4546V19.6033H10.4545ZM8.41789 19.6033H7.40874H7.40849H7.40829H6.39914V20.0923H7.40829H7.40874H8.41789V19.6033ZM6.38129 19.6033H5.37214H5.37189H5.37169H4.36244V20.0923H5.37164H5.37209H6.38124L6.38129 19.6033ZM4.34464 19.6033H3.33544H3.33524H3.33499H2.32584V20.0923H3.33499H3.33544H4.34464V19.6033ZM23.6926 19.0995H22.6834H22.6832H22.683H21.6737V19.5884H22.683H22.6834H23.6926V19.0995ZM21.6559 19.0995H20.6467H20.6465H20.6463H19.6371V19.5884H20.6463H20.6467H21.6559V19.0995ZM19.6193 19.0995H18.6101H18.6099H18.6096H17.6005V19.5884H18.6096H18.6101H19.6193V19.0995ZM17.5827 19.0995H16.5735H16.5733H16.5731H15.5638V19.5884H16.5731H16.5735H17.5827L17.5827 19.0995ZM15.5461 19.0995H14.5369H14.5367H14.5364H13.5272V19.5884H14.5364H14.5369H15.5461V19.0995ZM13.5095 19.0995H12.5003H12.5H12.4998H11.4906V19.5884H12.4998H12.5002H13.5094V19.0995H13.5095ZM11.4728 19.0995H10.4637H10.4635H10.4632H9.45404V19.5884H10.4632H10.4637H11.4728V19.0995ZM9.43619 19.0995H8.42704H8.42679H8.42659H7.41739V19.5884H8.42659H8.42704H9.43619V19.0995ZM7.39959 19.0995H6.39039H6.39019H6.39H5.38079V19.5884H6.39H6.39044H7.39964V19.0995H7.39959ZM5.36295 19.0995H4.35379H4.35354H4.35334H3.34414V19.5884H4.35334H4.35379H5.36295V19.0995ZM3.32634 19.0995H2.31719H2.31694H2.31674H1.30749V19.5884H2.31669H2.31714H3.32629L3.32634 19.0995ZM22.6743 18.5957H21.6651H21.6649H21.6646H20.6554V19.0847H21.6646H21.6651H22.6743V18.5957ZM20.6377 18.5957H19.6285H19.6282H19.628H18.6188V19.0847H19.628H19.6285H20.6377V18.5957ZM18.601 18.5957H17.5918H17.5916H17.5914H16.5822V19.0847H17.5914H17.5918H18.601V18.5957ZM16.5643 18.5957H15.5552H15.5549H15.5547H14.5455V19.0847H15.5547H15.5552H16.5644L16.5643 18.5957ZM14.5278 18.5957H13.5186H13.5183H13.5181H12.5089V19.0847H13.5181H13.5186H14.5278V18.5957ZM12.4911 18.5957H11.482H11.4817H11.4815H10.4724V19.0847H11.4815H11.482H12.4912L12.4911 18.5957ZM10.4545 18.5957H9.44534H9.44514H9.44494H8.43574V19.0847H9.44494H9.44539H10.4546V18.5957H10.4545ZM8.41789 18.5957H7.40874H7.40849H7.40829H6.39914V19.0847H7.40829H7.40874H8.41789V18.5957ZM6.38129 18.5957H5.37214H5.37189H5.37169H4.36244V19.0847H5.37164H5.37209H6.38124L6.38129 18.5957ZM4.34464 18.5957H3.33544H3.33524H3.33499H2.32584V19.0847H3.33499H3.33544H4.34464V18.5957ZM23.6926 18.0918H22.6834H22.6832H22.683H21.6737V18.5807H22.683H22.6834H23.6926V18.0918ZM21.6559 18.0918H20.6467H20.6465H20.6463H19.6371V18.5807H20.6463H20.6467H21.6559V18.0918ZM19.6193 18.0918H18.6101H18.6099H18.6096H17.6005V18.5807H18.6096H18.6101H19.6193V18.0918ZM17.5827 18.0918H16.5735H16.5733H16.5731H15.5638V18.5807H16.5731H16.5735H17.5827L17.5827 18.0918ZM15.5461 18.0918H14.5369H14.5367H14.5364H13.5272V18.5807H14.5364H14.5369H15.5461V18.0918ZM13.5095 18.0918H12.5003H12.5H12.4998H11.4906V18.5807H12.4998H12.5002H13.5094V18.0918H13.5095ZM11.4728 18.0918H10.4637H10.4635H10.4632H9.45404V18.5807H10.4632H10.4637H11.4728V18.0918ZM9.43619 18.0918H8.42704H8.42679H8.42659H7.41739V18.5807H8.42659H8.42704H9.43619V18.0918ZM7.39959 18.0918H6.39039H6.39019H6.39H5.38079V18.5807H6.39H6.39044H7.39964V18.0918H7.39959ZM5.36295 18.0918H4.35379H4.35354H4.35334H3.34414V18.5807H4.35334H4.35379H5.36295V18.0918ZM3.32634 18.0918H2.31719H2.31694H2.31674H1.30749V18.5807H2.31669H2.31714H3.32629L3.32634 18.0918ZM22.6743 17.5879H21.6651H21.6649H21.6646H20.6554V18.0769H21.6646H21.6651H22.6743V17.5879ZM20.6377 17.5879H19.6285H19.6282H19.628H18.6188V18.0769H19.628H19.6285H20.6377V17.5879ZM18.601 17.5879H17.5918H17.5916H17.5914H16.5822V18.0769H17.5914H17.5918H18.601V17.5879ZM16.5643 17.5879H15.5552H15.5549H15.5547H14.5455V18.0769H15.5547H15.5552H16.5644L16.5643 17.5879ZM14.5278 17.5879H13.5186H13.5183H13.5181H12.5089V18.0769H13.5181H13.5186H14.5278V17.5879ZM12.4911 17.5879H11.482H11.4817H11.4815H10.4724V18.0769H11.4815H11.482H12.4912L12.4911 17.5879ZM10.4545 17.5879H9.44534H9.44514H9.44494H8.43574V18.0769H9.44494H9.44539H10.4546V17.5879H10.4545ZM8.41789 17.5879H7.40874H7.40849H7.40829H6.39914V18.0769H7.40829H7.40874H8.41789V17.5879ZM6.38129 17.5879H5.37214H5.37189H5.37169H4.36244V18.0769H5.37164H5.37209H6.38124L6.38129 17.5879ZM4.34464 17.5879H3.33544H3.33524H3.33499H2.32584V18.0769H3.33499H3.33544H4.34464V17.5879ZM23.6926 17.0841H22.6834H22.6832H22.683H21.6737V17.5731H22.683H22.6834H23.6926V17.0841ZM21.6559 17.0841H20.6467H20.6465H20.6463H19.6371V17.5731H20.6463H20.6467H21.6559V17.0841ZM19.6193 17.0841H18.6101H18.6099H18.6096H17.6005V17.5731H18.6096H18.6101H19.6193V17.0841ZM17.5827 17.0841H16.5735H16.5733H16.5731H15.5638V17.5731H16.5731H16.5735H17.5827L17.5827 17.0841ZM15.5461 17.0841H14.5369H14.5367H14.5364H13.5272V17.5731H14.5364H14.5369H15.5461V17.0841ZM13.5095 17.0841H12.5003H12.5H12.4998H11.4906V17.5731H12.4998H12.5002H13.5094V17.0841H13.5095ZM11.4728 17.0841H10.4637H10.4635H10.4632H9.45404V17.5731H10.4632H10.4637H11.4728V17.0841ZM9.43619 17.0841H8.42704H8.42679H8.42659H7.41739V17.5731H8.42659H8.42704H9.43619V17.0841ZM7.39959 17.0841H6.39039H6.39019H6.39H5.38079V17.5731H6.39H6.39044H7.39964V17.0841H7.39959ZM5.36295 17.0841H4.35379H4.35354H4.35334H3.34414V17.5731H4.35334H4.35379H5.36295V17.0841ZM3.32634 17.0841H2.31719H2.31694H2.31674H1.30749V17.5731H2.31669H2.31714H3.32629L3.32634 17.0841ZM22.6743 16.5803H21.6651H21.6649H21.6646H20.6554V17.0693H21.6646H21.6651H22.6743V16.5803ZM20.6377 16.5803H19.6285H19.6282H19.628H18.6188V17.0693H19.628H19.6285H20.6377V16.5803ZM18.601 16.5803H17.5918H17.5916H17.5914H16.5822V17.0693H17.5914H17.5918H18.601V16.5803ZM16.5643 16.5803H15.5552H15.5549H15.5547H14.5455V17.0693H15.5547H15.5552H16.5644L16.5643 16.5803ZM14.5278 16.5803H13.5186H13.5183H13.5181H12.5089V17.0693H13.5181H13.5186H14.5278V16.5803ZM12.4911 16.5803H11.482H11.4817H11.4815H10.4724V17.0693H11.4815H11.482H12.4912L12.4911 16.5803ZM10.4545 16.5803H9.44534H9.44514H9.44494H8.43574V17.0693H9.44494H9.44539H10.4546V16.5803H10.4545ZM8.41789 16.5803H7.40874H7.40849H7.40829H6.39914V17.0693H7.40829H7.40874H8.41789V16.5803ZM6.38129 16.5803H5.37214H5.37189H5.37169H4.36244V17.0693H5.37164H5.37209H6.38124L6.38129 16.5803ZM4.34464 16.5803H3.33544H3.33524H3.33499H2.32584V17.0693H3.33499H3.33544H4.34464V16.5803ZM23.6926 16.0765H22.6834H22.6832H22.683H21.6737V16.5654H22.683H22.6834H23.6926V16.0765ZM21.6559 16.0765H20.6467H20.6465H20.6463H19.6371V16.5654H20.6463H20.6467H21.6559V16.0765ZM19.6193 16.0765H18.6101H18.6099H18.6096H17.6005V16.5654H18.6096H18.6101H19.6193V16.0765ZM17.5827 16.0765H16.5735H16.5733H16.5731H15.5638V16.5654H16.5731H16.5735H17.5827L17.5827 16.0765ZM15.5461 16.0765H14.5369H14.5367H14.5364H13.5272V16.5654H14.5364H14.5369H15.5461V16.0765ZM13.5095 16.0765H12.5003H12.5H12.4998H11.4906V16.5654H12.4998H12.5002H13.5094V16.0765H13.5095ZM11.4728 16.0765H10.4637H10.4635H10.4632H9.45404V16.5654H10.4632H10.4637H11.4728V16.0765ZM9.43619 16.0765H8.42704H8.42679H8.42659H7.41739V16.5654H8.42659H8.42704H9.43619V16.0765ZM7.39959 16.0765H6.39039H6.39019H6.39H5.38079V16.5654H6.39H6.39044H7.39964V16.0765H7.39959ZM5.36295 16.0765H4.35379H4.35354H4.35334H3.34414V16.5654H4.35334H4.35379H5.36295V16.0765ZM3.32634 16.0765H2.31719H2.31694H2.31674H1.30749V16.5654H2.31669H2.31714H3.32629L3.32634 16.0765ZM22.6743 15.5726H21.6651H21.6649H21.6646H20.6554V16.0616H21.6646H21.6651H22.6743V15.5726ZM20.6377 15.5726H19.6285H19.6282H19.628H18.6188V16.0616H19.628H19.6285H20.6377V15.5726ZM18.601 15.5726H17.5918H17.5916H17.5914H16.5822V16.0616H17.5914H17.5918H18.601V15.5726ZM16.5643 15.5726H15.5552H15.5549H15.5547H14.5455V16.0616H15.5547H15.5552H16.5644L16.5643 15.5726ZM14.5278 15.5726H13.5186H13.5183H13.5181H12.5089V16.0616H13.5181H13.5186H14.5278V15.5726ZM12.4911 15.5726H11.482H11.4817H11.4815H10.4724V16.0616H11.4815H11.482H12.4912L12.4911 15.5726ZM10.4545 15.5726H9.44534H9.44514H9.44494H8.43574V16.0616H9.44494H9.44539H10.4546V15.5726H10.4545ZM8.41789 15.5726H7.40874H7.40849H7.40829H6.39914V16.0616H7.40829H7.40874H8.41789V15.5726ZM6.38129 15.5726H5.37214H5.37189H5.37169H4.36244V16.0616H5.37164H5.37209H6.38124L6.38129 15.5726ZM4.34464 15.5726H3.33544H3.33524H3.33499H2.32584V16.0616H3.33499H3.33544H4.34464V15.5726ZM23.6926 15.0688H22.6834H22.6832H22.683H21.6737V15.5577H22.683H22.6834H23.6926V15.0688ZM21.6559 15.0688H20.6467H20.6465H20.6463H19.6371V15.5577H20.6463H20.6467H21.6559V15.0688ZM19.6193 15.0688H18.6101H18.6099H18.6096H17.6005V15.5577H18.6096H18.6101H19.6193V15.0688ZM17.5827 15.0688H16.5735H16.5733H16.5731H15.5638V15.5577H16.5731H16.5735H17.5827L17.5827 15.0688ZM15.5461 15.0688H14.5369H14.5367H14.5364H13.5272V15.5577H14.5364H14.5369H15.5461V15.0688ZM13.5095 15.0688H12.5003H12.5H12.4998H11.4906V15.5577H12.4998H12.5002H13.5094V15.0688H13.5095ZM11.4728 15.0688H10.4637H10.4635H10.4632H9.45404V15.5577H10.4632H10.4637H11.4728V15.0688ZM9.43619 15.0688H8.42704H8.42679H8.42659H7.41739V15.5577H8.42659H8.42704H9.43619V15.0688ZM7.39959 15.0688H6.39039H6.39019H6.39H5.38079V15.5577H6.39H6.39044H7.39964V15.0688H7.39959ZM5.36295 15.0688H4.35379H4.35354H4.35334H3.34414V15.5577H4.35334H4.35379H5.36295V15.0688ZM3.32634 15.0688H2.31719H2.31694H2.31674H1.30749V15.5577H2.31669H2.31714H3.32629L3.32634 15.0688ZM22.6743 14.5649H21.6651H21.6649H21.6646H20.6554V15.0539H21.6646H21.6651H22.6743V14.5649ZM20.6377 14.5649H19.6285H19.6282H19.628H18.6188V15.0539H19.628H19.6285H20.6377V14.5649ZM18.601 14.5649H17.5918H17.5916H17.5914H16.5822V15.0539H17.5914H17.5918H18.601V14.5649ZM16.5643 14.5649H15.5552H15.5549H15.5547H14.5455V15.0539H15.5547H15.5552H16.5644L16.5643 14.5649ZM14.5278 14.5649H13.5186H13.5183H13.5181H12.5089V15.0539H13.5181H13.5186H14.5278V14.5649ZM12.4911 14.5649H11.482H11.4817H11.4815H10.4724V15.0539H11.4815H11.482H12.4912L12.4911 14.5649ZM10.4545 14.5649H9.44534H9.44514H9.44494H8.43574V15.0539H9.44494H9.44539H10.4546V14.5649H10.4545ZM8.41789 14.5649H7.40874H7.40849H7.40829H6.39914V15.0539H7.40829H7.40874H8.41789V14.5649ZM6.38129 14.5649H5.37214H5.37189H5.37169H4.36244V15.0539H5.37164H5.37209H6.38124L6.38129 14.5649ZM4.34464 14.5649H3.33544H3.33524H3.33499H2.32584V15.0539H3.33499H3.33544H4.34464V14.5649ZM23.6926 14.0611H22.6834H22.6832H22.683H21.6737V14.55H22.683H22.6834H23.6926V14.0611ZM21.6559 14.0611H20.6467H20.6465H20.6463H19.6371V14.55H20.6463H20.6467H21.6559V14.0611ZM19.6193 14.0611H18.6101H18.6099H18.6096H17.6005V14.55H18.6096H18.6101H19.6193V14.0611ZM17.5827 14.0611H16.5735H16.5733H16.5731H15.5638V14.55H16.5731H16.5735H17.5827L17.5827 14.0611ZM15.5461 14.0611H14.5369H14.5367H14.5364H13.5272V14.55H14.5364H14.5369H15.5461V14.0611ZM13.5095 14.0611H12.5003H12.5H12.4998H11.4906V14.55H12.4998H12.5002H13.5094V14.0611H13.5095ZM11.4728 14.0611H10.4637H10.4635H10.4632H9.45404V14.55H10.4632H10.4637H11.4728V14.0611ZM9.43619 14.0611H8.42704H8.42679H8.42659H7.41739V14.55H8.42659H8.42704H9.43619V14.0611ZM7.39959 14.0611H6.39039H6.39019H6.39H5.38079V14.55H6.39H6.39044H7.39964V14.0611H7.39959ZM5.36295 14.0611H4.35379H4.35354H4.35334H3.34414V14.55H4.35334H4.35379H5.36295V14.0611ZM3.32634 14.0611H2.31719H2.31694H2.31674H1.30749V14.55H2.31669H2.31714H3.32629L3.32634 14.0611ZM22.6743 13.5573H21.6651H21.6649H21.6646H20.6554V14.0462H21.6646H21.6651H22.6743V13.5573ZM20.6377 13.5573H19.6285H19.6282H19.628H18.6188V14.0462H19.628H19.6285H20.6377V13.5573ZM18.601 13.5573H17.5918H17.5916H17.5914H16.5822V14.0462H17.5914H17.5918H18.601V13.5573ZM16.5643 13.5573H15.5552H15.5549H15.5547H14.5455V14.0462H15.5547H15.5552H16.5644L16.5643 13.5573ZM14.5278 13.5573H13.5186H13.5183H13.5181H12.5089V14.0462H13.5181H13.5186H14.5278V13.5573ZM12.4911 13.5573H11.482H11.4817H11.4815H10.4724V14.0462H11.4815H11.482H12.4912L12.4911 13.5573ZM10.4545 13.5573H9.44534H9.44514H9.44494H8.43574V14.0462H9.44494H9.44539H10.4546V13.5573H10.4545ZM8.41789 13.5573H7.40874H7.40849H7.40829H6.39914V14.0462H7.40829H7.40874H8.41789V13.5573ZM6.38129 13.5573H5.37214H5.37189H5.37169H4.36244V14.0462H5.37164H5.37209H6.38124L6.38129 13.5573ZM4.34464 13.5573H3.33544H3.33524H3.33499H2.32584V14.0462H3.33499H3.33544H4.34464V13.5573ZM23.6926 13.0534H22.6834H22.6832H22.683H21.6737V13.5424H22.683H22.6834H23.6926V13.0534ZM21.6559 13.0534H20.6467H20.6465H20.6463H19.6371V13.5424H20.6463H20.6467H21.6559V13.0534ZM19.6193 13.0534H18.6101H18.6099H18.6096H17.6005V13.5424H18.6096H18.6101H19.6193V13.0534ZM17.5827 13.0534H16.5735H16.5733H16.5731H15.5638V13.5424H16.5731H16.5735H17.5827L17.5827 13.0534ZM15.5461 13.0534H14.5369H14.5367H14.5364H13.5272V13.5424H14.5364H14.5369H15.5461V13.0534ZM13.5095 13.0534H12.5003H12.5H12.4998H11.4906V13.5424H12.4998H12.5002H13.5094V13.0534H13.5095ZM11.4728 13.0534H10.4637H10.4635H10.4632H9.45404V13.5424H10.4632H10.4637H11.4728V13.0534ZM9.43619 13.0534H8.42704H8.42679H8.42659H7.41739V13.5424H8.42659H8.42704H9.43619V13.0534ZM7.39959 13.0534H6.39039H6.39019H6.39H5.38079V13.5424H6.39H6.39044H7.39964V13.0534H7.39959ZM5.36295 13.0534H4.35379H4.35354H4.35334H3.34414V13.5424H4.35334H4.35379H5.36295V13.0534ZM3.32634 13.0534H2.31719H2.31694H2.31674H1.30749V13.5424H2.31669H2.31714H3.32629L3.32634 13.0534ZM22.6743 12.5496H21.6651H21.6649H21.6646H20.6554V13.0386H21.6646H21.6651H22.6743V12.5496ZM20.6377 12.5496H19.6285H19.6282H19.628H18.6188V13.0386H19.628H19.6285H20.6377V12.5496ZM18.601 12.5496H17.5918H17.5916H17.5914H16.5822V13.0386H17.5914H17.5918H18.601V12.5496ZM16.5643 12.5496H15.5552H15.5549H15.5547H14.5455V13.0386H15.5547H15.5552H16.5644L16.5643 12.5496ZM14.5278 12.5496H13.5186H13.5183H13.5181H12.5089V13.0386H13.5181H13.5186H14.5278V12.5496ZM12.4911 12.5496H11.482H11.4817H11.4815H10.4724V13.0386H11.4815H11.482H12.4912L12.4911 12.5496ZM10.4545 12.5496H9.44534H9.44514H9.44494H8.43574V13.0386H9.44494H9.44539H10.4546V12.5496H10.4545ZM8.41789 12.5496H7.40874H7.40849H7.40829H6.39914V13.0386H7.40829H7.40874H8.41789V12.5496ZM6.38129 12.5496H5.37214H5.37189H5.37169H4.36244V13.0386H5.37164H5.37209H6.38124L6.38129 12.5496ZM4.34464 12.5496H3.33544H3.33524H3.33499H2.32584V13.0386H3.33499H3.33544H4.34464V12.5496ZM23.6926 12.0458H22.6834H22.6832H22.683H21.6737V12.5347H22.683H22.6834H23.6926V12.0458ZM21.6559 12.0458H20.6467H20.6465H20.6463H19.6371V12.5347H20.6463H20.6467H21.6559V12.0458ZM19.6193 12.0458H18.6101H18.6099H18.6096H17.6005V12.5347H18.6096H18.6101H19.6193V12.0458ZM17.5827 12.0458H16.5735H16.5733H16.5731H15.5638V12.5347H16.5731H16.5735H17.5827L17.5827 12.0458ZM15.5461 12.0458H14.5369H14.5367H14.5364H13.5272V12.5347H14.5364H14.5369H15.5461V12.0458ZM13.5095 12.0458H12.5003H12.5H12.4998H11.4906V12.5347H12.4998H12.5002H13.5094V12.0458H13.5095ZM11.4728 12.0458H10.4637H10.4635H10.4632H9.45404V12.5347H10.4632H10.4637H11.4728V12.0458ZM9.43619 12.0458H8.42704H8.42679H8.42659H7.41739V12.5347H8.42659H8.42704H9.43619V12.0458ZM7.39959 12.0458H6.39039H6.39019H6.39H5.38079V12.5347H6.39H6.39044H7.39964V12.0458H7.39959ZM5.36295 12.0458H4.35379H4.35354H4.35334H3.34414V12.5347H4.35334H4.35379H5.36295V12.0458ZM3.32634 12.0458H2.31719H2.31694H2.31674H1.30749V12.5347H2.31669H2.31714H3.32629L3.32634 12.0458ZM22.6743 11.5419H21.6651H21.6649H21.6646H20.6554V12.0309H21.6646H21.6651H22.6743V11.5419ZM20.6377 11.5419H19.6285H19.6282H19.628H18.6188V12.0309H19.628H19.6285H20.6377V11.5419ZM18.601 11.5419H17.5918H17.5916H17.5914H16.5822V12.0309H17.5914H17.5918H18.601V11.5419ZM16.5643 11.5419H15.5552H15.5549H15.5547H14.5455V12.0309H15.5547H15.5552H16.5644L16.5643 11.5419ZM14.5278 11.5419H13.5186H13.5183H13.5181H12.5089V12.0309H13.5181H13.5186H14.5278V11.5419ZM12.4911 11.5419H11.482H11.4817H11.4815H10.4724V12.0309H11.4815H11.482H12.4912L12.4911 11.5419ZM10.4545 11.5419H9.44534H9.44514H9.44494H8.43574V12.0309H9.44494H9.44539H10.4546V11.5419H10.4545ZM8.41789 11.5419H7.40874H7.40849H7.40829H6.39914V12.0309H7.40829H7.40874H8.41789V11.5419ZM6.38129 11.5419H5.37214H5.37189H5.37169H4.36244V12.0309H5.37164H5.37209H6.38124L6.38129 11.5419ZM4.34464 11.5419H3.33544H3.33524H3.33499H2.32584V12.0309H3.33499H3.33544H4.34464V11.5419ZM23.6926 11.0381H22.6834H22.6832H22.683H21.6737V11.527H22.683H22.6834H23.6926V11.0381ZM21.6559 11.0381H20.6467H20.6465H20.6463H19.6371V11.527H20.6463H20.6467H21.6559V11.0381ZM19.6193 11.0381H18.6101H18.6099H18.6096H17.6005V11.527H18.6096H18.6101H19.6193V11.0381ZM17.5827 11.0381H16.5735H16.5733H16.5731H15.5638V11.527H16.5731H16.5735H17.5827L17.5827 11.0381ZM15.5461 11.0381H14.5369H14.5367H14.5364H13.5272V11.527H14.5364H14.5369H15.5461V11.0381ZM13.5095 11.0381H12.5003H12.5H12.4998H11.4906V11.527H12.4998H12.5002H13.5094V11.0381H13.5095ZM11.4728 11.0381H10.4637H10.4635H10.4632H9.45404V11.527H10.4632H10.4637H11.4728V11.0381ZM9.43619 11.0381H8.42704H8.42679H8.42659H7.41739V11.527H8.42659H8.42704H9.43619V11.0381ZM7.39959 11.0381H6.39039H6.39019H6.39H5.38079V11.527H6.39H6.39044H7.39964V11.0381H7.39959ZM5.36295 11.0381H4.35379H4.35354H4.35334H3.34414V11.527H4.35334H4.35379H5.36295V11.0381ZM3.32634 11.0381H2.31719H2.31694H2.31674H1.30749V11.527H2.31669H2.31714H3.32629L3.32634 11.0381ZM22.6743 10.5342H21.6651H21.6649H21.6646H20.6554V11.0232H21.6646H21.6651H22.6743V10.5342ZM20.6377 10.5342H19.6285H19.6282H19.628H18.6188V11.0232H19.628H19.6285H20.6377V10.5342ZM18.601 10.5342H17.5918H17.5916H17.5914H16.5822V11.0232H17.5914H17.5918H18.601V10.5342ZM16.5643 10.5342H15.5552H15.5549H15.5547H14.5455V11.0232H15.5547H15.5552H16.5644L16.5643 10.5342ZM14.5278 10.5342H13.5186H13.5183H13.5181H12.5089V11.0232H13.5181H13.5186H14.5278V10.5342ZM12.4911 10.5342H11.482H11.4817H11.4815H10.4724V11.0232H11.4815H11.482H12.4912L12.4911 10.5342ZM10.4545 10.5342H9.44534H9.44514H9.44494H8.43574V11.0232H9.44494H9.44539H10.4546V10.5342H10.4545ZM8.41789 10.5342H7.40874H7.40849H7.40829H6.39914V11.0232H7.40829H7.40874H8.41789V10.5342ZM6.38129 10.5342H5.37214H5.37189H5.37169H4.36244V11.0232H5.37164H5.37209H6.38124L6.38129 10.5342ZM4.34464 10.5342H3.33544H3.33524H3.33499H2.32584V11.0232H3.33499H3.33544H4.34464V10.5342ZM23.6926 10.0304H22.6834H22.6832H22.683H21.6737V10.5193H22.683H22.6834H23.6926V10.0304ZM21.6559 10.0304H20.6467H20.6465H20.6463H19.6371V10.5193H20.6463H20.6467H21.6559V10.0304ZM19.6193 10.0304H18.6101H18.6099H18.6096H17.6005V10.5193H18.6096H18.6101H19.6193V10.0304ZM17.5827 10.0304H16.5735H16.5733H16.5731H15.5638V10.5193H16.5731H16.5735H17.5827L17.5827 10.0304ZM15.5461 10.0304H14.5369H14.5367H14.5364H13.5272V10.5193H14.5364H14.5369H15.5461V10.0304ZM13.5095 10.0304H12.5003H12.5H12.4998H11.4906V10.5193H12.4998H12.5002H13.5094V10.0304H13.5095ZM11.4728 10.0304H10.4637H10.4635H10.4632H9.45404V10.5193H10.4632H10.4637H11.4728V10.0304ZM9.43619 10.0304H8.42704H8.42679H8.42659H7.41739V10.5193H8.42659H8.42704H9.43619V10.0304ZM7.39959 10.0304H6.39039H6.39019H6.39H5.38079V10.5193H6.39H6.39044H7.39964V10.0304H7.39959ZM5.36295 10.0304H4.35379H4.35354H4.35334H3.34414V10.5193H4.35334H4.35379H5.36295V10.0304ZM3.32634 10.0304H2.31719H2.31694H2.31674H1.30749V10.5193H2.31669H2.31714H3.32629L3.32634 10.0304ZM22.6743 9.5266H21.6651H21.6649H21.6646H20.6554V10.0155H21.6646H21.6651H22.6743V9.5266ZM20.6377 9.5266H19.6285H19.6282H19.628H18.6188V10.0155H19.628H19.6285H20.6377V9.5266ZM18.601 9.5266H17.5918H17.5916H17.5914H16.5822V10.0155H17.5914H17.5918H18.601V9.5266ZM16.5643 9.5266H15.5552H15.5549H15.5547H14.5455V10.0155H15.5547H15.5552H16.5644L16.5643 9.5266ZM14.5278 9.5266H13.5186H13.5183H13.5181H12.5089V10.0155H13.5181H13.5186H14.5278V9.5266ZM12.4911 9.5266H11.482H11.4817H11.4815H10.4724V10.0155H11.4815H11.482H12.4912L12.4911 9.5266ZM10.4545 9.5266H9.44534H9.44514H9.44494H8.43574V10.0155H9.44494H9.44539H10.4546V9.5266H10.4545ZM8.41789 9.5266H7.40874H7.40849H7.40829H6.39914V10.0155H7.40829H7.40874H8.41789V9.5266ZM6.38129 9.5266H5.37214H5.37189H5.37169H4.36244V10.0155H5.37164H5.37209H6.38124L6.38129 9.5266ZM4.34464 9.5266H3.33544H3.33524H3.33499H2.32584V10.0155H3.33499H3.33544H4.34464V9.5266ZM23.6926 9.02275H22.6834H22.6832H22.683H21.6737V9.5117H22.683H22.6834H23.6926V9.02275ZM21.6559 9.02275H20.6467H20.6465H20.6463H19.6371V9.5117H20.6463H20.6467H21.6559V9.02275ZM19.6193 9.02275H18.6101H18.6099H18.6096H17.6005V9.5117H18.6096H18.6101H19.6193V9.02275ZM17.5827 9.02275H16.5735H16.5733H16.5731H15.5638V9.5117H16.5731H16.5735H17.5827L17.5827 9.02275ZM15.5461 9.02275H14.5369H14.5367H14.5364H13.5272V9.5117H14.5364H14.5369H15.5461V9.02275ZM13.5095 9.02275H12.5003H12.5H12.4998H11.4906V9.5117H12.4998H12.5002H13.5094V9.02275H13.5095ZM11.4728 9.02275H10.4637H10.4635H10.4632H9.45404V9.5117H10.4632H10.4637H11.4728V9.02275ZM9.43619 9.02275H8.42704H8.42679H8.42659H7.41739V9.5117H8.42659H8.42704H9.43619V9.02275ZM7.39959 9.02275H6.39039H6.39019H6.39H5.38079V9.5117H6.39H6.39044H7.39964V9.02275H7.39959ZM5.36295 9.02275H4.35379H4.35354H4.35334H3.34414V9.5117H4.35334H4.35379H5.36295V9.02275ZM3.32634 9.02275H2.31719H2.31694H2.31674H1.30749V9.5117H2.31669H2.31714H3.32629L3.32634 9.02275ZM22.6743 8.5189H21.6651H21.6649H21.6646H20.6554V9.00785H21.6646H21.6651H22.6743V8.5189ZM20.6377 8.5189H19.6285H19.6282H19.628H18.6188V9.00785H19.628H19.6285H20.6377V8.5189ZM18.601 8.5189H17.5918H17.5916H17.5914H16.5822V9.00785H17.5914H17.5918H18.601V8.5189ZM16.5643 8.5189H15.5552H15.5549H15.5547H14.5455V9.00785H15.5547H15.5552H16.5644L16.5643 8.5189ZM14.5278 8.5189H13.5186H13.5183H13.5181H12.5089V9.00785H13.5181H13.5186H14.5278V8.5189ZM12.4911 8.5189H11.482H11.4817H11.4815H10.4724V9.00785H11.4815H11.482H12.4912L12.4911 8.5189ZM10.4545 8.5189H9.44534H9.44514H9.44494H8.43574V9.00785H9.44494H9.44539H10.4546V8.5189H10.4545ZM8.41789 8.5189H7.40874H7.40849H7.40829H6.39914V9.00785H7.40829H7.40874H8.41789V8.5189ZM6.38129 8.5189H5.37214H5.37189H5.37169H4.36244V9.00785H5.37164H5.37209H6.38124L6.38129 8.5189ZM4.34464 8.5189H3.33544H3.33524H3.33499H2.32584V9.00785H3.33499H3.33544H4.34464V8.5189ZM23.6926 8.01505H22.6834H22.6832H22.683H21.6737V8.504H22.683H22.6834H23.6926V8.01505ZM21.6559 8.01505H20.6467H20.6465H20.6463H19.6371V8.504H20.6463H20.6467H21.6559V8.01505ZM19.6193 8.01505H18.6101H18.6099H18.6096H17.6005V8.504H18.6096H18.6101H19.6193V8.01505ZM17.5827 8.01505H16.5735H16.5733H16.5731H15.5638V8.504H16.5731H16.5735H17.5827L17.5827 8.01505ZM15.5461 8.01505H14.5369H14.5367H14.5364H13.5272V8.504H14.5364H14.5369H15.5461V8.01505ZM13.5095 8.01505H12.5003H12.5H12.4998H11.4906V8.504H12.4998H12.5002H13.5094V8.01505H13.5095ZM11.4728 8.01505H10.4637H10.4635H10.4632H9.45404V8.504H10.4632H10.4637H11.4728V8.01505ZM9.43619 8.01505H8.42704H8.42679H8.42659H7.41739V8.504H8.42659H8.42704H9.43619V8.01505ZM7.39959 8.01505H6.39039H6.39019H6.39H5.38079V8.504H6.39H6.39044H7.39964V8.01505H7.39959ZM5.36295 8.01505H4.35379H4.35354H4.35334H3.34414V8.504H4.35334H4.35379H5.36295V8.01505ZM3.32634 8.01505H2.31719H2.31694H2.31674H1.30749V8.504H2.31669H2.31714H3.32629L3.32634 8.01505ZM22.6743 7.51125H21.6651H21.6649H21.6646H20.6554V8.0002H21.6646H21.6651H22.6743V7.51125ZM20.6377 7.51125H19.6285H19.6282H19.628H18.6188V8.0002H19.628H19.6285H20.6377V7.51125ZM18.601 7.51125H17.5918H17.5916H17.5914H16.5822V8.0002H17.5914H17.5918H18.601V7.51125ZM16.5643 7.51125H15.5552H15.5549H15.5547H14.5455V8.0002H15.5547H15.5552H16.5644L16.5643 7.51125ZM14.5278 7.51125H13.5186H13.5183H13.5181H12.5089V8.0002H13.5181H13.5186H14.5278V7.51125ZM12.4911 7.51125H11.482H11.4817H11.4815H10.4724V8.0002H11.4815H11.482H12.4912L12.4911 7.51125ZM10.4545 7.51125H9.44534H9.44514H9.44494H8.43574V8.0002H9.44494H9.44539H10.4546V7.51125H10.4545ZM8.41789 7.51125H7.40874H7.40849H7.40829H6.39914V8.0002H7.40829H7.40874H8.41789V7.51125ZM6.38129 7.51125H5.37214H5.37189H5.37169H4.36244V8.0002H5.37164H5.37209H6.38124L6.38129 7.51125ZM4.34464 7.51125H3.33544H3.33524H3.33499H2.32584V8.0002H3.33499H3.33544H4.34464V7.51125ZM23.6926 7.0074H22.6834H22.6832H22.683H21.6737V7.49635H22.683H22.6834H23.6926V7.0074ZM21.6559 7.0074H20.6467H20.6465H20.6463H19.6371V7.49635H20.6463H20.6467H21.6559V7.0074ZM19.6193 7.0074H18.6101H18.6099H18.6096H17.6005V7.49635H18.6096H18.6101H19.6193V7.0074ZM17.5827 7.0074H16.5735H16.5733H16.5731H15.5638V7.49635H16.5731H16.5735H17.5827L17.5827 7.0074ZM15.5461 7.0074H14.5369H14.5367H14.5364H13.5272V7.49635H14.5364H14.5369H15.5461V7.0074ZM13.5095 7.0074H12.5003H12.5H12.4998H11.4906V7.49635H12.4998H12.5002H13.5094V7.0074H13.5095ZM11.4728 7.0074H10.4637H10.4635H10.4632H9.45404V7.49635H10.4632H10.4637H11.4728V7.0074ZM9.43619 7.0074H8.42704H8.42679H8.42659H7.41739V7.49635H8.42659H8.42704H9.43619V7.0074ZM7.39959 7.0074H6.39039H6.39019H6.39H5.38079V7.49635H6.39H6.39044H7.39964V7.0074H7.39959ZM5.36295 7.0074H4.35379H4.35354H4.35334H3.34414V7.49635H4.35334H4.35379H5.36295V7.0074ZM3.32634 7.0074H2.31719H2.31694H2.31674H1.30749V7.49635H2.31669H2.31714H3.32629L3.32634 7.0074ZM22.6743 6.50355H21.6651H21.6649H21.6646H20.6554V6.9925H21.6646H21.6651H22.6743V6.50355ZM20.6377 6.50355H19.6285H19.6282H19.628H18.6188V6.9925H19.628H19.6285H20.6377V6.50355ZM18.601 6.50355H17.5918H17.5916H17.5914H16.5822V6.9925H17.5914H17.5918H18.601V6.50355ZM16.5643 6.50355H15.5552H15.5549H15.5547H14.5455V6.9925H15.5547H15.5552H16.5644L16.5643 6.50355ZM14.5278 6.50355H13.5186H13.5183H13.5181H12.5089V6.9925H13.5181H13.5186H14.5278V6.50355ZM12.4911 6.50355H11.482H11.4817H11.4815H10.4724V6.9925H11.4815H11.482H12.4912L12.4911 6.50355ZM10.4545 6.50355H9.44534H9.44514H9.44494H8.43574V6.9925H9.44494H9.44539H10.4546V6.50355H10.4545ZM8.41789 6.50355H7.40874H7.40849H7.40829H6.39914V6.9925H7.40829H7.40874H8.41789V6.50355ZM6.38129 6.50355H5.37214H5.37189H5.37169H4.36244V6.9925H5.37164H5.37209H6.38124L6.38129 6.50355ZM4.34464 6.50355H3.33544H3.33524H3.33499H2.32584V6.9925H3.33499H3.33544H4.34464V6.50355ZM23.6926 5.99975H22.6834H22.6832H22.683H21.6737V6.4887H22.683H22.6834H23.6926V5.99975ZM21.6559 5.99975H20.6467H20.6465H20.6463H19.6371V6.4887H20.6463H20.6467H21.6559V5.99975ZM19.6193 5.99975H18.6101H18.6099H18.6096H17.6005V6.4887H18.6096H18.6101H19.6193V5.99975ZM17.5827 5.99975H16.5735H16.5733H16.5731H15.5638V6.4887H16.5731H16.5735H17.5827L17.5827 5.99975ZM15.5461 5.99975H14.5369H14.5367H14.5364H13.5272V6.4887H14.5364H14.5369H15.5461V5.99975ZM13.5095 5.99975H12.5003H12.5H12.4998H11.4906V6.4887H12.4998H12.5002H13.5094V5.99975H13.5095ZM11.4728 5.99975H10.4637H10.4635H10.4632H9.45404V6.4887H10.4632H10.4637H11.4728V5.99975ZM9.43619 5.99975H8.42704H8.42679H8.42659H7.41739V6.4887H8.42659H8.42704H9.43619V5.99975ZM7.39959 5.99975H6.39039H6.39019H6.39H5.38079V6.4887H6.39H6.39044H7.39964V5.99975H7.39959ZM5.36295 5.99975H4.35379H4.35354H4.35334H3.34414V6.4887H4.35334H4.35379H5.36295V5.99975ZM3.32634 5.99975H2.31719H2.31694H2.31674H1.30749V6.4887H2.31669H2.31714H3.32629L3.32634 5.99975ZM22.6743 5.4959H21.6651H21.6649H21.6646H20.6554V5.98485H21.6646H21.6651H22.6743V5.4959ZM20.6377 5.4959H19.6285H19.6282H19.628H18.6188V5.98485H19.628H19.6285H20.6377V5.4959ZM18.601 5.4959H17.5918H17.5916H17.5914H16.5822V5.98485H17.5914H17.5918H18.601V5.4959ZM16.5643 5.4959H15.5552H15.5549H15.5547H14.5455V5.98485H15.5547H15.5552H16.5644L16.5643 5.4959ZM14.5278 5.4959H13.5186H13.5183H13.5181H12.5089V5.98485H13.5181H13.5186H14.5278V5.4959ZM12.4911 5.4959H11.482H11.4817H11.4815H10.4724V5.98485H11.4815H11.482H12.4912L12.4911 5.4959ZM10.4545 5.4959H9.44534H9.44514H9.44494H8.43574V5.98485H9.44494H9.44539H10.4546V5.4959H10.4545ZM8.41789 5.4959H7.40874H7.40849H7.40829H6.39914V5.98485H7.40829H7.40874H8.41789V5.4959ZM6.38129 5.4959H5.37214H5.37189H5.37169H4.36244V5.98485H5.37164H5.37209H6.38124L6.38129 5.4959ZM4.34464 5.4959H3.33544H3.33524H3.33499H2.32584V5.98485H3.33499H3.33544H4.34464V5.4959ZM23.6926 4.99205H22.6834H22.6832H22.683H21.6737V5.481H22.683H22.6834H23.6926V4.99205ZM21.6559 4.99205H20.6467H20.6465H20.6463H19.6371V5.481H20.6463H20.6467H21.6559V4.99205ZM19.6193 4.99205H18.6101H18.6099H18.6096H17.6005V5.481H18.6096H18.6101H19.6193V4.99205ZM17.5827 4.99205H16.5735H16.5733H16.5731H15.5638V5.481H16.5731H16.5735H17.5827L17.5827 4.99205ZM15.5461 4.99205H14.5369H14.5367H14.5364H13.5272V5.481H14.5364H14.5369H15.5461V4.99205ZM13.5095 4.99205H12.5003H12.5H12.4998H11.4906V5.481H12.4998H12.5002H13.5094V4.99205H13.5095ZM11.4728 4.99205H10.4637H10.4635H10.4632H9.45404V5.481H10.4632H10.4637H11.4728V4.99205ZM9.43619 4.99205H8.42704H8.42679H8.42659H7.41739V5.481H8.42659H8.42704H9.43619V4.99205ZM7.39959 4.99205H6.39039H6.39019H6.39H5.38079V5.481H6.39H6.39044H7.39964V4.99205H7.39959ZM5.36295 4.99205H4.35379H4.35354H4.35334H3.34414V5.481H4.35334H4.35379H5.36295V4.99205ZM3.32634 4.99205H2.31719H2.31694H2.31674H1.30749V5.481H2.31669H2.31714H3.32629L3.32634 4.99205ZM22.6743 4.4882H21.6651H21.6649H21.6646H20.6554V4.97715H21.6646H21.6651H22.6743V4.4882ZM20.6377 4.4882H19.6285H19.6282H19.628H18.6188V4.97715H19.628H19.6285H20.6377V4.4882ZM18.601 4.4882H17.5918H17.5916H17.5914H16.5822V4.97715H17.5914H17.5918H18.601V4.4882ZM16.5643 4.4882H15.5552H15.5549H15.5547H14.5455V4.97715H15.5547H15.5552H16.5644L16.5643 4.4882ZM14.5278 4.4882H13.5186H13.5183H13.5181H12.5089V4.97715H13.5181H13.5186H14.5278V4.4882ZM12.4911 4.4882H11.482H11.4817H11.4815H10.4724V4.97715H11.4815H11.482H12.4912L12.4911 4.4882ZM10.4545 4.4882H9.44534H9.44514H9.44494H8.43574V4.97715H9.44494H9.44539H10.4546V4.4882H10.4545ZM8.41789 4.4882H7.40874H7.40849H7.40829H6.39914V4.97715H7.40829H7.40874H8.41789V4.4882ZM6.38129 4.4882H5.37214H5.37189H5.37169H4.36244V4.97715H5.37164H5.37209H6.38124L6.38129 4.4882ZM4.34464 4.4882H3.33544H3.33524H3.33499H2.32584V4.97715H3.33499H3.33544H4.34464V4.4882ZM23.6926 3.98435H22.6834H22.6832H22.683H21.6737V4.4733H22.683H22.6834H23.6926V3.98435ZM21.6559 3.98435H20.6467H20.6465H20.6463H19.6371V4.4733H20.6463H20.6467H21.6559V3.98435ZM19.6193 3.98435H18.6101H18.6099H18.6096H17.6005V4.4733H18.6096H18.6101H19.6193V3.98435ZM17.5827 3.98435H16.5735H16.5733H16.5731H15.5638V4.4733H16.5731H16.5735H17.5827L17.5827 3.98435ZM15.5461 3.98435H14.5369H14.5367H14.5364H13.5272V4.4733H14.5364H14.5369H15.5461V3.98435ZM13.5095 3.98435H12.5003H12.5H12.4998H11.4906V4.4733H12.4998H12.5002H13.5094V3.98435H13.5095ZM11.4728 3.98435H10.4637H10.4635H10.4632H9.45404V4.4733H10.4632H10.4637H11.4728V3.98435ZM9.43619 3.98435H8.42704H8.42679H8.42659H7.41739V4.4733H8.42659H8.42704H9.43619V3.98435ZM7.39959 3.98435H6.39039H6.39019H6.39H5.38079V4.4733H6.39H6.39044H7.39964V3.98435H7.39959ZM5.36295 3.98435H4.35379H4.35354H4.35334H3.34414V4.4733H4.35334H4.35379H5.36295V3.98435ZM3.32634 3.98435H2.31719H2.31694H2.31674H1.30749V4.4733H2.31669H2.31714H3.32629L3.32634 3.98435ZM22.6743 3.48055H21.6651H21.6649H21.6646H20.6554V3.9695H21.6646H21.6651H22.6743V3.48055ZM20.6377 3.48055H19.6285H19.6282H19.628H18.6188V3.9695H19.628H19.6285H20.6377V3.48055ZM18.601 3.48055H17.5918H17.5916H17.5914H16.5822V3.9695H17.5914H17.5918H18.601V3.48055ZM16.5643 3.48055H15.5552H15.5549H15.5547H14.5455V3.9695H15.5547H15.5552H16.5644L16.5643 3.48055ZM14.5278 3.48055H13.5186H13.5183H13.5181H12.5089V3.9695H13.5181H13.5186H14.5278V3.48055ZM12.4911 3.48055H11.482H11.4817H11.4815H10.4724V3.9695H11.4815H11.482H12.4912L12.4911 3.48055ZM10.4545 3.48055H9.44534H9.44514H9.44494H8.43574V3.9695H9.44494H9.44539H10.4546V3.48055H10.4545ZM8.41789 3.48055H7.40874H7.40849H7.40829H6.39914V3.9695H7.40829H7.40874H8.41789V3.48055ZM6.38129 3.48055H5.37214H5.37189H5.37169H4.36244V3.9695H5.37164H5.37209H6.38124L6.38129 3.48055ZM4.34464 3.48055H3.33544H3.33524H3.33499H2.32584V3.9695H3.33499H3.33544H4.34464V3.48055ZM23.6926 2.9767H22.6834H22.6832H22.683H21.6737V3.46565H22.683H22.6834H23.6926V2.9767ZM21.6559 2.9767H20.6467H20.6465H20.6463H19.6371V3.46565H20.6463H20.6467H21.6559V2.9767ZM19.6193 2.9767H18.6101H18.6099H18.6096H17.6005V3.46565H18.6096H18.6101H19.6193V2.9767ZM17.5827 2.9767H16.5735H16.5733H16.5731H15.5638V3.46565H16.5731H16.5735H17.5827L17.5827 2.9767ZM15.5461 2.9767H14.5369H14.5367H14.5364H13.5272V3.46565H14.5364H14.5369H15.5461V2.9767ZM13.5095 2.9767H12.5003H12.5H12.4998H11.4906V3.46565H12.4998H12.5002H13.5094V2.9767H13.5095ZM11.4728 2.9767H10.4637H10.4635H10.4632H9.45404V3.46565H10.4632H10.4637H11.4728V2.9767ZM9.43619 2.9767H8.42704H8.42679H8.42659H7.41739V3.46565H8.42659H8.42704H9.43619V2.9767ZM7.39959 2.9767H6.39039H6.39019H6.39H5.38079V3.46565H6.39H6.39044H7.39964V2.9767H7.39959ZM5.36295 2.9767H4.35379H4.35354H4.35334H3.34414V3.46565H4.35334H4.35379H5.36295V2.9767ZM3.32634 2.9767H2.31719H2.31694H2.31674H1.30749V3.46565H2.31669H2.31714H3.32629L3.32634 2.9767ZM22.6743 2.4729H21.6651H21.6649H21.6646H20.6554V2.9618H21.6646H21.6651H22.6743V2.4729ZM20.6377 2.4729H19.6285H19.6282H19.628H18.6188V2.9618H19.628H19.6285H20.6377V2.4729ZM18.601 2.4729H17.5918H17.5916H17.5914H16.5822V2.9618H17.5914H17.5918H18.601V2.4729ZM16.5643 2.4729H15.5552H15.5549H15.5547H14.5455V2.9618H15.5547H15.5552H16.5644L16.5643 2.4729ZM14.5278 2.4729H13.5186H13.5183H13.5181H12.5089V2.9618H13.5181H13.5186H14.5278V2.4729ZM12.4911 2.4729H11.482H11.4817H11.4815H10.4724V2.9618H11.4815H11.482H12.4912L12.4911 2.4729ZM10.4545 2.4729H9.44534H9.44514H9.44494H8.43574V2.9618H9.44494H9.44539H10.4546V2.4729H10.4545ZM8.41789 2.4729H7.40874H7.40849H7.40829H6.39914V2.9618H7.40829H7.40874H8.41789V2.4729ZM6.38129 2.4729H5.37214H5.37189H5.37169H4.36244V2.9618H5.37164H5.37209H6.38124L6.38129 2.4729ZM4.34464 2.4729H3.33544H3.33524H3.33499H2.32584V2.9618H3.33499H3.33544H4.34464V2.4729Z" fill="#E3A9AB"/>
<path fill-rule="evenodd" clip-rule="evenodd" d="M2.61515 11.0402C2.1671 11.4618 1.46205 11.4403 1.04045 10.9923C0.618851 10.5442 0.640351 9.83916 1.08845 9.41756C2.11865 8.45226 3.0607 8.83341 4.7318 9.50956C5.58665 9.85541 6.70495 10.3079 8.1653 10.6724C9.8524 11.0934 11.4337 11.0386 12.9798 10.6683C14.5792 10.2852 16.1684 9.56096 17.8065 8.66966C21.7276 6.53606 25.3257 8.20301 25.3361 8.20776C25.8975 8.46071 26.1475 9.12081 25.8945 9.68216C25.6415 10.2435 24.9814 10.4935 24.4201 10.2405C24.4125 10.2371 21.8043 9.02771 18.8708 10.6239C17.0817 11.5975 15.3224 12.3941 13.4946 12.8319C11.6134 13.2825 9.6885 13.3489 7.6332 12.836C5.99495 12.4271 4.8044 11.9454 3.8944 11.5772C3.0671 11.2425 2.6296 11.0267 2.61515 11.0402Z" fill="white"/>
<path fill-rule="evenodd" clip-rule="evenodd" d="M4.2667 15.9441C4.18045 15.9441 4.09775 15.9597 4.0214 15.9881C3.9869 15.95 3.93705 15.9261 3.8816 15.9261C3.8558 15.9261 3.8312 15.9313 3.80875 15.9407C3.7964 15.7782 3.66065 15.6502 3.4949 15.6502C3.423 15.6502 3.35665 15.6743 3.30365 15.7149C3.2697 15.6682 3.2147 15.6379 3.15255 15.6379C3.1422 15.6379 3.132 15.6388 3.1221 15.6404C3.1431 15.5914 3.15475 15.5373 3.15475 15.4807C3.15475 15.2563 2.97285 15.0744 2.7485 15.0744C2.70675 15.0744 2.66645 15.0807 2.62845 15.0924C2.59905 15.0296 2.53525 14.9862 2.4613 14.9862L2.45595 14.9862C2.4568 14.9716 2.4573 14.9569 2.4573 14.942C2.4573 14.5388 2.13045 14.2119 1.7272 14.2119C1.324 14.2119 0.997153 14.5388 0.997153 14.942C0.997153 14.9476 0.997203 14.9533 0.997353 14.9589C0.962103 14.95 0.925203 14.9452 0.887203 14.9452C0.811653 14.9452 0.740503 14.964 0.678053 14.997C0.571653 14.8518 0.399903 14.7575 0.206053 14.7575C-0.116947 14.7575 -0.378797 15.0193 -0.378797 15.3423C-0.378797 15.4058 -0.368597 15.467 -0.349897 15.5242C-0.355747 15.5238 -0.361647 15.5236 -0.367547 15.5236C-0.526647 15.5236 -0.655547 15.6526 -0.655547 15.8117C-0.655547 15.8303 -0.653747 15.8486 -0.650347 15.8663C-0.652347 15.8663 -0.654347 15.8662 -0.656347 15.8662C-0.746247 15.8662 -0.819447 15.9375 -0.822347 16.0267C-0.847297 16.022 -0.873047 16.0194 -0.899347 16.0194C-1.00325 16.0194 -1.1004 16.0556 -1.1703 16.1217C-1.35735 16.2986 -1.1531 16.3446 -0.956297 16.3446H-0.699647H-0.498147H3.63115H3.95345H4.483C4.68815 16.3446 4.9812 16.3782 4.7776 16.1637C4.6493 16.0284 4.4678 15.9441 4.2667 15.9441Z" fill="white"/>
<path fill-rule="evenodd" clip-rule="evenodd" d="M1.02557 13.3179C0.907524 13.4161 0.732274 13.3999 0.634074 13.2818C0.535924 13.1638 0.552024 12.9886 0.670074 12.8904C1.20867 12.4432 2.30072 11.9753 3.87687 11.9387C5.00187 11.9126 6.38162 12.1035 7.99207 12.6774C9.81897 13.3285 11.5297 13.4521 13.2013 13.2302C14.8838 13.0069 16.5348 12.4327 18.2276 11.6924C21.7825 10.1377 25.004 11.9748 25.0135 11.98C25.1478 12.0547 25.1961 12.2241 25.1214 12.3584C25.0467 12.4927 24.8773 12.541 24.743 12.4664C24.7343 12.4615 21.7498 10.7596 18.4501 12.2027C16.7156 12.9614 15.0179 13.5504 13.2733 13.782C11.5176 14.0151 9.72222 13.8856 7.80667 13.2031C6.26392 12.6533 4.95182 12.4701 3.88777 12.4949C2.45672 12.5281 1.49012 12.9322 1.02557 13.3179Z" fill="white"/>
<path fill-rule="evenodd" clip-rule="evenodd" d="M13.4294 6.74411C13.5436 6.74411 13.653 6.76471 13.754 6.80226C13.7997 6.75196 13.8656 6.72031 13.939 6.72031C13.9732 6.72031 14.0058 6.72721 14.0354 6.73961C14.0518 6.52446 14.2315 6.35506 14.4508 6.35506C14.546 6.35506 14.6337 6.38701 14.7039 6.44076C14.7488 6.37901 14.8217 6.33881 14.9039 6.33881C14.9176 6.33881 14.9311 6.33996 14.9442 6.34211C14.9164 6.27721 14.9011 6.20571 14.9011 6.13066C14.9011 5.83376 15.1417 5.59306 15.4387 5.59306C15.494 5.59306 15.5473 5.60136 15.5976 5.61691C15.6365 5.53381 15.7209 5.47626 15.8188 5.47626L15.8259 5.47636C15.8248 5.45701 15.8241 5.43751 15.8241 5.41786C15.8241 4.88421 16.2567 4.45166 16.7903 4.45166C17.3239 4.45166 17.7564 4.88421 17.7564 5.41786C17.7564 5.42531 17.7563 5.43276 17.7561 5.44016C17.8028 5.42836 17.8516 5.42206 17.902 5.42206C18.002 5.42206 18.096 5.44686 18.1786 5.49056C18.3195 5.29846 18.5468 5.17366 18.8032 5.17366C19.2308 5.17366 19.5772 5.52016 19.5772 5.94761C19.5772 6.03166 19.5637 6.11256 19.5389 6.18831C19.5467 6.18786 19.5545 6.18756 19.5624 6.18756C19.7729 6.18756 19.9435 6.35816 19.9435 6.56866C19.9435 6.59341 19.9411 6.61756 19.9366 6.64096C19.9392 6.64091 19.9419 6.64081 19.9446 6.64081C20.0635 6.64081 20.1604 6.73526 20.1643 6.85326C20.1973 6.84696 20.2313 6.84366 20.2662 6.84366C20.4037 6.84366 20.5322 6.89151 20.6248 6.97901C20.8723 7.21321 20.602 7.27406 20.3416 7.27406H20.0019H19.7353H14.2704H13.8439H13.1431C12.8716 7.27406 12.4838 7.31851 12.7532 7.03461C12.923 6.85571 13.1632 6.74411 13.4294 6.74411Z" fill="white"/>
</g>
<path fill-rule="evenodd" clip-rule="evenodd" d="M4.03206 20.1819C2.13221 19.4175 1.30346 17.9597 1.26611 16.3823H23.7323C23.6891 17.4538 23.2007 18.5855 22.0096 19.7271L17.5086 20.4225H6.98011L4.03206 20.1819Z" fill="#E8BAC8"/>
<path fill-rule="evenodd" clip-rule="evenodd" d="M23.1804 19.7827H1.81951C1.60006 19.7827 1.42041 19.9623 1.42041 20.1818C1.42041 20.4013 1.60001 20.5809 1.81951 20.5809H3.72401C3.94921 20.5809 4.13341 20.7651 4.13341 20.9903C4.13341 21.2155 3.94921 21.3997 3.72401 21.3997H2.93901C2.79916 21.3997 2.68476 21.5142 2.68476 21.6541C2.68476 21.7939 2.79916 21.9084 2.93901 21.9084C8.37306 21.9084 14.7512 21.9084 20.1852 21.9084C20.4138 21.9084 20.6008 21.7214 20.6008 21.4928C20.6008 21.2642 20.4138 21.0772 20.1852 21.0772H18.2853C18.1489 21.0772 18.0372 20.9655 18.0372 20.8291V20.829C18.0372 20.6926 18.1488 20.5809 18.2853 20.5809H23.1804C23.3999 20.5809 23.5795 20.4013 23.5795 20.1818C23.5795 19.9623 23.3998 19.7827 23.1804 19.7827ZM21.3545 21.9084C21.1276 21.9084 20.9419 21.7227 20.9419 21.4959V21.4897C20.9419 21.2628 21.1276 21.0772 21.3545 21.0772C21.5814 21.0772 21.767 21.2628 21.767 21.4897V21.4959C21.767 21.7227 21.5814 21.9084 21.3545 21.9084Z" fill="#1D3F4D"/>
<path fill-rule="evenodd" clip-rule="evenodd" d="M19.5326 13.3096C20.1391 12.692 20.5903 13.4765 20.5273 14.2639C20.4677 15.0105 19.8241 17.572 19.9433 18.6497H19.6969C19.0942 17.2677 18.7562 14.1001 19.5326 13.3096Z" fill="#638C9A"/>
<path fill-rule="evenodd" clip-rule="evenodd" d="M19.7876 18.6495C19.2009 16.4714 19.9437 13.4607 19.9461 13.4505C19.9507 13.4318 19.9696 13.4203 19.9882 13.4248C20.0069 13.4294 20.0184 13.4482 20.0139 13.4669C20.0114 13.4772 19.2677 16.4913 19.8589 18.6495H19.7876Z" fill="#92B8C9"/>
<path fill-rule="evenodd" clip-rule="evenodd" d="M21.029 14.6707C21.6681 14.3321 21.8293 15.071 21.5801 15.6822C21.3736 16.1888 20.4614 17.6871 20.1165 18.6498H19.7916C19.764 17.3194 20.2746 15.0704 21.029 14.6707Z" fill="#1D3F4D"/>
<path fill-rule="evenodd" clip-rule="evenodd" d="M19.9102 18.6499C20.1217 16.8505 21.3183 14.8946 21.3227 14.8875C21.331 14.8738 21.3488 14.8694 21.3626 14.8778C21.3764 14.8861 21.3807 14.904 21.3724 14.9178C21.3682 14.9248 20.1791 16.8681 19.968 18.6499H19.9102V18.6499Z" fill="#7BA7B5"/>
<path fill-rule="evenodd" clip-rule="evenodd" d="M18.3276 15.5244C17.7081 15.2538 17.61 15.9537 17.8852 16.5058C18.0714 16.8793 18.7424 17.8359 19.1943 18.6495H19.7101C19.5337 17.4185 18.9679 15.8041 18.3276 15.5244Z" fill="#7BA7B5"/>
<path fill-rule="evenodd" clip-rule="evenodd" d="M19.5261 18.6497C19.0863 17.1584 18.0734 15.7529 18.0694 15.7472C18.0607 15.735 18.0437 15.7322 18.0314 15.7409C18.0192 15.7497 18.0163 15.7667 18.0251 15.7789C18.0291 15.7845 19.0313 17.1753 19.47 18.6497H19.5261Z" fill="#1D3F4D"/>
<path fill-rule="evenodd" clip-rule="evenodd" d="M20.5035 18.1572H18.6886C18.6343 18.1572 18.5898 18.2016 18.5898 18.2559V18.704C18.5898 18.7583 18.6343 18.8027 18.6886 18.8027H20.5035C20.5578 18.8027 20.6022 18.7583 20.6022 18.704V18.2559C20.6022 18.2016 20.5578 18.1572 20.5035 18.1572Z" fill="#B62351"/>
<path fill-rule="evenodd" clip-rule="evenodd" d="M20.1921 18.5215H18.9998L18.6885 18.8024L18.9428 19.782H19.596H20.2491L20.5034 18.8024L20.1921 18.5215Z" fill="#B62351"/>
<path fill-rule="evenodd" clip-rule="evenodd" d="M18.6885 18.8027L18.7407 19.0041L20.3652 19.3351L20.5034 18.8027H18.6885Z" fill="#97234E"/>
<path fill-rule="evenodd" clip-rule="evenodd" d="M5.2438 12.6061L4.82845 12.1557C4.82845 12.1557 4.7729 12.1063 4.7375 12.1576C4.7021 12.2088 4.7657 12.3095 4.79405 12.3617C4.8224 12.4138 5.01105 12.7812 5.01105 12.7812L5.27375 12.7463L5.2438 12.6061Z" fill="#D6725F"/>
<path fill-rule="evenodd" clip-rule="evenodd" d="M5.12835 12.5944L4.5545 12.2275C4.5545 12.2275 4.4808 12.1901 4.45725 12.2552C4.4337 12.3204 4.5305 12.4106 4.5757 12.4587C4.62095 12.5067 4.92755 12.8485 4.92755 12.8485L5.20015 12.7368L5.12835 12.5944Z" fill="#D6725F"/>
<path fill-rule="evenodd" clip-rule="evenodd" d="M19.7088 12.6061L20.1242 12.1557C20.1242 12.1557 20.1796 12.1063 20.215 12.1576C20.2504 12.2088 20.1868 12.3095 20.1585 12.3617C20.1302 12.4138 19.9415 12.7812 19.9415 12.7812L19.6787 12.7463L19.7088 12.6061Z" fill="#D6725F"/>
<path fill-rule="evenodd" clip-rule="evenodd" d="M19.8242 12.5944L20.3979 12.2275C20.3979 12.2275 20.4717 12.1901 20.4952 12.2552C20.5188 12.3204 20.422 12.4106 20.3768 12.4587C20.3316 12.5067 20.025 12.8485 20.025 12.8485L19.7524 12.7368L19.8242 12.5944Z" fill="#D6725F"/>
<path fill-rule="evenodd" clip-rule="evenodd" d="M11.6918 5.31668C13.1944 3.49058 15.1798 5.55298 14.1235 7.93583C14.025 8.12188 16.5651 10.6218 13.9358 12.0258C12.5854 12.7469 10.5848 11.3178 10.5848 11.3178C9.2678 9.34948 10.9692 8.21453 10.9526 7.94278C10.9324 7.61368 10.8274 7.30698 10.6207 6.82088C10.2791 6.01748 10.8976 5.09403 11.6918 5.31668Z" fill="#30295E"/>
<path fill-rule="evenodd" clip-rule="evenodd" d="M10.5623 12.8469C10.5623 12.8469 8.74946 15.3292 8.40971 15.2532C8.06996 15.1773 4.48056 12.6271 4.39801 12.5653C4.31546 12.5033 4.34731 12.3949 4.43471 12.4015C4.52216 12.4081 4.98286 12.6626 5.01266 12.6826C5.04246 12.7026 5.04456 12.6718 5.04456 12.6718C4.95596 12.2621 5.32766 12.1634 5.42561 12.1571C5.52356 12.1508 5.59776 12.1938 5.59721 12.2454C5.59661 12.2968 5.52201 12.3178 5.52201 12.3178C5.29231 12.342 5.23766 12.5386 5.32726 12.6689C5.41681 12.7992 5.61106 12.8663 5.75781 12.7382C5.90456 12.6101 5.79471 12.4402 5.74996 12.3903C5.70526 12.3404 5.65976 12.2877 5.70811 12.2393C5.75641 12.1909 5.80771 12.235 5.80771 12.235C6.27361 12.5578 6.04201 12.9284 6.04201 12.9284C6.04201 12.9284 5.99436 13.0585 6.10601 13.1324C6.21761 13.2063 8.09631 14.1236 8.22481 14.135C8.32081 14.1435 9.24191 12.3187 9.77946 11.2229C10.0409 10.6899 10.4124 10.0699 10.9272 9.90674C10.9272 9.90674 11.3618 10.8262 10.5623 12.8469Z" fill="#E6AD83"/>
<path fill-rule="evenodd" clip-rule="evenodd" d="M14.438 12.8471C14.438 12.8471 16.2507 15.3293 16.5905 15.2534C16.9302 15.1775 20.5196 12.6272 20.6022 12.5654C20.6847 12.5035 20.6529 12.3951 20.5654 12.4017C20.478 12.4083 20.0173 12.6627 19.9876 12.6827C19.9578 12.7028 19.9555 12.6719 19.9555 12.6719C20.0441 12.2623 19.6725 12.1635 19.5745 12.1572C19.4766 12.151 19.4023 12.194 19.4029 12.2455C19.4034 12.2969 19.4781 12.318 19.4781 12.318C19.7079 12.3421 19.7624 12.5388 19.673 12.6691C19.5833 12.7993 19.389 12.8664 19.2424 12.7383C19.0957 12.6103 19.2054 12.4403 19.2502 12.3904C19.2949 12.3405 19.3404 12.2879 19.292 12.2394C19.2438 12.191 19.1924 12.2351 19.1924 12.2351C18.7265 12.558 18.9582 12.9285 18.9582 12.9285C18.9582 12.9285 19.0058 13.0586 18.8942 13.1326C18.7826 13.2065 16.9039 14.1238 16.7755 14.1352C16.6794 14.1436 15.7582 12.3189 15.2208 11.223C14.9594 10.6901 14.592 10.0622 14.0771 9.89893C14.0771 9.89893 13.6385 10.8263 14.438 12.8471Z" fill="#E6AD83"/>
<path fill-rule="evenodd" clip-rule="evenodd" d="M15.1856 16.877L18.1919 17.0454C18.1919 17.0454 17.9506 17.9358 17.9163 18.0341C17.882 18.1324 12.5044 19.6873 12.5044 19.6873C12.5044 19.6873 7.12674 18.1323 7.09244 18.0341C7.05814 17.9358 6.81689 17.0454 6.81689 17.0454L9.82309 16.877H15.1856Z" fill="#B62351"/>
<path fill-rule="evenodd" clip-rule="evenodd" d="M15.1254 19.7502C15.1254 19.7502 15.2829 19.5769 15.3882 19.5652C15.4937 19.5534 17.0878 20.0397 17.3046 20.1101C17.7078 20.2408 17.8412 21.3911 16.8884 21.2704C16.4724 21.2176 15.4117 21.0711 15.2301 21.0242C15.0483 20.9773 14.9917 20.6878 14.9917 20.6878L15.1254 19.7502Z" fill="#B62351"/>
<path fill-rule="evenodd" clip-rule="evenodd" d="M13.1262 9.71777L14.0691 9.88977L14.2532 11.2805C14.2532 11.2805 14.4759 11.9602 14.4994 12.2005C14.5228 12.4408 14.2355 13.0443 14.1417 13.2903C14.048 13.5365 14.0481 14.896 14.0597 14.9897C14.0714 15.0835 14.7071 16.8771 14.7071 16.8771C14.7071 16.8771 14.2457 17.3513 12.5044 17.3513C10.7631 17.3513 10.3018 16.8771 10.3018 16.8771C10.3018 16.8771 10.9374 15.0835 10.9491 14.9897C10.9607 14.896 10.9608 13.5365 10.867 13.2903C10.7733 13.0442 10.486 12.4407 10.5094 12.2005C10.5329 11.9602 10.7556 11.2805 10.7556 11.2805L10.9396 9.88977L11.8825 9.71777L12.5043 10.3252L13.1262 9.71777Z" fill="#CF5392"/>
<path fill-rule="evenodd" clip-rule="evenodd" d="M7.40225 17.1366C7.40225 17.1366 15.1328 19.7429 15.3265 19.8206C15.4947 19.8883 15.6527 20.7757 14.9919 20.6876C14.7147 20.6507 7.82985 19.3939 7.1674 19.237C5.62525 18.8719 5.7028 16.5458 7.40225 17.1366Z" fill="#E6AD83"/>
<path fill-rule="evenodd" clip-rule="evenodd" d="M13.2232 19.103C14.3787 19.4945 15.2624 19.7952 15.3264 19.8207C15.4296 19.8622 15.529 20.2125 15.4375 20.4566C15.3766 20.5229 15.3023 20.5965 15.2206 20.6731C15.1584 20.6933 15.0828 20.6998 14.9917 20.6877C14.8669 20.6711 13.4038 20.4074 11.772 20.1081L13.2232 19.103Z" fill="#D6725F"/>
<path fill-rule="evenodd" clip-rule="evenodd" d="M14.7073 19.6064C14.6933 19.8373 14.6411 20.2396 14.4546 20.5944C14.7559 20.648 14.95 20.6818 14.9921 20.6873C15.653 20.7754 15.4949 19.888 15.3267 19.8203C15.2955 19.8079 15.0675 19.7293 14.7073 19.6064Z" fill="white"/>
<path fill-rule="evenodd" clip-rule="evenodd" d="M14.7073 19.6064C14.6933 19.8373 14.6411 20.2396 14.4546 20.5944L14.7018 20.6381C14.9259 20.2867 14.9524 19.8946 14.9477 19.6886L14.7073 19.6064Z" fill="#DEDAE3"/>
<path fill-rule="evenodd" clip-rule="evenodd" d="M15.5858 19.9333C15.5829 19.9225 15.5892 19.9113 15.5998 19.9084C15.6106 19.9055 15.6217 19.9117 15.6247 19.9225L15.7554 20.393L15.9567 20.1413L15.923 20.0203C15.9201 20.0095 15.9264 19.9984 15.9371 19.9955C15.9479 19.9925 15.959 19.9988 15.9619 20.0095L15.9878 20.1025L16.0183 20.0643C16.0252 20.0556 16.0379 20.0543 16.0467 20.0611C16.0553 20.0681 16.0566 20.0808 16.0497 20.0894L16.0011 20.1503L16.0874 20.4609L16.2887 20.2093L16.2604 20.1072C16.2574 20.0965 16.2637 20.0853 16.2744 20.0824C16.2852 20.0795 16.2963 20.0857 16.2993 20.0965L16.3198 20.1704L16.3627 20.1169C16.3696 20.1083 16.3823 20.1069 16.391 20.1139C16.3997 20.1208 16.4011 20.1335 16.3942 20.1421L16.3331 20.2183L16.4194 20.5288L16.6208 20.2773L16.5977 20.1943C16.5947 20.1835 16.601 20.1724 16.6118 20.1694C16.6225 20.1665 16.6337 20.1728 16.6366 20.1835L16.6519 20.2385L16.707 20.1695C16.7139 20.1609 16.7267 20.1596 16.7353 20.1664C16.744 20.1734 16.7454 20.1861 16.7385 20.1947L16.6651 20.2863L16.7514 20.5969L16.9769 20.3154C16.9838 20.3066 16.9965 20.3053 17.0051 20.3122C17.0139 20.3192 17.0153 20.3319 17.0083 20.3405L16.7648 20.6448L16.8417 20.9219C16.8446 20.9326 16.8383 20.9437 16.8277 20.9467C16.8168 20.9496 16.8057 20.9433 16.8028 20.9326L16.7336 20.6836L16.6039 20.8456C16.5971 20.8543 16.5843 20.8557 16.5756 20.8488C16.567 20.8419 16.5656 20.8291 16.5725 20.8205L16.7203 20.6359L16.634 20.3252L16.4326 20.5768L16.5044 20.8349C16.5073 20.8456 16.501 20.8568 16.4903 20.8597C16.4795 20.8626 16.4684 20.8564 16.4655 20.8456L16.4016 20.6156L16.2596 20.793C16.2527 20.8016 16.2399 20.803 16.2313 20.7961C16.2226 20.7892 16.2212 20.7764 16.2281 20.7678L16.3883 20.5677L16.302 20.2572L16.1007 20.5088L16.1671 20.7478C16.17 20.7586 16.1637 20.7697 16.153 20.7726C16.1422 20.7756 16.1311 20.7693 16.1282 20.7586L16.0696 20.5476L15.9153 20.7403C15.9083 20.749 15.8955 20.7503 15.887 20.7435C15.8783 20.7365 15.8769 20.7238 15.8838 20.7152L16.0562 20.4997L15.97 20.1891L15.7685 20.4407L15.8297 20.6607C15.8327 20.6715 15.8264 20.6826 15.8156 20.6856C15.8049 20.6885 15.7937 20.6822 15.7908 20.6715L15.7376 20.4795L15.571 20.6877C15.5641 20.6963 15.5512 20.6977 15.5426 20.6908C15.534 20.6839 15.5327 20.6712 15.5395 20.6625L15.7242 20.4317L15.5858 19.9333Z" fill="white"/>
<path fill-rule="evenodd" clip-rule="evenodd" d="M17.112 20.1203C17.4737 20.2377 17.5935 21.27 16.7385 21.1617C16.3651 21.1144 15.4132 20.9829 15.2502 20.9408C15.1347 20.911 15.0754 20.7717 15.0507 20.6932C15.0319 20.6923 15.0122 20.6904 14.9917 20.6878C14.9917 20.6878 15.0483 20.9774 15.2301 21.0242C15.4117 21.0711 16.4724 21.2176 16.8884 21.2704C17.8412 21.3911 17.7077 20.2408 17.3045 20.1101C17.0877 20.0397 15.4937 19.5534 15.3882 19.5652C15.2829 19.5769 15.1254 19.7502 15.1254 19.7502C15.146 19.7573 15.1652 19.7639 15.1828 19.77C15.2282 19.7249 15.3227 19.6392 15.3922 19.6315C15.4869 19.6209 16.9174 20.0573 17.112 20.1203Z" fill="white"/>
<path fill-rule="evenodd" clip-rule="evenodd" d="M9.88314 19.7502C9.88314 19.7502 9.72564 19.5769 9.62024 19.5652C9.51479 19.5534 7.92079 20.0397 7.70399 20.1101C7.30084 20.2408 7.16739 21.3911 8.12009 21.2704C8.53609 21.2176 9.59679 21.0711 9.77844 21.0242C9.96009 20.9773 10.0168 20.6878 10.0168 20.6878L9.88314 19.7502Z" fill="#B62351"/>
<path fill-rule="evenodd" clip-rule="evenodd" d="M17.6067 17.1366C17.6067 17.1366 9.87611 19.7429 9.68236 19.8206C9.51421 19.8883 9.35616 20.7757 10.0171 20.6876C10.2942 20.6507 17.179 19.3939 17.8416 19.237C19.3836 18.8719 19.3061 16.5458 17.6067 17.1366Z" fill="#E6AD83"/>
<path fill-rule="evenodd" clip-rule="evenodd" d="M10.3018 19.6064C10.3159 19.8373 10.3681 20.2396 10.5545 20.5944C10.2532 20.648 10.0591 20.6818 10.0171 20.6873C9.35616 20.7754 9.51421 19.888 9.68236 19.8203C9.71366 19.8079 9.94156 19.7293 10.3018 19.6064Z" fill="white"/>
<path fill-rule="evenodd" clip-rule="evenodd" d="M10.3015 19.6064C10.3155 19.8373 10.3678 20.2396 10.5542 20.5944L10.3069 20.6381C10.0828 20.2867 10.0564 19.8946 10.061 19.6886L10.3015 19.6064Z" fill="#DEDAE3"/>
<path fill-rule="evenodd" clip-rule="evenodd" d="M9.42317 19.9333C9.42612 19.9225 9.41982 19.9113 9.40912 19.9084C9.39837 19.9055 9.38722 19.9117 9.38427 19.9225L9.25362 20.393L9.05222 20.1413L9.08587 20.0203C9.08882 20.0095 9.08252 19.9984 9.07182 19.9955C9.06107 19.9925 9.04992 19.9988 9.04697 20.0095L9.02112 20.1025L8.99062 20.0643C8.98372 20.0556 8.97097 20.0543 8.96232 20.0611C8.95362 20.0681 8.95222 20.0808 8.95917 20.0894L9.00787 20.1503L8.92157 20.4609L8.72017 20.2093L8.74852 20.1072C8.75147 20.0965 8.74517 20.0853 8.73442 20.0824C8.72372 20.0795 8.71252 20.0857 8.70957 20.0965L8.68902 20.1704L8.64617 20.1169C8.63927 20.1083 8.62652 20.1069 8.61787 20.1139C8.60922 20.1208 8.60782 20.1335 8.61472 20.1421L8.67577 20.2183L8.58952 20.5288L8.38812 20.2773L8.41117 20.1943C8.41412 20.1835 8.40787 20.1724 8.39712 20.1694C8.38637 20.1665 8.37522 20.1728 8.37227 20.1835L8.35702 20.2385L8.30177 20.1695C8.29492 20.1609 8.28212 20.1596 8.27347 20.1664C8.26482 20.1734 8.26347 20.1861 8.27032 20.1947L8.34367 20.2863L8.25742 20.5969L8.03197 20.3154C8.02507 20.3066 8.01232 20.3053 8.00367 20.3122C7.99497 20.3192 7.99357 20.3319 8.00047 20.3405L8.24412 20.6448L8.16712 20.9219C8.16417 20.9326 8.17047 20.9437 8.18122 20.9467C8.19197 20.9496 8.20312 20.9433 8.20607 20.9326L8.27522 20.6836L8.40487 20.8456C8.41177 20.8543 8.42452 20.8557 8.43322 20.8488C8.44187 20.8419 8.44327 20.8291 8.43632 20.8205L8.28852 20.6359L8.37477 20.3252L8.57617 20.5768L8.50447 20.8349C8.50157 20.8456 8.50782 20.8568 8.51857 20.8597C8.52932 20.8626 8.54047 20.8564 8.54342 20.8456L8.60732 20.6156L8.74932 20.793C8.75622 20.8016 8.76897 20.803 8.77762 20.7961C8.78627 20.7892 8.78772 20.7764 8.78077 20.7678L8.62062 20.5677L8.70682 20.2572L8.90822 20.5088L8.84182 20.7478C8.83892 20.7586 8.84517 20.7697 8.85592 20.7726C8.86662 20.7756 8.87777 20.7693 8.88072 20.7586L8.93932 20.5476L9.09362 20.7403C9.10052 20.749 9.11327 20.7503 9.12192 20.7435C9.13057 20.7365 9.13202 20.7238 9.12507 20.7152L8.95257 20.4997L9.03887 20.1891L9.24027 20.4407L9.17912 20.6607C9.17617 20.6715 9.18247 20.6826 9.19322 20.6856C9.20392 20.6885 9.21512 20.6822 9.21807 20.6715L9.27137 20.4795L9.43797 20.6877C9.44487 20.6963 9.45762 20.6977 9.46627 20.6908C9.47497 20.6839 9.47632 20.6712 9.46937 20.6625L9.28457 20.4317L9.42317 19.9333Z" fill="white"/>
<path fill-rule="evenodd" clip-rule="evenodd" d="M7.89659 20.1203C7.53484 20.2377 7.41509 21.27 8.27004 21.1617C8.64339 21.1144 9.59524 20.9829 9.75829 20.9408C9.87384 20.911 9.93309 20.7717 9.95779 20.6932C9.97669 20.6923 9.99634 20.6904 10.0168 20.6878C10.0168 20.6878 9.96014 20.9774 9.77844 21.0242C9.59674 21.0711 8.53609 21.2176 8.12009 21.2704C7.16739 21.3911 7.30084 20.2408 7.70399 20.1101C7.92079 20.0397 9.51479 19.5534 9.62024 19.5652C9.72569 19.5769 9.88314 19.7502 9.88314 19.7502C9.86259 19.7573 9.84339 19.7639 9.82574 19.77C9.78029 19.7249 9.68584 19.6392 9.61634 19.6315C9.52164 19.6209 8.09119 20.0573 7.89659 20.1203Z" fill="white"/>
<path d="M12.5046 18.8594L10.3018 19.6066" stroke="#D6725F" stroke-width="1.4173" stroke-miterlimit="2.6131" stroke-linecap="round" stroke-linejoin="round"/>
<path fill-rule="evenodd" clip-rule="evenodd" d="M12.4982 8.62842H12.5099C12.8487 8.62842 13.1259 8.89722 13.1259 9.22577V9.92762C13.1259 10.2562 12.8487 10.525 12.5099 10.525H12.4982C12.1595 10.525 11.8823 10.2562 11.8823 9.92762V9.22577C11.8823 8.89722 12.1595 8.62842 12.4982 8.62842Z" fill="#D6725F"/>
<path fill-rule="evenodd" clip-rule="evenodd" d="M13.9268 7.38981C13.9372 7.39131 13.9474 7.39306 13.9574 7.39526L13.9577 7.39536C14.144 7.43571 14.2847 7.60046 14.2871 7.79921C14.2898 8.03026 14.1048 8.2199 13.8737 8.22265C13.6426 8.2254 13.453 8.04031 13.4502 7.80931C13.4486 7.67501 13.5105 7.55476 13.6079 7.47706C13.5963 7.60046 13.6149 7.75351 13.7724 7.76991L13.7695 7.52861C13.7684 7.43096 13.8598 7.38666 13.9268 7.38981Z" fill="#D6725F"/>
<path fill-rule="evenodd" clip-rule="evenodd" d="M11.0654 7.36971C11.055 7.37106 11.0448 7.37271 11.0347 7.37471L11.0343 7.37481L11.0344 7.37476C10.8475 7.41256 10.7046 7.57536 10.6994 7.77406C10.6934 8.00506 10.8759 8.19721 11.1068 8.20321C11.3379 8.20916 11.53 8.02676 11.536 7.79581C11.5395 7.66151 11.4794 7.54046 11.383 7.46136C11.3927 7.58496 11.3721 7.73771 11.2143 7.75191L11.2206 7.51066C11.2231 7.41306 11.1324 7.36746 11.0654 7.36971Z" fill="#D6725F"/>
<path fill-rule="evenodd" clip-rule="evenodd" d="M12.4932 9.48461C11.7121 9.48461 11.0605 8.52081 11.0605 7.75981V6.74901C11.0605 5.96106 11.7053 5.31641 12.493 5.31641H12.4932C13.281 5.31641 13.9257 5.96111 13.9257 6.74901V7.73846C13.9258 8.57241 13.3573 9.48461 12.4932 9.48461Z" fill="#E6AD83"/>
<path fill-rule="evenodd" clip-rule="evenodd" d="M13.3028 8.07718C13.1931 8.07923 13.1058 8.16973 13.1079 8.27938C13.1099 8.38898 13.2005 8.47628 13.3101 8.47428C13.4198 8.47223 13.5071 8.38168 13.505 8.27208C13.503 8.16243 13.4124 8.07513 13.3028 8.07718Z" fill="#D6725F"/>
<path fill-rule="evenodd" clip-rule="evenodd" d="M11.6592 8.10892C11.5496 8.11092 11.4623 8.20152 11.4644 8.31112C11.4664 8.42077 11.5569 8.50802 11.6666 8.50602C11.7762 8.50397 11.8635 8.41342 11.8614 8.30377C11.8594 8.19412 11.7688 8.10692 11.6592 8.10892Z" fill="#D6725F"/>
<path fill-rule="evenodd" clip-rule="evenodd" d="M12.06 7.255C12.0902 7.26865 12.1036 7.3043 12.0899 7.33445C12.0763 7.3646 12.0407 7.378 12.0105 7.36435C12.01 7.36415 11.829 7.2785 11.6563 7.38715C11.6281 7.40485 11.5908 7.39635 11.5732 7.3682C11.5556 7.3401 11.5639 7.30285 11.5921 7.28515C11.8203 7.1416 12.0594 7.25475 12.06 7.255Z" fill="#30295E"/>
<path fill-rule="evenodd" clip-rule="evenodd" d="M13.4769 7.2821C13.5058 7.29825 13.5163 7.33485 13.5002 7.36375C13.4841 7.39265 13.4476 7.4032 13.4186 7.38705C13.4181 7.3868 13.2447 7.28675 13.0637 7.38095C13.0342 7.39625 12.9977 7.3848 12.9824 7.35535C12.967 7.3259 12.9786 7.2894 13.008 7.27405C13.2471 7.1496 13.4762 7.28185 13.4769 7.2821Z" fill="#30295E"/>
<path fill-rule="evenodd" clip-rule="evenodd" d="M12.1773 8.43864C12.1754 8.64239 12.339 8.80899 12.5428 8.81079C12.7465 8.81269 12.913 8.64904 12.9149 8.44534H12.9143C12.9147 8.41029 12.8862 8.38139 12.8512 8.38104L12.2421 8.37549C12.2071 8.37519 12.1782 8.40359 12.1778 8.43859H12.1773V8.43864Z" fill="#30295E"/>
<path fill-rule="evenodd" clip-rule="evenodd" d="M12.312 8.72709C12.3748 8.77879 12.455 8.81009 12.5427 8.81084C12.6143 8.81154 12.6812 8.79174 12.7381 8.75694C12.7104 8.68094 12.6282 8.62359 12.5284 8.61894C12.4333 8.61459 12.3495 8.65949 12.312 8.72709Z" fill="#B94440"/>
<path fill-rule="evenodd" clip-rule="evenodd" d="M12.8306 8.38074L12.2582 8.37549C12.2485 8.43879 12.2773 8.50294 12.3197 8.51729C12.3714 8.53464 12.7857 8.52764 12.8154 8.49529C12.8296 8.47969 12.832 8.42899 12.8306 8.38074Z" fill="white"/>
<path fill-rule="evenodd" clip-rule="evenodd" d="M12.5642 7.90416C12.5909 7.97796 12.6376 8.11151 12.6335 8.13341C12.628 8.16386 12.4694 8.18446 12.4277 8.14191C12.3999 8.11351 12.4344 7.99691 12.4644 7.91866C12.5055 7.81211 12.5283 7.80481 12.5642 7.90416Z" fill="#F1D3C8"/>
<path fill-rule="evenodd" clip-rule="evenodd" d="M13.3371 7.8195C13.337 7.78615 13.3238 7.7544 13.3001 7.73085C13.2763 7.7073 13.2445 7.69425 13.2111 7.69435C13.1777 7.6945 13.146 7.70785 13.1225 7.7315C13.099 7.75525 13.0859 7.787 13.0861 7.82045C13.0861 7.84825 13.0638 7.87085 13.0359 7.87095C13.0081 7.871 12.9855 7.8486 12.9854 7.82085C12.9851 7.7607 13.0087 7.7033 13.0511 7.66065C13.0934 7.61795 13.1506 7.594 13.2107 7.59375C13.2709 7.5935 13.3283 7.617 13.3709 7.6594C13.3929 7.6812 13.4098 7.7069 13.4213 7.7349C13.4278 7.73635 13.4405 7.7374 13.4519 7.7287C13.4582 7.7239 13.4672 7.7251 13.4721 7.73145C13.4769 7.73775 13.4756 7.74685 13.4693 7.7516C13.4563 7.76145 13.4424 7.7642 13.4309 7.7643L13.4311 7.76535C13.4433 7.768 13.4589 7.76835 13.475 7.76065C13.4821 7.75725 13.4907 7.7603 13.4941 7.7675C13.4975 7.77465 13.4945 7.7832 13.4873 7.78665C13.4693 7.79525 13.4516 7.7967 13.4364 7.795V7.7953C13.449 7.8004 13.4642 7.80345 13.4815 7.8013C13.4893 7.8004 13.4965 7.806 13.4975 7.81385C13.4984 7.82175 13.4928 7.82895 13.4849 7.8299C13.4672 7.8321 13.4511 7.83015 13.4372 7.826C13.434 7.8505 13.413 7.8694 13.3876 7.86955C13.3598 7.86975 13.3373 7.8473 13.3371 7.8195Z" fill="#30295E"/>
<path fill-rule="evenodd" clip-rule="evenodd" d="M11.734 7.8195C11.7342 7.78615 11.7475 7.7544 11.7711 7.73085C11.7949 7.7073 11.8267 7.69425 11.8601 7.69435C11.8935 7.6945 11.9252 7.70785 11.9487 7.7315C11.9722 7.75525 11.9852 7.787 11.9852 7.82045C11.9851 7.84825 12.0075 7.87085 12.0353 7.87095C12.063 7.871 12.0857 7.8486 12.0858 7.82085C12.0861 7.7607 12.0625 7.7033 12.0202 7.66065C11.9778 7.61795 11.9207 7.594 11.8605 7.59375C11.8004 7.5935 11.743 7.617 11.7003 7.6594C11.6783 7.6812 11.6614 7.7069 11.65 7.7349C11.6434 7.73635 11.6307 7.7374 11.6194 7.7287C11.6131 7.7239 11.604 7.7251 11.5992 7.73145C11.5944 7.73775 11.5956 7.74685 11.602 7.7516C11.6149 7.76145 11.6288 7.7642 11.6405 7.7643L11.6402 7.76535C11.628 7.768 11.6124 7.76835 11.5963 7.76065C11.5891 7.75725 11.5806 7.7603 11.5771 7.7675C11.5737 7.77465 11.5767 7.7832 11.5839 7.78665C11.602 7.79525 11.6197 7.7967 11.6349 7.795L11.6349 7.7953C11.6222 7.8004 11.607 7.80345 11.5898 7.8013C11.5819 7.8004 11.5747 7.806 11.5738 7.81385C11.5728 7.82175 11.5785 7.82895 11.5863 7.8299C11.6041 7.8321 11.62 7.83015 11.634 7.826C11.6373 7.8505 11.6582 7.8694 11.6836 7.86955C11.7113 7.86975 11.7339 7.8473 11.734 7.8195Z" fill="#30295E"/>
<path fill-rule="evenodd" clip-rule="evenodd" d="M11.0654 7.36962L11.0607 7.60322C11.0607 7.60322 11.3461 7.49787 11.2992 7.15797C11.2992 7.15797 12.0786 7.01722 12.313 6.29062C12.313 6.29062 12.817 6.46647 13.1803 6.32582C13.1803 6.32582 13.3502 6.94692 13.7253 7.05827C13.7253 7.05827 13.7399 7.52127 13.926 7.55637V7.34542L14.0769 7.03487L13.9538 5.97422C13.9538 5.97422 13.3911 5.15387 13.2975 5.10697C13.2037 5.06007 12.3599 4.94287 12.3599 4.94287L11.3636 5.50542C11.3636 5.50542 11.0121 5.97422 11.0121 6.07972C11.012 6.18512 10.6741 6.85702 11.0654 7.36962Z" fill="#30295E"/>
<path d="M8.19678 14.1284L8.46593 14.2132M16.797 14.1304L16.5651 14.1942" stroke="#D6725F" stroke-width="0.7087" stroke-miterlimit="2.6131" stroke-linecap="round" stroke-linejoin="round"/>
<path fill-rule="evenodd" clip-rule="evenodd" d="M11.5724 11.668C11.7835 11.4507 12.1339 11.4456 12.3512 11.6567L12.5244 11.8249L12.6926 11.6517C12.9038 11.4344 13.2541 11.4293 13.4714 11.6404C14.0332 12.186 13.2189 12.8442 12.5448 13.2261C11.9206 12.9505 11.0261 12.2305 11.5724 11.668Z" fill="white"/>
<path fill-rule="evenodd" clip-rule="evenodd" d="M8.41681 9.51904L8.76876 9.75114L8.65326 9.92629C8.79506 10.0199 8.80397 10.2589 8.71042 10.4007L8.59457 10.5765L8.43456 10.8191L8.43331 10.821L8.41251 10.8526L8.41117 10.8517C8.38912 10.8795 8.36391 10.9032 8.33351 10.9187C8.28236 10.9449 8.24956 10.949 8.23236 10.9712C8.22016 10.987 8.21501 11.0113 8.22001 11.0615C8.22551 11.1165 8.19691 11.1796 8.16441 11.2289L8.13251 11.2773L7.43626 12.3331L7.40431 12.3816C7.31071 12.5235 7.11811 12.563 6.97616 12.4694L6.62446 12.2376C6.48256 12.144 6.44301 11.9513 6.53661 11.8094L6.56851 11.761L7.26471 10.7052L7.29666 10.6567C7.32596 10.6123 7.36511 10.5778 7.40926 10.5545C7.47221 10.5211 7.48871 10.5128 7.49861 10.4932C7.50686 10.4769 7.51271 10.4535 7.51691 10.3943C7.51961 10.356 7.52946 10.3178 7.54701 10.2818L7.54481 10.2804L7.56691 10.2469L7.72686 10.0043L7.84276 9.82859C7.93631 9.68679 8.15947 9.60074 8.30137 9.69424L8.41681 9.51904Z" fill="#8FCADA"/>
<path fill-rule="evenodd" clip-rule="evenodd" d="M8.41696 9.51904L8.54896 9.60609L8.43346 9.78124C8.57521 9.87484 8.58411 10.1138 8.49061 10.2557L8.37476 10.4315L8.21476 10.6741L8.21351 10.676L8.19266 10.7076L8.19126 10.7066C8.16926 10.7345 8.14401 10.7581 8.11361 10.7737C8.06241 10.7999 8.02966 10.8039 8.01246 10.8262C8.00026 10.8419 7.99506 10.8663 8.00006 10.9165C8.00556 10.9714 7.97696 11.0346 7.94446 11.0839L7.91256 11.1323L7.21631 12.1881L7.18436 12.2365C7.09076 12.3784 6.89811 12.4179 6.75621 12.3244L6.62446 12.2375C6.48256 12.1439 6.44301 11.9513 6.53661 11.8093L6.56851 11.761L7.26471 10.7052L7.29666 10.6567C7.32596 10.6122 7.36511 10.5778 7.40926 10.5544C7.47221 10.521 7.48871 10.5127 7.49861 10.4932C7.50686 10.4768 7.51271 10.4535 7.51691 10.3942C7.51961 10.3559 7.52946 10.3178 7.54701 10.2818L7.54481 10.2804L7.56691 10.2469L7.72686 10.0043L7.84276 9.82854C7.93631 9.68674 8.15946 9.60069 8.30136 9.69419L8.41696 9.51904Z" fill="#B0DAED"/>
<path fill-rule="evenodd" clip-rule="evenodd" d="M8.72088 9.44067L8.57193 9.34247C8.52788 9.31342 8.46623 9.32837 8.43508 9.37562L8.32373 9.54447L8.55278 9.69552L8.78183 9.84657L8.89323 9.67772C8.92443 9.63042 8.91388 9.56792 8.86978 9.53887L8.72088 9.44067Z" fill="#387286"/>
<path d="M7.83492 9.84046L7.60156 10.1943L8.46921 10.7665L8.70257 10.4126L7.83492 9.84046Z" fill="#5293AA"/>
<path d="M5.40108 9.45298L3.7876 10.0752L3.88552 10.3291L5.499 9.70689L5.40108 9.45298Z" fill="#255262"/>
<path d="M5.40108 9.45249L3.7876 10.0747L3.82987 10.1843L5.44336 9.56211L5.40108 9.45249Z" fill="#387286"/>
<path fill-rule="evenodd" clip-rule="evenodd" d="M3.70511 10.7815C3.61341 10.8102 3.51321 10.7627 3.47816 10.6719L3.25546 10.0945C3.22041 10.0037 3.26286 9.90118 3.35006 9.86083L3.34276 9.84203C3.30686 9.74893 3.35236 9.64348 3.44406 9.60543C3.42401 9.51778 3.47116 9.42558 3.55741 9.39233C3.65201 9.35588 3.75931 9.40338 3.79576 9.49798L4.27911 10.7512C4.31561 10.8458 4.26806 10.953 4.17346 10.9895C4.08716 11.0228 3.99041 10.9861 3.94636 10.9077C3.85281 10.941 3.74836 10.8934 3.71241 10.8004L3.70511 10.7815ZM5.08086 8.80478C4.98621 8.84128 4.93871 8.94853 4.97521 9.04313L5.45851 10.2963C5.49501 10.3909 5.60226 10.4385 5.69686 10.402V10.402C5.78316 10.3687 5.83026 10.2766 5.81021 10.1889C5.90191 10.1508 5.94746 10.0454 5.91151 9.95228L5.90426 9.93343C5.99141 9.89313 6.03381 9.79068 5.99881 9.69983L5.77611 9.12243C5.74106 9.03158 5.64081 8.98418 5.54916 9.01278L5.54191 8.99398C5.50601 8.90088 5.40151 8.85333 5.30796 8.88673C5.26396 8.80813 5.16711 8.77148 5.08086 8.80478Z" fill="#387286"/>
<path fill-rule="evenodd" clip-rule="evenodd" d="M5.35107 10.0185L5.45822 10.2963C5.46637 10.3173 5.47797 10.336 5.49212 10.352C5.54177 10.4079 5.62297 10.4304 5.69657 10.4019C5.78287 10.3686 5.82997 10.2765 5.80992 10.1888C5.90162 10.1508 5.94717 10.0454 5.91122 9.95222L5.90397 9.93337C5.97872 9.89882 6.02057 9.81848 6.00882 9.73903C6.00687 9.72588 6.00347 9.71272 5.99847 9.69977L5.89132 9.42188C5.92637 9.51273 5.88392 9.61517 5.79677 9.65552L5.80402 9.67432C5.83997 9.76747 5.79442 9.87287 5.70277 9.91092C5.72277 9.99857 5.67572 10.0907 5.58937 10.1241C5.49477 10.1606 5.38757 10.1131 5.35107 10.0185Z" fill="#255262"/>
<path fill-rule="evenodd" clip-rule="evenodd" d="M4.27914 10.7512L4.17199 10.4733C4.20844 10.5679 4.16094 10.6752 4.06629 10.7116C3.97999 10.7449 3.88319 10.7083 3.83924 10.6298C3.74569 10.6632 3.64119 10.6156 3.60529 10.5225L3.59799 10.5037C3.50634 10.5323 3.40609 10.4849 3.37109 10.394L3.47824 10.6719C3.51329 10.7627 3.61354 10.8102 3.70519 10.7815L3.71244 10.8004C3.74839 10.8934 3.85289 10.941 3.94639 10.9077C3.99039 10.9861 4.08719 11.0228 4.17349 10.9895C4.26809 10.953 4.31564 10.8458 4.27914 10.7512Z" fill="#255262"/>
<path fill-rule="evenodd" clip-rule="evenodd" d="M3.3491 9.86133C3.26255 9.90198 3.22055 10.0041 3.25545 10.0946L3.371 10.3941C3.4059 10.4847 3.50555 10.532 3.597 10.5041L3.3491 9.86133Z" fill="#255262"/>
<path fill-rule="evenodd" clip-rule="evenodd" d="M5.53418 8.97656L5.81028 9.69241C5.80858 9.68631 5.80663 9.68026 5.80428 9.67431L5.79703 9.65551C5.88418 9.61516 5.92658 9.51271 5.89158 9.42186L5.77603 9.12231C5.74098 9.03146 5.64073 8.98406 5.54908 9.01266L5.54183 8.99386C5.53958 8.98791 5.53703 8.98216 5.53418 8.97656Z" fill="#255262"/>
<path fill-rule="evenodd" clip-rule="evenodd" d="M19.4672 8.28768C19.4805 8.16603 19.5357 7.93523 19.6133 7.91953C19.6586 7.91033 19.717 7.92918 19.6689 8.03593C19.622 8.13998 19.5456 8.31038 19.5404 8.57953C19.5358 8.82098 19.4519 8.42678 19.4672 8.28768Z" fill="#387286"/>
<path fill-rule="evenodd" clip-rule="evenodd" d="M19.4966 8.38109C19.4815 8.18209 19.3127 8.02829 19.0684 8.03129C18.8242 8.03429 18.7549 8.06444 18.7549 8.06444C18.7549 8.06444 18.9599 8.55894 19.4966 8.38109Z" fill="#387286"/>
<path fill-rule="evenodd" clip-rule="evenodd" d="M19.4966 8.38109C19.5117 8.18209 19.6805 8.02829 19.9248 8.03129C20.169 8.03429 20.2383 8.06444 20.2383 8.06444C20.2383 8.06444 20.0333 8.55894 19.4966 8.38109Z" fill="#387286"/>
<path fill-rule="evenodd" clip-rule="evenodd" d="M19.2988 9.81624C19.4401 9.82874 19.4772 9.75214 19.5252 9.75214C19.5743 9.75214 19.6347 9.82874 19.7457 9.81624C20.4128 9.74109 20.9462 8.32414 19.4433 8.36309C18.172 8.39609 18.604 9.75469 19.2988 9.81624Z" fill="#CC342A"/>
<path fill-rule="evenodd" clip-rule="evenodd" d="M19.0588 8.49929C18.8273 8.61429 18.6915 8.81204 18.7556 8.94094C18.8196 9.06984 19.0592 9.08109 19.2907 8.96604C19.5222 8.85099 19.658 8.65329 19.5939 8.52439C19.5299 8.39559 19.2903 8.38434 19.0588 8.49929Z" fill="#D1544B"/>
<path fill-rule="evenodd" clip-rule="evenodd" d="M15.9499 9.70905C16.1149 9.4679 16.447 9.40555 16.6881 9.5704L16.8804 9.7018L17.0118 9.5096C17.1768 9.2685 17.5089 9.2061 17.75 9.371C18.3734 9.79725 17.7077 10.5563 17.1298 11.0298C16.4914 10.8705 15.5231 10.3331 15.9499 9.70905Z" fill="#CC342A"/>
<path fill-rule="evenodd" clip-rule="evenodd" d="M16.0458 9.81735C15.94 9.9769 15.9412 10.1458 16.0486 10.1945C16.1559 10.2433 16.3288 10.1535 16.4346 9.99395C16.5404 9.8344 16.5392 9.6656 16.4318 9.6168C16.3244 9.568 16.1516 9.65785 16.0458 9.81735Z" fill="#D1544B"/>
<path fill-rule="evenodd" clip-rule="evenodd" d="M17.0674 9.57819C16.9865 9.68294 16.979 9.79939 17.0506 9.83839C17.1222 9.87729 17.2458 9.82399 17.3266 9.71924C17.4075 9.61449 17.4151 9.49799 17.3435 9.45904C17.2719 9.42009 17.1482 9.47339 17.0674 9.57819Z" fill="#D1544B"/>
</g>
<defs>
<clipPath id="clip0_1661_3900">
<rect width="25" height="25" fill="white"/>
</clipPath>
</defs>
</svg>
