<svg width="25" height="25" viewBox="0 0 25 25" fill="none" xmlns="http://www.w3.org/2000/svg">
<path d="M18.6949 14.0116C18.9987 13.4164 18.7521 12.6505 19.0615 12.0579C19.3126 11.577 19.857 11.3418 20.3518 11.1185C20.431 11.0828 20.5106 11.0452 20.5899 11.0047C20.7103 10.9438 20.8291 10.8769 20.9405 10.8018C20.9714 10.9325 21.0132 11.0626 21.0603 11.1891C21.0913 11.2722 21.1246 11.354 21.1583 11.4338C21.37 11.9333 21.6105 12.4755 21.4689 12.9991C21.2942 13.6444 20.5939 14.0401 20.4133 14.6835C20.2703 15.1926 20.487 15.7302 20.4765 16.2589C20.464 16.8785 20.1139 17.4808 19.5817 17.7975C19.2584 17.9904 18.8852 18.0787 18.5407 18.2298C18.2163 18.3715 17.8972 18.5943 17.7683 18.9205L17.7921 18.854L17.7643 18.9194C17.8905 18.5921 17.8079 18.2123 17.6654 17.8876C17.5145 17.5428 17.3001 17.2248 17.1934 16.8637C17.0175 16.2701 17.1687 15.5901 17.5798 15.1264C17.9308 14.7307 18.4544 14.4825 18.6949 14.0116Z" fill="#9A9E42"/>
<path d="M17.7922 18.9038C17.7862 18.9038 17.78 18.9027 17.774 18.9004C17.7483 18.8904 17.7356 18.8614 17.7457 18.8356L20.6213 11.481C20.6314 11.4553 20.6603 11.4426 20.6861 11.4527C20.7119 11.4627 20.7246 11.4917 20.7145 11.5174L17.8388 18.872C17.8311 18.8918 17.8122 18.9038 17.7922 18.9038Z" fill="#B9BF70"/>
<path d="M19.7575 13.878C19.7515 13.878 19.7456 13.8769 19.7398 13.8748C19.7246 13.8691 19.7132 13.8563 19.7091 13.8406L19.3093 12.3083C19.3023 12.2815 19.3183 12.2542 19.345 12.2472C19.3717 12.2403 19.3991 12.2563 19.4061 12.283L19.7881 13.7469L21.0193 12.9148C21.0421 12.8993 21.0733 12.9054 21.0887 12.9283C21.1042 12.9511 21.0982 12.9822 21.0753 12.9977L19.7855 13.8694C19.7771 13.875 19.7674 13.878 19.7575 13.878Z" fill="#B9BF70"/>
<path d="M18.3604 17.4669C18.3544 17.4669 18.3485 17.4658 18.3427 17.4637C18.3275 17.458 18.3161 17.4452 18.312 17.4295L17.8078 15.4972C17.8008 15.4704 17.8168 15.4431 17.8435 15.4361C17.8702 15.4294 17.8976 15.4452 17.9046 15.4719L18.391 17.3359L19.959 16.2762C19.9818 16.2607 20.013 16.2668 20.0284 16.2896C20.0439 16.3125 20.0379 16.3436 20.0149 16.359L18.3884 17.4583C18.38 17.4639 18.3702 17.4669 18.3604 17.4669Z" fill="#B9BF70"/>
<path d="M19.1659 15.3757C19.16 15.3757 19.154 15.3747 19.1483 15.3725C19.1331 15.3668 19.1217 15.3541 19.1176 15.3383L18.8049 14.1397C18.7979 14.113 18.8139 14.0857 18.8407 14.0787C18.867 14.072 18.8947 14.0877 18.9017 14.1145L19.1965 15.2447L20.147 14.6024C20.1698 14.5869 20.201 14.593 20.2164 14.6158C20.2319 14.6387 20.2259 14.6698 20.203 14.6852L19.194 15.3671C19.1856 15.3728 19.1758 15.3757 19.1659 15.3757Z" fill="#B9BF70"/>
<path d="M8.19172 12.7786C7.84312 12.2043 8.03362 11.4182 7.67962 10.8469C7.39227 10.3834 6.82902 10.1878 6.31637 10.0006C6.23432 9.97071 6.15177 9.93881 6.06927 9.90411C5.94402 9.85191 5.81997 9.79361 5.70277 9.72656C5.68142 9.85991 5.64922 9.99346 5.61132 10.1238C5.58637 10.2094 5.55907 10.2939 5.53122 10.3763C5.35587 10.8929 5.15487 11.4542 5.33567 11.9687C5.55857 12.6028 6.28992 12.9476 6.51857 13.5794C6.69962 14.0792 6.52217 14.6342 6.57177 15.1635C6.63012 15.7838 7.02577 16.3617 7.58282 16.6399C7.92122 16.8094 8.30192 16.8702 8.65842 16.9962C8.99417 17.1143 9.33057 17.3141 9.48397 17.6316L9.45517 17.5667L9.48787 17.6302C9.33712 17.3114 9.39182 16.9245 9.51067 16.5884C9.63652 16.2315 9.82792 15.8968 9.90817 15.5269C10.0406 14.9188 9.83862 14.2482 9.39212 13.8136C9.01102 13.4431 8.46772 13.2329 8.19172 12.7786Z" fill="#9A9E42"/>
<path d="M9.45535 17.6169C9.4367 17.6169 9.4188 17.6064 9.41025 17.5885L5.98295 10.4275C5.971 10.4026 5.98155 10.3728 6.00645 10.3609C6.03125 10.349 6.0612 10.3594 6.0731 10.3844L9.5004 17.5453C9.51235 17.5702 9.5018 17.6001 9.4769 17.612C9.46995 17.6153 9.4626 17.6169 9.45535 17.6169Z" fill="#B9BF70"/>
<path d="M7.11277 12.723C7.10417 12.723 7.09557 12.7208 7.08787 12.7164L5.73022 11.9379C5.70627 11.9242 5.69797 11.8936 5.71172 11.8697C5.72542 11.8457 5.75597 11.8374 5.77997 11.8512L7.07632 12.5945L7.35102 11.0981C7.35602 11.071 7.38197 11.0529 7.40922 11.058C7.43637 11.063 7.45437 11.089 7.44937 11.1162L7.16192 12.682C7.15897 12.698 7.14852 12.7115 7.13377 12.7184C7.12717 12.7215 7.11997 12.723 7.11277 12.723Z" fill="#B9BF70"/>
<path d="M8.77879 16.2182C8.77019 16.2182 8.76159 16.216 8.75389 16.2116L7.04174 15.2298C7.01779 15.2161 7.00949 15.1855 7.02324 15.1616C7.03699 15.1377 7.06744 15.1294 7.09149 15.1431L8.74234 16.0897L9.09209 14.1846C9.09709 14.1574 9.12314 14.1393 9.15029 14.1444C9.17744 14.1494 9.19544 14.1755 9.19044 14.2026L8.82799 16.1773C8.82504 16.1932 8.81459 16.2068 8.79984 16.2136C8.79314 16.2166 8.78599 16.2182 8.77879 16.2182Z" fill="#B9BF70"/>
<path d="M7.81666 14.1813C7.80806 14.1813 7.79946 14.1791 7.79176 14.1747L6.72971 13.5657C6.70576 13.552 6.69751 13.5214 6.71121 13.4975C6.72496 13.4735 6.75541 13.4652 6.77946 13.479L7.78021 14.0528L7.99231 12.8974C7.99731 12.8703 8.02316 12.8523 8.05051 12.8573C8.07766 12.8623 8.09566 12.8883 8.09066 12.9155L7.86581 14.1404C7.86286 14.1563 7.85241 14.1699 7.83766 14.1767C7.83101 14.1798 7.82381 14.1813 7.81666 14.1813Z" fill="#B9BF70"/>
<path d="M20.0606 18.594C19.5303 18.8879 18.6197 18.3076 17.8281 18.3854C18.2638 17.72 18.1714 16.6438 18.6777 16.3104C19.1838 15.9766 19.8958 16.3847 20.3498 16.0918C20.8037 15.7989 20.981 15.1906 21.3861 14.8684C21.791 14.5468 22.366 14.5189 22.9519 14.6601C23.5382 14.8011 24.0427 14.6221 24.0427 14.6221C24.0427 14.6221 23.6501 14.9859 23.5036 15.5711C23.3573 16.1558 23.0661 16.6524 22.5933 16.8618C22.1203 17.0718 21.4991 16.9471 21.0292 17.2137C20.5592 17.4802 20.5909 18.3002 20.0606 18.594Z" fill="#B9BF70"/>
<path d="M17.8371 18.4504C17.8202 18.4504 17.8037 18.4418 17.7943 18.4263C17.78 18.4027 17.7876 18.3719 17.8112 18.3576L22.9497 15.2459C22.9732 15.2318 23.004 15.2392 23.0183 15.2628C23.0326 15.2864 23.0251 15.3172 23.0014 15.3315L17.863 18.4432C17.8549 18.448 17.846 18.4504 17.8371 18.4504Z" fill="#9A9E42"/>
<path d="M22.531 16.3942C22.53 16.3942 22.529 16.3941 22.528 16.3941L21.3458 16.324C21.3297 16.323 21.3149 16.3143 21.3064 16.3005C21.2978 16.2867 21.2964 16.2696 21.3027 16.2547L21.77 15.1443C21.7808 15.1188 21.8101 15.1071 21.8355 15.1176C21.861 15.1284 21.8729 15.1577 21.8622 15.1831L21.4223 16.2283L22.534 16.2943C22.5615 16.2959 22.5826 16.3196 22.5809 16.3472C22.5793 16.3737 22.5573 16.3942 22.531 16.3942Z" fill="#9A9E42"/>
<path d="M20.3357 17.9339C20.3347 17.9339 20.3337 17.9339 20.3327 17.9338L18.8419 17.8453C18.8258 17.8444 18.811 17.8356 18.8025 17.8218C18.7939 17.8081 18.7925 17.791 18.7988 17.776L19.3881 16.3758C19.3988 16.3502 19.4282 16.3385 19.4536 16.3491C19.479 16.3598 19.491 16.3891 19.4803 16.4146L18.9184 17.7497L20.3387 17.834C20.3662 17.8356 20.3873 17.8593 20.3856 17.8869C20.384 17.9135 20.362 17.9339 20.3357 17.9339Z" fill="#9A9E42"/>
<path d="M21.2233 17.0103C21.2223 17.0103 21.2213 17.0102 21.2203 17.0102L20.2956 16.9553C20.2794 16.9543 20.2647 16.9456 20.2561 16.9318C20.2475 16.918 20.2462 16.9009 20.2525 16.886L20.618 16.0174C20.6287 15.9918 20.658 15.9801 20.6835 15.9907C20.7089 16.0014 20.7209 16.0307 20.7102 16.0562L20.372 16.8597L21.2262 16.9104C21.2538 16.912 21.2748 16.9357 21.2732 16.9633C21.2716 16.9898 21.2496 17.0103 21.2233 17.0103Z" fill="#9A9E42"/>
<path d="M7.19546 17.7873C7.69821 18.0603 8.55281 17.5054 9.30041 17.5724C8.88386 16.948 8.96236 15.9317 8.48186 15.6212C8.00156 15.3104 7.33306 15.7012 6.90231 15.4285C6.47156 15.1558 6.29931 14.5833 5.91451 14.2826C5.52981 13.9824 4.98701 13.9607 4.43531 14.0987C3.88326 14.2365 3.40576 14.0718 3.40576 14.0718C3.40576 14.0718 3.77911 14.4119 3.92211 14.9629C4.06496 15.5134 4.34376 15.9796 4.79166 16.1734C5.23971 16.3677 5.82481 16.245 6.27041 16.4927C6.71596 16.7404 6.69271 17.5144 7.19546 17.7873Z" fill="#B9BF70"/>
<path d="M9.29165 17.6367C9.28295 17.6367 9.27415 17.6344 9.26615 17.6296L4.39215 14.7351C4.3684 14.721 4.3606 14.6903 4.3747 14.6666C4.3888 14.6429 4.4195 14.6349 4.44325 14.6491L9.31725 17.5437C9.341 17.5577 9.3488 17.5885 9.3347 17.6122C9.32535 17.6279 9.3087 17.6367 9.29165 17.6367Z" fill="#9A9E42"/>
<path d="M4.84587 15.7344C4.81982 15.7344 4.79782 15.7142 4.79602 15.6878C4.79412 15.6602 4.81497 15.6364 4.84252 15.6345L5.88697 15.5635L5.46497 14.5845C5.45407 14.5591 5.46577 14.5297 5.49107 14.5188C5.51652 14.5077 5.54582 14.5195 5.55677 14.5449L6.00672 15.5888C6.01317 15.6037 6.01192 15.6208 6.00347 15.6346C5.99502 15.6485 5.98037 15.6574 5.96417 15.6585L4.84922 15.7343C4.84817 15.7344 4.84702 15.7344 4.84587 15.7344Z" fill="#9A9E42"/>
<path d="M6.92985 17.1698C6.9038 17.1698 6.8818 17.1496 6.88 17.1231C6.8781 17.0956 6.89895 17.0718 6.9265 17.0699L8.262 16.9791L7.72255 15.7275C7.71165 15.7022 7.72335 15.6727 7.74865 15.6618C7.7741 15.6508 7.80345 15.6626 7.81435 15.6879L8.38175 17.0044C8.38815 17.0193 8.38695 17.0364 8.3785 17.0502C8.37005 17.0641 8.3554 17.073 8.3392 17.0741L6.9332 17.1697C6.93215 17.1697 6.931 17.1698 6.92985 17.1698Z" fill="#9A9E42"/>
<path d="M6.08464 16.3051C6.05859 16.3051 6.03659 16.2849 6.03479 16.2584C6.03289 16.2309 6.05374 16.2071 6.08129 16.2052L6.88294 16.1507L6.55894 15.3989C6.54804 15.3736 6.55974 15.3441 6.58509 15.3332C6.61044 15.3222 6.63984 15.3339 6.65079 15.3593L7.00279 16.1759C7.00919 16.1908 7.00799 16.2079 6.99954 16.2217C6.99109 16.2356 6.97644 16.2445 6.96024 16.2456L6.08809 16.3049C6.08689 16.305 6.08574 16.3051 6.08464 16.3051Z" fill="#9A9E42"/>
<path d="M25 18.186H0V25H25V18.186Z" fill="#EFCD97"/>
<path d="M13.213 23.5093C17.9163 23.5093 21.7292 22.9355 21.7292 22.2278C21.7292 21.52 17.9163 20.9463 13.213 20.9463C8.50961 20.9463 4.69678 21.52 4.69678 22.2278C4.69678 22.9355 8.50961 23.5093 13.213 23.5093Z" fill="#E9BE83"/>
<path d="M4.56445 20.4359C6.95291 20.4359 8.88915 20.1445 8.88915 19.7851C8.88915 19.4257 6.95291 19.1343 4.56445 19.1343C2.17598 19.1343 0.239746 19.4257 0.239746 19.7851C0.239746 20.1445 2.17598 20.4359 4.56445 20.4359Z" fill="#E9BE83"/>
<path d="M21.9968 20.1346C23.6553 20.1346 24.9999 19.8432 24.9999 19.4838C24.9999 19.1244 23.6553 18.833 21.9968 18.833C20.3382 18.833 18.9937 19.1244 18.9937 19.4838C18.9937 19.8432 20.3382 20.1346 21.9968 20.1346Z" fill="#E9BE83"/>
<path d="M20.5816 3.63605V4.22055H20.0148V4.7877H19.4299V4.22055H18.8628V3.63605H19.4299V3.06885H20.0148V3.63605H20.5816Z" fill="#EFCD97"/>
<path d="M22.1449 1.60983V2.05508H21.713V2.48718H21.2675V2.05508H20.8354V1.60983H21.2675V1.17773H21.713V1.60983H22.1449Z" fill="#EFCD97"/>
<path d="M18.4867 1.74946V2.04781H18.1974V2.33731H17.8989V2.04781H17.6094V1.74946H17.8989V1.45996H18.1974V1.74946H18.4867Z" fill="#EFCD97"/>
<path d="M23.0248 5.61567V5.91402H22.7355V6.20352H22.437V5.91402H22.1475V5.61567H22.437V5.32617H22.7355V5.61567H23.0248Z" fill="#EFCD97"/>
<path d="M5.10533 19.6143C4.90713 19.658 4.63483 19.6805 3.89773 19.6808H3.88178C3.14468 19.6806 2.87238 19.658 2.67418 19.6143C2.47443 19.5706 2.50568 19.3991 2.50568 19.3991C2.50568 19.3991 2.50568 16.3969 2.50568 16.1936C2.50568 15.9904 2.68028 15.9305 2.68028 15.9305C2.77708 15.5518 2.68028 15.3324 2.68028 15.3324C2.50873 15.2568 2.50568 15.0774 2.50568 15.0774V13.4268C2.50568 13.1119 2.73033 13.0918 2.73033 13.0918H5.04918C5.04918 13.0918 5.27403 13.1119 5.27403 13.4268V15.0774C5.27403 15.0774 5.27098 15.2568 5.09918 15.3324C5.09918 15.3324 5.00238 15.5518 5.09918 15.9305C5.09918 15.9305 5.27403 15.9904 5.27403 16.1936C5.27403 16.3969 5.27403 19.3991 5.27403 19.3991C5.27403 19.3991 5.30528 19.5706 5.10533 19.6143Z" fill="#C1D6F7"/>
<path d="M4.96371 12.9644V13.0918H2.81641V12.9644H3.88196L3.89006 12.9653L3.89791 12.9644H4.96371Z" fill="#E06A43"/>
<path d="M4.30778 11.2661H3.47168C3.54443 11.1212 3.83993 11.1313 3.89018 11.1341C3.94393 11.1311 4.23568 11.1223 4.30778 11.2661Z" fill="#E06A43"/>
<path d="M5.1648 12.163V12.9643H2.61475V12.163C2.61715 12.0432 2.6991 11.9536 2.6991 11.9536H5.08045C5.08045 11.9536 5.1624 12.0432 5.1648 12.163Z" fill="#E06A43"/>
<path d="M5.08057 11.9538H2.69922L3.57947 11.7325V11.2661H4.20032V11.7325L5.08057 11.9538Z" fill="#E06A43"/>
<path d="M3.93743 15.4583C3.26103 15.4583 2.74918 15.3599 2.74153 15.3584C2.71443 15.3531 2.69678 15.3267 2.70213 15.2996C2.70743 15.2725 2.73368 15.2549 2.76083 15.2602C2.77213 15.2625 3.90523 15.48 5.02238 15.2602C5.04943 15.2549 5.07573 15.2725 5.08108 15.2996C5.08643 15.3267 5.06878 15.353 5.04168 15.3584C4.66083 15.4333 4.27823 15.4583 3.93743 15.4583Z" fill="#90AAE4"/>
<path d="M3.93636 16.1496C3.25821 16.1496 2.74426 16.0183 2.73656 16.0163C2.70986 16.0093 2.69386 15.982 2.70086 15.9553C2.70786 15.9286 2.73521 15.9128 2.76186 15.9195C2.77316 15.9225 3.90516 16.211 5.01741 15.9195C5.04431 15.9129 5.07151 15.9286 5.07846 15.9552C5.08546 15.9819 5.06946 16.0093 5.04276 16.0163C4.66141 16.1162 4.27801 16.1496 3.93636 16.1496Z" fill="#90AAE4"/>
<path d="M2.69893 14.8607C2.67133 14.8607 2.64893 14.8384 2.64893 14.8107V13.4875C2.64893 13.4599 2.67133 13.4375 2.69893 13.4375C2.72653 13.4375 2.74893 13.4599 2.74893 13.4875V14.8107C2.74893 14.8384 2.72653 14.8607 2.69893 14.8607Z" fill="#90AAE4"/>
<path d="M2.74922 19.3775C2.72162 19.3775 2.69922 19.3551 2.69922 19.3275V16.5686C2.69922 16.5409 2.72162 16.5186 2.74922 16.5186C2.77682 16.5186 2.79922 16.5409 2.79922 16.5686V19.3275C2.79922 19.3551 2.77682 19.3775 2.74922 19.3775Z" fill="#90AAE4"/>
<path d="M5.08028 12.0038H2.69893C2.67133 12.0038 2.64893 11.9815 2.64893 11.9538C2.64893 11.9262 2.67133 11.9038 2.69893 11.9038H5.08028C5.10788 11.9038 5.13028 11.9262 5.13028 11.9538C5.13028 11.9815 5.10793 12.0038 5.08028 12.0038Z" fill="#CB4F30"/>
<path d="M4.96341 13.0146H2.81611C2.78851 13.0146 2.76611 12.9922 2.76611 12.9646C2.76611 12.9369 2.78851 12.9146 2.81611 12.9146H4.96341C4.99101 12.9146 5.01341 12.9369 5.01341 12.9646C5.01341 12.9922 4.99106 13.0146 4.96341 13.0146Z" fill="#CB4F30"/>
<path d="M4.30797 11.3158H3.47188C3.44428 11.3158 3.42188 11.2935 3.42188 11.2658C3.42188 11.2382 3.44428 11.2158 3.47188 11.2158H4.30797C4.33558 11.2158 4.35798 11.2382 4.35798 11.2658C4.35798 11.2935 4.33558 11.3158 4.30797 11.3158Z" fill="#CB4F30"/>
<path d="M4.06971 11.7895H3.68086C3.65326 11.7895 3.63086 11.7671 3.63086 11.7395C3.63086 11.7118 3.65326 11.6895 3.68086 11.6895H4.06971C4.09731 11.6895 4.11971 11.7118 4.11971 11.7395C4.11971 11.7671 4.09731 11.7895 4.06971 11.7895Z" fill="#CB4F30"/>
<path d="M2.96309 13.0145C2.93549 13.0145 2.91309 12.9922 2.91309 12.9645V11.9538C2.91309 11.9262 2.93549 11.9038 2.96309 11.9038C2.99069 11.9038 3.01309 11.9262 3.01309 11.9538V12.9645C3.01309 12.9922 2.99069 13.0145 2.96309 13.0145Z" fill="#CB4F30"/>
<path d="M3.8752 13.0145C3.8476 13.0145 3.8252 12.9922 3.8252 12.9645V11.9538C3.8252 11.9262 3.8476 11.9038 3.8752 11.9038C3.9028 11.9038 3.9252 11.9262 3.9252 11.9538V12.9645C3.9252 12.9922 3.9028 13.0145 3.8752 13.0145Z" fill="#CB4F30"/>
<path d="M4.80195 13.0145C4.77435 13.0145 4.75195 12.9922 4.75195 12.9645V11.9538C4.75195 11.9262 4.77435 11.9038 4.80195 11.9038C4.82955 11.9038 4.85195 11.9262 4.85195 11.9538V12.9645C4.85195 12.9922 4.82955 13.0145 4.80195 13.0145Z" fill="#CB4F30"/>
<path d="M3.42646 13.0145C3.39886 13.0145 3.37646 12.9922 3.37646 12.9645V11.9538C3.37646 11.9262 3.39886 11.9038 3.42646 11.9038C3.45406 11.9038 3.47646 11.9262 3.47646 11.9538V12.9645C3.47646 12.9922 3.45406 13.0145 3.42646 13.0145Z" fill="#CB4F30"/>
<path d="M4.35322 13.0145C4.32562 13.0145 4.30322 12.9922 4.30322 12.9645V11.9538C4.30322 11.9262 4.32562 11.9038 4.35322 11.9038C4.38082 11.9038 4.40322 11.9262 4.40322 11.9538V12.9645C4.40322 12.9922 4.38082 13.0145 4.35322 13.0145Z" fill="#CB4F30"/>
<path d="M3.8633 18.1888C3.85035 18.7318 3.27905 19.2877 3.0295 19.563C2.82365 19.7899 2.4149 19.6846 2.2779 19.6405C2.1411 19.6844 1.732 19.7901 1.52615 19.563C1.2766 19.2877 0.705305 18.7318 0.692355 18.1888C0.679605 17.6461 0.931705 17.0259 1.44375 17.0155C1.84915 17.0074 2.16425 17.1283 2.2779 17.179C2.39175 17.1281 2.7068 17.0074 3.11185 17.0155C3.62395 17.0259 3.87605 17.6461 3.8633 18.1888Z" fill="#E06A43"/>
<path d="M2.39251 16.3997C2.39251 16.3997 2.17981 16.7548 2.22441 17.2334C2.22441 17.2334 2.23541 17.2797 2.30541 17.2334C2.30541 17.2334 2.23986 16.7771 2.54351 16.458C2.54351 16.458 2.52631 16.3362 2.39251 16.3997Z" fill="#9A9E42"/>
<path d="M2.07285 17.332C1.9532 17.332 1.86035 17.3041 1.8526 17.3018C1.82625 17.2936 1.8115 17.2657 1.8196 17.2393C1.82775 17.213 1.85585 17.1985 1.88205 17.2062C1.88535 17.2073 2.21525 17.3052 2.40025 17.1067C2.4191 17.0866 2.4507 17.0854 2.47095 17.1042C2.49115 17.123 2.4923 17.1547 2.47345 17.1749C2.3562 17.3008 2.19955 17.332 2.07285 17.332Z" fill="#CB4F30"/>
<path d="M1.04295 18.6988C1.02705 18.6988 1.0114 18.6913 1.0017 18.6771C0.837949 18.4387 0.775549 18.1391 0.830599 17.8552C0.885699 17.5712 1.0555 17.3167 1.2965 17.1568C1.31945 17.1415 1.3505 17.1478 1.3658 17.1708C1.38105 17.1938 1.3748 17.2249 1.35175 17.2401C1.13295 17.3853 0.978749 17.6164 0.928799 17.8742C0.878799 18.132 0.935399 18.404 1.0841 18.6205C1.09975 18.6432 1.09395 18.6744 1.0712 18.69C1.06255 18.696 1.0527 18.6988 1.04295 18.6988Z" fill="#CB4F30"/>
<path d="M3.29708 19.0803C3.28328 19.0803 3.26953 19.0746 3.25968 19.0634C3.24133 19.0428 3.24323 19.0112 3.26388 18.9929C3.54708 18.7417 3.68798 18.3386 3.62293 17.9658C3.61818 17.9386 3.63643 17.9126 3.66358 17.9079C3.69093 17.9035 3.71668 17.9214 3.72143 17.9486C3.79233 18.3549 3.63878 18.7941 3.33023 19.0677C3.32073 19.0761 3.30888 19.0803 3.29708 19.0803Z" fill="#CB4F30"/>
<path d="M2.2411 16.8418C2.2411 16.8418 2.0133 16.2154 1.6016 16.0687C1.1899 15.9221 0.541504 16.2077 0.541504 16.2077C0.541504 16.2077 0.706354 17.3189 2.2411 16.8418Z" fill="#9A9E42"/>
<path d="M3.92138 4.46831V5.10786H3.30113V5.72851H2.66118V5.10786H2.04053V4.46831H2.66118V3.84766H3.30113V4.46831H3.92138Z" fill="#EFCD97"/>
<path d="M6.18871 5.29165V5.7789H5.71616V6.2517H5.22866V5.7789H4.75586V5.29165H5.22866V4.81885H5.71616V5.29165H6.18871Z" fill="#EFCD97"/>
<path d="M3.38236 7.15176V7.47821H3.06576V7.79501H2.73916V7.47821H2.42236V7.15176H2.73916V6.83496H3.06576V7.15176H3.38236Z" fill="#EFCD97"/>
<path d="M23.1853 19.6384C22.9856 19.667 22.623 19.7017 22.03 19.7017C21.4365 19.7017 21.0743 19.667 20.8741 19.6384C20.7408 19.6193 20.6342 19.5197 20.602 19.3889C20.5165 19.0388 20.5517 18.7028 20.597 18.481C20.6282 18.3271 20.7625 18.2159 20.9194 18.2159H21.0019C21.3675 18.2159 21.4616 17.9136 21.3867 17.5273C21.3112 17.141 21.3132 16.6778 21.3132 16.6778C21.3132 16.6778 21.3112 16.2145 21.3867 15.8282C21.4616 15.4419 21.3676 15.1396 21.0019 15.1396H20.9194C20.7624 15.1396 20.6282 15.0285 20.597 14.8746C20.5517 14.6528 20.5165 14.3168 20.602 13.9667C20.6342 13.8359 20.7408 13.7368 20.8741 13.7172C21.0743 13.6885 21.4365 13.6543 22.03 13.6543C22.623 13.6543 22.9856 13.6885 23.1853 13.7172C23.3186 13.7368 23.4252 13.8359 23.4574 13.9667C23.5429 14.3167 23.5082 14.6527 23.463 14.8746C23.4313 15.0285 23.297 15.1396 23.1401 15.1396H23.0576C22.6924 15.1396 22.5979 15.4419 22.6728 15.8282C22.7482 16.2145 22.7462 16.6778 22.7462 16.6778C22.7462 16.6778 22.7482 17.141 22.6728 17.5273C22.5978 17.9136 22.6924 18.2159 23.0576 18.2159H23.1401C23.297 18.2159 23.4313 18.3271 23.463 18.481C23.5082 18.7028 23.543 19.0388 23.4574 19.3889C23.4252 19.5197 23.3186 19.6193 23.1853 19.6384Z" fill="#E06A43"/>
<path d="M22.0255 14.0665C21.3508 14.0665 20.8663 13.9623 20.8591 13.9607C20.8321 13.9548 20.8151 13.9281 20.821 13.9012C20.8269 13.8742 20.8536 13.8572 20.8806 13.8631C20.8912 13.8654 21.9615 14.095 23.1325 13.8629C23.1594 13.8572 23.1858 13.8751 23.1912 13.9022C23.1966 13.9293 23.179 13.9555 23.1519 13.9609C22.7528 14.0401 22.365 14.0665 22.0255 14.0665Z" fill="#CB4F30"/>
<path d="M22.0742 15.3148C21.7198 15.3148 21.4142 15.269 21.395 15.266C21.3677 15.2619 21.3489 15.2363 21.3531 15.209C21.3573 15.1818 21.3822 15.1629 21.4101 15.1672C21.417 15.1682 22.111 15.272 22.6107 15.1677C22.6375 15.1617 22.6641 15.1794 22.6698 15.2064C22.6755 15.2334 22.6582 15.2599 22.6311 15.2655C22.4545 15.3025 22.2577 15.3148 22.0742 15.3148Z" fill="#CB4F30"/>
<path d="M22.0518 18.3587C21.6236 18.3587 21.302 18.2699 21.282 18.2641C21.2554 18.2566 21.24 18.229 21.2475 18.2025C21.255 18.176 21.2827 18.1602 21.3092 18.168C21.3163 18.1699 22.0366 18.3684 22.7453 18.168C22.7717 18.1603 22.7995 18.1758 22.807 18.2024C22.8145 18.229 22.7991 18.2566 22.7726 18.2641C22.5218 18.3351 22.2726 18.3587 22.0518 18.3587Z" fill="#CB4F30"/>
<path d="M22.0935 18.6669C21.3126 18.6669 20.6912 18.5018 20.6819 18.4992C20.6553 18.492 20.6395 18.4646 20.6468 18.4379C20.654 18.4113 20.6813 18.3952 20.7081 18.4027C20.7219 18.4064 22.0943 18.7706 23.3095 18.4031C23.3358 18.3951 23.3638 18.4101 23.3718 18.4365C23.3798 18.4629 23.3649 18.4908 23.3384 18.4988C22.9217 18.6249 22.4872 18.6669 22.0935 18.6669Z" fill="#CB4F30"/>
<path d="M20.7755 19.4163C20.755 19.4163 20.7358 19.4036 20.7285 19.3833C20.6263 19.1011 20.7225 18.6475 20.7266 18.6284C20.7325 18.6014 20.7592 18.5842 20.7861 18.59C20.8131 18.5959 20.8302 18.6224 20.8244 18.6495C20.8234 18.6539 20.7302 19.0942 20.8226 19.3492C20.832 19.3752 20.8185 19.4039 20.7926 19.4133C20.7868 19.4154 20.7811 19.4163 20.7755 19.4163Z" fill="#CB4F30"/>
<path d="M21.5627 17.5543C21.5431 17.5543 21.5245 17.5427 21.5165 17.5235C21.2456 16.869 21.5035 15.9404 21.5146 15.9012C21.5221 15.8746 21.5499 15.859 21.5763 15.8668C21.6029 15.8743 21.6183 15.9019 21.6108 15.9285C21.6082 15.9378 21.3513 16.8632 21.6089 17.4852C21.6194 17.5108 21.6073 17.54 21.5818 17.5506C21.5756 17.5531 21.5691 17.5543 21.5627 17.5543Z" fill="#CB4F30"/>
<path d="M16.2395 17.0488C16.2395 17.0488 16.1966 17.0808 16.109 17.132V17.1326C15.7392 17.3501 14.5722 17.9907 12.5004 17.9907C10.4285 17.9907 9.26148 17.3501 8.89173 17.1326V17.132C8.80408 17.0808 8.76123 17.0488 8.76123 17.0488C8.76893 16.1514 9.06508 15.8902 9.32158 15.2473C9.33883 15.2588 9.46038 14.8712 9.47508 14.8814C9.60108 14.6006 9.69193 14.4317 9.69193 14.4317L9.61453 13.5158C8.74778 12.871 9.07658 12.1424 9.17893 11.5418C9.18533 11.5034 9.19363 11.4561 9.20258 11.4004C9.32028 10.6859 9.63883 8.65945 9.71368 8.17845C9.72453 8.11195 9.73033 8.07485 9.73033 8.07485L10.148 8.0083C10.148 8.0083 10.1487 8.0486 10.1538 8.11895C10.1896 8.62365 10.4608 10.6795 12.5 10.6795H12.5007C14.5399 10.6795 14.8111 8.62365 14.8469 8.11895C14.852 8.0486 14.8527 8.0083 14.8527 8.0083L15.2704 8.07485C15.2704 8.07485 15.2761 8.11195 15.287 8.17845C15.3619 8.65945 15.6804 10.6859 15.7981 11.4004C15.8071 11.4561 15.8154 11.5034 15.8218 11.5418C15.9235 12.1424 16.2529 12.871 15.3862 13.5158L15.3088 14.4317C15.3088 14.4317 15.3996 14.6006 15.525 14.8814C15.5397 14.8712 15.6619 15.2588 15.6791 15.2473C15.9356 15.8902 16.2318 16.1514 16.2395 17.0488Z" fill="#CB4F30"/>
<path d="M7.33853 15.1571C7.33123 15.1571 7.32383 15.1555 7.31683 15.1521L7.06788 15.0321C7.04298 15.0201 7.03253 14.9902 7.04453 14.9653C7.05648 14.9404 7.08648 14.9299 7.11128 14.942L7.36023 15.062C7.38508 15.074 7.39553 15.1039 7.38358 15.1288C7.37498 15.1467 7.35713 15.1571 7.33853 15.1571Z" fill="#E06A43"/>
<path d="M9.47518 14.8812C9.67348 15.0878 9.69908 15.2158 9.69008 15.2804C9.67473 15.3962 9.62358 15.4582 9.37028 15.2804C9.35558 15.2701 9.33893 15.2586 9.32168 15.2471C9.04408 15.0597 8.47668 14.729 8.47668 14.729C8.47668 14.729 8.37243 14.8051 8.20098 14.8448C8.03018 14.8851 7.96108 14.8224 7.96108 14.8224C7.86768 14.9829 7.65853 14.9874 7.65853 14.9874C7.55683 15.1249 7.33868 15.107 7.33868 15.107C7.33868 15.107 7.11928 15.2848 6.94723 15.1902C6.77578 15.0955 6.10608 14.0637 6.10608 14.0637C6.10608 14.0637 5.33528 13.6077 4.92018 13.3524C4.50568 13.0978 4.36303 12.8663 4.36303 12.8663C4.32143 12.6174 4.34513 11.9535 4.54083 11.6931C4.73658 11.4321 8.29883 8.54602 8.73763 8.38547L9.71373 8.17822C9.63888 8.65922 9.32033 10.6857 9.20263 11.4002L9.19688 11.3995L8.96148 11.0752L6.32033 12.3731L6.54743 12.7773C6.54743 12.7773 8.11458 13.3063 8.21438 13.4579C8.31418 13.6089 8.61928 14.2402 8.61928 14.2402C9.05618 14.5077 9.31908 14.7187 9.47518 14.8812Z" fill="#E79E73"/>
<path d="M8.47649 14.7791C8.46889 14.7791 8.46114 14.7773 8.45389 14.7737L7.87894 14.4818C7.85429 14.4693 7.84449 14.4392 7.85699 14.4145C7.86949 14.39 7.89964 14.3802 7.92419 14.3926L8.49914 14.6845C8.52379 14.697 8.53359 14.7271 8.52109 14.7517C8.51229 14.7691 8.49474 14.7791 8.47649 14.7791Z" fill="#E06A43"/>
<path d="M8.61905 14.2901C8.60925 14.2901 8.5994 14.2872 8.5907 14.2813L8.2232 14.0279C8.2179 14.0242 8.21335 14.0195 8.2098 14.0142L8.08535 13.8245C8.0702 13.8014 8.07665 13.7704 8.0997 13.7553C8.12285 13.7401 8.15385 13.7466 8.16895 13.7696L8.28805 13.9511L8.6475 14.199C8.67025 14.2146 8.67595 14.2458 8.66025 14.2685C8.6506 14.2825 8.63495 14.2901 8.61905 14.2901Z" fill="#E06A43"/>
<path d="M7.96113 14.8726C7.95443 14.8726 7.94762 14.8713 7.94112 14.8684L7.72773 14.775C7.70243 14.7639 7.69088 14.7345 7.70198 14.7092C7.71303 14.6839 7.74253 14.6723 7.76783 14.6834L7.98122 14.7768C8.00652 14.7879 8.01807 14.8173 8.00697 14.8426C7.99877 14.8614 7.98043 14.8726 7.96113 14.8726Z" fill="#E06A43"/>
<path d="M7.65885 15.0371C7.6497 15.0371 7.64045 15.0346 7.6322 15.0294L7.4188 14.8945C7.39545 14.8797 7.3885 14.8489 7.40325 14.8255C7.418 14.8022 7.44895 14.7953 7.4722 14.8099L7.6856 14.9448C7.70895 14.9596 7.7159 14.9904 7.70115 15.0138C7.69165 15.0288 7.6754 15.0371 7.65885 15.0371Z" fill="#E06A43"/>
<path d="M6.32061 12.4233C6.30276 12.4233 6.28546 12.4138 6.27646 12.3969C6.27431 12.3929 6.05876 11.9915 5.85451 11.7556C5.66126 11.5324 5.21386 11.5181 5.20936 11.518C5.18176 11.5172 5.15996 11.4943 5.16066 11.4667C5.16141 11.4391 5.18246 11.4187 5.21191 11.418C5.23206 11.4185 5.70776 11.4334 5.93006 11.6901C6.14171 11.9346 6.35561 12.3329 6.36461 12.3497C6.37761 12.3741 6.36846 12.4044 6.34411 12.4174C6.33661 12.4214 6.32856 12.4233 6.32061 12.4233Z" fill="#E06A43"/>
<path d="M9.15627 11.4288L8.92067 11.1043C8.83627 10.9881 8.58542 10.7285 8.58292 10.7259C8.56372 10.706 8.56422 10.6744 8.58407 10.6552C8.60382 10.636 8.63552 10.6365 8.65477 10.6563C8.66527 10.6672 8.91312 10.9236 9.00157 11.0456L9.23717 11.37L9.15627 11.4288Z" fill="#E06A43"/>
<path d="M17.3421 15.0376C17.3255 15.0376 17.3093 15.0293 17.2997 15.0143C17.285 14.9909 17.292 14.9601 17.3153 14.9453L17.5287 14.8104C17.5522 14.7957 17.583 14.8027 17.5977 14.826C17.6125 14.8494 17.6055 14.8802 17.5822 14.895L17.3688 15.0299C17.3605 15.0351 17.3512 15.0376 17.3421 15.0376Z" fill="#E06A43"/>
<path d="M17.6623 15.1574C17.6437 15.1574 17.6259 15.147 17.6173 15.1292C17.6053 15.1043 17.6157 15.0744 17.6406 15.0624L17.8896 14.9424C17.9146 14.9305 17.9444 14.9409 17.9563 14.9657C17.9683 14.9906 17.9579 15.0205 17.933 15.0325L17.6841 15.1525C17.677 15.1558 17.6696 15.1574 17.6623 15.1574Z" fill="#E06A43"/>
<path d="M20.6378 12.8667C20.6378 12.8667 20.4952 13.0983 20.0807 13.3529C19.6655 13.6081 18.8948 14.0642 18.8948 14.0642C18.8948 14.0642 18.2251 15.0959 18.053 15.1906C17.8815 15.2853 17.6621 15.1075 17.6621 15.1075C17.6621 15.1075 17.444 15.1254 17.3417 14.9879C17.3417 14.9879 17.1331 14.9834 17.0398 14.8228C17.0398 14.8228 16.9707 14.8855 16.7999 14.8452C16.6285 14.8056 16.5242 14.7295 16.5242 14.7295C16.5242 14.7295 15.9568 15.0602 15.6792 15.2476C15.662 15.2591 15.6453 15.2706 15.6306 15.2808C15.3773 15.4587 15.3261 15.3966 15.3102 15.2808C15.3019 15.2162 15.3268 15.0883 15.5251 14.8817C15.6812 14.7192 15.944 14.5081 16.3816 14.2407C16.3816 14.2407 16.686 13.6094 16.7865 13.4584C16.8863 13.3068 18.4534 12.7778 18.4534 12.7778L18.6799 12.3736L16.0394 11.0757L15.804 11.4L15.7982 11.4007C15.6805 10.6862 15.362 8.65971 15.2871 8.17871L16.2632 8.38596C16.702 8.54651 20.2643 11.4327 20.46 11.6936C20.6551 11.9539 20.6788 12.6179 20.6378 12.8667Z" fill="#E79E73"/>
<path d="M16.5242 14.7796C16.506 14.7796 16.4884 14.7696 16.4796 14.7523C16.4671 14.7276 16.4769 14.6975 16.5015 14.685L17.0765 14.3931C17.1011 14.3807 17.1312 14.3904 17.1437 14.4151C17.1562 14.4397 17.1464 14.4698 17.1218 14.4823L16.5469 14.7742C16.5396 14.7779 16.5318 14.7796 16.5242 14.7796Z" fill="#E06A43"/>
<path d="M16.3816 14.2907C16.3657 14.2907 16.3501 14.2831 16.3404 14.269C16.3247 14.2463 16.3304 14.2152 16.3532 14.1995L16.7126 13.9516L16.8317 13.7701C16.8469 13.7471 16.8779 13.7406 16.901 13.7558C16.9241 13.7709 16.9305 13.8019 16.9153 13.825L16.7909 14.0147C16.7874 14.02 16.7828 14.0247 16.7775 14.0284L16.41 14.2818C16.4013 14.2878 16.3914 14.2907 16.3816 14.2907Z" fill="#E06A43"/>
<path d="M17.0398 14.8731C17.0205 14.8731 17.0022 14.8619 16.994 14.8431C16.9829 14.8178 16.9944 14.7883 17.0198 14.7773L17.2332 14.6839C17.2584 14.6728 17.288 14.6844 17.299 14.7097C17.3101 14.735 17.2985 14.7645 17.2732 14.7755L17.0598 14.8689C17.0533 14.8718 17.0465 14.8731 17.0398 14.8731Z" fill="#E06A43"/>
<path d="M18.6799 12.4233C18.6719 12.4233 18.6639 12.4214 18.6563 12.4174C18.632 12.4044 18.6228 12.3741 18.6358 12.3497C18.6448 12.3329 18.8587 11.9345 19.0704 11.6901C19.2927 11.4333 19.7684 11.4185 19.7885 11.418C19.789 11.418 19.7894 11.418 19.7898 11.418C19.8168 11.418 19.839 11.4395 19.8397 11.4667C19.8405 11.4943 19.8186 11.5173 19.791 11.518C19.7865 11.5181 19.3392 11.5324 19.1459 11.7556C18.9415 11.9917 18.7261 12.3929 18.724 12.3969C18.715 12.4138 18.6978 12.4233 18.6799 12.4233Z" fill="#E06A43"/>
<path d="M15.8441 11.4294L15.7632 11.3706L15.9988 11.0461C16.0873 10.9242 16.3352 10.6677 16.3457 10.6569C16.3649 10.637 16.3966 10.6365 16.4164 10.6557C16.4362 10.6749 16.4367 10.7066 16.4175 10.7264C16.415 10.729 16.1641 10.9886 16.0797 11.1049L15.8441 11.4294Z" fill="#E06A43"/>
<path d="M14.8717 7.36025C14.5458 7.65705 14.1464 7.87025 13.7222 7.99425C12.4374 8.39535 11.2943 7.8631 11.2943 7.8631C11.1265 7.81265 10.9584 7.76515 10.7868 7.7332C10.4837 7.6777 10.1595 7.6739 9.87663 7.7908C9.64918 7.44985 9.63953 6.9983 9.72653 6.59385C9.81733 6.17175 10.0002 5.774 10.1041 5.35485C10.1335 5.23505 10.1566 5.11395 10.1764 4.99245C10.2197 4.72465 10.2474 4.4539 10.2945 4.1869C10.3631 3.798 10.4787 3.40575 10.7229 3.0963C10.9218 2.8436 11.2207 2.65485 11.536 2.62625C11.8892 2.3887 12.3323 2.3374 12.7557 2.3374C12.8637 2.3374 12.9714 2.34625 13.0781 2.36515C13.6037 2.4551 14.0905 2.7801 14.3491 3.2472C14.6791 3.8446 14.5938 4.48365 14.5954 5.1656C14.5954 5.19375 14.5954 5.22235 14.5963 5.25055C14.6047 5.9615 14.6972 6.6716 14.8717 7.36025Z" fill="#2B3448"/>
<path d="M10.9695 5.75856C10.9766 5.82891 10.9887 5.89866 11.006 5.96706C10.9529 5.97601 10.8512 5.98561 10.7917 5.94146C10.7085 5.88006 10.5102 5.61841 10.5038 5.28451C10.5006 5.12906 10.5173 5.02481 10.5467 4.96021C10.5812 4.88666 10.633 4.86426 10.6951 4.87516C10.8109 4.89436 10.9164 5.11821 10.9164 5.11821C10.9164 5.11821 10.917 5.11436 10.9183 5.10736C10.9286 5.27756 10.9452 5.52381 10.9695 5.75856Z" fill="#E79E73"/>
<path d="M14.3783 4.88083C14.4512 4.90833 14.4973 5.01518 14.4973 5.25118C14.4973 5.26203 14.4973 5.27293 14.4973 5.28443C14.4909 5.61833 14.2926 5.87993 14.2094 5.94138C14.1263 6.00343 14.0233 5.95928 14.0233 5.95928L13.9951 5.95288C14.0105 5.88953 14.0207 5.82493 14.0271 5.75968C14.0463 5.55883 14.0738 5.25753 14.0828 5.11813H14.0841C14.0841 5.11813 14.1903 4.89423 14.306 4.87508C14.3322 4.87058 14.3565 4.87188 14.3783 4.88083Z" fill="#E79E73"/>
<path d="M13.9467 5.09127C13.9883 5.10152 14.0337 5.11047 14.0823 5.11812C14.0734 5.25757 14.0459 5.55882 14.0267 5.75967C14.0203 5.82492 14.01 5.88952 13.9947 5.95287C13.9761 6.03412 13.9493 6.11407 13.916 6.19147C13.8437 6.35522 13.7298 6.58357 13.5738 6.80107C13.5642 6.81512 13.5539 6.82922 13.5437 6.84327C13.5437 6.84327 13.5437 6.84327 13.5431 6.84392C13.3019 7.16697 12.9667 7.45737 12.5363 7.47272C12.5241 7.47402 12.512 7.47402 12.4998 7.47402H12.4992C12.487 7.47402 12.4755 7.47402 12.4634 7.47272C12.031 7.45802 11.6951 7.16442 11.454 6.84012C11.4444 6.82732 11.4348 6.81392 11.4258 6.80112C11.2659 6.57852 11.1501 6.34567 11.0791 6.18127C11.0491 6.11157 11.0248 6.03992 11.0056 5.96697C10.9883 5.89852 10.9762 5.82882 10.9691 5.75847C10.9448 5.52372 10.9282 5.27742 10.918 5.10732C10.9205 5.08237 10.9301 5.01392 10.9512 4.91672C11.0254 4.57452 11.2423 3.87152 11.8282 3.40457C11.9312 3.32207 12.0457 3.24722 12.1736 3.18262C12.1736 3.18262 12.4896 3.23762 12.7934 3.47432C12.9079 3.56262 13.0198 3.67647 13.1132 3.82292C13.4344 4.33007 13.2508 4.91982 13.9467 5.09127Z" fill="#E79E73"/>
<path d="M12.5364 7.47292C12.9669 7.45757 13.3021 7.16717 13.5432 6.84412C13.5304 6.88187 13.0123 8.34857 11.3159 7.69167L11.4259 6.80127C11.4349 6.81407 11.4445 6.82752 11.4541 6.84027C11.6952 7.16457 12.031 7.45817 12.4635 7.47287C12.4756 7.47417 12.4871 7.47417 12.4993 7.47417H12.4999C12.5121 7.47417 12.5243 7.47417 12.5364 7.47292Z" fill="#E06A43"/>
<path d="M13.7224 7.99427L13.7231 7.99937L14.847 8.11897C14.8112 8.62367 14.5399 10.6795 12.5007 10.6795H12.5001C10.4608 10.6795 10.1896 8.62367 10.1538 8.11897L11.2777 7.99937L11.2943 7.86312L11.3161 7.69167C13.0124 8.34862 13.5306 6.88187 13.5434 6.84412C13.544 6.84347 13.544 6.84347 13.544 6.84347C13.5543 6.82942 13.5645 6.81532 13.5741 6.80127L13.7224 7.99427Z" fill="#E79E73"/>
<path d="M10.4966 4.9615V4.96045H10.5966L10.4966 4.9615Z" fill="black"/>
<path d="M12.5459 6.01531C12.5474 6.02971 12.5301 6.04146 12.5106 6.03986C12.4068 6.02866 12.1213 5.98916 12.0968 5.88186C12.0737 5.77991 12.3116 5.33631 12.4205 5.14041C12.4327 5.11746 12.4789 5.12331 12.481 5.14786L12.5459 6.01531Z" fill="#E06A43"/>
<path d="M12.0554 5.13838C12.0348 5.13838 12.0154 5.12548 12.0082 5.10488C12.0063 5.09983 11.9532 4.96768 11.7157 4.96768C11.7149 4.96768 11.7141 4.96768 11.7133 4.96768C11.4644 4.96863 11.3837 5.07748 11.3829 5.07858C11.3675 5.10143 11.3364 5.10748 11.3135 5.09193C11.2906 5.07643 11.2846 5.04533 11.3001 5.02248C11.3044 5.01623 11.4078 4.86883 11.7129 4.86768C11.7138 4.86768 11.7148 4.86768 11.7157 4.86768C12.0276 4.86768 12.0997 5.06348 12.1026 5.07183C12.1117 5.09788 12.098 5.12643 12.0719 5.13553C12.0664 5.13748 12.0609 5.13838 12.0554 5.13838Z" fill="#2B3448"/>
<path d="M11.282 4.84167C11.2674 4.84167 11.2529 4.83532 11.243 4.82307C11.2257 4.80157 11.2291 4.77007 11.2505 4.75277C11.3574 4.66652 11.4914 4.61022 11.6277 4.59427C11.7641 4.57817 11.9074 4.60192 12.0314 4.66102C12.0563 4.67292 12.0669 4.70277 12.055 4.72767C12.0432 4.75257 12.0135 4.76322 11.9884 4.75132C11.8812 4.70022 11.7572 4.67967 11.6394 4.69357C11.5216 4.70742 11.4058 4.75607 11.3133 4.83062C11.3041 4.83802 11.293 4.84167 11.282 4.84167Z" fill="#2B3448"/>
<path d="M11.8142 4.92572C11.837 4.93252 11.8337 4.96992 11.8338 4.99542C11.8341 5.07022 11.7737 5.13107 11.6989 5.13132C11.6241 5.13162 11.5632 5.07122 11.563 4.99642C11.5629 4.97202 11.5693 4.94912 11.5805 4.92927C11.5805 4.92927 11.7124 4.89532 11.8142 4.92572Z" fill="#2B3448"/>
<path d="M12.7935 5.13515C12.788 5.13515 12.7824 5.1342 12.7769 5.13225C12.7512 5.12305 12.7375 5.0952 12.7463 5.06935C12.7492 5.06095 12.8203 4.86345 13.1345 4.8623C13.1356 4.8623 13.1368 4.8623 13.138 4.8623C13.4404 4.8623 13.5441 5.00775 13.5484 5.014C13.5641 5.03675 13.5583 5.0679 13.5356 5.08355C13.513 5.0992 13.4822 5.09355 13.4664 5.07125C13.4622 5.0656 13.3819 4.9623 13.1381 4.9623C13.137 4.9623 13.1359 4.9623 13.1348 4.9623C12.8953 4.9632 12.8428 5.09665 12.8407 5.1023C12.8332 5.1225 12.8139 5.13515 12.7935 5.13515Z" fill="#2B3448"/>
<path d="M13.5647 4.83307C13.5538 4.83307 13.5428 4.82952 13.5337 4.82222C13.4407 4.74837 13.3245 4.70057 13.2065 4.68762C13.0884 4.67462 12.9648 4.69607 12.858 4.74792C12.8333 4.76002 12.8032 4.74967 12.7912 4.72482C12.7791 4.70002 12.7895 4.67007 12.8143 4.65802C12.9378 4.59797 13.0811 4.57332 13.2175 4.58822C13.354 4.60322 13.4884 4.65852 13.5959 4.74397C13.6175 4.76112 13.6211 4.79257 13.6039 4.81422C13.5941 4.82662 13.5795 4.83307 13.5647 4.83307Z" fill="#2B3448"/>
<path d="M13.2674 4.92263C13.286 4.93588 13.2854 4.96523 13.2855 4.98963C13.2858 5.06443 13.2254 5.12528 13.1506 5.12553C13.0758 5.12583 13.0149 5.06543 13.0146 4.99063C13.0145 4.96513 13.0216 4.94123 13.0338 4.92078C13.0338 4.92078 13.2111 4.88248 13.2674 4.92263Z" fill="#2B3448"/>
<path d="M11.8761 5.78979C11.8845 5.91839 11.731 6.03309 11.5332 6.04594C11.3355 6.05884 11.1683 5.96504 11.16 5.83644C11.1516 5.70784 11.3051 5.59314 11.5029 5.58029C11.7007 5.56739 11.8678 5.66119 11.8761 5.78979Z" fill="#DF895D"/>
<path d="M13.6476 5.70531C13.656 5.83391 13.5025 5.94861 13.3047 5.96146C13.107 5.97436 12.9398 5.88056 12.9315 5.75196C12.9231 5.62336 13.0766 5.50866 13.2744 5.49581C13.4721 5.48296 13.6392 5.57676 13.6476 5.70531Z" fill="#DF895D"/>
<path d="M10.8535 5.79962C10.8317 5.79962 10.8116 5.78517 10.8054 5.76317C10.7557 5.58622 10.682 5.41697 10.5864 5.26012C10.5721 5.23652 10.5795 5.20577 10.6031 5.19142C10.6267 5.17702 10.6575 5.18447 10.6718 5.20807C10.7721 5.37272 10.8495 5.55037 10.9017 5.73607C10.9092 5.76267 10.8937 5.79027 10.8671 5.79772C10.8626 5.79902 10.858 5.79962 10.8535 5.79962Z" fill="#E06A43"/>
<path d="M14.011 5.77498C14.0071 5.77498 14.0031 5.77453 13.9992 5.77358C13.9723 5.76708 13.9559 5.74008 13.9624 5.71318C14.0089 5.52108 14.0847 5.33818 14.1879 5.16943C14.2024 5.14588 14.2332 5.13843 14.2567 5.15288C14.2803 5.16728 14.2877 5.19808 14.2733 5.22163C14.1755 5.38143 14.1036 5.55473 14.0596 5.73668C14.054 5.75963 14.0336 5.77498 14.011 5.77498Z" fill="#E06A43"/>
<path d="M12.4259 6.53055C12.3227 6.53055 12.249 6.5144 12.2415 6.5127C12.2146 6.50655 12.1978 6.4798 12.2039 6.4529C12.21 6.42595 12.2371 6.4092 12.2636 6.4152C12.2679 6.4162 12.6789 6.50505 12.9077 6.2304C12.9253 6.2092 12.9568 6.2063 12.9781 6.224C12.9993 6.2417 13.0022 6.2732 12.9845 6.2944C12.8207 6.49095 12.5873 6.53055 12.4259 6.53055Z" fill="#2B3448"/>
<path d="M15.2303 16.8023L12.7773 18.9258L8.94287 16.7065C9.05317 16.7653 10.8395 17.6999 12.6113 17.6999C13.7286 17.6999 14.6683 17.1951 15.2303 16.8023Z" fill="#212936"/>
<path d="M17.5175 18.7446L16.3925 19.7994C16.3186 19.7921 16.252 19.7989 16.1938 19.8254C16.0476 19.892 15.8503 20.0403 15.675 20.1855C15.4486 20.3718 15.2587 20.5539 15.2587 20.5539H14.8455L14.3335 20.3145L17.5175 18.7446Z" fill="#212936"/>
<path d="M20.0684 15.0524C20.0684 15.4411 20.044 17.2748 19.1453 17.9185C18.2467 18.5622 17.5177 18.7448 17.5177 18.7448L14.3337 20.3147L14.0928 20.2018C14.0074 20.8757 13.8175 21.4444 13.7004 21.7488C13.6416 21.9013 13.601 21.9871 13.601 21.9871C13.601 21.9871 12.8705 21.7889 11.8589 21.4985C11.2948 21.3372 10.6433 21.1468 9.98249 20.9454C9.18374 20.7034 8.37199 20.4458 7.68464 20.2065C7.49629 20.1404 7.31729 20.0764 7.15024 20.0139C6.71989 19.8531 6.37024 19.7054 6.15014 19.5826C4.81129 18.8353 4.78369 17.8883 4.78369 17.3419C4.78369 16.795 5.76764 15.8116 6.22299 15.848C6.67829 15.8844 8.93764 16.704 8.93764 16.704L8.94284 16.7066L8.95794 16.7149L12.7773 18.9259L15.2302 16.8023C15.5882 16.552 15.7932 16.347 15.7932 16.347C15.7932 16.347 15.8988 16.2456 16.068 16.09C16.6013 15.5988 17.7643 14.5674 18.1978 14.4935C18.7686 14.3968 20.0684 14.6638 20.0684 15.0524Z" fill="#2B3448"/>
<path d="M14.0925 20.2519C14.0924 20.2519 14.0922 20.2519 14.0921 20.2519C14.0644 20.2517 14.0423 20.2291 14.0425 20.2015C14.0444 19.9882 13.9898 19.8314 13.9726 19.7872L12.7492 18.9675C12.7263 18.9521 12.7202 18.9211 12.7355 18.8981C12.751 18.8752 12.782 18.8691 12.8049 18.8844L14.0409 19.7125C14.0487 19.7177 14.0548 19.725 14.0587 19.7336C14.0622 19.7414 14.1449 19.9288 14.1426 20.2024C14.1423 20.2298 14.1199 20.2519 14.0925 20.2519Z" fill="#212936"/>
<path d="M14.0925 20.2021L14.8457 20.5543C14.6452 20.8701 14.9672 21.2402 14.9672 21.2402C14.6697 21.4224 14.6513 22.1694 14.6513 22.1694L13.7002 21.7487C13.8173 21.4446 14.0073 20.8758 14.0925 20.2021Z" fill="#E79E73"/>
<path d="M16.3922 19.7997C16.7412 19.836 17.2305 20.2008 17.5416 20.3113C17.9182 20.445 19.1327 20.1292 19.7644 20.8212C20.3957 21.5136 20.4381 21.805 20.3717 22.2786C20.3048 22.7521 19.5215 22.7766 19.4363 22.7766C19.4363 22.7766 19.902 22.404 19.404 21.4245C19.3555 21.3288 19.2991 21.2475 19.2371 21.1776C18.6626 20.5319 17.5721 20.8985 17.1449 20.5988C16.6713 20.2667 15.7526 20.1859 15.7526 20.1859L15.6748 20.1855C15.85 20.0404 16.0475 19.8923 16.1938 19.8255C16.2519 19.7988 16.3188 19.7923 16.3922 19.7997Z" fill="#F8E9CB"/>
<path d="M19.4042 21.4246C19.9023 22.404 19.4366 22.7767 19.4366 22.7767C19.4086 22.7767 19.0582 22.7295 18.5899 22.6662V22.6657C18.5899 22.6657 18.1998 21.9654 18.7188 21.5718V21.5713C18.9451 21.5027 19.1299 21.3791 19.2374 21.1777C19.2994 21.2477 19.3557 21.3289 19.4042 21.4246Z" fill="#F8E9CB"/>
<path d="M18.7187 21.5714V21.5718C18.1997 21.9654 18.5898 22.6658 18.5898 22.6658V22.6662C17.6252 22.5347 16.159 22.3355 15.9751 22.3394C15.7021 22.3455 14.6636 22.3032 14.6636 22.3032L14.6514 22.1695C14.6514 22.1695 14.6697 21.4224 14.9672 21.2402C14.9672 21.2402 16.2971 21.297 17.0197 21.4814C17.5178 21.6081 18.2185 21.7239 18.7187 21.5714Z" fill="#E06A43"/>
<path d="M19.2371 21.1777C19.1296 21.3791 18.9448 21.5027 18.7185 21.5713C18.2183 21.7237 17.5175 21.608 17.0195 21.4813C16.2969 21.2969 14.967 21.2401 14.967 21.2401C14.967 21.2401 14.645 20.8701 14.8456 20.5542H15.2584C15.2584 20.5542 15.4485 20.372 15.6748 20.1855L15.7525 20.186C15.7525 20.186 16.6713 20.2668 17.1448 20.5988C17.5721 20.8985 18.6626 20.532 19.2371 21.1777Z" fill="#CB4F30"/>
<path d="M19.5348 22.7953C19.5278 22.7953 19.5207 22.7938 19.5139 22.7907C19.4888 22.7791 19.4778 22.7494 19.4894 22.7243C19.6416 22.3946 19.6504 21.9971 19.513 21.661C19.3757 21.3249 19.091 21.0474 18.7515 20.9185C18.7257 20.9088 18.7127 20.8799 18.7225 20.8541C18.7323 20.8282 18.7613 20.8152 18.787 20.8251C19.1519 20.9635 19.458 21.2618 19.6056 21.6232C19.7533 21.9845 19.7438 22.4118 19.5803 22.7662C19.5718 22.7846 19.5537 22.7953 19.5348 22.7953Z" fill="#EFCD97"/>
<path d="M16.0419 22.1458C16.0411 22.1458 16.0402 22.1458 16.0393 22.1458C15.7799 22.1321 15.5117 22.1179 15.2475 22.0567C14.95 21.9878 14.7068 21.8679 14.5247 21.7003C14.4247 21.6083 14.3864 21.5141 14.414 21.4279C14.4489 21.3182 14.5741 21.2787 14.6796 21.2783C14.6806 21.2783 14.6815 21.2783 14.6825 21.2783C14.9751 21.2783 15.2357 21.4582 15.4064 21.5937C15.4499 21.6282 15.4928 21.6638 15.5358 21.6994C15.5891 21.7436 15.6431 21.7884 15.6986 21.8312C15.4737 21.53 15.345 21.2014 15.3295 20.8796C15.3253 20.7934 15.333 20.5863 15.4939 20.5248C15.5732 20.4945 15.6727 20.5158 15.7476 20.579C15.8126 20.634 15.8523 20.7095 15.8825 20.7762C16.0734 21.1974 16.0833 21.6741 16.0919 22.0948C16.0922 22.1087 16.0867 22.1221 16.0766 22.1318C16.0674 22.1408 16.0549 22.1458 16.0419 22.1458ZM14.6825 21.3783C14.6817 21.3783 14.6809 21.3783 14.68 21.3783C14.6129 21.3785 14.5279 21.3997 14.5092 21.4583C14.4895 21.5201 14.5529 21.5904 14.5924 21.6268C14.7616 21.7824 14.9897 21.8944 15.2701 21.9593C15.4484 22.0006 15.6305 22.0199 15.811 22.0323C15.6901 21.9571 15.5798 21.8657 15.472 21.7764C15.4295 21.7412 15.3872 21.7061 15.3442 21.672C15.1718 21.5351 14.9409 21.3783 14.6825 21.3783ZM15.5709 20.6109C15.5564 20.6109 15.5425 20.6133 15.5296 20.6182C15.427 20.6574 15.4269 20.8245 15.4294 20.8748C15.4481 21.2655 15.6469 21.6692 15.9902 22.0162C15.9815 21.6257 15.9621 21.1938 15.7915 20.8175C15.7658 20.761 15.7329 20.6975 15.683 20.6554C15.6489 20.6265 15.6081 20.6109 15.5709 20.6109Z" fill="#EFCD97"/>
<path d="M16.3669 22.4051C16.3665 22.4051 16.3661 22.4051 16.3657 22.4051C16.3381 22.4044 16.3163 22.3814 16.3169 22.3539C16.3253 22.0105 16.4124 21.6672 16.5688 21.3612C16.5813 21.3367 16.6115 21.3269 16.6361 21.3394C16.6607 21.352 16.6704 21.3821 16.6579 21.4067C16.5083 21.6994 16.425 22.0278 16.417 22.3563C16.4163 22.3835 16.394 22.4051 16.3669 22.4051Z" fill="#EFCD97"/>
<path d="M16.7938 22.4829C16.7674 22.4829 16.7453 22.4622 16.7439 22.4355C16.7269 22.1066 16.8069 21.7676 16.9689 21.4809C16.9825 21.4569 17.0131 21.4485 17.037 21.462C17.061 21.4756 17.0695 21.5061 17.0559 21.5301C16.9031 21.8004 16.8278 22.1201 16.8438 22.4303C16.8452 22.4579 16.8241 22.4814 16.7965 22.4828C16.7956 22.4829 16.7947 22.4829 16.7938 22.4829Z" fill="#EFCD97"/>
<path d="M17.4106 22.5453C17.3845 22.5453 17.3626 22.5251 17.3608 22.4987C17.3391 22.1801 17.3994 21.8589 17.5349 21.5698C17.5466 21.5448 17.5763 21.534 17.6014 21.5458C17.6264 21.5575 17.6372 21.5873 17.6254 21.6123C17.4971 21.8861 17.44 22.1903 17.4605 22.492C17.4624 22.5195 17.4416 22.5433 17.414 22.5452C17.4129 22.5453 17.4118 22.5453 17.4106 22.5453Z" fill="#EFCD97"/>
<path d="M7.64451 22.5791C7.40421 22.5909 7.27926 22.5821 7.27926 22.5821C7.27926 22.5821 6.51431 22.2484 6.46536 21.4161C6.42866 20.7879 6.91141 20.2431 7.14996 20.0142C7.31686 20.0762 7.49596 20.1404 7.68426 20.2064C7.62966 20.2579 7.56761 20.3208 7.50471 20.3934C7.26311 20.6699 7.00316 21.0876 7.06086 21.562C7.12811 22.1151 7.35446 22.3737 7.50471 22.4869C7.58551 22.5476 7.64406 22.5664 7.64406 22.5664L7.64451 22.5791Z" fill="#F8E9CB"/>
<path d="M11.8589 21.4989C11.8157 21.526 11.7711 21.5509 11.7252 21.5741C11.7248 21.5741 11.7248 21.5741 11.7248 21.5741C11.4032 21.592 9.09475 21.7239 8.44555 21.8537C8.425 21.8576 8.4045 21.8624 8.3848 21.8668C8.42675 21.5033 8.3791 21.2512 8.30615 21.0795C8.73955 21.1105 9.4914 21.0179 9.98245 20.9458C10.6431 21.1468 11.2949 21.3373 11.8589 21.4989Z" fill="#E06A43"/>
<path d="M8.44548 21.8533C9.09468 21.7236 11.4031 21.5916 11.7247 21.5737C11.4036 21.738 11.023 21.8249 10.6071 21.9625C9.16938 22.4392 8.15103 22.5545 7.64468 22.579L7.64423 22.5663C7.64423 22.5663 7.58568 22.5475 7.50488 22.4868C7.50488 22.4868 7.73293 22.022 8.38473 21.8665C8.40443 21.862 8.42498 21.8572 8.44548 21.8533Z" fill="#CB4F30"/>
<path d="M8.30608 21.0794C8.17808 21.0702 8.07803 21.0502 8.02038 21.0156C7.65603 20.7972 7.50488 20.3935 7.50488 20.3935C7.56778 20.321 7.62983 20.2581 7.68443 20.2065C8.37208 20.4459 9.18378 20.7037 9.98243 20.9457C9.49133 21.0178 8.73948 21.1104 8.30608 21.0794Z" fill="#CB4F30"/>
<path d="M8.30591 21.0795C8.37886 21.2512 8.42651 21.5032 8.38456 21.8667C7.73276 22.0223 7.50471 22.4871 7.50471 22.4871C7.35441 22.3739 7.12811 22.1153 7.06086 21.5622C7.00321 21.0878 7.26311 20.6701 7.50471 20.3936C7.50471 20.3936 7.65586 20.7972 8.02021 21.0157C8.07786 21.0502 8.17791 21.0703 8.30591 21.0795Z" fill="#F8E9CB"/>
<path d="M9.32343 22.0626C9.32228 22.0626 9.32118 22.0626 9.32008 22.0625C9.29253 22.0607 9.27168 22.0368 9.27353 22.0093C9.29828 21.6379 9.24408 21.2567 9.11678 20.9069C9.10738 20.881 9.12073 20.8523 9.14668 20.8429C9.17258 20.8334 9.20133 20.8468 9.21078 20.8728C9.34278 21.2355 9.39898 21.6308 9.37333 22.016C9.37153 22.0424 9.34953 22.0626 9.32343 22.0626Z" fill="#EFCD97"/>
<path d="M10.2002 21.8169C10.199 21.8169 10.1977 21.8169 10.1964 21.8168C10.1689 21.8147 10.1482 21.7907 10.1503 21.7631C10.172 21.4785 10.1235 21.1896 10.01 20.9277C9.999 20.9024 10.0107 20.8729 10.036 20.862C10.0613 20.8511 10.0908 20.8627 10.1018 20.888C10.2217 21.1648 10.2729 21.47 10.25 21.7708C10.248 21.797 10.2261 21.8169 10.2002 21.8169Z" fill="#EFCD97"/>
<path d="M7.55475 22.5645C7.5412 22.5645 7.52775 22.5591 7.5179 22.5483C7.2266 22.2314 7.06675 21.8029 7.0793 21.3727C7.0918 20.9425 7.27635 20.5239 7.58555 20.2245C7.6054 20.2054 7.63705 20.2058 7.65625 20.2257C7.67545 20.2455 7.67495 20.2771 7.65515 20.2964C7.3645 20.5778 7.19105 20.9711 7.17925 21.3756C7.1675 21.78 7.31775 22.1828 7.59155 22.4806C7.6102 22.5009 7.6089 22.5326 7.58855 22.5513C7.579 22.5601 7.56685 22.5645 7.55475 22.5645Z" fill="#EFCD97"/>
<path d="M12.1086 16.981C12.1005 16.981 12.0922 16.9802 12.0838 16.9787C11.0323 16.7806 10.269 15.8589 10.269 14.7872C10.269 13.7151 11.0323 12.7932 12.0838 12.5951C12.1561 12.5816 12.2256 12.629 12.2392 12.7012C12.2527 12.7734 12.2052 12.8429 12.1331 12.8565C11.2071 13.0309 10.535 13.8429 10.535 14.7872C10.535 15.7311 11.2071 16.5428 12.1331 16.7172C12.2052 16.7308 12.2527 16.8004 12.2392 16.8726C12.2271 16.9364 12.1713 16.981 12.1086 16.981Z" fill="#E5A835"/>
<path d="M12.8916 16.981C12.8289 16.981 12.7731 16.9364 12.7611 16.8726C12.7475 16.8004 12.795 16.7308 12.8672 16.7172C13.7931 16.5428 14.4652 15.7311 14.4652 14.7872C14.4652 13.8429 13.7931 13.0309 12.8672 12.8565C12.795 12.8429 12.7475 12.7734 12.7611 12.7012C12.7747 12.629 12.8442 12.5816 12.9164 12.5951C13.968 12.7932 14.7312 13.7151 14.7312 14.7872C14.7312 15.859 13.968 16.7806 12.9164 16.9787C12.9081 16.9802 12.8998 16.981 12.8916 16.981Z" fill="#E5A835"/>
<path d="M11.8737 13.4434C11.8572 13.4434 11.8404 13.4403 11.8242 13.4338C11.756 13.4064 11.723 13.329 11.7503 13.2608L11.9456 12.7745L11.4743 12.4485C11.4139 12.4067 11.3988 12.3238 11.4406 12.2634C11.4823 12.2031 11.5652 12.1878 11.6257 12.2298L12.1843 12.6163C12.2354 12.6516 12.2552 12.7176 12.2321 12.7752L11.9972 13.36C11.9763 13.4118 11.9264 13.4434 11.8737 13.4434Z" fill="#E5A835"/>
<path d="M13.4283 17.3716C13.4022 17.3716 13.3759 17.364 13.3527 17.348L12.7941 16.9615C12.7431 16.9261 12.7233 16.8602 12.7464 16.8025L12.9813 16.2177C13.0087 16.1497 13.086 16.1166 13.1543 16.1438C13.2224 16.1712 13.2555 16.2487 13.2282 16.3168L13.0328 16.8031L13.5042 17.1292C13.5645 17.1709 13.5797 17.2538 13.5378 17.3142C13.512 17.3516 13.4705 17.3716 13.4283 17.3716Z" fill="#E5A835"/>
<path d="M12.5058 16.0951C11.8727 16.0951 11.3283 15.6444 11.2113 15.0234C11.1977 14.9512 11.2452 14.8816 11.3174 14.868C11.3894 14.8546 11.4592 14.9019 11.4728 14.9741C11.5661 15.4696 12.0005 15.8291 12.5058 15.8291C13.0109 15.8291 13.4452 15.4695 13.5385 14.9741C13.5521 14.902 13.6218 14.8546 13.6939 14.868C13.766 14.8816 13.8135 14.9511 13.8 15.0234C13.683 15.6444 13.1387 16.0951 12.5058 16.0951Z" fill="#F8E9CB"/>
<path d="M13.669 14.6894C13.6063 14.6894 13.5505 14.6448 13.5385 14.581C13.4452 14.0855 13.0109 13.726 12.5058 13.726C12.0005 13.726 11.566 14.0856 11.4727 14.581C11.4591 14.6531 11.3896 14.7005 11.3174 14.6871C11.2452 14.6735 11.1977 14.6039 11.2113 14.5317C11.3283 13.9107 11.8727 13.46 12.5058 13.46C13.1387 13.46 13.683 13.9107 13.7999 14.5317C13.8135 14.6039 13.766 14.6735 13.6938 14.6871C13.6855 14.6887 13.6772 14.6894 13.669 14.6894Z" fill="#F8E9CB"/>
<path d="M11.1236 15.4468C11.0975 15.4468 11.0712 15.4392 11.0481 15.4232C10.9877 15.3814 10.9726 15.2985 11.0144 15.2382L11.293 14.8354L11.7217 15.0076C11.7898 15.035 11.8229 15.1124 11.7956 15.1806C11.7682 15.2487 11.6909 15.2818 11.6226 15.2545L11.3909 15.1614L11.2332 15.3895C11.2073 15.4268 11.1658 15.4468 11.1236 15.4468Z" fill="#F8E9CB"/>
<path d="M13.7075 14.7193L13.2788 14.5472C13.2106 14.5198 13.1776 14.4423 13.2049 14.3742C13.2323 14.3061 13.3096 14.273 13.3779 14.3003L13.6095 14.3933L13.7673 14.1652C13.8091 14.1048 13.8919 14.0897 13.9524 14.1316C14.0127 14.1733 14.0279 14.2562 13.986 14.3166L13.7075 14.7193Z" fill="#F8E9CB"/>
</svg>
