<svg width="25" height="25" viewBox="0 0 25 25" fill="none" xmlns="http://www.w3.org/2000/svg">
<mask id="mask0_1661_6313" style="mask-type:luminance" maskUnits="userSpaceOnUse" x="0" y="0" width="25" height="25">
<path d="M25 0H0V25H25V0Z" fill="white"/>
</mask>
<g mask="url(#mask0_1661_6313)">
<path d="M13.3422 27.9034C15.9358 27.4516 17.5271 26.7021 18.156 25.3256C19.1317 23.1898 20.9749 24.9574 21.8856 23.4598C22.7963 21.9623 21.517 20.342 23.2517 19.0163C24.9864 17.6906 23.9672 14.4254 21.2568 14.0081C18.5463 13.5907 21.1267 11.5285 20.216 9.98186C19.3053 8.43521 16.8983 9.58906 16.7249 9.04896C16.5514 8.50886 20.2973 6.24251 15.8575 5.07186C9.24474 3.32816 2.63038 7.04056 5.18908 9.68956C7.74778 12.3386 2.28343 11.7003 2.54363 14.2044C2.80383 16.7085 6.05643 18.1324 3.34593 19.9492C0.635434 21.7659 0.960734 24.4909 3.12908 24.6382C5.29748 24.7855 7.81279 25.1047 8.46328 26.6759C9.11384 28.2471 12.4965 28.0507 13.3422 27.9034Z" fill="#F6E7E9"/>
<path d="M4.47424 10.8316C4.31984 11.7146 1.36029 11.8048 1.80894 10.3857C2.25759 8.96661 4.67964 9.65706 4.47424 10.8316Z" fill="#F6E7E9"/>
<path d="M23.4771 19.7374C24.1372 19.2813 25.3154 21.919 23.7728 22.3237C22.2302 22.7284 22.4758 20.4292 23.4771 19.7374Z" fill="#F6E7E9"/>
</g>
<mask id="mask1_1661_6313" style="mask-type:luminance" maskUnits="userSpaceOnUse" x="0" y="0" width="25" height="25">
<path d="M25 0H0V25H25V0Z" fill="white"/>
</mask>
<g mask="url(#mask1_1661_6313)">
<path d="M11.4384 24.4728C10.8299 23.6983 10.0208 22.9677 9.04526 22.9818C8.75456 22.986 8.46776 23.0581 8.17701 23.0587C7.46401 23.0602 7.00921 22.6424 6.60996 22.1124C6.29826 21.6985 5.75576 20.9859 5.14856 21.0884C4.88426 21.1331 4.66126 21.3404 4.39336 21.3503C4.16956 21.3585 3.82846 21.2243 3.67086 21.069C3.55191 20.9518 3.46171 20.8076 3.33971 20.6936C2.97751 20.355 2.34161 20.3729 1.99906 20.7314C1.45216 21.3037 1.89591 22.3156 2.52506 22.6226C2.82426 22.7687 3.18711 22.7765 3.45476 22.9746C3.86756 23.28 3.88681 23.8978 4.20621 24.2998C4.57376 24.7624 5.23631 24.8354 5.82601 24.8719C6.00491 24.8829 6.19066 24.8959 6.34716 24.9832C6.80376 25.238 6.74136 25.9007 6.92391 26.3907C7.11401 26.9009 7.59831 27.2401 8.08761 27.4789C9.01666 27.9322 10.3195 28.2501 11.311 27.7845C11.7624 27.5725 12.1301 27.1646 12.2417 26.6786C12.4127 25.9333 11.9836 25.1894 11.5212 24.5803C11.4941 24.5444 11.4665 24.5085 11.4384 24.4728Z" fill="#006F7B"/>
<path d="M2.69189 21.521C3.07094 21.8268 3.50744 22.0612 3.97174 22.2082C4.15689 22.2669 4.34829 22.3125 4.51854 22.4059C4.82994 22.5768 5.03529 22.8857 5.27619 23.1466C5.51804 23.4086 5.80634 23.6302 6.13034 23.779C6.59554 23.9928 7.11469 24.0505 7.60984 24.1806C8.53874 24.4247 9.39605 24.9352 10.0532 25.6356C10.3159 25.9156 10.5481 26.2259 10.839 26.4765C11.1156 26.7148 11.4422 26.8948 11.7914 27.0014C11.9578 27.0522 12.1399 27.086 12.3035 27.0267C12.4671 26.9674 12.5967 26.7857 12.5431 26.6202" stroke="#67C3BB" stroke-width="1.5" stroke-miterlimit="10"/>
<path d="M5.43428 21.8389C5.58043 22.5293 5.83357 23.1969 6.18192 23.8106C5.70982 23.7475 5.23773 23.6844 4.76562 23.6213" stroke="#67C3BB" stroke-width="1.5" stroke-miterlimit="10"/>
<path d="M9.18094 23.6992C9.26159 24.2796 9.47015 24.8419 9.78755 25.3345C9.475 25.3044 9.16035 25.3423 8.84865 25.3802C8.4033 25.4343 7.958 25.4884 7.5127 25.5426" stroke="#67C3BB" stroke-width="1.5" stroke-miterlimit="10"/>
<path d="M3.24624 21.2598C3.42004 21.6118 3.66184 21.93 3.95434 22.1918C3.64194 22.1899 3.32949 22.188 3.01709 22.186" stroke="#67C3BB" stroke-width="1.5" stroke-miterlimit="10"/>
<path d="M12.3241 21.197C12.3799 21.2343 12.4357 21.2716 12.4915 21.3089C12.1182 19.9914 11.0078 19.0015 9.8053 18.3464C8.6028 17.6914 7.2757 17.2991 6.03955 16.71C6.29315 17.907 6.5955 19.1904 7.51385 19.999C8.202 20.6049 9.1697 20.8739 9.73935 21.5924L12.3241 21.197Z" fill="#67C3BB"/>
<path d="M6.96729 17.7529C7.64069 18.2948 8.31409 18.8367 8.98749 19.3786C9.32479 19.65 9.66298 19.9222 9.96563 20.2319C10.2206 20.4927 10.4522 20.7817 10.7506 20.9914C11.0829 21.2249 11.497 21.3607 11.7449 21.6823" stroke="#006F7B" stroke-width="1.5" stroke-miterlimit="10"/>
<path d="M10.1539 19.0723C10.3168 19.5437 10.3117 20.0714 10.1396 20.5396" stroke="#006F7B" stroke-width="1.5" stroke-miterlimit="10"/>
<path d="M8.84326 18.5195C8.97421 18.7358 9.02366 19.0002 8.97976 19.2492" stroke="#006F7B" stroke-width="1.5" stroke-miterlimit="10"/>
<path d="M7.39697 19.0766C7.77157 19.039 8.14612 19.0015 8.52072 18.9639" stroke="#006F7B" stroke-width="1.5" stroke-miterlimit="10"/>
<path d="M8.31982 20.3555C8.85192 20.3191 9.37987 20.2225 9.89032 20.0679" stroke="#006F7B" stroke-width="1.5" stroke-miterlimit="10"/>
<path d="M21.8214 20.3448C21.4515 20.3847 21.1273 20.6033 20.8329 20.8308C20.5385 21.0582 20.2472 21.3063 19.894 21.4232C19.5056 21.5518 19.0719 21.5108 18.6953 21.6708C17.9377 21.9925 17.687 22.9828 16.987 23.4158C16.6933 23.5975 16.3397 23.6671 16.052 23.8582C15.5634 24.1826 15.3558 24.7853 15.1798 25.3448L13.7812 28.6167C13.7825 28.6196 13.784 28.6222 13.7854 28.6251C16.0865 25.3574 19.2296 22.7691 22.6614 20.7585C22.5238 20.4659 22.1526 20.3092 21.8214 20.3448Z" fill="#67C3BB"/>
<path d="M22.6612 20.7583C19.2294 22.7689 16.0864 25.3571 13.7852 28.6249C14.1147 29.3519 15.1017 29.5224 15.8786 29.3313C17.1011 29.0306 18.136 28.0594 18.5138 26.8585C18.6105 26.551 18.6736 26.2177 18.8844 25.974C19.1561 25.6598 19.6054 25.5711 19.9385 25.323C20.836 24.6544 20.5937 23.1388 21.4035 22.3663C21.6582 22.1232 21.9924 21.9818 22.2712 21.7667C22.55 21.5516 22.7836 21.2079 22.7001 20.8659C22.6908 20.8281 22.6772 20.7925 22.6612 20.7583Z" fill="#41B4AA"/>
<path d="M22.4038 20.9282C20.83 21.9706 19.2635 23.0296 17.7984 24.22C16.3044 25.4338 14.9223 26.7789 13.5767 28.1553" stroke="#006F7B" stroke-width="1.5" stroke-miterlimit="10"/>
<path d="M19.1399 21.9395C18.9695 22.5237 18.772 23.1 18.5483 23.6659" stroke="#006F7B" stroke-width="1.5" stroke-miterlimit="10"/>
<path d="M19.8676 24.1128C19.1914 24.1784 18.5102 24.1915 17.832 24.1518" stroke="#006F7B" stroke-width="1.5" stroke-miterlimit="10"/>
<path d="M21.1477 20.9604C21.03 21.2744 20.9436 21.6001 20.8901 21.9311" stroke="#006F7B" stroke-width="1.5" stroke-miterlimit="10"/>
<path d="M21.9834 21.5403C21.8151 21.5566 21.6445 21.5486 21.4785 21.5166" stroke="#006F7B" stroke-width="1.5" stroke-miterlimit="10"/>
<path d="M15.2432 21.6342C16.169 21.3778 16.991 20.7644 17.5002 19.9498C18.041 19.0846 18.2364 18.0162 18.8931 17.2354C17.9498 17.0031 16.9138 17.0569 16.0576 17.5161C15.2015 17.9753 14.56 18.8725 14.5342 19.8436L15.2432 21.6342Z" fill="#006F7B"/>
<path d="M18.2865 17.4365C16.6572 18.3655 15.476 19.9117 14.4819 21.5022" stroke="#67C3BB" stroke-width="1.5" stroke-miterlimit="10"/>
<path d="M17.5109 18.8215C17.2865 18.7937 17.0622 18.7659 16.8378 18.7382C16.7444 18.7266 16.6333 18.7217 16.5742 18.7949" stroke="#67C3BB" stroke-width="1.5" stroke-miterlimit="10"/>
<path d="M16.5248 17.6279C16.3342 18.143 16.2095 18.6825 16.1548 19.229" stroke="#67C3BB" stroke-width="1.5" stroke-miterlimit="10"/>
<path d="M16.628 20.0539C16.2195 19.954 15.7789 19.9902 15.3921 20.1554" stroke="#67C3BB" stroke-width="1.5" stroke-miterlimit="10"/>
<path d="M19.7633 20.8643C19.8141 20.8692 19.8641 20.841 19.8951 20.8005C19.926 20.76 19.9401 20.7089 19.9458 20.6582C19.9624 20.5087 19.8846 20.327 19.7438 20.274C19.8069 20.0818 19.6837 19.8486 19.4919 19.7845C19.4828 19.6006 19.3158 19.4386 19.1318 19.4351C18.9608 19.6889 18.9232 20.0285 19.0384 20.312C19.1536 20.5956 19.4587 20.8351 19.7633 20.8643Z" fill="#C17E1E"/>
<path d="M19.8208 21.1109C19.8458 20.8521 19.6584 20.4803 19.3544 20.56C19.7306 20.3877 19.4389 19.8417 19.0753 19.9367C19.3573 19.7202 19.1023 19.3526 18.8771 19.1958C19.191 19.9203 17.8798 20.0025 17.926 20.6903C17.9106 21.089 18.3407 21.3134 18.6883 21.1614C19.0284 20.9892 19.5306 20.7333 19.8208 21.1109Z" fill="#FFBC50"/>
<path d="M15.7759 24.359C15.8864 22.8647 16.8316 21.482 18.1838 20.8364L18.2055 20.882C16.8694 21.5199 15.9354 22.8861 15.8261 24.3627L15.7759 24.359Z" fill="#006F7B"/>
<path d="M17.9331 20.8688C17.8738 20.7024 17.847 20.5246 17.8535 20.3481C17.8564 20.2717 17.9618 20.2556 17.9894 20.3269C18.0279 20.4265 18.0491 20.5328 18.0508 20.6396C18.0886 20.6193 18.1604 20.6101 18.2032 20.6076C18.246 20.6051 18.2923 20.622 18.3143 20.6588C18.336 20.6952 18.3294 20.743 18.3087 20.7799C18.2879 20.8168 18.2551 20.8452 18.223 20.8728C18.2762 20.8933 18.3507 20.9345 18.3838 20.9809C18.4072 21.0137 18.4241 21.0549 18.4143 21.094C18.4045 21.1331 18.359 21.1639 18.3226 21.1466C18.3688 21.1995 18.4193 21.2538 18.4754 21.2994C18.5092 21.327 18.4831 21.3819 18.4409 21.3709C18.2132 21.3117 18.0126 21.092 17.9331 20.8688Z" fill="#006F7B"/>
<path d="M16.4199 22.1174C16.431 21.8982 16.3885 21.6694 16.2595 21.4919C16.2186 21.4356 16.162 21.3817 16.0925 21.3795C16.0198 21.3772 15.9569 21.4336 15.923 21.4979C15.8565 21.6242 15.8743 21.7769 15.9005 21.9172C15.9494 22.1784 16.0108 22.6845 16.2373 22.8444C16.3684 22.6843 16.4091 22.3308 16.4199 22.1174Z" fill="#006F7B"/>
<path d="M16.5665 22.7994C16.7727 22.7091 17.0102 22.6441 17.2199 22.7258C17.2607 22.7417 17.3016 22.7651 17.3222 22.8037C17.3384 22.8342 17.3398 22.8705 17.3354 22.9047C17.3148 23.0647 17.1749 23.1887 17.0219 23.2397C16.8688 23.2907 16.7033 23.2829 16.5422 23.2745C16.4034 23.2673 16.0392 23.329 16.0642 23.1205C16.0809 22.9821 16.4559 22.8478 16.5665 22.7994Z" fill="#006F7B"/>
<path d="M17.7882 21.9281C17.8836 21.9813 17.9807 22.0742 17.9597 22.1814C17.9411 22.276 17.8341 22.3304 17.7378 22.3276C17.6414 22.3247 17.5521 22.2804 17.4624 22.245C17.1961 22.1397 16.9278 22.1325 16.6484 22.1438C16.8352 21.7059 17.4249 21.7256 17.7882 21.9281Z" fill="#006F7B"/>
<path d="M5.70947 20.4819C6.48947 20.6356 7.20522 21.0392 7.81062 21.5545C8.41602 22.0698 8.91852 22.6949 9.38007 23.3422" stroke="#006F7B" stroke-width="0.8161" stroke-miterlimit="10"/>
<path d="M8.32238 21.4388C8.34868 21.3554 8.38928 21.2726 8.45883 21.2197C8.52843 21.1667 8.63228 21.1517 8.70298 21.2032C8.77643 21.2567 8.79213 21.3605 8.78223 21.4508C8.77493 21.5176 8.75708 21.5832 8.72958 21.6444C8.64423 21.8345 8.46413 21.9951 8.46953 22.2033C8.23243 22.0834 8.25528 21.6517 8.32238 21.4388Z" fill="#006F7B"/>
<path d="M7.92195 21.7161C7.813 21.6474 7.70255 21.578 7.57985 21.5388C7.45715 21.4996 7.31885 21.4932 7.20285 21.5493C7.1567 21.5716 7.11285 21.6064 7.09755 21.6554C7.0783 21.7169 7.10975 21.7846 7.15615 21.8293C7.23465 21.9051 7.34955 21.9306 7.45865 21.9321C7.56775 21.9337 7.67635 21.9147 7.7854 21.9161C7.9509 21.9182 8.1118 21.9671 8.27005 22.0156C8.27425 22.0028 8.27845 21.99 8.2826 21.9772C8.1673 21.878 8.04855 21.8003 7.92195 21.7161Z" fill="#006F7B"/>
<path d="M8.55183 22.429C8.44288 22.3603 8.33244 22.2909 8.20974 22.2517C8.08704 22.2125 7.94873 22.2061 7.83273 22.2622C7.78658 22.2845 7.74273 22.3193 7.72743 22.3683C7.70818 22.4298 7.73963 22.4975 7.78603 22.5423C7.86453 22.618 7.97943 22.6435 8.08853 22.6451C8.19763 22.6466 8.30623 22.6276 8.41528 22.629C8.58078 22.6312 8.74168 22.6801 8.89993 22.7285C8.90413 22.7158 8.90833 22.703 8.91248 22.6902C8.79713 22.5909 8.67843 22.5131 8.55183 22.429Z" fill="#006F7B"/>
<path d="M7.35585 21.07C7.29775 20.9884 7.2448 20.9009 7.22035 20.8038C7.19595 20.7066 7.2031 20.5979 7.2584 20.5144C7.32625 20.412 7.46565 20.3635 7.58245 20.4016C7.69925 20.4398 7.7831 20.5613 7.77735 20.684C7.7752 20.7306 7.7616 20.7758 7.7467 20.82C7.71135 20.9251 7.66805 21.0282 7.6469 21.1371C7.62575 21.2462 7.63205 21.3554 7.67785 21.4573C7.5564 21.4185 7.42715 21.1703 7.35585 21.07Z" fill="#006F7B"/>
<path d="M5.98179 19.3075C6.07959 19.1318 6.33984 19.0348 6.51029 19.1517C6.53239 19.1901 6.49949 19.2358 6.46924 19.2681C6.27579 19.4746 6.10034 19.7062 6.01099 19.9746C6.00484 20.0052 5.98084 20.0238 5.94944 20.0196C5.61104 20.0221 5.88279 19.4587 5.98179 19.3075Z" fill="#FFBC50"/>
<path d="M6.46006 19.3457C6.61471 19.1322 7.09106 19.0591 7.15371 19.3691C6.98566 19.7337 6.42671 19.7128 6.18121 20.0026C6.14581 20.0504 6.05191 20.1893 5.98236 20.1031C5.95711 19.8085 6.27756 19.5521 6.46006 19.3457Z" fill="#FFBC50"/>
<path d="M6.51717 19.8111C6.77907 19.7068 7.40382 19.7629 7.29447 20.1582C7.01317 20.4665 6.55772 20.1806 6.21357 20.2335C6.13342 20.2583 5.96877 20.2657 5.98902 20.1401C6.12477 19.9932 6.32797 19.8818 6.51717 19.8111Z" fill="#FFBC50"/>
<path d="M6.64035 20.3144C6.85285 20.3712 7.11175 20.4955 7.1254 20.7432C7.13115 20.7855 7.1031 20.8179 7.06155 20.8242C6.68575 20.8959 6.394 20.5407 6.0639 20.4211C5.89395 20.1925 6.5422 20.2555 6.64035 20.3144Z" fill="#FFBC50"/>
<path d="M5.21902 21.2454C5.07137 21.4915 5.19372 22.0407 5.55067 21.8545C5.89482 21.2915 5.71712 19.798 5.21902 21.2454Z" fill="#FFBC50"/>
<path d="M5.78206 21.2994C5.78841 21.5082 5.92036 21.7732 6.15366 21.7789C6.33976 21.6535 6.27626 21.3053 6.18446 21.1319C5.77586 20.5368 5.65041 20.6179 5.78206 21.2994Z" fill="#FFBC50"/>
<path d="M6.14242 21.0512C6.26492 21.2038 6.45897 21.391 6.66922 21.3245C7.32627 20.8048 5.21077 19.8887 6.14242 21.0512Z" fill="#FFBC50"/>
<path d="M5.13405 20.8202C5.0151 20.8795 4.82215 21.4542 5.08895 21.264C5.2125 21.1129 5.2788 20.9146 5.42985 20.791C5.4867 20.7444 5.66245 20.589 5.47785 20.611C5.35045 20.6261 5.2191 20.732 5.13405 20.8202Z" fill="#FFBC50"/>
<path d="M5.80299 19.5602C5.83869 19.1786 5.31634 19.9494 5.63549 20.006C5.86019 20.0019 5.71924 19.6981 5.80299 19.5602Z" fill="#FFBC50"/>
<path d="M5.81435 20.8355C5.7163 20.9185 5.53115 20.9475 5.4391 20.8569C5.34805 20.7674 5.29845 20.6439 5.29045 20.5165C5.2593 20.0203 5.62355 19.8254 5.8216 19.7664C5.91265 19.7392 6.01085 19.7747 6.06265 19.8543C6.16545 20.0125 6.3205 20.4068 5.81435 20.8355Z" fill="#EA5781"/>
</g>
<mask id="mask2_1661_6313" style="mask-type:luminance" maskUnits="userSpaceOnUse" x="0" y="0" width="25" height="25">
<path d="M25 0H0V25H25V0Z" fill="white"/>
</mask>
<g mask="url(#mask2_1661_6313)">
<path d="M18.4339 15.9668C18.2409 16.0255 18.0362 16.0631 17.8189 16.0745C17.5657 16.0879 17.3099 16.0716 17.06 16.1147C16.8269 16.1548 16.6053 16.2456 16.395 16.3538C15.8069 16.6564 14.9312 17.34 14.5825 18.0922C14.5866 18.4205 14.7211 18.7119 14.8637 18.991C14.8761 18.9592 14.8889 18.9275 14.9022 18.8959C15.0755 18.4869 15.3284 18.097 15.6078 17.7929C16.0611 17.2995 16.6586 16.9166 17.3213 16.8185C17.7016 16.7622 18.0902 16.8 18.4721 16.7565C18.7342 16.7266 18.9897 16.6546 19.2303 16.5483C18.9196 16.4434 18.651 16.2397 18.4339 15.9668Z" fill="#EA5781"/>
<path d="M20.1467 15.1264C20.1408 14.9379 20.1263 14.75 20.1023 14.564C19.9707 14.784 19.821 14.989 19.6535 15.1729C19.3196 15.5393 18.9136 15.8205 18.4336 15.9666C18.6506 16.2395 18.9193 16.4432 19.23 16.5481C19.5603 16.4022 19.8625 16.1912 20.1145 15.932C20.3862 15.6526 20.5999 15.3177 20.7278 14.9491C20.5386 15.0278 20.3439 15.0882 20.1467 15.1264Z" fill="#F76D90"/>
<path d="M14.5824 18.0918C14.4506 18.3763 14.3939 18.6706 14.4569 18.9578C14.5043 19.1738 14.586 19.3822 14.6979 19.5729C14.731 19.3803 14.7881 19.1839 14.8636 18.9906C14.721 18.7114 14.5865 18.4201 14.5824 18.0918Z" fill="#F8849A"/>
</g>
<mask id="mask3_1661_6313" style="mask-type:luminance" maskUnits="userSpaceOnUse" x="0" y="0" width="25" height="25">
<path d="M25 0H0V25H25V0Z" fill="white"/>
</mask>
<g mask="url(#mask3_1661_6313)">
<path d="M6.94971 15.7114C7.14426 15.8212 7.35646 15.9108 7.58856 15.9752C7.85896 16.0503 8.13931 16.0941 8.39906 16.2004C8.64131 16.2996 8.85911 16.4508 9.06041 16.6181C9.62346 17.086 10.406 18.0345 10.6025 18.931C10.5194 19.2848 10.3043 19.5674 10.0833 19.8349C10.0775 19.7976 10.0713 19.7602 10.0644 19.7229C9.97516 19.2394 9.79531 18.7575 9.56616 18.3618C9.19451 17.7201 8.64066 17.1631 7.94796 16.8983C7.55056 16.7463 7.12151 16.6941 6.71926 16.5556C6.44311 16.4605 6.18431 16.3215 5.94971 16.1489C6.31061 16.1102 6.64971 15.9544 6.94971 15.7114Z" fill="#EA5781"/>
<path d="M5.29991 14.393C5.35141 14.1907 5.41216 13.9911 5.48256 13.7959C5.57211 14.0652 5.68471 14.3226 5.82171 14.5615C6.09471 15.0374 6.46611 15.4385 6.94986 15.7114C6.64991 15.9544 6.31081 16.1102 5.94986 16.149C5.62796 15.9122 5.35191 15.6118 5.14161 15.2713C4.91491 14.9042 4.76426 14.4912 4.71436 14.0622C4.90001 14.1925 5.09596 14.3044 5.29991 14.393Z" fill="#F76D90"/>
<path d="M10.6026 18.9307C10.677 19.2697 10.6677 19.6013 10.5308 19.8966C10.4278 20.1187 10.2897 20.3244 10.123 20.5036C10.1334 20.2875 10.1187 20.0616 10.0835 19.8346C10.3044 19.5671 10.5195 19.2845 10.6026 18.9307Z" fill="#F8849A"/>
</g>
<mask id="mask4_1661_6313" style="mask-type:luminance" maskUnits="userSpaceOnUse" x="0" y="0" width="25" height="25">
<path d="M25 0H0V25H25V0Z" fill="white"/>
</mask>
<g mask="url(#mask4_1661_6313)">
<path d="M9.68451 18.4083C9.68451 18.4083 8.99081 20.7394 8.90381 25.3559H12.3827L12.5939 22.9606L13.1086 25.3559H16.0874C16.0874 25.3559 16.1403 20.3576 14.9682 18.2363L9.68451 18.4083Z" fill="#EA5781"/>
<path opacity="0.15" d="M9.59912 18.7409C9.59912 18.7409 12.2652 19.9613 15.2045 18.7409L14.9426 18.1094L9.70232 18.3412L9.59912 18.7409Z" fill="#34415E"/>
<path d="M18.6765 13.2028C18.6441 12.8813 18.4386 12.59 18.1635 12.4287C17.9225 12.2874 17.6113 12.2179 17.4791 11.9688C17.3009 11.6329 17.5702 11.2455 17.6734 10.8785C17.7949 10.4463 17.6595 9.95013 17.3366 9.64353C17.0169 9.34008 16.5564 9.23083 16.2308 8.93403C15.5549 8.31793 15.1123 6.84983 14.6128 6.07888C14.1556 5.37338 13.8114 5.20988 12.9973 5.04353C12.2813 4.89723 11.5686 4.95188 10.8414 5.09308C10.214 5.21488 9.81851 5.60433 9.48616 6.16708C9.30601 6.47208 9.17111 6.80368 9.05981 7.14033C8.79456 7.94268 8.60611 8.81018 8.05221 9.44173C7.74686 9.78988 7.34986 10.041 7.02006 10.3653C6.69026 10.6895 6.41841 11.1334 6.47796 11.5962C6.54746 12.1366 7.04856 12.5637 7.04526 13.1088C7.04401 13.3143 6.96876 13.5155 6.98026 13.7207C6.99831 14.0429 7.23321 14.3206 7.51456 14.4694C7.54386 14.4849 7.57386 14.4985 7.60396 14.5118C7.66811 14.3902 7.76871 14.2638 7.84026 14.1508C7.94701 13.9822 8.03491 13.802 8.11461 13.6187C8.17291 13.4846 8.33626 13.2209 8.32876 13.0752C8.35621 13.609 8.36431 14.1437 8.35521 14.6782C8.38186 14.6806 8.40856 14.6831 8.43511 14.6853C9.05336 14.7359 9.67556 14.7363 10.2939 14.6867C10.8525 14.6418 11.4197 14.5567 11.9685 14.6718C12.4563 14.7741 12.8981 15.0285 13.3629 15.2107C13.8026 15.383 14.2664 15.4913 14.736 15.5314C14.9345 15.5483 15.1391 15.5524 15.3278 15.4875C15.6638 15.372 15.8914 15.0632 16.1546 14.8213C16.428 14.57 16.7574 14.3828 17.11 14.2744C17.0808 14.1703 17.0597 14.0554 17.0359 13.994C16.958 13.7936 16.8674 13.5987 16.7717 13.4066C16.7014 13.2654 16.604 12.9491 16.4818 12.8537C16.9367 13.2089 17.3158 13.6639 17.5873 14.1778C17.825 14.1517 18.0696 14.141 18.2765 14.023C18.5536 13.8652 18.7089 13.5243 18.6765 13.2028Z" fill="#4B332C"/>
<path opacity="0.15" d="M9.59116 6.93945C9.50056 6.96545 9.44286 7.05385 9.39736 7.13775C8.97716 7.91245 8.90071 8.84715 8.45281 9.60555C8.15276 10.1136 7.70251 10.5134 7.38176 11.0081C7.27421 11.174 7.18026 11.3542 7.14866 11.5503C7.11706 11.7465 7.15531 11.9618 7.28576 12.1098C7.21951 11.9781 7.28456 11.8008 7.33311 11.6614C7.40346 11.4594 7.51411 11.272 7.65636 11.114C7.99181 10.7413 8.49356 10.536 8.76861 10.1152C8.97066 9.806 9.02161 9.42345 9.08316 9.0575C9.21246 8.2886 9.32651 7.67165 9.59116 6.93945Z" fill="#34415E"/>
<path opacity="0.15" d="M9.86185 7.15479C9.65345 7.59164 9.5379 8.07409 9.52545 8.55959C9.5162 8.92094 9.5632 9.28199 9.55335 9.64329C9.5435 10.0046 9.4697 10.3793 9.25 10.6633C9.58565 10.5126 9.6922 10.1397 9.7374 9.76908C9.8445 8.89103 9.5765 7.99059 9.86185 7.15479Z" fill="#34415E"/>
<path opacity="0.15" d="M9.24947 9.43018C9.20872 9.80378 9.02862 10.1455 8.83712 10.467C8.64562 10.7884 8.43682 11.1057 8.32772 11.4649C8.21862 11.824 8.22377 12.2417 8.43992 12.5465C8.30767 12.3532 8.30678 12.0871 8.35678 11.8572C8.40678 11.6273 8.51757 11.4166 8.62712 11.2091C8.74922 10.9779 8.87133 10.7468 8.99343 10.5156C9.18103 10.1603 9.32637 9.82583 9.24947 9.43018Z" fill="#34415E"/>
<path opacity="0.15" d="M7.77211 11.4061C7.71441 11.4003 7.68416 11.4732 7.67436 11.5314C7.59461 12.0042 7.64191 12.4912 7.57241 12.9657C7.53776 13.2022 7.45716 13.458 7.25391 13.5781C7.45191 13.5345 7.56581 13.4394 7.66161 13.2578C7.75741 13.0762 7.79341 12.868 7.80791 12.6624C7.82326 12.4449 7.81596 12.2258 7.78631 12.0099C7.75411 11.7757 7.71521 11.6353 7.77211 11.4061Z" fill="#34415E"/>
<path opacity="0.15" d="M9.32507 12.1722C9.29107 11.8663 9.40087 11.562 9.54362 11.2907C9.68637 11.0193 9.86397 10.7665 9.98392 10.4839C10.1039 10.2014 10.1622 9.87408 10.0546 9.58643C10.1743 9.72303 10.2043 9.90813 10.2281 10.0895C10.2444 10.2139 10.2494 10.3423 10.2168 10.4633C10.1618 10.6673 10.0085 10.8254 9.87152 10.9846C9.57007 11.3353 9.35647 11.7074 9.32507 12.1722Z" fill="#34415E"/>
<path opacity="0.15" d="M14.1243 7.80762C14.3532 8.24772 14.2677 8.78642 14.1224 9.26187C14.0423 9.52402 13.9455 9.78197 13.8951 10.0517C13.8446 10.3213 13.8432 10.6089 13.9497 10.8611C14.0623 11.1276 14.2819 11.3282 14.4765 11.5401C14.7086 11.7928 14.9123 12.0726 15.0824 12.3722C14.8923 11.9578 14.6765 11.5963 14.4331 11.2119C14.3488 11.0787 14.2604 10.9455 14.2105 10.7954C14.0991 10.4606 14.193 10.0963 14.2602 9.74952C14.3269 9.40572 14.3666 9.05657 14.379 8.70637C14.385 8.53507 14.3842 8.36122 14.3415 8.19537C14.2987 8.02952 14.264 7.90327 14.1243 7.80762Z" fill="#34415E"/>
<path opacity="0.15" d="M14.5146 7.64404C14.6585 7.73024 14.7556 7.87834 14.8316 8.02969C15.0645 8.49389 15.1406 9.03779 15.0443 9.54969C14.99 9.83849 14.8833 10.1145 14.8205 10.4015C14.7578 10.6885 14.7422 11.0002 14.8648 11.2664C14.959 11.4707 15.1255 11.6298 15.252 11.8152C15.5512 12.2537 15.6119 12.8154 15.603 13.3492C15.7108 12.7406 15.6487 12.1486 15.3753 11.5964C15.2665 11.3767 15.1273 11.1631 15.0998 10.9187C15.0812 10.753 15.116 10.5862 15.1579 10.425C15.251 10.0667 15.3815 9.71249 15.3917 9.34199C15.4093 8.70599 15.0767 7.92249 14.5146 7.64404Z" fill="#34415E"/>
<path opacity="0.15" d="M14.5841 9.53027C14.484 9.74162 14.3829 9.95612 14.3413 10.1869C14.2996 10.4176 14.3241 10.6706 14.4582 10.8614C14.3549 10.6414 14.4076 10.379 14.4787 10.1462C14.5497 9.91342 14.6495 9.76477 14.5841 9.53027Z" fill="#34415E"/>
<path opacity="0.15" d="M15.6533 8.71924C15.9763 9.38579 16.7326 9.77709 16.9737 10.4787C17.0844 10.801 17.0714 11.1537 17.0241 11.4917C17.0069 11.6142 16.9854 11.7379 16.9988 11.8608C17.0122 11.9838 17.0665 12.1088 17.1694 12.1746C17.018 11.6264 17.3587 11.0654 17.2387 10.5091C17.1529 10.1108 16.8423 9.80679 16.5304 9.55084C16.2186 9.29484 15.8408 9.07964 15.6533 8.71924Z" fill="#34415E"/>
<path opacity="0.15" d="M16.6276 14.3429C16.6343 13.9172 16.3417 13.5571 16.1667 13.1703C16.0712 12.9592 16.0088 12.7292 16.014 12.4969C16.0191 12.2646 16.0961 12.0297 16.2509 11.8589C16.0738 12.2571 16.2154 12.7344 16.3735 13.1408C16.5316 13.5473 16.7325 13.919 16.6276 14.3429Z" fill="#34415E"/>
<path opacity="0.15" d="M9.75781 12.5665C9.85856 12.5149 9.90101 12.3929 9.92591 12.2809C9.98316 12.0238 9.99701 11.7576 10.0631 11.5027C10.1291 11.2477 10.259 10.994 10.4832 10.8618C10.3305 11.039 10.2694 11.2985 10.2129 11.527C10.1564 11.7556 10.1255 11.9903 10.0646 12.2177C10.0426 12.3002 10.0153 12.3839 9.96106 12.4492C9.90686 12.5144 9.83926 12.5874 9.75781 12.5665Z" fill="#34415E"/>
<path opacity="0.15" d="M13.0977 10.6858C13.0221 10.7847 13.0711 10.9261 13.1104 11.0449C13.1497 11.1637 13.217 11.2714 13.2552 11.3905C13.306 11.5487 13.3025 11.7243 13.2454 11.8802C13.3529 11.7349 13.4405 11.5654 13.4112 11.386C13.3689 11.127 13.1282 10.9269 13.1186 10.6646L13.0977 10.6858Z" fill="#34415E"/>
<path d="M14.2613 12.3154C14.7423 12.5523 15.3856 12.6712 15.5306 13.2703C15.9651 14.4039 16.2009 15.6173 16.5501 16.7791L16.5499 16.779C16.5499 16.779 16.4857 17.6016 15.4579 17.4326C15.0759 16.7715 14.6103 16.1223 14.5013 15.3509C14.0966 14.0018 13.684 13.9242 14.2613 12.3154Z" fill="#E1BFA3"/>
<path opacity="0.32" d="M14.5013 15.3508C14.3138 14.7259 14.1525 14.3772 14.0352 14.0239C14.153 14.0896 14.2832 14.2755 14.3343 14.3795C14.4974 14.7116 14.6177 15.0625 14.7374 15.4119C14.8824 15.835 15.0275 16.2581 15.1725 16.6812C15.5759 16.602 16.0193 16.8244 16.197 17.1952C15.8701 16.937 15.3572 16.8546 14.9987 16.656C14.8097 16.3218 14.5699 15.8361 14.5013 15.3508Z" fill="#D1926D"/>
<path d="M10.4363 12.3154C9.95521 12.5523 9.31196 12.6712 9.16691 13.2703C8.73246 14.4039 8.49666 15.6173 8.14746 16.7791L8.14761 16.779C8.14761 16.779 8.21186 17.6016 9.23966 17.4326C9.62166 16.7715 10.0872 16.1223 10.1963 15.3509C10.6009 14.0018 11.0136 13.9242 10.4363 12.3154Z" fill="#E1BFA3"/>
<path opacity="0.32" d="M10.1962 15.3508C10.3836 14.7259 10.545 14.3772 10.6623 14.0239C10.5444 14.0896 10.4142 14.2755 10.3631 14.3795C10.2 14.7116 10.0798 15.0625 9.96004 15.4119C9.81504 15.835 9.66999 16.2581 9.52499 16.6812C9.12154 16.602 8.67819 16.8244 8.50049 17.1952C8.82734 16.937 9.34024 16.8546 9.69879 16.656C9.88779 16.3218 10.1276 15.8361 10.1962 15.3508Z" fill="#D1926D"/>
<path d="M14.9682 18.2363C14.6178 17.5748 14.3859 17.103 14.0355 16.4414C12.9372 16.8468 11.6532 16.7012 10.5198 16.4634C10.3035 17.1131 10.083 17.7718 9.70215 18.3409C11.4602 19.3241 13.3455 19.0116 14.3906 18.612C14.5581 18.548 14.8572 18.3814 14.9682 18.2363Z" fill="#E1BFA3"/>
<path d="M10.7071 12.196C10.7071 12.196 10.3074 12.0701 10.1806 12.4171C10.1806 12.4171 10.9999 13.1982 10.2063 14.8994C10.0919 15.1446 10.0821 15.4262 10.1819 15.6778L10.5226 16.5372C10.5226 16.5372 9.79989 17.8391 10.055 17.933C10.5803 18.1264 13.5803 18.2354 14.652 17.8536C14.8403 17.7865 13.8808 16.6074 14.0729 16.4988L14.427 15.4067C14.488 15.2186 14.4769 15.0136 14.3922 14.8349C14.1606 14.3463 13.7697 13.245 14.3476 12.2517C14.3476 12.2517 14.0806 11.8961 13.8347 12.1099C13.8347 12.1099 13.4191 13.6247 12.2744 13.6247C11.1297 13.6247 10.7071 12.196 10.7071 12.196Z" fill="#006F7B"/>
<path d="M13.7307 15.7302C13.7307 15.7302 13.4225 16.1569 12.7271 15.743L13.0594 15.6517L12.9906 15.3511C12.9906 15.3511 13.5321 15.828 13.7874 15.3213C13.7874 15.3213 13.8675 15.526 13.7307 15.7302Z" fill="#D3406A"/>
<path d="M13.7872 15.3213C13.7209 15.4528 13.6353 15.518 13.5449 15.5425C13.6077 15.5856 13.696 15.6589 13.7195 15.7436C13.7268 15.7352 13.7304 15.7302 13.7304 15.7302C13.8672 15.5261 13.7872 15.3213 13.7872 15.3213Z" fill="#CFD1D2"/>
<path d="M13.9503 12.1368C14.0267 13.1852 12.595 14.1888 11.5969 13.7071C11.0677 13.4725 10.4679 12.4698 10.6203 12.2188C10.6203 12.2188 11.0352 12.1163 11.2216 12.0324C11.6793 11.8263 11.8217 11.2516 11.5219 10.8491C11.9414 10.9438 12.5736 10.9671 12.9871 10.8491C12.7931 11.8884 13.005 11.9186 13.9503 12.1368Z" fill="#E1BFA3"/>
<path opacity="0.32" d="M12.8444 11.2068C12.9967 11.043 12.9215 10.9576 12.7181 10.9046C12.7167 10.9042 12.7152 10.9039 12.7137 10.9035C12.3552 10.9508 11.9249 10.9285 11.5971 10.8647C11.5899 10.8675 11.5835 10.8714 11.5792 10.8777C11.5731 10.8864 11.5725 10.8977 11.572 10.9083C11.5717 10.9134 11.5715 10.9185 11.5713 10.9237C11.7024 11.1474 11.7101 11.4099 11.6152 11.6314C11.7384 11.6447 11.9746 11.6359 12.0041 11.6322C12.1617 11.6126 12.3157 11.5654 12.4577 11.4944C12.6022 11.4222 12.7344 11.3252 12.8444 11.2068Z" fill="#D1926D"/>
<path d="M13.0956 13.8589C13.0956 13.8589 13.0548 14.1485 12.743 14.4338C12.4313 14.7191 11.624 14.7897 11.624 14.7897L11.8703 14.5281L11.5708 14.3557C11.5708 14.3557 12.264 14.4328 12.5547 14.0996C12.8985 13.7057 12.9209 13.4639 12.8301 13.2256C12.8301 13.2256 13.0923 13.4423 13.0956 13.8589Z" fill="#EA5781"/>
<path d="M12.6335 11.2126C12.0343 11.3506 11.4193 11.0433 10.9433 10.654C10.7499 10.4958 10.5652 10.3179 10.452 10.0951C10.2797 9.75585 10.2927 9.3561 10.3096 8.97595C10.3406 8.27955 10.3715 7.58315 10.4025 6.8868C10.4098 6.72345 10.4172 6.55895 10.4547 6.39975C10.9547 6.0391 11.6345 5.9983 12.2316 6.15175C13.0309 6.35715 13.784 6.86585 14.1235 7.61805C14.3065 8.0235 14.3216 8.51395 14.3253 8.9588C14.329 9.40365 14.2385 9.8604 13.9918 10.2305C13.7894 10.5341 13.4951 10.7626 13.2062 10.9853C13.0406 11.113 12.8373 11.1656 12.6335 11.2126Z" fill="#E1BFA3"/>
<path d="M10.1331 8.50806C10.0769 8.47256 10.0091 8.45046 9.94367 8.46211C9.88207 8.47311 9.82902 8.51261 9.78652 8.55851C9.65677 8.69856 9.61062 8.91356 9.68037 9.09131C9.75012 9.26906 9.93637 9.39691 10.1271 9.38906C10.1832 9.38676 10.2406 9.37276 10.2846 9.33801C10.3507 9.28576 10.3754 9.19686 10.384 9.11301C10.4078 8.88341 10.3398 8.63866 10.1331 8.50806Z" fill="#E1BFA3"/>
<path d="M14.4713 8.50806C14.5275 8.47256 14.5953 8.45046 14.6607 8.46211C14.7223 8.47311 14.7754 8.51261 14.8179 8.55851C14.9476 8.69856 14.9937 8.91356 14.924 9.09131C14.8543 9.26906 14.668 9.39691 14.4773 9.38906C14.4212 9.38676 14.3638 9.37276 14.3198 9.33801C14.2536 9.28576 14.229 9.19686 14.2203 9.11301C14.1967 8.88341 14.2646 8.63866 14.4713 8.50806Z" fill="#E1BFA3"/>
<path opacity="0.32" d="M13.7037 9.1872C13.7014 9.4447 13.4489 9.6511 13.1398 9.64825C12.8307 9.6454 12.5821 9.43435 12.5845 9.1769C12.5869 8.9194 12.8393 8.713 13.1484 8.71585C13.4575 8.7187 13.7061 8.92975 13.7037 9.1872Z" fill="#D1926D"/>
<path opacity="0.32" d="M11.8312 9.1872C11.8288 9.4447 11.5763 9.6511 11.2673 9.64825C10.9582 9.6454 10.7096 9.43435 10.7119 9.1769C10.7143 8.9194 10.9668 8.713 11.2758 8.71585C11.5849 8.7187 11.8335 8.92975 11.8312 9.1872Z" fill="#D1926D"/>
<path d="M12.7007 8.62922C12.845 8.70427 12.9926 8.70937 13.1372 8.68027C13.2096 8.66567 13.2821 8.64392 13.3554 8.61887C13.4291 8.59337 13.5002 8.56962 13.5706 8.52832C13.5293 8.60027 13.4572 8.65087 13.3874 8.69002C13.3166 8.72982 13.2393 8.76217 13.1565 8.77832C13.0743 8.79472 12.9856 8.79442 12.9036 8.77002C12.8221 8.74697 12.7453 8.69847 12.7007 8.62922Z" fill="#4C4E51"/>
<path d="M11.7065 8.62922C11.6619 8.69847 11.5851 8.74692 11.5035 8.77002C11.4216 8.79442 11.3329 8.79477 11.2506 8.77832C11.1677 8.76217 11.0905 8.72982 11.0197 8.69002C10.9499 8.65087 10.8777 8.60027 10.8364 8.52832C10.9068 8.56962 10.978 8.59337 11.0517 8.61887C11.1249 8.64392 11.1974 8.66567 11.2699 8.68027C11.4145 8.70937 11.5622 8.70432 11.7065 8.62922Z" fill="#4C4E51"/>
<path d="M11.8555 8.22607C11.9101 8.28927 11.9562 8.35987 11.9963 8.43382C12.0349 8.50857 12.0661 8.58742 12.0892 8.66882C12.1125 8.75042 12.127 8.83367 12.1308 8.91987C12.133 9.00472 12.119 9.09947 12.0571 9.17122C12.025 9.20712 11.9816 9.22927 11.9361 9.23847C11.9132 9.24297 11.8895 9.24427 11.8659 9.24082L11.8532 9.23922C11.8503 9.23922 11.8475 9.23947 11.8448 9.24027C11.8394 9.24182 11.8341 9.24497 11.8297 9.24957C11.8208 9.25882 11.8167 9.27327 11.82 9.28602C11.8249 9.30442 11.8315 9.32402 11.8388 9.34232C11.8539 9.37912 11.8729 9.41432 11.8972 9.44547C11.945 9.50887 12.0175 9.55132 12.098 9.55792C12.1378 9.56192 12.1788 9.55797 12.2171 9.54447C12.2549 9.53007 12.2897 9.50597 12.315 9.47262C12.2943 9.50897 12.261 9.53837 12.2222 9.55667C12.1832 9.57457 12.1399 9.58282 12.0966 9.58237C12.0532 9.58122 12.01 9.57037 11.9704 9.55107C11.9305 9.53147 11.8966 9.50282 11.8676 9.46997C11.8385 9.43707 11.8156 9.39917 11.7985 9.35922C11.7898 9.33907 11.7824 9.31932 11.776 9.29767C11.7682 9.27012 11.7755 9.23922 11.7947 9.21777C11.8043 9.20697 11.8171 9.19832 11.8317 9.19412C11.839 9.19202 11.8466 9.19107 11.8541 9.19107C11.8621 9.19142 11.8691 9.19257 11.8724 9.19297C11.8901 9.19542 11.9085 9.19427 11.9265 9.19057C11.9623 9.18317 11.9966 9.16467 12.0199 9.13807C12.0698 9.08222 12.0845 9.00012 12.0837 8.92072C12.083 8.84032 12.0695 8.75817 12.0523 8.67837C12.0343 8.59827 12.0079 8.51997 11.9745 8.44447C11.9423 8.36817 11.9011 8.29597 11.8555 8.22607Z" fill="#B2582B"/>
<path d="M12.0586 10.1769C12.1982 10.1892 12.3361 10.1925 12.4656 10.1564C12.5301 10.1389 12.5917 10.1113 12.6479 10.0747C12.7042 10.0379 12.7536 9.99082 12.7964 9.93457C12.771 9.99992 12.7279 10.061 12.6711 10.1061C12.6152 10.1523 12.5486 10.1847 12.4789 10.2045C12.3383 10.2423 12.1892 10.2276 12.0586 10.1769Z" fill="#B2582B"/>
<path d="M9.84233 8.80698C9.84063 8.75633 9.88288 8.71143 9.93143 8.69413C9.95618 8.68543 9.98368 8.68228 10.0108 8.68783C10.0377 8.69333 10.0622 8.70608 10.0833 8.72288C10.1256 8.75683 10.1518 8.80618 10.1636 8.85778C10.1663 8.87118 10.1681 8.88368 10.1693 8.89638C10.1706 8.90928 10.1707 8.92348 10.1703 8.93573L10.1685 9.00763L10.1663 9.09653L10.1224 9.02013C10.1031 8.98658 10.0722 8.96238 10.0351 8.95108C10.0166 8.94533 9.99679 8.94243 9.97654 8.94258C9.95644 8.94313 9.93403 8.94348 9.92298 8.95078C9.91108 8.95753 9.90253 8.97563 9.90038 8.99388C9.89778 9.01233 9.90273 9.03188 9.91138 9.04988C9.92918 9.08603 9.96753 9.11428 10.0124 9.11458C9.96793 9.12538 9.91923 9.10078 9.89138 9.06213C9.86483 9.02383 9.85393 8.96098 9.90128 8.91968C9.92768 8.90193 9.95213 8.90188 9.97533 8.89963C9.99918 8.89823 10.0237 8.90033 10.0477 8.90648C10.0963 8.91768 10.1397 8.95223 10.1651 8.99483L10.119 9.00728C10.1187 8.98293 10.1199 8.95778 10.1212 8.93388C10.1218 8.92193 10.1219 8.91188 10.1209 8.90063C10.1201 8.88923 10.1186 8.87768 10.1167 8.86728C10.1091 8.82433 10.0886 8.78283 10.0573 8.75318C10.0262 8.72318 9.98253 8.70778 9.93863 8.71843C9.89483 8.72653 9.85288 8.75858 9.84233 8.80698Z" fill="#B2582B"/>
<path d="M14.7378 8.80698C14.7273 8.75858 14.6854 8.72648 14.6417 8.71843C14.5978 8.70773 14.5541 8.72318 14.5229 8.75318C14.4917 8.78283 14.4711 8.82433 14.4636 8.86728C14.4616 8.87763 14.4602 8.88923 14.4593 8.90063C14.4584 8.91188 14.4585 8.92193 14.4591 8.93388C14.4603 8.95783 14.4615 8.98293 14.4613 9.00728L14.4152 8.99483C14.4405 8.95223 14.484 8.91763 14.5325 8.90648C14.5565 8.90038 14.581 8.89828 14.6049 8.89963C14.6281 8.90193 14.6526 8.90193 14.679 8.91968C14.7263 8.96098 14.7155 9.02383 14.6889 9.06213C14.661 9.10083 14.6123 9.12543 14.5679 9.11458C14.6127 9.11428 14.6511 9.08603 14.6689 9.04988C14.6776 9.03188 14.6825 9.01233 14.6799 8.99388C14.6777 8.97563 14.6692 8.95753 14.6573 8.95078C14.6462 8.94348 14.6238 8.94313 14.6037 8.94258C14.5835 8.94243 14.5636 8.94533 14.5451 8.95108C14.508 8.96238 14.4771 8.98658 14.4578 9.02013L14.4139 9.09653L14.4117 9.00763L14.4099 8.93573C14.4095 8.92348 14.4096 8.90923 14.4109 8.89638C14.4121 8.88363 14.4138 8.87118 14.4166 8.85778C14.4284 8.80618 14.4546 8.75683 14.4969 8.72288C14.518 8.70603 14.5425 8.69333 14.5694 8.68783C14.5965 8.68228 14.624 8.68543 14.6488 8.69413C14.6973 8.71143 14.7396 8.75633 14.7378 8.80698Z" fill="#B2582B"/>
<path d="M10.7293 8.14893C10.6782 8.16578 10.6448 8.09578 10.6907 8.06763C10.8499 7.96993 11.0263 7.87908 11.1265 7.86343C11.275 7.84023 11.4346 7.86738 11.5592 7.94918C11.622 7.99048 11.6032 8.09223 11.5295 8.10728C11.5234 8.10853 11.5174 8.10943 11.5114 8.10998C11.452 8.11533 11.395 8.08918 11.3389 8.06878C11.2 8.01823 10.9501 8.07608 10.7293 8.14893Z" fill="#4B332C"/>
<path d="M13.5588 8.14893C13.6099 8.16578 13.6432 8.09578 13.5974 8.06763C13.4381 7.96993 13.2617 7.87908 13.1615 7.86343C13.013 7.84023 12.8534 7.86738 12.7289 7.94918C12.666 7.99048 12.6848 8.09223 12.7585 8.10728C12.7646 8.10853 12.7707 8.10943 12.7766 8.10998C12.8361 8.11533 12.8931 8.08918 12.9492 8.06878C13.0881 8.01823 13.3379 8.07608 13.5588 8.14893Z" fill="#4B332C"/>
<path d="M13.9655 7.76166C12.8281 7.82956 12.3478 7.41576 11.6229 6.75466C11.6524 6.88326 11.7063 7.01001 11.781 7.12176C11.8354 7.20316 11.7613 7.30986 11.6656 7.28936C11.1648 7.18216 10.6333 6.95286 10.4842 6.45371C10.4252 6.75776 10.3511 7.03311 10.3537 7.34281C9.91629 6.72266 9.69844 5.45586 10.6793 5.23181C11.4111 5.08056 12.1545 4.97501 12.8896 5.08366C15.1242 5.27636 16.0676 7.63616 13.9655 7.76166Z" fill="#4B332C"/>
<path opacity="0.15" d="M11.2588 6.91013C11.0021 6.80348 10.7799 6.61523 10.6326 6.37948C10.4852 6.14368 10.4134 5.86153 10.4301 5.58398C10.5242 6.09438 10.8405 6.60288 11.2588 6.91013Z" fill="#34415E"/>
<path opacity="0.15" d="M13.5642 7.34997C13.09 7.34617 12.6369 7.11017 12.3038 6.77277C11.9706 6.43537 11.7471 6.00352 11.5859 5.55762C11.8903 6.44317 12.6545 7.12787 13.5642 7.34997Z" fill="#34415E"/>
<path opacity="0.15" d="M11.44 5.90869C11.44 5.90869 11.4142 6.71359 12.4275 7.21739C12.4275 7.21739 11.6775 6.61514 11.44 5.90869Z" fill="#34415E"/>
<path opacity="0.41" d="M15.1073 6.91016C15.1001 6.92581 15.0168 7.73186 14.166 7.71746C14.166 7.71746 14.8482 7.55191 15.1001 6.92576" fill="#B2582B"/>
<path opacity="0.33" d="M13.4802 16.4289C13.1247 16.2534 12.6947 16.236 12.3262 16.382C12.69 16.3378 13.1193 16.3647 13.4802 16.4289Z" fill="#34415E"/>
<path opacity="0.33" d="M11.983 16.0237C11.6886 16.0867 11.4047 16.2018 11.1051 16.2313C10.8055 16.2608 10.4697 16.1838 10.2939 15.9395C10.2916 15.941 10.2898 15.9429 10.2876 15.9444L10.5227 16.5374C10.5227 16.5374 10.6781 16.6256 10.9432 16.7219C10.9448 16.7219 10.9463 16.7221 10.9478 16.7221C11.1511 16.7241 11.3546 16.6791 11.5381 16.5916C11.6866 16.5208 11.8208 16.4234 11.9657 16.3455C12.2298 16.2035 12.5543 16.1288 12.8541 16.1292C12.6072 15.957 12.2773 15.9607 11.983 16.0237Z" fill="#34415E"/>
<path opacity="0.33" d="M10.9293 14.8057L11.4543 15.6202L10.6621 16.2228L11.8552 15.8638C11.8552 15.8638 11.2213 14.8168 10.9293 14.8057Z" fill="#34415E"/>
<path opacity="0.32" d="M11.5942 16.9293C12.5697 17.0934 13.4804 17.5253 14.2247 18.1769L14.6052 18.51L15.2965 18.9852L14.6375 17.3539L12.6311 16.2026L11.5942 16.9293Z" fill="#34415E"/>
<path opacity="0.32" d="M11.6489 15.7792L12.3828 16.3714L11.7453 15.7358L11.6489 15.7792Z" fill="#D1926D"/>
<path d="M12.6962 15.6206L16.1974 17.1959L16.5504 16.7796L16.7694 17.5488C16.8967 17.9961 16.675 18.4768 16.2438 18.6508C16.1514 18.688 16.0564 18.7144 15.9644 18.7281C15.6391 18.7764 15.3079 18.6953 15.0134 18.4089L12.1982 16.2286L12.6962 15.6206Z" fill="#E1BFA3"/>
<path d="M10.9781 14.7381C11.1742 14.8244 11.359 14.9536 11.502 15.1062C11.3906 14.903 11.1074 14.6027 11.0193 14.3879C11.0014 14.3443 11.0476 14.3014 11.0894 14.3232C11.3103 14.4385 11.5703 14.7879 11.7743 14.9308C11.6099 14.7492 11.2733 14.3362 11.2092 14.0719C11.1972 14.0225 11.2564 13.9858 11.2957 14.018C11.5514 14.2274 11.8419 14.5661 12.0079 14.8489C11.9233 14.6093 11.7046 14.3269 11.5886 14.0761C11.5679 14.0313 11.6193 13.9868 11.6608 14.0134C11.9988 14.2299 12.3008 14.692 12.4134 15.0525C12.7678 13.9506 12.6631 15.3706 12.8307 15.6811C12.857 16.2446 12.8348 16.5472 12.8033 16.6972L12.1981 16.2285C12.1351 16.178 12.077 16.122 12.0243 16.0608C11.759 15.7524 11.4378 15.3733 10.9296 14.806C10.8992 14.772 10.9363 14.7197 10.9781 14.7381Z" fill="#E1BFA3"/>
<g opacity="0.32">
<path d="M12.3828 16.3726V16.3716L12.3838 16.3726H12.3828Z" fill="#D1926D"/>
</g>
<path d="M12.002 15.6201L8.50079 17.1954L8.14774 16.7791L7.92879 17.5483C7.80149 17.9956 8.02314 18.4763 8.45439 18.6503C8.54674 18.6875 8.64179 18.7139 8.73379 18.7276C9.05904 18.7759 9.39024 18.6948 9.68474 18.4084L12.4999 16.2281L12.002 15.6201Z" fill="#E1BFA3"/>
<path d="M13.9436 15.1439C13.7333 15.1848 13.5246 15.27 13.3514 15.3872C13.5049 15.2136 13.8474 14.9832 13.9807 14.7932C14.0078 14.7546 13.9722 14.7026 13.9266 14.7146C13.6857 14.7783 13.355 15.0617 13.1244 15.1561C13.3249 15.0153 13.7444 14.6867 13.8652 14.443C13.8878 14.3975 13.8382 14.3487 13.7927 14.3714C13.4971 14.5192 13.139 14.7854 12.9146 15.0246C13.0501 14.8096 13.3257 14.5824 13.4941 14.3634C13.5242 14.3243 13.4839 14.2695 13.4376 14.2863C13.0602 14.4229 12.6636 14.8069 12.4742 15.1336C12.3718 13.9807 12.1605 15.3888 11.9285 15.6546C11.7785 16.1984 11.7333 16.4985 11.731 16.6517L12.4247 16.3282C12.4973 16.2929 12.5664 16.251 12.6312 16.203C12.9581 15.9608 13.355 15.6619 13.9759 15.2208C14.0131 15.1943 13.9884 15.1351 13.9436 15.1439Z" fill="#E1BFA3"/>
<g opacity="0.32">
<path d="M12.3164 16.3721V16.3711L12.3154 16.3721H12.3164Z" fill="#D1926D"/>
<path d="M8.07471 18.3554C8.16936 18.4832 8.29791 18.5873 8.45461 18.6505C8.54696 18.6878 8.64201 18.7142 8.73401 18.7279C9.05926 18.7762 9.39046 18.6951 9.68496 18.4086L11.5946 16.9297C10.5797 17.677 8.77531 18.8543 8.07471 18.3554Z" fill="#D1926D"/>
</g>
<path opacity="0.32" d="M12.3356 14.7007L12.0587 15.6204L11.7456 15.7358L11.9527 15.4676L12.3356 14.7007Z" fill="#D1926D"/>
<path opacity="0.32" d="M12.7188 14.8062L12.4745 15.134L12.457 14.9701L12.7188 14.8062Z" fill="#D1926D"/>
<path opacity="0.32" d="M13.1453 15.8223L12.3833 16.3714L12.8629 16.7222L12.7792 16.5258C12.7359 16.424 12.7523 16.3067 12.822 16.2208L13.1453 15.8223Z" fill="#D1926D"/>
<path opacity="0.15" d="M12.5078 20.7437C12.5078 20.7437 12.2939 22.927 12.4825 24.2262L12.5941 22.9608L12.897 24.2262C12.897 24.2262 12.6182 21.3507 12.5078 20.7437Z" fill="#34415E"/>
<path d="M12.8306 13.2256C12.8812 13.3584 12.8966 13.4924 12.8408 13.6531C12.9978 13.6855 13.0637 13.8154 13.0892 13.8916C13.0944 13.8707 13.0961 13.8589 13.0961 13.8589C13.0927 13.4423 12.8306 13.2256 12.8306 13.2256Z" fill="#CFD1D2"/>
<path d="M12.6228 14.019C12.6017 14.0453 12.5792 14.0722 12.555 14.0998C12.4796 14.1863 12.3771 14.245 12.2666 14.2847C12.3075 14.3607 12.3952 14.5053 12.506 14.581C12.5981 14.5399 12.6807 14.4912 12.7433 14.4339C12.8001 14.3819 12.8479 14.3298 12.8881 14.2793C12.8166 14.2275 12.7116 14.1398 12.6228 14.019Z" fill="#CFD1D2"/>
<path d="M13.4937 14.8988C13.101 14.5038 12.2731 13.969 12.3118 13.3052C12.3118 13.3052 12.1779 13.5339 12.187 13.8495C12.187 13.8495 12.1676 14.1113 12.4352 14.4001C12.7029 14.6889 13.6599 15.4167 13.7163 15.6982C13.7199 15.7161 13.7197 15.7311 13.7163 15.7434C13.8758 15.5147 13.854 15.2611 13.4937 14.8988Z" fill="#F76D90"/>
<path d="M12.3104 13.3338C12.3075 13.3306 12.3045 13.3274 12.3016 13.3242C12.2706 13.3851 12.1795 13.5872 12.187 13.8496C12.187 13.8496 12.1853 13.8727 12.1899 13.9125C12.2105 13.8463 12.2573 13.7636 12.3627 13.7198C12.3244 13.6089 12.3048 13.4827 12.3104 13.3338Z" fill="#CFD1D2"/>
<path d="M12.1868 13.8495C12.1868 13.8495 12.2391 13.5235 12.6383 13.5118C13.0375 13.5002 13.096 13.859 13.096 13.859C13.096 13.859 13.0893 13.3509 12.8425 13.2313C12.5956 13.1116 12.402 13.2191 12.3343 13.2813C12.2175 13.3885 12.1703 13.6522 12.1868 13.8495Z" fill="#F76D90"/>
</g>
<path d="M22.5902 12.059C22.5902 12.1064 22.5517 12.1448 22.5043 12.1448C22.4569 12.1448 22.4185 12.1064 22.4185 12.059C22.4185 12.0116 22.4569 11.9731 22.5043 11.9731C22.5518 11.9732 22.5902 12.0116 22.5902 12.059Z" fill="#F76D90"/>
<path d="M18.1909 15.3635C18.1909 15.4683 18.106 15.5532 18.0012 15.5532C17.8964 15.5532 17.8115 15.4683 17.8115 15.3635C17.8115 15.2588 17.8965 15.1738 18.0012 15.1738C18.106 15.1738 18.1909 15.2588 18.1909 15.3635Z" fill="white"/>
<path d="M6.26612 13.7957C6.26612 13.9004 6.18117 13.9854 6.07642 13.9854C5.97167 13.9854 5.88672 13.9004 5.88672 13.7957C5.88672 13.6909 5.97167 13.606 6.07642 13.606C6.18117 13.606 6.26612 13.6909 6.26612 13.7957Z" fill="white"/>
<path d="M6.29297 8.56592C6.29297 8.62577 6.24442 8.67432 6.18457 8.67432C6.12467 8.67432 6.07617 8.62577 6.07617 8.56592C6.07617 8.50607 6.12472 8.45752 6.18457 8.45752C6.24442 8.45752 6.29297 8.50607 6.29297 8.56592Z" fill="white"/>
<path d="M16.6851 7.34717C16.6851 7.40707 16.6365 7.45557 16.5767 7.45557C16.5168 7.45557 16.4683 7.40702 16.4683 7.34717C16.4683 7.28732 16.5168 7.23877 16.5767 7.23877C16.6366 7.23877 16.6851 7.28727 16.6851 7.34717Z" fill="white"/>
<path d="M1.64969 7.34724C1.76446 7.34724 1.85749 7.25421 1.85749 7.13944C1.85749 7.02468 1.76446 6.93164 1.64969 6.93164C1.53493 6.93164 1.44189 7.02468 1.44189 7.13944C1.44189 7.25421 1.53493 7.34724 1.64969 7.34724Z" fill="#41B4AA"/>
<path d="M5.4157 18.473C5.4157 18.5624 5.3432 18.6349 5.25375 18.6349C5.1643 18.6349 5.0918 18.5624 5.0918 18.473C5.0918 18.3835 5.1643 18.311 5.25375 18.311C5.3432 18.311 5.4157 18.3835 5.4157 18.473Z" fill="#41B4AA"/>
<path d="M20.3486 18.4272C20.3486 18.517 20.2758 18.5898 20.186 18.5898C20.0962 18.5898 20.0234 18.517 20.0234 18.4272C20.0234 18.3374 20.0962 18.2646 20.186 18.2646C20.2758 18.2646 20.3486 18.3374 20.3486 18.4272Z" fill="#F99AAC"/>
<path d="M6.41068 5.55812C6.41068 5.63797 6.34598 5.70267 6.26613 5.70267C6.18628 5.70267 6.12158 5.63797 6.12158 5.55812C6.12158 5.47832 6.18628 5.41357 6.26613 5.41357C6.34598 5.41357 6.41068 5.47832 6.41068 5.55812Z" fill="#F99AAC"/>
<path d="M20.6377 7.90236C20.6377 7.98221 20.573 8.04691 20.4932 8.04691C20.4133 8.04691 20.3486 7.98221 20.3486 7.90236C20.3486 7.82256 20.4133 7.75781 20.4932 7.75781C20.573 7.75786 20.6377 7.82256 20.6377 7.90236Z" fill="#41B4AA"/>
<path d="M21.7045 12.5524C21.7045 12.5524 21.5023 12.3553 21.3824 12.5365C21.2625 12.7178 21.5217 12.822 21.6578 12.7426C21.6578 12.7426 21.4544 12.8976 21.6241 13.0511C21.7939 13.2045 21.8335 12.8206 21.8335 12.8206C21.8335 12.8206 21.9979 13.0547 22.1467 12.9096C22.2954 12.7645 21.9471 12.6722 21.9471 12.6722C21.9471 12.6722 22.2813 12.5984 22.1865 12.427C22.0917 12.2556 21.864 12.5285 21.864 12.5285C21.864 12.5285 21.9217 12.2008 21.7228 12.2086C21.5238 12.2164 21.7045 12.5524 21.7045 12.5524Z" fill="#F99AAC"/>
<path d="M5.01845 4.85658C5.01845 4.85658 4.81625 4.65948 4.69635 4.84073C4.57645 5.02203 4.83565 5.12623 4.97175 5.04678C4.97175 5.04678 4.76835 5.20183 4.9381 5.35528C5.10785 5.50873 5.14745 5.12478 5.14745 5.12478C5.14745 5.12478 5.3119 5.35893 5.46065 5.21383C5.60935 5.06873 5.26105 4.97638 5.26105 4.97638C5.26105 4.97638 5.59525 4.90263 5.50045 4.73118C5.40565 4.55978 5.17795 4.83273 5.17795 4.83273C5.17795 4.83273 5.2357 4.50503 5.03675 4.51283C4.8378 4.52063 5.01845 4.85658 5.01845 4.85658Z" fill="#F99AAC"/>
<path d="M22.3964 4.9604L22.5235 4.9994C22.5782 5.0162 22.621 5.05905 22.6378 5.11375L22.6768 5.24085C22.6794 5.2492 22.6912 5.2492 22.6938 5.24085L22.7328 5.11375C22.7496 5.05905 22.7924 5.0162 22.8471 4.9994L22.9742 4.9604C22.9826 4.95785 22.9826 4.946 22.9742 4.94345L22.8471 4.90445C22.7924 4.88765 22.7496 4.8448 22.7328 4.7901L22.6938 4.663C22.6912 4.65465 22.6794 4.65465 22.6768 4.663L22.6378 4.7901C22.621 4.8448 22.5782 4.88765 22.5235 4.90445L22.3964 4.94345C22.388 4.946 22.388 4.95785 22.3964 4.9604Z" fill="#FFBC50"/>
<path d="M1.74943 16.6596L1.87653 16.6986C1.93123 16.7154 1.97408 16.7583 1.99088 16.813L2.02988 16.9401C2.03243 16.9484 2.04428 16.9484 2.04683 16.9401L2.08583 16.813C2.10263 16.7583 2.14548 16.7154 2.20018 16.6986L2.32728 16.6596C2.33563 16.6571 2.33563 16.6452 2.32728 16.6427L2.20018 16.6037C2.14548 16.5869 2.10263 16.544 2.08583 16.4893L2.04683 16.3622C2.04428 16.3539 2.03243 16.3539 2.02988 16.3622L1.99088 16.4893C1.97408 16.544 1.93123 16.5869 1.87653 16.6037L1.74943 16.6427C1.74108 16.6452 1.74108 16.657 1.74943 16.6596Z" fill="#FFBC50"/>
</svg>
