<svg width="25" height="25" viewBox="0 0 25 25" fill="none" xmlns="http://www.w3.org/2000/svg">
<g clip-path="url(#clip0_1661_5152)">
<path d="M24.992 0H0V24.9919H24.992V0Z" fill="white"/>
<path d="M18.7553 17.3236C22.1021 13.9768 22.1021 8.5506 18.7553 5.20381C15.4085 1.85703 9.98234 1.85702 6.63556 5.2038C3.28878 8.55057 3.28879 13.9768 6.63558 17.3236C9.98236 20.6703 15.4086 20.6704 18.7553 17.3236Z" fill="#FFD993"/>
<path d="M13.8205 5.81139C13.9873 5.48193 13.7292 5.14901 13.6194 5.20102C13.4425 5.28482 13.2004 5.35933 13.0329 5.2197C12.8652 5.07999 12.8662 4.68978 12.0831 4.7681C11.7845 4.79796 11.6915 5.08076 11.4723 5.1683C11.3467 5.0023 11.2688 4.70358 10.5744 4.77302C10.1555 4.81491 10.1416 5.35492 9.61545 5.15471C9.01779 4.92728 8.89858 5.45919 9.05077 5.81138L13.8205 5.81139Z" fill="white"/>
<path d="M19.0878 8.98074C19.2645 8.63177 18.991 8.27915 18.8747 8.33424C18.6874 8.42302 18.4309 8.50194 18.2534 8.35399C18.0759 8.20603 18.0769 7.79267 17.2474 7.87564C16.931 7.90727 16.8326 8.20685 16.6003 8.29958C16.4674 8.12374 16.3847 7.80725 15.6493 7.88084C15.2055 7.92521 15.1907 8.49719 14.6335 8.28517C14.0003 8.04421 13.8741 8.60764 14.0352 8.98073L19.0878 8.98074Z" fill="white"/>
<path d="M11.475 9.55843C11.6517 9.20941 11.3782 8.85679 11.2619 8.91188C11.0746 9.00065 10.8181 9.07958 10.6406 8.93163C10.4631 8.78367 10.4641 8.3703 9.63471 8.45328C9.31827 8.4849 9.21978 8.78449 8.98756 8.87722C8.8546 8.70137 8.77195 8.38494 8.03648 8.45848C7.59275 8.50285 7.57793 9.07488 7.02071 8.86281C6.38746 8.62185 6.26137 9.18528 6.42244 9.55842H11.475V9.55843Z" fill="white"/>
<path d="M3.27299 18.3983C2.79133 18.5887 1.69691 19.4704 3.3156 20.1851C4.93416 20.8999 3.85621 22.9265 8.04373 22.4724C11.1746 22.1329 14.3906 21.5253 18.7779 22.3652C21.5673 22.8991 23.2681 20.5302 21.6532 19.0058C19.2678 16.7542 10.7273 15.4498 3.27299 18.3983Z" fill="#127585"/>
<path d="M16.5756 16.745C16.399 16.5381 16.0725 16.0467 16.6255 15.6128C17.1783 15.1789 17.061 14.9257 16.9806 14.5294C16.9001 14.1329 17.3825 13.1349 18.1508 13.3315C18.919 13.5282 18.8197 14.4745 18.3576 14.9463C17.8959 15.4183 17.9823 15.7662 18.1326 16.1306C18.283 16.495 17.9935 17.1107 17.4946 17.08C16.9958 17.0493 16.7218 16.9162 16.5756 16.745Z" fill="#A18EC3"/>
<path d="M17.0776 16.9084C17.0776 16.9084 17.3726 15.2049 18.0133 13.8716" stroke="#835993" stroke-width="4.3454" stroke-miterlimit="10" stroke-linecap="round" stroke-linejoin="round"/>
<path d="M17.582 14.9386C17.582 14.9386 17.4696 14.5281 17.4478 14.2466" stroke="#835993" stroke-width="4.3454" stroke-miterlimit="10" stroke-linecap="round" stroke-linejoin="round"/>
<path d="M17.6753 14.6833C17.6753 14.6833 18.0603 14.5021 18.2887 14.3359" stroke="#835993" stroke-width="4.3454" stroke-miterlimit="10" stroke-linecap="round" stroke-linejoin="round"/>
<path d="M17.3994 15.5592C17.3994 15.5592 17.7032 15.496 17.8485 15.3071" stroke="#835993" stroke-width="4.3454" stroke-miterlimit="10" stroke-linecap="round" stroke-linejoin="round"/>
<path d="M17.2959 15.9063C17.2959 15.9063 17.1387 15.7751 17.0488 15.4263" stroke="#835993" stroke-width="4.3454" stroke-miterlimit="10" stroke-linecap="round" stroke-linejoin="round"/>
<path d="M17.2397 16.2673C17.2397 16.2673 17.5418 16.2742 17.8351 16.0059" stroke="#835993" stroke-width="4.3454" stroke-miterlimit="10" stroke-linecap="round" stroke-linejoin="round"/>
<path d="M17.1349 16.5645C17.1349 16.5645 16.8485 16.4676 16.7275 16.1431" stroke="#835993" stroke-width="4.3454" stroke-miterlimit="10" stroke-linecap="round" stroke-linejoin="round"/>
<path d="M20.0801 14.3994C20.0801 14.3994 20.2316 14.9166 19.773 15.1283C19.773 15.1283 19.6152 15.0767 19.6171 14.9479C19.6171 14.9479 19.4251 15.0887 19.6517 15.3149C19.7823 15.4452 19.5658 15.6843 19.2927 15.9595C18.9967 16.2576 18.7965 16.5502 18.5962 16.4698C18.5047 16.433 18.5105 16.2111 18.5221 16.0825C18.5337 15.9539 18.2466 16.3165 18.4251 16.6656C18.501 16.8138 18.2185 17.0166 18.1027 17.0774C17.9251 17.1706 17.7093 17.2355 17.3008 17.0469C17.3008 17.0469 17.5139 15.1775 20.0801 14.3994Z" fill="#E24E49"/>
<path d="M17.3325 17.0386C17.692 16.2737 18.3996 15.2366 19.7456 14.5542" stroke="#C1333C" stroke-width="3.418" stroke-miterlimit="10" stroke-linecap="round" stroke-linejoin="round"/>
<path d="M18.769 15.2041C18.769 15.2041 19.1367 15.3232 19.4265 15.2264" stroke="#C1333C" stroke-width="3.418" stroke-miterlimit="10" stroke-linecap="round" stroke-linejoin="round"/>
<path d="M18.334 15.6143C18.334 15.6143 18.5561 15.822 18.9777 15.6665" stroke="#C1333C" stroke-width="3.418" stroke-miterlimit="10" stroke-linecap="round" stroke-linejoin="round"/>
<path d="M17.6787 16.4311C17.6787 16.4311 17.952 16.5724 18.196 16.3911" stroke="#C1333C" stroke-width="3.418" stroke-miterlimit="10" stroke-linecap="round" stroke-linejoin="round"/>
<path d="M17.9561 16.039C17.9561 16.039 18.1188 16.1654 18.4 15.9644" stroke="#C1333C" stroke-width="3.418" stroke-miterlimit="10" stroke-linecap="round" stroke-linejoin="round"/>
<path d="M18.4875 15.4354C18.4875 15.4354 18.438 15.3576 18.5066 15.2578" stroke="#C1333C" stroke-width="3.418" stroke-miterlimit="10" stroke-linecap="round" stroke-linejoin="round"/>
<path d="M18.0655 15.8725C18.0655 15.8725 18.0097 15.7845 18.082 15.6479" stroke="#C1333C" stroke-width="3.418" stroke-miterlimit="10" stroke-linecap="round" stroke-linejoin="round"/>
<path d="M17.7613 16.2878C17.7613 16.2878 17.7057 16.1831 17.7404 16.0996" stroke="#C1333C" stroke-width="3.418" stroke-miterlimit="10" stroke-linecap="round" stroke-linejoin="round"/>
<path d="M8.62812 16.244C8.80474 16.0371 9.13131 15.5457 8.57836 15.1117C8.02556 14.6778 8.14273 14.4247 8.22322 14.0284C8.30371 13.632 7.82127 12.6339 7.053 12.8306C6.28473 13.0272 6.38409 13.9734 6.84608 14.4454C7.30781 14.9173 7.22147 15.2652 7.07113 15.6296C6.92069 15.9939 7.21021 16.6097 7.70916 16.579C8.20795 16.5482 8.48204 16.4152 8.62812 16.244Z" fill="#A18EC3"/>
<path d="M8.12613 16.4075C8.12613 16.4075 7.83118 14.7039 7.19043 13.3706" stroke="#835993" stroke-width="4.3454" stroke-miterlimit="10" stroke-linecap="round" stroke-linejoin="round"/>
<path d="M7.62207 14.4376C7.62207 14.4376 7.73436 14.0272 7.75618 13.7456" stroke="#835993" stroke-width="4.3454" stroke-miterlimit="10" stroke-linecap="round" stroke-linejoin="round"/>
<path d="M7.52836 14.1822C7.52836 14.1822 7.1433 14.0011 6.91504 13.835" stroke="#835993" stroke-width="4.3454" stroke-miterlimit="10" stroke-linecap="round" stroke-linejoin="round"/>
<path d="M7.80449 15.0582C7.80449 15.0582 7.5008 14.995 7.35547 14.8062" stroke="#835993" stroke-width="4.3454" stroke-miterlimit="10" stroke-linecap="round" stroke-linejoin="round"/>
<path d="M7.90771 15.4054C7.90771 15.4054 8.06497 15.2742 8.15481 14.9253" stroke="#835993" stroke-width="4.3454" stroke-miterlimit="10" stroke-linecap="round" stroke-linejoin="round"/>
<path d="M7.96446 15.7665C7.96446 15.7665 7.66243 15.7733 7.36914 15.5049" stroke="#835993" stroke-width="4.3454" stroke-miterlimit="10" stroke-linecap="round" stroke-linejoin="round"/>
<path d="M8.06885 16.0635C8.06885 16.0635 8.35529 15.9666 8.47618 15.6421" stroke="#835993" stroke-width="4.3454" stroke-miterlimit="10" stroke-linecap="round" stroke-linejoin="round"/>
<path d="M5.12409 13.8984C5.12409 13.8984 4.97255 14.4155 5.43115 14.6274C5.43115 14.6274 5.58891 14.5756 5.58716 14.447C5.58716 14.447 5.77902 14.5877 5.55254 14.8139C5.42189 14.9442 5.63842 15.1833 5.91151 15.4584C6.20747 15.7565 6.40766 16.0492 6.60799 15.9688C6.69956 15.932 6.69367 15.71 6.68208 15.5814C6.67058 15.4528 6.9577 15.8155 6.77909 16.1645C6.7032 16.3127 6.98572 16.5156 7.10151 16.5763C7.2791 16.6697 7.49493 16.7345 7.90346 16.5458C7.90348 16.5458 7.69027 14.6765 5.12409 13.8984Z" fill="#E24E49"/>
<path d="M7.8716 16.5377C7.51212 15.7727 6.80456 14.7356 5.4585 14.0532" stroke="#C1333C" stroke-width="3.418" stroke-miterlimit="10" stroke-linecap="round" stroke-linejoin="round"/>
<path d="M6.43534 14.7031C6.43534 14.7031 6.06768 14.8221 5.77783 14.7254" stroke="#C1333C" stroke-width="3.418" stroke-miterlimit="10" stroke-linecap="round" stroke-linejoin="round"/>
<path d="M6.87031 15.1133C6.87031 15.1133 6.64825 15.3209 6.22656 15.1655" stroke="#C1333C" stroke-width="3.418" stroke-miterlimit="10" stroke-linecap="round" stroke-linejoin="round"/>
<path d="M7.52523 15.9302C7.52523 15.9302 7.25186 16.0714 7.00781 15.8901" stroke="#C1333C" stroke-width="3.418" stroke-miterlimit="10" stroke-linecap="round" stroke-linejoin="round"/>
<path d="M7.24817 15.538C7.24817 15.538 7.0854 15.6644 6.8042 15.4634" stroke="#C1333C" stroke-width="3.418" stroke-miterlimit="10" stroke-linecap="round" stroke-linejoin="round"/>
<path d="M6.71646 14.9344C6.71646 14.9344 6.76593 14.8566 6.69727 14.7568" stroke="#C1333C" stroke-width="3.418" stroke-miterlimit="10" stroke-linecap="round" stroke-linejoin="round"/>
<path d="M7.13854 15.3715C7.13854 15.3715 7.19431 15.2836 7.12207 15.147" stroke="#C1333C" stroke-width="3.418" stroke-miterlimit="10" stroke-linecap="round" stroke-linejoin="round"/>
<path d="M7.44287 15.7868C7.44287 15.7868 7.49842 15.6821 7.46381 15.5986" stroke="#C1333C" stroke-width="3.418" stroke-miterlimit="10" stroke-linecap="round" stroke-linejoin="round"/>
<path d="M12.3372 17.0134C12.7261 16.3517 12.1605 15.6982 11.956 15.8134C11.6469 15.9878 11.2186 16.1538 10.8974 15.9228C10.5764 15.6918 10.006 14.9031 9.12155 15.2285C8.40497 15.4921 8.41352 16.3367 7.43627 16.0426C6.24944 15.6852 6.16342 16.8258 6.57195 17.4244L12.3372 17.0134Z" fill="#127585"/>
<path d="M8.46317 17.0747C8.46317 17.0747 8.08832 16.2571 6.69385 16.6098" stroke="#004651" stroke-width="3.3124" stroke-miterlimit="10" stroke-linecap="round" stroke-linejoin="round"/>
<path d="M9.44295 17.0551C9.44295 17.0551 9.29541 15.9474 9.60412 15.4658" stroke="#004651" stroke-width="3.3124" stroke-miterlimit="10" stroke-linecap="round" stroke-linejoin="round"/>
<path d="M10.3276 16.7655C10.3276 16.7655 11.3893 17.1289 12.1803 16.2905" stroke="#004651" stroke-width="3.3124" stroke-miterlimit="10" stroke-linecap="round" stroke-linejoin="round"/>
<path d="M8.20846 16.812C8.20846 16.812 8.0576 17.062 7.50977 17.0716" stroke="#004651" stroke-width="3.3124" stroke-miterlimit="10" stroke-linecap="round" stroke-linejoin="round"/>
<path d="M7.09161 16.519C7.09161 16.519 6.91586 16.2796 6.61621 16.2873" stroke="#004651" stroke-width="3.3124" stroke-miterlimit="10" stroke-linecap="round" stroke-linejoin="round"/>
<path d="M7.39732 16.5405C7.39732 16.5405 7.22447 16.9131 6.72656 16.9573" stroke="#004651" stroke-width="3.3124" stroke-miterlimit="10" stroke-linecap="round" stroke-linejoin="round"/>
<path d="M9.42288 16.0023C9.42288 16.0023 9.22241 15.884 9.20166 15.5928" stroke="#004651" stroke-width="3.3124" stroke-miterlimit="10" stroke-linecap="round" stroke-linejoin="round"/>
<path d="M9.42334 16.3958C9.42334 16.3958 9.67323 16.4375 9.83348 16.1196" stroke="#004651" stroke-width="3.3124" stroke-miterlimit="10" stroke-linecap="round" stroke-linejoin="round"/>
<path d="M9.40319 16.8821C9.40319 16.8821 9.15583 16.8127 8.94727 16.4526" stroke="#004651" stroke-width="3.3124" stroke-miterlimit="10" stroke-linecap="round" stroke-linejoin="round"/>
<path d="M11.7704 16.5989C11.7704 16.5989 11.6881 16.3441 11.9617 16.0776" stroke="#004651" stroke-width="3.3124" stroke-miterlimit="10" stroke-linecap="round" stroke-linejoin="round"/>
<path d="M11.439 16.7642C11.439 16.7642 11.5842 17.0054 12.0012 16.8248" stroke="#004651" stroke-width="3.3124" stroke-miterlimit="10" stroke-linecap="round" stroke-linejoin="round"/>
<path d="M10.6614 16.8288C10.6614 16.8288 10.6146 16.4937 11.1022 16.2759" stroke="#004651" stroke-width="3.3124" stroke-miterlimit="10" stroke-linecap="round" stroke-linejoin="round"/>
<path d="M8.94759 17.0972C8.94759 17.0972 8.538 16.8063 8.44385 16.1909" stroke="#004651" stroke-width="3.3124" stroke-miterlimit="10" stroke-linecap="round" stroke-linejoin="round"/>
<path d="M8.51904 16.4143C8.51904 16.4143 8.74708 16.3409 8.76217 16.0083" stroke="#004651" stroke-width="3.3124" stroke-miterlimit="10" stroke-linecap="round" stroke-linejoin="round"/>
<path d="M8.67191 16.7967C8.67191 16.7967 8.45492 16.4327 8.06885 16.4053" stroke="#004651" stroke-width="3.3124" stroke-miterlimit="10" stroke-linecap="round" stroke-linejoin="round"/>
<path d="M9.82275 16.9935C9.82275 16.9935 10.4312 16.5477 10.407 15.7583" stroke="#004651" stroke-width="3.3124" stroke-miterlimit="10" stroke-linecap="round" stroke-linejoin="round"/>
<path d="M10.2419 16.4563C10.2419 16.4563 10.0128 16.2578 10.1282 15.8882" stroke="#004651" stroke-width="3.3124" stroke-miterlimit="10" stroke-linecap="round" stroke-linejoin="round"/>
<path d="M10.3818 16.1761C10.3818 16.1761 10.6697 16.1099 10.7605 15.8428" stroke="#004651" stroke-width="3.3124" stroke-miterlimit="10" stroke-linecap="round" stroke-linejoin="round"/>
<path d="M9.90479 16.9238C9.90479 16.9238 9.99448 17.0272 10.3595 16.9508" stroke="#004651" stroke-width="3.3124" stroke-miterlimit="10" stroke-linecap="round" stroke-linejoin="round"/>
<path d="M9.9847 16.814C9.9847 16.814 9.83623 16.6565 9.93108 16.3994" stroke="#004651" stroke-width="3.3124" stroke-miterlimit="10" stroke-linecap="round" stroke-linejoin="round"/>
<path d="M18.6175 17.4549C19.1363 16.889 18.7199 16.1317 18.4958 16.2018C18.1569 16.3076 17.7035 16.3803 17.4377 16.0873C17.1721 15.7943 16.7792 14.9037 15.8463 15.0369C15.0904 15.1449 14.9222 15.9727 14.028 15.4807C12.9422 14.883 12.6196 15.9804 12.8939 16.6512L18.6175 17.4549Z" fill="#127585"/>
<path d="M14.8161 16.7048C14.8161 16.7048 14.6205 15.8269 13.1831 15.8803" stroke="#004651" stroke-width="3.3124" stroke-miterlimit="10" stroke-linecap="round" stroke-linejoin="round"/>
<path d="M15.7783 16.8905C15.7783 16.8905 15.8657 15.7765 16.2683 15.3701" stroke="#004651" stroke-width="3.3124" stroke-miterlimit="10" stroke-linecap="round" stroke-linejoin="round"/>
<path d="M16.7041 16.7925C16.7041 16.7925 17.6664 17.3698 18.6152 16.7153" stroke="#004651" stroke-width="3.3124" stroke-miterlimit="10" stroke-linecap="round" stroke-linejoin="round"/>
<path d="M14.6222 16.3945C14.6222 16.3945 14.4224 16.6075 13.8848 16.5022" stroke="#004651" stroke-width="3.3124" stroke-miterlimit="10" stroke-linecap="round" stroke-linejoin="round"/>
<path d="M13.5913 15.8749C13.5913 15.8749 13.4694 15.6041 13.1748 15.5488" stroke="#004651" stroke-width="3.3124" stroke-miterlimit="10" stroke-linecap="round" stroke-linejoin="round"/>
<path d="M13.8856 15.9595C13.8856 15.9595 13.6386 16.2877 13.1426 16.2268" stroke="#004651" stroke-width="3.3124" stroke-miterlimit="10" stroke-linecap="round" stroke-linejoin="round"/>
<path d="M15.9787 15.857C15.9787 15.857 15.8074 15.6993 15.848 15.4102" stroke="#004651" stroke-width="3.3124" stroke-miterlimit="10" stroke-linecap="round" stroke-linejoin="round"/>
<path d="M15.897 16.2414C15.897 16.2414 16.1327 16.3345 16.3558 16.0571" stroke="#004651" stroke-width="3.3124" stroke-miterlimit="10" stroke-linecap="round" stroke-linejoin="round"/>
<path d="M15.7755 16.713C15.7755 16.713 15.5482 16.5935 15.4194 16.1978" stroke="#004651" stroke-width="3.3124" stroke-miterlimit="10" stroke-linecap="round" stroke-linejoin="round"/>
<path d="M18.1495 16.9312C18.1495 16.9312 18.1224 16.6648 18.4457 16.4614" stroke="#004651" stroke-width="3.3124" stroke-miterlimit="10" stroke-linecap="round" stroke-linejoin="round"/>
<path d="M17.791 17.0234C17.791 17.0234 17.8826 17.2896 18.3281 17.2002" stroke="#004651" stroke-width="3.3124" stroke-miterlimit="10" stroke-linecap="round" stroke-linejoin="round"/>
<path d="M17.0176 16.924C17.0176 16.924 17.0419 16.5866 17.5643 16.4756" stroke="#004651" stroke-width="3.3124" stroke-miterlimit="10" stroke-linecap="round" stroke-linejoin="round"/>
<path d="M15.2849 16.8284C15.2849 16.8284 14.9452 16.4582 14.9818 15.8369" stroke="#004651" stroke-width="3.3124" stroke-miterlimit="10" stroke-linecap="round" stroke-linejoin="round"/>
<path d="M15.0088 16.0708C15.0088 16.0708 15.2472 16.0467 15.3314 15.7246" stroke="#004651" stroke-width="3.3124" stroke-miterlimit="10" stroke-linecap="round" stroke-linejoin="round"/>
<path d="M15.0786 16.4768C15.0786 16.4768 14.9426 16.0754 14.5708 15.9678" stroke="#004651" stroke-width="3.3124" stroke-miterlimit="10" stroke-linecap="round" stroke-linejoin="round"/>
<path d="M16.1626 16.91C16.1626 16.91 16.8508 16.6012 16.9922 15.8242" stroke="#004651" stroke-width="3.3124" stroke-miterlimit="10" stroke-linecap="round" stroke-linejoin="round"/>
<path d="M16.6848 16.472C16.6848 16.472 16.5024 16.2299 16.6925 15.8926" stroke="#004651" stroke-width="3.3124" stroke-miterlimit="10" stroke-linecap="round" stroke-linejoin="round"/>
<path d="M16.8804 16.2279C16.8804 16.2279 17.1758 16.2233 17.3203 15.981" stroke="#004651" stroke-width="3.3124" stroke-miterlimit="10" stroke-linecap="round" stroke-linejoin="round"/>
<path d="M16.2573 16.8589C16.2573 16.8589 16.3235 16.9787 16.6964 16.9804" stroke="#004651" stroke-width="3.3124" stroke-miterlimit="10" stroke-linecap="round" stroke-linejoin="round"/>
<path d="M16.3585 16.7682C16.3585 16.7682 16.2463 16.5832 16.3927 16.3516" stroke="#004651" stroke-width="3.3124" stroke-miterlimit="10" stroke-linecap="round" stroke-linejoin="round"/>
<path d="M15.6086 16.9673C16.0406 16.3328 15.5196 15.6433 15.3079 15.7447C14.988 15.8982 14.5496 16.0354 14.2445 15.7836C13.9394 15.5319 13.4226 14.7071 12.5185 14.9731C11.786 15.1887 11.7386 16.032 10.783 15.6737C9.62247 15.2385 9.46093 16.3709 9.82896 16.9952L15.6086 16.9673Z" fill="#127585"/>
<path d="M11.739 16.772C11.739 16.772 11.4192 15.9313 10.0044 16.1909" stroke="#004651" stroke-width="3.3124" stroke-miterlimit="10" stroke-linecap="round" stroke-linejoin="round"/>
<path d="M12.7177 16.8172C12.7177 16.8172 12.6439 15.7023 12.9839 15.2422" stroke="#004651" stroke-width="3.3124" stroke-miterlimit="10" stroke-linecap="round" stroke-linejoin="round"/>
<path d="M13.6201 16.587C13.6201 16.587 14.6554 17.0199 15.5002 16.2358" stroke="#004651" stroke-width="3.3124" stroke-miterlimit="10" stroke-linecap="round" stroke-linejoin="round"/>
<path d="M11.5023 16.4927C11.5023 16.4927 11.3353 16.7322 10.7881 16.7053" stroke="#004651" stroke-width="3.3124" stroke-miterlimit="10" stroke-linecap="round" stroke-linejoin="round"/>
<path d="M10.4073 16.1264C10.4073 16.1264 10.2477 15.876 9.94824 15.8638" stroke="#004651" stroke-width="3.3124" stroke-miterlimit="10" stroke-linecap="round" stroke-linejoin="round"/>
<path d="M10.7111 16.168C10.7111 16.168 10.5139 16.5283 10.0142 16.5394" stroke="#004651" stroke-width="3.3124" stroke-miterlimit="10" stroke-linecap="round" stroke-linejoin="round"/>
<path d="M12.7674 15.7657C12.7674 15.7657 12.5752 15.6344 12.5737 15.3423" stroke="#004651" stroke-width="3.3124" stroke-miterlimit="10" stroke-linecap="round" stroke-linejoin="round"/>
<path d="M12.7422 16.158C12.7422 16.158 12.9888 16.2162 13.1698 15.9097" stroke="#004651" stroke-width="3.3124" stroke-miterlimit="10" stroke-linecap="round" stroke-linejoin="round"/>
<path d="M12.6897 16.6418C12.6897 16.6418 12.4475 16.5562 12.2632 16.1831" stroke="#004651" stroke-width="3.3124" stroke-miterlimit="10" stroke-linecap="round" stroke-linejoin="round"/>
<path d="M15.0702 16.5162C15.0702 16.5162 15.0051 16.2566 15.2957 16.0088" stroke="#004651" stroke-width="3.3124" stroke-miterlimit="10" stroke-linecap="round" stroke-linejoin="round"/>
<path d="M14.729 16.6592C14.729 16.6592 14.8579 16.9094 15.2859 16.7569" stroke="#004651" stroke-width="3.3124" stroke-miterlimit="10" stroke-linecap="round" stroke-linejoin="round"/>
<path d="M13.9489 16.6723C13.9489 16.6723 13.9245 16.3349 14.4255 16.1499" stroke="#004651" stroke-width="3.3124" stroke-miterlimit="10" stroke-linecap="round" stroke-linejoin="round"/>
<path d="M12.2209 16.8267C12.2209 16.8267 11.8315 16.5093 11.7783 15.8892" stroke="#004651" stroke-width="3.3124" stroke-miterlimit="10" stroke-linecap="round" stroke-linejoin="round"/>
<path d="M11.8384 16.1166C11.8384 16.1166 12.0709 16.0584 12.1079 15.7275" stroke="#004651" stroke-width="3.3124" stroke-miterlimit="10" stroke-linecap="round" stroke-linejoin="round"/>
<path d="M11.9659 16.5084C11.9659 16.5084 11.7734 16.1306 11.3901 16.0776" stroke="#004651" stroke-width="3.3124" stroke-miterlimit="10" stroke-linecap="round" stroke-linejoin="round"/>
<path d="M13.1011 16.7812C13.1011 16.7812 13.7377 16.3767 13.7658 15.5874" stroke="#004651" stroke-width="3.3124" stroke-miterlimit="10" stroke-linecap="round" stroke-linejoin="round"/>
<path d="M13.5545 16.2727C13.5545 16.2727 13.339 16.0594 13.4788 15.6982" stroke="#004651" stroke-width="3.3124" stroke-miterlimit="10" stroke-linecap="round" stroke-linejoin="round"/>
<path d="M13.7129 16.0029C13.7129 16.0029 14.0046 15.9558 14.1129 15.6953" stroke="#004651" stroke-width="3.3124" stroke-miterlimit="10" stroke-linecap="round" stroke-linejoin="round"/>
<path d="M13.187 16.7168C13.187 16.7168 13.2697 16.8259 13.639 16.7739" stroke="#004651" stroke-width="3.3124" stroke-miterlimit="10" stroke-linecap="round" stroke-linejoin="round"/>
<path d="M13.2744 16.6126C13.2744 16.6126 13.1366 16.4456 13.2483 16.1953" stroke="#004651" stroke-width="3.3124" stroke-miterlimit="10" stroke-linecap="round" stroke-linejoin="round"/>
<path d="M18.2592 19.8788C18.3461 19.9765 18.271 20.0582 18.1364 20.0582H6.7764C6.67165 20.0582 6.6301 19.921 6.69531 19.8419L8.24787 18.1091C8.30663 18.0462 8.33282 18.0112 8.43775 18.0112H16.5227C16.6275 18.0112 16.6516 18.0363 16.7125 18.1091L18.2592 19.8788Z" fill="#E24E49"/>
<path d="M10.9084 6.05071L10.8546 7.53406C10.8546 7.53406 10.8318 7.92455 11.0737 7.96265C11.4418 8.02068 11.3457 7.56682 11.3457 7.56682L11.1788 6.04785L10.9084 6.05071Z" fill="#F9A888"/>
<path d="M11.8929 9.98089C11.6907 10.0666 11.5526 10.1035 11.4322 9.84586C11.3624 9.69708 10.8674 7.70429 10.8674 7.70429C10.8358 7.58321 10.8906 7.44141 11.0577 7.41422C11.2683 7.38008 11.3382 7.57152 11.3498 7.60253C11.3498 7.60253 11.8875 9.04906 11.9315 9.20139C12.0151 9.49012 12.0954 9.89498 11.8929 9.98089Z" fill="#F9A888"/>
<path d="M11.2347 5.45188L11.227 5.67177L11.2422 5.64591C11.257 5.62018 11.29 5.61139 11.3158 5.62631C11.3415 5.64135 11.3504 5.67435 11.3356 5.70008L11.2522 5.84367L11.2491 5.93502C11.2454 6.04672 11.1529 6.13425 11.0432 6.13048C10.9332 6.12666 10.8473 6.03296 10.8512 5.92136L10.8577 5.73456L10.8658 5.50124C10.8665 5.47593 10.8877 5.456 10.913 5.45696C10.9385 5.45783 10.9582 5.47905 10.9574 5.5044L10.959 5.45945C10.9598 5.43422 10.9811 5.41435 11.0063 5.41517C11.0251 5.41587 11.0407 5.42778 11.0473 5.44403L11.0487 5.39671C11.0499 5.36919 11.073 5.34765 11.1004 5.34867C11.1282 5.34954 11.1496 5.3726 11.1487 5.40016L11.1476 5.43036C11.1554 5.41448 11.1717 5.40366 11.1904 5.40436C11.2156 5.40522 11.2354 5.42648 11.2347 5.45188Z" fill="#F9A888"/>
<path d="M10.9521 5.74747L10.9578 5.51709" stroke="#E48D72" stroke-width="0.7872" stroke-miterlimit="10" stroke-linecap="round" stroke-linejoin="round"/>
<path d="M11.0505 5.45801L11.0449 5.73381" stroke="#E48D72" stroke-width="0.7872" stroke-miterlimit="10" stroke-linecap="round" stroke-linejoin="round"/>
<path d="M11.1432 5.73803L11.1406 5.44727" stroke="#E48D72" stroke-width="0.7872" stroke-miterlimit="10" stroke-linecap="round" stroke-linejoin="round"/>
<path d="M14.0526 6.05071L14.1065 7.53406C14.1065 7.53406 14.1293 7.92455 13.8874 7.96265C13.5193 8.02068 13.6153 7.56682 13.6153 7.56682L13.7823 6.04785L14.0526 6.05071Z" fill="#F9A888"/>
<path d="M13.1033 9.86556C13.3054 9.95125 13.4684 10.0601 13.5642 9.77563C13.6169 9.61994 14.0936 7.70429 14.0936 7.70429C14.1252 7.58321 14.0705 7.44141 13.9033 7.41422C13.6927 7.38008 13.6228 7.57152 13.6113 7.60253C13.6113 7.60253 13.0498 8.95982 13.0058 9.11216C12.9223 9.40089 12.9007 9.7796 13.1033 9.86556Z" fill="#F9A888"/>
<path d="M13.7262 5.45188L13.7338 5.67177L13.7189 5.64591C13.7039 5.62018 13.6709 5.61139 13.6451 5.62631C13.6193 5.64135 13.6105 5.67435 13.6254 5.70008L13.7087 5.84367L13.7118 5.93502C13.7158 6.04672 13.8079 6.13425 13.9177 6.13048C14.0276 6.12666 14.1136 6.03296 14.1099 5.92136L14.1033 5.73456L14.0952 5.50124C14.0945 5.47593 14.073 5.456 14.0478 5.45696C14.0224 5.45783 14.0027 5.47905 14.0034 5.5044L14.0019 5.45945C14.001 5.43422 13.9798 5.41435 13.9546 5.41517C13.9357 5.41587 13.9202 5.42778 13.9136 5.44403L13.9121 5.39671C13.911 5.36919 13.888 5.34765 13.8605 5.34867C13.8329 5.34954 13.8113 5.3726 13.8123 5.40016L13.8134 5.43036C13.8056 5.41448 13.7891 5.40366 13.7706 5.40436C13.7452 5.40522 13.7254 5.42648 13.7262 5.45188Z" fill="#F9A888"/>
<path d="M14.0088 5.74747L14.0029 5.51709" stroke="#E48D72" stroke-width="0.7872" stroke-miterlimit="10" stroke-linecap="round" stroke-linejoin="round"/>
<path d="M13.9102 5.45801L13.9159 5.73381" stroke="#E48D72" stroke-width="0.7872" stroke-miterlimit="10" stroke-linecap="round" stroke-linejoin="round"/>
<path d="M13.8179 5.73803L13.8205 5.44727" stroke="#E48D72" stroke-width="0.7872" stroke-miterlimit="10" stroke-linecap="round" stroke-linejoin="round"/>
<path d="M11.7739 12.4502C13.1693 14.1445 14.2314 14.6578 14.5825 14.9077C14.9536 15.1719 15.2431 15.3063 15.5345 14.9969C15.7975 14.7179 15.6077 14.4026 15.3442 14.1043C14.9142 13.6179 13.9236 12.7209 13.4147 12.4404L11.7739 12.4502Z" fill="#A18EC3"/>
<path d="M11.4408 12.4463C11.0957 13.4319 11.2995 15.1798 11.3262 15.537C11.3372 15.6843 11.3635 15.9667 11.8216 15.9667C12.1786 15.9667 12.4123 15.8494 12.4285 15.7244C12.4814 15.3153 12.7261 13.5747 12.7023 12.4463H11.4408Z" fill="#A18EC3"/>
<path d="M12.0587 18.7453C12.0587 18.7453 11.6285 18.7424 11.4861 18.7488C11.4861 18.7488 10.5952 18.7852 10.5952 19.1232C10.5952 19.2375 11.376 19.2996 11.9769 19.2095C12.0857 19.1932 12.0832 19.0009 12.0587 18.7453Z" fill="#F9A888"/>
<path d="M10.7434 18.9161C10.7482 18.9693 10.7708 19.019 10.8194 19.0533C10.9622 19.154 11.6388 19.1219 11.7924 19.0408C11.8959 18.9861 11.9832 18.8577 11.9884 18.7431L12.0832 18.7422C12.1078 18.9978 12.1018 19.2344 11.993 19.2508C11.3921 19.3408 10.5542 19.259 10.5542 19.1447C10.5542 19.0468 10.6324 18.9725 10.7434 18.9161Z" fill="#475390"/>
<path d="M12.9535 15.3054C12.9535 15.3054 12.9535 15.7601 12.9471 15.9026C12.9471 15.9026 12.912 16.7838 12.5739 16.7838C12.4597 16.7838 12.4086 16.056 12.4988 15.4551C12.515 15.3463 12.6978 15.281 12.9535 15.3054Z" fill="#F9A888"/>
<path d="M12.7792 16.6452C12.7261 16.6405 12.6765 16.6178 12.642 16.5692C12.5414 16.4264 12.5734 15.7496 12.6547 15.5961C12.7093 15.4926 12.8379 15.4054 12.9524 15.4001L12.9534 15.3053C12.6976 15.2808 12.4609 15.2868 12.4447 15.3956C12.3545 15.9964 12.4366 16.8344 12.5508 16.8344C12.6485 16.8344 12.723 16.7562 12.7792 16.6452Z" fill="#475390"/>
<path d="M12.4519 15.2932C12.458 15.1616 12.3688 14.7056 11.8271 14.7056C11.3985 14.7056 11.3224 15.2146 11.3258 15.3558C11.3436 16.1292 11.4642 18.7527 11.4642 18.7527L12.1931 18.746C12.1931 18.746 12.4102 16.2096 12.4519 15.2932Z" fill="#A18EC3"/>
<path d="M15.6179 14.4823C15.4795 14.1564 15.0407 14.1843 14.9139 14.2431C14.5314 14.4202 13.6526 14.8471 12.9399 15.1953V15.9985C13.7093 15.7316 14.8273 15.3406 15.3546 15.1393C15.4762 15.0927 15.7736 14.8499 15.6179 14.4823Z" fill="#A18EC3"/>
<path d="M13.3164 12.3955C13.2985 12.432 11.7545 12.5427 11.6562 12.4266C11.6164 12.3797 11.6319 11.8504 11.4479 10.3983C11.3609 9.71168 11.5124 9.51383 11.655 9.37053C11.7964 9.22828 12.2401 9.24346 12.2401 9.24346H12.6252C12.6252 9.24346 13.2358 9.2054 13.3654 9.37287C13.4948 9.53993 13.6659 9.90474 13.5662 10.5389C13.3832 11.7037 13.3402 12.3466 13.3164 12.3955Z" fill="#F9A888"/>
<path d="M13.5735 9.92579C13.2837 9.9042 12.9547 9.53456 12.94 9.24297C12.7467 9.22305 12.6134 9.2311 12.6134 9.2311L12.2542 9.23556C12.2542 9.23556 12.1177 9.23837 11.9863 9.25338C11.9677 9.54588 11.7196 9.90121 11.4262 9.91612C11.3838 10.0664 11.3584 10.1595 11.4106 10.4241C11.7498 12.1409 11.3837 12.4318 11.4196 12.4822C11.4692 12.5522 13.4351 12.5278 13.4903 12.4532C13.5227 12.4093 13.2806 12.2033 13.5929 10.619C13.6678 10.2395 13.5735 9.92579 13.5735 9.92579Z" fill="#475390"/>
<path d="M12.6635 9.22929C12.5861 9.03895 12.6603 8.92578 12.6603 8.92578H12.2053C12.2053 8.92578 12.305 9.04046 12.2053 9.24015C12.1611 9.32902 12.1867 9.47482 12.4582 9.47482C12.7078 9.47482 12.7 9.31903 12.6635 9.22929Z" fill="#F9A888"/>
<path d="M13.0934 8.33428C13.0934 8.75836 12.6605 9.13012 12.4503 9.13012C12.2439 9.13012 11.7812 8.70382 11.7812 8.31643C11.7812 7.83883 12.0374 7.48193 12.4417 7.48193C12.8462 7.48192 13.0934 7.85667 13.0934 8.33428Z" fill="#F9A888"/>
<path d="M12.4505 8.06648C12.4505 8.06648 12.7227 8.36097 13.1019 8.28963C13.1019 8.28963 13.1466 7.45509 12.4414 7.45509C12.4414 7.45509 11.7408 7.44169 11.781 8.31638C11.781 8.31638 12.1471 8.419 12.4505 8.06648Z" fill="#202C5B"/>
<path d="M13.1766 8.36983C13.1766 8.44774 13.1287 8.51084 13.0696 8.51084C13.0104 8.51084 12.9624 8.44775 12.9624 8.36983C12.9624 8.29214 13.0104 8.229 13.0696 8.229C13.1287 8.229 13.1766 8.29215 13.1766 8.36983Z" fill="#F9A888"/>
<path d="M11.9404 8.35625C11.9404 8.43411 11.8924 8.49721 11.8333 8.49721C11.7741 8.49721 11.7261 8.43411 11.7261 8.35625C11.7261 8.27843 11.7741 8.21533 11.8333 8.21533C11.8924 8.21533 11.9404 8.27842 11.9404 8.35625Z" fill="#F9A888"/>
<path d="M12.8478 7.3834C12.8478 7.56087 12.6848 7.57973 12.4818 7.57973C12.2791 7.57973 12.1138 7.55419 12.1138 7.37672C12.1138 7.19923 12.2812 7.04639 12.4842 7.04639C12.687 7.04639 12.8478 7.20594 12.8478 7.3834Z" fill="#202C5B"/>
</g>
<defs>
<clipPath id="clip0_1661_5152">
<rect width="25" height="25" fill="white"/>
</clipPath>
</defs>
</svg>
