<svg width="23" height="23" viewBox="0 0 23 23" fill="none" xmlns="http://www.w3.org/2000/svg">
<path d="M20.3081 9.46168C19.6504 8.89923 18.568 8.81258 18.196 8.03123C17.9681 7.55238 18.1107 6.97643 18.3534 6.50488C18.5961 6.03333 18.9342 5.61028 19.1229 5.11463C19.3117 4.61903 19.3159 3.99808 18.9434 3.62058C18.5826 3.25498 18.0016 3.23663 17.4926 3.30578C16.9836 3.37493 16.4576 3.50603 15.9663 3.35618C15.1672 3.11243 14.7689 2.24378 14.1792 1.65198C13.6014 1.07203 12.7778 0.765927 11.9613 0.773577C11.5087 0.777777 11.0564 0.777777 10.6038 0.773577C9.78729 0.765977 8.96374 1.07208 8.38589 1.65198C7.79619 2.24378 7.39794 3.11243 6.59884 3.35618C6.10754 3.50603 5.58154 3.37493 5.07254 3.30578C4.56354 3.23668 3.98259 3.25498 3.62174 3.62058C3.24924 3.99808 3.25349 4.61898 3.44219 5.11463C3.63094 5.61023 3.96904 6.03333 4.21174 6.50488C4.45444 6.97643 4.59699 7.55238 4.36909 8.03123C3.99719 8.81258 2.91469 8.89923 2.25704 9.46168C1.51819 10.0935 1.49409 11.3841 2.20884 12.0431C2.60144 12.4051 3.13399 12.5639 3.60624 12.8132C4.07849 13.0625 4.53634 13.4833 4.53989 14.0173C4.54514 14.8085 3.59704 15.2787 3.38084 16.0399C3.25664 16.4771 3.40014 16.9582 3.66819 17.3252C3.93624 17.6923 4.31614 17.9616 4.70579 18.1957C6.36374 19.1915 8.33429 19.658 10.2627 19.5112L11.2826 18.894L12.3024 19.5112C14.2308 19.658 16.2014 19.1915 17.8593 18.1957C18.249 17.9616 18.6289 17.6923 18.8969 17.3252C19.165 16.9581 19.3085 16.4771 19.1843 16.0399C18.9681 15.2787 18.02 14.8086 18.0252 14.0173C18.0288 13.4833 18.4866 13.0625 18.9589 12.8132C19.4311 12.5639 19.9637 12.4051 20.3563 12.0431C21.0711 11.3841 21.047 10.0935 20.3081 9.46168Z" fill="#FBDEA1"/>
<path d="M20.3883 11.2014C20.4486 11.0541 20.4884 10.886 20.4309 10.7376C20.3544 10.5404 20.1253 10.44 19.9138 10.4395C19.7747 10.4391 19.6334 10.4742 19.5192 10.5536C19.405 10.633 19.3206 10.7591 19.3062 10.8974C19.2928 11.0261 19.3384 11.1525 19.3674 11.2786C19.4281 11.5426 19.3405 11.6861 19.1121 11.807C18.9704 11.882 18.9175 12.0219 19.0284 12.162C19.243 12.4333 19.8383 11.9368 20.0014 11.7751C20.1663 11.6117 20.3004 11.4166 20.3883 11.2014Z" fill="white"/>
<path d="M3.97674 5.25082C3.80974 4.94002 3.75454 4.54762 3.92044 4.23622C4.09414 3.91017 4.51799 3.73472 4.86474 3.86197C5.21154 3.98922 5.42149 4.41677 5.29169 4.76262C5.20744 4.98717 5.00244 5.17287 5.00224 5.41272C5.00214 5.52077 5.04504 5.62347 5.07159 5.72817C5.16369 6.09167 4.87924 6.24237 4.61854 6.00757C4.37684 5.78992 4.13169 5.53927 3.97674 5.25082Z" fill="white"/>
<path d="M15.5264 7.45199C15.7011 7.34104 15.8712 7.21629 15.997 7.05189C16.1228 6.88754 16.2009 6.67784 16.1715 6.47294C16.142 6.26804 15.989 6.07599 15.7857 6.03734C15.5823 5.99869 15.3519 6.14854 15.3366 6.35499C15.3238 6.52769 15.4478 6.69934 15.3978 6.86514C15.3601 6.99024 15.2357 7.06629 15.117 7.12099C14.9983 7.17564 14.8684 7.22619 14.7934 7.33324C14.6738 7.50399 14.7802 7.62944 14.9425 7.64664C15.1511 7.66884 15.3566 7.55984 15.5264 7.45199Z" fill="white"/>
<path d="M13.365 1.38303C13.4851 1.45908 13.6033 1.55188 13.6595 1.68253C13.7156 1.81318 13.6879 1.98918 13.5654 2.06133C13.4689 2.11813 13.342 2.09593 13.247 2.03668C13.152 1.97743 13.0815 1.88698 13.011 1.80008C12.9404 1.71318 12.8648 1.62563 12.7646 1.57578C12.6263 1.50708 12.4154 1.51528 12.3291 1.36508C12.2646 1.25293 12.3368 1.15608 12.4433 1.11013C12.7229 0.989633 13.1356 1.23783 13.365 1.38303Z" fill="white"/>
<path d="M19.7263 15.9655C19.7179 15.9655 19.7098 15.9609 19.7057 15.9529C19.6998 15.9415 19.7043 15.9275 19.7157 15.9216C20.8235 15.3535 21.7758 14.4311 22.3974 13.3244C22.4036 13.3132 22.4178 13.3092 22.429 13.3155C22.4402 13.3218 22.4442 13.3359 22.4379 13.3471C21.8119 14.4617 20.8528 15.3907 19.7369 15.9629C19.7335 15.9647 19.7299 15.9655 19.7263 15.9655Z" fill="#425213"/>
<path d="M20.5311 15.4507C20.5295 15.4507 20.5278 15.4505 20.5261 15.4502C20.5136 15.4474 20.5056 15.435 20.5083 15.4225C20.5673 15.1527 20.6561 14.8895 20.7721 14.6404C20.7775 14.6288 20.7916 14.6237 20.803 14.6291C20.8146 14.6345 20.8196 14.6484 20.8142 14.66C20.6996 14.906 20.612 15.1659 20.5537 15.4324C20.5514 15.4433 20.5418 15.4507 20.5311 15.4507Z" fill="#425213"/>
<path d="M21.3201 14.8039C21.3193 14.8039 21.3186 14.8039 21.3178 14.8038C21.305 14.8025 21.2957 14.7911 21.297 14.7784C21.3243 14.5032 21.3821 14.231 21.4687 13.9691C21.4727 13.9569 21.4858 13.9503 21.498 13.9543C21.5102 13.9583 21.5168 13.9715 21.5128 13.9836C21.4273 14.2423 21.3702 14.5112 21.3432 14.7829C21.342 14.795 21.3319 14.8039 21.3201 14.8039Z" fill="#425213"/>
<path d="M21.9223 14.1049C21.9097 14.1049 21.8993 14.0948 21.8991 14.0821C21.894 13.8052 21.9193 13.5276 21.9744 13.2569C21.977 13.2444 21.9891 13.236 22.0018 13.2388C22.0144 13.2414 22.0225 13.2536 22.0199 13.2662C21.9655 13.5336 21.9405 13.8078 21.9456 14.0813C21.9458 14.0941 21.9356 14.1047 21.9228 14.105C21.9226 14.1049 21.9225 14.1049 21.9223 14.1049Z" fill="#425213"/>
<path d="M20.9373 15.1601C20.9256 15.1601 20.9155 15.1513 20.9142 15.1394C20.9128 15.1267 20.922 15.1152 20.9348 15.1138C21.1783 15.087 21.4218 15.0424 21.6587 14.9812C21.6712 14.978 21.6838 14.9855 21.687 14.9979C21.6902 15.0103 21.6827 15.023 21.6703 15.0262C21.4313 15.0879 21.1855 15.1329 20.9398 15.16C20.939 15.1601 20.9382 15.1601 20.9373 15.1601Z" fill="#425213"/>
<path d="M21.6716 14.4296C21.66 14.4296 21.6499 14.4208 21.6486 14.4089C21.6472 14.3962 21.6564 14.3847 21.6691 14.3833C21.9123 14.3565 22.1559 14.3119 22.3931 14.2507C22.4056 14.2476 22.4182 14.255 22.4214 14.2674C22.4245 14.2799 22.4171 14.2925 22.4047 14.2957C22.1653 14.3575 21.9195 14.4025 21.6742 14.4295C21.6733 14.4296 21.6725 14.4296 21.6716 14.4296Z" fill="#425213"/>
<path d="M22.5574 13.4016C22.5192 13.4779 22.4284 13.5075 22.3547 13.4678C22.2809 13.428 22.2521 13.3339 22.2903 13.2576C22.3285 13.1813 22.4193 13.1517 22.493 13.1915C22.5668 13.2313 22.5956 13.3254 22.5574 13.4016Z" fill="#425213"/>
<path d="M22.5489 13.2985C22.5575 13.3342 22.5491 13.3671 22.5301 13.372C22.5111 13.3769 22.4886 13.352 22.48 13.3163C22.4713 13.2806 22.4797 13.2477 22.4987 13.2428C22.5177 13.2379 22.5402 13.2629 22.5489 13.2985Z" fill="#F2F2F2"/>
<path d="M22.4559 14.3528C22.4177 14.4291 22.3269 14.4587 22.2531 14.4189C22.1794 14.3792 22.1506 14.2851 22.1888 14.2088C22.227 14.1325 22.3177 14.1029 22.3915 14.1427C22.4652 14.1825 22.4941 14.2765 22.4559 14.3528Z" fill="#425213"/>
<path d="M21.6043 14.1399C21.5661 14.2162 21.4753 14.2458 21.4015 14.206C21.3278 14.1663 21.299 14.0722 21.3372 13.9959C21.3754 13.9196 21.4661 13.89 21.5399 13.9298C21.6137 13.9696 21.6425 14.0636 21.6043 14.1399Z" fill="#425213"/>
<path d="M21.7059 15.0989C21.6677 15.1752 21.5769 15.2048 21.5031 15.165C21.4294 15.1253 21.4005 15.0312 21.4388 14.9549C21.477 14.8786 21.5677 14.849 21.6415 14.8888C21.7153 14.9285 21.7441 15.0226 21.7059 15.0989Z" fill="#425213"/>
<path d="M20.8855 14.804C20.8473 14.8803 20.7565 14.9099 20.6828 14.8701C20.609 14.8303 20.5802 14.7362 20.6184 14.66C20.6566 14.5837 20.7474 14.5541 20.8212 14.5938C20.8949 14.6336 20.9237 14.7277 20.8855 14.804Z" fill="#425213"/>
<path d="M22.1121 13.4075C22.0739 13.4838 21.9832 13.5134 21.9094 13.4736C21.8356 13.4339 21.8068 13.3398 21.845 13.2635C21.8832 13.1872 21.974 13.1576 22.0478 13.1974C22.1215 13.2371 22.1503 13.3312 22.1121 13.4075Z" fill="#425213"/>
<path d="M21.9313 13.2008C21.8982 13.2139 21.8771 13.2399 21.8842 13.2589C21.8912 13.2779 21.9238 13.2826 21.9569 13.2695C21.99 13.2563 22.0112 13.2303 22.0041 13.2113C21.997 13.1924 21.9644 13.1876 21.9313 13.2008Z" fill="#F2F2F2"/>
<path d="M22.4551 14.2516C22.4638 14.2873 22.4554 14.3202 22.4364 14.3251C22.4174 14.33 22.3949 14.3051 22.3862 14.2694C22.3776 14.2337 22.386 14.2008 22.405 14.1959C22.424 14.191 22.4464 14.2159 22.4551 14.2516Z" fill="#F2F2F2"/>
<path d="M21.4235 13.9391C21.3904 13.9522 21.3693 13.9783 21.3764 13.9972C21.3834 14.0162 21.416 14.0209 21.4491 14.0078C21.4822 13.9946 21.5034 13.9686 21.4963 13.9496C21.4892 13.9307 21.4567 13.926 21.4235 13.9391Z" fill="#F2F2F2"/>
<path d="M21.6973 14.9957C21.706 15.0314 21.6976 15.0643 21.6786 15.0692C21.6595 15.0741 21.6371 15.0492 21.6284 15.0135C21.6198 14.9779 21.6282 14.945 21.6472 14.9401C21.6662 14.9351 21.6886 14.9601 21.6973 14.9957Z" fill="#F2F2F2"/>
<path d="M20.7048 14.6051C20.6717 14.6182 20.6506 14.6442 20.6576 14.6632C20.6647 14.6822 20.6973 14.6869 20.7304 14.6738C20.7635 14.6606 20.7846 14.6346 20.7776 14.6156C20.7705 14.5967 20.7379 14.5919 20.7048 14.6051Z" fill="#F2F2F2"/>
<path d="M20.499 15.4737C20.7115 15.3455 20.9512 15.4329 21.1143 15.6198C21.2775 15.8067 21.3161 16.081 21.2549 16.3214C21.1936 16.5618 21.0436 16.7714 20.8678 16.9463C20.4096 17.4022 19.7518 17.6486 19.1068 17.6096C19.3415 17.639 19.472 17.9056 19.4698 18.1543C19.4675 18.4198 19.2889 18.6601 19.0635 18.8004C18.8381 18.9408 18.5711 18.9966 18.3082 19.0342C17.7147 19.119 17.1097 19.1219 16.515 19.0449C16.6897 19.1009 16.8012 19.3112 16.7946 19.5093C16.7866 19.7469 16.6128 19.9556 16.401 20.0635C16.1891 20.1714 15.9446 20.1942 15.7068 20.1955C14.3922 20.2026 13.0888 19.5697 12.2812 18.5323L12.6683 18.2237C12.6532 17.8598 12.6977 17.4857 12.8617 17.1606C13.0258 16.8355 13.3221 16.565 13.6788 16.4922C14.0356 16.4193 14.4438 16.5767 14.6109 16.9002C14.6609 16.5724 14.6465 16.268 14.7596 15.9563C14.8728 15.6447 15.0541 15.3491 15.3216 15.1533C15.5892 14.9575 15.9511 14.8745 16.2622 14.989C16.551 15.0953 16.7707 15.391 16.7585 15.6947C16.7897 15.3633 16.8208 15.0128 16.934 14.703C17.0552 14.3712 17.2495 14.0592 17.5283 13.8423C17.7136 13.6981 17.9475 13.5966 18.1799 13.6302C18.5619 13.6855 18.8024 14.0721 18.9208 14.4394C18.9898 13.8531 19.2742 13.3163 19.7482 12.9643C19.9329 12.8271 20.1442 12.718 20.3722 12.6864C20.6002 12.6549 20.8462 12.7085 21.0175 12.8621C21.1625 12.9922 21.2435 13.1832 21.2687 13.3764C21.2939 13.5697 21.2676 13.7662 21.2255 13.9564C21.1026 14.5119 20.8674 15.0401 20.499 15.4737Z" fill="#A1C92F"/>
<path d="M20.4881 13.4082C19.9617 14.8784 18.7833 16.0444 17.443 16.8457C16.1027 17.6471 14.5971 18.1232 13.1016 18.5724" stroke="#799623" stroke-miterlimit="10" stroke-linecap="round" stroke-linejoin="round"/>
<path d="M17.9098 14.1289C17.5562 14.8508 17.5996 15.7526 18.021 16.4371" stroke="#799623" stroke-miterlimit="10" stroke-linecap="round" stroke-linejoin="round"/>
<path d="M20.5536 16.2449C20.2699 16.4054 19.9244 16.4533 19.6076 16.3761C19.2909 16.2989 19.0062 16.0974 18.8281 15.8242" stroke="#799623" stroke-miterlimit="10" stroke-linecap="round" stroke-linejoin="round"/>
<path d="M15.9088 15.4707C15.6037 16.1329 15.627 16.9371 15.9698 17.5806" stroke="#799623" stroke-miterlimit="10" stroke-linecap="round" stroke-linejoin="round"/>
<path d="M18.7173 18.163C18.3214 18.2581 17.8967 18.2292 17.5173 18.0815C17.1379 17.9337 16.8055 17.6678 16.5781 17.3301" stroke="#799623" stroke-miterlimit="10" stroke-linecap="round" stroke-linejoin="round"/>
<path d="M13.8409 16.957C13.7147 17.397 13.7916 17.891 14.0457 18.2717" stroke="#799623" stroke-miterlimit="10" stroke-linecap="round" stroke-linejoin="round"/>
<path d="M16.2873 19.345C15.9015 19.3522 15.5143 19.2421 15.19 19.033C14.8657 18.8239 14.6057 18.5165 14.4531 18.1621" stroke="#799623" stroke-miterlimit="10" stroke-linecap="round" stroke-linejoin="round"/>
<path d="M15.7802 13.4295C15.9721 12.3268 15.9437 11.1991 16.0275 10.0829C16.0583 9.67304 16.108 9.25169 16.3071 8.89204C16.5061 8.53239 16.8892 8.24579 17.2991 8.27784C17.613 8.30239 17.8896 8.50724 18.0792 8.75859C18.5348 9.36279 18.5477 10.1834 18.5038 10.9389C18.4317 12.1817 18.2449 13.4575 17.6064 14.5262C17.0023 15.5371 16.0026 16.3044 14.8699 16.6266C14.6336 16.6938 14.0244 16.6475 14.3376 16.3067C14.584 16.0386 14.8338 15.8126 15.0317 15.4976C15.4246 14.8724 15.6542 14.1535 15.7802 13.4295Z" fill="#799623"/>
<path d="M14.6094 16.4427C15.2266 16.1988 15.7109 15.6971 16.0751 15.1423C16.6928 14.2017 17.0111 13.0899 17.1489 11.9731C17.2867 10.8563 17.2521 9.72621 17.2142 8.60156" stroke="#A1C92F" stroke-miterlimit="10" stroke-linecap="round" stroke-linejoin="round"/>
<path d="M16.3281 9.37109C16.6182 9.68214 16.9197 9.98259 17.2317 10.2716" stroke="#A1C92F" stroke-miterlimit="10" stroke-linecap="round" stroke-linejoin="round"/>
<path d="M18.1895 10.6055C17.8738 10.9026 17.5418 11.1823 17.1953 11.4428" stroke="#A1C92F" stroke-miterlimit="10" stroke-linecap="round" stroke-linejoin="round"/>
<path d="M16.1875 12.1289C16.4359 12.4355 16.6844 12.742 16.9328 13.0486" stroke="#A1C92F" stroke-miterlimit="10" stroke-linecap="round" stroke-linejoin="round"/>
<path d="M17.4801 14.0352C17.1564 14.1399 16.8349 14.2512 16.5156 14.3687" stroke="#A1C92F" stroke-miterlimit="10" stroke-linecap="round" stroke-linejoin="round"/>
<path d="M15.5625 14.8945C15.6478 15.0737 15.7535 15.2431 15.8768 15.3985" stroke="#A1C92F" stroke-miterlimit="10" stroke-linecap="round" stroke-linejoin="round"/>
<path d="M15.0076 14.9278C15.1536 14.8871 15.3136 14.7082 15.3854 14.6014C15.4438 14.5145 15.4882 14.4093 15.4533 14.3055C15.4331 14.2454 15.3831 14.1965 15.3202 14.1881C15.2287 14.176 15.1656 14.2497 15.1232 14.3224C15.0401 14.4649 14.9687 14.6641 14.9532 14.8413C14.88 14.6658 14.8167 14.486 14.7617 14.3034C14.7658 14.3035 14.7701 14.3031 14.7744 14.3019C14.9204 14.2612 15.0804 14.0823 15.1522 13.9755C15.2106 13.8886 15.255 13.7834 15.2201 13.6796C15.1999 13.6195 15.1499 13.5706 15.087 13.5622C14.9955 13.5501 14.9324 13.6238 14.89 13.6965C14.813 13.8285 14.7457 14.0094 14.7239 14.1762C14.6662 13.9674 14.6214 13.7549 14.5879 13.5408C14.5902 13.5411 14.5923 13.5415 14.5946 13.5415C14.7462 13.5392 14.9463 13.4066 15.0427 13.3214C15.1212 13.2521 15.1908 13.1615 15.1833 13.0523C15.179 12.9891 15.143 12.929 15.0843 12.9051C14.9988 12.8702 14.9192 12.9255 14.8597 12.9851C14.7476 13.0975 14.6324 13.2635 14.5705 13.4251C14.5374 13.1799 14.5205 12.9329 14.5198 12.6862C14.6689 12.7112 14.8879 12.6215 14.9982 12.5573C15.0887 12.5046 15.1746 12.4293 15.1885 12.3207C15.1966 12.2578 15.173 12.1919 15.1201 12.157C15.0431 12.1061 14.9541 12.1449 14.8843 12.1918C14.7554 12.2781 14.6135 12.414 14.521 12.5568C14.5264 12.2989 14.549 12.0419 14.5911 11.7888C14.5932 11.7764 14.5848 11.7647 14.5724 11.7627C14.5608 11.7605 14.5484 11.7689 14.5463 11.7814C14.5194 11.9432 14.5002 12.1066 14.4882 12.2709C14.4183 12.1081 14.2896 11.942 14.1671 11.8329C14.1042 11.7769 14.0215 11.7263 13.9382 11.7662C13.881 11.7936 13.8486 11.8556 13.848 11.919C13.847 12.0285 13.9218 12.1148 14.0042 12.1794C14.1055 12.2587 14.313 12.3793 14.4645 12.3727C14.4714 12.3724 14.4776 12.3704 14.4832 12.3676C14.4703 12.6008 14.4723 12.8353 14.4888 13.0692C14.3717 12.9381 14.1996 12.8224 14.0508 12.7576C13.9737 12.724 13.8793 12.7018 13.8125 12.7657C13.7667 12.8095 13.7553 12.8786 13.7745 12.939C13.8077 13.0434 13.9057 13.102 14.0042 13.1377C14.124 13.181 14.3551 13.23 14.4973 13.179C14.5166 13.3923 14.5483 13.6045 14.5914 13.8144C14.475 13.691 14.3116 13.5832 14.1699 13.5215C14.0927 13.488 13.9983 13.4657 13.9316 13.5296C13.8858 13.5734 13.8744 13.6425 13.8936 13.7029C13.9267 13.8072 14.0247 13.8659 14.1232 13.9015C14.2434 13.945 14.4758 13.9943 14.6179 13.9424C14.6619 14.1343 14.7169 14.3235 14.7803 14.5095C14.6645 14.3896 14.5056 14.2851 14.367 14.2248C14.2898 14.1912 14.1954 14.169 14.1287 14.2328C14.0829 14.2767 14.0715 14.3457 14.0907 14.4061C14.1238 14.5105 14.2218 14.5691 14.3203 14.6048C14.4413 14.6486 14.6761 14.6984 14.8179 14.6449C14.8209 14.6438 14.8227 14.6415 14.8252 14.6399C14.8918 14.8205 14.9687 14.9968 15.0535 15.1688C14.9398 15.0573 14.7912 14.9609 14.6604 14.904C14.5832 14.8704 14.4888 14.8482 14.4221 14.912C14.3763 14.9559 14.3649 15.0249 14.3841 15.0853C14.4172 15.1897 14.5152 15.2483 14.6137 15.284C14.7347 15.3277 14.9695 15.3776 15.1113 15.3241C15.1175 15.3218 15.1223 15.3179 15.1266 15.3137C15.1622 15.3807 15.1989 15.4471 15.2373 15.5124C15.2415 15.5196 15.2491 15.5236 15.2569 15.5236C15.2609 15.5236 15.2648 15.5226 15.2684 15.5204C15.2792 15.5141 15.2829 15.5002 15.2765 15.4893C15.1705 15.309 15.0763 15.1214 14.992 14.929C14.997 14.9294 15.0023 14.9292 15.0076 14.9278Z" fill="#425213"/>
<path d="M19.733 11.0879C19.5398 11.306 19.4712 11.6277 19.5587 11.9057C19.6196 12.0994 19.7476 12.2647 19.8269 12.4517C19.9062 12.6386 19.9267 12.8769 19.7891 13.0263C19.5866 13.2462 19.195 13.1334 18.9557 13.3125C18.747 13.4687 18.739 13.7745 18.7637 14.034C18.7883 14.2935 18.8155 14.588 18.6418 14.7825C18.5117 14.9281 18.3018 14.9731 18.1065 14.9748C17.9112 14.9765 17.715 14.9434 17.5213 14.9684C17.3276 14.9934 17.1263 15.0937 17.0556 15.2758C16.9793 15.4724 17.076 15.6945 17.0471 15.9035C17.0153 16.1342 16.8248 16.3242 16.6027 16.3943C16.3806 16.4644 16.135 16.4275 15.9219 16.3336C16.0861 16.3948 16.2733 16.2093 16.3562 16.0549C16.4391 15.9004 16.4398 15.716 16.427 15.5411C16.4142 15.3663 16.3902 15.1882 16.4302 15.0176C16.4975 14.7304 16.7601 14.5002 17.0536 14.471C17.3351 14.4431 17.6578 14.5733 17.881 14.3993C18.0304 14.2829 18.0668 14.0722 18.0618 13.8828C18.0567 13.6935 18.0219 13.4999 18.0726 13.3173C18.1318 13.104 18.3133 12.9294 18.5287 12.8785C18.7421 12.828 18.9944 12.8842 19.162 12.7428C19.3034 12.6234 19.3195 12.4104 19.2873 12.2282C19.2551 12.046 19.1857 11.8672 19.1965 11.6825C19.2137 11.3879 19.44 11.1235 19.733 11.0879Z" fill="#C5F739"/>
<path d="M16.0078 16.3806C16.2186 16.4702 16.4739 16.3446 16.5955 16.1505C16.7171 15.9564 16.7326 15.7147 16.7197 15.486C16.7115 15.3421 16.6948 15.1906 16.7554 15.0598C16.8326 14.8933 17.0185 14.8027 17.1995 14.7725C17.3806 14.7423 17.5662 14.7593 17.7488 14.7408C17.9314 14.7223 18.1231 14.6591 18.2309 14.5105C18.3559 14.3382 18.3351 14.1042 18.3143 13.8924C18.2935 13.6805 18.2865 13.4419 18.4287 13.2835C18.5675 13.1289 18.8022 13.0953 19.0039 13.0456C19.2056 12.9959 19.4263 12.9162 19.5163 12.729C19.5787 12.5994 19.5626 12.4454 19.5228 12.3071C19.483 12.1688 19.4211 12.0368 19.3936 11.8956C19.3446 11.6437 19.4143 11.3712 19.5783 11.1738" stroke="#799623" stroke-miterlimit="10" stroke-linecap="round" stroke-linejoin="round"/>
<path d="M2.8474 15.9655C2.8558 15.9655 2.86395 15.9609 2.86805 15.9529C2.8739 15.9415 2.8694 15.9275 2.858 15.9216C1.75025 15.3535 0.797898 14.4311 0.176348 13.3244C0.170098 13.3132 0.155898 13.3092 0.144698 13.3155C0.133498 13.3218 0.129498 13.3359 0.135798 13.3471C0.761748 14.4617 1.72095 15.3907 2.8368 15.9629C2.8402 15.9647 2.84385 15.9655 2.8474 15.9655Z" fill="#425213"/>
<path d="M2.04318 15.4507C2.04478 15.4507 2.04643 15.4505 2.04818 15.4502C2.06068 15.4474 2.06863 15.435 2.06588 15.4225C2.00688 15.1527 1.91813 14.8895 1.80208 14.6404C1.79668 14.6288 1.78263 14.6237 1.77123 14.6291C1.75963 14.6345 1.75458 14.6484 1.75998 14.66C1.87458 14.906 1.96223 15.1659 2.02048 15.4324C2.02288 15.4433 2.03253 15.4507 2.04318 15.4507Z" fill="#425213"/>
<path d="M1.24856 14.8039C1.24936 14.8039 1.25011 14.8039 1.25091 14.8038C1.26371 14.8025 1.27296 14.7911 1.27171 14.7784C1.24436 14.5032 1.18656 14.231 1.10001 13.9691C1.09601 13.9569 1.08286 13.9503 1.07066 13.9543C1.05846 13.9583 1.05186 13.9715 1.05586 13.9836C1.14136 14.2423 1.19846 14.5112 1.22551 14.7829C1.22666 14.795 1.23681 14.8039 1.24856 14.8039Z" fill="#425213"/>
<path d="M0.644958 14.1049C0.657608 14.1049 0.667959 14.0948 0.668209 14.0821C0.673309 13.8052 0.647959 13.5276 0.592859 13.2569C0.590259 13.2444 0.578158 13.236 0.565458 13.2388C0.552908 13.2414 0.544759 13.2536 0.547359 13.2662C0.601759 13.5336 0.626808 13.8078 0.621708 14.0813C0.621458 14.0941 0.631659 14.1047 0.644509 14.105C0.644659 14.1049 0.644808 14.1049 0.644958 14.1049Z" fill="#425213"/>
<path d="M1.6333 15.1601C1.64495 15.1601 1.65505 15.1513 1.65635 15.1394C1.65775 15.1267 1.64855 15.1152 1.6358 15.1138C1.3923 15.087 1.14875 15.0424 0.911851 14.9812C0.899401 14.978 0.886801 14.9855 0.883551 14.9979C0.880351 15.0103 0.887851 15.023 0.900251 15.0262C1.13925 15.0879 1.38505 15.1329 1.63075 15.16C1.6316 15.1601 1.6324 15.1601 1.6333 15.1601Z" fill="#425213"/>
<path d="M0.898909 14.4296C0.910559 14.4296 0.920659 14.4208 0.921959 14.4089C0.923359 14.3962 0.914159 14.3847 0.901409 14.3833C0.658259 14.3565 0.414659 14.3119 0.177459 14.2507C0.164909 14.2476 0.152359 14.255 0.149159 14.2674C0.146009 14.2799 0.153459 14.2925 0.165859 14.2957C0.405209 14.3575 0.651009 14.4025 0.896359 14.4295C0.897209 14.4296 0.898059 14.4296 0.898909 14.4296Z" fill="#425213"/>
<path d="M0.016884 13.4016C0.055084 13.4779 0.145834 13.5075 0.219634 13.4678C0.293384 13.428 0.322234 13.3339 0.283984 13.2576C0.245784 13.1813 0.155034 13.1517 0.081284 13.1915C0.00748401 13.2313 -0.021316 13.3254 0.016884 13.4016Z" fill="#425213"/>
<path d="M0.01903 13.2985C0.01038 13.3342 0.01878 13.3671 0.03778 13.372C0.05683 13.3769 0.07928 13.352 0.08793 13.3163C0.09658 13.2806 0.08818 13.2477 0.06918 13.2428C0.05018 13.2379 0.02773 13.2629 0.01903 13.2985Z" fill="#F2F2F2"/>
<path d="M0.118447 14.3528C0.156647 14.4291 0.247446 14.4587 0.321196 14.4189C0.394946 14.3792 0.423747 14.2851 0.385547 14.2088C0.347347 14.1325 0.256597 14.1029 0.182847 14.1427C0.109047 14.1825 0.0802465 14.2765 0.118447 14.3528Z" fill="#425213"/>
<path d="M0.962198 14.1399C1.0004 14.2162 1.09115 14.2458 1.16495 14.206C1.2387 14.1663 1.2675 14.0722 1.2293 13.9959C1.1911 13.9196 1.10035 13.89 1.02655 13.9298C0.952798 13.9696 0.923998 14.0636 0.962198 14.1399Z" fill="#425213"/>
<path d="M0.868448 15.0989C0.906648 15.1752 0.997448 15.2048 1.0712 15.165C1.14495 15.1253 1.1738 15.0312 1.13555 14.9549C1.09735 14.8786 1.0066 14.849 0.932798 14.8888C0.859048 14.9285 0.830248 15.0226 0.868448 15.0989Z" fill="#425213"/>
<path d="M1.68876 14.804C1.72696 14.8803 1.81776 14.9099 1.89151 14.8701C1.96526 14.8303 1.99406 14.7362 1.95586 14.66C1.91766 14.5837 1.82691 14.5541 1.75311 14.5938C1.67936 14.6336 1.65056 14.7277 1.68876 14.804Z" fill="#425213"/>
<path d="M0.454407 13.4075C0.492607 13.4838 0.583357 13.5134 0.657157 13.4736C0.730907 13.4339 0.759708 13.3398 0.721508 13.2635C0.683308 13.1872 0.592507 13.1576 0.518757 13.1974C0.445008 13.2371 0.416157 13.3312 0.454407 13.4075Z" fill="#425213"/>
<path d="M0.636655 13.2008C0.669755 13.2139 0.690905 13.2399 0.683805 13.2589C0.676755 13.2779 0.644205 13.2826 0.611055 13.2695C0.577955 13.2563 0.556805 13.2303 0.563855 13.2113C0.570955 13.1924 0.603555 13.1876 0.636655 13.2008Z" fill="#F2F2F2"/>
<path d="M0.120592 14.2516C0.111942 14.2873 0.120342 14.3202 0.139342 14.3251C0.158342 14.33 0.180843 14.3051 0.189493 14.2694C0.198142 14.2337 0.189742 14.2008 0.170743 14.1959C0.151742 14.191 0.129292 14.2159 0.120592 14.2516Z" fill="#F2F2F2"/>
<path d="M1.15228 13.9391C1.18538 13.9522 1.20653 13.9783 1.19943 13.9972C1.19238 14.0162 1.15983 14.0209 1.12668 14.0078C1.09358 13.9946 1.07243 13.9686 1.07948 13.9496C1.08658 13.9307 1.11913 13.926 1.15228 13.9391Z" fill="#F2F2F2"/>
<path d="M0.8706 14.9957C0.86195 15.0314 0.8703 15.0643 0.88935 15.0692C0.9084 15.0741 0.93085 15.0492 0.9395 15.0135C0.94815 14.9779 0.93975 14.945 0.92075 14.9401C0.90175 14.9351 0.8793 14.9601 0.8706 14.9957Z" fill="#F2F2F2"/>
<path d="M1.87098 14.6051C1.90408 14.6182 1.92523 14.6442 1.91818 14.6632C1.91113 14.6822 1.87853 14.6869 1.84543 14.6738C1.81233 14.6606 1.79118 14.6346 1.79823 14.6156C1.80528 14.5967 1.83788 14.5919 1.87098 14.6051Z" fill="#F2F2F2"/>
<path d="M2.07245 15.4737C1.86 15.3455 1.6203 15.4329 1.45715 15.6198C1.294 15.8067 1.2553 16.081 1.31655 16.3214C1.3778 16.5618 1.52785 16.7714 1.7037 16.9463C2.16195 17.4022 2.8197 17.6486 3.46465 17.6096C3.23 17.639 3.0995 17.9056 3.1017 18.1543C3.104 18.4198 3.2826 18.6601 3.50795 18.8004C3.73335 18.9408 4.0004 18.9966 4.26325 19.0342C4.8568 19.119 5.46175 19.1219 6.0564 19.0449C5.8817 19.1009 5.7703 19.3112 5.7769 19.5093C5.78485 19.7469 5.9587 19.9556 6.1705 20.0635C6.38235 20.1714 6.6269 20.1942 6.86465 20.1955C8.1793 20.2026 9.4827 19.5697 10.2902 18.5323L9.9032 18.2237C9.91829 17.8598 9.8738 17.4857 9.70975 17.1606C9.5457 16.8355 9.2494 16.565 8.89265 16.4922C8.53585 16.4193 8.12759 16.5767 7.96049 16.9002C7.9105 16.5724 7.92495 16.268 7.8118 15.9563C7.69865 15.6447 7.51735 15.3491 7.24985 15.1533C6.9823 14.9575 6.62035 14.8745 6.30925 14.989C6.02045 15.0953 5.80075 15.391 5.813 15.6947C5.78175 15.3633 5.7506 15.0128 5.63745 14.703C5.51625 14.3712 5.32195 14.0592 5.04315 13.8423C4.85785 13.6981 4.6239 13.5966 4.39155 13.6302C4.00955 13.6855 3.7691 14.0721 3.65065 14.4394C3.58165 13.8531 3.29725 13.3163 2.8233 12.9643C2.63855 12.8271 2.4272 12.718 2.19925 12.6864C1.9713 12.6549 1.72525 12.7085 1.5539 12.8621C1.40885 12.9922 1.32795 13.1832 1.30275 13.3764C1.27755 13.5697 1.3038 13.7662 1.34595 13.9564C1.4689 14.5119 1.70405 15.0401 2.07245 15.4737Z" fill="#A1C92F"/>
<path d="M2.07812 13.4082C2.60453 14.8784 3.78292 16.0444 5.12322 16.8457C6.46352 17.6471 7.96913 18.1232 9.46468 18.5724" stroke="#799623" stroke-miterlimit="10" stroke-linecap="round" stroke-linejoin="round"/>
<path d="M4.65803 14.1289C5.01168 14.8508 4.96822 15.7526 4.54688 16.4371" stroke="#799623" stroke-miterlimit="10" stroke-linecap="round" stroke-linejoin="round"/>
<path d="M2.01562 16.2449C2.29938 16.4054 2.64487 16.4533 2.96162 16.3761C3.27837 16.2989 3.56308 16.0974 3.74113 15.8242" stroke="#799623" stroke-miterlimit="10" stroke-linecap="round" stroke-linejoin="round"/>
<path d="M6.66261 15.4707C6.96766 16.1329 6.94441 16.9371 6.60156 17.5806" stroke="#799623" stroke-miterlimit="10" stroke-linecap="round" stroke-linejoin="round"/>
<path d="M3.85156 18.163C4.24746 18.2581 4.67216 18.2292 5.05156 18.0815C5.43096 17.9337 5.76336 17.6678 5.99071 17.3301" stroke="#799623" stroke-miterlimit="10" stroke-linecap="round" stroke-linejoin="round"/>
<path d="M8.72824 16.957C8.85444 17.397 8.77749 17.891 8.52344 18.2717" stroke="#799623" stroke-miterlimit="10" stroke-linecap="round" stroke-linejoin="round"/>
<path d="M6.28125 19.345C6.66705 19.3522 7.0543 19.2421 7.37855 19.033C7.70285 18.8239 7.9629 18.5165 8.11545 18.1621" stroke="#799623" stroke-miterlimit="10" stroke-linecap="round" stroke-linejoin="round"/>
<path d="M6.79488 13.4295C6.60303 12.3268 6.63143 11.1991 6.54763 10.0829C6.51683 9.67304 6.46708 9.25169 6.26803 8.89204C6.06898 8.53239 5.68588 8.24579 5.27603 8.27784C4.96213 8.30239 4.68548 8.50724 4.49593 8.75859C4.04033 9.36279 4.02743 10.1834 4.07128 10.9389C4.14343 12.1817 4.33018 13.4575 4.96873 14.5262C5.57278 15.5371 6.57248 16.3044 7.70523 16.6266C7.94153 16.6938 8.55073 16.6475 8.23748 16.3067C7.99108 16.0386 7.74128 15.8126 7.54338 15.4976C7.15048 14.8724 6.92088 14.1535 6.79488 13.4295Z" fill="#799623"/>
<path d="M7.96672 16.4427C7.34952 16.1988 6.86517 15.6971 6.50097 15.1423C5.88332 14.2017 5.56502 13.0899 5.42722 11.9731C5.28942 10.8563 5.32392 9.72621 5.36192 8.60156" stroke="#A1C92F" stroke-miterlimit="10" stroke-linecap="round" stroke-linejoin="round"/>
<path d="M6.24735 9.37109C5.95725 9.68214 5.6558 9.98259 5.34375 10.2716" stroke="#A1C92F" stroke-miterlimit="10" stroke-linecap="round" stroke-linejoin="round"/>
<path d="M4.38281 10.6055C4.69846 10.9026 5.03051 11.1823 5.37696 11.4428" stroke="#A1C92F" stroke-miterlimit="10" stroke-linecap="round" stroke-linejoin="round"/>
<path d="M6.39374 12.1289C6.14529 12.4355 5.89689 12.742 5.64844 13.0486" stroke="#A1C92F" stroke-miterlimit="10" stroke-linecap="round" stroke-linejoin="round"/>
<path d="M5.10156 14.0352C5.42521 14.1399 5.74676 14.2512 6.06601 14.3687" stroke="#A1C92F" stroke-miterlimit="10" stroke-linecap="round" stroke-linejoin="round"/>
<path d="M7.00966 14.8945C6.92436 15.0737 6.81866 15.2431 6.69531 15.3985" stroke="#A1C92F" stroke-miterlimit="10" stroke-linecap="round" stroke-linejoin="round"/>
<path d="M7.56741 14.9278C7.42136 14.8871 7.26136 14.7082 7.18961 14.6014C7.13121 14.5145 7.08681 14.4093 7.12171 14.3055C7.14191 14.2454 7.19191 14.1965 7.25476 14.1881C7.34631 14.176 7.40936 14.2497 7.45176 14.3224C7.53491 14.4649 7.60626 14.6641 7.62176 14.8413C7.69501 14.6658 7.75826 14.486 7.81331 14.3034C7.80916 14.3035 7.80491 14.3031 7.80061 14.3019C7.65456 14.2612 7.49456 14.0823 7.42281 13.9755C7.36441 13.8886 7.32001 13.7834 7.35491 13.6796C7.37511 13.6195 7.42511 13.5706 7.48796 13.5622C7.57951 13.5501 7.64256 13.6238 7.68496 13.6965C7.76201 13.8285 7.82926 14.0094 7.85111 14.1762C7.90876 13.9674 7.95356 13.7549 7.98701 13.5408C7.98481 13.5411 7.98261 13.5415 7.98031 13.5415C7.82871 13.5392 7.62866 13.4066 7.53221 13.3214C7.45371 13.2521 7.38411 13.1615 7.39161 13.0523C7.39596 12.9891 7.43191 12.929 7.49061 12.9051C7.57611 12.8702 7.65576 12.9255 7.71521 12.9851C7.82736 13.0975 7.94251 13.2635 8.00441 13.4251C8.03756 13.1799 8.05446 12.9329 8.05511 12.6862C7.90601 12.7112 7.68701 12.6215 7.57676 12.5573C7.48626 12.5046 7.40031 12.4293 7.38641 12.3207C7.37836 12.2578 7.40191 12.1919 7.45481 12.157C7.53186 12.1061 7.62081 12.1449 7.69071 12.1918C7.81956 12.2781 7.96151 12.414 8.05396 12.5568C8.04861 12.2989 8.02601 12.0419 7.98386 11.7888C7.98181 11.7764 7.99016 11.7647 8.00256 11.7627C8.01421 11.7605 8.02656 11.7689 8.02871 11.7814C8.05566 11.9432 8.07481 12.1066 8.08681 12.2709C8.15671 12.1081 8.28546 11.942 8.40801 11.8329C8.47086 11.7769 8.55361 11.7263 8.63691 11.7662C8.69411 11.7936 8.72646 11.8556 8.72706 11.919C8.72811 12.0285 8.65326 12.1148 8.57086 12.1794C8.46956 12.2587 8.26206 12.3793 8.11056 12.3727C8.10371 12.3724 8.09751 12.3704 8.09191 12.3676C8.10476 12.6008 8.10281 12.8353 8.08626 13.0692C8.20341 12.9381 8.37546 12.8224 8.52426 12.7576C8.60141 12.724 8.69581 12.7018 8.76256 12.7657C8.80836 12.8095 8.81976 12.8786 8.80056 12.939C8.76741 13.0434 8.66936 13.102 8.57091 13.1377C8.45111 13.181 8.22001 13.23 8.07776 13.179C8.05851 13.3923 8.02676 13.6045 7.98366 13.8144C8.10011 13.691 8.26346 13.5832 8.40521 13.5215C8.48236 13.488 8.57676 13.4657 8.64351 13.5296C8.68931 13.5734 8.70071 13.6425 8.68151 13.7029C8.64836 13.8072 8.55031 13.8659 8.45186 13.9015C8.33166 13.945 8.09926 13.9943 7.95716 13.9424C7.91321 14.1343 7.85821 14.3235 7.79476 14.5095C7.91061 14.3896 8.06951 14.2851 8.20811 14.2248C8.28526 14.1912 8.37971 14.169 8.44641 14.2328C8.49221 14.2767 8.50361 14.3457 8.48441 14.4061C8.45126 14.5105 8.35326 14.5691 8.25476 14.6048C8.13376 14.6486 7.89901 14.6984 7.75711 14.6449C7.75416 14.6438 7.75236 14.6415 7.74981 14.6399C7.68321 14.8205 7.60631 14.9968 7.52151 15.1688C7.63526 15.0573 7.78386 14.9609 7.91466 14.904C7.99181 14.8704 8.08626 14.8482 8.15296 14.912C8.19876 14.9559 8.21016 15.0249 8.19096 15.0853C8.15781 15.1897 8.05981 15.2483 7.96131 15.284C7.84031 15.3277 7.60556 15.3776 7.46371 15.3241C7.45756 15.3218 7.45276 15.3179 7.44846 15.3137C7.41286 15.3807 7.37611 15.4471 7.33771 15.5124C7.33351 15.5196 7.32591 15.5236 7.31811 15.5236C7.31416 15.5236 7.31021 15.5226 7.30661 15.5204C7.29581 15.5141 7.29216 15.5002 7.29856 15.4893C7.40451 15.309 7.49871 15.1214 7.58306 14.929C7.57796 14.9294 7.57271 14.9292 7.56741 14.9278Z" fill="#425213"/>
<path d="M2.83611 11.0879C3.02936 11.306 3.09791 11.6277 3.01046 11.9057C2.94951 12.0994 2.82156 12.2647 2.74226 12.4517C2.66296 12.6386 2.64246 12.8769 2.78001 13.0263C2.98256 13.2462 3.37411 13.1334 3.61351 13.3125C3.82221 13.4687 3.83016 13.7745 3.80551 14.034C3.78086 14.2935 3.75371 14.588 3.92736 14.7825C4.05746 14.9281 4.26736 14.9731 4.46271 14.9748C4.65801 14.9765 4.85421 14.9434 5.04791 14.9684C5.24161 14.9934 5.44291 15.0937 5.51356 15.2758C5.58991 15.4724 5.49321 15.6945 5.52206 15.9035C5.55391 16.1342 5.74436 16.3242 5.96646 16.3943C6.18856 16.4644 6.43421 16.4275 6.64731 16.3336C6.48306 16.3948 6.29586 16.2093 6.21296 16.0549C6.13006 15.9004 6.12936 15.716 6.14216 15.5411C6.15496 15.3663 6.17901 15.1882 6.13901 15.0176C6.07171 14.7304 5.80911 14.5002 5.51561 14.471C5.23406 14.4431 4.91136 14.5733 4.68821 14.3993C4.53881 14.2829 4.50236 14.0722 4.50741 13.8828C4.51246 13.6935 4.54726 13.4999 4.49656 13.3173C4.43736 13.104 4.25586 12.9294 4.04046 12.8785C3.82706 12.828 3.57476 12.8842 3.40721 12.7428C3.26581 12.6234 3.24966 12.4104 3.28186 12.2282C3.31406 12.046 3.38346 11.8672 3.37271 11.6825C3.35546 11.3879 3.12911 11.1235 2.83611 11.0879Z" fill="#C5F739"/>
<path d="M6.56269 16.3806C6.35194 16.4702 6.09664 16.3446 5.97504 16.1505C5.85344 15.9564 5.83789 15.7147 5.85084 15.486C5.85899 15.3421 5.87574 15.1906 5.81509 15.0598C5.73789 14.8933 5.55204 14.8027 5.37099 14.7725C5.18994 14.7423 5.00429 14.7593 4.82169 14.7408C4.63909 14.7223 4.44744 14.6591 4.33964 14.5105C4.21464 14.3382 4.23544 14.1042 4.25624 13.8924C4.27704 13.6805 4.28404 13.4419 4.14179 13.2835C4.00299 13.1289 3.76834 13.0953 3.56664 13.0456C3.36489 12.9959 3.14424 12.9162 3.05419 12.729C2.99179 12.5994 3.00789 12.4454 3.04769 12.3071C3.08749 12.1688 3.14944 12.0368 3.17694 11.8956C3.22594 11.6437 3.15624 11.3712 2.99219 11.1738" stroke="#799623" stroke-miterlimit="10" stroke-linecap="round" stroke-linejoin="round"/>
<path d="M5.0625 16.0706C5.0625 16.0706 5.6356 15.0781 9.0953 15.3762L9.6373 17.9867L5.4369 16.4982L5.0625 16.0706Z" fill="#002B70"/>
<path d="M17.5123 16.0706C17.5123 16.0706 16.9392 15.0781 13.4795 15.3762L12.9375 17.9867L17.1379 16.4982L17.5123 16.0706Z" fill="#002B70"/>
<path d="M12.0618 5.14648H10.5156V7.78873H12.0618V5.14648Z" fill="#F5937C"/>
<path d="M9.97367 4.90689C9.97742 4.79509 9.91747 4.68334 9.82227 4.62464C9.72707 4.56594 9.60032 4.56249 9.50207 4.61604C9.38552 4.67954 9.31882 4.81259 9.30697 4.94479C9.29512 5.07699 9.33092 5.20899 9.37792 5.33314C9.41882 5.44114 9.46952 5.54739 9.54612 5.63379C9.62272 5.72024 9.72817 5.78564 9.84327 5.79489C9.95837 5.80414 10.0813 5.74919 10.1349 5.64689C10.1969 5.52859 10.1542 5.38354 10.1386 5.25089C10.1231 5.11824 10.059 5.00969 9.97367 4.90689Z" fill="#F78B71"/>
<path d="M9.67971 5.16177C9.68026 5.20022 9.68966 5.23942 9.71206 5.27067C9.73446 5.30192 9.77096 5.32427 9.80941 5.32407C9.86231 5.32382 9.90846 5.28067 9.92426 5.23017C9.94001 5.17967 9.93021 5.12427 9.91031 5.07527C9.89686 5.04222 9.87791 5.00987 9.84826 4.99002C9.73591 4.91472 9.67851 5.07812 9.67971 5.16177Z" fill="#F86159"/>
<path d="M9.88518 5.08284C9.86198 5.00719 9.83778 4.92964 9.78888 4.86744C9.73998 4.80524 9.66013 4.76089 9.58263 4.77664C9.51363 4.79069 9.46003 4.85014 9.43763 4.91689C9.41518 4.98364 9.41963 5.05659 9.43293 5.12574C9.44768 5.20254 9.47318 5.27724 9.50823 5.34709" stroke="#F86159" stroke-miterlimit="10" stroke-linecap="round" stroke-linejoin="round"/>
<path d="M12.6001 4.90689C12.5963 4.79509 12.6563 4.68334 12.7515 4.62464C12.8467 4.56594 12.9734 4.56249 13.0717 4.61604C13.1882 4.67954 13.255 4.81259 13.2668 4.94479C13.2786 5.07699 13.2428 5.20899 13.1958 5.33314C13.1549 5.44114 13.1042 5.54739 13.0276 5.63379C12.951 5.72024 12.8456 5.78564 12.7305 5.79489C12.6154 5.80414 12.4925 5.74919 12.4388 5.64689C12.3768 5.52859 12.4196 5.38354 12.4351 5.25089C12.4507 5.11824 12.5148 5.00969 12.6001 4.90689Z" fill="#F78B71"/>
<path d="M12.8929 5.16177C12.8924 5.20022 12.883 5.23942 12.8606 5.27067C12.8382 5.30192 12.8017 5.32427 12.7632 5.32407C12.7103 5.32382 12.6642 5.28067 12.6484 5.23017C12.6327 5.17967 12.6425 5.12427 12.6624 5.07527C12.6758 5.04222 12.6948 5.00987 12.7244 4.99002C12.8368 4.91472 12.8941 5.07812 12.8929 5.16177Z" fill="#F86159"/>
<path d="M12.6875 5.08284C12.7107 5.00719 12.7349 4.92964 12.7838 4.86744C12.8327 4.80524 12.9126 4.76089 12.9901 4.77664C13.0591 4.79069 13.1126 4.85014 13.1351 4.91689C13.1575 4.98364 13.1531 5.05659 13.1398 5.12574C13.125 5.20254 13.0996 5.27724 13.0645 5.34709" stroke="#F86159" stroke-miterlimit="10" stroke-linecap="round" stroke-linejoin="round"/>
<path d="M21.2254 8.97036C21.4404 8.83671 21.6724 8.57246 21.5736 8.54146C21.4748 8.51046 21.2288 8.71016 21.2288 8.71016C21.2288 8.71016 21.5703 8.31896 21.4297 8.28416C21.2991 8.25181 21.0415 8.59046 21.0415 8.59046C21.0415 8.59046 21.1213 8.26436 21.0621 8.16951C21.0185 8.09956 20.8645 8.07266 20.7696 8.02226C20.6747 7.97191 20.6243 7.97381 20.5972 8.07846C20.5701 8.18306 20.8452 8.31866 20.8452 8.31866V8.40776C20.7967 8.60341 20.2466 8.68866 20.2466 8.68866C20.2969 8.41746 20.1226 8.25281 20.1226 8.25281C20.5817 8.37096 20.5449 8.01261 20.4771 7.97776C20.4093 7.94291 20.3337 8.02036 20.2504 8.02036C20.1671 8.02036 19.9521 7.91576 19.8281 8.11141C19.7041 8.30706 19.803 8.87286 19.803 8.87286L19.957 9.43931C19.957 9.43931 20.2345 9.58281 20.7881 9.41981C21.353 9.25346 21.6274 8.99841 21.5542 8.91701C21.481 8.83556 21.2254 8.97036 21.2254 8.97036Z" fill="#F5937C"/>
<path d="M19.8375 8.66802L17.1507 11.2007L14.5093 8.49857C14.2071 8.18947 13.4282 7.94387 13.101 8.28217C12.9063 8.48327 12.7877 8.47217 12.5949 8.85402C12.512 9.15012 12.5569 9.47127 12.7326 9.72382C13.0635 10.1997 13.6561 10.767 13.9217 11.0167C14.1103 11.1951 14.7975 11.7007 15.4375 12.1618C15.5705 12.2577 15.7012 12.3514 15.8249 12.4399C16.2054 12.7122 16.5203 12.9344 16.6288 13.0108C16.946 12.7697 17.4227 12.7537 17.7424 12.9626C17.8928 12.8536 18.1314 12.6515 18.4616 12.2842C18.9487 11.7434 19.6327 10.7174 20.5219 9.23777L19.8375 8.66802Z" fill="#F5937C"/>
<path d="M16.625 13.0101C16.6512 13.0286 16.6658 13.0388 16.6658 13.0388L16.8132 13.1556C17.0469 13.3407 17.3864 13.3015 17.5717 13.068C17.6017 13.0526 17.6576 13.0205 17.7385 12.9619C17.4188 12.753 16.9422 12.769 16.625 13.0101Z" fill="#F86159"/>
<path d="M1.35603 8.97036C1.14103 8.83671 0.909027 8.57246 1.00783 8.54146C1.10663 8.51046 1.35258 8.71016 1.35258 8.71016C1.35258 8.71016 1.01113 8.31896 1.15168 8.28416C1.28228 8.25181 1.53993 8.59046 1.53993 8.59046C1.53993 8.59046 1.46013 8.26436 1.51928 8.16951C1.56288 8.09956 1.71688 8.07266 1.81178 8.02226C1.90668 7.97191 1.95708 7.97381 1.98418 8.07846C2.01128 8.18306 1.73623 8.31866 1.73623 8.31866V8.40776C1.78468 8.60341 2.33483 8.68866 2.33483 8.68866C2.28448 8.41746 2.45883 8.25281 2.45883 8.25281C1.99973 8.37096 2.03653 8.01261 2.10433 7.97776C2.17213 7.94291 2.24768 8.02036 2.33098 8.02036C2.41428 8.02036 2.62928 7.91576 2.75328 8.11141C2.87728 8.30706 2.77843 8.87286 2.77843 8.87286L2.62438 9.43931C2.62438 9.43931 2.34693 9.58281 1.79333 9.41981C1.22838 9.25346 0.953978 8.99841 1.02718 8.91701C1.10043 8.83556 1.35603 8.97036 1.35603 8.97036Z" fill="#F5937C"/>
<path d="M2.73914 8.66802L5.42594 11.2007L8.06734 8.49857C8.36949 8.18947 9.14844 7.94387 9.47564 8.28217C9.67029 8.48327 9.78889 8.47217 9.98169 8.85402C10.0646 9.15012 10.0197 9.47127 9.84404 9.72382C9.51319 10.1997 8.92049 10.767 8.65494 11.0167C8.46634 11.1951 7.77909 11.7007 7.13914 12.1618C7.00614 12.2577 6.87544 12.3514 6.75174 12.4399C6.37124 12.7122 6.05629 12.9344 5.94779 13.0108C5.63059 12.7697 5.15394 12.7537 4.83424 12.9626C4.68379 12.8536 4.44524 12.6515 4.11499 12.2842C3.62794 11.7434 2.94394 10.7174 2.05469 9.23777L2.73914 8.66802Z" fill="#F5937C"/>
<path d="M5.94949 13.0101C5.92324 13.0286 5.90869 13.0388 5.90869 13.0388L5.76124 13.1556C5.52754 13.3407 5.18809 13.3015 5.00274 13.068C4.97274 13.0526 4.91689 13.0205 4.83594 12.9619C5.15564 12.753 5.63229 12.769 5.94949 13.0101Z" fill="#F86159"/>
<path d="M12.0707 3.04058C11.8433 2.98358 11.558 3.01793 11.2868 3.08353C11.0156 3.01793 10.7303 2.98363 10.5029 3.04058C9.87964 3.19753 9.89064 3.97158 9.89064 3.97158V4.96873C9.89064 5.71928 10.3761 6.38333 11.0147 6.53893C11.0841 6.56008 11.1566 6.57273 11.2317 6.57373H11.2825H11.2912H11.3419C11.417 6.57268 11.4895 6.56003 11.559 6.53893C12.1976 6.38328 12.683 5.71923 12.683 4.96873V3.97158C12.683 3.97158 12.694 3.19753 12.0707 3.04058Z" fill="#F5937C"/>
<path d="M12.0617 6.28906V6.55586C11.9119 6.67601 11.7418 6.76181 11.5609 6.80546C11.4922 6.82576 11.4189 6.83976 11.344 6.83976H11.2333C11.1584 6.83976 11.0866 6.82571 11.0164 6.80546C10.8339 6.76176 10.6654 6.67596 10.5156 6.55586V6.28906C10.6654 6.40921 10.8339 6.49501 11.0164 6.53866C11.0866 6.56051 11.1584 6.57296 11.2333 6.57296H11.344C11.4189 6.57296 11.4923 6.56046 11.5609 6.53866C11.7419 6.49501 11.9119 6.40921 12.0617 6.28906Z" fill="#F86159"/>
<path d="M14.1399 8.25203C13.8436 8.11508 13.5117 8.07318 13.1952 7.98863C12.7539 7.87068 12.3373 7.66673 11.9779 7.39258H11.9594H10.6124H10.594C10.2345 7.66678 9.81795 7.87073 9.3766 7.98863C9.06015 8.07318 8.72815 8.11508 8.43195 8.25203C7.9563 8.47198 7.6148 8.94233 7.5625 9.44958H8.4689H14.103H15.0094C14.9571 8.94233 14.6155 8.47193 14.1399 8.25203Z" fill="#F5937C"/>
<path d="M11.2815 9.20763L8.67969 9.14453L8.96324 14.9302H9.25249H13.3105H13.5997L13.8833 9.14453L11.2815 9.20763Z" fill="#F5937C"/>
<path d="M13.6076 14.9297H8.96851C8.96851 14.9297 8.84601 17.5752 8.96851 17.8181C9.00451 17.8895 9.32256 17.9797 9.77361 18.0537C10.1862 18.1663 10.7343 18.2015 11.2881 18.1901C11.8418 18.2015 12.3899 18.1663 12.8024 18.0537C13.2535 17.9797 13.5716 17.8895 13.6076 17.8181C13.7301 17.5752 13.6076 14.9297 13.6076 14.9297Z" fill="#002B70"/>
<path d="M8.94531 15.3635C8.94531 15.3635 10.8843 16.4107 13.6273 15.3635L13.6057 14.8141L8.97241 14.6582L8.94531 15.3635Z" fill="#002054"/>
<path d="M10.4043 4.42716C10.4338 4.39036 10.4703 4.35871 10.5107 4.33261C10.5509 4.30626 10.5954 4.28536 10.6421 4.27071C10.6888 4.25556 10.738 4.24731 10.7879 4.24476C10.8375 4.24151 10.8899 4.25036 10.9311 4.28621C10.9561 4.30796 10.9587 4.34591 10.937 4.37091C10.9296 4.37941 10.9203 4.38531 10.9103 4.38861L10.9045 4.39046C10.8606 4.40461 10.8251 4.40256 10.7869 4.39876C10.7489 4.39566 10.7102 4.39706 10.6712 4.40101C10.6322 4.40551 10.593 4.41321 10.5538 4.42426C10.5147 4.43561 10.4758 4.45021 10.4365 4.46786L10.436 4.46811C10.4226 4.47411 10.4068 4.46811 10.4008 4.45471C10.3965 4.44536 10.3982 4.43471 10.4043 4.42716Z" fill="#511725"/>
<path d="M12.1372 4.48458C12.0992 4.46413 12.0615 4.44678 12.0233 4.43268C11.985 4.41883 11.9464 4.40838 11.9079 4.40113C11.8692 4.39443 11.8307 4.39028 11.7926 4.39068C11.7542 4.39178 11.7187 4.39128 11.6759 4.37403L11.6704 4.37183C11.6397 4.35943 11.6248 4.32448 11.6372 4.29368C11.6414 4.28323 11.6484 4.27448 11.6568 4.26813C11.7004 4.23528 11.7533 4.23023 11.8025 4.23698C11.8521 4.24303 11.9006 4.25478 11.9461 4.27323C11.9917 4.29113 12.0345 4.31518 12.0728 4.34433C12.1112 4.37323 12.1453 4.40738 12.1722 4.44618C12.1806 4.45828 12.1775 4.47488 12.1654 4.48323C12.1569 4.48913 12.1462 4.48938 12.1377 4.48483L12.1372 4.48458Z" fill="#511725"/>
<path d="M10.6601 5.38862C10.6601 5.54282 10.535 5.66787 10.3808 5.66787C10.2266 5.66787 10.1016 5.54287 10.1016 5.38862C10.1016 5.23437 10.2266 5.10938 10.3808 5.10938C10.5351 5.10937 10.6601 5.23442 10.6601 5.38862Z" fill="#F86159"/>
<path d="M12.496 5.38862C12.496 5.54282 12.371 5.66787 12.2168 5.66787C12.0625 5.66787 11.9375 5.54287 11.9375 5.38862C11.9375 5.23437 12.0625 5.10938 12.2168 5.10938C12.371 5.10937 12.496 5.23442 12.496 5.38862Z" fill="#F86159"/>
<path d="M11 5.61523C11 5.61523 11.3606 5.67088 11.57 5.61813C11.57 5.61813 11.5427 5.90278 11.2836 5.90383C11.0548 5.90468 11 5.61523 11 5.61523Z" fill="white"/>
<path d="M11.2109 5.96639C11.2576 5.97629 11.3064 5.97574 11.3528 5.96484" stroke="#F86159" stroke-miterlimit="10" stroke-linecap="round" stroke-linejoin="round"/>
<path d="M13.8364 11.4487C13.3656 11.0196 13.0405 10.4335 12.9256 9.80693C12.8108 9.18038 12.8641 8.50453 13.1522 7.93638L13.1536 7.93338L12.6965 7.76562C12.6023 8.14498 12.4642 8.51973 12.217 8.82098C11.9511 9.14488 11.5704 9.37488 11.1538 9.32973C10.7933 9.29068 10.4435 9.05068 10.2391 8.75113C10.0441 8.46533 9.94103 8.12713 9.87468 7.78698L9.38733 7.94668C9.67533 8.51483 9.72867 9.19068 9.61387 9.81723C9.49902 10.4438 9.17393 11.0299 8.70312 11.459C8.70312 11.459 8.95003 13.5699 8.94128 15.1151C8.94128 15.1151 11.1725 16.1487 13.6233 15.1151C13.5684 14.3908 13.8364 11.4487 13.8364 11.4487Z" fill="#EA525F"/>
<path d="M10.9899 4.78516C10.9684 4.88856 10.8747 4.97266 10.7696 4.98276C10.6645 4.99286 10.5564 4.92821 10.5156 4.83081" stroke="#511725" stroke-miterlimit="10" stroke-linecap="round" stroke-linejoin="round"/>
<path d="M11.6172 4.78516C11.6386 4.88856 11.7324 4.97266 11.8375 4.98276C11.9426 4.99286 12.0506 4.92821 12.0914 4.83081" stroke="#511725" stroke-miterlimit="10" stroke-linecap="round" stroke-linejoin="round"/>
<path d="M11.2897 4.85352C11.2728 4.99402 11.3454 5.12947 11.4006 5.26277C11.4197 5.30887 11.4366 5.36117 11.4112 5.40512C11.3932 5.43637 11.3562 5.45737 11.3171 5.46802C11.278 5.47867 11.2364 5.48022 11.1953 5.48167" stroke="#F86159" stroke-miterlimit="10" stroke-linecap="round" stroke-linejoin="round"/>
<path d="M10.0037 3.44781C9.86372 3.42376 9.71352 3.46841 9.60937 3.56501C9.50522 3.66166 9.44947 3.80806 9.46292 3.94946C9.47627 4.08966 9.55167 4.21491 9.61632 4.34006C9.70912 4.51966 9.83342 4.83446 9.88662 5.02951C10.0154 4.90511 10.0984 4.73806 10.1461 4.56551C10.1939 4.39296 10.2059 4.21236 10.2033 4.03331C10.2018 3.92636 10.1949 3.81846 10.1659 3.71546C10.137 3.61251 10.0849 3.51741 10.0037 3.44781Z" fill="#511725"/>
<path d="M12.5672 3.44781C12.7072 3.42376 12.8574 3.46841 12.9615 3.56501C13.0657 3.66166 13.1214 3.80806 13.108 3.94946C13.0946 4.08966 13.0192 4.21491 12.9546 4.34006C12.8618 4.51966 12.7375 4.83446 12.6843 5.02951C12.5555 4.90511 12.4725 4.73806 12.4248 4.56551C12.377 4.39296 12.365 4.21236 12.3675 4.03331C12.3691 3.92636 12.3759 3.81846 12.4049 3.71546C12.4339 3.61251 12.4859 3.51741 12.5672 3.44781Z" fill="#511725"/>
<path d="M12.681 3.91366C12.5839 4.08691 12.3841 4.18591 12.186 4.19956C11.9878 4.21321 11.7913 4.15206 11.6117 4.06726C11.4321 3.98241 11.2647 3.87381 11.0877 3.78376C10.9395 3.70841 10.7754 3.64491 10.6108 3.66771C10.456 3.68911 10.3194 3.78596 10.2204 3.90686C10.1215 4.02776 10.0557 4.17191 9.99542 4.31606C9.84552 4.01231 9.72172 3.68506 9.83022 3.36416C9.92907 3.07181 10.1891 2.85421 10.4778 2.74491C10.7664 2.63556 11.0823 2.62186 11.3906 2.63496C11.6384 2.64546 11.8886 2.67321 12.1206 2.76081C12.3526 2.84841 12.5668 3.00111 12.69 3.21631C12.8132 3.43146 12.8022 3.69736 12.681 3.91366Z" fill="#511725"/>
<path d="M12.7354 3.97853C12.7401 3.82053 12.8058 3.67183 12.8603 3.52343C12.9148 3.37503 12.9593 3.21368 12.9206 3.06043C12.8738 2.87553 12.7052 2.73458 12.5184 2.69588C12.3316 2.65718 12.1395 2.69583 11.9814 2.80243C12.0973 2.74373 12.1407 2.58618 12.0932 2.46528C12.0457 2.34438 11.9257 2.26233 11.7991 2.23343C11.6724 2.20453 11.5396 2.22208 11.4135 2.25333C11.1523 2.31803 10.9089 2.43598 10.7588 2.65928C10.7961 2.53333 10.7141 2.38478 10.5876 2.34933C10.4873 2.32123 10.3803 2.35838 10.2888 2.40798C10.0387 2.54353 9.84482 2.77928 9.76017 3.05078C9.67547 3.32233 9.70097 3.62648 9.82967 3.88013C9.98607 3.71153 10.2189 3.65588 10.4468 3.62508C11.0248 3.54703 11.6239 3.51463 12.1816 3.68548C12.3908 3.74948 12.5937 3.81168 12.7354 3.97853Z" fill="#511725"/>
<path d="M9.82571 3.52925C9.79656 3.5098 9.76406 3.49545 9.73016 3.48625C9.68541 3.437 9.65471 3.3751 9.64441 3.30935C9.63331 3.23865 9.64511 3.16455 9.67766 3.1008C9.68396 3.0885 9.67906 3.07345 9.66676 3.0672C9.65436 3.0609 9.63941 3.0658 9.63316 3.0781C9.59586 3.15115 9.58236 3.23605 9.59506 3.31715C9.60391 3.37365 9.62616 3.4276 9.65806 3.4751C9.62641 3.4736 9.59461 3.47625 9.56396 3.48395C9.47566 3.5061 9.39736 3.5672 9.35451 3.64745C9.34801 3.65965 9.35261 3.6748 9.36476 3.6813C9.36851 3.6833 9.37256 3.68425 9.37651 3.68425C9.38546 3.68425 9.39411 3.67945 9.39856 3.67105C9.43491 3.60305 9.50126 3.55125 9.57606 3.53245C9.61741 3.5221 9.66116 3.5222 9.70296 3.5313C9.70351 3.53185 9.70391 3.5325 9.70441 3.53305C9.73816 3.567 9.77116 3.5853 9.80531 3.58915C9.80626 3.58925 9.80716 3.5893 9.80811 3.5893C9.82066 3.5893 9.83151 3.57985 9.83291 3.56705C9.83301 3.56595 9.83266 3.565 9.83261 3.56395C9.84026 3.55235 9.83716 3.5369 9.82571 3.52925Z" fill="#511725"/>
<path d="M13.5713 15.6133C12.9956 15.9461 12.5763 16.5378 12.4531 17.1912" stroke="#002054" stroke-miterlimit="10" stroke-linecap="round" stroke-linejoin="round"/>
<path d="M8.96875 15.6133C9.54445 15.9461 9.96375 16.5378 10.0869 17.1912" stroke="#002054" stroke-miterlimit="10" stroke-linecap="round" stroke-linejoin="round"/>
<path d="M5.42188 11.2188C5.42503 11.4826 5.42813 11.7465 5.43123 12.0104" stroke="#F86159" stroke-miterlimit="10" stroke-linecap="round" stroke-linejoin="round"/>
<path d="M17.1422 11.2188C17.139 11.4826 17.1359 11.7465 17.1328 12.0104" stroke="#F86159" stroke-miterlimit="10" stroke-linecap="round" stroke-linejoin="round"/>
<path d="M10.5469 7.87891C10.5995 8.00471 10.6736 8.12151 10.765 8.22276" stroke="#F86159" stroke-miterlimit="10" stroke-linecap="round" stroke-linejoin="round"/>
<path d="M12.054 7.87891C12.0014 8.00471 11.9273 8.12151 11.8359 8.22276" stroke="#F86159" stroke-miterlimit="10" stroke-linecap="round" stroke-linejoin="round"/>
<path d="M8.77368 10.9154C8.93388 10.7308 9.06323 10.5196 9.15478 10.293" stroke="#F86159" stroke-miterlimit="10" stroke-linecap="round" stroke-linejoin="round"/>
<path d="M13.803 10.9154C13.6428 10.7308 13.5134 10.5196 13.4219 10.293" stroke="#F86159" stroke-miterlimit="10" stroke-linecap="round" stroke-linejoin="round"/>
<path d="M5.15616 15.9668C5.07476 16.0451 5.00541 16.1397 4.95026 16.2528C4.75766 16.6477 4.83551 17.1148 5.10926 17.4518C5.43291 16.9919 5.47891 16.3904 5.15616 15.9668Z" fill="#002054"/>
<path d="M5.15627 15.9659C5.47902 16.3894 5.43307 16.991 5.10938 17.4509C5.13727 17.4853 5.16653 17.5187 5.19843 17.5501C5.92408 18.2645 7.31832 19.4116 11.2635 20.4381L12.1512 18.6231C9.97532 17.1065 6.31267 14.8533 5.15627 15.9659Z" fill="#00368C"/>
<path d="M12.9568 19.1966C12.7242 19.0265 12.4526 18.8317 12.1533 18.623L11.2656 20.4381C11.561 20.5149 11.8701 20.5911 12.1949 20.6664C12.5138 20.7403 12.847 20.8133 13.1957 20.8853L13.8237 19.8491C13.8237 19.8491 13.4923 19.588 12.9568 19.1966Z" fill="#F5937C"/>
<path d="M14.8356 21.2275C14.7282 21.1189 14.599 21.0227 14.5403 20.8818C14.4725 20.7188 14.514 20.5333 14.5001 20.3574C14.478 20.0778 14.3023 19.8152 14.0522 19.688C13.5384 19.4268 12.9176 19.7605 12.8359 20.3221V20.3752C12.9074 20.643 13.0263 20.9162 13.1877 21.1415C13.4108 21.4528 13.7871 21.6372 14.0889 21.8729C14.3081 22.0441 14.44 22.3049 14.5243 22.5699C14.564 22.6949 14.6064 22.8375 14.7239 22.8957C14.8277 22.947 14.9593 22.9088 15.0431 22.8289C15.1269 22.749 15.1706 22.6359 15.1976 22.5233C15.3067 22.0678 15.1649 21.5604 14.8356 21.2275Z" fill="#F5937C"/>
<path d="M14.2341 19.8119C13.3066 20.2504 12.3756 20.4794 11.8476 20.5849C11.6476 20.5364 11.4536 20.4879 11.2656 20.4389L12.0931 18.7464L12.2531 18.6934C12.5131 18.8759 12.7501 19.0464 12.9566 19.1974C13.1836 19.3634 13.3731 19.5054 13.5171 19.6144C13.6926 19.5789 13.8811 19.5989 14.0566 19.6879C14.1216 19.7208 14.1811 19.7628 14.2341 19.8119Z" fill="#F86159"/>
<path d="M10.4219 18.6224L11.3096 20.4375C11.4929 20.3898 11.6707 20.3418 11.8432 20.2936L10.867 18.3164C10.713 18.4208 10.5642 18.5232 10.4219 18.6224Z" fill="#002B70"/>
<path d="M17.4507 16.0002C16.4061 14.8854 13.09 16.8099 10.8672 18.3169L11.8434 20.2941C15.3657 19.3106 16.67 18.2417 17.3645 17.56C17.0916 17.0571 17.1452 16.438 17.4507 16.0002Z" fill="#00368C"/>
<path d="M17.6228 16.2515C17.5755 16.1544 17.5175 16.0713 17.4506 16C17.1451 16.4378 17.0916 17.0569 17.3644 17.5598C17.3678 17.5565 17.3713 17.5531 17.3747 17.5497C17.7198 17.21 17.8351 16.6867 17.6228 16.2515Z" fill="#002054"/>
<path d="M9.61695 19.1966C9.8496 19.0265 10.1211 18.8317 10.4204 18.623L11.3081 20.4381C11.0128 20.5149 10.7036 20.5911 10.3789 20.6664C10.06 20.7403 9.7268 20.8133 9.37805 20.8853L8.75 19.8491C8.75 19.8491 9.0814 19.588 9.61695 19.1966Z" fill="#F5937C"/>
<path d="M7.73418 21.2275C7.84158 21.1189 7.97078 21.0227 8.02948 20.8818C8.09728 20.7188 8.05583 20.5333 8.06973 20.3574C8.09183 20.0778 8.26758 19.8152 8.51758 19.688C9.03138 19.4268 9.65223 19.7605 9.73388 20.3221V20.3752C9.66243 20.643 9.54353 20.9162 9.38208 21.1415C9.15903 21.4528 8.78268 21.6372 8.48088 21.8729C8.26168 22.0441 8.12983 22.3049 8.04553 22.5699C8.00578 22.6949 7.96338 22.8375 7.84583 22.8957C7.74208 22.947 7.61048 22.9088 7.52668 22.8289C7.44288 22.749 7.39913 22.6359 7.37218 22.5233C7.26313 22.0678 7.40488 21.5604 7.73418 21.2275Z" fill="#F5937C"/>
<path d="M10.4226 18.623L11.3103 20.4381L10.985 20.521L10.0312 18.899L10.4226 18.623Z" fill="#F86159"/>
<path d="M11.9437 12.9601C11.8022 13.0061 11.6485 13.0251 11.489 13.0111C10.9338 12.9623 10.4897 12.5055 10.4554 11.9492C10.4145 11.2875 10.9391 10.7383 11.5918 10.7383C11.7137 10.7383 11.8311 10.7575 11.9414 10.793C11.9839 10.8067 11.9917 10.8642 11.9529 10.8862C11.6082 11.0817 11.3757 11.4522 11.3757 11.8769C11.3757 12.3014 11.6082 12.6718 11.9529 12.8675C11.9907 12.8891 11.9851 12.9466 11.9437 12.9601Z" fill="#C94752"/>
<path d="M9.51413 0.13815L9.45697 0L9.39983 0.13815L9.29688 0.1856L9.39818 0.2331L9.45697 0.36045L9.51578 0.2331L9.61708 0.1856L9.51413 0.13815Z" fill="#FBAC00"/>
<path d="M13.935 6.49739L13.8432 6.27539L13.7514 6.49739L13.5859 6.57369L13.7487 6.64999L13.8432 6.85464L13.9377 6.64999L14.1005 6.57369L13.935 6.49739Z" fill="#FBAC00"/>
<path d="M12.7788 1.52078L12.6869 1.29883L12.5951 1.52078L12.4297 1.59708L12.5924 1.67338L12.6869 1.87803L12.7814 1.67338L12.9442 1.59708L12.7788 1.52078Z" fill="#FBAC00"/>
<path d="M4.92723 4.81765L4.83538 4.5957L4.74352 4.81765L4.57812 4.89395L4.74088 4.9703L4.83538 5.1749L4.92988 4.9703L5.09263 4.89395L4.92723 4.81765Z" fill="#FBAC00"/>
<path d="M9.16251 6.94088L9.10536 6.80273L9.04826 6.94088L8.94531 6.98838L9.04656 7.03583L9.10536 7.16318L9.16421 7.03583L9.26546 6.98838L9.16251 6.94088Z" fill="#FBAC00"/>
<path d="M6.66256 2.00138L6.60541 1.86328L6.54826 2.00138L6.44531 2.04888L6.54661 2.09638L6.60541 2.22373L6.66421 2.09638L6.76551 2.04888L6.66256 2.00138Z" fill="#FBAC00"/>
<path d="M16.686 7.12052L16.6288 6.98242L16.5717 7.12052L16.4688 7.16802L16.5701 7.21552L16.6288 7.34287L16.6876 7.21552L16.7889 7.16802L16.686 7.12052Z" fill="#FBAC00"/>
<path d="M16.0844 1.72604L16.0273 1.58789L15.9701 1.72604L15.8672 1.77349L15.9685 1.82099L16.0273 1.94834L16.0861 1.82099L16.1874 1.77349L16.0844 1.72604Z" fill="#FBAC00"/>
<path d="M20.5532 6.11271L20.496 5.97461L20.4389 6.11271L20.3359 6.16021L20.4372 6.20771L20.496 6.33501L20.5548 6.20771L20.6561 6.16021L20.5532 6.11271Z" fill="#FBAC00"/>
<path d="M15.259 4.33715L15.2238 4.25195L15.1885 4.33715L15.125 4.36645L15.1875 4.39575L15.2238 4.4743L15.26 4.39575L15.3225 4.36645L15.259 4.33715Z" fill="#FBAC00"/>
<path d="M18.134 4.56958L18.0988 4.48438L18.0635 4.56958L18 4.59883L18.0625 4.62812L18.0988 4.70667L18.135 4.62812L18.1975 4.59883L18.134 4.56958Z" fill="#FBAC00"/>
<path d="M7.78244 4.76679L7.74719 4.68164L7.71194 4.76679L7.64844 4.79609L7.71089 4.82539L7.74719 4.90394L7.78344 4.82539L7.84594 4.79609L7.78244 4.76679Z" fill="#FBAC00"/>
<path d="M2.05588 6.26293L2.02062 6.17773L1.98537 6.26293L1.92188 6.29223L1.98432 6.32153L2.02062 6.40008L2.05687 6.32153L2.11937 6.29223L2.05588 6.26293Z" fill="#FBAC00"/>
<path d="M6.43083 7.24731L6.39557 7.16211L6.36033 7.24731L6.29688 7.27661L6.35933 7.30591L6.39557 7.38446L6.43188 7.30591L6.49433 7.27661L6.43083 7.24731Z" fill="#FBAC00"/>
</svg>
