<svg width="24" height="20" viewBox="0 0 24 20" fill="none" xmlns="http://www.w3.org/2000/svg">
<path d="M21.1978 13.7071C20.6698 13.4686 20.5894 12.8947 20.3713 12.5963C20.1532 12.2978 19.6252 12.1142 19.6252 12.1142C19.6252 12.1142 20.1303 11.7239 20.9338 11.8157C21.3115 11.8589 21.5953 12.0289 21.8271 12.2136C21.7079 11.8679 21.8289 11.6686 21.6225 11.3398C21.3814 10.9557 20.9108 10.7482 20.6468 10.1104C20.3828 9.47253 20.6468 8.90018 20.6468 8.90018C20.6468 8.90018 20.7271 9.12973 21.0485 9.35933C21.3358 9.56453 22.1456 9.59602 22.6259 10.2151C22.3777 6.72138 19.9487 4.81208 18.2681 3.81613C16.8245 2.96068 15.8924 1.17528 11.9922 1.43348C8.09203 1.69223 7.22373 4.19433 6.25738 6.08843C5.72243 7.13698 4.51293 7.36898 3.49283 8.09043C4.24788 7.89288 4.72668 8.25723 5.29548 8.37218C5.97718 8.50993 6.08428 8.02928 6.69648 8.03238C7.30868 8.03548 7.53823 8.24973 7.53823 8.24973C7.53823 8.24973 6.92603 8.15788 6.72708 8.67828C6.52813 9.19863 6.28323 9.39408 5.67103 9.31168C5.05883 9.22928 4.88163 9.27373 4.55698 9.56528C4.23238 9.85678 3.48243 9.64253 3.05388 9.74963C2.79998 9.81308 2.45483 10.2633 2.21563 10.6198C2.40888 10.4634 2.67348 10.2906 3.02993 10.1315C4.02473 9.68768 5.29543 10.4996 5.29543 10.4996C5.29543 10.4996 4.29358 10.7291 3.71198 11.1271C3.13038 11.525 2.71718 11.1424 2.31923 11.2801C2.11993 11.3491 1.95903 11.419 1.84803 11.4716C1.84793 11.4732 1.84778 11.4747 1.84768 11.4762C1.76788 12.7136 2.23553 13.8123 3.02988 14.754C4.97488 17.0595 8.87883 18.4254 11.5068 18.5888C14.2553 18.7592 19.079 17.7382 21.3695 14.6956C21.5723 14.4264 21.7548 14.1412 21.9146 13.8398C21.6857 13.8385 21.4221 13.8084 21.1978 13.7071Z" fill="#A8B2F4"/>
<path d="M10.3877 7.85339C11.1218 7.54321 11.4656 6.69659 11.1554 5.96241C10.8452 5.22824 9.99857 4.88453 9.2644 5.19471C8.53022 5.50489 8.18651 6.35151 8.49669 7.08568C8.80688 7.81986 9.65349 8.16357 10.3877 7.85339Z" fill="#7C84D5"/>
<path d="M19.769 5.60493C20.0584 5.60493 20.2929 5.37037 20.2929 5.08103C20.2929 4.79169 20.0584 4.55713 19.769 4.55713C19.4797 4.55713 19.2451 4.79169 19.2451 5.08103C19.2451 5.37037 19.4797 5.60493 19.769 5.60493Z" fill="#7C84D5"/>
<path d="M21.3694 14.6956C19.0789 17.7382 14.2552 18.7592 11.5067 18.5889C8.87873 18.4255 4.97479 17.0595 3.02979 14.754C3.77064 13.9328 5.66473 12.2696 9.15998 11.802C13.8589 11.1731 17.1339 14.904 20.6849 14.7069C20.9237 14.6935 21.1519 14.6903 21.3694 14.6956Z" fill="#7C84D5"/>
<path d="M6.13793 4.99744C6.57413 3.68889 5.54103 4.29339 5.15078 5.12749C4.76053 5.96164 4.02588 6.05329 4.02588 6.52399C4.02588 6.99469 5.70173 6.30599 6.13793 4.99744Z" stroke="#7C84D5" stroke-miterlimit="10"/>
<path d="M18.0984 3.35538C18.0984 3.35538 16.8816 2.32278 16.3881 1.98988C15.8945 1.65698 16.1126 1.20933 17.2432 1.72588C18.3739 2.24243 18.856 3.23983 18.7067 3.44708C18.5575 3.65428 18.0984 3.35538 18.0984 3.35538Z" stroke="#7C84D5" stroke-miterlimit="10"/>
<path d="M6.80719 6.44559C6.80719 6.48889 6.77209 6.52399 6.72879 6.52399C6.68549 6.52399 6.65039 6.48889 6.65039 6.44559C6.65039 6.40229 6.68549 6.36719 6.72879 6.36719C6.77209 6.36719 6.80719 6.40229 6.80719 6.44559Z" fill="#5661AF"/>
<path d="M7.46539 6.59354C7.46539 6.63684 7.43029 6.67194 7.38699 6.67194C7.34369 6.67194 7.30859 6.63684 7.30859 6.59354C7.30859 6.55024 7.34369 6.51514 7.38699 6.51514C7.43029 6.51514 7.46539 6.55024 7.46539 6.59354Z" fill="#5661AF"/>
<path d="M9.66461 4.25174C9.66461 4.29504 9.62951 4.33014 9.58621 4.33014C9.54291 4.33014 9.50781 4.29504 9.50781 4.25174C9.50781 4.20844 9.54291 4.17334 9.58621 4.17334C9.62951 4.17334 9.66461 4.20844 9.66461 4.25174Z" fill="#5661AF"/>
<path d="M19.9258 11.2034C19.9258 11.2467 19.8907 11.2818 19.8474 11.2818C19.8041 11.2818 19.769 11.2467 19.769 11.2034C19.769 11.1601 19.8041 11.125 19.8474 11.125C19.8907 11.125 19.9258 11.1601 19.9258 11.2034Z" fill="#5661AF"/>
<path d="M20.1929 10.991C20.1929 11.0343 20.1578 11.0694 20.1145 11.0694C20.0712 11.0694 20.0361 11.0343 20.0361 10.991C20.0361 10.9477 20.0712 10.9126 20.1145 10.9126C20.1578 10.9126 20.1929 10.9477 20.1929 10.991Z" fill="#5661AF"/>
<path d="M7.1824 6.31744C7.25213 6.31744 7.30865 6.26092 7.30865 6.19119C7.30865 6.12147 7.25213 6.06494 7.1824 6.06494C7.11268 6.06494 7.05615 6.12147 7.05615 6.19119C7.05615 6.26092 7.11268 6.31744 7.1824 6.31744Z" fill="#5661AF"/>
<path d="M20.5012 7.17291C20.571 7.17291 20.6275 7.11639 20.6275 7.04666C20.6275 6.97693 20.571 6.92041 20.5012 6.92041C20.4315 6.92041 20.375 6.97693 20.375 7.04666C20.375 7.11639 20.4315 7.17291 20.5012 7.17291Z" fill="#5661AF"/>
<path d="M7.0562 10.8433C7.0562 10.9336 6.98295 11.0069 6.8926 11.0069C6.80225 11.0069 6.729 10.9336 6.729 10.8433C6.729 10.7529 6.80225 10.6797 6.8926 10.6797C6.98295 10.6797 7.0562 10.7529 7.0562 10.8433Z" stroke="white" stroke-miterlimit="10"/>
<path d="M16.3028 3.86673C16.3028 3.95708 16.2295 4.03033 16.1392 4.03033C16.0488 4.03033 15.9756 3.95708 15.9756 3.86673C15.9756 3.77638 16.0488 3.70312 16.1392 3.70312C16.2295 3.70312 16.3028 3.77638 16.3028 3.86673Z" stroke="white" stroke-miterlimit="10"/>
<path d="M8.30333 3.82853C8.57133 3.7229 8.70294 3.42001 8.59731 3.15202C8.49167 2.88403 8.18878 2.75241 7.92079 2.85805C7.6528 2.96368 7.52118 3.26657 7.62682 3.53456C7.73245 3.80255 8.03534 3.93417 8.30333 3.82853Z" stroke="white" stroke-miterlimit="10"/>
<path d="M22.6485 8.82991C23.1951 8.60696 23.4574 7.98317 23.2345 7.43662C23.0115 6.89008 22.3877 6.62776 21.8412 6.85071C21.2946 7.07366 21.0323 7.69745 21.2552 8.244C21.4782 8.79054 22.102 9.05286 22.6485 8.82991Z" stroke="white" stroke-miterlimit="10"/>
<path d="M2.20454 14.1088C2.79482 14.1088 3.27334 13.6303 3.27334 13.04C3.27334 12.4497 2.79482 11.9712 2.20454 11.9712C1.61426 11.9712 1.13574 12.4497 1.13574 13.04C1.13574 13.6303 1.61426 14.1088 2.20454 14.1088Z" stroke="white" stroke-miterlimit="10"/>
<path d="M10.3073 2.16406C10.3073 2.16406 10.0821 2.28091 10.0715 2.77396C10.0608 3.26701 10.5332 3.49546 10.831 3.49016L10.8049 3.41326C10.8049 3.41326 10.2976 3.35731 10.166 2.92691C10.0343 2.49651 10.3212 2.20426 10.3212 2.20426L10.3073 2.16406Z" fill="#3D2624"/>
<path d="M18.509 10.7676C18.509 10.7676 18.406 11.5469 17.039 11.8444C15.6721 12.142 14.2622 11.3627 14.2622 11.3627L14.4923 11.3399C14.4923 11.3399 15.2895 11.8019 16.2459 11.7453C17.2024 11.6886 17.744 11.1077 17.744 11.1077L18.509 10.7676Z" fill="#3D2624"/>
<path d="M18.8459 6.99854C18.9309 6.03504 17.599 5.04319 16.0121 4.78779C14.4251 4.53239 14.5397 2.83984 14.5397 2.83984L11.3692 4.66414C11.3692 4.66414 11.2228 6.17674 10.1661 7.02689C9.10932 7.87704 8.92742 9.88909 9.42332 10.6826C9.91922 11.4761 10.7977 11.5327 12.1651 11.4477C13.5324 11.3627 14.1662 11.4337 15.6862 11.5611C17.2061 11.6885 18.2899 12.0339 19.2129 10.3496C20.1359 8.66534 18.8459 6.99854 18.8459 6.99854ZM18.7184 6.92059C18.7184 6.92059 18.5554 6.44594 17.932 5.95709C17.3085 5.46824 16.8126 5.19904 16.8126 5.19904C18.7538 5.80834 18.775 6.92064 18.775 6.92064H18.7184V6.92059Z" fill="#3D2624"/>
<path d="M10.2765 6.14014C10.2765 6.14014 9.82725 6.54534 9.50845 7.39549C9.18965 8.24564 8.5166 10.8811 8.5166 10.8811L9.6046 11.5595L10.6562 8.68489L10.2765 6.14014Z" fill="#C56E5D"/>
<path d="M14.6116 10.2271C14.4461 10.7167 14.4868 11.2524 14.7257 11.711L14.7841 11.9633V11.9638L14.9443 12.6532C13.8483 13.6046 12.3259 13.9254 11.3896 13.7186C10.4527 13.5119 10.2143 12.7454 10.2143 12.7454L10.359 11.7324L10.111 9.47885C10.111 9.47885 9.91709 9.18265 9.83459 8.5007C9.75154 7.81825 10.2765 6.14 10.2765 6.14L11.982 5.4581L13.2258 5.35205L15.3005 6.14L15.5688 6.81225C15.5592 7.184 15.2855 8.14015 14.9994 9.04385C14.8639 9.47295 14.7257 9.89025 14.6116 10.2271Z" fill="#F7DBC6"/>
<path d="M13.2377 5.46268C13.0428 5.81768 12.3471 6.26333 12.0661 6.16588C11.7852 6.06843 12.0129 5.56723 12.0129 5.56723C12.0155 5.49608 12.0181 5.43048 12.02 5.37008C12.033 4.96928 12.0304 4.80003 12.0304 4.80003L13.2377 4.00098C13.2095 4.14683 13.1955 4.31343 13.1906 4.48103C13.176 4.96863 13.2377 5.46268 13.2377 5.46268Z" fill="#C56E5D"/>
<path d="M13.2377 4.00146C13.2095 4.14731 13.1955 4.31391 13.1906 4.48151C13.0523 4.68906 12.8216 5.00021 12.5819 5.17076C12.3344 5.34711 12.1317 5.37377 12.02 5.37052C12.033 4.96972 12.0304 4.80047 12.0304 4.80047L13.2377 4.00146Z" fill="#AF5448"/>
<path d="M10.7183 3.57674C10.7183 3.57674 10.76 4.56509 11.4561 5.01054C12.1521 5.45599 13.1265 4.52334 13.2936 4.00829C13.4606 3.49324 13.4049 2.37959 13.4049 2.37959C13.4049 2.37959 12.4862 1.76709 11.7902 1.76709C11.0942 1.76709 10.7183 2.11509 10.7183 2.11509C10.7183 2.11509 10.7183 3.06169 10.7183 3.57674Z" fill="#C56E5D"/>
<path d="M11.5113 1.78678C11.5113 1.78678 11.4906 2.15013 12.1588 2.57468C12.827 2.99923 13.1893 3.08623 13.1893 3.08623L13.3308 3.86678C13.3308 3.86678 13.2336 4.11173 13.2064 4.20078C13.1767 4.29798 13.1883 4.60703 13.1883 4.60703C13.1883 4.60703 13.7527 4.52338 13.9475 4.00143C13.9475 4.00143 14.5252 3.56998 14.5461 2.79043C14.567 2.01088 14.1633 1.76728 14.1633 1.76728C14.1633 1.76728 14.0594 0.834626 13.029 0.674526C11.9987 0.514426 11.1774 1.09213 11.1774 1.09213C11.1774 1.09213 10.6762 1.02253 10.4048 1.37748C10.1333 1.73243 10.3073 2.16398 10.3073 2.16398C10.3073 2.16398 10.0707 2.39368 10.2099 2.76953C10.3491 3.14538 10.718 3.19408 10.718 3.19408C10.718 3.19408 10.7528 2.55373 10.9407 2.23358C11.1287 1.91348 11.5113 1.78678 11.5113 1.78678Z" fill="#3D2624"/>
<path d="M13.2378 3.20065C13.2378 3.20065 13.37 2.8735 13.6415 2.8387C13.9129 2.8039 13.9338 3.28415 13.7459 3.60435C13.5579 3.9245 13.2935 3.8619 13.2935 3.8619L13.2378 3.20065Z" fill="#C56E5D"/>
<path d="M13.1055 2.8374C13.1055 2.8374 13.2864 3.3821 13.182 3.8136C13.182 3.8136 13.2114 3.78465 13.2497 3.72875C13.3371 3.6015 13.3734 3.1176 13.4126 2.9517L13.1055 2.8374Z" fill="#3D2624"/>
<path d="M11.1634 1.1407C11.1634 1.1407 11.3907 0.811248 11.8223 0.676698C12.2538 0.542148 12.6157 0.676698 12.6157 0.676698L12.6853 0.672049C12.6853 0.672049 12.2816 0.478198 11.8269 0.616898C11.3721 0.755598 11.0566 1.1129 11.0566 1.1129L11.1634 1.1407Z" fill="#3D2624"/>
<path d="M14.1636 1.76709C14.1636 1.76709 14.4041 1.81349 14.5472 2.07334C14.6902 2.33319 14.5426 2.59699 14.5426 2.59699L14.5186 2.56519C14.5186 2.56519 14.6337 2.34129 14.4907 2.09654C14.3478 1.85179 14.1636 1.86454 14.1636 1.86454V1.76709Z" fill="#3D2624"/>
<path d="M10.8052 3.0284C10.8052 3.0284 10.834 2.9625 11.0399 2.96665C11.2458 2.97075 11.3694 3.08605 11.3694 3.08605C11.3694 3.08605 11.2747 2.909 11.0873 2.88425C10.8999 2.85955 10.8093 2.9996 10.8052 3.0284Z" fill="#3D2624"/>
<path d="M11.5112 1.78662C11.5112 1.78662 11.4789 2.14302 11.6877 2.43072C11.8965 2.71842 12.5136 2.71842 12.5136 2.71842L12.5384 2.77377C12.5384 2.77377 11.929 2.77872 11.683 2.56062C11.4371 2.34252 11.4093 1.97777 11.4557 1.78662H11.5112Z" fill="#3D2624"/>
<path d="M11.9258 3.0512C11.9258 3.0512 11.9591 2.9751 12.1969 2.97985C12.4347 2.9846 12.5773 3.11775 12.5773 3.11775C12.5773 3.11775 12.4679 2.91325 12.2516 2.8847C12.0352 2.8562 11.9305 3.0179 11.9258 3.0512Z" fill="#3D2624"/>
<path d="M11.3691 3.98756C11.3691 3.98756 11.4004 4.01886 11.5188 4.05366C11.6371 4.08846 11.7206 4.05366 11.7206 4.05366C11.7206 4.05366 11.6849 3.98756 11.5931 3.97361C11.5014 3.95971 11.3691 3.98756 11.3691 3.98756Z" fill="#913D37"/>
<path d="M11.3691 3.08594C11.3691 3.08594 11.4349 3.15554 11.4592 3.33649C11.4836 3.51744 11.4592 3.66014 11.4592 3.66014C11.4592 3.66014 11.3765 3.18689 11.3691 3.08594Z" fill="#AF5448"/>
<path d="M10.8311 3.28813C10.8311 3.28813 10.932 3.33163 11.059 3.34553C11.186 3.35943 11.3427 3.31943 11.3427 3.31943C11.3427 3.31943 11.2844 3.16278 11.1495 3.12628C10.9372 3.06888 10.8311 3.28813 10.8311 3.28813Z" fill="#AF5448"/>
<path d="M11.9258 3.3134C11.9258 3.3134 11.9467 3.1528 12.1521 3.11765C12.3574 3.08245 12.601 3.29825 12.601 3.29825C12.601 3.29825 12.1972 3.49085 11.9258 3.3134Z" fill="#AF5448"/>
<path d="M11.0928 3.34379C10.9559 3.34149 10.8312 3.28809 10.8312 3.28809L10.8051 3.30549C10.7881 3.31684 10.75 3.32174 10.75 3.32174C10.7868 3.33779 10.8249 3.33684 10.8482 3.33399C10.8956 3.36109 10.9796 3.39804 11.087 3.39949C11.2576 3.40179 11.3428 3.34264 11.3428 3.34264V3.31944C11.3428 3.31944 11.2297 3.34609 11.0928 3.34379Z" fill="#3D2624"/>
<path d="M12.6007 3.29834C12.6007 3.29834 12.4354 3.34859 12.2643 3.35329C12.0932 3.35794 11.935 3.30764 11.935 3.30764L11.9031 3.32749C11.8824 3.34039 11.835 3.34759 11.835 3.34759C11.8817 3.36274 11.9293 3.35979 11.9583 3.35549C12.0187 3.38184 12.1252 3.41674 12.2595 3.41274C12.4727 3.40639 12.5384 3.35574 12.5847 3.32534C12.5913 3.32099 12.6007 3.29834 12.6007 3.29834Z" fill="#3D2624"/>
<path d="M11.3692 4.303C11.3692 4.303 11.4044 4.31925 11.545 4.3471C11.6855 4.37495 12.0198 4.303 12.0198 4.303C12.0198 4.303 11.7731 4.26125 11.6945 4.2659C11.6159 4.27055 11.5626 4.3095 11.5626 4.3095C11.5626 4.3095 11.4907 4.25195 11.4466 4.25195C11.4025 4.25195 11.3213 4.27745 11.3213 4.27745L11.3692 4.303Z" fill="#913D37"/>
<path d="M11.4199 4.45166C11.4199 4.45166 11.5156 4.51661 11.6548 4.52126C11.794 4.52591 11.9448 4.46791 11.9448 4.46791C11.9448 4.46791 11.861 4.58821 11.6824 4.60676C11.5037 4.62531 11.4199 4.45166 11.4199 4.45166Z" fill="#AF5448"/>
<path d="M9.71094 13.3589L10.3101 12.0764C10.3101 12.0764 10.7084 12.4963 11.9257 12.5388C13.1429 12.5813 14.7841 11.9639 14.7841 11.9639C14.7841 11.9639 15.2045 13.0489 15.2045 13.4527C15.2045 13.8566 12.8028 15.4506 12.8028 15.4506L11.3788 15.3444L9.71094 13.3589Z" fill="#743F3D"/>
<path d="M9.64234 15.4507C9.64234 15.4507 9.24889 15.6038 9.11409 15.6666C9.11409 15.6666 8.52629 15.7268 8.29034 15.7964C8.05439 15.8659 7.99479 16.1823 7.93694 16.5239C7.87904 16.8655 7.43894 17.3238 7.30239 17.5616C7.16584 17.7994 7.23104 18.082 7.24989 18.1405C7.26874 18.199 7.19089 18.3985 7.28884 18.522C7.38674 18.6455 7.44379 18.5819 7.49854 18.5514C7.55329 18.5208 7.56994 18.4121 7.56994 18.4121C7.56994 18.4121 7.72189 18.3825 7.77874 18.3384C7.83559 18.2942 7.77724 18.2936 7.91769 18.2484C8.05814 18.2031 8.13044 18.1669 8.20879 18.1094C8.28714 18.0518 8.73039 17.2824 9.01289 17.0364C9.29534 16.7904 9.80389 16.7041 9.80389 16.7041L9.64234 15.4507Z" fill="#C56E5D"/>
<path d="M17.3439 16.8322C16.3843 17.0742 14.3004 17.2443 12.4327 17.3549C10.5085 17.469 8.81393 17.5196 8.81393 17.5196L8.52878 16.6145L8.27588 15.8121L13.8689 14.7032C13.8689 14.7032 13.7167 13.5452 14.9352 12.9214C14.9352 12.9214 18.5624 12.9501 19.4412 13.9703C20.3194 14.9904 19.3702 16.3224 17.3439 16.8322Z" fill="#743F3D"/>
<path d="M11.8838 16.5137C11.8838 16.5137 12.2772 16.6668 12.412 16.7296C12.412 16.7296 12.9998 16.7898 13.2357 16.8594C13.4717 16.9289 13.5313 17.2453 13.5891 17.5869C13.647 17.9285 14.0871 18.3868 14.2237 18.6246C14.3602 18.8624 14.295 19.145 14.2762 19.2035C14.2573 19.262 14.3352 19.4615 14.2372 19.585C14.1393 19.7085 14.0823 19.6449 14.0275 19.6144C13.9728 19.5838 13.9561 19.4751 13.9561 19.4751C13.9561 19.4751 13.8042 19.4455 13.7473 19.4014C13.6905 19.3572 13.7488 19.3566 13.6084 19.3114C13.4679 19.2661 13.3956 19.2299 13.3173 19.1724C13.2389 19.1148 12.7957 18.3454 12.5132 18.0994C12.2307 17.8534 11.7222 17.7671 11.7222 17.7671L11.8838 16.5137Z" fill="#C56E5D"/>
<path d="M10.0184 13.1338C10.0184 13.1338 5.23621 13.1338 4.47106 13.9839C3.70591 14.8341 4.13101 15.918 4.74736 16.2794C5.36371 16.6407 11.825 18.086 11.825 18.086L12.165 16.1093L11.2118 15.8118L11.7222 15.1284L10.0184 13.1338Z" fill="#743F3D"/>
<path d="M10.0044 13.3184C10.0044 13.3184 11.0023 14.5539 11.5448 14.9209C11.5448 14.9209 10.4295 14.8061 10.0044 13.3184Z" fill="#5E3030"/>
<path d="M6.15039 14.388C6.15039 14.388 6.97929 14.4942 8.27579 14.7705C9.57229 15.0468 11.212 15.812 11.212 15.812C11.212 15.812 9.52989 14.6643 8.21209 14.388C6.89429 14.1116 6.15039 14.388 6.15039 14.388Z" fill="#5E3030"/>
<path d="M10.7744 15.5333C10.7744 15.5333 14.6305 14.3824 16.2458 14.1196C16.2458 14.1196 12.8303 15.1462 11.2118 15.8122L10.7744 15.5333Z" fill="#5E3030"/>
<path d="M14.4922 13.2168C14.4922 13.2168 12.6228 14.1395 11.9937 15.075C11.9937 15.075 13.9642 14.0646 14.4922 13.2168Z" fill="#5E3030"/>
<path d="M9.60456 11.5592C9.60456 11.5592 9.28706 10.7868 8.54251 10.7798L5.58611 12.7855C5.52911 12.756 5.42916 12.7149 5.27481 12.6862C5.00851 12.6366 4.48216 12.6428 4.34591 12.6181C4.28021 12.6061 4.27651 12.6389 4.30461 12.6823C4.26121 12.6643 4.19206 12.7127 4.13871 12.7915C4.05481 12.9153 3.84426 13.1461 3.84426 13.2753C3.84426 13.4045 4.07341 13.5346 4.20961 13.5408C4.20961 13.5408 3.74516 13.6584 3.65846 13.8256C3.57176 13.9928 3.80091 13.9681 3.87521 13.9309C3.94951 13.8937 4.42636 13.7637 4.42636 13.7637C4.42636 13.7637 3.95571 14.0238 3.94331 14.2034C3.93091 14.383 4.09191 14.2777 4.24056 14.2034C4.38921 14.1291 4.65546 13.9928 4.65546 13.9928C4.65546 13.9928 4.27151 14.2715 4.33961 14.3953C4.40771 14.5192 4.72356 14.2364 4.97746 14.1208C5.23136 14.0052 5.42326 13.9882 5.63751 13.9049C5.93731 13.7885 6.09551 13.5376 6.09551 13.5376C6.62396 13.341 8.88771 12.4608 9.60456 11.5592ZM4.62461 13.2435C4.41406 13.3178 4.17251 13.2435 4.14156 13.2063C4.11061 13.1692 4.34591 12.9524 4.34591 12.7852C4.34591 12.7591 4.34261 12.7388 4.33721 12.7227C4.37181 12.7589 4.42041 12.7953 4.46926 12.8162C4.59981 12.8719 4.88466 12.9025 4.95901 12.946C5.03331 12.9896 4.83516 13.1692 4.62461 13.2435Z" fill="#C56E5D"/>
<path d="M19.3417 9.01758C19.3417 9.01758 19.6109 9.83968 19.4267 10.4524C19.2425 11.065 18.5376 11.2032 18.5376 11.2032L18.6509 11.0615C18.6509 11.0615 19.3452 10.9446 19.3842 9.99173C19.4189 9.14518 19.3417 9.01758 19.3417 9.01758Z" fill="#3D2624"/>
<path d="M4.99854 12.9365C4.99854 12.9365 5.23229 13.0694 5.49264 13.0694C5.75299 13.0694 5.43954 13.1863 5.24559 13.1278C5.05164 13.0694 4.99854 12.9365 4.99854 12.9365Z" fill="#AF5448"/>
<path d="M5.81902 13.3988C5.81902 13.3988 5.65962 13.4041 5.43647 13.521C5.21332 13.6379 5.09642 13.9355 5.03797 13.8877C4.97952 13.8399 5.13892 13.3829 5.81902 13.3988Z" fill="#AF5448"/>
<path d="M4.2793 13.5327C4.2793 13.5327 4.76775 13.9277 4.8262 13.933C4.88465 13.9383 4.62465 13.554 4.2793 13.5327Z" fill="#AF5448"/>
<path d="M10.2871 9.29471C10.2871 9.29471 10.5282 9.16846 11.2628 9.16846C11.9975 9.16846 13.2202 9.45541 13.2202 9.45541C13.2202 9.45541 10.9643 9.46691 10.2871 9.29471Z" fill="#EFC9B6"/>
<path d="M14.7261 11.7245L14.7845 11.9768V11.9773L13.7432 12.2987C13.7432 12.2987 14.2729 11.0185 14.2628 10.0387C14.2526 9.05899 14.5724 7.83984 14.5724 7.83984L14.9998 9.05739C14.8643 9.48644 14.7261 9.90374 14.612 10.2407C14.4465 10.7303 14.4872 11.2659 14.7261 11.7245Z" fill="#EFC9B6"/>
<path d="M20.1061 14.7661C20.052 14.5857 19.6176 14.3837 19.6176 14.3837C19.7526 14.4029 20.0019 14.3178 20.0259 14.1908C20.05 14.0639 19.886 13.7979 19.8266 13.6606C19.7889 13.5733 19.7299 13.5129 19.6839 13.5225C19.7196 13.4852 19.7221 13.4522 19.6553 13.4517C19.5169 13.4507 19.0008 13.3467 18.73 13.3458C18.6208 13.3455 18.5366 13.356 18.4745 13.3686L16.494 10.5836C16.3845 9.90299 16.2334 8.18009 16.0547 7.41679C15.8209 6.41784 15.3003 6.14014 15.3003 6.14014C15.3003 6.14014 14.6547 6.52409 14.5471 7.26799C14.4394 8.01189 15.3875 11.3401 15.3875 11.3401C15.7242 12.287 17.4973 13.8001 17.7441 14.0828C17.7441 14.0828 17.8739 14.3056 18.1468 14.4758C18.3418 14.5975 18.5272 14.6499 18.7552 14.8107C18.9831 14.9715 19.2408 15.3082 19.3308 15.1991C19.4208 15.0901 19.0954 14.7449 19.0954 14.7449C19.0954 14.7449 19.3317 14.9283 19.4639 15.0289C19.5961 15.1296 19.7347 15.263 19.756 15.0842C19.7772 14.9055 19.3632 14.5624 19.3632 14.5624C19.3632 14.5624 19.8075 14.7789 19.8736 14.8292C19.9397 14.8796 20.1602 14.9465 20.1061 14.7661ZM19.2652 14.0144C19.0722 13.9022 18.9109 13.6889 18.992 13.66C19.0731 13.631 19.3587 13.654 19.4973 13.6235C19.5492 13.6121 19.6037 13.5853 19.6445 13.5562C19.6362 13.571 19.6292 13.5903 19.6243 13.616C19.5932 13.7803 19.7841 14.037 19.7467 14.0678C19.7094 14.0985 19.4583 14.1266 19.2652 14.0144Z" fill="#C56E5D"/>
<path d="M18.9291 13.6865C18.9291 13.6865 18.6953 13.8194 18.435 13.8194C18.1746 13.8194 18.4881 13.9363 18.682 13.8778C18.876 13.8194 18.9291 13.6865 18.9291 13.6865Z" fill="#AF5448"/>
<path d="M17.9399 14.0361C17.9399 14.0361 18.0993 14.0414 18.3225 14.1583C18.5457 14.2752 18.6626 14.5727 18.721 14.5249C18.7794 14.4771 18.62 14.0201 17.9399 14.0361Z" fill="#AF5448"/>
<path d="M19.4199 14.3066C19.4199 14.3066 18.9314 14.7016 18.873 14.7069C18.8145 14.7122 19.0745 14.3279 19.4199 14.3066Z" fill="#AF5448"/>
<path d="M11.808 5.7666C11.808 5.7666 11.5759 6.20855 11.9445 6.32905C12.3131 6.4496 12.9444 6.0306 13.2658 5.7207C13.2658 5.7207 12.8411 6.4037 12.1524 6.5127C11.4637 6.62175 11.6234 5.91695 11.808 5.7666Z" fill="#EFC9B6"/>
</svg>
