<svg width="25" height="23" viewBox="0 0 25 23" fill="none" xmlns="http://www.w3.org/2000/svg">
<path d="M21.1245 5.80495C23.0641 5.14604 25 6.62996 25 8.67838V18.563C25 20.7721 23.2091 22.563 21 22.563H3.12594C1.39953 22.563 0 21.1634 0 19.437C0 18.539 0.383364 17.681 1.07083 17.1033C2.57621 15.8382 4.14266 14.6452 5.7615 13.529C10.495 10.265 15.68 7.65545 21.1245 5.80495Z" fill="#FCB1C5"/>
<path d="M21.8764 13.8098C21.8679 13.8593 21.8584 13.9083 21.8484 13.9573C21.7769 14.3118 21.6734 14.6588 21.5434 14.9858C21.4329 15.2643 21.3059 15.5343 21.1654 15.7963C21.1299 15.8628 21.0939 15.9288 21.0559 15.9938C21.0244 16.0488 20.9929 16.1033 20.9594 16.1568C20.6005 16.7505 20.1658 17.2948 19.673 17.7827C19.6726 17.7831 19.6727 17.7838 19.6722 17.7842C19.6718 17.7846 19.6711 17.7845 19.6707 17.7849C19.2964 18.1567 18.8875 18.4954 18.4523 18.7973C18.4407 18.8053 18.43 18.8147 18.4179 18.8218C18.3314 18.8818 18.2434 18.9403 18.1544 18.9973C18.025 19.0797 17.8941 19.1592 17.7602 19.2356C17.76 19.2357 17.7598 19.2359 17.7596 19.236C17.7595 19.2362 17.7593 19.2364 17.7591 19.2365C17.5897 19.3324 17.4178 19.4248 17.2424 19.5113C17.1404 19.5618 17.0379 19.6098 16.9344 19.6568C16.6584 19.7803 16.3774 19.8923 16.0919 19.9878C15.9189 20.0473 15.7444 20.1008 15.5684 20.1483C15.4274 20.1878 15.2849 20.2233 15.1434 20.2538C15.1019 20.2638 15.0604 20.2728 15.0199 20.2808C14.3089 20.4288 13.5839 20.4968 12.8579 20.4908C12.1334 20.4853 11.4079 20.4063 10.6944 20.2613C10.2889 20.1788 9.88738 20.0748 9.49188 19.9513C9.38138 19.9168 9.27088 19.8808 9.16088 19.8428C8.99288 19.7858 8.82738 19.7243 8.66088 19.6593C7.85638 19.3448 7.08638 18.9458 6.36938 18.4758C6.29688 18.4298 6.22688 18.3818 6.15587 18.3333C5.89338 18.1533 5.65188 17.9653 5.43488 17.7678C5.06647 17.4354 4.76403 17.0795 4.53256 16.7036C4.53244 16.7034 4.53229 16.7032 4.53213 16.703C4.53196 16.7029 4.53181 16.7027 4.53169 16.7025C4.45326 16.5736 4.38233 16.4432 4.32038 16.3103C4.27238 16.2083 4.22938 16.1053 4.19288 16.0008C4.17338 15.9498 4.15638 15.8988 4.14088 15.8473C4.10438 15.7303 4.07438 15.6123 4.05088 15.4933C4.04388 15.4583 4.03738 15.4228 4.03138 15.3868C4.00788 15.2453 3.99288 15.1013 3.98738 14.9553C3.98538 14.9028 3.98438 14.8503 3.98438 14.7973C3.98487 14.6895 3.98986 14.5796 4.00033 14.4693C4.00036 14.469 4.00037 14.4686 4.00037 14.4683C4.00387 14.4308 4.00838 14.3938 4.01338 14.3558C4.01688 14.3248 4.02087 14.2938 4.02537 14.2628C4.04037 14.1618 4.05988 14.0598 4.08338 13.9573C4.11988 13.7948 4.16688 13.6308 4.22438 13.4653C4.34138 13.1293 4.50238 12.7858 4.70838 12.4368C5.47188 11.1443 5.53038 10.1173 4.91637 8.75329C4.38887 7.57729 4.17088 6.58529 4.49738 5.66279C4.65238 5.22729 4.92938 4.80629 5.35288 4.38879C5.45088 4.29229 5.55688 4.19579 5.67088 4.09929C5.87788 3.92379 6.09438 3.75729 6.31788 3.59979C6.39188 3.54779 6.46687 3.49629 6.54237 3.44629C8.50287 2.14379 10.9699 1.49529 13.2559 1.30179C14.4839 1.19779 15.7649 1.27129 16.8719 1.82179C17.9799 2.37029 18.8794 3.47129 18.9299 4.72229C18.9824 6.00779 18.1819 7.37379 18.7789 8.50779C18.8339 8.61329 18.8984 8.70979 18.9694 8.79979C19.4799 9.44279 20.3624 9.74579 20.9794 10.3208C21.3229 10.6413 21.5654 11.0323 21.7234 11.4618C21.9894 12.1803 22.0169 13.0098 21.8764 13.8098Z" fill="#FFD2DF"/>
<path d="M19.7889 8.43925C20.0272 8.6732 20.3966 8.8328 20.6944 8.68165C20.9967 8.5282 21.0827 8.1311 21.0471 7.79395C20.9874 7.2281 20.6748 6.6937 20.2108 6.36435C20.1091 6.2922 19.9964 6.228 19.8724 6.2149C19.4448 6.1697 19.3216 6.8981 19.3131 7.2107C19.3009 7.6608 19.465 8.1214 19.7889 8.43925Z" fill="#FFD2DF"/>
<path d="M20.7742 13.957C21.3296 13.957 21.7486 14.4694 21.5434 14.9855C21.4329 15.264 21.3059 15.534 21.1654 15.796C21.1299 15.8625 21.0939 15.9285 21.0559 15.9935C21.0244 16.0485 20.9929 16.103 20.9594 16.1565C20.6005 16.7503 20.1658 17.2946 19.673 17.7824C19.6726 17.7828 19.6727 17.7835 19.6722 17.7839C19.6718 17.7843 19.6711 17.7843 19.6707 17.7847C19.2964 18.1565 18.8875 18.4952 18.4523 18.797C18.4407 18.805 18.43 18.8144 18.4179 18.8215C18.3314 18.8815 18.2434 18.94 18.1544 18.997C18.025 19.0795 17.8941 19.1589 17.7602 19.2354C17.76 19.2355 17.7598 19.2356 17.7596 19.2358C17.7595 19.2359 17.7593 19.2361 17.7591 19.2362C17.5897 19.3321 17.4178 19.4246 17.2424 19.511C17.1404 19.5615 17.0379 19.6095 16.9344 19.6565C16.6584 19.78 16.3774 19.892 16.0919 19.9875C15.9189 20.047 15.7444 20.1005 15.5684 20.148C15.4274 20.1875 15.2849 20.223 15.1434 20.2535C15.1019 20.2635 15.0604 20.2725 15.0199 20.2805C14.3089 20.4285 13.5839 20.4965 12.8579 20.4905C12.1334 20.485 11.4079 20.406 10.6944 20.261C10.2889 20.1785 9.88738 20.0745 9.49188 19.951C9.38138 19.9165 9.27088 19.8805 9.16088 19.8425C8.99288 19.7855 8.82738 19.724 8.66088 19.659C7.85638 19.3445 7.08638 18.9455 6.36938 18.4755C6.29688 18.4295 6.22688 18.3815 6.15587 18.333C5.89338 18.153 5.65188 17.965 5.43488 17.7675C5.06647 17.4351 4.76403 17.0792 4.53256 16.7033C4.53244 16.7031 4.53229 16.7029 4.53213 16.7028C4.53196 16.7026 4.53181 16.7024 4.53169 16.7022C4.45326 16.5733 4.38233 16.4429 4.32038 16.31C4.27238 16.208 4.22938 16.105 4.19288 16.0005C4.17338 15.9495 4.15638 15.8985 4.14088 15.847C4.10438 15.73 4.07438 15.612 4.05088 15.493C4.04388 15.458 4.03738 15.4225 4.03138 15.3865C4.00788 15.245 3.99288 15.101 3.98738 14.955C3.98538 14.9025 3.98438 14.85 3.98438 14.797C3.98487 14.6892 3.98986 14.5794 4.00033 14.469C4.00036 14.4687 4.00037 14.4684 4.00037 14.468C4.00387 14.4305 4.00838 14.3935 4.01338 14.3555C4.01688 14.3245 4.02087 14.2935 4.02537 14.2625C4.05211 14.0825 4.2124 13.957 4.39441 13.957H20.7742Z" fill="#FFBDCC"/>
<path opacity="0.24" d="M17.9197 18.9277C17.9242 19.0077 17.8964 19.0868 17.8407 19.1445C17.8122 19.175 17.7827 19.205 17.7536 19.2349C17.7533 19.2353 17.7529 19.2355 17.7525 19.2358C17.5831 19.332 17.4112 19.4243 17.2359 19.5108C17.1341 19.5609 17.0313 19.6091 16.9281 19.6558C16.6522 19.7797 16.371 19.8913 16.0853 19.9872C15.9127 20.0467 15.7382 20.1003 15.5622 20.1475C15.4211 20.1869 15.2785 20.2228 15.1369 20.2532C15.0956 20.2631 15.0543 20.2719 15.0135 20.2803C14.4241 20.403 13.8253 20.4706 13.2241 20.4867C13.1711 20.4882 13.1613 20.4118 13.2125 20.3978C14.392 20.0733 15.5243 19.5393 16.4624 18.7546C16.9851 18.3175 17.4448 17.8047 17.8224 17.2373C17.8228 17.2364 17.8245 17.2369 17.8246 17.2379L17.8253 17.2491L17.8509 17.701L17.9197 18.9277Z" fill="#D94562"/>
<path d="M10.4377 14.4209C10.487 14.5974 10.7479 14.5561 10.7404 14.3731C10.7326 14.1823 10.4534 14.173 10.4329 14.3628C10.4308 14.3823 10.4324 14.402 10.4377 14.4209Z" fill="#AA2B48"/>
<path opacity="0.24" d="M17.706 15.5105C17.6914 15.5179 17.6736 15.5108 17.668 15.4954L16.7969 13.1055L17.4586 15.7665C17.5025 15.9428 17.7634 15.9045 17.7547 15.723L17.7457 15.5336C17.7447 15.5138 17.7237 15.5016 17.706 15.5105Z" fill="#D94562"/>
<path d="M10.8905 5.80273H7.91506C7.02568 5.80273 6.30469 6.52372 6.30469 7.41311C6.30469 8.30249 7.02568 9.02348 7.91506 9.02348H10.8905C11.7799 9.02348 12.5009 8.30249 12.5009 7.41311C12.5009 6.52372 11.7799 5.80273 10.8905 5.80273Z" fill="#FFBDCC"/>
<path opacity="0.49" d="M10.5747 6.14648H7.96925C7.26999 6.14648 6.70312 6.71335 6.70312 7.41261C6.70312 8.11187 7.26999 8.67873 7.96925 8.67873H10.5747C11.274 8.67873 11.8408 8.11187 11.8408 7.41261C11.8408 6.71335 11.274 6.14648 10.5747 6.14648Z" fill="#E8EBF6"/>
<path d="M18.1517 15.2359C18.1625 15.2618 18.1858 15.2804 18.2134 15.2851L19.521 15.5074C20.2029 15.6233 21.1731 15.4726 21.1207 14.783C21.1055 14.5837 20.6963 14.0835 20.2345 13.5776C19.4438 12.7116 17.6597 12.0969 17.4176 13.2443C17.3869 13.3899 17.4527 13.5584 17.5099 13.6958L18.1517 15.2359Z" fill="#FF7D6F"/>
<path d="M10.0032 14.993C10.559 15.2146 10.8379 15.837 10.6122 16.3911C10.5762 16.4796 10.5383 16.5714 10.4988 16.6657C10.0398 17.7608 9.36745 19.1762 8.9263 19.2548C8.54149 19.3237 7.01937 18.2714 6.25515 17.7205C5.98533 17.526 5.86772 17.1857 5.95222 16.864C6.06986 16.4162 6.53502 16.1549 6.97866 16.2873L7.23412 16.3636C7.73832 16.5141 8.27564 16.2652 8.48685 15.7833L8.57679 15.578C8.81673 15.0303 9.44777 14.7715 10.0032 14.993Z" fill="#FFA07F"/>
<path d="M3.59223 16.2223C3.62506 16.2707 3.6659 16.3107 3.71208 16.3455C3.71211 16.3455 3.71225 16.3456 3.71228 16.3456C3.71283 16.3459 3.71433 16.3469 3.71482 16.3472C3.82208 16.4304 3.95888 16.4821 4.08953 16.5287C4.23648 16.5811 4.38333 16.6407 4.52943 16.7016C4.65233 16.7522 4.77413 16.8031 4.89603 16.8505C5.03627 16.9078 5.17215 16.9759 5.29567 17.0636L5.49887 17.2079C5.50677 17.2135 5.51482 17.2188 5.52313 17.2238C5.54239 17.2353 5.58366 17.26 5.64417 17.2958C5.74048 17.3529 5.86409 17.3292 5.93303 17.2411L6.09614 17.0324C6.09639 17.0321 6.09629 17.0316 6.09593 17.0314C6.09556 17.0312 6.09546 17.0307 6.09572 17.0304L6.43533 16.596C6.53735 16.4652 6.50772 16.2754 6.37067 16.1819L6.26893 16.1125C6.06863 15.9763 5.95226 15.7497 5.9348 15.5081C5.90568 15.105 5.82815 14.7016 5.67243 14.3342C5.63922 14.2548 5.59965 14.1773 5.56254 14.1001C5.56212 14.0992 5.56221 14.0986 5.56203 14.0976C5.56192 14.097 5.56107 14.0963 5.56079 14.0957C5.50431 13.9834 5.45143 13.8711 5.41488 13.7513C5.34773 13.5268 5.35023 13.2887 5.32363 13.0549C5.31928 13.0187 5.31353 12.9817 5.30668 12.9451C5.29673 12.8836 5.27863 12.8188 5.23108 12.7797C5.22706 12.7754 5.22137 12.7732 5.21639 12.7701C5.15468 12.7321 5.06832 12.7461 5.00863 12.7898C4.99893 12.7964 4.99098 12.8047 4.98273 12.812C4.93413 12.8591 4.90253 12.9231 4.87528 12.9857C4.87193 12.9938 4.86928 13.0041 4.86673 13.0108C4.73168 13.3506 4.71393 13.7346 4.81373 14.0851C4.82683 14.1304 4.84228 14.1795 4.82773 14.2229C4.81428 14.2624 4.77873 14.2912 4.74398 14.3151C4.60238 14.4103 4.43353 14.4564 4.26138 14.4695C4.17691 14.4762 4.08987 14.4744 4.00356 14.4677C4.00268 14.4677 4.00198 14.468 4.00111 14.4678C4.00028 14.4677 3.99935 14.4672 3.99851 14.4672C3.89268 14.4583 3.78071 14.4447 3.68778 14.4915C3.61303 14.5303 3.56683 14.6001 3.53713 14.6811C3.53493 14.6854 3.53378 14.6892 3.53193 14.6945C3.50958 14.758 3.49853 14.8273 3.49073 14.892C3.48623 14.9263 3.48283 14.9603 3.48118 14.9961C3.45543 15.2651 3.45413 15.537 3.47798 15.8068C3.48968 15.9526 3.50988 16.1025 3.59223 16.2223Z" fill="#FF7D6F"/>
<path d="M5.23139 12.7794C5.27969 12.8183 5.29699 12.8833 5.30794 12.9452C5.31419 12.9816 5.31969 13.0189 5.32434 13.0554C5.35084 13.2885 5.34874 13.5263 5.41569 13.7507C5.45186 13.8712 5.50549 13.9837 5.56229 14.0963C5.56239 14.0965 5.56265 14.0969 5.56273 14.0971C5.56304 14.0979 5.5627 14.0988 5.56308 14.0996C5.60078 14.1769 5.63998 14.2542 5.67374 14.3339C5.84398 14.7369 5.92077 15.1828 5.94269 15.6243C5.95108 15.7932 6.03313 15.9513 6.17288 16.0466L6.37183 16.1822C6.50882 16.2756 6.53844 16.4653 6.43644 16.596L6.09709 17.0321C5.9607 17.2065 5.69158 17.1892 5.57871 16.9987L5.43449 16.7553C5.37504 16.6549 5.35197 16.5375 5.36951 16.4222C5.4507 15.8885 5.57676 15.0399 5.49509 14.4801C5.47869 14.3683 5.45434 14.2692 5.41959 14.1851C5.37854 14.0883 5.33359 13.9907 5.29099 13.8923C5.20814 13.7011 5.13799 13.5068 5.14319 13.3007C5.14319 13.2896 5.14404 13.2793 5.14404 13.2682C5.14504 13.1549 5.13424 13.0185 5.04714 12.9819C5.03604 12.9771 5.02494 12.9739 5.01229 12.9723C4.97077 12.9676 4.93192 12.9865 4.89172 13.0021C4.88164 13.006 4.8719 12.9964 4.87594 12.9863C4.90304 12.923 4.93489 12.8596 4.98409 12.8122C4.99204 12.8043 4.99994 12.7964 5.00949 12.79C5.06917 12.7458 5.1561 12.7319 5.2176 12.7709C5.22216 12.7738 5.22752 12.7756 5.23139 12.7794Z" fill="#FFA07F"/>
<path d="M4.59679 15.532C4.59668 15.5379 4.5966 15.5438 4.59656 15.5497C4.59565 15.6765 4.44659 15.7404 4.42999 15.6146C4.39379 15.3398 4.47844 15.0407 4.68864 14.8601C4.74957 14.8077 4.80834 14.8523 4.77028 14.923C4.7337 14.991 4.687 15.0607 4.66769 15.118C4.62289 15.2512 4.59949 15.3915 4.59679 15.532Z" fill="#FC5B68"/>
<path d="M10.3619 15.137C10.7163 15.2784 10.9944 15.4074 10.8578 15.7638C10.721 16.1205 10.2129 16.5571 9.85609 16.4205L8.56452 15.9259C8.51625 15.9075 8.48438 15.8611 8.48438 15.8094C8.48438 15.7922 8.48794 15.7752 8.49486 15.7594L8.57698 15.5719C8.81544 15.0276 9.44257 14.7704 9.99457 14.9905L10.3619 15.137Z" fill="#FF7D6F"/>
<path d="M4.25851 10.3231C4.26361 10.3226 4.26803 10.3264 4.2683 10.3315C4.26853 10.3357 4.26585 10.3395 4.26185 10.3406C4.20091 10.3576 4.13862 10.367 4.07711 10.3796L3.82681 10.4277C3.66447 10.4577 3.50184 10.4875 3.33866 10.5146C3.33119 10.5159 3.32412 10.5109 3.32276 10.5035C3.3214 10.496 3.32625 10.4889 3.33366 10.4874C3.49584 10.4549 3.65852 10.4253 3.82096 10.3958L4.07201 10.352C4.134 10.3417 4.19545 10.3288 4.25851 10.3231Z" fill="#EF513C"/>
<path d="M4.26346 10.4543C4.26928 10.4536 4.27447 10.4579 4.27473 10.4638C4.27495 10.4686 4.27171 10.473 4.26701 10.4741C4.20254 10.4905 4.13699 10.501 4.07189 10.514L3.78684 10.5685C3.60135 10.6028 3.41562 10.637 3.22928 10.6684C3.22182 10.6696 3.21475 10.6647 3.21339 10.6572C3.21203 10.6498 3.21688 10.6426 3.22429 10.6412C3.40962 10.6044 3.59544 10.5703 3.78099 10.5366L4.06684 10.4864C4.1321 10.4755 4.19727 10.4621 4.26346 10.4543Z" fill="#EF513C"/>
<path d="M4.26849 10.5855C4.27487 10.5846 4.28056 10.5894 4.28088 10.5958C4.28115 10.6011 4.27761 10.606 4.27243 10.6072C4.21378 10.621 4.15437 10.6309 4.09537 10.6428L3.81032 10.6972C3.62483 10.7315 3.43906 10.7655 3.25272 10.7969C3.24526 10.7981 3.23818 10.7932 3.23682 10.7857C3.23547 10.7783 3.24032 10.7711 3.24773 10.7697C3.43306 10.7329 3.61893 10.6991 3.80448 10.6654L4.09032 10.6152C4.14971 10.6051 4.20874 10.5933 4.26849 10.5855Z" fill="#EF513C"/>
<path d="M4.27499 10.7147C4.28185 10.7137 4.2881 10.7188 4.28865 10.7257C4.28912 10.7315 4.28521 10.7368 4.2795 10.7381C4.22614 10.7498 4.17234 10.759 4.11876 10.7696L3.83371 10.824C3.64822 10.8583 3.46245 10.8926 3.27615 10.9239C3.2687 10.9252 3.26162 10.9202 3.26026 10.9128C3.2589 10.9054 3.26376 10.8982 3.27117 10.8967C3.45649 10.86 3.64232 10.8259 3.82786 10.7921L4.11366 10.742C4.16731 10.7332 4.22087 10.7225 4.27499 10.7147Z" fill="#EF513C"/>
<path d="M4.28397 10.8457C4.29098 10.8446 4.29734 10.8497 4.29789 10.8568C4.29837 10.863 4.29431 10.8688 4.28826 10.8701C4.23965 10.8805 4.19071 10.889 4.14225 10.8986L3.8572 10.9531C3.67171 10.9874 3.48593 11.0214 3.29959 11.0527C3.29213 11.054 3.28506 11.049 3.2837 11.0415C3.28234 11.0341 3.2872 11.027 3.29461 11.0255C3.47993 10.9887 3.66581 10.9549 3.85135 10.9212L4.13715 10.871C4.18607 10.8629 4.23494 10.8533 4.28397 10.8457Z" fill="#EF513C"/>
<path d="M4.29398 10.9747C4.3013 10.9736 4.30804 10.9789 4.30869 10.9863C4.30925 10.9926 4.30499 10.9984 4.29876 10.9997C4.25439 11.0088 4.20978 11.0164 4.16564 11.0252L3.88059 11.0797C3.6951 11.1139 3.50937 11.1482 3.32303 11.1796C3.31557 11.1808 3.3085 11.1758 3.30714 11.1684C3.30578 11.161 3.31063 11.1538 3.31804 11.1524C3.50337 11.1156 3.68924 11.0818 3.87474 11.0478L4.16054 10.9976C4.20501 10.9903 4.24947 10.9818 4.29398 10.9747Z" fill="#EF513C"/>
<path d="M4.306 11.1038C4.31335 11.1026 4.32013 11.108 4.32088 11.1154C4.32154 11.1219 4.31722 11.1279 4.31079 11.1292C4.27026 11.1374 4.22969 11.1444 4.18913 11.1526L3.90407 11.2071C3.71858 11.2413 3.53281 11.2754 3.34646 11.3067C3.33901 11.3079 3.33193 11.3029 3.33057 11.2955C3.32922 11.2881 3.33407 11.2809 3.34148 11.2795C3.52681 11.2427 3.71268 11.2089 3.89823 11.1752L4.18402 11.125C4.22472 11.1181 4.26526 11.1105 4.306 11.1038Z" fill="#EF513C"/>
<path d="M4.31935 11.2346C4.32668 11.2334 4.33358 11.2385 4.33446 11.2459C4.33527 11.2527 4.33068 11.2589 4.32396 11.2603C4.28687 11.2676 4.24961 11.2743 4.21251 11.2816L3.92746 11.336C3.74197 11.3703 3.5562 11.4046 3.3699 11.4359C3.36245 11.4372 3.35537 11.4322 3.35401 11.4248C3.35265 11.4173 3.35751 11.4102 3.36492 11.4087C3.55024 11.3719 3.73612 11.3382 3.92161 11.3041L4.20746 11.2542C4.24491 11.2479 4.28195 11.2409 4.31935 11.2346Z" fill="#EF513C"/>
<path d="M4.33451 11.3636C4.3418 11.3624 4.34857 11.3674 4.34946 11.3748C4.35028 11.3816 4.3458 11.3881 4.33907 11.3894C4.30472 11.3961 4.27034 11.4024 4.236 11.4092L3.95095 11.4637C3.76546 11.498 3.57968 11.532 3.39334 11.5633C3.38588 11.5645 3.37881 11.5596 3.37745 11.5521C3.37609 11.5447 3.38095 11.5375 3.38836 11.5361C3.57368 11.4993 3.75956 11.4655 3.9451 11.4318L4.2309 11.3816C4.26561 11.3758 4.29993 11.3695 4.33451 11.3636Z" fill="#EF513C"/>
<path d="M4.35036 11.4926C4.35783 11.4913 4.3649 11.4963 4.36593 11.5038C4.36689 11.5107 4.36223 11.5172 4.35536 11.5186C4.32343 11.5248 4.29125 11.5305 4.25939 11.5368L3.97439 11.5915C3.78885 11.6255 3.60312 11.6598 3.41678 11.6912C3.40932 11.6924 3.40225 11.6875 3.40089 11.68C3.39953 11.6726 3.40438 11.6654 3.41179 11.664C3.59712 11.6272 3.78299 11.5934 3.96849 11.5594L4.25434 11.5095C4.28649 11.5041 4.31829 11.4981 4.35036 11.4926Z" fill="#EF513C"/>
<path d="M4.36871 11.6215C4.37597 11.6202 4.3828 11.6252 4.38382 11.6325C4.38482 11.6396 4.38014 11.6464 4.37309 11.6477C4.34299 11.6534 4.31303 11.659 4.28287 11.665L3.99782 11.7194C3.81233 11.7537 3.62655 11.788 3.44021 11.8191C3.43276 11.8203 3.42568 11.8154 3.42433 11.8079C3.42297 11.8005 3.42782 11.7934 3.43524 11.7919C3.62056 11.7551 3.80644 11.7213 3.99198 11.6876L4.27777 11.6374C4.30828 11.6323 4.3384 11.6268 4.36871 11.6215Z" fill="#EF513C"/>
<path d="M4.38766 11.7503C4.39495 11.749 4.40187 11.7539 4.40301 11.7612C4.40412 11.7683 4.39938 11.775 4.39232 11.7764C4.36365 11.7819 4.33492 11.7871 4.30626 11.7928L4.02126 11.8475C3.83572 11.8815 3.64999 11.9158 3.46365 11.9471C3.4562 11.9483 3.44912 11.9434 3.44776 11.9359C3.4464 11.9285 3.45126 11.9214 3.45867 11.9199C3.64399 11.8831 3.82987 11.8493 4.01536 11.8153L4.30121 11.7654C4.33017 11.7606 4.35879 11.7552 4.38766 11.7503Z" fill="#EF513C"/>
<path d="M4.4084 11.8792C4.41562 11.878 4.42248 11.8828 4.42368 11.89C4.42488 11.8972 4.42013 11.9041 4.41296 11.9055C4.38523 11.9108 4.3573 11.9159 4.3297 11.9215L4.04465 11.9759C3.85916 12.0102 3.67343 12.0445 3.48709 12.0758C3.47964 12.0771 3.47256 12.0721 3.4712 12.0646C3.46984 12.0572 3.47469 12.0501 3.48211 12.0486C3.66743 12.0118 3.85326 11.9777 4.0388 11.944L4.3246 11.8939C4.35272 11.8892 4.38047 11.8842 4.4084 11.8792Z" fill="#EF513C"/>
<path d="M4.43083 12.0061C4.43792 12.0049 4.44457 12.0097 4.44587 12.0168C4.44716 12.0239 4.44268 12.0308 4.43564 12.0321C4.4082 12.0375 4.38048 12.0424 4.35314 12.0479L4.06814 12.1026C3.8826 12.1366 3.69687 12.1709 3.51053 12.2022C3.50307 12.2035 3.496 12.1985 3.49464 12.1911C3.49328 12.1836 3.49813 12.1765 3.50554 12.175C3.69087 12.1382 3.87675 12.1044 4.06229 12.0707L4.34809 12.0206C4.37563 12.016 4.40329 12.0108 4.43083 12.0061Z" fill="#EF513C"/>
<path d="M4.46946 12.1456C4.47085 12.1528 4.46618 12.1599 4.45892 12.1613C4.43141 12.1665 4.40406 12.1716 4.37657 12.1771L4.09152 12.2316C3.90604 12.2658 3.72026 12.3001 3.53396 12.3315C3.52651 12.3327 3.51943 12.3277 3.51807 12.3203C3.51672 12.3129 3.52157 12.3057 3.52898 12.3043C3.7143 12.2675 3.90013 12.2334 4.08568 12.1997L4.37147 12.1495C4.39902 12.1449 4.42675 12.1399 4.45432 12.1351C4.46138 12.1338 4.46811 12.1385 4.46946 12.1456Z" fill="#EF513C"/>
<path d="M4.49464 12.2725C4.49612 12.2797 4.49138 12.2868 4.48414 12.2882C4.45613 12.2935 4.42797 12.2987 4.40006 12.3043L4.11501 12.3588C3.92947 12.3927 3.74374 12.4271 3.5574 12.4584C3.54995 12.4596 3.54287 12.4546 3.54151 12.4472C3.54015 12.4398 3.54501 12.4326 3.55242 12.4312C3.73774 12.3944 3.92362 12.3606 4.10916 12.3269L4.39496 12.2767C4.4231 12.272 4.45108 12.2668 4.47915 12.2619C4.48633 12.2607 4.49317 12.2654 4.49464 12.2725Z" fill="#EF513C"/>
<path d="M4.52113 12.399C4.5227 12.4064 4.518 12.4138 4.51056 12.4153C4.48158 12.4209 4.45235 12.4261 4.42345 12.4319L4.1384 12.4863C3.95291 12.5206 3.76718 12.5549 3.58084 12.5862C3.57339 12.5875 3.56631 12.5825 3.56495 12.5751C3.56359 12.5676 3.56844 12.5605 3.57586 12.559C3.76118 12.5222 3.94701 12.4882 4.13255 12.4544L4.41835 12.4043C4.44758 12.3994 4.47696 12.3941 4.50616 12.3889C4.51307 12.3877 4.51968 12.3921 4.52113 12.399Z" fill="#EF513C"/>
<path d="M4.54932 12.5258C4.55102 12.5331 4.54631 12.5406 4.53887 12.542C4.50819 12.5478 4.47762 12.5535 4.44694 12.5596L4.16189 12.614C3.9764 12.6483 3.79062 12.6823 3.60428 12.7137C3.59682 12.7149 3.58975 12.71 3.58839 12.7025C3.58703 12.6951 3.59188 12.6879 3.59929 12.6865C3.78462 12.6497 3.97049 12.6159 4.15604 12.5822L4.44184 12.532C4.47261 12.5269 4.50353 12.521 4.53433 12.5157C4.54121 12.5146 4.54776 12.519 4.54932 12.5258Z" fill="#EF513C"/>
<path d="M4.57902 12.6531C4.58074 12.6603 4.57625 12.6676 4.56898 12.669C4.53607 12.6754 4.50326 12.6813 4.47032 12.6878L4.18527 12.7422C3.99979 12.7765 3.81401 12.8108 3.62772 12.8421C3.62026 12.8434 3.61318 12.8384 3.61182 12.831C3.61047 12.8235 3.61532 12.8164 3.62273 12.8149C3.80805 12.7781 3.99388 12.7441 4.17943 12.7103L4.46522 12.6602C4.49801 12.6546 4.53094 12.6487 4.56373 12.6429C4.57072 12.6416 4.57737 12.6462 4.57902 12.6531Z" fill="#EF513C"/>
<path d="M4.6103 12.7791C4.61217 12.7863 4.60776 12.7939 4.60042 12.7954C4.56488 12.8024 4.52937 12.8085 4.49381 12.8158L4.20876 12.8702C4.02327 12.9045 3.8375 12.9385 3.65115 12.9699C3.6437 12.9711 3.63662 12.9662 3.63526 12.9587C3.6339 12.9513 3.63876 12.9441 3.64617 12.9427C3.83149 12.9059 4.01737 12.8721 4.20291 12.8384L4.48871 12.7882C4.52452 12.7822 4.55995 12.7755 4.59568 12.7695C4.60233 12.7684 4.60862 12.7726 4.6103 12.7791Z" fill="#EF513C"/>
<path d="M4.64337 12.9057C4.64533 12.913 4.64082 12.9206 4.63341 12.9221C4.59476 12.9297 4.5558 12.9367 4.5172 12.9443L4.23215 12.9987C4.04666 13.033 3.86093 13.0673 3.67459 13.0986C3.66714 13.0999 3.66006 13.0949 3.6587 13.0875C3.65734 13.08 3.66219 13.0729 3.66961 13.0714C3.85493 13.0347 4.04081 13.0009 4.2263 12.9668L4.5121 12.9167C4.55111 12.9103 4.58996 12.903 4.62891 12.8964C4.63543 12.8953 4.64166 12.8993 4.64337 12.9057Z" fill="#EF513C"/>
<path d="M4.67795 13.0322C4.68001 13.0393 4.67574 13.0467 4.66855 13.0482C4.62598 13.0569 4.58333 13.0643 4.54069 13.0729L4.25564 13.1274C4.07015 13.1617 3.88437 13.1957 3.69803 13.227C3.69057 13.2282 3.6835 13.2233 3.68214 13.2158C3.68078 13.2084 3.68563 13.2013 3.69304 13.1998C3.87837 13.163 4.06425 13.1292 4.24979 13.0955L4.53559 13.0453C4.57838 13.0382 4.62097 13.0301 4.66381 13.0232C4.67014 13.0222 4.67615 13.0261 4.67795 13.0322Z" fill="#EF513C"/>
<path d="M4.71445 13.157C4.71648 13.1639 4.7123 13.1712 4.70524 13.1727C4.65833 13.1827 4.61105 13.1907 4.56407 13.2001L4.27902 13.2545C4.09354 13.2888 3.90776 13.3231 3.72146 13.3544C3.71401 13.3557 3.70693 13.3507 3.70557 13.3433C3.70422 13.3358 3.70907 13.3287 3.71648 13.3272C3.90181 13.2905 4.08768 13.2567 4.27318 13.2226L4.55902 13.1727C4.60616 13.1649 4.65334 13.1556 4.70061 13.1482C4.7068 13.1472 4.71269 13.151 4.71445 13.157Z" fill="#EF513C"/>
<path d="M4.75252 13.2812C4.75456 13.2877 4.75074 13.2948 4.74404 13.2963C4.69193 13.3079 4.63958 13.3166 4.58756 13.3272L4.30251 13.3816C4.11702 13.4159 3.93124 13.4499 3.7449 13.4813C3.73745 13.4825 3.73037 13.4776 3.72901 13.4701C3.72765 13.4627 3.73251 13.4556 3.73992 13.4541C3.92524 13.4173 4.11112 13.3835 4.29666 13.3498L4.58246 13.2996C4.63484 13.2911 4.68712 13.2806 4.7397 13.2729C4.74542 13.2721 4.75081 13.2756 4.75252 13.2812Z" fill="#EF513C"/>
<path d="M4.79258 13.4058C4.79463 13.412 4.79099 13.4185 4.78463 13.42C4.72694 13.4334 4.66881 13.4432 4.61095 13.4545L4.32595 13.5092C4.14041 13.5432 3.95468 13.5775 3.76834 13.6088C3.76088 13.6101 3.75381 13.6051 3.75245 13.5977C3.75109 13.5902 3.75595 13.5831 3.76336 13.5816C3.94868 13.5449 4.13456 13.5111 4.32005 13.477L4.6059 13.4271C4.66388 13.4173 4.72154 13.4058 4.78008 13.3978C4.7856 13.397 4.79083 13.4005 4.79258 13.4058Z" fill="#EF513C"/>
<path d="M4.26707 10.2623C4.30209 10.2242 4.25383 10.1869 4.20242 10.1815C3.95916 10.1559 3.22841 10.0931 3.06632 10.2435C2.87112 10.4246 2.81192 10.989 2.98597 11.7876C3.15997 12.5861 3.38132 13.2653 3.44022 13.5867C3.49912 13.9081 3.76192 15.0779 3.78687 15.5162C3.81182 15.9545 3.72902 16.6733 3.96342 16.8195C4.19782 16.9657 4.50852 16.798 4.49637 16.5557C4.48427 16.3134 4.22587 15.558 4.20292 15.3823C4.17997 15.2066 4.03217 14.6016 4.05012 14.3722C4.06807 14.1429 4.10217 13.8506 4.54477 13.6726C4.88662 13.5869 4.84437 13.5578 4.84552 13.5137C4.84667 13.4697 3.96572 13.6473 3.94157 13.6286C3.91737 13.61 3.71652 12.6018 3.61747 12.2878C3.51842 11.9738 3.25327 10.4515 3.40607 10.4166C3.55882 10.3817 4.22662 10.306 4.26707 10.2623Z" fill="#EF513C"/>
<path d="M3.3932 15.9097C3.49304 16.1767 3.73051 16.3743 4.0149 16.3549C4.0826 16.3503 4.14721 16.3421 4.20618 16.3324C4.40451 16.2997 4.55982 16.1452 4.56481 15.9442C4.56706 15.896 4.56641 15.8464 4.56406 15.7957C4.55851 15.6832 4.54501 15.5657 4.52451 15.4476C4.51626 15.3958 4.50676 15.3439 4.49616 15.2923C4.46751 15.155 4.43361 15.0202 4.39776 14.8954C4.38326 14.8416 4.36766 14.79 4.35291 14.7406C4.31136 14.6067 4.27151 14.4913 4.24046 14.4053C4.20571 14.3091 4.11217 14.2461 4.01174 14.2658C3.8598 14.2957 3.70161 14.3548 3.56712 14.4145C3.34047 14.5153 3.18066 14.7292 3.18839 14.9772C3.18931 15.0067 3.19094 15.0363 3.19321 15.0658C3.21606 15.3728 3.30644 15.6777 3.3932 15.9097Z" fill="#FFA07F"/>
<path d="M3.85185 14.8685C3.80526 14.8995 3.82749 14.9595 3.88349 14.9584C3.96839 14.9567 4.07954 14.9528 4.19864 14.9351C4.2353 14.9296 4.27082 14.9232 4.3048 14.9162C4.35698 14.9054 4.38749 14.8509 4.37239 14.7999C4.3614 14.7627 4.3292 14.7369 4.29041 14.7364C4.25194 14.7359 4.2116 14.7382 4.17034 14.7441C4.03849 14.764 3.92764 14.8182 3.85414 14.8669C3.85337 14.8675 3.85261 14.868 3.85185 14.8685Z" fill="#CF4A57"/>
<path d="M4.00625 15.3996C3.95956 15.4287 3.97793 15.489 4.03289 15.4916C4.11354 15.4951 4.21989 15.4966 4.33414 15.4825C4.36934 15.4781 4.40352 15.4722 4.43624 15.4657C4.48538 15.4558 4.51691 15.4082 4.50776 15.3589C4.50023 15.3184 4.46689 15.2871 4.42564 15.2856C4.3887 15.2843 4.3498 15.2856 4.30979 15.2907C4.18574 15.3066 4.07944 15.3548 4.00844 15.3983C4.0077 15.3987 4.00697 15.3992 4.00625 15.3996Z" fill="#CF4A57"/>
<path d="M4.0159 15.9058C3.96696 15.9338 3.98393 15.9959 4.04024 15.9988C4.12579 16.0023 4.23929 16.0032 4.36114 15.9863C4.40989 15.9796 4.45671 15.9704 4.50048 15.96C4.54033 15.9505 4.56841 15.9161 4.56827 15.8751C4.56811 15.8289 4.53264 15.7894 4.48643 15.7877C4.4387 15.786 4.38753 15.7879 4.33464 15.7953C4.20459 15.8134 4.09339 15.8615 4.01744 15.9049C4.01692 15.9052 4.01641 15.9055 4.0159 15.9058Z" fill="#CF4A57"/>
<path d="M3.20885 14.6603C3.18786 14.7813 3.34982 14.8268 3.44493 14.7492C3.54128 14.6701 3.65543 14.6166 3.76933 14.5674C3.89973 14.5111 4.03718 14.4455 4.17603 14.4126C4.20737 14.4045 4.22938 14.3747 4.21811 14.3444C4.21189 14.3276 4.2063 14.3128 4.20146 14.3001C4.18906 14.2675 4.15745 14.2463 4.12274 14.2495C3.79624 14.2798 3.40249 14.4891 3.26926 14.5648C3.23905 14.5819 3.21792 14.611 3.21158 14.6451C3.21064 14.6502 3.20973 14.6552 3.20885 14.6603Z" fill="#FFBF90"/>
<path d="M4.2234 11.6337C4.28259 11.5613 4.36656 11.5732 4.31773 11.653C4.31046 11.6649 4.30273 11.6765 4.29455 11.6878C4.2475 11.7526 4.18835 11.8121 4.1067 11.8476C4.06555 11.8647 4.0197 11.8742 3.9698 11.8661C3.9206 11.857 3.8774 11.8317 3.8454 11.7932C3.81335 11.756 3.7945 11.6959 3.81255 11.6416C3.83005 11.5875 3.8728 11.5506 3.9199 11.5327C3.94375 11.5238 3.96975 11.5193 3.9963 11.5209C4.0217 11.5226 4.0464 11.5292 4.0687 11.5394C4.1134 11.5599 4.1484 11.5936 4.1733 11.6331C4.2224 11.7141 4.2254 11.8049 4.21525 11.885C4.2042 11.9667 4.1765 12.0451 4.13635 12.1151C4.0575 12.2568 3.9295 12.3636 3.7917 12.4361C3.6532 12.5095 3.5035 12.5523 3.35575 12.5843C3.2095 12.6158 3.0641 12.6458 2.9514 12.731C2.8955 12.7728 2.85155 12.8269 2.82645 12.8902C2.80607 12.941 2.75271 12.9524 2.76225 12.8985C2.76391 12.8892 2.76601 12.88 2.76855 12.871C2.7898 12.7908 2.84495 12.7234 2.90755 12.6743C3.0352 12.5734 3.1936 12.5388 3.33695 12.5037C3.48095 12.4689 3.6214 12.4243 3.74675 12.3537C3.80935 12.3188 3.86755 12.277 3.91845 12.2289C3.9687 12.1799 4.0132 12.125 4.04705 12.0647C4.08135 12.0046 4.10395 11.9388 4.1129 11.8718C4.12175 11.8049 4.1156 11.7365 4.0852 11.6881C4.0556 11.6397 3.9977 11.6104 3.9553 11.6281C3.9325 11.6361 3.9138 11.6541 3.90805 11.6721C3.90185 11.69 3.90625 11.711 3.922 11.7309C3.93735 11.7506 3.9626 11.7659 3.98715 11.7705C4.01145 11.7751 4.0423 11.7708 4.07015 11.7592C4.1273 11.7359 4.17985 11.6871 4.2234 11.6337Z" fill="#6F0A32"/>
<path d="M3.31908 9.76972C3.31909 9.76981 3.31904 9.7699 3.31895 9.76993C3.14458 9.83043 3.0267 10.0029 3.03835 10.1705C3.04285 10.2544 3.0783 10.3349 3.13055 10.3992C3.18385 10.4641 3.2571 10.5039 3.3408 10.5259C3.4247 10.5477 3.51605 10.5542 3.60885 10.5714C3.7012 10.5878 3.79985 10.6177 3.87545 10.6866C4.02402 10.8251 4.03429 11.0716 3.90799 11.2104C3.90788 11.2105 3.9077 11.2105 3.90757 11.2104C3.90745 11.2103 3.90742 11.2101 3.9075 11.21C4.00841 11.054 3.96478 10.838 3.8353 10.7328C3.7698 10.681 3.6843 10.6586 3.5967 10.6457C3.50815 10.6335 3.41505 10.6285 3.3204 10.6051C3.2732 10.5931 3.22585 10.576 3.1819 10.5501C3.1382 10.5237 3.0996 10.4897 3.06805 10.4504C3.00455 10.3721 2.9697 10.2725 2.96875 10.1724C2.9686 9.96815 3.13319 9.7912 3.31886 9.76955C3.31897 9.76954 3.31906 9.76962 3.31908 9.76972Z" fill="#6F0A32"/>
<path d="M2.94481 12.2885C2.95026 12.2635 2.98077 12.2827 2.98055 12.3083C2.9806 12.375 3.00515 12.4383 3.0424 12.4928C3.1183 12.602 3.2324 12.6852 3.35175 12.7411C3.4735 12.7971 3.6039 12.82 3.7371 12.8146C3.80495 12.8123 3.87575 12.8047 3.9504 12.8026C4.02475 12.8013 4.10505 12.8058 4.1833 12.8277C4.26125 12.8489 4.34155 12.8889 4.40225 12.9561C4.46105 13.0232 4.49335 13.1089 4.50505 13.1869C4.5183 13.2659 4.5184 13.3404 4.51755 13.4112C4.51695 13.4821 4.5174 13.5495 4.52745 13.6124C4.54592 13.7377 4.49087 13.8638 4.43661 13.7493C4.41998 13.7143 4.40675 13.6771 4.3975 13.6382C4.36445 13.4843 4.3777 13.3372 4.35485 13.2137C4.3335 13.0894 4.2619 13.0087 4.1415 12.9753C4.02405 12.9399 3.88735 12.9569 3.73865 12.9552C3.6644 12.9546 3.5855 12.9473 3.5117 12.9275C3.4375 12.9081 3.3664 12.8793 3.30005 12.8424C3.23355 12.8059 3.1725 12.76 3.11875 12.7074C3.06555 12.6546 3.0162 12.5966 2.9823 12.5276C2.94845 12.4599 2.9282 12.3807 2.94175 12.3048C2.94261 12.2993 2.94363 12.2939 2.94481 12.2885Z" fill="#6F0A32"/>
<path d="M9.82751 10.8326C9.88846 11.3675 10.346 11.7662 10.8055 12.0471C12.7326 13.2295 15.3 13.2812 17.2725 12.1772C17.7754 11.8952 18.2536 11.5297 18.5262 11.0216C18.5561 10.9658 18.583 10.908 18.6057 10.8491C18.7998 10.3689 18.7833 9.79164 18.4642 9.38989C18.2597 9.13169 17.9592 8.97264 17.7041 8.76509C17.449 8.55854 17.2208 8.25799 17.2611 7.93169C17.3106 7.51859 17.764 7.23874 17.8053 6.82459C17.8363 6.51169 17.6184 6.22769 17.3768 6.02629C16.8139 5.55949 16.6208 4.97184 16.1902 4.42454C15.7027 3.80489 14.8641 3.39489 14.0999 3.27199C13.4669 3.16874 12.7956 3.24519 12.2296 3.54669C11.6627 3.84824 11.2134 4.38524 11.0761 5.01214C10.9759 5.46964 11.0358 5.97154 10.8179 6.38569C10.6847 6.63869 10.4565 6.83804 10.3532 7.10444C10.2933 7.25829 10.2788 7.41839 10.2891 7.58054C10.3139 7.97399 10.4771 8.38499 10.4492 8.78574C10.3997 9.50559 9.74491 10.1159 9.82751 10.8326Z" fill="#3F0727"/>
<path d="M10.8729 15.9061C10.8732 15.912 10.8675 15.9164 10.8619 15.9145L10.8101 15.8961L10.8079 15.8956L8.75464 15.1748L8.46645 15.0738C8.18606 14.9755 8.06172 14.6483 8.20544 14.3882C8.40209 14.0323 8.67894 13.5298 8.95299 13.0302C9.06884 12.8185 9.18474 12.6068 9.29334 12.408C9.30674 12.3829 9.32009 12.3578 9.33399 12.3333C9.37019 12.2654 9.40639 12.1991 9.44094 12.135C9.45709 12.1055 9.47214 12.0771 9.48774 12.0487C9.60864 11.8247 9.71224 11.6303 9.78629 11.4883C9.83254 11.3991 9.86704 11.3306 9.88709 11.2877C9.9021 11.2555 9.9182 11.2249 9.93594 11.1961C9.93604 11.1959 9.93609 11.1957 9.93609 11.1955C9.93609 11.1954 9.93614 11.1952 9.93623 11.195C9.95974 11.1551 9.98497 11.118 10.0113 11.0836C10.2085 10.8257 10.5398 11.0186 10.5618 11.3425L10.6006 11.9127V11.9133L10.8329 15.324L10.8413 15.4421L10.863 15.7591V15.7596L10.8714 15.8833L10.8729 15.9061Z" fill="#D94562"/>
<path d="M8.18541 15.3046C7.9597 15.2196 7.84864 14.9651 7.93976 14.7417C8.02873 14.5236 8.27702 14.4182 8.4957 14.5057L10.6398 15.3634C10.8357 15.4417 10.9387 15.6573 10.8766 15.859C10.8078 16.0823 10.565 16.2014 10.3463 16.119L8.18541 15.3046Z" fill="#AA2B48"/>
<path d="M17.9216 18.9283C17.9261 19.0084 17.8984 19.0874 17.8426 19.1451C17.8141 19.1756 17.7846 19.2056 17.7556 19.2356C17.7552 19.2359 17.7549 19.2362 17.7545 19.2364C17.5851 19.3326 17.4132 19.425 17.2378 19.5114C17.136 19.5616 17.0333 19.6098 16.93 19.6565C16.6542 19.7804 16.373 19.892 16.0873 19.9879C15.9147 20.0474 15.7402 20.101 15.5641 20.1482C15.423 20.1875 15.2804 20.2234 15.1388 20.2539C15.0975 20.2637 15.0562 20.2726 15.0154 20.2809C14.3045 20.4289 13.5797 20.4968 12.8535 20.4909C12.4979 20.4882 12.1421 20.4678 11.7877 20.4306C11.1534 20.3639 10.7168 19.7889 10.7526 19.1521L10.7762 18.7455L10.8711 17.0723L10.8146 16.0585V16.058L10.8057 15.9006V15.9001L10.8052 15.8952L10.7945 15.7011C10.7944 15.7007 10.7943 15.7003 10.7942 15.7C10.794 15.6997 10.7939 15.6993 10.7939 15.699L10.7782 15.4178L10.7723 15.3003V15.2998L10.6218 12.6074L10.5825 11.9018V11.9008L10.573 11.7309C10.5394 11.1277 10.9263 10.581 11.5063 10.412L12.0236 10.2616L12.8265 10.0275C12.8621 10.0168 12.8997 10.0141 12.9364 10.0196L13.035 10.0344L13.2228 10.0624L13.3875 10.0869C13.5034 10.1041 13.6218 10.0958 13.7341 10.0624L13.8138 10.0388L14.6606 9.78915C14.6608 9.78911 14.6609 9.78922 14.6609 9.78938C14.6609 9.78949 14.661 9.78958 14.6611 9.78961C14.6617 9.78975 14.6636 9.79023 14.6668 9.79101C14.6688 9.79151 14.6717 9.79246 14.6762 9.79396C14.6805 9.79507 14.6846 9.79685 14.6888 9.79828C14.6909 9.79897 14.6931 9.79966 14.6954 9.80036C14.7013 9.80181 14.7072 9.80381 14.7145 9.80576C14.7181 9.80694 14.7216 9.80799 14.7252 9.8091C14.7272 9.80974 14.7294 9.81038 14.7317 9.81116C14.7632 9.82101 14.8045 9.83376 14.8541 9.85001C14.8581 9.85101 14.8615 9.85246 14.8654 9.85396C14.8694 9.85546 14.8743 9.85641 14.8787 9.85791C14.8835 9.85933 14.8879 9.86079 14.8926 9.86225C14.8929 9.86233 14.8931 9.86233 14.8933 9.86238C14.8938 9.86247 14.8943 9.86291 14.8948 9.86301C14.8969 9.86342 14.899 9.86406 14.9012 9.86476C14.9023 9.86512 14.9034 9.86513 14.9045 9.86548C14.905 9.86563 14.9055 9.86589 14.906 9.86606C14.927 9.8729 14.9503 9.88066 14.9746 9.88891C15.0071 9.89971 15.0415 9.91106 15.0779 9.92331C15.1118 9.93461 15.1477 9.94691 15.1846 9.95971C15.1854 9.9601 15.1861 9.96049 15.1871 9.96088C15.1877 9.96112 15.1884 9.96117 15.189 9.96137C15.1896 9.96155 15.1901 9.96191 15.1907 9.96242C15.1909 9.96257 15.1911 9.96266 15.1913 9.96266C15.1914 9.96266 15.1915 9.96268 15.1916 9.96271C15.2024 9.96615 15.2127 9.97008 15.2229 9.97346C15.2333 9.97691 15.2436 9.98036 15.2544 9.98376C15.276 9.99116 15.2976 9.99901 15.3198 10.0069C15.338 10.0133 15.3567 10.0202 15.3753 10.027C15.4048 10.0369 15.4343 10.0482 15.4648 10.059C15.4727 10.0614 15.4806 10.0644 15.4884 10.0673C15.5725 10.0978 15.6609 10.1302 15.7517 10.1656C15.7519 10.1656 15.7521 10.1657 15.7522 10.1657C15.7524 10.1657 15.7526 10.1657 15.7527 10.1658C16.1351 10.3126 16.4772 10.2443 16.7865 10.2306H16.787C16.909 10.2252 17.026 10.2284 17.1384 10.2566C17.3545 10.3109 17.4514 10.5425 17.464 10.765V10.7655L17.5343 12.0183V12.0193L17.5417 12.1427V12.1432C17.5417 12.1439 17.5417 12.1445 17.5417 12.1452L17.5854 12.9294L17.6474 14.0278V14.0298L17.6764 14.545L17.6946 14.8794L17.73 15.4984V15.4989L17.7964 16.6927L17.819 17.0919L17.8263 17.235L17.8273 17.2498L17.8529 17.7016L17.9216 18.9283Z" fill="#D94562"/>
<path d="M15.1934 9.96191C15.4581 10.0531 15.5287 10.3872 15.316 10.5694C14.8211 10.9932 14.116 11.4896 13.4557 11.5753C12.7954 11.6602 12.2253 11.228 11.8494 10.8278C11.6693 10.6361 11.7727 10.3346 12.0253 10.2613L12.553 10.1077C12.7703 10.0444 12.9988 10.0287 13.2228 10.0617C13.4484 10.095 13.6786 10.0788 13.8973 10.0144L14.1267 9.94685C14.4763 9.84387 14.8487 9.84335 15.1934 9.96191Z" fill="#FFA07F"/>
<path d="M15.3469 10.0165C15.5322 10.082 15.5961 10.3221 15.4497 10.4532C14.9541 10.8974 14.1781 11.4825 13.4557 11.5763C12.7201 11.6709 12.0964 11.1238 11.7284 10.6939C11.6149 10.5612 11.6837 10.3615 11.8515 10.3128C11.9554 10.2826 12.0666 10.3223 12.1317 10.4088C12.414 10.7832 12.9126 11.3387 13.3766 11.3119C13.8727 11.2834 14.659 10.5284 15.0723 10.0928C15.1466 10.0144 15.2451 9.98048 15.3469 10.0165Z" fill="#AA2B48"/>
<path d="M14.3047 9.03572C14.3964 9.51845 14.3972 10.1516 13.9377 10.3255C13.6464 10.4358 13.3854 10.5167 13.3079 10.4879C13.2669 10.4729 13.2225 10.4444 13.1777 10.4085C12.9316 10.2115 13.1688 9.91789 13.1393 9.60407C13.1298 9.50336 13.1127 9.3916 13.0929 9.28277C13.0369 8.97396 13.203 8.66029 13.4998 8.55809C13.8549 8.43579 14.2343 8.66677 14.3047 9.03572Z" fill="#FFA07F"/>
<path d="M14.237 8.68016C14.262 8.82897 14.2238 9.09252 14.102 9.18156C13.82 9.38764 13.5325 9.58655 13.4245 9.62337C13.251 9.68195 13.1259 9.49053 13.0939 9.3102C13.0913 9.29564 13.0886 9.28111 13.086 9.26664C13.0305 8.96713 13.1914 8.66282 13.4794 8.56362L13.73 8.47733C13.9638 8.39679 14.196 8.43629 14.237 8.68016Z" fill="#FF7D6F"/>
<path d="M14.8523 4.92548C14.1876 4.16488 13.0738 3.93653 12.1991 4.44158C11.998 4.55768 11.8373 4.68953 11.7651 4.83468C11.4761 5.41523 11.0643 7.55133 11.5071 8.57803C11.9498 9.60473 12.6467 9.46403 12.8949 9.39173C13.1431 9.31943 14.3095 8.83313 14.5792 8.45273C14.8488 8.07233 15.4269 6.10918 15.2981 5.59763C15.255 5.42683 15.0741 5.17933 14.8523 4.92548Z" fill="#FFBF90"/>
<path d="M14.9304 4.77115C14.2657 4.01055 13.1519 3.78225 12.2772 4.2873C12.0761 4.4034 11.9154 4.53525 11.8432 4.6804C11.5542 5.26095 11.1424 7.39705 11.5852 8.42375C12.0279 9.45045 12.7248 9.30975 12.973 9.2375C13.2212 9.1652 14.3876 8.6789 14.6573 8.2985C14.9269 7.9181 15.505 5.95495 15.3762 5.4434C15.3331 5.2725 15.1522 5.02505 14.9304 4.77115Z" fill="#FFA07F"/>
<path d="M14.6468 7.80882C14.6745 7.54919 14.7824 7.23461 15.0262 7.14098C15.115 7.10687 15.208 7.11025 15.2882 7.20207C15.5077 7.45317 15.5652 7.86692 15.3563 8.09807C15.3017 8.15852 15.241 8.22032 15.1745 8.27578C14.8887 8.51429 14.6074 8.17897 14.6468 7.80882Z" fill="#FFA07F"/>
<path d="M15.277 7.51802C15.2896 7.57327 15.2804 7.63052 15.2626 7.68467C15.2227 7.80625 15.1427 7.91202 15.0451 8.00846C14.9869 8.06598 14.8429 7.96976 14.8356 7.88827C14.8317 7.84532 14.8236 7.80257 14.8238 7.75952C14.8245 7.58617 15.2029 7.19132 15.277 7.51802Z" fill="#FF7D6F"/>
<path d="M14.6661 8.30465C14.6648 8.30578 14.6663 8.30775 14.6677 8.30691C14.6679 8.30682 14.668 8.30674 14.6682 8.30665C14.6758 8.3019 14.6879 8.29565 14.7019 8.28585C14.73 8.26645 14.7689 8.2353 14.8057 8.18875C14.8424 8.1424 14.8759 8.0803 14.8924 8.00635C14.9074 7.93275 14.9057 7.84665 14.8695 7.7632C14.8657 7.7526 14.8603 7.7426 14.8549 7.73265L14.8508 7.72525C14.8502 7.72408 14.8502 7.72409 14.8502 7.72422C14.8502 7.72425 14.8503 7.72452 14.8503 7.72455C14.8503 7.72457 14.8503 7.72459 14.8503 7.72458L14.8502 7.72453C14.8502 7.72451 14.8501 7.72456 14.8501 7.72453C14.8501 7.72451 14.8502 7.7243 14.8507 7.7233L14.8542 7.7167L14.8614 7.70365C14.8663 7.69505 14.8711 7.68645 14.8762 7.6781C14.8962 7.6445 14.9179 7.613 14.9401 7.58375C14.9623 7.5545 14.9852 7.5276 15.0079 7.50305C15.0308 7.4787 15.0527 7.4558 15.0745 7.43895C15.0962 7.4219 15.12 7.411 15.1421 7.40825C15.1643 7.4059 15.1852 7.4115 15.1992 7.4191C15.2134 7.4269 15.2212 7.4367 15.2243 7.444C15.2248 7.44498 15.2276 7.44457 15.2274 7.44351C15.2274 7.44344 15.2274 7.44337 15.2274 7.4433C15.2261 7.4352 15.2204 7.423 15.2064 7.41155C15.1924 7.4005 15.1704 7.3899 15.1411 7.3887C15.1118 7.38805 15.0801 7.39805 15.0517 7.4146C15.023 7.43125 14.9972 7.4522 14.9699 7.4752C14.9429 7.4984 14.9155 7.5246 14.8891 7.5538C14.8628 7.58305 14.8372 7.6152 14.8139 7.6502C14.808 7.6589 14.8025 7.66785 14.7969 7.6769L14.7887 7.69065L14.7779 7.71005C14.7732 7.71863 14.773 7.72875 14.7773 7.7375L14.7876 7.75725C14.7923 7.7659 14.797 7.77455 14.8003 7.7838C14.8317 7.85615 14.8379 7.9315 14.8309 7.99895C14.8225 8.06645 14.8003 8.12625 14.7736 8.1735C14.7469 8.22085 14.7165 8.2559 14.6938 8.279C14.6825 8.29065 14.6723 8.2986 14.6661 8.30465Z" fill="#CF4A57"/>
<path d="M12.6945 7.45039C12.7737 7.43779 12.8068 7.50814 12.7429 7.55656C12.6793 7.60472 12.6047 7.63838 12.5263 7.65289C12.5161 7.65479 12.5056 7.65634 12.4955 7.65399C12.4832 7.65114 12.473 7.64284 12.4635 7.63449C12.4035 7.58164 12.3541 7.51679 12.3191 7.44494C12.312 7.43039 12.3054 7.41509 12.3048 7.39889C12.3027 7.34529 12.3357 7.36339 12.3639 7.38129C12.3965 7.40204 12.4318 7.41864 12.4685 7.43094C12.5409 7.45514 12.6191 7.46239 12.6945 7.45039Z" fill="#FF7D6F"/>
<path d="M12.5197 7.6208C12.4939 7.5868 12.4634 7.5563 12.4367 7.5228C12.3832 7.45575 12.4211 7.36367 12.4771 7.29872C12.5568 7.20635 12.5793 7.07707 12.601 6.93535C12.6147 6.8457 12.6069 6.7531 12.5788 6.6669C12.5641 6.6216 12.5438 6.57815 12.5185 6.5378C12.5057 6.51725 12.4916 6.49755 12.4763 6.47875C12.4718 6.47317 12.4671 6.46819 12.4622 6.4636C12.4537 6.4556 12.4389 6.46765 12.4441 6.4781C12.4622 6.51435 12.4819 6.5486 12.4961 6.58675C12.5104 6.6249 12.5213 6.66425 12.5288 6.70425C12.544 6.78425 12.546 6.86695 12.5332 6.9474C12.5207 7.0263 12.4937 7.10325 12.4508 7.17085C12.4018 7.24795 12.3277 7.3195 12.2422 7.35345C12.2414 7.35375 12.3302 7.50825 12.3393 7.52115C12.3628 7.5546 12.3894 7.58595 12.4192 7.614C12.4483 7.64155 12.4818 7.674 12.5228 7.6803C12.5272 7.68096 12.5317 7.68137 12.5361 7.68141C12.5484 7.68151 12.5516 7.6672 12.5446 7.65705C12.5425 7.654 12.5405 7.65085 12.5385 7.64765C12.5326 7.63845 12.5263 7.6295 12.5197 7.6208Z" fill="#FC5B68"/>
<path d="M13.0169 8.43776C12.9984 8.45321 12.9752 8.46276 12.9497 8.46706C12.8031 8.49271 12.5717 8.35491 12.525 8.35591C12.4752 8.35696 12.253 8.41056 12.1573 8.37936C12.1452 8.37586 12.1353 8.37076 12.1276 8.36416C12.06 8.30446 12.1724 8.04946 12.5946 8.07391C12.8958 8.09106 13.1452 8.33181 13.0169 8.43776Z" fill="#3F0727"/>
<path d="M12.603 8.20292C12.801 8.25723 12.7292 8.35219 12.5239 8.35658C12.3428 8.3604 12.2811 8.2058 12.4615 8.18901C12.4878 8.18656 12.5155 8.187 12.5446 8.19098C12.5647 8.1937 12.5841 8.19774 12.603 8.20292Z" fill="#FC5B68"/>
<path d="M12.232 5.82999C12.0499 5.90028 11.9086 5.67017 12.0975 5.62107C12.2843 5.57252 12.399 5.71827 12.3399 5.77702C12.3264 5.79039 12.2862 5.80908 12.232 5.82999Z" fill="#55062C"/>
<path d="M13.2785 5.83997C13.5001 5.9265 13.6416 5.67016 13.4139 5.60148C13.1233 5.51383 12.9941 5.67554 13.0982 5.75659C13.1224 5.77541 13.1896 5.80524 13.2785 5.83997Z" fill="#55062C"/>
<path d="M13.5005 7.56156C13.5124 7.65296 13.7176 7.70176 13.959 7.67051C14.2004 7.63926 14.3866 7.53986 14.3747 7.44846C14.3629 7.35706 14.1576 7.30831 13.9162 7.33951C13.6748 7.37071 13.4887 7.47016 13.5005 7.56156Z" fill="#FF7D6F"/>
<path d="M11.1527 7.08675C11.1228 7.1498 11.2525 7.27405 11.4425 7.3643C11.6325 7.4545 11.8108 7.47655 11.8407 7.41345C11.8707 7.3504 11.7409 7.22615 11.5509 7.1359C11.361 7.0457 11.1827 7.0237 11.1527 7.08675Z" fill="#FF7D6F"/>
<path d="M13.8652 6.68386C13.8836 6.66394 13.8061 6.58808 13.7801 6.59574C13.7705 6.59856 13.762 6.59385 13.7564 6.5856C13.7292 6.54597 13.6935 6.51914 13.6512 6.51135C13.531 6.4891 13.4045 6.6276 13.3688 6.8207C13.3331 7.0138 13.4016 7.18835 13.5219 7.2106C13.6421 7.23285 13.7686 7.09435 13.8043 6.90125C13.8141 6.84817 13.816 6.79652 13.8112 6.74904C13.8101 6.7382 13.8151 6.7277 13.8239 6.72128C13.8383 6.71081 13.8521 6.69805 13.8652 6.68386Z" fill="#161818"/>
<path d="M13.7908 6.76281C13.666 6.78643 13.6972 6.95149 13.822 6.92791C13.9468 6.90429 13.9157 6.73923 13.7908 6.76281Z" fill="white"/>
<path d="M11.6919 6.49406C11.6838 6.47379 11.7641 6.43894 11.7814 6.45219C11.7878 6.45708 11.7955 6.45596 11.8022 6.45137C11.8341 6.42932 11.8687 6.41945 11.9028 6.42572C11.9998 6.44362 12.0552 6.58437 12.0265 6.74017C11.9977 6.89597 11.8958 7.00772 11.7988 6.98982C11.7018 6.97192 11.6465 6.83117 11.6752 6.67537C11.6831 6.63253 11.6965 6.59304 11.7138 6.55865C11.7178 6.55083 11.717 6.54148 11.7122 6.53412C11.7044 6.52211 11.6977 6.50852 11.6919 6.49406Z" fill="#161818"/>
<path d="M11.7209 6.57444C11.8081 6.62817 11.7371 6.74356 11.6498 6.68984C11.5626 6.63609 11.6337 6.52073 11.7209 6.57444Z" fill="white"/>
<path d="M15.6758 7.22072C15.6109 7.3882 15.3833 7.34929 15.2133 7.2914C15.0583 7.23864 14.8676 7.1108 14.9099 6.95264C14.9493 6.80522 14.9939 6.65617 15.0402 6.5102C15.1128 6.28145 14.9763 6.03902 14.7537 5.94929C14.2923 5.76326 13.8786 5.45819 13.5643 5.07245C13.483 4.97272 13.3494 5.02343 13.4079 5.13799C13.4593 5.23865 13.3921 5.3712 13.2854 5.33382C13.1825 5.29778 13.0854 5.2449 12.9992 5.17812C12.8641 5.07347 12.6569 5.05375 12.523 5.15991C12.3999 5.25753 12.2656 5.34082 12.1237 5.40469C11.8042 5.54854 11.5071 5.24509 11.6285 4.91635C11.7975 4.45869 12.1224 4.06015 12.5557 3.83565C13.1795 3.5124 13.9592 3.5264 14.5853 3.84545C15.2113 4.1645 15.6752 4.77306 15.8469 5.45441C15.9837 5.99781 15.8922 6.66258 15.6758 7.22072Z" fill="#3F0727"/>
<path d="M10.3562 7.10444C10.2877 7.28027 10.4905 7.36052 10.5914 7.20107C10.6954 7.03683 10.7828 6.85998 10.8581 6.68314C11.0625 6.19674 11.2041 5.67829 11.4963 5.23939C11.7766 4.81801 12.1796 4.49624 12.5884 4.19323C12.6717 4.13141 12.7884 4.14359 12.8581 4.22058C12.8778 4.24239 12.8975 4.26421 12.9173 4.28602C12.9883 4.36441 13.1165 4.34291 13.158 4.24561C13.2019 4.14258 13.3416 4.12572 13.4139 4.21124C13.7867 4.65201 14.2536 5.01208 14.7726 5.26484C15.2583 5.50144 15.7852 6.17781 16.221 6.49724C16.5112 6.71104 16.8592 6.97849 16.8128 7.33584C16.7735 7.64669 16.4482 7.84084 16.3315 8.13104C16.1549 8.56994 16.5122 9.05119 16.9212 9.28874C17.3302 9.52729 17.8145 9.64299 18.1656 9.95999C18.3633 10.1382 18.7569 10.1117 18.6923 9.8536C18.6503 9.68576 18.5765 9.52755 18.4672 9.38994C18.4476 9.36514 18.4269 9.34139 18.4063 9.31864C18.2059 9.10074 17.9374 8.95304 17.7071 8.76509C17.452 8.55854 17.2238 8.25799 17.2641 7.93169C17.3136 7.51859 17.767 7.23874 17.8083 6.82459C17.8393 6.51169 17.6214 6.22769 17.3798 6.02629C16.8169 5.55949 16.6238 4.97184 16.1932 4.42454C15.7057 3.80489 14.8671 3.39489 14.1029 3.27199C13.4699 3.16874 12.7986 3.24519 12.2326 3.54669C11.6657 3.84824 11.2164 4.38524 11.0791 5.01214C11.0636 5.08339 11.0522 5.15464 11.0429 5.22799C10.9913 5.62349 11.0047 6.03554 10.8209 6.38569C10.6877 6.63869 10.4595 6.83804 10.3562 7.10444Z" fill="#55062C"/>
<path d="M11.0752 5.01214C11.055 5.10508 11.1507 5.17347 11.2288 5.11918C11.2383 5.11257 11.2477 5.10584 11.257 5.09899C11.5678 4.86974 11.7878 4.54029 12.0346 4.24284C12.2566 3.97328 12.5241 3.71633 12.853 3.61127C12.9107 3.59286 12.9681 3.63348 12.9768 3.69334C12.9881 3.77135 13.079 3.80944 13.1473 3.77015C13.2943 3.68567 13.4554 3.62516 13.622 3.59169C13.7612 3.56374 13.8964 3.63476 13.9846 3.746C14.3754 4.2391 14.8823 4.63894 15.4505 4.90891C15.8769 5.11154 16.26 5.65711 16.6075 5.97674C16.8254 6.17814 17.0878 6.37019 17.1569 6.65834C17.2406 7.00739 17.0093 7.35029 16.9721 7.70659C16.9308 8.11039 17.1466 8.50594 17.4492 8.77544C17.5013 8.82211 17.5559 8.86567 17.6124 8.90656C17.7849 9.03146 17.8682 8.89974 17.7032 8.76509C17.4481 8.55854 17.2199 8.25799 17.2602 7.93169C17.3097 7.51859 17.7631 7.23874 17.8044 6.82459C17.8354 6.51169 17.6175 6.22769 17.3759 6.02629C16.813 5.55949 16.6199 4.97184 16.1893 4.42454C15.7018 3.80489 14.8632 3.39489 14.099 3.27199C13.466 3.16874 12.7947 3.24519 12.2287 3.54669C11.6618 3.84824 11.2125 4.38524 11.0752 5.01214Z" fill="#6F0A32"/>
<path d="M16.3541 12.034C16.255 11.2239 16.9829 10.5146 17.7156 10.874C17.925 10.9767 18.1014 11.0972 18.1997 11.2357C18.3639 11.4672 18.7776 12.0357 19.1656 12.5673C19.5965 13.1578 19.4009 13.9938 18.7522 14.3307C18.1555 14.6406 17.4207 14.3961 17.1286 13.7905L16.4668 12.4179C16.4085 12.297 16.3704 12.1673 16.3541 12.034Z" fill="#D94562"/>
<path d="M17.5019 15.0774C17.4239 14.8803 17.498 14.6555 17.678 14.5435L19.3851 13.481C19.6194 13.3351 19.9264 13.394 20.0901 13.6162C20.2842 13.8796 20.1948 14.2543 19.9027 14.4017L18.1076 15.3077C17.8772 15.4239 17.5968 15.3173 17.5019 15.0774Z" fill="#AA2B48"/>
<path d="M17.8101 7.33843C17.8003 7.39893 17.6076 8.31243 17.5484 8.59128C17.5377 8.6429 17.507 8.68805 17.4635 8.71774L17.3263 8.81124C17.1347 8.9418 16.8876 8.95452 16.6855 8.84101C16.3344 8.64388 15.8354 8.35761 15.8173 8.32293C15.7781 8.2453 15.7766 7.86975 15.7816 7.58326C15.7853 7.36829 15.6974 7.1611 15.5361 7.01889L15.4785 6.96806C15.3492 6.85401 15.3006 6.68364 15.4155 6.55508C15.4227 6.54718 15.4306 6.53863 15.4385 6.53073C15.5181 6.44588 15.6167 6.35578 15.7127 6.27358C15.7338 6.25648 15.7535 6.23873 15.7739 6.22163C15.9536 6.07243 16.206 6.05718 16.4105 6.17011L16.763 6.36479C16.8196 6.39602 16.8674 6.44088 16.9023 6.49529L17.0348 6.70229C17.1062 6.81388 17.2642 6.82686 17.3529 6.72843C17.4087 6.66644 17.4206 6.57658 17.3836 6.50177C17.2237 6.17787 16.8208 5.32546 16.9787 5.26533C17.1747 5.19103 17.5424 5.87763 17.7811 6.32813C17.8153 6.39323 17.8376 6.47613 17.8488 6.57083C17.8772 6.79323 17.8516 7.07668 17.8101 7.33843Z" fill="#FFA07F"/>
<path d="M15.447 6.53271C15.4409 6.53176 15.4347 6.5338 15.4304 6.53827C15.4218 6.54723 15.4235 6.56193 15.4338 6.56881C15.4544 6.5825 15.479 6.59869 15.5071 6.6174C15.5923 6.67475 15.7064 6.75415 15.828 6.84245C15.9488 6.93165 16.0525 7.01935 16.123 7.09405C16.1405 7.11305 16.1564 7.13035 16.1706 7.14555C16.1832 7.1621 16.1946 7.17615 16.2034 7.18805C16.211 7.19744 16.2252 7.19052 16.2221 7.17883C16.222 7.17828 16.2218 7.17772 16.2217 7.17715C16.2178 7.16195 16.2126 7.14285 16.2061 7.12115C16.1977 7.10045 16.1879 7.07715 16.176 7.0509C16.1286 6.94845 16.0339 6.81905 15.9012 6.72115C15.7681 6.6246 15.6314 6.57425 15.5316 6.5496C15.4992 6.54175 15.4708 6.5364 15.447 6.53271Z" fill="#CF4A57"/>
<path d="M15.7955 6.22918C15.781 6.22491 15.7654 6.2283 15.7538 6.23803C15.7442 6.24617 15.7345 6.25446 15.7247 6.26279C15.7175 6.26887 15.7179 6.27956 15.7257 6.28481C15.8109 6.34216 15.925 6.42156 16.0462 6.50986C16.1675 6.59906 16.2711 6.68676 16.3416 6.76141C16.3592 6.78041 16.375 6.79731 16.3888 6.81251C16.4018 6.82911 16.4128 6.84356 16.422 6.85501C16.4294 6.86422 16.4435 6.85741 16.4406 6.84597C16.4405 6.8455 16.4404 6.84503 16.4403 6.84456C16.4361 6.82936 16.4312 6.81026 16.4243 6.78861C16.4163 6.76786 16.4061 6.74416 16.3946 6.71831C16.3468 6.61541 16.2521 6.48601 16.1194 6.38856C16.0057 6.3056 15.8891 6.25675 15.7955 6.22918Z" fill="#CF4A57"/>
<path d="M17.8079 7.33833C17.7987 7.39432 17.633 8.18092 17.5614 8.51888C17.5534 8.55696 17.5126 8.57883 17.4804 8.55698C17.2482 8.39913 17.7434 6.95683 17.6777 6.53068C17.6738 6.50577 17.668 6.47943 17.6605 6.45193C17.4794 5.78903 17.4572 5.72091 17.7789 6.32813C17.8131 6.39323 17.8355 6.47613 17.8467 6.57083C17.875 6.79313 17.8493 7.07658 17.8079 7.33833Z" fill="#FFBF90"/>
<path d="M17.2278 8.62514C17.4178 8.65462 17.5857 8.76534 17.6876 8.92846L19.1449 11.261C19.2255 11.3901 19.3202 11.51 19.4271 11.6184L20.0393 12.2397C20.398 12.6036 20.4413 13.1733 20.1418 13.5873C19.7191 14.1715 18.8459 14.1628 18.4379 13.5683C18.0588 13.0158 17.6853 12.4659 17.6432 12.3828C17.5858 12.2695 16.9491 10.6436 16.51 9.518C16.3248 9.04311 16.7241 8.54699 17.2278 8.62514Z" fill="#FFA07F"/>
<path d="M19.6889 14.2208C19.4461 14.5564 19.4424 15.0193 19.7504 15.2963C20.1028 15.6133 20.5803 15.8913 20.9145 15.4957C21.1173 15.2557 21.1519 14.872 21.1098 14.4712C21.0327 13.7386 20.1208 13.624 19.6889 14.2208Z" fill="#FFA07F"/>
<path d="M13.9549 8.29176C13.9503 8.25792 13.9836 8.26146 13.9965 8.2931C14.0113 8.33235 14.0414 8.36155 14.0767 8.3633C14.113 8.36525 14.1529 8.3443 14.1796 8.31215C14.2073 8.28012 14.2257 8.23758 14.2471 8.19577C14.2478 8.19425 14.2496 8.19351 14.2512 8.194C14.2529 8.19449 14.2539 8.19609 14.2537 8.19779C14.2481 8.24421 14.2384 8.29182 14.2113 8.3352C14.1839 8.37935 14.1335 8.41485 14.074 8.4127C14.0444 8.4119 14.0149 8.39765 13.9953 8.37685C13.9749 8.35645 13.9635 8.3305 13.9571 8.3048C13.9562 8.30042 13.9555 8.29608 13.9549 8.29176Z" fill="white"/>
<path d="M14.3525 6.11677C14.3491 6.08449 14.3808 6.08837 14.3938 6.11811C14.4065 6.14956 14.4301 6.17126 14.4568 6.17276C14.4846 6.17436 14.5167 6.15831 14.5387 6.13281C14.5615 6.10745 14.5774 6.073 14.5963 6.03903C14.5971 6.03753 14.5989 6.03681 14.6005 6.03731C14.6022 6.03781 14.6033 6.03939 14.6031 6.04111C14.5999 6.07968 14.5926 6.1192 14.5703 6.15586C14.5476 6.19336 14.5051 6.22386 14.454 6.22211C14.4286 6.22151 14.4031 6.20911 14.3863 6.19126C14.3689 6.17376 14.3596 6.15156 14.3544 6.12981C14.3536 6.12542 14.3529 6.12107 14.3525 6.11677Z" fill="white"/>
<path d="M10.3116 5.21494C10.3119 5.215 10.3121 5.21526 10.3122 5.21557C10.3134 5.24719 10.3119 5.27872 10.3101 5.31059C10.3054 5.34164 10.3016 5.37349 10.2949 5.40464C10.2871 5.43529 10.2794 5.46629 10.2699 5.49684C10.259 5.52664 10.2477 5.55654 10.2353 5.58599C10.184 5.70314 10.1083 5.80869 10.0211 5.90179C9.93379 5.99509 9.83229 6.07474 9.72199 6.13724C9.61157 6.19869 9.49245 6.24451 9.36879 6.26186C9.36824 6.26194 9.3677 6.26161 9.36751 6.26109C9.36732 6.26056 9.36752 6.25998 9.36799 6.25968C9.47249 6.19235 9.57037 6.12415 9.66039 6.04769C9.75104 5.97194 9.83394 5.88939 9.91009 5.80164C9.98624 5.71364 10.0531 5.61919 10.1187 5.52229C10.134 5.49739 10.1503 5.47294 10.167 5.44839C10.1818 5.42299 10.1983 5.39809 10.2148 5.37279C10.2289 5.34659 10.2458 5.32114 10.2619 5.29484C10.2771 5.26847 10.2927 5.24179 10.3109 5.21521C10.3111 5.21499 10.3114 5.21488 10.3116 5.21494Z" fill="#6F0A32"/>
<path d="M8.24489 10.6005C8.22967 10.5134 8.31248 10.4833 8.33949 10.5675C8.34046 10.5705 8.34143 10.5736 8.34239 10.5766C8.38909 10.7228 8.41109 10.8834 8.38689 11.043C8.37474 11.1228 8.34859 11.2006 8.31404 11.2729C8.27679 11.344 8.23219 11.4112 8.17669 11.4681C8.16933 11.4759 8.16182 11.4836 8.15415 11.4911C8.08938 11.5544 8.04377 11.4744 8.09739 11.4015C8.13799 11.344 8.17469 11.2843 8.20049 11.22C8.22899 11.1569 8.24744 11.0905 8.25824 11.0227C8.28139 10.8863 8.26939 10.7437 8.24489 10.6005Z" fill="#6F0A32"/>
<path d="M19.1043 16.3407C19.089 16.2536 19.1718 16.2235 19.1989 16.3077C19.1998 16.3108 19.2008 16.3138 19.2018 16.3168C19.2485 16.463 19.2705 16.6236 19.2463 16.7832C19.2341 16.863 19.208 16.9408 19.1734 17.0131C19.1362 17.0842 19.0916 17.1514 19.0361 17.2083C19.0287 17.2161 19.0212 17.2238 19.0135 17.2313C18.9488 17.2946 18.9032 17.2146 18.9568 17.1417C18.9974 17.0842 19.0341 17.0245 19.0599 16.9602C19.0884 16.8971 19.1068 16.8307 19.1176 16.7629C19.1408 16.6265 19.1288 16.4839 19.1043 16.3407Z" fill="#6F0A32"/>
<path d="M18.2227 8.12313C18.2031 8.03691 18.2897 8.02062 18.3209 8.10334C18.3728 8.23904 18.4351 8.36789 18.5245 8.47344C18.5684 8.52629 18.618 8.57404 18.6747 8.61384C18.7297 8.65604 18.7917 8.68874 18.8559 8.71749C18.9393 8.75301 18.9407 8.845 18.8527 8.82351C18.8423 8.82097 18.8319 8.81821 18.8216 8.81524C18.7448 8.79449 18.6722 8.75939 18.6039 8.71719C18.5373 8.67259 18.4753 8.61899 18.4242 8.55649C18.322 8.43144 18.2592 8.28209 18.2249 8.13249C18.2241 8.12937 18.2234 8.12625 18.2227 8.12313Z" fill="#6F0A32"/>
<path opacity="0.29" d="M7.76797 6.14648C7.71824 6.14648 7.67032 6.1652 7.63375 6.19891L6.76405 7.00062C6.72522 7.03642 6.70312 7.08683 6.70312 7.13965C6.70312 7.30308 6.89645 7.38955 7.01827 7.28061L7.89998 6.49212C8.03549 6.37093 7.94977 6.14648 7.76797 6.14648Z" fill="#E8EBF6"/>
<path opacity="0.29" d="M7.2468 8.67867C7.0497 8.67867 6.95304 8.43855 7.09517 8.30199L8.44088 7.00901C8.47951 6.9719 8.53099 6.95117 8.58455 6.95117C8.77005 6.95117 8.86222 7.17611 8.73005 7.30627L7.40037 8.61575C7.35943 8.65607 7.30427 8.67867 7.2468 8.67867Z" fill="#E8EBF6"/>
<path d="M18.3936 2.7524C18.4495 2.6899 18.4037 2.44102 18.3397 2.38677C18.3219 2.37166 18.305 2.35555 18.2892 2.33865C18.173 2.21435 18.1018 2.02845 18.1631 1.85225C18.2263 1.6705 18.4151 1.5473 18.5987 1.512C18.5997 1.5118 18.6008 1.5116 18.6019 1.5114C18.7537 1.48277 18.8845 1.35448 18.8985 1.2006C18.9088 1.0868 18.9417 0.960504 19.0357 0.888654C19.1317 0.815304 19.264 0.824704 19.3581 0.880054C19.4792 0.951265 19.6481 0.944489 19.7069 0.816958C19.7879 0.64154 19.8825 0.472886 20.0119 0.328304C20.2145 0.101904 20.525 -0.0543462 20.793 0.0177538C21.0198 0.0787538 21.1701 0.290254 21.229 0.521104C21.2478 0.595076 21.2588 0.671106 21.2643 0.748372C21.2764 0.915819 21.5185 1.03507 21.6859 1.02255C21.8464 1.01055 22.0067 1.08645 22.072 1.2276C22.1212 1.33404 22.323 1.61154 22.44 1.61829C22.4762 1.62038 22.512 1.62446 22.5474 1.631C22.7396 1.6665 22.9198 1.79015 22.9627 1.98295C23.0218 2.2483 22.8052 2.5334 22.5596 2.68645C22.2175 2.89975 22.0028 3.54365 21.7471 3.85541C21.7104 3.90023 21.6676 3.94017 21.6192 3.97315C21.5363 4.02969 21.443 4.06162 21.3491 4.07151C21.0146 4.10672 20.5101 4.03869 20.1909 4.14455C19.9711 4.21745 19.7133 4.1839 19.5875 4.0091C19.4295 3.7895 19.1172 3.46853 18.8469 3.45668C18.7604 3.45288 18.6753 3.43944 18.5937 3.416C18.4442 3.37305 18.2946 3.28245 18.2632 3.1268C18.2375 2.9991 18.3002 2.85665 18.3936 2.7524Z" fill="#E8EBF6"/>
<path d="M18.1181 4.26457C18.0604 4.12912 18.1582 3.95772 18.3365 3.88172C18.5148 3.80572 18.7062 3.85392 18.7639 3.98937C18.8216 4.12482 18.7239 4.29622 18.5455 4.37222C18.3672 4.44822 18.1758 4.40002 18.1181 4.26457Z" fill="#E8EBF6"/>
<path d="M20.2119 2.54243C20.1625 2.54528 20.144 2.52643 20.1391 2.47688L20.1139 2.21543C20.1092 2.16393 20.1342 2.14188 20.1836 2.13898L20.5774 2.10818C20.617 2.10473 20.6317 2.08988 20.6341 2.05063C20.6364 2.01338 20.6179 1.99448 20.5845 1.99243L20.0431 1.95898C19.9941 1.95593 19.9737 1.93498 19.9769 1.88398L19.9915 1.64663C19.9946 1.59758 20.0175 1.57733 20.0665 1.58038L20.7001 1.61953C20.9551 1.63528 21.0986 1.76623 21.0848 1.98983L21.0721 2.19578C21.0585 2.41548 20.9358 2.48863 20.7479 2.50258L20.2119 2.54243ZM20.1362 3.00243C20.0852 2.99928 20.0669 2.97648 20.0699 2.92743L20.0858 2.67048C20.089 2.61948 20.1098 2.60108 20.1608 2.60423L20.5198 2.62643C20.5688 2.62948 20.5892 2.65043 20.586 2.70143L20.5701 2.95838C20.5671 3.00743 20.5442 3.02768 20.4951 3.02463L20.1362 3.00243Z" fill="#6F0A32"/>
<path d="M7.53814 4.55642C7.47159 4.48248 7.5252 4.1868 7.6009 4.12225C7.62198 4.10428 7.64195 4.08511 7.66064 4.06502C7.79819 3.91712 7.88204 3.69627 7.80884 3.48732C7.73329 3.27182 7.50879 3.12622 7.29079 3.08487C7.28954 3.08464 7.2883 3.0844 7.28705 3.08417C7.10675 3.0507 6.95119 2.8988 6.93404 2.71622C6.92139 2.58122 6.88194 2.43142 6.77019 2.34642C6.65599 2.25967 6.49904 2.27127 6.38754 2.33722C6.24404 2.42212 6.04364 2.41464 5.97337 2.26343C5.87674 2.05551 5.76385 1.85566 5.60989 1.68452C5.36869 1.41647 4.99964 1.23197 4.68179 1.31837C4.41289 1.39147 4.23509 1.64297 4.16599 1.91712C4.14385 2.00499 4.13111 2.09527 4.12476 2.187C4.111 2.38575 3.82395 2.52806 3.62524 2.51372C3.43469 2.49997 3.24474 2.59057 3.16774 2.75827C3.10972 2.88467 2.871 3.2147 2.73218 3.22309C2.68927 3.22568 2.64675 3.23064 2.60474 3.23852C2.37674 3.28127 2.16334 3.42857 2.11294 3.65757C2.04364 3.97267 2.30169 4.31037 2.59354 4.49122C3.00026 4.74321 3.25718 5.50678 3.5615 5.87599C3.60526 5.92908 3.65612 5.97636 3.71364 6.01537C3.8122 6.08219 3.92303 6.11979 4.03459 6.13124C4.43168 6.17201 5.03014 6.08964 5.40934 6.21432C5.67044 6.30017 5.97634 6.25952 6.12509 6.05167C6.31193 5.79059 6.68156 5.40863 7.00226 5.39372C7.10496 5.38894 7.20588 5.37272 7.30259 5.34467C7.47984 5.29322 7.65714 5.18522 7.69394 5.00037C7.72424 4.84867 7.64929 4.67982 7.53814 4.55642Z" fill="#E8EBF6"/>
<path d="M7.87265 6.3494C7.9407 6.18845 7.82415 5.98535 7.61225 5.8957C7.40035 5.8061 7.1734 5.8639 7.10535 6.02485C7.0373 6.1858 7.15385 6.3889 7.36575 6.47855C7.57765 6.56815 7.8046 6.51035 7.87265 6.3494Z" fill="#E8EBF6"/>
<path d="M8.24744 6.86137C8.30469 6.96542 8.46219 6.98862 8.59914 6.91322C8.73609 6.83782 8.80069 6.69237 8.74344 6.58832C8.68614 6.48427 8.52869 6.46107 8.39174 6.53652C8.25474 6.61187 8.19019 6.75732 8.24744 6.86137Z" fill="#E8EBF6"/>
<path d="M6.63877 3.52618C6.55462 3.45273 6.42912 3.44908 6.32842 3.48578C6.22155 3.52473 6.10517 3.54614 5.9921 3.53378C5.94563 3.52869 5.89906 3.52609 5.85437 3.52308C5.7589 3.51666 5.67731 3.45218 5.64635 3.36164C5.63419 3.32609 5.62118 3.29082 5.60722 3.25588C5.55817 3.13313 5.50387 3.00068 5.41552 2.90048C5.33802 2.81258 5.22037 2.73613 5.10077 2.78873C4.99537 2.83508 4.95842 2.95048 4.95242 3.05718C4.94548 3.18076 4.96277 3.30737 4.97701 3.43053C4.97859 3.4442 4.97287 3.45764 4.96232 3.46648C4.88109 3.53442 4.78595 3.5844 4.6823 3.60608C4.64376 3.61414 4.60531 3.62273 4.56697 3.63188C4.5357 3.63935 4.50454 3.64721 4.47347 3.65544C4.44386 3.66328 4.42746 3.62755 4.45367 3.61168C4.50422 3.58103 4.45122 3.50623 4.40092 3.53668C4.39776 3.5386 4.39459 3.54052 4.39143 3.54244C4.18863 3.66562 3.97205 3.78014 3.77867 3.91763C3.68207 3.98628 3.60327 4.10668 3.67822 4.22123C3.71172 4.27243 3.76722 4.30418 3.82037 4.33133C3.89142 4.36763 3.96392 4.40123 4.03722 4.43273C4.05792 4.44163 4.06306 4.46864 4.04867 4.48598C4.0126 4.52944 3.98709 4.58054 3.97812 4.63938C3.96172 4.74663 4.02747 4.84428 4.13432 4.86593C4.23862 4.88703 4.35047 4.84333 4.44092 4.79518C4.48515 4.77165 4.53731 4.77244 4.58609 4.7839C4.59853 4.78683 4.61121 4.78908 4.62407 4.79063C4.75782 4.80673 4.89552 4.77263 5.02492 4.74203C5.08336 4.72825 5.14549 4.7461 5.18254 4.79336C5.23136 4.85564 5.27639 4.92073 5.31892 4.98523C5.35257 5.03628 5.38517 5.08798 5.41767 5.13973C5.44507 5.18328 5.51972 5.14508 5.49812 5.09733C5.47428 5.04457 5.45156 4.99138 5.4299 4.9378C5.37508 4.80219 5.46445 4.65837 5.57857 4.56687C5.59959 4.55002 5.62229 4.53419 5.64664 4.52268C5.8255 4.4381 5.99794 4.33621 6.15222 4.21548C6.25993 4.13121 6.38557 4.06476 6.50834 4.00451C6.58935 3.96475 6.6566 3.90339 6.69237 3.81253C6.73117 3.71438 6.72187 3.59873 6.63877 3.52618ZM6.26516 3.76803C6.31884 3.89016 6.16443 3.98155 6.03197 3.96568C5.97679 3.9591 5.92171 3.95137 5.86672 3.94297C5.85244 3.9408 5.84825 3.9225 5.86002 3.91413C5.93957 3.85769 6.01815 3.79998 6.09653 3.74197C6.14843 3.70357 6.22545 3.69567 6.25712 3.75193C6.2601 3.75723 6.26277 3.7626 6.26516 3.76803ZM5.64222 4.34178C5.62741 4.37476 5.60805 4.40475 5.58534 4.43188C5.56789 4.45274 5.5449 4.46801 5.52002 4.47898C5.49024 4.49212 5.46024 4.50477 5.43004 4.51693C5.35838 4.5458 5.27856 4.50548 5.25772 4.43109C5.24169 4.37385 5.26585 4.31324 5.3159 4.28117C5.35299 4.25741 5.38997 4.23349 5.42682 4.20939C5.54098 4.13475 5.69819 4.21741 5.64222 4.34178ZM4.52644 4.64679C4.51881 4.65124 4.50914 4.65085 4.50243 4.6451C4.49866 4.64187 4.49507 4.63853 4.49165 4.6351C4.47591 4.61928 4.49265 4.59764 4.5141 4.60379C4.51641 4.60445 4.51871 4.60511 4.52102 4.60577C4.54002 4.61117 4.5435 4.63685 4.52644 4.64679ZM4.64842 4.54313C4.58819 4.52806 4.5284 4.51134 4.46905 4.49322C4.44575 4.48611 4.42925 4.46547 4.43076 4.44116C4.43241 4.41453 4.45449 4.39359 4.48116 4.39322C4.55672 4.39217 4.63309 4.4048 4.70529 4.42783C4.75744 4.44447 4.76015 4.512 4.71267 4.53922C4.69715 4.54812 4.67878 4.55066 4.66141 4.54636C4.65707 4.54528 4.65274 4.54421 4.64842 4.54313ZM4.32231 4.41764C4.3316 4.41481 4.34061 4.42246 4.34004 4.43216C4.33949 4.44156 4.33017 4.44803 4.32129 4.4449C4.32085 4.44474 4.32042 4.44459 4.31998 4.44444C4.3071 4.43989 4.30697 4.42239 4.32001 4.41835C4.32078 4.41811 4.32154 4.41787 4.32231 4.41764ZM4.11245 3.98395C4.12534 3.88829 4.21452 3.82819 4.30655 3.79908C4.36849 3.7795 4.43088 3.76135 4.49367 3.74466C4.50454 3.74177 4.51592 3.7449 4.52677 3.74788C4.58707 3.76467 4.61141 3.83716 4.57562 3.8885C4.56472 3.90413 4.55405 3.91992 4.54362 3.93588C4.48989 4.01809 4.43869 4.10334 4.40047 4.19409C4.39539 4.20616 4.38487 4.21567 4.37192 4.21763C4.26627 4.23383 4.15492 4.20278 4.12047 4.09138C4.10964 4.05632 4.10762 4.0198 4.11245 3.98395ZM5.59662 3.60453C5.61186 3.60462 5.62508 3.61533 5.62853 3.63018C5.64543 3.70276 5.65884 3.77617 5.66878 3.85012C5.67291 3.88088 5.64578 3.9064 5.61522 3.90098C5.45184 3.87228 5.28918 3.83951 5.12726 3.80353C5.12265 3.80251 5.11915 3.79878 5.11843 3.79412C5.11796 3.79113 5.11865 3.78804 5.12038 3.78556C5.14928 3.74415 5.17586 3.70125 5.19952 3.65698C5.2113 3.63486 5.23209 3.61804 5.25708 3.61617C5.37006 3.60772 5.48336 3.60382 5.59662 3.60453ZM5.37722 3.94998C5.45471 3.96514 5.47608 4.0666 5.41011 4.10999C5.3892 4.12374 5.36826 4.13743 5.34727 4.15107C5.2792 4.19531 5.18802 4.1573 5.17121 4.07787C5.15344 3.9939 5.22867 3.91989 5.31276 3.93705C5.33423 3.94144 5.35572 3.94575 5.37722 3.94998ZM5.10992 3.5379C5.09494 3.53945 5.08138 3.52877 5.07956 3.51382C5.07813 3.50207 5.08436 3.49026 5.09583 3.48736C5.10181 3.48585 5.10775 3.48506 5.11362 3.48518C5.13027 3.48557 5.13888 3.49418 5.1427 3.50624C5.14766 3.52193 5.13294 3.53554 5.11657 3.53721C5.11435 3.53744 5.11213 3.53767 5.10992 3.5379ZM4.91789 3.65551C4.96501 3.64811 5.00849 3.68128 5.01555 3.72845C5.01702 3.73831 5.01852 3.74816 5.02005 3.75802C5.02067 3.76202 5.01965 3.76612 5.01729 3.76941C5.01382 3.77423 5.0078 3.77641 5.00201 3.77506C4.96688 3.76682 4.93179 3.7584 4.89673 3.74981C4.86129 3.74112 4.84835 3.69775 4.87398 3.67178C4.88104 3.66462 4.8902 3.65994 4.90013 3.65834C4.90605 3.65738 4.91197 3.65644 4.91789 3.65551ZM4.80454 3.82143C4.86816 3.83748 4.89183 3.91512 4.84292 3.95886C4.79536 4.00138 4.74475 4.04046 4.69142 4.07578C4.6359 4.11256 4.57589 4.14825 4.51296 4.17534C4.51151 4.17597 4.51006 4.17445 4.51077 4.17303C4.56859 4.05963 4.63807 3.95158 4.71685 3.85076C4.73751 3.82432 4.772 3.81323 4.80454 3.82143ZM4.72144 3.70221C4.71997 3.70394 4.7176 3.70466 4.71541 3.70408C4.70932 3.70246 4.70936 3.6935 4.71551 3.69219C4.72112 3.69099 4.72515 3.69784 4.72144 3.70221ZM4.66147 4.20133C4.71547 4.17094 4.76777 4.13661 4.81772 4.09883C4.91542 4.02495 5.07472 4.07037 5.10189 4.1898C5.11577 4.25083 5.09019 4.31441 5.03688 4.34719C5.01796 4.35881 4.99901 4.37038 4.98002 4.38188C4.93819 4.40724 4.88593 4.40625 4.84184 4.38508C4.72563 4.32928 4.59836 4.29873 4.46763 4.30266C4.46278 4.30281 4.45921 4.29816 4.46076 4.29356C4.46149 4.29141 4.46321 4.28974 4.46538 4.28908C4.53383 4.26806 4.59951 4.23619 4.66147 4.20133ZM5.07782 4.43066C5.11393 4.40857 5.16124 4.42737 5.17275 4.4681C5.18115 4.49784 5.18982 4.5275 5.19874 4.55708C5.2052 4.57849 5.19337 4.60124 5.17199 4.60778C5.15748 4.61223 5.14177 4.60796 5.13112 4.59714C5.10041 4.56592 5.06841 4.53593 5.03432 4.50798C5.01716 4.49389 5.0184 4.46685 5.03738 4.45532C5.05087 4.44712 5.06435 4.4389 5.07782 4.43066ZM4.8946 4.54035C4.90544 4.53392 4.91905 4.53433 4.92929 4.54167C4.93157 4.54331 4.93385 4.54496 4.93612 4.54662C4.96369 4.56678 4.94668 4.60586 4.91296 4.60043C4.91026 4.6 4.90756 4.59956 4.90486 4.59911C4.87545 4.59424 4.86895 4.55554 4.8946 4.54035ZM5.97587 3.62498C5.98137 3.62558 5.98696 3.6262 5.99261 3.62687C6.02674 3.63089 6.03679 3.67268 6.00917 3.69313C5.98483 3.71109 5.9604 3.72894 5.93591 3.74669C5.85885 3.80253 5.74936 3.75481 5.72957 3.66173C5.72375 3.63415 5.74459 3.60815 5.77275 3.60949C5.84062 3.6127 5.9084 3.61768 5.97587 3.62498ZM5.07487 2.93238C5.12952 2.83138 5.23952 2.85928 5.31122 2.92403C5.39962 3.00383 5.44942 3.11923 5.49577 3.22648C5.5126 3.26544 5.52833 3.30484 5.54299 3.34461C5.57369 3.42793 5.50912 3.51259 5.42037 3.51558C5.41756 3.51568 5.41474 3.51577 5.41193 3.51588C5.3165 3.51933 5.23259 3.41441 5.13892 3.39583C5.10205 3.38852 5.06292 3.36613 5.05926 3.32872C5.05613 3.29666 5.05317 3.26458 5.05047 3.23248C5.04237 3.13603 5.02657 3.02153 5.07487 2.93238ZM3.87907 4.25808C3.83252 4.23483 3.77222 4.20923 3.74827 4.15943C3.72537 4.11178 3.75247 4.06483 3.78582 4.03063C3.80266 4.01337 3.8214 3.99807 3.84149 3.98431C3.91473 3.93417 4.00808 4.02347 4.03062 4.10933C4.06132 4.22633 4.16392 4.30448 4.28342 4.31273C4.30823 4.31446 4.33268 4.31338 4.35693 4.311C4.35847 4.31085 4.35967 4.31227 4.35924 4.31376C4.35901 4.31456 4.35835 4.31519 4.35753 4.31536C4.32122 4.32284 4.28457 4.33365 4.24901 4.34775C4.1958 4.36886 4.13625 4.37521 4.0836 4.35272C4.01452 4.3232 3.9463 4.29166 3.87907 4.25808ZM4.28472 4.76253C4.20182 4.78813 4.06242 4.79178 4.06702 4.66938C4.06863 4.6262 4.08707 4.58679 4.11415 4.55256C4.14889 4.50865 4.21062 4.50287 4.26321 4.52208C4.27816 4.52754 4.29315 4.53291 4.30819 4.53819C4.33319 4.54697 4.35138 4.5681 4.36037 4.59303C4.38212 4.65289 4.37209 4.73187 4.31214 4.75337C4.30305 4.75663 4.29392 4.75969 4.28472 4.76253ZM4.70163 4.70398C4.67394 4.70452 4.66776 4.67084 4.69185 4.65717C4.69787 4.65375 4.70503 4.65268 4.71179 4.65417C4.74217 4.66085 4.7416 4.7026 4.71052 4.70373C4.70756 4.70384 4.70459 4.70392 4.70163 4.70398ZM5.25517 4.73293C5.25583 4.73482 5.25345 4.73613 5.25222 4.73455C5.24621 4.72683 5.24019 4.71909 5.23406 4.71146C5.23071 4.70729 5.23327 4.70088 5.23857 4.70013C5.24175 4.69967 5.2448 4.70158 5.2458 4.70463C5.24889 4.71406 5.25192 4.72353 5.25517 4.73293ZM5.91382 4.26928C5.85328 4.30774 5.76963 4.2389 5.77576 4.16744C5.77781 4.14362 5.77887 4.11969 5.77912 4.09578C5.77927 4.08096 5.77912 4.0661 5.77876 4.05123C5.77838 4.03553 5.79222 4.0234 5.80772 4.02588C5.92682 4.04448 6.04617 4.06378 6.16687 4.06758C6.17206 4.06776 6.1747 4.07382 6.17107 4.07754C6.0968 4.15385 6.00246 4.21297 5.91382 4.26928ZM6.59612 3.80268C6.54897 3.89213 6.44907 3.94313 6.35342 3.96268C6.35285 3.96281 6.35236 3.96223 6.35255 3.96168C6.35905 3.94257 6.36419 3.92288 6.36747 3.90233C6.37012 3.88562 6.37147 3.86905 6.37155 3.85273C6.37216 3.72375 6.38492 3.52965 6.51002 3.56108C6.62562 3.59008 6.64642 3.70723 6.59612 3.80268Z" fill="#6F0A32"/>
<path d="M10.6317 0.961446C10.6666 1.0042 10.6906 1.0378 10.7172 1.07615C10.7425 1.1135 10.767 1.15125 10.7903 1.18935C10.8369 1.26575 10.8795 1.34385 10.9188 1.42375C10.9975 1.58345 11.0624 1.7501 11.1132 1.921C11.1625 2.09265 11.196 2.2696 11.2091 2.44675C11.2203 2.62465 11.2066 2.8039 11.1634 2.9712C11.1606 2.98215 11.1494 2.98875 11.1385 2.9859C11.1312 2.984 11.1258 2.97845 11.1239 2.97165L11.1236 2.97065C11.0771 2.8066 11.0213 2.6559 10.9516 2.5124C10.8788 2.36985 10.8004 2.23425 10.7122 2.10455C10.6233 1.97525 10.5294 1.85075 10.432 1.73005C10.3832 1.6698 10.3339 1.61015 10.2839 1.5521C10.2594 1.5225 10.2342 1.49405 10.2095 1.4655L10.1398 1.3863L10.1356 1.38155C10.0171 1.2467 10.0303 1.0413 10.1651 0.922746C10.3 0.804196 10.5054 0.817396 10.6239 0.952246C10.6263 0.954996 10.6294 0.958746 10.6317 0.961446Z" fill="#E8EBF6"/>
<path d="M9.39562 1.80424C9.43647 1.81884 9.46337 1.83089 9.49502 1.84554C9.52512 1.85994 9.55477 1.87504 9.58357 1.89074C9.64137 1.92249 9.69702 1.95699 9.75107 1.99424C9.85912 2.06854 9.96037 2.15334 10.0534 2.24664C10.1457 2.34099 10.2296 2.44484 10.2989 2.55669C10.3674 2.66959 10.4194 2.79269 10.4446 2.91789C10.4469 2.92929 10.4395 2.94044 10.4281 2.94274C10.4219 2.94399 10.4159 2.94239 10.4112 2.93894L10.4103 2.93824C10.3102 2.86249 10.2137 2.79999 10.1132 2.74689C10.011 2.69564 9.91032 2.65049 9.80667 2.61214C9.70272 2.57424 9.59867 2.54054 9.49497 2.50929L9.19702 2.42314L9.19587 2.42279C9.02337 2.37289 8.92392 2.19259 8.97382 2.02009C9.02372 1.84759 9.20402 1.74814 9.37652 1.79804C9.38267 1.79984 9.38967 1.80214 9.39562 1.80424Z" fill="#E8EBF6"/>
</svg>
