<svg width="25" height="25" viewBox="0 0 25 25" fill="none" xmlns="http://www.w3.org/2000/svg">
<g clip-path="url(#clip0_1661_5975)">
<path d="M15.287 7.08773C14.4051 6.99579 13.5396 7.24062 12.7506 7.6214C12.0343 7.96711 11.3634 8.41494 10.7562 8.92783C9.61634 9.89067 8.66131 11.1398 8.22195 12.5797C7.7814 14.0235 7.96044 15.5469 8.66118 16.8775C9.39653 18.274 10.5974 19.3892 11.946 20.1856C13.4226 21.0574 15.1075 21.5732 16.8191 21.6766C18.3867 21.7713 20.063 21.5203 21.3786 20.6101C22.5787 19.7799 23.2829 18.4503 23.4711 17.0194C23.6655 15.5408 23.3222 14.0549 22.5872 12.7661C21.807 11.3979 20.6478 10.279 19.3701 9.37533C17.9786 8.39124 16.3611 7.52609 14.6316 7.4006C14.2149 7.37035 13.7981 7.38994 13.3858 7.45679C13.322 7.46719 13.3491 7.56428 13.4126 7.55402C15.1719 7.26869 16.91 7.95963 18.3916 8.85542C19.7024 9.64789 20.9276 10.6327 21.8612 11.8555C22.7651 13.0394 23.3649 14.4436 23.4201 15.9435C23.4716 17.3433 23.0687 18.7935 22.1102 19.8423C21.0473 21.0053 19.4551 21.4998 17.92 21.5819C16.269 21.6701 14.5884 21.3312 13.0813 20.6583C10.3758 19.4504 7.77055 16.8548 8.10248 13.6617C8.25591 12.1858 9.02217 10.835 10.022 9.76438C10.5299 9.22058 11.1036 8.73899 11.7232 8.32743C12.424 7.86206 13.1926 7.45871 14.0175 7.27041C14.4349 7.1751 14.8608 7.14425 15.2868 7.18866C15.3514 7.19528 15.351 7.09441 15.287 7.08773Z" fill="#E9FBFF"/>
<path d="M15.9553 22.0183C15.0545 22.3308 14.0756 22.1913 13.1566 22.0422C12.277 21.8994 11.4051 21.6942 10.5668 21.3895C8.98268 20.8135 7.51555 19.8472 6.56443 18.4319C5.68346 17.1211 5.38554 15.5434 5.77083 14.0081C6.14473 12.518 7.06686 11.185 8.25031 10.2189C10.971 7.99793 14.8535 7.84583 18.1845 8.26401C19.1565 8.38606 20.1213 8.57483 21.0631 8.84541C21.8521 9.0721 22.6716 9.34235 23.3189 9.8659C24.0021 10.4185 24.3361 11.225 24.3089 12.0978C24.2805 13.005 23.8842 13.8424 23.377 14.5781C22.4291 15.9532 21.1827 17.1638 19.8695 18.1875C18.5478 19.2178 17.0879 20.0735 15.5406 20.7176C15.1686 20.8725 14.7914 21.0145 14.4102 21.1451C14.3492 21.166 14.3754 21.2634 14.437 21.2423C17.7045 20.1225 20.6512 18.0962 22.8513 15.4314C23.9029 14.1576 24.9373 12.3883 24.1369 10.719C23.7924 10.0004 23.1193 9.52655 22.4093 9.20997C21.5574 8.83012 20.6298 8.59886 19.7186 8.41346C17.8645 8.03625 15.9282 7.88713 14.0403 8.04062C12.3032 8.18187 10.5664 8.61514 9.06456 9.52304C6.42669 11.1178 4.64516 14.4851 5.93583 17.4925C6.58779 19.0117 7.85973 20.1953 9.30972 20.9493C10.1201 21.3707 10.9892 21.6715 11.8754 21.8874C12.7804 22.1079 13.7353 22.2896 14.6691 22.3051C15.115 22.3124 15.5593 22.2622 15.982 22.1155C16.043 22.0945 16.0169 21.997 15.9553 22.0183Z" fill="#E9FBFF"/>
<path d="M8.5521 12.9121C8.74893 12.7152 8.74893 12.3961 8.5521 12.1993C8.35527 12.0024 8.03614 12.0024 7.83931 12.1993C7.64247 12.3961 7.64247 12.7152 7.83931 12.9121C8.03614 13.1089 8.35527 13.1089 8.5521 12.9121Z" fill="#E9FBFF"/>
<path d="M9.306 7.07683C9.306 7.24382 9.17058 7.37924 9.00359 7.37924C8.83659 7.37924 8.70117 7.24382 8.70117 7.07683C8.70117 6.90984 8.83659 6.77441 9.00359 6.77441C9.17058 6.77441 9.306 6.90977 9.306 7.07683Z" fill="#E9FBFF"/>
<path d="M7.69223 17.1911C7.69223 17.3581 7.55681 17.4935 7.38982 17.4935C7.22282 17.4935 7.0874 17.3581 7.0874 17.1911C7.0874 17.0241 7.22282 16.8887 7.38982 16.8887C7.55681 16.8887 7.69223 17.0241 7.69223 17.1911Z" fill="#E9FBFF"/>
<path d="M20.4283 12.3028C20.4283 12.442 20.3154 12.5547 20.1763 12.5547C20.0371 12.5547 19.9243 12.4419 19.9243 12.3028C19.9243 12.1636 20.0372 12.0508 20.1763 12.0508C20.3154 12.0508 20.4283 12.1636 20.4283 12.3028Z" fill="#E9FBFF"/>
<path d="M11.726 12.1684C11.726 12.2333 11.6733 12.286 11.6083 12.286C11.5434 12.286 11.4907 12.2333 11.4907 12.1684C11.4907 12.1035 11.5434 12.0508 11.6083 12.0508C11.6733 12.0508 11.726 12.1034 11.726 12.1684Z" fill="#E9FBFF"/>
<path d="M19.352 5.54857C19.352 5.65063 19.2693 5.73337 19.1672 5.73337C19.0652 5.73337 18.9824 5.65063 18.9824 5.54857C18.9824 5.4465 19.0652 5.36377 19.1672 5.36377C19.2693 5.36377 19.352 5.4465 19.352 5.54857Z" fill="#E9FBFF"/>
<path d="M19.352 20.5368C19.352 20.6389 19.2693 20.7216 19.1672 20.7216C19.0652 20.7216 18.9824 20.6389 18.9824 20.5368C18.9824 20.4348 19.0652 20.3521 19.1672 20.3521C19.2693 20.3521 19.352 20.4348 19.352 20.5368Z" fill="#E9FBFF"/>
<path d="M4.80438 20.4183C5.06418 20.4183 5.27479 20.2077 5.27479 19.9479C5.27479 19.6881 5.06418 19.4775 4.80438 19.4775C4.54459 19.4775 4.33398 19.6881 4.33398 19.9479C4.33398 20.2077 4.54459 20.4183 4.80438 20.4183Z" fill="#E9FBFF"/>
<path d="M4.36618 9.54906C4.36618 9.65112 4.28344 9.73385 4.18138 9.73385C4.07932 9.73385 3.99658 9.65112 3.99658 9.54906C3.99658 9.44699 4.07932 9.36426 4.18138 9.36426C4.28344 9.36426 4.36618 9.44699 4.36618 9.54906Z" fill="#E9FBFF"/>
<path d="M15.6231 4.02061C15.92 4.02061 16.1607 3.7799 16.1607 3.48296C16.1607 3.18603 15.92 2.94531 15.6231 2.94531C15.3262 2.94531 15.0854 3.18603 15.0854 3.48296C15.0854 3.7799 15.3262 4.02061 15.6231 4.02061Z" fill="#E9FBFF"/>
<path d="M23.5184 11.0758C23.7596 11.0758 23.9552 10.8803 23.9552 10.639C23.9552 10.3977 23.7596 10.2021 23.5184 10.2021C23.2771 10.2021 23.0815 10.3977 23.0815 10.639C23.0815 10.8803 23.2771 11.0758 23.5184 11.0758Z" fill="#E9FBFF"/>
<path d="M11.1466 18.6785L11.4918 18.3961C11.3379 18.0444 10.9687 17.9854 10.7612 17.9814L10.4077 18.1653C10.5099 18.6781 11.1466 18.6785 11.1466 18.6785Z" fill="#1D3542"/>
<path d="M14.02 18.3154C14.02 18.3154 13.4552 17.9703 13.0786 18.4096C13.0786 18.4096 12.7335 18.1271 12.1372 18.5665L11.9175 18.6606C11.9175 18.6606 12.5137 19.1313 13.1727 18.7861C13.1727 18.7861 14.2083 18.943 14.2397 18.6606C14.2711 18.3782 14.02 18.3154 14.02 18.3154Z" fill="#1D3542"/>
<path d="M15.8248 11.9299C15.8248 11.9299 17.6449 11.1454 17.9901 9.60773C18.3352 8.07004 17.0172 6.37549 17.0172 6.37549C17.0172 6.37549 11.557 11.0512 12.7494 12.0241C13.3646 12.5259 15.8247 12.3065 15.8247 12.3065" fill="#1D3542"/>
<mask id="mask0_1661_5975" style="mask-type:luminance" maskUnits="userSpaceOnUse" x="12" y="6" width="7" height="7">
<path d="M15.8253 11.9285C15.8253 11.9285 17.6454 11.144 17.9906 9.60626C18.3357 8.06858 17.0177 6.37402 17.0177 6.37402C17.0177 6.37402 11.5574 11.0498 12.7499 12.0226C13.3651 12.5244 15.8252 12.305 15.8252 12.305" fill="white"/>
</mask>
<g mask="url(#mask0_1661_5975)">
<path opacity="0.22" d="M13.6602 10.2035C13.6602 10.2035 14.2565 11.7098 15.3548 11.647C16.4531 11.5842 17.2261 10.1827 17.2947 9.47135C17.3632 8.75995 13.5348 9.41893 13.6602 10.2035Z" fill="#1D3542"/>
</g>
<path d="M13.7212 19.4951C13.7212 19.4951 12.5288 21.3152 12.4659 21.5976C12.4659 21.5976 8.4178 21.8173 7.4764 22.2252C6.535 22.6332 6.18976 23.8571 7.00567 24.4847C7.82157 25.1123 13.2505 25.3319 14.7568 24.7985C14.7568 24.7985 22.5393 25.834 23.8573 24.3277C25.1753 22.8215 21.4723 21.3465 18.3343 21.5035C18.3343 21.5035 17.2359 19.3382 16.6397 19.0558C16.0434 18.7734 13.7212 19.4951 13.7212 19.4951Z" fill="#D25A5C"/>
<mask id="mask1_1661_5975" style="mask-type:luminance" maskUnits="userSpaceOnUse" x="6" y="18" width="19" height="8">
<path d="M13.7207 19.4907C13.7207 19.4907 12.5283 21.3108 12.4655 21.5933C12.4655 21.5933 8.41731 21.8129 7.47591 22.2209C6.53451 22.6288 6.18928 23.8527 7.00518 24.4803C7.82108 25.1079 13.25 25.3275 14.7563 24.7941C14.7563 24.7941 22.5388 25.8296 23.8568 24.3233C25.1748 22.8171 21.4718 21.3421 18.3338 21.4991C18.3338 21.4991 17.2354 19.3338 16.6392 19.0514C16.0429 18.769 13.7207 19.4907 13.7207 19.4907Z" fill="white"/>
</mask>
<g mask="url(#mask1_1661_5975)">
<path opacity="0.23" d="M15.2769 24.8577C15.2769 24.8577 13.7208 24.7322 12.3086 23.728C12.3086 23.728 13.1872 24.9519 14.1915 25.1402C15.1957 25.3285 15.2769 24.8577 15.2769 24.8577Z" fill="#D25A5C"/>
</g>
<mask id="mask2_1661_5975" style="mask-type:luminance" maskUnits="userSpaceOnUse" x="6" y="18" width="19" height="8">
<path d="M13.7207 19.4907C13.7207 19.4907 12.5283 21.3108 12.4655 21.5933C12.4655 21.5933 8.41731 21.8129 7.47591 22.2209C6.53451 22.6288 6.18928 23.8527 7.00518 24.4803C7.82108 25.1079 13.25 25.3275 14.7563 24.7941C14.7563 24.7941 22.5388 25.8296 23.8568 24.3233C25.1748 22.8171 21.4718 21.3421 18.3338 21.4991C18.3338 21.4991 17.2354 19.3338 16.6392 19.0514C16.0429 18.769 13.7207 19.4907 13.7207 19.4907Z" fill="white"/>
</mask>
<g mask="url(#mask2_1661_5975)">
<path opacity="0.23" d="M9.36 22.3154C9.3003 22.3811 8.98345 22.5351 9.29725 22.6606C9.61105 22.7861 11.337 23.7276 11.7763 23.6021C12.2157 23.4765 9.67386 21.9703 9.36 22.3154Z" fill="#D25A5C"/>
</g>
<mask id="mask3_1661_5975" style="mask-type:luminance" maskUnits="userSpaceOnUse" x="6" y="18" width="19" height="8">
<path d="M13.7207 19.4907C13.7207 19.4907 12.5283 21.3108 12.4655 21.5933C12.4655 21.5933 8.41731 21.8129 7.47591 22.2209C6.53451 22.6288 6.18928 23.8527 7.00518 24.4803C7.82108 25.1079 13.25 25.3275 14.7563 24.7941C14.7563 24.7941 22.5388 25.8296 23.8568 24.3233C25.1748 22.8171 21.4718 21.3421 18.3338 21.4991C18.3338 21.4991 17.2354 19.3338 16.6392 19.0514C16.0429 18.769 13.7207 19.4907 13.7207 19.4907Z" fill="white"/>
</mask>
<g mask="url(#mask3_1661_5975)">
<path opacity="0.23" d="M18.6426 23.4402C18.71 23.4448 20.0593 23.0996 20.6556 22.8485C21.2519 22.5974 21.3774 22.4091 21.5343 22.4091C21.6911 22.4091 21.6598 22.0953 21.2205 22.1267C20.7811 22.1581 18.9611 22.9426 18.9611 22.9426L18.6426 23.4858" fill="#D25A5C"/>
</g>
<mask id="mask4_1661_5975" style="mask-type:luminance" maskUnits="userSpaceOnUse" x="6" y="18" width="19" height="8">
<path d="M13.7207 19.4907C13.7207 19.4907 12.5283 21.3108 12.4655 21.5933C12.4655 21.5933 8.41731 21.8129 7.47591 22.2209C6.53451 22.6288 6.18928 23.8527 7.00518 24.4803C7.82108 25.1079 13.25 25.3275 14.7563 24.7941C14.7563 24.7941 22.5388 25.8296 23.8568 24.3233C25.1748 22.8171 21.4718 21.3421 18.3338 21.4991C18.3338 21.4991 17.2354 19.3338 16.6392 19.0514C16.0429 18.769 13.7207 19.4907 13.7207 19.4907Z" fill="white"/>
</mask>
<g mask="url(#mask4_1661_5975)">
<path opacity="0.23" d="M18.2065 22.6629C18.2065 22.6629 16.763 22.9767 16.5433 22.9454C16.3236 22.914 16.9827 21.5646 18.5203 21.4391C18.5203 21.4391 17.014 21.4077 16.0098 22.5374C15.0056 23.6671 14.1584 22.255 13.5308 21.9412C13.5308 21.9412 14.5393 23.213 14.5842 23.3773C14.5842 23.3773 16.1459 23.1765 16.5957 23.2492C16.5957 23.2492 17.7358 23.2592 18.285 22.6473L18.2065 22.6629Z" fill="#D25A5C"/>
</g>
<mask id="mask5_1661_5975" style="mask-type:luminance" maskUnits="userSpaceOnUse" x="6" y="18" width="19" height="8">
<path d="M13.7207 19.4907C13.7207 19.4907 12.5283 21.3108 12.4655 21.5933C12.4655 21.5933 8.41731 21.8129 7.47591 22.2209C6.53451 22.6288 6.18928 23.8527 7.00518 24.4803C7.82108 25.1079 13.25 25.3275 14.7563 24.7941C14.7563 24.7941 22.5388 25.8296 23.8568 24.3233C25.1748 22.8171 21.4718 21.3421 18.3338 21.4991C18.3338 21.4991 17.2354 19.3338 16.6392 19.0514C16.0429 18.769 13.7207 19.4907 13.7207 19.4907Z" fill="white"/>
</mask>
<g mask="url(#mask5_1661_5975)">
<path d="M12.8349 23.2734C13.4127 23.5161 14.0229 23.462 14.6315 23.397C15.3609 23.3191 16.0923 23.2645 16.8263 23.2753C17.3696 23.2833 17.9106 23.3088 18.4353 23.4551C18.8038 23.5579 19.1759 23.6654 19.5339 23.8009C19.5622 23.8116 19.5746 23.7662 19.5464 23.7555C18.7406 23.4504 17.9482 23.2649 17.0867 23.2347C16.37 23.2095 15.6524 23.2466 14.9393 23.3175C14.2379 23.3872 13.5196 23.5104 12.8473 23.228C12.8195 23.2163 12.8073 23.2618 12.8349 23.2734Z" fill="#AA353B"/>
</g>
<mask id="mask6_1661_5975" style="mask-type:luminance" maskUnits="userSpaceOnUse" x="6" y="18" width="19" height="8">
<path d="M13.7207 19.4907C13.7207 19.4907 12.5283 21.3108 12.4655 21.5933C12.4655 21.5933 8.41731 21.8129 7.47591 22.2209C6.53451 22.6288 6.18928 23.8527 7.00518 24.4803C7.82108 25.1079 13.25 25.3275 14.7563 24.7941C14.7563 24.7941 22.5388 25.8296 23.8568 24.3233C25.1748 22.8171 21.4718 21.3421 18.3338 21.4991C18.3338 21.4991 17.2354 19.3338 16.6392 19.0514C16.0429 18.769 13.7207 19.4907 13.7207 19.4907Z" fill="white"/>
</mask>
<g mask="url(#mask6_1661_5975)">
<path d="M12.3957 23.8638C13.2227 24.3414 14.1108 24.6791 15.0465 24.8711C15.076 24.8772 15.0887 24.8318 15.059 24.8257C14.1275 24.6346 13.243 24.2988 12.4194 23.8232C12.3932 23.808 12.3695 23.8486 12.3957 23.8638Z" fill="#AA353B"/>
</g>
<mask id="mask7_1661_5975" style="mask-type:luminance" maskUnits="userSpaceOnUse" x="6" y="18" width="19" height="8">
<path d="M13.7207 19.4907C13.7207 19.4907 12.5283 21.3108 12.4655 21.5933C12.4655 21.5933 8.41731 21.8129 7.47591 22.2209C6.53451 22.6288 6.18928 23.8527 7.00518 24.4803C7.82108 25.1079 13.25 25.3275 14.7563 24.7941C14.7563 24.7941 22.5388 25.8296 23.8568 24.3233C25.1748 22.8171 21.4718 21.3421 18.3338 21.4991C18.3338 21.4991 17.2354 19.3338 16.6392 19.0514C16.0429 18.769 13.7207 19.4907 13.7207 19.4907Z" fill="white"/>
</mask>
<g mask="url(#mask7_1661_5975)">
<path d="M10.7801 22.8863C10.2884 22.765 9.79883 22.6662 9.30486 22.8293C9.2762 22.8388 9.28852 22.8842 9.31737 22.8747C9.80359 22.7141 10.2846 22.8125 10.7676 22.9317C10.797 22.939 10.8096 22.8936 10.7801 22.8863Z" fill="#AA353B"/>
</g>
<mask id="mask8_1661_5975" style="mask-type:luminance" maskUnits="userSpaceOnUse" x="6" y="18" width="19" height="8">
<path d="M13.7207 19.4907C13.7207 19.4907 12.5283 21.3108 12.4655 21.5933C12.4655 21.5933 8.41731 21.8129 7.47591 22.2209C6.53451 22.6288 6.18928 23.8527 7.00518 24.4803C7.82108 25.1079 13.25 25.3275 14.7563 24.7941C14.7563 24.7941 22.5388 25.8296 23.8568 24.3233C25.1748 22.8171 21.4718 21.3421 18.3338 21.4991C18.3338 21.4991 17.2354 19.3338 16.6392 19.0514C16.0429 18.769 13.7207 19.4907 13.7207 19.4907Z" fill="white"/>
</mask>
<g mask="url(#mask8_1661_5975)">
<g opacity="0.49">
<path d="M14.5296 23.3412C14.3547 23.0882 14.1798 22.8351 14.0049 22.582L14.5296 23.3412Z" fill="#D25A5C"/>
</g>
</g>
<mask id="mask9_1661_5975" style="mask-type:luminance" maskUnits="userSpaceOnUse" x="6" y="18" width="19" height="8">
<path d="M13.7207 19.4907C13.7207 19.4907 12.5283 21.3108 12.4655 21.5933C12.4655 21.5933 8.41731 21.8129 7.47591 22.2209C6.53451 22.6288 6.18928 23.8527 7.00518 24.4803C7.82108 25.1079 13.25 25.3275 14.7563 24.7941C14.7563 24.7941 22.5388 25.8296 23.8568 24.3233C25.1748 22.8171 21.4718 21.3421 18.3338 21.4991C18.3338 21.4991 17.2354 19.3338 16.6392 19.0514C16.0429 18.769 13.7207 19.4907 13.7207 19.4907Z" fill="white"/>
</mask>
<g mask="url(#mask9_1661_5975)">
<path d="M18.6 21.4024C18.1732 21.429 17.7424 21.5695 17.3653 21.7683C17.3385 21.7824 17.3622 21.8231 17.389 21.8089C17.7572 21.6148 18.1829 21.4754 18.6 21.4495C18.6301 21.4476 18.6303 21.4005 18.6 21.4024Z" fill="#AA353B"/>
</g>
<mask id="mask10_1661_5975" style="mask-type:luminance" maskUnits="userSpaceOnUse" x="6" y="18" width="19" height="8">
<path d="M13.7207 19.4907C13.7207 19.4907 12.5283 21.3108 12.4655 21.5933C12.4655 21.5933 8.41731 21.8129 7.47591 22.2209C6.53451 22.6288 6.18928 23.8527 7.00518 24.4803C7.82108 25.1079 13.25 25.3275 14.7563 24.7941C14.7563 24.7941 22.5388 25.8296 23.8568 24.3233C25.1748 22.8171 21.4718 21.3421 18.3338 21.4991C18.3338 21.4991 17.2354 19.3338 16.6392 19.0514C16.0429 18.769 13.7207 19.4907 13.7207 19.4907Z" fill="white"/>
</mask>
<g mask="url(#mask10_1661_5975)">
<path d="M12.3074 21.5871C12.6466 21.6055 12.9497 21.742 13.189 21.9828C13.2104 22.0043 13.2437 21.971 13.2223 21.9495C12.9747 21.7005 12.6579 21.5591 12.3074 21.5401C12.277 21.5384 12.2772 21.5855 12.3074 21.5871Z" fill="#AA353B"/>
</g>
<mask id="mask11_1661_5975" style="mask-type:luminance" maskUnits="userSpaceOnUse" x="6" y="18" width="19" height="8">
<path d="M13.7207 19.4907C13.7207 19.4907 12.5283 21.3108 12.4655 21.5933C12.4655 21.5933 8.41731 21.8129 7.47591 22.2209C6.53451 22.6288 6.18928 23.8527 7.00518 24.4803C7.82108 25.1079 13.25 25.3275 14.7563 24.7941C14.7563 24.7941 22.5388 25.8296 23.8568 24.3233C25.1748 22.8171 21.4718 21.3421 18.3338 21.4991C18.3338 21.4991 17.2354 19.3338 16.6392 19.0514C16.0429 18.769 13.7207 19.4907 13.7207 19.4907Z" fill="white"/>
</mask>
<g mask="url(#mask11_1661_5975)">
<path d="M18.0429 22.85C17.6387 23.055 17.2391 23.2054 16.781 23.2178C16.7508 23.2186 16.7507 23.2657 16.781 23.2649C17.2449 23.2524 17.657 23.0984 18.0667 22.8906C18.0937 22.8769 18.0699 22.8362 18.0429 22.85Z" fill="#AA353B"/>
</g>
<path d="M12.3631 13.3481C12.366 13.4108 12.2298 13.857 12.0959 15.0256C11.9621 16.1942 11.2831 17.7967 11.2919 17.9848C11.3007 18.1729 10.8691 18.3502 10.5296 19.1514C10.1901 19.9527 9.46275 20.5207 9.28199 20.6862C9.28199 20.6862 8.89995 20.5784 8.49395 20.6289C8.08789 20.6793 7.70591 20.5715 7.63734 20.449C7.63734 20.449 7.45658 20.6146 7.62066 20.764C7.78474 20.9133 8.155 20.7704 8.25786 20.954C8.36071 21.1377 8.1231 21.4316 7.89931 21.3478C7.67547 21.264 7.60544 21.1103 7.5697 21.0177C7.53395 20.9251 7.67308 20.5416 7.38655 20.4607C7.38655 20.4607 7.30104 20.9831 7.33823 21.107C7.33823 21.107 6.94157 20.6857 6.73096 20.8841C6.73096 20.8841 7.12326 21.2113 7.159 21.3039C7.159 21.3039 6.83818 21.1617 6.75293 21.3543C6.75293 21.3543 7.04383 21.5292 7.17071 21.5546C7.2976 21.5801 7.39311 21.6071 7.46015 21.6982C7.46015 21.6982 7.1124 21.6516 7.0899 21.8412C7.0899 21.8412 7.43474 21.825 7.59438 21.8804C7.75403 21.9358 8.35257 21.9706 8.56616 21.8349C8.77975 21.6993 11.7201 20.0853 12.3722 18.5783C12.3722 18.5783 13.1581 15.9026 13.1601 15.2742" fill="#F4A082"/>
<mask id="mask12_1661_5975" style="mask-type:luminance" maskUnits="userSpaceOnUse" x="6" y="13" width="8" height="9">
<path d="M12.3635 13.3472C12.3665 13.4098 12.2302 13.856 12.0964 15.0246C11.9626 16.1933 11.2835 17.7958 11.2924 17.9839C11.3012 18.1719 10.8696 18.3492 10.5301 19.1504C10.1906 19.9517 9.46324 20.5197 9.28248 20.6853C9.28248 20.6853 8.90044 20.5774 8.49444 20.6279C8.08837 20.6783 7.7064 20.5705 7.63783 20.4481C7.63783 20.4481 7.45707 20.6136 7.62115 20.763C7.78523 20.9124 8.15549 20.7694 8.25835 20.9531C8.3612 21.1367 8.12359 21.4306 7.8998 21.3468C7.67595 21.263 7.60593 21.1093 7.57018 21.0167C7.53444 20.9241 7.67357 20.5406 7.38704 20.4598C7.38704 20.4598 7.30153 20.9821 7.33872 21.106C7.33872 21.106 6.94206 20.6847 6.73145 20.8831C6.73145 20.8831 7.12374 21.2103 7.15949 21.3029C7.15949 21.3029 6.83867 21.1608 6.75342 21.3533C6.75342 21.3533 7.04432 21.5282 7.1712 21.5537C7.29808 21.5791 7.39359 21.6061 7.46064 21.6972C7.46064 21.6972 7.11289 21.6506 7.09039 21.8402C7.09039 21.8402 7.43523 21.824 7.59487 21.8794C7.75452 21.9348 8.35306 21.9697 8.56665 21.834C8.78024 21.6984 11.7206 20.0843 12.3727 18.5773C12.3727 18.5773 13.1586 15.9016 13.1606 15.2732" fill="white"/>
</mask>
<g mask="url(#mask12_1661_5975)">
<path opacity="0.21" d="M11.7769 16.4807C11.7769 16.4807 12.4358 17.8301 13.2832 18.3636C14.1304 18.8971 12.8752 15.508 11.7769 16.4807Z" fill="#D18161"/>
</g>
<path d="M18.6164 13.4663C18.613 13.529 18.6935 13.7144 18.8188 14.8839C18.9441 16.0535 19.6114 17.6609 19.6012 17.849C19.591 18.037 20.0212 18.2174 20.3549 19.0211C20.6885 19.8248 21.4118 20.3982 21.5913 20.5651C21.5913 20.5651 21.9741 20.4601 22.3797 20.5134C22.7854 20.5668 23.1681 20.4618 23.2376 20.3399C23.2376 20.3399 23.4172 20.5068 23.252 20.655C23.0869 20.8032 22.7176 20.6575 22.6134 20.8404C22.5092 21.0234 22.7447 21.3189 22.9691 21.2368C23.1936 21.1546 23.2647 21.0013 23.3011 20.909C23.3375 20.8167 23.2012 20.4322 23.4883 20.3534C23.4883 20.3534 23.57 20.8764 23.5319 21C23.5319 21 23.9317 20.5816 24.1408 20.7815C24.1408 20.7815 23.7462 21.1058 23.7098 21.1982C23.7098 21.1982 24.0316 21.0584 24.1154 21.2515C24.1154 21.2515 23.8233 21.4243 23.6962 21.4488C23.5692 21.4734 23.4735 21.4997 23.4057 21.5903C23.4057 21.5903 23.7538 21.5463 23.775 21.7359C23.775 21.7359 23.4302 21.7173 23.2702 21.7715C23.1102 21.8257 22.5113 21.8561 22.2988 21.7189C22.0862 21.5817 19.1577 19.9463 18.5167 18.4345C18.5167 18.4345 17.7504 15.7532 17.7529 15.1249" fill="#F4A082"/>
<mask id="mask13_1661_5975" style="mask-type:luminance" maskUnits="userSpaceOnUse" x="17" y="13" width="8" height="9">
<path d="M18.6169 13.4644C18.6135 13.527 18.694 13.7124 18.8193 14.882C18.9446 16.0515 19.6119 17.659 19.6017 17.847C19.5915 18.0351 20.0217 18.2154 20.3554 19.0191C20.689 19.8229 21.4123 20.3963 21.5918 20.5631C21.5918 20.5631 21.9746 20.4581 22.3802 20.5115C22.7859 20.5648 23.1686 20.4599 23.2381 20.3379C23.2381 20.3379 23.4177 20.5048 23.2525 20.653C23.0873 20.8012 22.7181 20.6555 22.6139 20.8385C22.5097 21.0214 22.7452 21.3169 22.9696 21.2348C23.194 21.1527 23.2652 20.9994 23.3016 20.907C23.338 20.8147 23.2017 20.4302 23.4888 20.3515C23.4888 20.3515 23.5705 20.8744 23.5324 20.998C23.5324 20.998 23.9322 20.5797 24.1413 20.7796C24.1413 20.7796 23.7466 21.1039 23.7102 21.1962C23.7102 21.1962 24.0321 21.0565 24.1159 21.2496C24.1159 21.2496 23.8238 21.4223 23.6967 21.4469C23.5697 21.4714 23.474 21.4977 23.4062 21.5883C23.4062 21.5883 23.7543 21.5443 23.7754 21.734C23.7754 21.734 23.4307 21.7153 23.2707 21.7695C23.1106 21.8237 22.5118 21.8542 22.2993 21.717C22.0867 21.5798 19.1582 19.9443 18.5172 18.4326C18.5172 18.4326 17.7508 15.7513 17.7534 15.1229" fill="white"/>
</mask>
<g mask="url(#mask13_1661_5975)">
<path opacity="0.21" d="M18.5223 18.9868C18.5223 18.9868 19.1186 17.9826 19.652 17.8571C20.1855 17.7315 18.2399 16.6018 18.5223 18.9868Z" fill="#D18161"/>
</g>
<path d="M13.6583 19.6203L13.0621 15.3525L12.3156 13.5919C12.3175 13.5908 12.1699 13.1459 13.8466 12.34C15.5418 11.5252 18.5224 12.4969 18.6317 13.5701C18.7521 14.7527 17.8948 15.1329 17.8948 15.1329L17.2358 19.6204C17.2358 19.6203 15.6981 20.4049 13.6583 19.6203Z" fill="#F4A082"/>
<mask id="mask14_1661_5975" style="mask-type:luminance" maskUnits="userSpaceOnUse" x="12" y="12" width="7" height="8">
<path d="M13.6583 19.6194L13.0621 15.3515L12.3156 13.5909C12.3175 13.5899 12.1699 13.1449 13.8466 12.339C15.5418 11.5242 18.5224 12.4959 18.6317 13.5691C18.7521 14.7517 17.8948 15.1319 17.8948 15.1319L17.2358 19.6194C17.2358 19.6194 15.6981 20.4039 13.6583 19.6194Z" fill="white"/>
</mask>
<g mask="url(#mask14_1661_5975)">
<path opacity="0.21" d="M13.2832 18.3651C13.2745 18.4347 16.1764 20.3714 17.5698 19.3055C18.9632 18.2396 13.5656 16.1057 13.2832 18.3651Z" fill="#D18161"/>
</g>
<path d="M14.025 12.3311C13.973 12.4877 14.9092 11.3608 14.8208 9.73096H15.8799C15.8799 9.73096 15.8812 11.7596 16.9532 12.3928C16.9532 12.3928 15.2661 13.9585 14.025 12.3311Z" fill="#F4A082"/>
<mask id="mask15_1661_5975" style="mask-type:luminance" maskUnits="userSpaceOnUse" x="14" y="9" width="3" height="5">
<path d="M14.0275 12.3277C13.9754 12.4843 14.9116 11.3574 14.8232 9.72754H15.8823C15.8823 9.72754 15.8836 11.7562 16.9557 12.3894C16.9557 12.3894 15.2686 13.9551 14.0275 12.3277Z" fill="white"/>
</mask>
<g mask="url(#mask15_1661_5975)">
<path opacity="0.34" d="M15.3375 11.6412C15.8661 11.6412 16.2947 11.297 16.2947 10.8724C16.2947 10.4477 15.8661 10.1035 15.3375 10.1035C14.8089 10.1035 14.3804 10.4477 14.3804 10.8724C14.3804 11.297 14.8089 11.6412 15.3375 11.6412Z" fill="#D18161"/>
</g>
<path d="M12.7792 23.2593C12.7792 23.2593 12.6537 22.9141 12.5282 22.5375C12.4027 22.161 11.8692 22.1296 11.4612 22.3492C11.0533 22.5689 10.2059 22.0668 9.89215 22.0354C9.57835 22.0041 9.13899 22.0354 9.23318 22.2865C9.34338 22.5803 9.73528 22.3179 9.89215 22.5062C10.049 22.6945 11.8691 23.8869 12.4026 23.8869C12.4026 23.8869 12.7792 23.7928 12.7792 23.2593Z" fill="#F4A082"/>
<path d="M18.0938 22.803C18.0938 22.803 18.252 22.4715 18.4132 22.1087C18.5745 21.746 19.1085 21.7661 19.4934 22.0241C19.8783 22.282 20.7699 21.8638 21.0853 21.8628C21.4007 21.8618 21.835 21.9354 21.7171 22.1762C21.5791 22.458 21.2143 22.159 21.04 22.3313C20.8657 22.5036 18.9392 23.5153 18.4082 23.4638C18.4082 23.4638 18.0424 23.3339 18.0938 22.803Z" fill="#F4A082"/>
<path d="M12.4912 13.2243C12.5292 13.2263 17.7437 15.1457 18.7289 14.1518C18.7289 14.1518 18.9261 15.7449 19.1493 16.3586C19.4003 17.0491 19.6514 17.8336 19.6514 17.865C19.6514 17.865 19.3062 17.8022 18.2392 18.8692C16.7969 20.3115 13.6707 19.0021 11.7656 16.4722C11.7657 16.4722 11.9839 13.1967 12.4912 13.2243Z" fill="#FFD2B9"/>
<mask id="mask16_1661_5975" style="mask-type:luminance" maskUnits="userSpaceOnUse" x="11" y="13" width="9" height="7">
<path d="M12.4898 13.2243C12.5277 13.2263 17.7422 15.1457 18.7274 14.1518C18.7274 14.1518 18.9247 15.7449 19.1478 16.3586C19.3989 17.0491 19.6499 17.8336 19.6499 17.865C19.6499 17.865 19.3047 17.8022 18.2378 18.8692C16.7955 20.3115 13.6693 19.0021 11.7642 16.4722C11.7642 16.4722 11.9824 13.1967 12.4898 13.2243Z" fill="white"/>
</mask>
<g mask="url(#mask16_1661_5975)">
<path d="M11.4955 14.7438C12.098 14.4504 12.8938 14.9102 13.5015 14.626C13.5692 14.5944 13.6336 14.5537 13.708 14.5394C13.7748 14.5265 13.844 14.5362 13.9115 14.5459C14.5653 14.6402 15.219 14.7344 15.8728 14.8287C16.0481 14.854 16.2242 14.8793 16.4017 14.88C16.6345 14.8809 16.8739 14.84 17.0959 14.9045C17.2012 14.9352 17.2973 14.9883 17.4009 15.0237C17.6723 15.1165 17.9731 15.0817 18.26 15.0455C18.6506 14.9963 19.0412 14.9471 19.4319 14.8979C19.5432 14.8839 19.6994 14.9006 19.7079 15.0037C19.717 15.1146 19.5476 15.1444 19.4267 15.1441C19.0661 15.1432 18.7148 15.2444 18.3563 15.2803C18.0983 15.3061 17.8378 15.298 17.5785 15.2891C16.3321 15.2465 15.0863 15.1882 13.8416 15.1143C13.6014 15.1 13.3607 15.0851 13.1236 15.0468C13.0394 15.0333 12.9525 15.0168 12.8695 15.0357C12.8004 15.0515 12.7402 15.0905 12.6724 15.1106C12.4103 15.188 12.1458 14.9659 11.871 14.9823C11.7499 14.9896 11.6335 15.0435 11.5126 15.0336C11.3917 15.0237 11.2723 14.8943 11.3468 14.8061" fill="#FCEBE6"/>
</g>
<mask id="mask17_1661_5975" style="mask-type:luminance" maskUnits="userSpaceOnUse" x="11" y="13" width="9" height="7">
<path d="M12.4898 13.2243C12.5277 13.2263 17.7422 15.1457 18.7274 14.1518C18.7274 14.1518 18.9247 15.7449 19.1478 16.3586C19.3989 17.0491 19.6499 17.8336 19.6499 17.865C19.6499 17.865 19.3047 17.8022 18.2378 18.8692C16.7955 20.3115 13.6693 19.0021 11.7642 16.4722C11.7642 16.4722 11.9824 13.1967 12.4898 13.2243Z" fill="white"/>
</mask>
<g mask="url(#mask17_1661_5975)">
<path d="M11.2687 15.733C11.2959 15.5986 11.4898 15.5513 11.6313 15.5925C11.7729 15.6338 11.8881 15.7301 12.0259 15.7809C12.4497 15.9369 12.911 15.6267 13.3668 15.647C13.6751 15.6608 13.9678 15.8265 14.2741 15.7918C14.3646 15.7815 14.4517 15.7539 14.5421 15.7431C14.7328 15.7202 14.9233 15.773 15.1105 15.8139C15.7278 15.9492 16.3681 15.96 17.0026 15.9701C17.3907 15.9763 17.7788 15.9825 18.1669 15.9887C18.5172 15.9942 18.873 15.9992 19.2105 15.9131C19.3409 15.8798 19.4699 15.8328 19.6052 15.8312C19.7405 15.8296 19.8886 15.8875 19.9369 16.0039C19.5468 16.0551 19.1567 16.1064 18.7665 16.1577C18.5767 16.1826 18.3864 16.2076 18.1948 16.2136C17.9027 16.2227 17.6114 16.1877 17.3194 16.1754C16.4135 16.1372 15.499 16.3171 14.6033 16.1867C14.3677 16.1524 14.1324 16.0966 13.8944 16.1116C13.6895 16.1245 13.4895 16.1898 13.2842 16.1836C13.1311 16.179 12.9832 16.1346 12.8353 16.0979C12.3174 15.9693 11.7733 15.9302 11.2399 15.9834C11.1751 15.8886 11.1103 15.7938 11.0454 15.699C11.1241 15.6957 11.2028 15.6925 11.2814 15.6892" fill="#FCEBE6"/>
</g>
<mask id="mask18_1661_5975" style="mask-type:luminance" maskUnits="userSpaceOnUse" x="11" y="13" width="9" height="7">
<path d="M12.4898 13.2243C12.5277 13.2263 17.7422 15.1457 18.7274 14.1518C18.7274 14.1518 18.9247 15.7449 19.1478 16.3586C19.3989 17.0491 19.6499 17.8336 19.6499 17.865C19.6499 17.865 19.3047 17.8022 18.2378 18.8692C16.7955 20.3115 13.6693 19.0021 11.7642 16.4722C11.7642 16.4722 11.9824 13.1967 12.4898 13.2243Z" fill="white"/>
</mask>
<g mask="url(#mask18_1661_5975)">
<path d="M11.2701 16.7545C11.5458 16.5878 11.9112 16.6284 12.2264 16.718C12.5416 16.8077 12.8508 16.9414 13.1807 16.9434C13.4897 16.9453 13.7871 16.8304 14.0958 16.8159C14.5865 16.7927 15.0687 17.0236 15.5549 16.9585C15.7601 16.931 15.9554 16.8513 16.1622 16.837C16.3153 16.8263 16.4684 16.8519 16.6194 16.8773C16.9224 16.9283 17.2255 16.9793 17.5285 17.0304C17.6218 17.0461 17.7162 17.0619 17.811 17.0561C17.9339 17.0486 18.0504 17.0054 18.1659 16.9658C18.4563 16.8663 18.7549 16.787 19.0584 16.7288C19.2222 16.6975 19.4011 16.674 19.5497 16.7448C19.6068 16.772 19.6571 16.8125 19.7188 16.8294C19.8392 16.8624 19.9625 16.7984 20.0849 16.772C20.2072 16.7457 20.3779 16.7959 20.3716 16.9114C20.0257 17.0252 19.6451 16.9678 19.2782 16.984C18.8886 17.0012 18.51 17.1024 18.1255 17.1629C17.5251 17.2573 16.9064 17.2518 16.3081 17.1465C16.1031 17.1105 15.8992 17.0627 15.6906 17.055C15.4433 17.0459 15.1984 17.0935 14.9529 17.1227C14.3405 17.1955 13.7196 17.1538 13.1037 17.1119C12.766 17.089 12.4283 17.0661 12.0907 17.0431C11.8293 17.0254 11.5664 17.0073 11.312 16.9491C11.2577 16.9367 11.199 16.9192 11.169 16.8756C11.139 16.8321 11.1642 16.7578 11.2202 16.7581" fill="#FCEBE6"/>
</g>
<mask id="mask19_1661_5975" style="mask-type:luminance" maskUnits="userSpaceOnUse" x="11" y="13" width="9" height="7">
<path d="M12.4898 13.2243C12.5277 13.2263 17.7422 15.1457 18.7274 14.1518C18.7274 14.1518 18.9247 15.7449 19.1478 16.3586C19.3989 17.0491 19.6499 17.8336 19.6499 17.865C19.6499 17.865 19.3047 17.8022 18.2378 18.8692C16.7955 20.3115 13.6693 19.0021 11.7642 16.4722C11.7642 16.4722 11.9824 13.1967 12.4898 13.2243Z" fill="white"/>
</mask>
<g mask="url(#mask19_1661_5975)">
<path d="M12.408 17.8708C12.6435 17.7714 12.9201 17.8074 13.1678 17.8772C13.4155 17.9469 13.6551 18.0487 13.9122 18.0783C14.643 18.1624 15.4028 17.6556 16.0824 17.9168C16.2013 17.9626 16.3174 18.0319 16.4462 18.0268C16.5431 18.0229 16.6313 17.9769 16.7244 17.9515C16.99 17.8789 17.2715 17.9769 17.528 18.0734C17.6231 18.1091 17.7278 18.1454 17.8259 18.1174C17.8988 18.0965 17.9552 18.043 18.0245 18.0136C18.1806 17.9472 18.3607 18.0131 18.5309 18.0364C18.7831 18.071 19.0373 18.0086 19.2894 17.9741C19.5416 17.9395 19.8199 17.9383 20.0267 18.0755C19.8733 18.1838 19.6716 18.2122 19.4788 18.2243C18.8372 18.2648 18.1792 18.1671 17.5576 18.3188C17.4586 18.3429 17.3592 18.3736 17.2568 18.3705C17.1447 18.3671 17.0395 18.3236 16.9337 18.2893C16.5329 18.1593 16.0986 18.1559 15.6737 18.154C15.4984 18.1532 15.3226 18.1524 15.1483 18.1697C14.7441 18.2098 14.3503 18.3467 13.9441 18.3323C13.4535 18.315 12.9935 18.0783 12.5026 18.0736C12.4315 18.0728 12.3576 18.0766 12.2924 18.0506C12.2272 18.0245 12.1747 17.9566 12.198 17.8948C12.2213 17.833 12.341 17.8245 12.3561 17.8885" fill="#FCEBE6"/>
</g>
<mask id="mask20_1661_5975" style="mask-type:luminance" maskUnits="userSpaceOnUse" x="11" y="13" width="9" height="7">
<path d="M12.4898 13.2243C12.5277 13.2263 17.7422 15.1457 18.7274 14.1518C18.7274 14.1518 18.9247 15.7449 19.1478 16.3586C19.3989 17.0491 19.6499 17.8336 19.6499 17.865C19.6499 17.865 19.3047 17.8022 18.2378 18.8692C16.7955 20.3115 13.6693 19.0021 11.7642 16.4722C11.7642 16.4722 11.9824 13.1967 12.4898 13.2243Z" fill="white"/>
</mask>
<g mask="url(#mask20_1661_5975)">
<path d="M11.4639 14.0083C11.5912 13.7913 11.8939 13.7106 12.1607 13.7325C12.4275 13.7543 12.6783 13.855 12.9392 13.9111C13.2092 13.9691 13.4913 13.9787 13.7652 13.9392C13.9113 13.9181 14.0589 13.8832 14.2052 13.9033C14.3455 13.9226 14.4717 13.991 14.6078 14.0276C15.0908 14.1574 15.5814 13.8761 16.0798 13.8129C16.4137 13.7706 16.752 13.8277 17.083 13.8866C17.892 14.0306 18.7185 14.187 19.5338 14.0773C19.5291 14.2607 19.2688 14.3238 19.0695 14.33C18.2823 14.3545 17.4933 14.3289 16.7099 14.2534C16.317 14.2156 15.9227 14.1651 15.5284 14.1866C15.2519 14.2016 14.9771 14.252 14.7004 14.2419C14.2344 14.225 13.7893 14.0381 13.3231 14.031C13.0832 14.0273 12.8459 14.0715 12.6074 14.0952C12.2824 14.1274 11.953 14.1215 11.6297 14.0776C11.5628 14.0685 11.4902 14.0547 11.4474 14.0065C11.4046 13.9584 11.4212 13.8665 11.4881 13.8574" fill="#FCEBE6"/>
</g>
<mask id="mask21_1661_5975" style="mask-type:luminance" maskUnits="userSpaceOnUse" x="11" y="13" width="9" height="7">
<path d="M12.4898 13.2243C12.5277 13.2263 17.7422 15.1457 18.7274 14.1518C18.7274 14.1518 18.9247 15.7449 19.1478 16.3586C19.3989 17.0491 19.6499 17.8336 19.6499 17.865C19.6499 17.865 19.3047 17.8022 18.2378 18.8692C16.7955 20.3115 13.6693 19.0021 11.7642 16.4722C11.7642 16.4722 11.9824 13.1967 12.4898 13.2243Z" fill="white"/>
</mask>
<g mask="url(#mask21_1661_5975)">
<path d="M14.1006 18.8431C14.8376 18.8608 15.5784 18.8783 16.3088 18.7866C16.4717 18.7661 16.6348 18.7402 16.7992 18.7434C16.9441 18.7463 17.0873 18.7718 17.23 18.7957C17.7577 18.8842 18.2896 18.9513 18.8238 18.9971C18.3631 19.2016 17.8239 19.179 17.3173 19.1138C16.8107 19.0485 16.3005 18.9448 15.7928 19.002C15.4998 19.0351 15.212 19.1216 14.917 19.1116C14.6913 19.104 14.4681 19.0383 14.2794 18.9239" fill="#FCEBE6"/>
</g>
<path d="M17.4169 9.04755C17.4169 10.3451 15.9652 11.397 15.354 11.397C14.7427 11.397 13.291 10.3452 13.291 9.04755C13.291 7.74999 14.1764 6.125 15.3158 6.125C16.4552 6.125 17.4169 7.74992 17.4169 9.04755Z" fill="#F4A082"/>
<mask id="mask22_1661_5975" style="mask-type:luminance" maskUnits="userSpaceOnUse" x="13" y="6" width="5" height="6">
<path d="M17.4174 9.04559C17.4174 10.3431 15.9657 11.3951 15.3545 11.3951C14.7432 11.3951 13.2915 10.3432 13.2915 9.04559C13.2915 7.74804 14.1769 6.12305 15.3163 6.12305C16.4556 6.12305 17.4174 7.74797 17.4174 9.04559Z" fill="white"/>
</mask>
<g mask="url(#mask22_1661_5975)">
<path opacity="0.18" d="M15.3021 6.8161C15.3021 6.8161 16.0435 8.38047 17.2328 8.94876L15.7563 6.77407L14.8734 6.58497C14.8734 6.58497 13.5648 8.54382 13.7541 9.13528C13.7541 9.13528 14.8384 7.03505 15.5326 6.8255C16.2269 6.61588 15.1568 6.5166 15.1568 6.5166" fill="#A05940"/>
</g>
<path d="M15.3215 6.87913C15.3215 6.87913 14.2546 7.56954 13.7525 9.13853C13.7525 9.13853 13.47 9.82888 13.6583 10.2055C13.8467 10.582 14.5684 11.0841 14.4115 11.5549C14.4115 11.5549 14.4429 12.3708 13.7211 12.9356C13.7211 12.9356 14.4115 12.6532 15.0077 13.7515C15.0077 13.7515 16.263 13.0926 17.173 14.2536C17.173 14.2536 17.832 13.5005 18.491 14.4733C18.491 14.4733 19.0873 14.0654 19.401 14.8499C19.401 14.8499 19.8718 14.4733 19.7148 15.5088C19.7148 15.5088 20.2483 15.9482 19.5894 16.3561C19.5894 16.3561 19.6835 16.5758 19.3069 16.7955L19.1186 16.262C19.1186 16.262 19.2127 16.1679 19.4324 16.1679C19.4324 16.1679 19.2441 15.7285 19.5579 15.5089C19.5579 15.5089 19.0558 15.3834 19.0558 14.8499C19.0558 14.8499 18.491 15.2265 18.1143 14.5675C18.1143 14.5675 17.2043 15.3207 16.4825 14.3164C16.4825 14.3164 15.039 15.2893 14.38 14.0026C14.38 14.0026 12.5913 14.8186 12.4971 13.2181C12.4971 13.2181 11.5557 11.9315 12.7482 11.1784C12.7482 11.1784 11.6531 9.72999 12.3088 8.44825C12.9992 7.09887 13.6582 5.09052 15.1645 5.9378C15.1645 5.9378 17.8005 4.77672 17.4239 9.10729C17.4241 9.10716 16.1061 8.10302 15.3215 6.87913Z" fill="#1D3542"/>
<mask id="mask23_1661_5975" style="mask-type:luminance" maskUnits="userSpaceOnUse" x="12" y="5" width="8" height="12">
<path d="M15.321 6.8801C15.321 6.8801 14.2541 7.57051 13.752 9.13951C13.752 9.13951 13.4696 9.82985 13.6579 10.2065C13.8462 10.583 14.5679 11.0851 14.411 11.5558C14.411 11.5558 14.4424 12.3718 13.7206 12.9366C13.7206 12.9366 14.411 12.6542 15.0072 13.7525C15.0072 13.7525 16.2625 13.0935 17.1725 14.2546C17.1725 14.2546 17.8315 13.5015 18.4905 14.4743C18.4905 14.4743 19.0868 14.0664 19.4006 14.8508C19.4006 14.8508 19.8713 14.4743 19.7144 15.5098C19.7144 15.5098 20.2478 15.9492 19.5889 16.3571C19.5889 16.3571 19.683 16.5768 19.3064 16.7964L19.1181 16.263C19.1181 16.263 19.2123 16.1688 19.4319 16.1688C19.4319 16.1688 19.2436 15.7295 19.5574 15.5099C19.5574 15.5099 19.0553 15.3844 19.0553 14.8509C19.0553 14.8509 18.4905 15.2274 18.1139 14.5685C18.1139 14.5685 17.2038 15.3216 16.482 14.3174C16.482 14.3174 15.0385 15.2903 14.3795 14.0036C14.3795 14.0036 12.5908 14.8195 12.4967 13.2191C12.4967 13.2191 11.5553 11.9325 12.7477 11.1794C12.7477 11.1794 11.6526 9.73097 12.3083 8.44923C12.9987 7.09985 13.6577 5.0915 15.164 5.93877C15.164 5.93877 17.8001 4.7777 17.4234 9.10827C17.4236 9.10814 16.1056 8.10399 15.321 6.8801Z" fill="white"/>
</mask>
<g mask="url(#mask23_1661_5975)">
<path opacity="0.22" d="M13.6583 10.2049C13.6583 10.2049 14.2545 11.7112 15.3528 11.6484C16.4512 11.5857 17.2241 10.1842 17.2927 9.47281C17.3613 8.76142 13.5328 9.42039 13.6583 10.2049Z" fill="#1D3542"/>
</g>
<path d="M13.7785 9.23832C13.8384 9.48216 13.7556 9.7121 13.5937 9.75181C13.4319 9.79152 13.2522 9.62605 13.1923 9.38215C13.1325 9.13831 13.2152 8.90837 13.3771 8.86866C13.539 8.82901 13.7187 8.99448 13.7785 9.23832Z" fill="#F4A082"/>
<path d="M17.2099 9.01764C17.1501 9.26148 17.2328 9.49141 17.3947 9.53113C17.5566 9.57084 17.7363 9.40537 17.7961 9.16146C17.856 8.91763 17.7732 8.68769 17.6113 8.64797C17.4495 8.60826 17.2697 8.77373 17.2099 9.01764Z" fill="#F4A082"/>
<path d="M11.9338 16.229C11.2749 16.0094 10.9924 16.7939 10.9924 16.7939C10.5216 16.6056 10.3961 17.2018 10.3961 17.2018C9.98822 17.547 10.3961 18.0177 10.3961 18.0177C10.3961 18.0706 10.4014 18.1187 10.4104 18.1635L10.7639 17.9797C10.6752 17.978 10.6158 17.9863 10.6158 17.9863C10.7728 17.6725 10.5217 17.3274 10.5217 17.3274C10.9924 17.3587 11.1493 16.9508 11.1493 16.9508C12.8439 17.5784 13.2832 15.6328 13.2832 15.6328C13.2832 15.6328 12.5928 16.4486 11.9338 16.229Z" fill="#1D3542"/>
<path d="M14.1392 9.18304C14.2767 9.2162 14.4114 9.23123 14.5465 9.22123C14.6816 9.21243 14.8129 9.17907 14.9447 9.12744C14.8382 9.22255 14.6944 9.27345 14.5508 9.28384C14.4071 9.29311 14.2577 9.26253 14.1392 9.18304Z" fill="#2E2430"/>
<path d="M15.0714 10.6237C15.2631 10.7012 15.4707 10.6854 15.6496 10.5825C15.6799 10.5651 15.6526 10.5181 15.6222 10.5356C15.4543 10.6321 15.265 10.6437 15.0858 10.5713C15.0534 10.5583 15.0393 10.6108 15.0714 10.6237Z" fill="#A34F31"/>
<path d="M15.0786 10.0931C15.1306 10.0947 15.1773 10.0976 15.2234 10.0979C15.2694 10.0986 15.314 10.0974 15.3587 10.0943C15.4033 10.0911 15.4477 10.0861 15.4931 10.0792C15.5387 10.0724 15.5846 10.0632 15.6359 10.0547C15.6049 10.0968 15.5619 10.1277 15.5153 10.1499C15.4683 10.1718 15.417 10.1847 15.3652 10.1882C15.3133 10.1917 15.2608 10.186 15.2113 10.1707C15.1619 10.1551 15.1151 10.1305 15.0786 10.0931Z" fill="#A34F31"/>
<path d="M15.835 9.18652C15.9725 9.21968 16.1072 9.23478 16.2423 9.22471C16.3774 9.21591 16.5087 9.18255 16.6405 9.13086C16.534 9.22597 16.3902 9.27687 16.2466 9.28726C16.1029 9.29653 15.9535 9.26595 15.835 9.18652Z" fill="#2E2430"/>
<path d="M14.1291 8.8749C14.3141 8.66217 14.5853 8.5656 14.8627 8.61974C14.9102 8.62901 14.9305 8.55613 14.8828 8.54687C14.5802 8.48776 14.2785 8.58823 14.0757 8.82148C14.0439 8.85802 14.0972 8.9117 14.1291 8.8749Z" fill="#1D3542"/>
<path d="M16.6639 8.7878C16.4611 8.55448 16.1595 8.45407 15.8568 8.51318C15.8091 8.52251 15.8293 8.59539 15.877 8.58605C16.1544 8.53191 16.4256 8.62848 16.6105 8.84121C16.6424 8.87808 16.6957 8.8244 16.6639 8.7878Z" fill="#1D3542"/>
<path d="M15.3834 6.77148C15.4253 6.96793 15.5031 7.16808 15.5985 7.35288C15.6947 7.53867 15.8101 7.71612 15.9478 7.87551C16.085 8.03462 16.2361 8.18461 16.4081 8.30838C16.4903 8.37569 16.5826 8.42831 16.672 8.4857C16.7625 8.54129 16.8598 8.58485 16.9537 8.63522C16.8577 8.58968 16.7578 8.55069 16.6643 8.49933C16.5718 8.44618 16.4761 8.3976 16.3899 8.33386C16.21 8.21724 16.0491 8.07275 15.9008 7.91707C15.7522 7.76107 15.6247 7.58494 15.5159 7.39796C15.4075 7.20952 15.3181 7.01387 15.2603 6.79604L15.3834 6.77148Z" fill="#1D3542"/>
<path d="M15.4271 6.63767C15.3837 6.73749 15.3516 6.85265 15.3318 6.96544C15.3121 7.07941 15.3056 7.19591 15.3136 7.31187C15.3201 7.42816 15.3455 7.54339 15.3868 7.6532C15.4244 7.76526 15.4892 7.86547 15.5574 7.9629C15.4811 7.87222 15.4064 7.77638 15.3578 7.66545C15.3058 7.55683 15.2687 7.43954 15.2512 7.31902C15.2322 7.19875 15.2282 7.07564 15.2383 6.95359C15.2494 6.83068 15.2702 6.71207 15.3112 6.58936L15.4271 6.63767Z" fill="#1D3542"/>
<path d="M15.5307 6.75883C15.4765 6.79384 15.4197 6.83938 15.3683 6.88591C15.3162 6.9329 15.2668 6.98367 15.221 7.03768C15.175 7.09149 15.1321 7.14854 15.0941 7.20897C15.0546 7.26874 15.0224 7.33294 14.9917 7.3984C15.0125 7.32944 15.0354 7.26014 15.0665 7.19408C15.096 7.1273 15.1312 7.06276 15.1705 7.00055C15.2095 6.93806 15.2528 6.8781 15.3001 6.82091C15.3481 6.76326 15.3968 6.70991 15.4569 6.65723L15.5307 6.75883Z" fill="#1D3542"/>
</g>
<defs>
<clipPath id="clip0_1661_5975">
<rect width="25" height="25" fill="white"/>
</clipPath>
</defs>
</svg>
