<svg width="21" height="25" viewBox="0 0 21 25" fill="none" xmlns="http://www.w3.org/2000/svg">
<path d="M18.7827 23.9173C18.7827 24.1315 14.578 24.3053 9.39133 24.3053C4.20464 24.3053 0 24.1317 0 23.9173C0 23.7031 4.20464 23.5293 9.39133 23.5293C14.578 23.5293 18.7827 23.7031 18.7827 23.9173Z" fill="#DADADA"/>
<path d="M18.1776 4.64466C18.1886 4.74679 18.197 4.84512 18.1616 4.94307C18.1178 5.06415 18.0527 5.18233 17.985 5.29431C17.9183 5.40452 17.8472 5.52004 17.8028 5.64391C17.754 5.78016 17.7696 5.92083 17.7325 6.05809C17.728 6.07477 17.6709 6.2411 17.6809 6.24818L18.4865 6.81391C18.7764 6.67323 19.0923 6.35827 19.3104 6.01133C19.4181 5.84007 19.67 5.6228 19.7818 5.35687C19.8779 5.12861 20.0966 4.8862 20.0057 4.81883C19.946 4.77459 19.827 4.90819 19.7497 5.00867C19.8491 4.86395 20.0066 4.60611 19.9258 4.52927C19.8627 4.46911 19.7926 4.5414 19.7321 4.63038C19.8193 4.48326 19.9168 4.29469 19.8811 4.2392C19.82 4.14428 19.6737 4.16577 19.4266 4.6233C19.1796 5.08084 19.0925 5.13834 19.0925 5.13834C19.0925 5.13834 19.7877 4.14504 19.6196 4.07401C19.4118 3.98604 19.3346 4.29178 19.1505 4.55442C19.0303 4.72606 18.8998 4.88582 18.8558 4.95268C18.658 5.25361 18.4386 5.29507 18.44 4.9188C18.44 4.9188 18.5016 4.7483 18.4268 4.56365C18.31 4.27459 18.1477 4.36686 18.1776 4.64466ZM19.6135 4.81858C19.6135 4.81858 19.6299 4.79431 19.6548 4.75563C19.6388 4.78243 19.6247 4.8048 19.6135 4.81858Z" fill="#F6BB8F"/>
<path d="M17.7928 6.1364C17.793 6.13691 17.753 6.10051 17.7271 6.07422C17.7121 6.12073 17.6724 6.24093 17.6809 6.24687L18.4865 6.81259C18.5233 6.79477 18.5604 6.77404 18.5978 6.75079L17.7928 6.1364Z" fill="#D09067"/>
<path d="M9.1981 11.8477L8.55287 12.0278C8.23639 12.666 7.9711 13.617 8.07979 14.3111L8.22754 15.2553L8.04251 16.9178C8.02759 17.0523 7.97818 17.1807 7.89906 17.2907L5.40625 20.7529L6.58725 21.6688L9.52709 17.8325C9.57904 17.7646 9.62012 17.6892 9.64868 17.6087L11.3446 12.8369L9.1981 11.8477Z" fill="#F6BB8F"/>
<path d="M9.59183 17.3332C9.68965 17.3418 9.8896 17.3544 9.98756 17.3612L11.3392 12.8362L9.30252 11.3237L8.96089 11.2285C8.6444 11.8668 7.83323 12.4457 8.07425 14.3106L8.22201 15.2547L7.9375 16.8101C8.40729 16.9812 9.12317 17.2921 9.59183 17.3332Z" fill="#7AC371"/>
<path d="M10.3905 12.1308C9.74196 11.9903 9.00876 11.8313 8.63402 11.75C8.28872 12.2653 7.8983 12.941 8.07537 14.3104L8.09888 14.4603C8.10027 14.4618 8.10128 14.4635 8.10267 14.465C8.44494 14.8614 8.90323 14.9999 9.39135 15.1239C9.73425 15.211 10.0869 15.2539 10.4409 15.2543L10.6159 15.2615L11.3404 12.8362L10.3905 12.1308Z" fill="#65AA5A"/>
<path d="M5.82738 20.168L5.40625 20.7529L6.58724 21.6689L7.05489 21.033C6.59774 20.8085 6.17572 20.5205 5.82738 20.168Z" fill="#E0DFDE"/>
<path d="M5.58766 20.4879C5.58766 20.4879 5.70735 21.0982 6.20483 21.2877C6.7023 21.4771 6.79697 21.5519 6.652 21.8672C6.5069 22.1825 6.30796 22.8353 6.67728 23.2899C7.04659 23.7447 6.95748 23.8688 6.8426 24.0315C6.72771 24.1941 5.66981 23.4941 5.30543 22.7582C4.94105 22.0224 4.22656 21.1682 4.22656 21.1682C4.22656 21.1682 4.39314 20.9287 4.63228 20.8552C4.63228 20.8552 5.08222 20.3601 5.58766 20.4879Z" fill="#65AA5A"/>
<path d="M5.5361 22.4861C5.2114 21.8304 4.60914 21.0812 4.48174 20.9258C4.32628 21.0247 4.22656 21.1674 4.22656 21.1674C4.22656 21.1674 4.94105 22.0216 5.30543 22.7574C5.66981 23.4933 6.72771 24.1934 6.8426 24.0307C6.89972 23.9499 6.95028 23.8785 6.94156 23.7713C6.62002 23.6838 5.8388 23.0976 5.5361 22.4861Z" fill="#E0700A"/>
<path d="M12.0686 12.1093L14.6789 13.143C15.2297 13.3864 15.4426 14.0575 15.1328 14.5739L11.8327 18.8648L10.7171 18.4337L12.4601 15.137C12.5116 15.0331 12.4502 14.9088 12.3364 14.8864L10.8993 14.8037C10.5559 14.8031 10.3202 14.5003 9.98744 14.4152C9.63266 14.3246 9.57174 14.2949 9.32932 14.1219C9.31125 14.109 8.95015 14.0959 8.93284 14.0822C8.44598 13.6955 8.70875 13.0297 9.02801 12.4962L8.89252 11.957L12.0686 12.1093Z" fill="#F6BB8F"/>
<path d="M12.0627 14.8857L12.3347 14.8862C12.4484 14.9085 12.5099 15.0329 12.4584 15.1368L11.7891 16.4027L12.9244 14.8496C12.966 14.7926 12.916 14.7143 12.8467 14.7282L12.0627 14.8857Z" fill="#D09067"/>
<path d="M9.76397 14.7778C10.1069 14.8649 10.4595 14.9078 10.8135 14.9082L12.0834 14.9606C12.4116 14.4856 12.7893 13.9992 13.1429 13.5383C13.366 13.2476 13.5297 12.9757 13.6366 12.6971L12.004 12.0537C12.004 12.0537 8.75878 11.3502 8.75676 11.3497C8.71632 11.341 8.37329 11.9669 8.33449 12.0359C7.95317 12.7143 7.94875 13.5093 8.47516 14.1189C8.81756 14.5153 9.27585 14.6538 9.76397 14.7778Z" fill="#7AC371"/>
<path d="M12.8872 13.8722C12.9295 13.8172 12.9709 13.7632 13.0127 13.7088C12.4629 13.5628 11.1247 13.2043 10.2142 12.935C9.91921 12.8478 9.7367 12.7051 9.67161 12.5108C9.54257 12.1255 9.8957 11.6419 9.89924 11.6371L9.8229 11.5805C9.78878 11.573 9.75528 11.5658 9.72204 11.5586C9.63445 11.6884 9.35184 12.1536 9.491 12.5706C9.57682 12.8276 9.80192 13.0116 10.1602 13.1175C11.0331 13.3755 12.2969 13.7151 12.8872 13.8722Z" fill="white"/>
<path d="M10.9298 14.761C10.5619 14.7587 10.1954 14.7117 9.83857 14.6183C9.33073 14.4854 8.85373 14.3374 8.49605 13.9192C8.23075 13.6092 8.09463 13.2545 8.06746 12.8906C8.03523 13.3235 8.15896 13.7548 8.47393 14.1195C8.8162 14.5159 9.27449 14.6544 9.76261 14.7784C10.1055 14.8655 10.4581 14.9085 10.8122 14.9088L12.082 14.9612C12.1145 14.9141 12.1494 14.8666 12.1827 14.8193L10.9298 14.761Z" fill="#65AA5A"/>
<path d="M11.1375 17.6406L10.7188 18.4326L11.8344 18.8637L12.1805 18.4138C11.8082 18.1995 11.4378 17.9514 11.1375 17.6406Z" fill="#E0DFDE"/>
<path d="M10.7108 18.248C10.7108 18.248 11.1 18.7333 11.6286 18.6703C12.1571 18.6074 12.2758 18.6297 12.2935 18.9763C12.3113 19.3229 12.4379 19.9936 12.9759 20.225C13.5141 20.4566 13.4927 20.6079 13.4663 20.8053C13.44 21.0026 12.178 20.8732 11.5138 20.3904C10.8496 19.9074 9.82056 19.4823 9.82056 19.4823C9.82056 19.4823 9.85708 19.1928 10.0348 19.0168C10.0348 19.0168 10.2038 18.3693 10.7108 18.248Z" fill="#65AA5A"/>
<path d="M11.5922 20.0416C11.0004 19.6113 10.1194 19.2271 9.93432 19.1484C9.84243 19.3082 9.82031 19.4808 9.82031 19.4808C9.82031 19.4808 10.8495 19.906 11.5136 20.389C12.1778 20.8719 13.4396 21.0013 13.4661 20.8039C13.4792 20.7058 13.4908 20.6191 13.4334 20.5282C13.108 20.5999 12.1441 20.4429 11.5922 20.0416Z" fill="#E0700A"/>
<path d="M17.7245 6.20121C17.7248 6.2021 17.6373 6.1135 17.6373 6.1135C17.6373 6.1135 15.9098 7.30953 15.0488 7.84252C14.9198 7.9224 14.7518 7.89472 14.6564 7.77667C14.395 7.45324 13.2121 6.48938 12.4117 5.39648L11.4844 7.06042C11.4844 7.06042 11.7531 7.64017 12.4621 8.28717C13.0686 8.8405 13.9798 9.33229 14.5006 9.59025C14.7435 9.71058 15.0329 9.68163 15.2474 9.51593C16.1559 8.81409 18.4589 6.99924 18.5955 6.8659L17.7245 6.20121Z" fill="#FF860D"/>
<path d="M13.4437 6.58315C13.1685 6.30358 13.1556 6.23583 12.8943 5.90974C12.8225 5.82026 12.8546 5.44981 12.5692 5.27539L11.4844 7.05977C11.4844 7.05977 11.7531 7.63953 12.4621 8.28652C12.6542 8.46182 12.8771 8.63081 13.1082 8.78829C13.3155 8.12638 13.496 7.3051 13.4437 6.58315Z" fill="#E0700A"/>
<path d="M8.53036 12.5376C8.44176 12.4827 8.35758 12.428 8.30121 12.3386C8.23157 12.2278 8.1776 12.1018 8.13008 11.9777C8.08331 11.8555 8.03529 11.7263 7.96375 11.6136C7.88501 11.4893 7.76266 11.4141 7.6757 11.2987C7.66521 11.2847 7.56764 11.1351 7.55576 11.1387L6.59949 11.431C6.53124 11.751 6.58622 12.2008 6.72803 12.5922C6.79805 12.7855 6.81473 13.1228 6.95793 13.3785C7.08091 13.5979 7.13842 13.9245 7.24926 13.8938C7.32194 13.8736 7.28933 13.6949 7.25697 13.5701C7.31094 13.7401 7.41926 14.0271 7.53111 14.0106C7.6187 13.9976 7.60467 13.8962 7.57105 13.7922C7.6345 13.954 7.72462 14.1499 7.79135 14.1558C7.90548 14.1662 7.97967 14.0355 7.76746 13.5519C7.55513 13.0683 7.56334 12.9627 7.56334 12.9627C7.56334 12.9627 7.92507 14.1398 8.08698 14.0495C8.28718 13.9379 8.09052 13.6853 7.99496 13.3738C7.93253 13.1703 7.88602 12.966 7.85998 12.889C7.74231 12.5427 7.84621 12.341 8.14676 12.5771C8.14676 12.5771 8.24484 12.7329 8.43948 12.7883C8.74421 12.8748 8.77164 12.6873 8.53036 12.5376ZM7.49446 13.5795C7.49446 13.5795 7.50369 13.6078 7.51911 13.6519C7.50773 13.6223 7.4985 13.5972 7.49446 13.5795Z" fill="#F6BB8F"/>
<path d="M12.9338 4.69449L12.3176 5.99947L11.3281 5.24795L11.8687 4.05078L12.9338 4.69449Z" fill="#D09067"/>
<path d="M14.219 3.84029C13.9991 3.7067 14.1272 3.47616 14.2615 3.45303C14.3206 3.44279 14.3646 3.39097 14.3638 3.33094C14.3628 3.23918 14.3447 3.16132 14.3435 3.15576C14.3119 3.07727 14.2742 2.99853 14.2297 2.91979C14.065 2.62871 13.8806 2.1871 14.0116 1.84774C14.1357 1.52621 13.7474 0.777215 13.7474 0.777215C13.7474 0.777215 13.1237 0.129084 11.8827 0.654995C11.0796 0.995365 10.7817 1.7594 10.7266 2.39565L10.9307 3.0683C11.0209 3.16499 11.1109 3.2613 11.1871 3.36279C11.3628 3.59674 11.5203 3.84257 11.6361 4.11039C11.7469 4.19128 11.8641 4.26888 11.9495 4.37455C11.9987 4.43547 11.9897 4.50814 11.9546 4.55983C12.0631 4.62859 12.4015 4.52824 12.5194 4.57993C12.9859 4.7843 13.6911 5.11658 13.9646 4.96631C14.1701 4.85344 14.1352 4.44014 14.2151 4.23299C14.2396 4.16954 14.2745 4.10963 14.3047 4.04871C14.313 4.03177 14.3217 4.01471 14.3301 3.99752C14.3678 3.92004 14.2928 3.88516 14.219 3.84029Z" fill="#F6BB8F"/>
<path d="M12.0262 2.08789C12.0262 2.08789 11.6514 2.1435 11.6814 2.4021C11.7112 2.66069 11.8818 2.89287 11.9677 2.87139C12.0535 2.8499 12.0338 2.72048 12.1556 2.79859C12.1556 2.79859 12.1339 2.6866 12.0266 2.67371C11.9191 2.66082 11.835 2.29429 12.0262 2.08789Z" fill="#D09067"/>
<path d="M11.4531 3.75548C11.4531 3.75548 11.9151 2.82802 12.1444 3.98753C12.2333 4.43748 13.1236 4.96605 13.8558 5.0003C13.8558 5.0003 12.7601 5.05616 12.6872 5.21074L11.6135 4.60975L11.4531 3.75548Z" fill="#D09067"/>
<path d="M13.5039 0.886429C13.5039 0.886429 12.3054 0.988047 12.4468 1.43408C12.5882 1.88011 12.46 1.93358 12.4468 2.12986C12.4337 2.32614 12.5467 2.76624 12.517 2.79594C12.4873 2.82564 12.285 2.92726 12.0353 1.99639C12.0353 1.99639 11.4386 1.95645 11.6032 2.58436C11.7677 3.21227 12.2792 2.95064 12.2792 2.95064L11.9616 3.30757C11.9054 3.37076 11.8634 3.44546 11.8385 3.52635L11.5448 4.4849C11.5242 4.52585 11.4644 4.52117 11.4503 4.47769L11.3842 3.96177C11.3717 3.92322 11.3216 3.91374 11.2959 3.94521L11.1489 4.12532C11.1205 4.16007 11.0642 4.14402 11.0585 4.09953L10.968 3.39945C10.9626 3.35762 10.9117 3.33992 10.8815 3.3695L10.8336 3.41652C10.8018 3.44761 10.7481 3.42625 10.7466 3.38176L10.772 2.85673C10.7739 2.81856 10.7321 2.79417 10.6997 2.81452L10.5781 2.89111C10.5781 2.89111 10.6864 2.56742 10.6772 2.18977C10.668 1.81211 11.3572 1.16765 11.4344 1.14035C11.5118 1.11305 12.6655 0.794922 12.6655 0.794922L13.5039 0.886429Z" fill="#68280C"/>
<path d="M9.78307 11.5711C9.21558 11.4482 8.76234 11.3498 8.76158 11.3497C8.73896 11.3448 8.62141 11.5388 8.51562 11.7227C8.59904 11.7469 8.71014 11.7731 8.78851 11.8018C8.89088 11.8393 8.99237 11.8793 9.09702 11.9096C9.23315 11.949 9.37041 11.9815 9.50842 12.0103C9.57213 11.8014 9.67804 11.6298 9.72594 11.5589C9.74478 11.5629 9.76399 11.5671 9.78307 11.5711Z" fill="#65AA5A"/>
<path d="M9.82549 11.5801L9.90184 11.6367C9.89969 11.6396 9.769 11.8193 9.69531 12.0461C10.1397 12.1256 10.5907 12.1639 11.0402 12.201C11.2803 12.2209 12.1189 12.3521 12.3685 12.1955L12.0074 12.0532C12.0074 12.0532 10.7723 11.7852 9.82549 11.5801Z" fill="#65AA5A"/>
<path d="M10.0785 11.6349C10.1406 11.6483 10.2033 11.662 10.2662 11.6756C10.2165 11.8134 10.185 11.9723 10.2166 12.1213C10.4904 12.154 10.7656 12.1783 11.0402 12.2009C11.2803 12.2208 12.1189 12.3519 12.3685 12.1953L12.0074 12.053C12.0074 12.053 10.7723 11.7853 9.82549 11.5801L9.90184 11.6367C9.89969 11.6396 9.769 11.8193 9.69531 12.0461C9.80325 12.0654 9.91157 12.0821 10.02 12.0971C10.0003 11.9368 10.0306 11.7759 10.0785 11.6349Z" fill="#65AA5A"/>
<path d="M9.82511 11.5817C9.81032 11.5786 9.79591 11.5754 9.78125 11.5723C9.79566 11.5753 9.81044 11.5785 9.82511 11.5817Z" fill="white"/>
<path d="M9.82632 11.5805C9.81178 11.5773 9.79699 11.5741 9.78246 11.571C9.76337 11.5668 9.74416 11.5626 9.72533 11.5586C9.67743 11.6296 9.57151 11.8013 9.50781 12.0101C9.57038 12.0231 9.63319 12.0352 9.69613 12.0465C9.76982 11.8197 9.90051 11.6401 9.90266 11.6371L9.82632 11.5805Z" fill="#E0DFDE"/>
<path d="M12.6087 9.32438C12.9913 8.30466 13.4943 6.4629 12.7697 5.4864C12.7655 5.48072 12.7573 5.4859 12.7539 5.49209C12.7382 5.52028 12.7825 5.78506 12.5499 5.70658C12.2464 5.60407 12.1227 5.56224 11.9667 5.04138C11.9427 4.96125 11.8768 4.90109 11.7947 4.88453L11.7933 4.88428C10.7311 4.25801 9.82544 6.06186 9.57126 6.61368C8.91239 8.04417 8.74062 9.25423 8.50781 11.4871C8.54358 11.5236 8.76186 11.5639 8.89052 11.6109C8.9929 11.6485 9.09439 11.6884 9.19904 11.7187C9.83352 11.9025 10.4903 11.9567 11.1436 12.0107C11.3836 12.0305 11.991 12.1181 12.2309 12.1308C12.3416 11.8144 12.0775 11.4941 12.0317 11.19C11.929 10.5065 12.3817 9.92954 12.6087 9.32438Z" fill="#FF860D"/>
<path d="M11.5486 7.45618C11.6756 7.26154 11.8071 7.0602 11.9187 6.85659C12.2911 6.17673 11.9575 5.28884 11.9431 5.25143C11.9304 5.21894 11.8941 5.20264 11.8614 5.21515C11.8288 5.22766 11.8126 5.26419 11.8251 5.2968C11.8284 5.3054 12.1526 6.16687 11.8078 6.79579C11.6985 6.99524 11.5684 7.19456 11.4427 7.38718C11.1786 7.79188 10.9299 8.17585 10.9092 8.50649C10.8826 8.5228 10.8623 8.54908 10.8547 8.58182C10.8397 8.64653 10.88 8.71124 10.9447 8.72616C11.0094 8.7412 11.0741 8.70088 11.089 8.63617C11.1009 8.58511 11.0775 8.53505 11.0357 8.50851C11.0564 8.21289 11.2951 7.84471 11.5486 7.45618Z" fill="#E0700A"/>
<path d="M12.9153 5.95508C12.8804 5.98225 12.8455 5.98642 12.8012 5.99969C12.8454 6.30265 12.8689 6.87495 12.5866 7.28648C12.4578 7.47392 12.3085 7.6592 12.1642 7.8383C11.861 8.21456 11.5751 8.57162 11.5214 8.89859C11.4933 8.91211 11.4704 8.93625 11.4596 8.96798C11.4382 9.03092 11.4718 9.09917 11.5348 9.12066C11.5977 9.14202 11.6661 9.1084 11.6874 9.04558C11.7044 8.99591 11.686 8.94384 11.6471 8.91312C11.6973 8.62116 11.9716 8.27864 12.2626 7.91755C12.4086 7.73655 12.5594 7.54937 12.6908 7.35789C13.0144 6.88645 12.9668 6.26474 12.9153 5.95508Z" fill="#E0700A"/>
<path d="M10.2277 6.50839C10.3785 6.13112 10.7653 5.23779 11.2971 4.75586C10.4579 4.80439 9.78474 6.1502 9.57126 6.61368C8.91239 8.04417 8.74062 9.25423 8.50781 11.487C8.54358 11.5236 8.76186 11.5639 8.89052 11.6109C8.9929 11.6484 9.09439 11.6884 9.19904 11.7187C9.22685 11.7268 9.25491 11.7333 9.28271 11.7408C9.45068 9.38985 9.60817 8.05794 10.2277 6.50839Z" fill="#E0700A"/>
<path d="M12.3687 9.34152C12.055 9.90674 11.5224 10.4108 11.5234 11.102C11.5239 11.4093 11.7378 11.7647 11.5822 12.0612C11.8263 12.0913 12.0907 12.124 12.2305 12.1315C12.3412 11.8151 12.077 11.4948 12.0313 11.1907C11.9285 10.5072 12.3811 9.93025 12.6082 9.32509C12.7538 8.93707 12.9184 8.4281 13.0267 7.89258C12.8366 8.44149 12.5821 8.95717 12.3687 9.34152Z" fill="#E0700A"/>
<path d="M14.3842 2.73708C14.2734 2.71053 14.0264 2.19233 13.9455 1.99023L13.7969 2.05115C13.8669 2.29838 14.1139 3.08023 14.2506 3.13824C14.6529 3.30874 14.9092 2.86283 14.3842 2.73708Z" fill="#EB6E25"/>
<path d="M13.6623 2.34608C13.6608 2.50483 13.5638 2.63248 13.4456 2.63135C13.3274 2.63021 13.2329 2.50066 13.2344 2.34191C13.2359 2.18317 13.333 2.05551 13.4512 2.05665C13.5693 2.05779 13.664 2.18734 13.6623 2.34608Z" fill="#D09067"/>
<path d="M13.6624 2.27968C13.6608 2.43842 13.5638 2.56608 13.4456 2.56494C13.3274 2.5638 13.2329 2.43425 13.2344 2.27551C13.2359 2.11676 13.333 1.9891 13.4512 1.99024C13.5692 1.99151 13.6639 2.12106 13.6624 2.27968Z" fill="#583412"/>
<path d="M13.5936 2.16483C13.5931 2.21223 13.5543 2.2504 13.5069 2.24989C13.4595 2.24939 13.4215 2.21058 13.4219 2.16319C13.4224 2.11579 13.4612 2.07775 13.5086 2.07813C13.5561 2.07863 13.5941 2.11743 13.5936 2.16483Z" fill="white"/>
<path d="M13.2299 4.95594C13.2231 4.95518 13.2148 4.9548 13.2031 4.95531C13.2121 4.95556 13.2211 4.95569 13.2299 4.95594Z" fill="#D09067"/>
<path d="M7.55487 11.1407L6.5986 11.4329C6.5895 11.4757 6.58293 11.5213 6.57812 11.5683C6.82004 11.4951 7.4051 11.3451 7.65636 11.2737C7.62464 11.227 7.5641 11.1379 7.55487 11.1407Z" fill="#D09067"/>
<path d="M11.6106 5.24435C11.5323 5.04959 11.3517 4.91498 11.1431 4.89097C10.7476 4.84559 10.0059 4.8801 9.02999 5.46326C8.93469 5.52027 6.58244 6.71617 6.10923 7.05364C5.88855 7.21099 5.77745 7.47995 5.82232 7.74727C5.96502 8.59725 6.25104 10.5617 6.45364 11.4878C6.56777 11.4377 7.48777 11.2057 7.70251 11.1393C7.67129 10.4744 7.43684 9.08183 7.39146 8.36191C7.38186 8.21049 7.48563 8.07538 7.63464 8.04694C7.95782 7.98539 9.15702 7.40867 9.15714 7.40892C9.4601 7.21933 10.0359 6.98867 10.4655 6.83233C11.2104 6.56097 11.9494 6.08586 11.6106 5.24435Z" fill="#FF860D"/>
<path d="M9.78992 5.76234C9.76957 5.77347 9.61916 5.84602 9.44512 5.92981C8.72495 6.27688 7.22633 6.99908 6.84564 7.25413C6.5758 7.43487 6.43424 7.74908 6.47595 8.0739C6.50742 8.31784 6.54698 8.65302 6.59147 9.02916C6.68083 9.78523 6.78751 10.6868 6.88735 11.3625C6.97671 11.3383 7.07138 11.3129 7.16491 11.288C7.06721 10.6211 6.96268 9.73809 6.87497 8.9958C6.83035 8.61852 6.79066 8.28219 6.75919 8.03763C6.73139 7.82087 6.82529 7.61157 7.00464 7.49137C7.36852 7.24756 8.91061 6.50438 9.56911 6.18714C9.80723 6.07238 9.9048 6.02524 9.92882 6.01184C10.6984 5.58236 11.3047 5.49983 11.6898 5.51007C11.6773 5.42577 11.6537 5.33754 11.6163 5.24465C11.6132 5.23706 11.6089 5.23011 11.6056 5.22266C11.1543 5.2248 10.5408 5.34336 9.78992 5.76234Z" fill="#7AC371"/>
<path d="M10.8828 1.72206L11.0323 0.736338C11.0323 0.736338 12.2109 0.0253906 12.275 0.0253906C12.3392 0.0253906 13.6227 0.398748 13.6682 0.449052C13.7137 0.499355 14.3682 1.03652 14.3682 1.03652L12.1611 1.16291L10.8828 1.72206Z" fill="#68280C"/>
<path d="M12.5963 0.188908C12.5963 0.188908 10.8061 0.568206 11.9259 3.84324C11.9521 3.91983 11.9662 4.00098 11.9657 4.08187L11.9601 5.04218L10.8952 4.87585C10.8952 4.87585 8.1356 2.21053 9.68111 1.07276C10.6618 0.350814 12.0548 -0.117084 12.6192 0.0256109C13.0779 0.141511 12.5963 0.188908 12.5963 0.188908Z" fill="#FF860D"/>
<path d="M9.59577 1.14844C8.26058 2.324 10.9008 4.87544 10.9008 4.87544L11.2019 4.92246C11.0628 4.76523 9.1438 2.56174 9.59577 1.14844Z" fill="#E0700A"/>
<path d="M11.9685 7.32532C12.0483 7.10692 12.1308 6.88118 12.1936 6.6576C12.4029 5.91126 11.8774 5.1217 11.8548 5.08833C11.8352 5.05952 11.7961 5.0518 11.767 5.0714C11.7381 5.09099 11.7305 5.13017 11.7501 5.15911C11.7553 5.16682 12.2657 5.93275 12.0719 6.62335C12.0105 6.84226 11.9288 7.06584 11.8498 7.28184C11.684 7.73571 11.5284 8.16594 11.583 8.49266C11.5608 8.51453 11.5469 8.54474 11.5469 8.57836C11.5469 8.64484 11.6007 8.69868 11.6672 8.69868C11.7337 8.69868 11.7875 8.64484 11.7875 8.57836C11.7875 8.5259 11.7535 8.48243 11.7066 8.466C11.6601 8.17353 11.8093 7.76099 11.9685 7.32532Z" fill="#7AC371"/>
<path d="M12.8867 5.85547C12.8589 5.88972 12.824 5.91829 12.7838 5.94129C12.8954 6.22643 13.0493 6.76207 12.8672 7.22681C12.7842 7.43851 12.6805 7.65274 12.5803 7.85977C12.3699 8.29481 12.1721 8.70722 12.1935 9.03786C12.1693 9.05732 12.1525 9.08601 12.1491 9.11951C12.1424 9.18561 12.1906 9.24463 12.2567 9.25121C12.3228 9.2579 12.3819 9.20962 12.3884 9.14352C12.3938 9.09132 12.3642 9.04468 12.3192 9.02358C12.3021 8.72782 12.4918 8.33222 12.6939 7.91475C12.7952 7.70545 12.8998 7.48907 12.9846 7.27281C13.1935 6.74033 13.0067 6.14541 12.8867 5.85547Z" fill="#7AC371"/>
<path d="M13.5615 1.90408C13.2257 1.90408 12.8768 1.50405 12.859 1.48332C12.8363 1.45691 12.8393 1.41697 12.8657 1.39422C12.892 1.37147 12.9319 1.37437 12.9548 1.40092C12.9595 1.40635 13.4223 1.9377 13.7127 1.72903C13.7411 1.7088 13.7805 1.71512 13.8009 1.74343C13.8212 1.77175 13.8148 1.81131 13.7865 1.83165C13.7149 1.88297 13.6386 1.90408 13.5615 1.90408Z" fill="#68280C"/>
</svg>
