<svg width="26" height="15" viewBox="0 0 26 15" fill="none" xmlns="http://www.w3.org/2000/svg">
<path d="M19.2987 14.2767C22.6868 14.2767 25.4334 11.1306 25.4334 7.24969C25.4334 3.36877 22.6868 0.222656 19.2987 0.222656C15.9107 0.222656 13.1641 3.36877 13.1641 7.24969C13.1641 11.1306 15.9107 14.2767 19.2987 14.2767Z" fill="#4EA65D"/>
<path d="M19.2952 14.5C15.7895 14.5 12.9375 11.2477 12.9375 7.25C12.9375 3.25228 15.7895 0 19.2952 0C22.8008 0 25.6528 3.25228 25.6528 7.25C25.6528 11.2472 22.8008 14.5 19.2952 14.5ZM19.2952 0.445936C16.0357 0.445936 13.3834 3.49807 13.3834 7.25C13.3834 11.0019 16.0357 14.0541 19.2952 14.0541C22.5546 14.0541 25.2069 11.0019 25.2069 7.25C25.2069 3.49807 22.5546 0.445936 19.2952 0.445936Z" fill="white"/>
<path d="M17.2909 14.2767C20.679 14.2767 23.4256 11.1306 23.4256 7.24969C23.4256 3.36877 20.679 0.222656 17.2909 0.222656C13.9028 0.222656 11.1562 3.36877 11.1562 7.24969C11.1562 11.1306 13.9028 14.2767 17.2909 14.2767Z" fill="#4EA65D"/>
<path d="M17.2873 14.5C13.7817 14.5 10.9297 11.2477 10.9297 7.25C10.9297 3.25228 13.7817 0 17.2873 0C20.793 0 23.645 3.25228 23.645 7.25C23.645 11.2472 20.793 14.5 17.2873 14.5ZM17.2873 0.445936C14.0279 0.445936 11.3756 3.49807 11.3756 7.25C11.3756 11.0019 14.0279 14.0541 17.2873 14.0541C20.5468 14.0541 23.1991 11.0019 23.1991 7.25C23.1991 3.49807 20.5468 0.445936 17.2873 0.445936Z" fill="white"/>
<path d="M17.963 8.03109H5.35938V6.02344H17.963C18.5173 6.02344 18.967 6.4727 18.967 7.02702C18.967 7.58183 18.5173 8.03109 17.963 8.03109Z" fill="#4EA65D"/>
<path d="M17.9598 8.25485H5.13281V5.80078H17.9598C18.6364 5.80078 19.1869 6.3513 19.1869 7.02781C19.1869 7.70479 18.6364 8.25485 17.9598 8.25485ZM5.57922 7.80891H17.9598C18.3906 7.80891 18.7405 7.45854 18.7405 7.02829C18.7405 6.59804 18.3901 6.24767 17.9598 6.24767H5.57922V7.80891Z" fill="white"/>
<path d="M8.36906 14.2767C11.7572 14.2767 14.5038 11.1306 14.5038 7.24969C14.5038 3.36877 11.7572 0.222656 8.36906 0.222656C4.98097 0.222656 2.23438 3.36877 2.23438 7.24969C2.23438 11.1306 4.98097 14.2767 8.36906 14.2767Z" fill="#4EA65D"/>
<path d="M8.36547 14.5C4.8598 14.5 2.00781 11.2477 2.00781 7.25C2.00781 3.25228 4.8598 0 8.36547 0C11.8711 0 14.7231 3.25228 14.7231 7.25C14.7231 11.2472 11.8711 14.5 8.36547 14.5ZM8.36547 0.445936C5.10606 0.445936 2.45374 3.49807 2.45374 7.25C2.45374 11.0019 5.10606 14.0541 8.36547 14.0541C11.6249 14.0541 14.2772 11.0019 14.2772 7.25C14.2772 3.49807 11.6249 0.445936 8.36547 0.445936Z" fill="white"/>
<path d="M6.36125 14.2767C9.74935 14.2767 12.4959 11.1306 12.4959 7.24969C12.4959 3.36877 9.74935 0.222656 6.36125 0.222656C2.97316 0.222656 0.226562 3.36877 0.226562 7.24969C0.226562 11.1306 2.97316 14.2767 6.36125 14.2767Z" fill="#4EA65D"/>
<path d="M6.35766 14.5C2.85198 14.5 0 11.2477 0 7.25C0 3.25228 2.85198 0 6.35766 0C9.86333 0 12.7153 3.25228 12.7153 7.25C12.7153 11.2472 9.86333 14.5 6.35766 14.5ZM6.35766 0.445936C3.09825 0.445936 0.445932 3.49807 0.445932 7.25C0.445932 11.0019 3.09825 14.0541 6.35766 14.0541C9.61707 14.0541 12.2694 11.0019 12.2694 7.25C12.2694 3.49807 9.61707 0.445936 6.35766 0.445936Z" fill="white"/>
<path d="M8.60431 7.2489C8.60431 8.66563 7.60167 9.81421 6.36466 9.81421C5.12764 9.81421 4.125 8.66563 4.125 7.2489C4.125 5.83218 5.12764 4.68359 6.36466 4.68359C7.60167 4.68312 8.60431 5.83171 8.60431 7.2489Z" fill="#4EA65D"/>
<path d="M6.36106 10.0375C5.00281 10.0375 3.89844 8.78669 3.89844 7.24922C3.89844 5.71174 5.00281 4.46094 6.36106 4.46094C7.71931 4.46094 8.82368 5.71174 8.82368 7.24922C8.82368 8.78669 7.71931 10.0375 6.36106 10.0375ZM6.36106 4.90687C5.24908 4.90687 4.34485 5.95753 4.34485 7.24922C4.34485 8.54043 5.24955 9.59156 6.36106 9.59156C7.47304 9.59156 8.37727 8.54043 8.37727 7.24922C8.37727 5.95753 7.47304 4.90687 6.36106 4.90687Z" fill="white"/>
<path d="M7.69806 7.2489C7.69806 8.66562 6.69542 9.81421 5.4584 9.81421C4.22139 9.81421 3.21875 8.66562 3.21875 7.2489C3.21875 5.83218 4.22139 4.68359 5.4584 4.68359C6.69542 4.68359 7.69806 5.83171 7.69806 7.2489Z" fill="#4EA65D"/>
<path d="M5.46262 10.0375C4.10438 10.0375 3 8.78669 3 7.24922C3 5.71174 4.10438 4.46094 5.46262 4.46094C6.82087 4.46094 7.92525 5.71174 7.92525 7.24922C7.92525 8.78669 6.82087 10.0375 5.46262 10.0375ZM5.46262 4.90687C4.35064 4.90687 3.44641 5.95753 3.44641 7.24922C3.44641 8.54043 4.35111 9.59156 5.46262 9.59156C6.57413 9.59156 7.47884 8.54043 7.47884 7.24922C7.47884 5.95753 6.57461 4.90687 5.46262 4.90687Z" fill="white"/>
</svg>
