<svg width="25" height="25" viewBox="0 0 25 25" fill="none" xmlns="http://www.w3.org/2000/svg">
<path d="M15.6771 8.35439C16.1422 6.5644 15.0682 4.73628 13.2782 4.27117C11.4882 3.80606 9.66006 4.88008 9.19494 6.67007C8.72983 8.46006 9.80386 10.2882 11.5938 10.7533C13.3838 11.2184 15.212 10.1444 15.6771 8.35439Z" fill="#FFE9E9"/>
<path d="M4.73629 17.5246C4.73629 17.5246 0.0885931 11.9663 1.00554 11.4226C1.92249 10.8789 5.12584 17.338 5.12584 17.338C5.12584 17.338 2.45364 12.2948 3.41484 11.8691C4.37604 11.4434 5.44774 17.3749 5.44774 17.3749L4.53674 17.797C4.53674 17.797 0.747843 15.599 1.13934 15.004C1.53084 14.409 4.73629 17.5246 4.73629 17.5246Z" fill="#E8C1C1"/>
<path d="M4.66671 17.7449C3.41916 16.6069 2.34166 15.7858 1.37256 15.2347L1.39111 15.2021C2.36266 15.7547 3.44236 16.5773 4.69201 17.7172L4.66671 17.7449Z" fill="#DBA9A9"/>
<path d="M4.95862 17.6033C3.53672 15.1363 2.28252 13.1841 1.12427 11.6352L1.15432 11.6128C2.31347 13.1629 3.56852 15.1163 4.99112 17.5846L4.95862 17.6033Z" fill="#DBA9A9"/>
<path d="M5.25427 17.4604C4.73007 15.258 4.16757 13.5352 3.53467 12.1937L3.56862 12.1777C4.20262 13.5216 4.76592 15.2467 5.29077 17.4517L5.25427 17.4604Z" fill="#DBA9A9"/>
<path d="M16.4344 11.1087C16.4344 11.1087 18.3468 6.55891 17.6409 6.38866C16.935 6.21841 16.1434 11.0653 16.1434 11.0653C16.1434 11.0653 16.8728 7.24661 16.1618 7.16201C15.4507 7.07741 15.9412 11.1538 15.9412 11.1538L16.6189 11.2461C16.6189 11.2461 18.6453 9.05611 18.2712 8.74711C17.8972 8.43816 16.4344 11.1087 16.4344 11.1087Z" fill="#E8C1C1"/>
<path d="M16.5289 11.2411L16.4966 11.2221C17.0821 10.2293 17.6205 9.47701 18.1426 8.92236L18.1699 8.94806C17.6497 9.50071 17.113 10.2508 16.5289 11.2411Z" fill="#DBA9A9"/>
<path d="M16.3114 11.2056L16.2749 11.1973C16.7068 9.30489 17.1325 7.78149 17.5767 6.54004L17.612 6.55269C17.1683 7.79269 16.7429 9.31469 16.3114 11.2056Z" fill="#DBA9A9"/>
<path d="M16.0529 11.1729C15.9528 9.63197 15.9739 8.39557 16.1176 7.39307L16.1547 7.39842C16.0114 8.39827 15.9904 9.63217 16.0903 11.1705L16.0529 11.1729Z" fill="#DBA9A9"/>
<path d="M9.8075 16.647L9.77 16.6463C9.77025 16.6328 9.78995 15.2717 9.49625 13.5514C9.22535 11.9647 8.6248 9.73927 7.30225 8.14802L7.3311 8.12402C8.6591 9.72187 9.2617 11.9544 9.53335 13.5458C9.82755 15.2694 9.80775 16.6335 9.8075 16.647Z" fill="#DBA9A9"/>
<path d="M7.37969 8.17081C7.00944 8.17126 6.81209 7.92511 6.73169 7.51221C7.11149 7.57641 7.34009 7.78401 7.37969 8.17081Z" fill="#E8C1C1"/>
<path d="M7.6082 8.51099C7.3632 8.78859 7.04805 8.77324 6.68555 8.55989C6.9853 8.31799 7.29225 8.28439 7.6082 8.51099Z" fill="#E8C1C1"/>
<path d="M8.06523 9.21121C7.82023 9.48881 7.50508 9.47346 7.14258 9.26011C7.44233 9.01821 7.74928 8.98456 8.06523 9.21121Z" fill="#E8C1C1"/>
<path d="M8.47783 10.0388C8.23283 10.3164 7.91768 10.3011 7.55518 10.0877C7.85493 9.84585 8.16188 9.8122 8.47783 10.0388Z" fill="#E8C1C1"/>
<path d="M7.85771 8.88241C7.65291 8.57397 7.74916 8.27352 8.04901 7.97852C8.20521 8.33057 8.15836 8.63582 7.85771 8.88241Z" fill="#E8C1C1"/>
<path d="M8.32621 9.6749C8.12141 9.36645 8.21766 9.066 8.51751 8.771C8.67371 9.1231 8.62686 9.4283 8.32621 9.6749Z" fill="#E8C1C1"/>
<path d="M8.79325 10.6627C8.58845 10.3543 8.6847 10.0538 8.98455 9.75879C9.1407 10.1109 9.09385 10.4161 8.79325 10.6627Z" fill="#E8C1C1"/>
<path d="M9.56562 14.0828L9.52912 14.0744C9.53832 14.0342 10.4371 10.024 9.03247 7.35637L9.06567 7.33887C10.4768 10.019 9.57492 14.0425 9.56562 14.0828Z" fill="#DBA9A9"/>
<path d="M9.09046 7.38348C8.81451 7.32538 8.70636 7.11083 8.71161 6.79053C8.98446 6.89828 9.12201 7.08903 9.09046 7.38348Z" fill="#E8C1C1"/>
<path d="M9.20706 7.67314C8.98071 7.84129 8.74836 7.78009 8.51196 7.56394C8.77341 7.43099 9.00741 7.45439 9.20706 7.67314Z" fill="#E8C1C1"/>
<path d="M9.43704 8.26686C9.21069 8.43501 8.97834 8.3738 8.74194 8.15765C9.00344 8.02475 9.23744 8.04816 9.43704 8.26686Z" fill="#E8C1C1"/>
<path d="M9.6138 8.9485C9.38745 9.11665 9.1551 9.05545 8.9187 8.8393C9.1802 8.7064 9.4142 8.7298 9.6138 8.9485Z" fill="#E8C1C1"/>
<path d="M9.33439 7.98895C9.23049 7.7268 9.34964 7.51815 9.61959 7.3457C9.68039 7.6327 9.59729 7.8527 9.33439 7.98895Z" fill="#E8C1C1"/>
<path d="M9.55826 8.6535C9.45436 8.39135 9.57351 8.1827 9.84346 8.01025C9.90426 8.2972 9.82116 8.5172 9.55826 8.6535Z" fill="#E8C1C1"/>
<path d="M9.75016 9.46307C9.64626 9.20092 9.76541 8.99227 10.0354 8.81982C10.0961 9.10677 10.013 9.32677 9.75016 9.46307Z" fill="#E8C1C1"/>
<path d="M20.5609 17.3122L20.5239 17.306C20.7942 15.7021 21.3968 13.4527 22.7328 11.8452L22.7616 11.8692C21.4309 13.4702 20.8304 15.7128 20.5609 17.3122Z" fill="#DBA9A9"/>
<path d="M22.6841 11.892C23.0543 11.8924 23.2517 11.6463 23.3321 11.2334C22.9523 11.2976 22.7237 11.5052 22.6841 11.892Z" fill="#E8C1C1"/>
<path d="M22.4556 12.2322C22.7006 12.5098 23.0157 12.4945 23.3782 12.2811C23.0785 12.0392 22.7715 12.0056 22.4556 12.2322Z" fill="#E8C1C1"/>
<path d="M21.9985 12.9324C22.2435 13.21 22.5587 13.1946 22.9212 12.9813C22.6214 12.7394 22.3145 12.7058 21.9985 12.9324Z" fill="#E8C1C1"/>
<path d="M21.5859 13.76C21.8309 14.0376 22.1461 14.0223 22.5086 13.8089C22.2088 13.567 21.9019 13.5334 21.5859 13.76Z" fill="#E8C1C1"/>
<path d="M22.2059 12.6037C22.4107 12.2952 22.3145 11.9948 22.0146 11.6997C21.8585 12.0518 21.9053 12.357 22.2059 12.6037Z" fill="#E8C1C1"/>
<path d="M21.7375 13.3961C21.9423 13.0877 21.846 12.7872 21.5462 12.4922C21.39 12.8443 21.4368 13.1495 21.7375 13.3961Z" fill="#E8C1C1"/>
<path d="M21.2706 14.3839C21.4754 14.0754 21.3792 13.775 21.0793 13.48C20.9232 13.8321 20.97 14.1373 21.2706 14.3839Z" fill="#E8C1C1"/>
<path d="M16.4197 16.6362C16.5367 13.93 17.2576 11.6775 18.6722 9.946L19.0161 10.2151L18.859 9.725C19.5666 8.91565 20.4349 8.22705 21.4737 7.6665C21.4508 8.09185 21.4204 8.58385 21.3676 9.12305L20.8635 9.33965L21.335 9.43585C21.2411 10.2817 21.0891 11.2279 20.8272 12.206L20.0347 12.5119L20.7028 12.6444C20.2981 13.9931 19.6734 15.3822 18.6957 16.6362H16.4197V16.6362Z" fill="#E8C1C1"/>
<path d="M17.5089 16.6388L17.4717 16.6341C18.0569 11.9693 20.9687 8.30989 20.998 8.27344L21.0272 8.29699C20.9979 8.33329 18.0927 11.9848 17.5089 16.6388Z" fill="#DBA9A9"/>
<path d="M10.0641 18.1812C9.92471 14.9595 9.06651 12.2779 7.38251 10.2166L6.97311 10.537L7.16011 9.95353C6.31771 8.99003 5.28406 8.17023 4.04736 7.50293C4.07461 8.00928 4.11081 8.59503 4.17361 9.23693L4.77376 9.49478L4.21246 9.60933C4.32426 10.6163 4.50521 11.7427 4.81706 12.9071L5.76046 13.2713L4.96516 13.4291C5.44686 15.0347 6.19061 16.6884 7.35451 18.1812H10.0641Z" fill="#E8C1C1"/>
<path d="M8.77079 18.1837C8.40754 15.2883 7.28794 12.742 6.41269 11.1158C5.46414 9.35344 4.59024 8.26189 4.58154 8.25109L4.61074 8.22754C4.61949 8.23839 5.49514 9.33199 6.44529 11.0972C7.32224 12.7264 8.44399 15.2775 8.80799 18.179L8.77079 18.1837Z" fill="#DBA9A9"/>
<path d="M23.5364 17.8105H1.46362V17.848H23.5364V17.8105Z" fill="#5E1F3C"/>
<path d="M12.4354 21.8508C18.0072 21.8508 22.5241 21.1427 22.5241 20.2691C22.5241 19.3956 18.0072 18.6875 12.4354 18.6875C6.86354 18.6875 2.34668 19.3956 2.34668 20.2691C2.34668 21.1427 6.86354 21.8508 12.4354 21.8508Z" fill="#E8C1C1"/>
<path d="M17.5774 14.0126C17.8254 12.7884 17.097 11.0121 16.2602 10.3055C15.4233 9.59893 14.9796 9.14773 14.7472 7.75728C14.5769 6.73903 14.1126 5.70168 13.0382 5.39853C12.4333 5.22788 11.7757 5.34348 11.2655 5.71093C10.715 6.10738 10.4169 6.77848 10.2524 7.41838C10.1124 7.96298 10.0572 8.52288 9.78901 9.02783C9.51321 9.54703 9.07041 9.93173 8.62766 10.3055C7.79081 11.0121 7.06246 12.7884 7.31041 14.0126C7.55836 15.2368 7.07256 15.231 7.26121 16.3644C7.44986 17.4979 8.56296 18.3111 8.56296 18.3111L12.0042 18.5345L12.3548 14.5594L12.4439 12.5336L12.533 14.5594L12.8835 18.5345L16.3248 18.3111C16.3248 18.3111 17.4379 17.4979 17.6265 16.3644C17.8152 15.231 17.3295 15.2368 17.5774 14.0126Z" fill="#5E1F3C"/>
<path d="M13.1417 8.81494H11.7322V10.291H13.1417V8.81494Z" fill="#F39170"/>
<path d="M16.6748 13.0122C16.6092 13.2127 15.2755 14.0845 14.8799 14.0412L15.4752 13.1463L16.6748 13.0122Z" fill="#DDA8A8"/>
<path d="M14.9756 13.9082L15.3456 12.9907L16.3645 13.0742L16.7514 13.8165C16.455 14.3005 16.2142 14.8524 15.7232 15.2226C15.4079 14.9584 14.9756 13.9082 14.9756 13.9082Z" fill="#F39170"/>
<path d="M13.2451 9.93994C13.2451 9.93994 14.4617 9.97884 15.0135 10.4989C15.7342 11.1956 16.6748 13.0124 16.6748 13.0124C16.1864 13.0501 14.9814 13.7691 14.8799 14.0414L14.2458 13.1985L13.2451 9.93994Z" fill="white"/>
<path d="M8.32544 13.0122C8.39104 13.2127 9.72479 14.0845 10.1204 14.0412L9.52509 13.1463L8.32544 13.0122Z" fill="#DDA8A8"/>
<path d="M10.0246 13.9082L9.65463 12.9907L8.63573 13.0742L8.24878 13.8165C8.54518 14.3005 8.78598 14.8524 9.27703 15.2226C9.59233 14.9584 10.0246 13.9082 10.0246 13.9082Z" fill="#F39170"/>
<path d="M11.6239 9.93994C11.6239 9.93994 10.5385 9.97884 9.98679 10.4989C9.26609 11.1956 8.32544 13.0124 8.32544 13.0124C8.81384 13.0501 10.0188 13.7691 10.1204 14.0414L10.7544 13.1985L11.6239 9.93994Z" fill="white"/>
<path d="M16.9433 18.9166C17.2231 18.9368 17.5613 18.9456 17.8155 18.9025C18.4371 18.7578 18.5452 19.2122 18.8405 19.6117C19.0387 19.8797 19.3298 20.063 19.6532 20.1438C20.2855 20.3016 20.3991 20.5556 20.2573 20.8901C19.693 20.8983 18.0492 20.8215 16.782 20.5303C16.9369 20.0381 17.0036 19.5061 16.9433 18.9166Z" fill="white"/>
<path d="M17.0645 20.5931L17.0291 20.5808C17.216 20.0448 17.2669 19.4909 17.1805 18.9345L17.2175 18.9287C17.3049 19.4913 17.2534 20.0513 17.0645 20.5931Z" fill="#5E1F3C"/>
<path d="M12.5303 15.3459C13.3217 15.3463 14.1115 15.1372 14.9071 14.6977C14.7506 14.2456 14.5229 13.9811 14.5373 13.6997C14.5415 13.5382 13.5144 13.4598 12.5001 13.4673C11.4857 13.4598 10.4587 13.5382 10.4628 13.6997C10.4773 13.9812 10.2496 14.2456 10.093 14.6977C10.8886 15.1372 11.6785 15.3463 12.4698 15.3459C12.4799 15.3461 12.49 15.3461 12.5001 15.3462C12.5102 15.3461 12.5203 15.3461 12.5303 15.3459Z" fill="#F39170"/>
<path d="M20.2635 16.0908C18.9782 15.6878 17.0471 15.4138 15.2743 15.3122C15.193 15.0543 15.0689 14.836 14.9112 14.6489C13.5823 15.0995 11.2705 15.1418 10.0912 14.6489C9.9575 14.8546 9.8505 15.0751 9.7734 15.3122C8.0006 15.4138 6.0695 15.6878 4.78415 16.0908C3.12905 16.5904 3.20465 18.6373 4.79865 19.0601C5.723 19.2612 6.74115 19.3539 7.90875 19.3571C7.94705 19.7569 8.04275 20.1779 8.17425 20.6123L12.5238 20.0369L16.8008 20.6037C16.962 20.2692 17.0317 19.9282 17.0846 19.4985C18.2098 19.367 19.3246 19.2612 20.249 19.0601C21.843 18.6374 21.9186 16.5904 20.2635 16.0908Z" fill="#D85B6B"/>
<path d="M17.0824 19.4799L12.5217 20.0186L12.5261 20.0557L17.0868 19.5171L17.0824 19.4799Z" fill="#5E1F3C"/>
<path d="M7.84394 18.473L7.83569 18.4364C8.74469 18.2313 9.57469 18.0299 10.3774 17.8353C12.9528 17.2106 15.1771 16.6711 18.3878 16.4106L18.3908 16.448C15.183 16.7082 12.9601 17.2474 10.3862 17.8717C9.58339 18.0664 8.75324 18.2677 7.84394 18.473Z" fill="#5E1F3C"/>
<path d="M11.9785 17.486C11.429 17.3745 10.9278 17.264 10.4431 17.1572C9.19662 16.8824 8.12012 16.6451 6.83887 16.5275L6.84227 16.4902C8.12587 16.608 9.20342 16.8455 10.4511 17.1205C10.9357 17.2273 11.4367 17.3378 11.9859 17.4492L11.9785 17.486Z" fill="#5E1F3C"/>
<path d="M8.1245 20.4445L4.04775 20.8898C3.906 20.5554 4.01955 20.3014 4.65185 20.1436C4.97525 20.0628 5.2663 19.8795 5.46455 19.6115C5.75995 19.212 5.86805 18.7576 6.4896 18.9023C7.01015 18.9907 7.884 18.8613 7.884 18.8613C7.888 19.4448 7.98245 19.9569 8.1245 20.4445Z" fill="#F39170"/>
<path d="M7.36175 18.9166C7.082 18.9368 6.74375 18.9456 6.4896 18.9025C5.868 18.7578 5.7599 19.2122 5.46455 19.6117C5.26635 19.8797 4.9753 20.063 4.65185 20.1438C4.01955 20.3016 3.906 20.5556 4.04775 20.8901C4.6121 20.8983 6.25585 20.8215 7.5231 20.5303C7.36825 20.0381 7.3015 19.5061 7.36175 18.9166Z" fill="white"/>
<path d="M14.8646 11.0305C14.44 9.93532 13.1456 9.93652 13.1456 9.93652C12.7499 10.2463 12.0958 10.2282 11.7295 9.93652C11.7295 9.93652 10.5387 9.93527 10.1141 11.0305C9.80403 11.6768 9.65798 12.4868 10.302 13.1544L10.3494 13.7318C11.7141 13.976 13.1408 13.9761 14.6293 13.7318L14.6766 13.1544C15.3208 12.4868 15.1747 11.6768 14.8646 11.0305Z" fill="white"/>
<path d="M10.3307 13.7333L10.2839 13.1626C9.75488 12.6104 9.69028 11.8705 10.0972 11.0225L10.131 11.0387C9.72458 11.8857 9.78663 12.5932 10.3156 13.1414L10.3202 13.1462L10.3681 13.7303L10.3307 13.7333Z" fill="#5E1F3C"/>
<path d="M14.648 13.7333L14.6106 13.7303L14.6584 13.1462L14.6631 13.1414C15.192 12.5932 15.2541 11.8857 14.8476 11.0387L14.8814 11.0225C15.2884 11.8704 15.2238 12.6103 14.6948 13.1626L14.648 13.7333Z" fill="#5E1F3C"/>
<path d="M11.223 16.6061C10.8957 15.8372 9.77712 15.3347 9.76587 15.3297L9.78107 15.2954C9.79247 15.3005 10.9244 15.8089 11.2576 16.5915L11.223 16.6061Z" fill="#5E1F3C"/>
<path d="M14.3882 16.1711L14.354 16.1557C14.5717 15.6719 15.2373 15.3109 15.2655 15.2959L15.2832 15.3289C15.2764 15.3325 14.6007 15.6991 14.3882 16.1711Z" fill="#5E1F3C"/>
<path d="M12.3803 15.3394C11.5189 15.3394 10.6969 15.1997 9.93774 14.9203L9.95069 14.8851C11.4703 15.4443 13.2439 15.4408 15.0801 14.8745L15.0912 14.9104C14.1637 15.1964 13.2519 15.3394 12.3803 15.3394Z" fill="#5E1F3C"/>
<path d="M12.4732 15.1683C12.4732 15.2106 12.4389 15.2449 12.3966 15.2449C12.3543 15.2449 12.3201 15.2106 12.3201 15.1683C12.3201 15.126 12.3544 15.0918 12.3966 15.0918C12.4389 15.0917 12.4732 15.126 12.4732 15.1683Z" fill="#5E1F3C"/>
<path d="M12.74 15.1683C12.74 15.2106 12.7057 15.2449 12.6635 15.2449C12.6212 15.2449 12.5869 15.2106 12.5869 15.1683C12.5869 15.126 12.6212 15.0918 12.6635 15.0918C12.7057 15.0917 12.74 15.126 12.74 15.1683Z" fill="#5E1F3C"/>
<path d="M12.6635 15.1494H12.3967V15.1869H12.6635V15.1494Z" fill="#5E1F3C"/>
<path d="M12.323 16.4059C12.3058 16.4059 12.2879 16.4024 12.2693 16.3955C12.2192 16.3768 12.1837 16.3401 12.164 16.2864C12.0515 15.9803 12.4889 15.1924 12.5076 15.159C12.5116 15.1517 12.5198 15.1481 12.5279 15.1498C12.536 15.1516 12.542 15.1584 12.5426 15.1667C12.546 15.2092 12.6227 16.2104 12.3983 16.3798C12.3754 16.3972 12.3501 16.4059 12.323 16.4059ZM12.5096 15.2346C12.4101 15.4236 12.1094 16.0291 12.1992 16.2734C12.2152 16.317 12.2425 16.3454 12.2825 16.3603C12.3183 16.3737 12.3488 16.3702 12.3758 16.3498C12.553 16.2161 12.5229 15.4621 12.5096 15.2346Z" fill="#5E1F3C"/>
<path d="M12.7635 16.151C12.6788 16.151 12.6097 16.123 12.5572 16.0675C12.3375 15.8353 12.4855 15.2015 12.4919 15.1746C12.4935 15.1679 12.4986 15.1626 12.5053 15.1608C12.5119 15.159 12.519 15.161 12.5237 15.166C12.5465 15.1899 13.081 15.7547 12.9999 16.0195C12.9803 16.0834 12.9281 16.125 12.8447 16.1433C12.8163 16.1485 12.7892 16.151 12.7635 16.151ZM12.5209 15.2182C12.4931 15.3546 12.4067 15.8539 12.5844 16.0417C12.6436 16.1044 12.7288 16.1261 12.8375 16.1065C12.907 16.0913 12.9486 16.0593 12.9641 16.0086C13.0296 15.7947 12.6257 15.3331 12.5209 15.2182Z" fill="#5E1F3C"/>
<path d="M12.5582 15.2094L12.5208 15.2119L12.6454 17.0682L12.6828 17.0657L12.5582 15.2094Z" fill="#5E1F3C"/>
<path d="M7.24068 20.5931C7.05178 20.0512 7.00028 19.4912 7.08768 18.9287L7.12473 18.9345C7.03828 19.4908 7.08923 20.0447 7.27608 20.5808L7.24068 20.5931Z" fill="#5E1F3C"/>
<path d="M11.4073 13.336C11.3073 13.336 11.2191 13.3252 11.1454 13.3105C10.9135 13.2644 10.7753 13.1739 10.7695 13.1701L10.7903 13.1388C10.7958 13.1424 11.3436 13.4954 12.0662 13.1377L12.0828 13.1713C11.8288 13.297 11.597 13.336 11.4073 13.336Z" fill="#5E1F3C"/>
<path d="M13.6181 13.3352C13.4237 13.3352 13.1954 13.2942 12.947 13.1713L12.9636 13.1377C13.6864 13.4953 14.2342 13.1425 14.2396 13.1388L14.2603 13.1701C14.2566 13.1726 14.005 13.3352 13.6181 13.3352Z" fill="#5E1F3C"/>
<path d="M8.2488 13.8164L8.2349 13.8431C6.957 14.0997 4.7666 14.8684 4.7666 14.8684L5.06515 16.0906C5.06515 16.0906 8.162 15.7236 9.2303 15.2569C9.2455 15.2478 9.26115 15.2359 9.27705 15.2226C8.786 14.8524 8.5452 14.3004 8.2488 13.8164Z" fill="#F39170"/>
<path d="M5.41798 15.2686C5.32528 14.9833 5.14783 14.8813 4.94838 14.7934C4.94838 14.7934 4.87113 14.1715 4.75058 14.0803C4.63003 13.9891 3.98003 14.0504 3.98003 14.0504C3.90468 14.3043 4.17248 14.4683 4.42988 14.4646C4.44678 14.4509 4.45138 14.9682 4.45138 14.9682L4.11048 15.1142L3.65958 14.8284C3.89243 14.62 4.08148 14.3961 3.92883 14.1418C3.74168 14.193 3.59718 14.2942 3.43748 14.3854C3.43748 14.3854 3.09308 14.7774 3.10458 14.9727C3.11608 15.168 3.45988 15.4251 3.45988 15.4251L2.51088 15.8971C2.24523 16.0498 2.20913 16.2094 2.30388 16.3728L2.50678 16.2957C2.27448 16.4695 2.25038 16.6429 2.38408 16.8159L3.24358 16.5056C3.09613 16.6257 3.04353 16.7788 3.11398 16.8951L4.40818 16.43C5.06743 16.2032 5.58788 15.8889 5.41798 15.2686Z" fill="#F39170"/>
<path d="M4.1703 16.1116L3.23682 16.4878L3.25083 16.5226L4.18432 16.1464L4.1703 16.1116Z" fill="#5E1F3C"/>
<path d="M3.90726 15.6686L2.49976 16.2783L2.51464 16.3127L3.92215 15.703L3.90726 15.6686Z" fill="#5E1F3C"/>
<path d="M3.65919 14.8088L3.50073 14.8154L3.50229 14.8529L3.66075 14.8463L3.65919 14.8088Z" fill="#5E1F3C"/>
<path d="M4.55728 14.3617L4.42017 14.4478L4.44008 14.4795L4.57719 14.3934L4.55728 14.3617Z" fill="#5E1F3C"/>
<path d="M4.53453 15.6507C4.22708 15.2805 4.43378 14.9612 4.43593 14.958L4.46713 14.9788C4.45913 14.9909 4.27433 15.2787 4.56338 15.6268L4.53453 15.6507Z" fill="#5E1F3C"/>
<path d="M5.13284 16.0988L5.11084 16.0684C5.11309 16.0667 5.33974 15.9004 5.39514 15.7095L5.43119 15.7199C5.37209 15.9234 5.14259 16.0917 5.13284 16.0988Z" fill="#5E1F3C"/>
<path d="M8.25094 13.8351L8.21802 13.853L8.35318 14.1009L8.3861 14.083L8.25094 13.8351Z" fill="#5E1F3C"/>
<path d="M16.7514 13.8164L16.7653 13.8431C18.0432 14.0997 20.2336 14.8684 20.2336 14.8684L19.935 16.0906C19.935 16.0906 16.8382 15.7236 15.7699 15.2569C15.7547 15.2478 15.739 15.2359 15.7231 15.2226C16.2142 14.8524 16.455 14.3004 16.7514 13.8164Z" fill="#F39170"/>
<path d="M19.582 15.2686C19.6747 14.9833 19.8522 14.8813 20.0516 14.7934C20.0516 14.7934 20.1288 14.1715 20.2494 14.0803C20.3699 13.9891 21.0199 14.0504 21.0199 14.0504C21.0953 14.3043 20.8275 14.4683 20.5701 14.4646C20.5532 14.4509 20.5486 14.9682 20.5486 14.9682L20.8895 15.1142L21.3404 14.8284C21.1076 14.62 20.9185 14.3961 21.0711 14.1418C21.2583 14.193 21.4028 14.2942 21.5625 14.3854C21.5625 14.3854 21.9069 14.7774 21.8954 14.9727C21.8839 15.168 21.5401 15.4251 21.5401 15.4251L22.4891 15.8971C22.7547 16.0498 22.7908 16.2094 22.6961 16.3728L22.4932 16.2957C22.7255 16.4695 22.7496 16.6429 22.6159 16.8159L21.7563 16.5056C21.9038 16.6257 21.9564 16.7788 21.8859 16.8951L20.5917 16.43C19.9326 16.2032 19.4121 15.8889 19.582 15.2686Z" fill="#F39170"/>
<path d="M20.829 16.1117L20.8149 16.1465L21.7483 16.5231L21.7623 16.4883L20.829 16.1117Z" fill="#5E1F3C"/>
<path d="M22.4856 16.3131L21.0781 15.7033L21.0931 15.6689L22.5006 16.2787L22.4856 16.3131Z" fill="#5E1F3C"/>
<path d="M21.3397 14.8101L21.3381 14.8477L21.4966 14.8542L21.4982 14.8167L21.3397 14.8101Z" fill="#5E1F3C"/>
<path d="M20.4425 14.3638L20.4226 14.3955L20.5598 14.4815L20.5797 14.4498L20.4425 14.3638Z" fill="#5E1F3C"/>
<path d="M20.4656 15.6507L20.4368 15.6268C20.7258 15.2787 20.541 14.9909 20.533 14.9788L20.5642 14.958C20.5663 14.9612 20.773 15.2804 20.4656 15.6507Z" fill="#5E1F3C"/>
<path d="M19.8671 16.0987C19.8574 16.0916 19.6279 15.9233 19.5688 15.7199L19.6049 15.7095C19.6603 15.9006 19.8869 16.0667 19.8892 16.0684L19.8671 16.0987Z" fill="#5E1F3C"/>
<path d="M16.7483 13.8332L16.613 14.0811L16.646 14.099L16.7813 13.8512L16.7483 13.8332Z" fill="#5E1F3C"/>
<path d="M12.4298 10.4355C12.4229 10.4355 12.416 10.4355 12.4091 10.4354C12.1147 10.4318 11.6924 10.3493 11.3521 9.97647L11.3798 9.95117C11.711 10.314 12.1226 10.3944 12.4095 10.3979C12.8431 10.4047 13.2924 10.2294 13.5554 9.95517L13.5825 9.98117C13.3127 10.2625 12.8726 10.4355 12.4298 10.4355Z" fill="#5E1F3C"/>
<path d="M13.9227 6.85435C13.8796 6.45165 13.6986 6.08885 13.3576 5.8602C12.6672 5.39725 11.6067 5.50395 11.1466 6.24205C11.0881 6.3359 11.043 6.43795 11.0139 6.5447C10.9863 6.64575 10.9709 6.7499 10.9651 6.8544C10.9651 6.8544 10.8827 7.62045 11.0065 8.09565C11.0796 8.36505 11.1884 8.62925 11.3553 8.85565C11.4722 9.01415 11.6179 9.15225 11.7894 9.25175C11.9126 9.32325 12.0478 9.3744 12.1881 9.4013C12.2701 9.41705 12.3539 9.42495 12.4379 9.4267C12.4399 9.4267 12.4419 9.4264 12.4439 9.4264C12.4459 9.4264 12.4479 9.4267 12.4499 9.4261C12.5338 9.42495 12.6177 9.41705 12.6997 9.40135C12.8399 9.37445 12.9752 9.3233 13.0984 9.2518C13.2698 9.1523 13.4156 9.0142 13.5325 8.8557C13.6994 8.62925 13.8083 8.3651 13.8813 8.0957C14.0052 7.62055 13.9228 6.8548 13.9227 6.85435Z" fill="#F39170"/>
<path d="M11.1066 7.5149C11.1066 7.5149 10.7008 7.3109 10.5268 7.5804C10.3527 7.8499 10.6866 8.77635 11.2018 8.2448C11.7169 7.7133 11.1066 7.5149 11.1066 7.5149Z" fill="#F39170"/>
<path d="M10.8814 8.19184C10.739 8.10589 10.6677 7.89884 10.7014 7.77804C10.7187 7.71589 10.7606 7.68164 10.8195 7.68164V7.71914C10.7778 7.71914 10.7502 7.74234 10.7375 7.78809C10.708 7.89399 10.7742 8.08334 10.9008 8.15974L10.8814 8.19184Z" fill="#5E1F3C"/>
<path d="M10.9299 8.04228C10.8589 7.95848 10.7634 8.01953 10.7594 8.02218L10.7388 7.99083C10.7825 7.96213 10.8846 7.93078 10.9585 8.01803L10.9299 8.04228Z" fill="#5E1F3C"/>
<path d="M13.7728 7.5149C13.7728 7.5149 14.1786 7.3109 14.3526 7.5804C14.5267 7.8499 14.1927 8.77635 13.6776 8.2448C13.1625 7.7133 13.7728 7.5149 13.7728 7.5149Z" fill="#F39170"/>
<path d="M13.9979 8.19184L13.9785 8.15974C14.105 8.08339 14.1712 7.89399 14.1418 7.78809C14.129 7.74234 14.1014 7.71914 14.0598 7.71914V7.68164C14.1186 7.68164 14.1606 7.71584 14.1779 7.77804C14.2115 7.89884 14.1403 8.10594 13.9979 8.19184Z" fill="#5E1F3C"/>
<path d="M13.9495 8.0427L13.9209 8.0185C13.9948 7.9313 14.0969 7.9626 14.1406 7.9913L14.1201 8.02265C14.116 8.02 14.0202 7.9592 13.9495 8.0427Z" fill="#5E1F3C"/>
<path d="M12.425 9.45627C12.2024 9.45627 11.9525 9.39462 11.6963 9.21527L11.7178 9.18457C12.3439 9.62277 12.9319 9.33727 13.1556 9.19422L13.1758 9.22582C13.0372 9.31447 12.7625 9.45627 12.425 9.45627Z" fill="#5E1F3C"/>
<path d="M11.767 8.04276C11.6669 8.04276 11.571 8.0028 11.4778 7.92295L11.5022 7.8945C11.6732 8.04095 11.8548 8.0406 12.0574 7.89355L12.0794 7.9239C11.9703 8.0031 11.8666 8.04276 11.767 8.04276Z" fill="#5E1F3C"/>
<path d="M10.9384 7.35679C10.9384 7.35679 11.3923 7.04689 11.5879 6.52309C11.5879 6.52309 12.273 7.59864 14.0152 7.24249C14.0152 7.24249 14.1182 4.74214 11.5669 5.66404C10.6192 6.08304 10.9384 7.35679 10.9384 7.35679Z" fill="#5E1F3C"/>
<path d="M11.5711 6.53156C11.4656 6.32401 11.3981 6.13171 11.3647 5.94356L11.4016 5.93701C11.4343 6.12141 11.5007 6.31036 11.6045 6.51456L11.5711 6.53156Z" fill="#300E1F"/>
<path d="M13.9494 7.27444L13.9456 7.23714C13.9483 7.23689 14.2156 7.20649 14.3839 6.96484L14.4147 6.98629C14.2363 7.24249 13.961 7.27324 13.9494 7.27444Z" fill="#300E1F"/>
<path d="M12.4488 8.393L12.4358 8.35785C12.4899 8.33785 12.523 8.3126 12.5343 8.2829C12.5506 8.23975 12.5226 8.1875 12.4954 8.13695C12.4814 8.11085 12.4682 8.0862 12.4611 8.06285C12.4307 7.96265 12.4786 7.8204 12.4807 7.81445L12.5162 7.82655C12.5157 7.8279 12.4701 7.9634 12.497 8.05195C12.503 8.0718 12.5154 8.0948 12.5284 8.1192C12.5581 8.17445 12.5917 8.23705 12.5693 8.29615C12.5539 8.33705 12.5145 8.3687 12.4488 8.393Z" fill="#5E1F3C"/>
<path d="M12.4719 8.68008C12.287 8.68008 12.1111 8.63748 12.0117 8.56663L12.0335 8.53613C12.2082 8.66068 12.6453 8.68908 12.9063 8.54458L12.9244 8.57738C12.7952 8.64883 12.6303 8.68008 12.4719 8.68008Z" fill="#5E1F3C"/>
<path d="M13.1351 8.04275C13.0351 8.04275 12.9392 8.00285 12.8459 7.92295L12.8703 7.8945C13.0413 8.0409 13.223 8.0407 13.4255 7.89355L13.4476 7.9239C13.3385 8.00315 13.2347 8.04275 13.1351 8.04275Z" fill="#5E1F3C"/>
<path d="M12.4549 8.83283C12.3845 8.83283 12.3169 8.81288 12.2512 8.77293L12.2707 8.74088C12.3897 8.81318 12.5162 8.81298 12.6573 8.74023L12.6745 8.77358C12.5978 8.81308 12.525 8.83283 12.4549 8.83283Z" fill="#5E1F3C"/>
<path d="M11.3491 7.63622C11.3925 7.58267 11.4445 7.53822 11.5068 7.50477C11.539 7.48932 11.5694 7.47312 11.615 7.47172C11.6545 7.47102 11.6874 7.47912 11.7214 7.48592C11.788 7.50137 11.8509 7.52372 11.9124 7.54892C11.9743 7.57332 12.0341 7.60147 12.0928 7.63277L12.0782 7.66627L11.892 7.60627C11.8298 7.58767 11.7675 7.56952 11.706 7.55582C11.6758 7.55047 11.6439 7.54432 11.6174 7.54592C11.5969 7.54632 11.5655 7.55772 11.5388 7.57002C11.4837 7.59537 11.4284 7.62872 11.3742 7.66282L11.3491 7.63622Z" fill="#5E1F3C"/>
<path d="M13.5638 7.66311C13.5066 7.62856 13.4483 7.59501 13.39 7.56961C13.3613 7.55731 13.3295 7.54626 13.3064 7.54591C13.2782 7.54441 13.2448 7.55066 13.2131 7.55606C13.1486 7.56976 13.0834 7.58786 13.0183 7.60646L12.8234 7.66636L12.8093 7.63261C12.8711 7.60131 12.934 7.57316 12.9988 7.54881C13.0633 7.52366 13.1291 7.50136 13.1983 7.48601C13.2337 7.47921 13.2679 7.47116 13.3083 7.47171C13.3541 7.47241 13.3872 7.48841 13.4206 7.50366C13.4861 7.53686 13.5415 7.58161 13.5882 7.63586L13.5638 7.66311Z" fill="#5E1F3C"/>
<path d="M11.3789 8.12452C11.3789 8.16742 11.3255 8.20217 11.2596 8.20217C11.1938 8.20217 11.1404 8.16742 11.1404 8.12452C11.1404 8.08162 11.1938 8.04688 11.2596 8.04688C11.3255 8.04688 11.3789 8.08162 11.3789 8.12452Z" fill="#E57B5E"/>
<path d="M13.7448 8.12452C13.7448 8.16742 13.6914 8.20217 13.6256 8.20217C13.5597 8.20217 13.5063 8.16742 13.5063 8.12452C13.5063 8.08162 13.5597 8.04688 13.6256 8.04688C13.6914 8.04688 13.7448 8.08162 13.7448 8.12452Z" fill="#E57B5E"/>
<path d="M11.6315 8.46142C11.2631 8.46142 10.9634 8.20407 10.9634 7.88772C10.9634 7.57137 11.2631 7.31396 11.6315 7.31396C11.9999 7.31396 12.2996 7.57132 12.2996 7.88772C12.2996 8.20407 11.9999 8.46142 11.6315 8.46142ZM11.6315 7.35152C11.2838 7.35152 11.0009 7.59206 11.0009 7.88776C11.0009 8.18341 11.2838 8.42396 11.6315 8.42396C11.9792 8.42396 12.2621 8.18341 12.2621 7.88776C12.2621 7.59206 11.9792 7.35152 11.6315 7.35152Z" fill="white"/>
<path d="M13.2415 8.46142C12.8732 8.46142 12.5735 8.20407 12.5735 7.88772C12.5735 7.57137 12.8732 7.31396 13.2415 7.31396C13.6099 7.31396 13.9096 7.57132 13.9096 7.88772C13.9097 8.20407 13.6099 8.46142 13.2415 8.46142ZM13.2415 7.35152C12.8938 7.35152 12.611 7.59206 12.611 7.88776C12.611 8.18341 12.8938 8.42396 13.2415 8.42396C13.5892 8.42396 13.8721 8.18341 13.8721 7.88776C13.8722 7.59206 13.5892 7.35152 13.2415 7.35152Z" fill="white"/>
<path d="M12.5826 7.86098C12.4765 7.79943 12.3805 7.79923 12.2892 7.86033L12.2683 7.82918C12.3713 7.76028 12.4833 7.76008 12.6014 7.82853L12.5826 7.86098Z" fill="white"/>
<path d="M12.9543 8.62654L12.9169 8.6236C12.9208 8.5727 12.9044 8.53664 12.8667 8.51339L12.8864 8.48145C12.9365 8.51245 12.9594 8.56119 12.9543 8.62654Z" fill="#5E1F3C"/>
<path d="M11.9934 8.6265C11.9883 8.56115 12.0111 8.5124 12.0613 8.48145L12.0809 8.5134C12.0432 8.53665 12.0268 8.5727 12.0308 8.6236L11.9934 8.6265Z" fill="#5E1F3C"/>
<path d="M6.22739 5.02611C6.22764 5.02586 6.22784 5.02566 6.22809 5.02541C6.23839 4.67096 5.95414 4.38041 5.60199 4.38041C5.58514 4.38041 5.56844 4.38106 5.55194 4.38241C5.32144 4.40071 5.09539 4.33336 4.91984 4.18286C4.77589 4.05946 4.58884 3.98486 4.38429 3.98486C4.04629 3.98486 3.75584 4.18831 3.62869 4.47946C3.57779 4.59601 3.46489 4.66806 3.33774 4.66746C3.33689 4.66746 3.33609 4.66746 3.33524 4.66746C3.11159 4.66746 2.92404 4.81971 2.86914 5.02611H6.22739Z" fill="white"/>
<path d="M22.838 3.28559C22.7769 3.03244 22.5495 2.84414 22.2776 2.84414C22.2624 2.84414 22.2475 2.84474 22.2326 2.84589C22.0604 2.85924 21.9051 2.74874 21.8375 2.58984C21.6835 2.22764 21.3247 1.97364 20.9063 1.97364C20.774 1.97364 20.6477 1.99909 20.5319 2.04534C20.3129 2.13284 20.057 2.05819 19.9172 1.86834C19.6737 1.53774 19.2817 1.32324 18.8396 1.32324C18.2951 1.32324 17.8266 1.64859 17.6179 2.11549C17.6138 2.12474 17.6098 2.13464 17.6058 2.14514C17.528 2.35294 17.3095 2.46579 17.0958 2.40629C17.0265 2.38699 16.9534 2.37664 16.8779 2.37664C16.612 2.37664 16.3764 2.50474 16.2288 2.70259C16.1221 2.84564 15.9437 2.91389 15.772 2.86554C15.7224 2.85159 15.6701 2.84414 15.6161 2.84414C15.3442 2.84414 15.1168 3.03244 15.0557 3.28559H22.838Z" fill="white"/>
</svg>
